M48
; DRILL file {KiCad (5.1.2)-1} date 2020-03-28 05:23:12 PM
; FORMAT={-:-/ absolute / inch / decimal}
; #@! TF.CreationDate,2020-03-28T17:23:12-07:00
; #@! TF.GenerationSoftware,Kicad,Pcbnew,(5.1.2)-1
; #@! TF.FileFunction,Plated,1,2,PTH
FMAT,2
INCH
T1C0.0157
T2C0.0197
T3C0.0217
T4C0.0250
T5C0.0276
T6C0.0300
T7C0.0315
T8C0.0394
T9C0.0400
T10C0.0520
T11C0.0591
T12C0.1200
%
G90
G05
T1
X0.3296Y-3.4855
X0.7196Y-3.3255
X1.2096Y-3.8605
X1.2449Y-2.3305
X1.3996Y-1.8555
X1.4072Y-1.2805
X1.4596Y-2.9855
X1.4896Y-2.4196
X1.5147Y-1.9565
X1.5496Y-1.9805
X1.6346Y-0.4455
X1.8246Y-1.0731
X1.8696Y-1.5355
X1.8996Y-2.3655
X1.9746Y-2.8805
X2.0116Y-2.898
X2.0679Y-2.7451
X2.0818Y-2.873
X2.1244Y-2.3807
X2.138Y-1.8258
X2.1896Y-2.6455
X2.2746Y-1.9305
X2.2746Y-2.0055
X2.3036Y-1.8595
X2.3396Y-0.5305
X2.3496Y-2.6655
X2.366Y-2.1461
X2.4196Y-2.5755
X2.461Y-1.7451
X2.5449Y-1.9415
X2.5506Y-1.8715
X2.5696Y-0.6105
X2.5796Y-0.5805
X2.5996Y-0.6105
X2.6296Y-0.6105
X2.6396Y-2.6555
X2.6628Y-2.9314
X2.6996Y-3.0805
X2.7164Y-2.3023
X2.7996Y-2.2305
X2.8246Y-3.015
X2.8496Y-2.1555
X2.8896Y-2.1555
X2.9246Y-2.1555
X2.9486Y-2.1715
X3.2246Y-2.9805
X3.2496Y-2.8805
X3.3496Y-2.8805
T2
X2.9996Y-2.3955
X2.9996Y-2.5955
T3
X1.4596Y-0.1455
X1.4596Y-0.1955
X1.4596Y-0.2455
T4
X3.3996Y-0.7555
X3.3996Y-1.0555
T6
X1.7312Y-3.3304
X2.0646Y-3.4055
X2.1696Y-3.4055
X2.7284Y-3.3237
X2.9946Y-3.4055
X3.0946Y-3.4055
T7
X0.4146Y-0.9555
X0.5146Y-0.9555
X0.6146Y-0.9555
X0.7146Y-0.9555
X0.8146Y-0.9555
X0.9146Y-0.9555
X1.0146Y-0.9555
X1.0196Y-3.3855
X1.0196Y-3.4855
X1.7896Y-3.8605
X1.8896Y-3.8605
X1.9896Y-3.8605
X2.0896Y-3.8605
X2.1896Y-3.8605
X2.2896Y-3.8605
X2.3896Y-3.8605
X2.4896Y-3.8605
X3.8246Y-1.0305
X3.8246Y-1.1305
X3.8246Y-1.2305
X0.0896Y-1.7155
X0.0896Y-1.8155
X0.0896Y-1.9155
X2.8396Y-0.1555
X2.9396Y-0.1555
X3.0396Y-0.1555
X3.1396Y-0.1555
X3.2396Y-0.1555
X3.3396Y-0.1555
X3.4396Y-0.1555
X1.3096Y-3.3755
X1.3096Y-3.4755
X1.7896Y-3.7605
X1.8896Y-3.7605
X1.9896Y-3.7605
X2.0896Y-3.7605
X2.1896Y-3.7605
X2.2896Y-3.7605
X2.3896Y-3.7605
X2.4896Y-3.7605
X3.1291Y-1.3655
X3.1291Y-1.5655
X3.1291Y-1.9655
X3.1296Y-1.4655
X3.1296Y-1.6655
X3.1296Y-1.8655
X3.1296Y-2.0655
X3.1301Y-1.7655
X3.2291Y-1.3655
X3.2291Y-1.5655
X3.2291Y-1.9655
X3.2296Y-1.4655
X3.2296Y-1.6655
X3.2296Y-1.8655
X3.2296Y-2.0655
X3.2301Y-1.7655
X3.3291Y-1.3655
X3.3291Y-1.5655
X3.3291Y-1.9655
X3.3296Y-1.4655
X3.3296Y-1.6655
X3.3296Y-1.8655
X3.3296Y-2.0655
X3.3301Y-1.7655
X3.4291Y-1.3655
X3.4291Y-1.5655
X3.4291Y-1.9655
X3.4296Y-1.4655
X3.4296Y-1.6655
X3.4296Y-1.8655
X3.4296Y-2.0655
X3.4301Y-1.7655
X3.5291Y-1.3655
X3.5291Y-1.5655
X3.5291Y-1.9655
X3.5296Y-1.4655
X3.5296Y-1.6655
X3.5296Y-1.8655
X3.5296Y-2.0655
X3.5301Y-1.7655
X3.6291Y-1.3655
X3.6291Y-1.5655
X3.6291Y-1.9655
X3.6296Y-1.4655
X3.6296Y-1.6655
X3.6296Y-1.8655
X3.6296Y-2.0655
X3.6301Y-1.7655
X3.7291Y-1.3655
X3.7291Y-1.5655
X3.7291Y-1.9655
X3.7296Y-1.4655
X3.7296Y-1.6655
X3.7296Y-1.8655
X3.7296Y-2.0655
X3.7301Y-1.7655
X3.8291Y-1.3655
X3.8291Y-1.5655
X3.8291Y-1.9655
X3.8296Y-1.4655
X3.8296Y-1.6655
X3.8296Y-1.8655
X3.8296Y-2.0655
X3.8301Y-1.7655
X2.8146Y-3.6605
X2.9146Y-3.6605
X3.0146Y-3.6605
X3.1146Y-3.6605
X3.2146Y-3.6605
X3.3146Y-3.6605
X3.4146Y-3.6605
X3.5146Y-3.6605
X0.4396Y-0.2755
X0.5396Y-0.2755
X0.6396Y-0.2755
X0.7396Y-0.2755
X0.8396Y-0.2755
X0.9396Y-0.2755
X1.0396Y-0.2755
X1.1396Y-0.2755
X2.8146Y-3.7605
X2.9146Y-3.7605
X3.0146Y-3.7605
X3.1146Y-3.7605
X3.2146Y-3.7605
X3.3146Y-3.7605
X3.4146Y-3.7605
X3.5146Y-3.7605
X0.4146Y-0.8305
X0.5146Y-0.8305
X0.6146Y-0.8305
X0.7146Y-0.8305
X0.8146Y-0.8305
X0.9146Y-0.8305
X1.0146Y-0.8305
X2.8146Y-3.8605
X2.9146Y-3.8605
X3.0146Y-3.8605
X3.1146Y-3.8605
X3.2146Y-3.8605
X3.3146Y-3.8605
X3.4146Y-3.8605
X3.5146Y-3.8605
X0.1055Y-2.2007
X0.1055Y-2.3007
X0.1055Y-2.4007
X0.1055Y-2.5007
X0.1055Y-2.6007
X0.1055Y-2.7007
X0.1055Y-2.8007
X0.1055Y-2.9007
X0.1055Y-3.0007
X0.1055Y-3.1007
X0.1055Y-3.2007
X0.1055Y-3.3007
X0.1055Y-3.4007
X1.1096Y-3.5755
X1.2096Y-3.5755
X2.7996Y-3.0805
X2.8996Y-3.0805
X2.9996Y-3.0805
X3.0996Y-3.0805
X3.1996Y-3.0805
X3.2996Y-3.0805
X3.3996Y-3.0805
X3.4996Y-3.0805
X1.7896Y-3.6605
X1.8896Y-3.6605
X1.9896Y-3.6605
X2.0896Y-3.6605
X2.1896Y-3.6605
X2.2896Y-3.6605
X2.3896Y-3.6605
X2.4896Y-3.6605
X0.4396Y-0.1505
X0.5396Y-0.1505
X0.6396Y-0.1505
X0.7396Y-0.1505
X0.8396Y-0.1505
X0.9396Y-0.1505
X1.0396Y-0.1505
X1.1396Y-0.1505
X1.1096Y-3.2855
X1.2096Y-3.2855
X2.1406Y-0.1545
X2.2406Y-0.1545
X2.3406Y-0.1545
X2.4406Y-0.1545
X2.5406Y-0.1545
X2.6406Y-0.1545
X2.7406Y-0.1545
T8
X2.7178Y-3.4855
X2.8178Y-3.4855
X2.9178Y-3.4855
X3.0178Y-3.4855
X3.1178Y-3.4855
X3.2178Y-3.4855
X3.3178Y-3.4855
X3.4178Y-3.4855
X3.5178Y-3.4855
X3.6178Y-3.4855
X0.5496Y-2.8205
X0.5496Y-2.9205
X0.5496Y-3.0205
X0.5496Y-3.1205
X0.5496Y-3.2205
X0.5496Y-3.3205
X0.5496Y-3.4205
X0.5496Y-3.5205
X0.5496Y-3.6205
X0.5496Y-3.7205
X1.2596Y-0.7155
X1.3596Y-0.7155
X1.4596Y-0.7155
X1.6626Y-1.4485
X1.6626Y-2.0485
X1.7626Y-1.4485
X1.7626Y-2.0485
X1.8626Y-1.4485
X1.8626Y-2.0485
X1.9626Y-1.4485
X1.9626Y-2.0485
X2.0626Y-1.4485
X2.0626Y-2.0485
X2.1626Y-1.4485
X2.1626Y-2.0485
X0.3395Y-0.3955
X0.3395Y-0.6955
X0.4395Y-0.3955
X0.4395Y-0.6955
X0.5395Y-0.3955
X0.5395Y-0.6955
X0.6395Y-0.3955
X0.6395Y-0.6955
X0.7395Y-0.3955
X0.7395Y-0.6955
X0.8395Y-0.3955
X0.8395Y-0.6955
X0.9395Y-0.3955
X0.9395Y-0.6955
X1.0395Y-0.3955
X1.0395Y-0.6955
X1.3736Y-2.2265
X1.3736Y-2.5265
X1.4736Y-2.2265
X1.4736Y-2.5265
X1.5736Y-2.2265
X1.5736Y-2.5265
X1.6736Y-2.2265
X1.6736Y-2.5265
X1.7736Y-2.2265
X1.7736Y-2.5265
X1.8736Y-2.2265
X1.8736Y-2.5265
X1.9736Y-2.2265
X1.9736Y-2.5265
X2.0736Y-2.2265
X2.0736Y-2.5265
X2.1736Y-2.2265
X2.1736Y-2.5265
X2.2736Y-2.2265
X2.2736Y-2.5265
X2.3736Y-2.2265
X2.3736Y-2.5265
X2.4736Y-2.2265
X2.4736Y-2.5265
X2.5736Y-2.2265
X2.5736Y-2.5265
X2.6736Y-2.2265
X2.6736Y-2.5265
X1.6883Y-3.4855
X1.7883Y-3.4855
X1.8883Y-3.4855
X1.9883Y-3.4855
X2.0883Y-3.4855
X2.1883Y-3.4855
X2.2883Y-3.4855
X2.3883Y-3.4855
X2.4883Y-3.4855
X2.5883Y-3.4855
T9
X1.1881Y-0.9438
X1.2881Y-0.9438
X1.3881Y-0.9438
X1.4881Y-0.9438
X1.5881Y-0.9438
X1.6881Y-0.9438
X1.8881Y-0.9438
X1.9881Y-0.9438
X2.0881Y-0.9438
X2.1881Y-0.9438
X2.2881Y-0.9438
X2.3881Y-0.9438
X2.4881Y-0.9438
X2.5881Y-0.9438
X1.1881Y-2.8438
X1.2881Y-2.8438
X1.3881Y-2.8438
X1.4881Y-2.8438
X1.5881Y-2.8438
X1.6881Y-2.8438
X1.7881Y-2.8438
X1.8881Y-2.8438
X2.0481Y-2.8438
X2.1481Y-2.8438
X2.2481Y-2.8438
X2.3481Y-2.8438
X2.4481Y-2.8438
X2.5481Y-2.8438
X2.6481Y-2.8438
X2.7481Y-2.8438
X2.8481Y-2.8438
X2.9481Y-2.8438
T10
X0.6096Y-1.2655
X0.6096Y-1.5655
T11
X0.2936Y-1.6115
X0.2936Y-1.8115
X0.2936Y-2.0115
T12
X3.1381Y-0.9438
X1.0881Y-1.1438
X3.0881Y-2.8438
X1.0881Y-2.2438
T5
G00X3.6774Y-0.649
M15
G01X3.6774Y-0.649
M16
G05
G00X3.6774Y-0.712
M15
G01X3.6774Y-0.712
M16
G05
G00X3.6774Y-0.775
M15
G01X3.6774Y-0.775
M16
G05
G00X3.7246Y-0.6805
M15
G01X3.7246Y-0.6805
M16
G05
G00X3.7246Y-0.7435
M15
G01X3.7246Y-0.7435
M16
G05
G00X3.8998Y-0.5683
M15
G01X3.8526Y-0.5683
M16
G05
G00X3.8998Y-0.8557
M15
G01X3.8526Y-0.8557
M16
G05
T0
M30
