%TF.GenerationSoftware,KiCad,Pcbnew,(6.0.0)*%
%TF.CreationDate,2022-11-14T01:44:22-08:00*%
%TF.ProjectId,Luciebox_v4,4c756369-6562-46f7-985f-76342e6b6963,rev?*%
%TF.SameCoordinates,Original*%
%TF.FileFunction,Legend,Top*%
%TF.FilePolarity,Positive*%
%FSLAX46Y46*%
G04 Gerber Fmt 4.6, Leading zero omitted, Abs format (unit mm)*
G04 Created by KiCad (PCBNEW (6.0.0)) date 2022-11-14 01:44:22*
%MOMM*%
%LPD*%
G01*
G04 APERTURE LIST*
%ADD10C,0.150000*%
%ADD11C,0.120000*%
G04 APERTURE END LIST*
D10*
X58940700Y-25425400D02*
X58940700Y-27965400D01*
X61480700Y-15265400D02*
X61480700Y-22885400D01*
X51320700Y-30505400D02*
X51320700Y-33045400D01*
X48780700Y-15519400D02*
X48780700Y-15265400D01*
X51320700Y-15265400D02*
X51320700Y-22885400D01*
X53860700Y-15265400D02*
X53860700Y-22885400D01*
X66560700Y-33299400D02*
X66560700Y-15265400D01*
X56400700Y-25425400D02*
X56400700Y-27965400D01*
X61480700Y-25425400D02*
X61480700Y-27965400D01*
X64020700Y-25425400D02*
X64020700Y-27965400D01*
X53860700Y-25425400D02*
X53860700Y-27965400D01*
X58940700Y-15265400D02*
X58940700Y-22885400D01*
X61480700Y-30505400D02*
X61480700Y-33045400D01*
X64020700Y-15265400D02*
X64020700Y-22885400D01*
X58940700Y-30505400D02*
X58940700Y-33045400D01*
X53860700Y-30505400D02*
X53860700Y-33045400D01*
X48780700Y-33045400D02*
X48780700Y-15519400D01*
X56400700Y-15265400D02*
X56400700Y-22885400D01*
X51320700Y-25425400D02*
X51320700Y-27965400D01*
X56400700Y-30505400D02*
X56400700Y-33045400D01*
X64020700Y-30505400D02*
X64020700Y-33045400D01*
X16811785Y-10037380D02*
X16335595Y-10037380D01*
X16335595Y-9037380D01*
X17573690Y-9370714D02*
X17573690Y-10037380D01*
X17145119Y-9370714D02*
X17145119Y-9894523D01*
X17192738Y-9989761D01*
X17287976Y-10037380D01*
X17430833Y-10037380D01*
X17526071Y-9989761D01*
X17573690Y-9942142D01*
X18478452Y-9989761D02*
X18383214Y-10037380D01*
X18192738Y-10037380D01*
X18097500Y-9989761D01*
X18049880Y-9942142D01*
X18002261Y-9846904D01*
X18002261Y-9561190D01*
X18049880Y-9465952D01*
X18097500Y-9418333D01*
X18192738Y-9370714D01*
X18383214Y-9370714D01*
X18478452Y-9418333D01*
X18907023Y-10037380D02*
X18907023Y-9370714D01*
X18907023Y-9037380D02*
X18859404Y-9085000D01*
X18907023Y-9132619D01*
X18954642Y-9085000D01*
X18907023Y-9037380D01*
X18907023Y-9132619D01*
X19764166Y-9989761D02*
X19668928Y-10037380D01*
X19478452Y-10037380D01*
X19383214Y-9989761D01*
X19335595Y-9894523D01*
X19335595Y-9513571D01*
X19383214Y-9418333D01*
X19478452Y-9370714D01*
X19668928Y-9370714D01*
X19764166Y-9418333D01*
X19811785Y-9513571D01*
X19811785Y-9608809D01*
X19335595Y-9704047D01*
X20240357Y-10037380D02*
X20240357Y-9037380D01*
X20240357Y-9418333D02*
X20335595Y-9370714D01*
X20526071Y-9370714D01*
X20621309Y-9418333D01*
X20668928Y-9465952D01*
X20716547Y-9561190D01*
X20716547Y-9846904D01*
X20668928Y-9942142D01*
X20621309Y-9989761D01*
X20526071Y-10037380D01*
X20335595Y-10037380D01*
X20240357Y-9989761D01*
X21287976Y-10037380D02*
X21192738Y-9989761D01*
X21145119Y-9942142D01*
X21097500Y-9846904D01*
X21097500Y-9561190D01*
X21145119Y-9465952D01*
X21192738Y-9418333D01*
X21287976Y-9370714D01*
X21430833Y-9370714D01*
X21526071Y-9418333D01*
X21573690Y-9465952D01*
X21621309Y-9561190D01*
X21621309Y-9846904D01*
X21573690Y-9942142D01*
X21526071Y-9989761D01*
X21430833Y-10037380D01*
X21287976Y-10037380D01*
X21954642Y-10037380D02*
X22478452Y-9370714D01*
X21954642Y-9370714D02*
X22478452Y-10037380D01*
X23526071Y-9370714D02*
X23764166Y-10037380D01*
X24002261Y-9370714D01*
X24811785Y-9370714D02*
X24811785Y-10037380D01*
X24573690Y-8989761D02*
X24335595Y-9704047D01*
X24954642Y-9704047D01*
X25335595Y-9942142D02*
X25383214Y-9989761D01*
X25335595Y-10037380D01*
X25287976Y-9989761D01*
X25335595Y-9942142D01*
X25335595Y-10037380D01*
X26002261Y-9037380D02*
X26097500Y-9037380D01*
X26192738Y-9085000D01*
X26240357Y-9132619D01*
X26287976Y-9227857D01*
X26335595Y-9418333D01*
X26335595Y-9656428D01*
X26287976Y-9846904D01*
X26240357Y-9942142D01*
X26192738Y-9989761D01*
X26097500Y-10037380D01*
X26002261Y-10037380D01*
X25907023Y-9989761D01*
X25859404Y-9942142D01*
X25811785Y-9846904D01*
X25764166Y-9656428D01*
X25764166Y-9418333D01*
X25811785Y-9227857D01*
X25859404Y-9132619D01*
X25907023Y-9085000D01*
X26002261Y-9037380D01*
X16764166Y-11647380D02*
X16764166Y-11123571D01*
X16716547Y-11028333D01*
X16621309Y-10980714D01*
X16430833Y-10980714D01*
X16335595Y-11028333D01*
X16764166Y-11599761D02*
X16668928Y-11647380D01*
X16430833Y-11647380D01*
X16335595Y-11599761D01*
X16287976Y-11504523D01*
X16287976Y-11409285D01*
X16335595Y-11314047D01*
X16430833Y-11266428D01*
X16668928Y-11266428D01*
X16764166Y-11218809D01*
X18002261Y-10980714D02*
X18002261Y-11647380D01*
X18002261Y-11075952D02*
X18049880Y-11028333D01*
X18145119Y-10980714D01*
X18287976Y-10980714D01*
X18383214Y-11028333D01*
X18430833Y-11123571D01*
X18430833Y-11647380D01*
X19049880Y-11647380D02*
X18954642Y-11599761D01*
X18907023Y-11552142D01*
X18859404Y-11456904D01*
X18859404Y-11171190D01*
X18907023Y-11075952D01*
X18954642Y-11028333D01*
X19049880Y-10980714D01*
X19192738Y-10980714D01*
X19287976Y-11028333D01*
X19335595Y-11075952D01*
X19383214Y-11171190D01*
X19383214Y-11456904D01*
X19335595Y-11552142D01*
X19287976Y-11599761D01*
X19192738Y-11647380D01*
X19049880Y-11647380D01*
X19811785Y-10980714D02*
X19811785Y-11647380D01*
X19811785Y-11075952D02*
X19859404Y-11028333D01*
X19954642Y-10980714D01*
X20097500Y-10980714D01*
X20192738Y-11028333D01*
X20240357Y-11123571D01*
X20240357Y-11647380D01*
X20716547Y-11647380D02*
X20716547Y-10647380D01*
X20811785Y-11266428D02*
X21097500Y-11647380D01*
X21097500Y-10980714D02*
X20716547Y-11361666D01*
X21907023Y-11599761D02*
X21811785Y-11647380D01*
X21621309Y-11647380D01*
X21526071Y-11599761D01*
X21478452Y-11504523D01*
X21478452Y-11123571D01*
X21526071Y-11028333D01*
X21621309Y-10980714D01*
X21811785Y-10980714D01*
X21907023Y-11028333D01*
X21954642Y-11123571D01*
X21954642Y-11218809D01*
X21478452Y-11314047D01*
X22526071Y-11647380D02*
X22430833Y-11599761D01*
X22383214Y-11504523D01*
X22383214Y-10647380D01*
X24145119Y-11647380D02*
X23668928Y-11647380D01*
X23668928Y-10647380D01*
X24621309Y-11647380D02*
X24526071Y-11599761D01*
X24478452Y-11552142D01*
X24430833Y-11456904D01*
X24430833Y-11171190D01*
X24478452Y-11075952D01*
X24526071Y-11028333D01*
X24621309Y-10980714D01*
X24764166Y-10980714D01*
X24859404Y-11028333D01*
X24907023Y-11075952D01*
X24954642Y-11171190D01*
X24954642Y-11456904D01*
X24907023Y-11552142D01*
X24859404Y-11599761D01*
X24764166Y-11647380D01*
X24621309Y-11647380D01*
X25811785Y-11647380D02*
X25811785Y-10647380D01*
X25811785Y-11599761D02*
X25716547Y-11647380D01*
X25526071Y-11647380D01*
X25430833Y-11599761D01*
X25383214Y-11552142D01*
X25335595Y-11456904D01*
X25335595Y-11171190D01*
X25383214Y-11075952D01*
X25430833Y-11028333D01*
X25526071Y-10980714D01*
X25716547Y-10980714D01*
X25811785Y-11028333D01*
X26668928Y-11599761D02*
X26573690Y-11647380D01*
X26383214Y-11647380D01*
X26287976Y-11599761D01*
X26240357Y-11504523D01*
X26240357Y-11123571D01*
X26287976Y-11028333D01*
X26383214Y-10980714D01*
X26573690Y-10980714D01*
X26668928Y-11028333D01*
X26716547Y-11123571D01*
X26716547Y-11218809D01*
X26240357Y-11314047D01*
X27907023Y-10980714D02*
X27907023Y-11980714D01*
X27907023Y-11028333D02*
X28002261Y-10980714D01*
X28192738Y-10980714D01*
X28287976Y-11028333D01*
X28335595Y-11075952D01*
X28383214Y-11171190D01*
X28383214Y-11456904D01*
X28335595Y-11552142D01*
X28287976Y-11599761D01*
X28192738Y-11647380D01*
X28002261Y-11647380D01*
X27907023Y-11599761D01*
X28811785Y-11647380D02*
X28811785Y-10980714D01*
X28811785Y-11171190D02*
X28859404Y-11075952D01*
X28907023Y-11028333D01*
X29002261Y-10980714D01*
X29097500Y-10980714D01*
X29573690Y-11647380D02*
X29478452Y-11599761D01*
X29430833Y-11552142D01*
X29383214Y-11456904D01*
X29383214Y-11171190D01*
X29430833Y-11075952D01*
X29478452Y-11028333D01*
X29573690Y-10980714D01*
X29716547Y-10980714D01*
X29811785Y-11028333D01*
X29859404Y-11075952D01*
X29907023Y-11171190D01*
X29907023Y-11456904D01*
X29859404Y-11552142D01*
X29811785Y-11599761D01*
X29716547Y-11647380D01*
X29573690Y-11647380D01*
X30764166Y-11647380D02*
X30764166Y-10647380D01*
X30764166Y-11599761D02*
X30668928Y-11647380D01*
X30478452Y-11647380D01*
X30383214Y-11599761D01*
X30335595Y-11552142D01*
X30287976Y-11456904D01*
X30287976Y-11171190D01*
X30335595Y-11075952D01*
X30383214Y-11028333D01*
X30478452Y-10980714D01*
X30668928Y-10980714D01*
X30764166Y-11028333D01*
X31668928Y-10980714D02*
X31668928Y-11647380D01*
X31240357Y-10980714D02*
X31240357Y-11504523D01*
X31287976Y-11599761D01*
X31383214Y-11647380D01*
X31526071Y-11647380D01*
X31621309Y-11599761D01*
X31668928Y-11552142D01*
X32573690Y-11599761D02*
X32478452Y-11647380D01*
X32287976Y-11647380D01*
X32192738Y-11599761D01*
X32145119Y-11552142D01*
X32097500Y-11456904D01*
X32097500Y-11171190D01*
X32145119Y-11075952D01*
X32192738Y-11028333D01*
X32287976Y-10980714D01*
X32478452Y-10980714D01*
X32573690Y-11028333D01*
X32859404Y-10980714D02*
X33240357Y-10980714D01*
X33002261Y-10647380D02*
X33002261Y-11504523D01*
X33049880Y-11599761D01*
X33145119Y-11647380D01*
X33240357Y-11647380D01*
X33573690Y-11647380D02*
X33573690Y-10980714D01*
X33573690Y-10647380D02*
X33526071Y-10695000D01*
X33573690Y-10742619D01*
X33621309Y-10695000D01*
X33573690Y-10647380D01*
X33573690Y-10742619D01*
X34192738Y-11647380D02*
X34097500Y-11599761D01*
X34049880Y-11552142D01*
X34002261Y-11456904D01*
X34002261Y-11171190D01*
X34049880Y-11075952D01*
X34097500Y-11028333D01*
X34192738Y-10980714D01*
X34335595Y-10980714D01*
X34430833Y-11028333D01*
X34478452Y-11075952D01*
X34526071Y-11171190D01*
X34526071Y-11456904D01*
X34478452Y-11552142D01*
X34430833Y-11599761D01*
X34335595Y-11647380D01*
X34192738Y-11647380D01*
X34954642Y-10980714D02*
X34954642Y-11647380D01*
X34954642Y-11075952D02*
X35002261Y-11028333D01*
X35097500Y-10980714D01*
X35240357Y-10980714D01*
X35335595Y-11028333D01*
X35383214Y-11123571D01*
X35383214Y-11647380D01*
X16287976Y-12352619D02*
X16335595Y-12305000D01*
X16430833Y-12257380D01*
X16668928Y-12257380D01*
X16764166Y-12305000D01*
X16811785Y-12352619D01*
X16859404Y-12447857D01*
X16859404Y-12543095D01*
X16811785Y-12685952D01*
X16240357Y-13257380D01*
X16859404Y-13257380D01*
X17478452Y-12257380D02*
X17573690Y-12257380D01*
X17668928Y-12305000D01*
X17716547Y-12352619D01*
X17764166Y-12447857D01*
X17811785Y-12638333D01*
X17811785Y-12876428D01*
X17764166Y-13066904D01*
X17716547Y-13162142D01*
X17668928Y-13209761D01*
X17573690Y-13257380D01*
X17478452Y-13257380D01*
X17383214Y-13209761D01*
X17335595Y-13162142D01*
X17287976Y-13066904D01*
X17240357Y-12876428D01*
X17240357Y-12638333D01*
X17287976Y-12447857D01*
X17335595Y-12352619D01*
X17383214Y-12305000D01*
X17478452Y-12257380D01*
X18192738Y-12352619D02*
X18240357Y-12305000D01*
X18335595Y-12257380D01*
X18573690Y-12257380D01*
X18668928Y-12305000D01*
X18716547Y-12352619D01*
X18764166Y-12447857D01*
X18764166Y-12543095D01*
X18716547Y-12685952D01*
X18145119Y-13257380D01*
X18764166Y-13257380D01*
X19145119Y-12352619D02*
X19192738Y-12305000D01*
X19287976Y-12257380D01*
X19526071Y-12257380D01*
X19621309Y-12305000D01*
X19668928Y-12352619D01*
X19716547Y-12447857D01*
X19716547Y-12543095D01*
X19668928Y-12685952D01*
X19097500Y-13257380D01*
X19716547Y-13257380D01*
X20145119Y-12876428D02*
X20907023Y-12876428D01*
X21907023Y-13257380D02*
X21335595Y-13257380D01*
X21621309Y-13257380D02*
X21621309Y-12257380D01*
X21526071Y-12400238D01*
X21430833Y-12495476D01*
X21335595Y-12543095D01*
X22859404Y-13257380D02*
X22287976Y-13257380D01*
X22573690Y-13257380D02*
X22573690Y-12257380D01*
X22478452Y-12400238D01*
X22383214Y-12495476D01*
X22287976Y-12543095D01*
X16478452Y-14867380D02*
X16383214Y-14819761D01*
X16335595Y-14724523D01*
X16335595Y-13867380D01*
X17287976Y-14200714D02*
X17287976Y-14867380D01*
X16859404Y-14200714D02*
X16859404Y-14724523D01*
X16907023Y-14819761D01*
X17002261Y-14867380D01*
X17145119Y-14867380D01*
X17240357Y-14819761D01*
X17287976Y-14772142D01*
X18192738Y-14819761D02*
X18097500Y-14867380D01*
X17907023Y-14867380D01*
X17811785Y-14819761D01*
X17764166Y-14772142D01*
X17716547Y-14676904D01*
X17716547Y-14391190D01*
X17764166Y-14295952D01*
X17811785Y-14248333D01*
X17907023Y-14200714D01*
X18097500Y-14200714D01*
X18192738Y-14248333D01*
X18621309Y-14867380D02*
X18621309Y-14200714D01*
X18621309Y-13867380D02*
X18573690Y-13915000D01*
X18621309Y-13962619D01*
X18668928Y-13915000D01*
X18621309Y-13867380D01*
X18621309Y-13962619D01*
X19478452Y-14819761D02*
X19383214Y-14867380D01*
X19192738Y-14867380D01*
X19097500Y-14819761D01*
X19049880Y-14724523D01*
X19049880Y-14343571D01*
X19097500Y-14248333D01*
X19192738Y-14200714D01*
X19383214Y-14200714D01*
X19478452Y-14248333D01*
X19526071Y-14343571D01*
X19526071Y-14438809D01*
X19049880Y-14534047D01*
X19954642Y-14867380D02*
X19954642Y-13867380D01*
X19954642Y-14248333D02*
X20049880Y-14200714D01*
X20240357Y-14200714D01*
X20335595Y-14248333D01*
X20383214Y-14295952D01*
X20430833Y-14391190D01*
X20430833Y-14676904D01*
X20383214Y-14772142D01*
X20335595Y-14819761D01*
X20240357Y-14867380D01*
X20049880Y-14867380D01*
X19954642Y-14819761D01*
X21002261Y-14867380D02*
X20907023Y-14819761D01*
X20859404Y-14772142D01*
X20811785Y-14676904D01*
X20811785Y-14391190D01*
X20859404Y-14295952D01*
X20907023Y-14248333D01*
X21002261Y-14200714D01*
X21145119Y-14200714D01*
X21240357Y-14248333D01*
X21287976Y-14295952D01*
X21335595Y-14391190D01*
X21335595Y-14676904D01*
X21287976Y-14772142D01*
X21240357Y-14819761D01*
X21145119Y-14867380D01*
X21002261Y-14867380D01*
X21668928Y-14867380D02*
X22192738Y-14200714D01*
X21668928Y-14200714D02*
X22192738Y-14867380D01*
X22573690Y-14772142D02*
X22621309Y-14819761D01*
X22573690Y-14867380D01*
X22526071Y-14819761D01*
X22573690Y-14772142D01*
X22573690Y-14867380D01*
X23478452Y-14867380D02*
X23478452Y-14343571D01*
X23430833Y-14248333D01*
X23335595Y-14200714D01*
X23145119Y-14200714D01*
X23049880Y-14248333D01*
X23478452Y-14819761D02*
X23383214Y-14867380D01*
X23145119Y-14867380D01*
X23049880Y-14819761D01*
X23002261Y-14724523D01*
X23002261Y-14629285D01*
X23049880Y-14534047D01*
X23145119Y-14486428D01*
X23383214Y-14486428D01*
X23478452Y-14438809D01*
X23954642Y-14867380D02*
X23954642Y-14200714D01*
X23954642Y-14295952D02*
X24002261Y-14248333D01*
X24097500Y-14200714D01*
X24240357Y-14200714D01*
X24335595Y-14248333D01*
X24383214Y-14343571D01*
X24383214Y-14867380D01*
X24383214Y-14343571D02*
X24430833Y-14248333D01*
X24526071Y-14200714D01*
X24668928Y-14200714D01*
X24764166Y-14248333D01*
X24811785Y-14343571D01*
X24811785Y-14867380D01*
X25668928Y-14819761D02*
X25573690Y-14867380D01*
X25383214Y-14867380D01*
X25287976Y-14819761D01*
X25240357Y-14724523D01*
X25240357Y-14343571D01*
X25287976Y-14248333D01*
X25383214Y-14200714D01*
X25573690Y-14200714D01*
X25668928Y-14248333D01*
X25716547Y-14343571D01*
X25716547Y-14438809D01*
X25240357Y-14534047D01*
X26145119Y-14867380D02*
X26145119Y-14200714D01*
X26145119Y-13867380D02*
X26097500Y-13915000D01*
X26145119Y-13962619D01*
X26192738Y-13915000D01*
X26145119Y-13867380D01*
X26145119Y-13962619D01*
X26621309Y-14200714D02*
X26621309Y-15057857D01*
X26573690Y-15153095D01*
X26478452Y-15200714D01*
X26430833Y-15200714D01*
X26621309Y-13867380D02*
X26573690Y-13915000D01*
X26621309Y-13962619D01*
X26668928Y-13915000D01*
X26621309Y-13867380D01*
X26621309Y-13962619D01*
X27478452Y-14819761D02*
X27383214Y-14867380D01*
X27192738Y-14867380D01*
X27097500Y-14819761D01*
X27049880Y-14724523D01*
X27049880Y-14343571D01*
X27097500Y-14248333D01*
X27192738Y-14200714D01*
X27383214Y-14200714D01*
X27478452Y-14248333D01*
X27526071Y-14343571D01*
X27526071Y-14438809D01*
X27049880Y-14534047D01*
X27954642Y-14772142D02*
X28002261Y-14819761D01*
X27954642Y-14867380D01*
X27907023Y-14819761D01*
X27954642Y-14772142D01*
X27954642Y-14867380D01*
X28859404Y-14819761D02*
X28764166Y-14867380D01*
X28573690Y-14867380D01*
X28478452Y-14819761D01*
X28430833Y-14772142D01*
X28383214Y-14676904D01*
X28383214Y-14391190D01*
X28430833Y-14295952D01*
X28478452Y-14248333D01*
X28573690Y-14200714D01*
X28764166Y-14200714D01*
X28859404Y-14248333D01*
X29430833Y-14867380D02*
X29335595Y-14819761D01*
X29287976Y-14772142D01*
X29240357Y-14676904D01*
X29240357Y-14391190D01*
X29287976Y-14295952D01*
X29335595Y-14248333D01*
X29430833Y-14200714D01*
X29573690Y-14200714D01*
X29668928Y-14248333D01*
X29716547Y-14295952D01*
X29764166Y-14391190D01*
X29764166Y-14676904D01*
X29716547Y-14772142D01*
X29668928Y-14819761D01*
X29573690Y-14867380D01*
X29430833Y-14867380D01*
X30192738Y-14867380D02*
X30192738Y-14200714D01*
X30192738Y-14295952D02*
X30240357Y-14248333D01*
X30335595Y-14200714D01*
X30478452Y-14200714D01*
X30573690Y-14248333D01*
X30621309Y-14343571D01*
X30621309Y-14867380D01*
X30621309Y-14343571D02*
X30668928Y-14248333D01*
X30764166Y-14200714D01*
X30907023Y-14200714D01*
X31002261Y-14248333D01*
X31049880Y-14343571D01*
X31049880Y-14867380D01*
%TO.C,R11*%
X56479180Y-76338857D02*
X56002990Y-76672190D01*
X56479180Y-76910285D02*
X55479180Y-76910285D01*
X55479180Y-76529333D01*
X55526800Y-76434095D01*
X55574419Y-76386476D01*
X55669657Y-76338857D01*
X55812514Y-76338857D01*
X55907752Y-76386476D01*
X55955371Y-76434095D01*
X56002990Y-76529333D01*
X56002990Y-76910285D01*
X56479180Y-75386476D02*
X56479180Y-75957904D01*
X56479180Y-75672190D02*
X55479180Y-75672190D01*
X55622038Y-75767428D01*
X55717276Y-75862666D01*
X55764895Y-75957904D01*
X56479180Y-74434095D02*
X56479180Y-75005523D01*
X56479180Y-74719809D02*
X55479180Y-74719809D01*
X55622038Y-74815047D01*
X55717276Y-74910285D01*
X55764895Y-75005523D01*
%TO.C,R13*%
X59479180Y-76338857D02*
X59002990Y-76672190D01*
X59479180Y-76910285D02*
X58479180Y-76910285D01*
X58479180Y-76529333D01*
X58526800Y-76434095D01*
X58574419Y-76386476D01*
X58669657Y-76338857D01*
X58812514Y-76338857D01*
X58907752Y-76386476D01*
X58955371Y-76434095D01*
X59002990Y-76529333D01*
X59002990Y-76910285D01*
X59479180Y-75386476D02*
X59479180Y-75957904D01*
X59479180Y-75672190D02*
X58479180Y-75672190D01*
X58622038Y-75767428D01*
X58717276Y-75862666D01*
X58764895Y-75957904D01*
X58479180Y-75053142D02*
X58479180Y-74434095D01*
X58860133Y-74767428D01*
X58860133Y-74624571D01*
X58907752Y-74529333D01*
X58955371Y-74481714D01*
X59050609Y-74434095D01*
X59288704Y-74434095D01*
X59383942Y-74481714D01*
X59431561Y-74529333D01*
X59479180Y-74624571D01*
X59479180Y-74910285D01*
X59431561Y-75005523D01*
X59383942Y-75053142D01*
%TO.C,R5*%
X43552380Y-1690666D02*
X43076190Y-2024000D01*
X43552380Y-2262095D02*
X42552380Y-2262095D01*
X42552380Y-1881142D01*
X42600000Y-1785904D01*
X42647619Y-1738285D01*
X42742857Y-1690666D01*
X42885714Y-1690666D01*
X42980952Y-1738285D01*
X43028571Y-1785904D01*
X43076190Y-1881142D01*
X43076190Y-2262095D01*
X42552380Y-785904D02*
X42552380Y-1262095D01*
X43028571Y-1309714D01*
X42980952Y-1262095D01*
X42933333Y-1166857D01*
X42933333Y-928761D01*
X42980952Y-833523D01*
X43028571Y-785904D01*
X43123809Y-738285D01*
X43361904Y-738285D01*
X43457142Y-785904D01*
X43504761Y-833523D01*
X43552380Y-928761D01*
X43552380Y-1166857D01*
X43504761Y-1262095D01*
X43457142Y-1309714D01*
%TO.C,D7*%
X34742380Y-77700095D02*
X33742380Y-77700095D01*
X33742380Y-77462000D01*
X33790000Y-77319142D01*
X33885238Y-77223904D01*
X33980476Y-77176285D01*
X34170952Y-77128666D01*
X34313809Y-77128666D01*
X34504285Y-77176285D01*
X34599523Y-77223904D01*
X34694761Y-77319142D01*
X34742380Y-77462000D01*
X34742380Y-77700095D01*
X33742380Y-76795333D02*
X33742380Y-76128666D01*
X34742380Y-76557238D01*
%TO.C,D1*%
X47950380Y-77700095D02*
X46950380Y-77700095D01*
X46950380Y-77462000D01*
X46998000Y-77319142D01*
X47093238Y-77223904D01*
X47188476Y-77176285D01*
X47378952Y-77128666D01*
X47521809Y-77128666D01*
X47712285Y-77176285D01*
X47807523Y-77223904D01*
X47902761Y-77319142D01*
X47950380Y-77462000D01*
X47950380Y-77700095D01*
X47950380Y-76176285D02*
X47950380Y-76747714D01*
X47950380Y-76462000D02*
X46950380Y-76462000D01*
X47093238Y-76557238D01*
X47188476Y-76652476D01*
X47236095Y-76747714D01*
%TO.C,D2*%
X45918380Y-77700095D02*
X44918380Y-77700095D01*
X44918380Y-77462000D01*
X44966000Y-77319142D01*
X45061238Y-77223904D01*
X45156476Y-77176285D01*
X45346952Y-77128666D01*
X45489809Y-77128666D01*
X45680285Y-77176285D01*
X45775523Y-77223904D01*
X45870761Y-77319142D01*
X45918380Y-77462000D01*
X45918380Y-77700095D01*
X45013619Y-76747714D02*
X44966000Y-76700095D01*
X44918380Y-76604857D01*
X44918380Y-76366761D01*
X44966000Y-76271523D01*
X45013619Y-76223904D01*
X45108857Y-76176285D01*
X45204095Y-76176285D01*
X45346952Y-76223904D01*
X45918380Y-76795333D01*
X45918380Y-76176285D01*
%TO.C,D3*%
X43632380Y-77700095D02*
X42632380Y-77700095D01*
X42632380Y-77462000D01*
X42680000Y-77319142D01*
X42775238Y-77223904D01*
X42870476Y-77176285D01*
X43060952Y-77128666D01*
X43203809Y-77128666D01*
X43394285Y-77176285D01*
X43489523Y-77223904D01*
X43584761Y-77319142D01*
X43632380Y-77462000D01*
X43632380Y-77700095D01*
X42632380Y-76795333D02*
X42632380Y-76176285D01*
X43013333Y-76509619D01*
X43013333Y-76366761D01*
X43060952Y-76271523D01*
X43108571Y-76223904D01*
X43203809Y-76176285D01*
X43441904Y-76176285D01*
X43537142Y-76223904D01*
X43584761Y-76271523D01*
X43632380Y-76366761D01*
X43632380Y-76652476D01*
X43584761Y-76747714D01*
X43537142Y-76795333D01*
%TO.C,T5*%
X11797380Y-103714904D02*
X11797380Y-103143476D01*
X12797380Y-103429190D02*
X11797380Y-103429190D01*
X11797380Y-102333952D02*
X11797380Y-102810142D01*
X12273571Y-102857761D01*
X12225952Y-102810142D01*
X12178333Y-102714904D01*
X12178333Y-102476809D01*
X12225952Y-102381571D01*
X12273571Y-102333952D01*
X12368809Y-102286333D01*
X12606904Y-102286333D01*
X12702142Y-102333952D01*
X12749761Y-102381571D01*
X12797380Y-102476809D01*
X12797380Y-102714904D01*
X12749761Y-102810142D01*
X12702142Y-102857761D01*
%TO.C,R8*%
X57979180Y-85112666D02*
X57502990Y-85446000D01*
X57979180Y-85684095D02*
X56979180Y-85684095D01*
X56979180Y-85303142D01*
X57026800Y-85207904D01*
X57074419Y-85160285D01*
X57169657Y-85112666D01*
X57312514Y-85112666D01*
X57407752Y-85160285D01*
X57455371Y-85207904D01*
X57502990Y-85303142D01*
X57502990Y-85684095D01*
X57407752Y-84541238D02*
X57360133Y-84636476D01*
X57312514Y-84684095D01*
X57217276Y-84731714D01*
X57169657Y-84731714D01*
X57074419Y-84684095D01*
X57026800Y-84636476D01*
X56979180Y-84541238D01*
X56979180Y-84350761D01*
X57026800Y-84255523D01*
X57074419Y-84207904D01*
X57169657Y-84160285D01*
X57217276Y-84160285D01*
X57312514Y-84207904D01*
X57360133Y-84255523D01*
X57407752Y-84350761D01*
X57407752Y-84541238D01*
X57455371Y-84636476D01*
X57502990Y-84684095D01*
X57598228Y-84731714D01*
X57788704Y-84731714D01*
X57883942Y-84684095D01*
X57931561Y-84636476D01*
X57979180Y-84541238D01*
X57979180Y-84350761D01*
X57931561Y-84255523D01*
X57883942Y-84207904D01*
X57788704Y-84160285D01*
X57598228Y-84160285D01*
X57502990Y-84207904D01*
X57455371Y-84255523D01*
X57407752Y-84350761D01*
%TO.C,H2*%
X5238095Y-78232380D02*
X5238095Y-77232380D01*
X5238095Y-77708571D02*
X5809523Y-77708571D01*
X5809523Y-78232380D02*
X5809523Y-77232380D01*
X6238095Y-77327619D02*
X6285714Y-77280000D01*
X6380952Y-77232380D01*
X6619047Y-77232380D01*
X6714285Y-77280000D01*
X6761904Y-77327619D01*
X6809523Y-77422857D01*
X6809523Y-77518095D01*
X6761904Y-77660952D01*
X6190476Y-78232380D01*
X6809523Y-78232380D01*
%TO.C,Q1*%
X54697619Y-9095238D02*
X54650000Y-9190476D01*
X54554761Y-9285714D01*
X54411904Y-9428571D01*
X54364285Y-9523809D01*
X54364285Y-9619047D01*
X54602380Y-9571428D02*
X54554761Y-9666666D01*
X54459523Y-9761904D01*
X54269047Y-9809523D01*
X53935714Y-9809523D01*
X53745238Y-9761904D01*
X53650000Y-9666666D01*
X53602380Y-9571428D01*
X53602380Y-9380952D01*
X53650000Y-9285714D01*
X53745238Y-9190476D01*
X53935714Y-9142857D01*
X54269047Y-9142857D01*
X54459523Y-9190476D01*
X54554761Y-9285714D01*
X54602380Y-9380952D01*
X54602380Y-9571428D01*
X54602380Y-8190476D02*
X54602380Y-8761904D01*
X54602380Y-8476190D02*
X53602380Y-8476190D01*
X53745238Y-8571428D01*
X53840476Y-8666666D01*
X53888095Y-8761904D01*
%TO.C,C2*%
X28999142Y-47008666D02*
X29046761Y-47056285D01*
X29094380Y-47199142D01*
X29094380Y-47294380D01*
X29046761Y-47437238D01*
X28951523Y-47532476D01*
X28856285Y-47580095D01*
X28665809Y-47627714D01*
X28522952Y-47627714D01*
X28332476Y-47580095D01*
X28237238Y-47532476D01*
X28142000Y-47437238D01*
X28094380Y-47294380D01*
X28094380Y-47199142D01*
X28142000Y-47056285D01*
X28189619Y-47008666D01*
X28189619Y-46627714D02*
X28142000Y-46580095D01*
X28094380Y-46484857D01*
X28094380Y-46246761D01*
X28142000Y-46151523D01*
X28189619Y-46103904D01*
X28284857Y-46056285D01*
X28380095Y-46056285D01*
X28522952Y-46103904D01*
X29094380Y-46675333D01*
X29094380Y-46056285D01*
%TO.C,Y1*%
X25941809Y-46866190D02*
X25941809Y-47342380D01*
X25608476Y-46342380D02*
X25941809Y-46866190D01*
X26275142Y-46342380D01*
X27132285Y-47342380D02*
X26560857Y-47342380D01*
X26846571Y-47342380D02*
X26846571Y-46342380D01*
X26751333Y-46485238D01*
X26656095Y-46580476D01*
X26560857Y-46628095D01*
%TO.C,R_0_if_no_auto_power_off1*%
X42057580Y-9265676D02*
X41581390Y-9599009D01*
X42057580Y-9837104D02*
X41057580Y-9837104D01*
X41057580Y-9456152D01*
X41105200Y-9360914D01*
X41152819Y-9313295D01*
X41248057Y-9265676D01*
X41390914Y-9265676D01*
X41486152Y-9313295D01*
X41533771Y-9360914D01*
X41581390Y-9456152D01*
X41581390Y-9837104D01*
X42152819Y-9075200D02*
X42152819Y-8313295D01*
X41057580Y-7884723D02*
X41057580Y-7789485D01*
X41105200Y-7694247D01*
X41152819Y-7646628D01*
X41248057Y-7599009D01*
X41438533Y-7551390D01*
X41676628Y-7551390D01*
X41867104Y-7599009D01*
X41962342Y-7646628D01*
X42009961Y-7694247D01*
X42057580Y-7789485D01*
X42057580Y-7884723D01*
X42009961Y-7979961D01*
X41962342Y-8027580D01*
X41867104Y-8075200D01*
X41676628Y-8122819D01*
X41438533Y-8122819D01*
X41248057Y-8075200D01*
X41152819Y-8027580D01*
X41105200Y-7979961D01*
X41057580Y-7884723D01*
X42152819Y-7360914D02*
X42152819Y-6599009D01*
X42057580Y-6360914D02*
X41390914Y-6360914D01*
X41057580Y-6360914D02*
X41105200Y-6408533D01*
X41152819Y-6360914D01*
X41105200Y-6313295D01*
X41057580Y-6360914D01*
X41152819Y-6360914D01*
X41390914Y-6027580D02*
X41390914Y-5646628D01*
X42057580Y-5884723D02*
X41200438Y-5884723D01*
X41105200Y-5837104D01*
X41057580Y-5741866D01*
X41057580Y-5646628D01*
X42152819Y-5551390D02*
X42152819Y-4789485D01*
X41390914Y-4551390D02*
X42057580Y-4551390D01*
X41486152Y-4551390D02*
X41438533Y-4503771D01*
X41390914Y-4408533D01*
X41390914Y-4265676D01*
X41438533Y-4170438D01*
X41533771Y-4122819D01*
X42057580Y-4122819D01*
X42057580Y-3503771D02*
X42009961Y-3599009D01*
X41962342Y-3646628D01*
X41867104Y-3694247D01*
X41581390Y-3694247D01*
X41486152Y-3646628D01*
X41438533Y-3599009D01*
X41390914Y-3503771D01*
X41390914Y-3360914D01*
X41438533Y-3265676D01*
X41486152Y-3218057D01*
X41581390Y-3170438D01*
X41867104Y-3170438D01*
X41962342Y-3218057D01*
X42009961Y-3265676D01*
X42057580Y-3360914D01*
X42057580Y-3503771D01*
X42152819Y-2979961D02*
X42152819Y-2218057D01*
X42057580Y-1551390D02*
X41533771Y-1551390D01*
X41438533Y-1599009D01*
X41390914Y-1694247D01*
X41390914Y-1884723D01*
X41438533Y-1979961D01*
X42009961Y-1551390D02*
X42057580Y-1646628D01*
X42057580Y-1884723D01*
X42009961Y-1979961D01*
X41914723Y-2027580D01*
X41819485Y-2027580D01*
X41724247Y-1979961D01*
X41676628Y-1884723D01*
X41676628Y-1646628D01*
X41629009Y-1551390D01*
X41390914Y-646628D02*
X42057580Y-646628D01*
X41390914Y-1075200D02*
X41914723Y-1075200D01*
X42009961Y-1027580D01*
X42057580Y-932342D01*
X42057580Y-789485D01*
X42009961Y-694247D01*
X41962342Y-646628D01*
X41390914Y-313295D02*
X41390914Y67657D01*
X41057580Y-170438D02*
X41914723Y-170438D01*
X42009961Y-122819D01*
X42057580Y-27580D01*
X42057580Y67657D01*
X42057580Y543847D02*
X42009961Y448609D01*
X41962342Y400990D01*
X41867104Y353371D01*
X41581390Y353371D01*
X41486152Y400990D01*
X41438533Y448609D01*
X41390914Y543847D01*
X41390914Y686704D01*
X41438533Y781942D01*
X41486152Y829561D01*
X41581390Y877180D01*
X41867104Y877180D01*
X41962342Y829561D01*
X42009961Y781942D01*
X42057580Y686704D01*
X42057580Y543847D01*
X42152819Y1067657D02*
X42152819Y1829561D01*
X41390914Y2067657D02*
X42390914Y2067657D01*
X41438533Y2067657D02*
X41390914Y2162895D01*
X41390914Y2353371D01*
X41438533Y2448609D01*
X41486152Y2496228D01*
X41581390Y2543847D01*
X41867104Y2543847D01*
X41962342Y2496228D01*
X42009961Y2448609D01*
X42057580Y2353371D01*
X42057580Y2162895D01*
X42009961Y2067657D01*
X42057580Y3115276D02*
X42009961Y3020038D01*
X41962342Y2972419D01*
X41867104Y2924799D01*
X41581390Y2924799D01*
X41486152Y2972419D01*
X41438533Y3020038D01*
X41390914Y3115276D01*
X41390914Y3258133D01*
X41438533Y3353371D01*
X41486152Y3400990D01*
X41581390Y3448609D01*
X41867104Y3448609D01*
X41962342Y3400990D01*
X42009961Y3353371D01*
X42057580Y3258133D01*
X42057580Y3115276D01*
X41390914Y3781942D02*
X42057580Y3972419D01*
X41581390Y4162895D01*
X42057580Y4353371D01*
X41390914Y4543847D01*
X42009961Y5305752D02*
X42057580Y5210514D01*
X42057580Y5020038D01*
X42009961Y4924799D01*
X41914723Y4877180D01*
X41533771Y4877180D01*
X41438533Y4924799D01*
X41390914Y5020038D01*
X41390914Y5210514D01*
X41438533Y5305752D01*
X41533771Y5353371D01*
X41629009Y5353371D01*
X41724247Y4877180D01*
X42057580Y5781942D02*
X41390914Y5781942D01*
X41581390Y5781942D02*
X41486152Y5829561D01*
X41438533Y5877180D01*
X41390914Y5972419D01*
X41390914Y6067657D01*
X42152819Y6162895D02*
X42152819Y6924799D01*
X42057580Y7305752D02*
X42009961Y7210514D01*
X41962342Y7162895D01*
X41867104Y7115276D01*
X41581390Y7115276D01*
X41486152Y7162895D01*
X41438533Y7210514D01*
X41390914Y7305752D01*
X41390914Y7448609D01*
X41438533Y7543847D01*
X41486152Y7591466D01*
X41581390Y7639085D01*
X41867104Y7639085D01*
X41962342Y7591466D01*
X42009961Y7543847D01*
X42057580Y7448609D01*
X42057580Y7305752D01*
X41390914Y7924799D02*
X41390914Y8305752D01*
X42057580Y8067657D02*
X41200438Y8067657D01*
X41105200Y8115276D01*
X41057580Y8210514D01*
X41057580Y8305752D01*
X41390914Y8496228D02*
X41390914Y8877180D01*
X42057580Y8639085D02*
X41200438Y8639085D01*
X41105200Y8686704D01*
X41057580Y8781942D01*
X41057580Y8877180D01*
X42057580Y9734323D02*
X42057580Y9162895D01*
X42057580Y9448609D02*
X41057580Y9448609D01*
X41200438Y9353371D01*
X41295676Y9258133D01*
X41343295Y9162895D01*
%TO.C,R23*%
X65479180Y-76338857D02*
X65002990Y-76672190D01*
X65479180Y-76910285D02*
X64479180Y-76910285D01*
X64479180Y-76529333D01*
X64526800Y-76434095D01*
X64574419Y-76386476D01*
X64669657Y-76338857D01*
X64812514Y-76338857D01*
X64907752Y-76386476D01*
X64955371Y-76434095D01*
X65002990Y-76529333D01*
X65002990Y-76910285D01*
X64574419Y-75957904D02*
X64526800Y-75910285D01*
X64479180Y-75815047D01*
X64479180Y-75576952D01*
X64526800Y-75481714D01*
X64574419Y-75434095D01*
X64669657Y-75386476D01*
X64764895Y-75386476D01*
X64907752Y-75434095D01*
X65479180Y-76005523D01*
X65479180Y-75386476D01*
X64479180Y-75053142D02*
X64479180Y-74434095D01*
X64860133Y-74767428D01*
X64860133Y-74624571D01*
X64907752Y-74529333D01*
X64955371Y-74481714D01*
X65050609Y-74434095D01*
X65288704Y-74434095D01*
X65383942Y-74481714D01*
X65431561Y-74529333D01*
X65479180Y-74624571D01*
X65479180Y-74910285D01*
X65431561Y-75005523D01*
X65383942Y-75053142D01*
%TO.C,D5*%
X39060380Y-77700095D02*
X38060380Y-77700095D01*
X38060380Y-77462000D01*
X38108000Y-77319142D01*
X38203238Y-77223904D01*
X38298476Y-77176285D01*
X38488952Y-77128666D01*
X38631809Y-77128666D01*
X38822285Y-77176285D01*
X38917523Y-77223904D01*
X39012761Y-77319142D01*
X39060380Y-77462000D01*
X39060380Y-77700095D01*
X38060380Y-76223904D02*
X38060380Y-76700095D01*
X38536571Y-76747714D01*
X38488952Y-76700095D01*
X38441333Y-76604857D01*
X38441333Y-76366761D01*
X38488952Y-76271523D01*
X38536571Y-76223904D01*
X38631809Y-76176285D01*
X38869904Y-76176285D01*
X38965142Y-76223904D01*
X39012761Y-76271523D01*
X39060380Y-76366761D01*
X39060380Y-76604857D01*
X39012761Y-76700095D01*
X38965142Y-76747714D01*
%TO.C,R28*%
X55952380Y-2642857D02*
X55476190Y-2976190D01*
X55952380Y-3214285D02*
X54952380Y-3214285D01*
X54952380Y-2833333D01*
X55000000Y-2738095D01*
X55047619Y-2690476D01*
X55142857Y-2642857D01*
X55285714Y-2642857D01*
X55380952Y-2690476D01*
X55428571Y-2738095D01*
X55476190Y-2833333D01*
X55476190Y-3214285D01*
X55047619Y-2261904D02*
X55000000Y-2214285D01*
X54952380Y-2119047D01*
X54952380Y-1880952D01*
X55000000Y-1785714D01*
X55047619Y-1738095D01*
X55142857Y-1690476D01*
X55238095Y-1690476D01*
X55380952Y-1738095D01*
X55952380Y-2309523D01*
X55952380Y-1690476D01*
X55380952Y-1119047D02*
X55333333Y-1214285D01*
X55285714Y-1261904D01*
X55190476Y-1309523D01*
X55142857Y-1309523D01*
X55047619Y-1261904D01*
X55000000Y-1214285D01*
X54952380Y-1119047D01*
X54952380Y-928571D01*
X55000000Y-833333D01*
X55047619Y-785714D01*
X55142857Y-738095D01*
X55190476Y-738095D01*
X55285714Y-785714D01*
X55333333Y-833333D01*
X55380952Y-928571D01*
X55380952Y-1119047D01*
X55428571Y-1214285D01*
X55476190Y-1261904D01*
X55571428Y-1309523D01*
X55761904Y-1309523D01*
X55857142Y-1261904D01*
X55904761Y-1214285D01*
X55952380Y-1119047D01*
X55952380Y-928571D01*
X55904761Y-833333D01*
X55857142Y-785714D01*
X55761904Y-738095D01*
X55571428Y-738095D01*
X55476190Y-785714D01*
X55428571Y-833333D01*
X55380952Y-928571D01*
%TO.C,R6*%
X54979180Y-85112666D02*
X54502990Y-85446000D01*
X54979180Y-85684095D02*
X53979180Y-85684095D01*
X53979180Y-85303142D01*
X54026800Y-85207904D01*
X54074419Y-85160285D01*
X54169657Y-85112666D01*
X54312514Y-85112666D01*
X54407752Y-85160285D01*
X54455371Y-85207904D01*
X54502990Y-85303142D01*
X54502990Y-85684095D01*
X53979180Y-84255523D02*
X53979180Y-84446000D01*
X54026800Y-84541238D01*
X54074419Y-84588857D01*
X54217276Y-84684095D01*
X54407752Y-84731714D01*
X54788704Y-84731714D01*
X54883942Y-84684095D01*
X54931561Y-84636476D01*
X54979180Y-84541238D01*
X54979180Y-84350761D01*
X54931561Y-84255523D01*
X54883942Y-84207904D01*
X54788704Y-84160285D01*
X54550609Y-84160285D01*
X54455371Y-84207904D01*
X54407752Y-84255523D01*
X54360133Y-84350761D01*
X54360133Y-84541238D01*
X54407752Y-84636476D01*
X54455371Y-84684095D01*
X54550609Y-84731714D01*
%TO.C,D10*%
X30271980Y-77769885D02*
X29271980Y-77769885D01*
X29271980Y-77531790D01*
X29319600Y-77388933D01*
X29414838Y-77293695D01*
X29510076Y-77246076D01*
X29700552Y-77198457D01*
X29843409Y-77198457D01*
X30033885Y-77246076D01*
X30129123Y-77293695D01*
X30224361Y-77388933D01*
X30271980Y-77531790D01*
X30271980Y-77769885D01*
X30271980Y-76246076D02*
X30271980Y-76817504D01*
X30271980Y-76531790D02*
X29271980Y-76531790D01*
X29414838Y-76627028D01*
X29510076Y-76722266D01*
X29557695Y-76817504D01*
X29271980Y-75627028D02*
X29271980Y-75531790D01*
X29319600Y-75436552D01*
X29367219Y-75388933D01*
X29462457Y-75341314D01*
X29652933Y-75293695D01*
X29891028Y-75293695D01*
X30081504Y-75341314D01*
X30176742Y-75388933D01*
X30224361Y-75436552D01*
X30271980Y-75531790D01*
X30271980Y-75627028D01*
X30224361Y-75722266D01*
X30176742Y-75769885D01*
X30081504Y-75817504D01*
X29891028Y-75865123D01*
X29652933Y-75865123D01*
X29462457Y-75817504D01*
X29367219Y-75769885D01*
X29319600Y-75722266D01*
X29271980Y-75627028D01*
%TO.C,D9*%
X4831980Y-64746095D02*
X3831980Y-64746095D01*
X3831980Y-64508000D01*
X3879600Y-64365142D01*
X3974838Y-64269904D01*
X4070076Y-64222285D01*
X4260552Y-64174666D01*
X4403409Y-64174666D01*
X4593885Y-64222285D01*
X4689123Y-64269904D01*
X4784361Y-64365142D01*
X4831980Y-64508000D01*
X4831980Y-64746095D01*
X4831980Y-63698476D02*
X4831980Y-63508000D01*
X4784361Y-63412761D01*
X4736742Y-63365142D01*
X4593885Y-63269904D01*
X4403409Y-63222285D01*
X4022457Y-63222285D01*
X3927219Y-63269904D01*
X3879600Y-63317523D01*
X3831980Y-63412761D01*
X3831980Y-63603238D01*
X3879600Y-63698476D01*
X3927219Y-63746095D01*
X4022457Y-63793714D01*
X4260552Y-63793714D01*
X4355790Y-63746095D01*
X4403409Y-63698476D01*
X4451028Y-63603238D01*
X4451028Y-63412761D01*
X4403409Y-63317523D01*
X4355790Y-63269904D01*
X4260552Y-63222285D01*
%TO.C,Q2*%
X53897619Y-9095238D02*
X53850000Y-9190476D01*
X53754761Y-9285714D01*
X53611904Y-9428571D01*
X53564285Y-9523809D01*
X53564285Y-9619047D01*
X53802380Y-9571428D02*
X53754761Y-9666666D01*
X53659523Y-9761904D01*
X53469047Y-9809523D01*
X53135714Y-9809523D01*
X52945238Y-9761904D01*
X52850000Y-9666666D01*
X52802380Y-9571428D01*
X52802380Y-9380952D01*
X52850000Y-9285714D01*
X52945238Y-9190476D01*
X53135714Y-9142857D01*
X53469047Y-9142857D01*
X53659523Y-9190476D01*
X53754761Y-9285714D01*
X53802380Y-9380952D01*
X53802380Y-9571428D01*
X52897619Y-8761904D02*
X52850000Y-8714285D01*
X52802380Y-8619047D01*
X52802380Y-8380952D01*
X52850000Y-8285714D01*
X52897619Y-8238095D01*
X52992857Y-8190476D01*
X53088095Y-8190476D01*
X53230952Y-8238095D01*
X53802380Y-8809523D01*
X53802380Y-8190476D01*
%TO.C,R25*%
X52776380Y-2674857D02*
X52300190Y-3008190D01*
X52776380Y-3246285D02*
X51776380Y-3246285D01*
X51776380Y-2865333D01*
X51824000Y-2770095D01*
X51871619Y-2722476D01*
X51966857Y-2674857D01*
X52109714Y-2674857D01*
X52204952Y-2722476D01*
X52252571Y-2770095D01*
X52300190Y-2865333D01*
X52300190Y-3246285D01*
X51871619Y-2293904D02*
X51824000Y-2246285D01*
X51776380Y-2151047D01*
X51776380Y-1912952D01*
X51824000Y-1817714D01*
X51871619Y-1770095D01*
X51966857Y-1722476D01*
X52062095Y-1722476D01*
X52204952Y-1770095D01*
X52776380Y-2341523D01*
X52776380Y-1722476D01*
X51776380Y-817714D02*
X51776380Y-1293904D01*
X52252571Y-1341523D01*
X52204952Y-1293904D01*
X52157333Y-1198666D01*
X52157333Y-960571D01*
X52204952Y-865333D01*
X52252571Y-817714D01*
X52347809Y-770095D01*
X52585904Y-770095D01*
X52681142Y-817714D01*
X52728761Y-865333D01*
X52776380Y-960571D01*
X52776380Y-1198666D01*
X52728761Y-1293904D01*
X52681142Y-1341523D01*
%TO.C,R7*%
X56479180Y-85112666D02*
X56002990Y-85446000D01*
X56479180Y-85684095D02*
X55479180Y-85684095D01*
X55479180Y-85303142D01*
X55526800Y-85207904D01*
X55574419Y-85160285D01*
X55669657Y-85112666D01*
X55812514Y-85112666D01*
X55907752Y-85160285D01*
X55955371Y-85207904D01*
X56002990Y-85303142D01*
X56002990Y-85684095D01*
X55479180Y-84779333D02*
X55479180Y-84112666D01*
X56479180Y-84541238D01*
%TO.C,R22*%
X63979180Y-76338857D02*
X63502990Y-76672190D01*
X63979180Y-76910285D02*
X62979180Y-76910285D01*
X62979180Y-76529333D01*
X63026800Y-76434095D01*
X63074419Y-76386476D01*
X63169657Y-76338857D01*
X63312514Y-76338857D01*
X63407752Y-76386476D01*
X63455371Y-76434095D01*
X63502990Y-76529333D01*
X63502990Y-76910285D01*
X63074419Y-75957904D02*
X63026800Y-75910285D01*
X62979180Y-75815047D01*
X62979180Y-75576952D01*
X63026800Y-75481714D01*
X63074419Y-75434095D01*
X63169657Y-75386476D01*
X63264895Y-75386476D01*
X63407752Y-75434095D01*
X63979180Y-76005523D01*
X63979180Y-75386476D01*
X63074419Y-75005523D02*
X63026800Y-74957904D01*
X62979180Y-74862666D01*
X62979180Y-74624571D01*
X63026800Y-74529333D01*
X63074419Y-74481714D01*
X63169657Y-74434095D01*
X63264895Y-74434095D01*
X63407752Y-74481714D01*
X63979180Y-75053142D01*
X63979180Y-74434095D01*
%TO.C,D4*%
X41346380Y-77700095D02*
X40346380Y-77700095D01*
X40346380Y-77462000D01*
X40394000Y-77319142D01*
X40489238Y-77223904D01*
X40584476Y-77176285D01*
X40774952Y-77128666D01*
X40917809Y-77128666D01*
X41108285Y-77176285D01*
X41203523Y-77223904D01*
X41298761Y-77319142D01*
X41346380Y-77462000D01*
X41346380Y-77700095D01*
X40679714Y-76271523D02*
X41346380Y-76271523D01*
X40298761Y-76509619D02*
X41013047Y-76747714D01*
X41013047Y-76128666D01*
%TO.C,R_reset_pullup1*%
X50953180Y-86640847D02*
X50476990Y-86974180D01*
X50953180Y-87212276D02*
X49953180Y-87212276D01*
X49953180Y-86831323D01*
X50000800Y-86736085D01*
X50048419Y-86688466D01*
X50143657Y-86640847D01*
X50286514Y-86640847D01*
X50381752Y-86688466D01*
X50429371Y-86736085D01*
X50476990Y-86831323D01*
X50476990Y-87212276D01*
X51048419Y-86450371D02*
X51048419Y-85688466D01*
X50953180Y-85450371D02*
X50286514Y-85450371D01*
X50476990Y-85450371D02*
X50381752Y-85402752D01*
X50334133Y-85355133D01*
X50286514Y-85259895D01*
X50286514Y-85164657D01*
X50905561Y-84450371D02*
X50953180Y-84545609D01*
X50953180Y-84736085D01*
X50905561Y-84831323D01*
X50810323Y-84878942D01*
X50429371Y-84878942D01*
X50334133Y-84831323D01*
X50286514Y-84736085D01*
X50286514Y-84545609D01*
X50334133Y-84450371D01*
X50429371Y-84402752D01*
X50524609Y-84402752D01*
X50619847Y-84878942D01*
X50905561Y-84021800D02*
X50953180Y-83926561D01*
X50953180Y-83736085D01*
X50905561Y-83640847D01*
X50810323Y-83593228D01*
X50762704Y-83593228D01*
X50667466Y-83640847D01*
X50619847Y-83736085D01*
X50619847Y-83878942D01*
X50572228Y-83974180D01*
X50476990Y-84021800D01*
X50429371Y-84021800D01*
X50334133Y-83974180D01*
X50286514Y-83878942D01*
X50286514Y-83736085D01*
X50334133Y-83640847D01*
X50905561Y-82783704D02*
X50953180Y-82878942D01*
X50953180Y-83069419D01*
X50905561Y-83164657D01*
X50810323Y-83212276D01*
X50429371Y-83212276D01*
X50334133Y-83164657D01*
X50286514Y-83069419D01*
X50286514Y-82878942D01*
X50334133Y-82783704D01*
X50429371Y-82736085D01*
X50524609Y-82736085D01*
X50619847Y-83212276D01*
X50286514Y-82450371D02*
X50286514Y-82069419D01*
X49953180Y-82307514D02*
X50810323Y-82307514D01*
X50905561Y-82259895D01*
X50953180Y-82164657D01*
X50953180Y-82069419D01*
X51048419Y-81974180D02*
X51048419Y-81212276D01*
X50286514Y-80974180D02*
X51286514Y-80974180D01*
X50334133Y-80974180D02*
X50286514Y-80878942D01*
X50286514Y-80688466D01*
X50334133Y-80593228D01*
X50381752Y-80545609D01*
X50476990Y-80497990D01*
X50762704Y-80497990D01*
X50857942Y-80545609D01*
X50905561Y-80593228D01*
X50953180Y-80688466D01*
X50953180Y-80878942D01*
X50905561Y-80974180D01*
X50286514Y-79640847D02*
X50953180Y-79640847D01*
X50286514Y-80069419D02*
X50810323Y-80069419D01*
X50905561Y-80021800D01*
X50953180Y-79926561D01*
X50953180Y-79783704D01*
X50905561Y-79688466D01*
X50857942Y-79640847D01*
X50953180Y-79021800D02*
X50905561Y-79117038D01*
X50810323Y-79164657D01*
X49953180Y-79164657D01*
X50953180Y-78497990D02*
X50905561Y-78593228D01*
X50810323Y-78640847D01*
X49953180Y-78640847D01*
X50286514Y-77688466D02*
X50953180Y-77688466D01*
X50286514Y-78117038D02*
X50810323Y-78117038D01*
X50905561Y-78069419D01*
X50953180Y-77974180D01*
X50953180Y-77831323D01*
X50905561Y-77736085D01*
X50857942Y-77688466D01*
X50286514Y-77212276D02*
X51286514Y-77212276D01*
X50334133Y-77212276D02*
X50286514Y-77117038D01*
X50286514Y-76926561D01*
X50334133Y-76831323D01*
X50381752Y-76783704D01*
X50476990Y-76736085D01*
X50762704Y-76736085D01*
X50857942Y-76783704D01*
X50905561Y-76831323D01*
X50953180Y-76926561D01*
X50953180Y-77117038D01*
X50905561Y-77212276D01*
X50953180Y-75783704D02*
X50953180Y-76355133D01*
X50953180Y-76069419D02*
X49953180Y-76069419D01*
X50096038Y-76164657D01*
X50191276Y-76259895D01*
X50238895Y-76355133D01*
%TO.C,H3*%
X71238095Y-78152380D02*
X71238095Y-77152380D01*
X71238095Y-77628571D02*
X71809523Y-77628571D01*
X71809523Y-78152380D02*
X71809523Y-77152380D01*
X72190476Y-77152380D02*
X72809523Y-77152380D01*
X72476190Y-77533333D01*
X72619047Y-77533333D01*
X72714285Y-77580952D01*
X72761904Y-77628571D01*
X72809523Y-77723809D01*
X72809523Y-77961904D01*
X72761904Y-78057142D01*
X72714285Y-78104761D01*
X72619047Y-78152380D01*
X72333333Y-78152380D01*
X72238095Y-78104761D01*
X72190476Y-78057142D01*
%TO.C,H6*%
X5238095Y-11152380D02*
X5238095Y-10152380D01*
X5238095Y-10628571D02*
X5809523Y-10628571D01*
X5809523Y-11152380D02*
X5809523Y-10152380D01*
X6714285Y-10152380D02*
X6523809Y-10152380D01*
X6428571Y-10200000D01*
X6380952Y-10247619D01*
X6285714Y-10390476D01*
X6238095Y-10580952D01*
X6238095Y-10961904D01*
X6285714Y-11057142D01*
X6333333Y-11104761D01*
X6428571Y-11152380D01*
X6619047Y-11152380D01*
X6714285Y-11104761D01*
X6761904Y-11057142D01*
X6809523Y-10961904D01*
X6809523Y-10723809D01*
X6761904Y-10628571D01*
X6714285Y-10580952D01*
X6619047Y-10533333D01*
X6428571Y-10533333D01*
X6333333Y-10580952D01*
X6285714Y-10628571D01*
X6238095Y-10723809D01*
%TO.C,C1*%
X28051142Y-46754666D02*
X28098761Y-46802285D01*
X28146380Y-46945142D01*
X28146380Y-47040380D01*
X28098761Y-47183238D01*
X28003523Y-47278476D01*
X27908285Y-47326095D01*
X27717809Y-47373714D01*
X27574952Y-47373714D01*
X27384476Y-47326095D01*
X27289238Y-47278476D01*
X27194000Y-47183238D01*
X27146380Y-47040380D01*
X27146380Y-46945142D01*
X27194000Y-46802285D01*
X27241619Y-46754666D01*
X28146380Y-45802285D02*
X28146380Y-46373714D01*
X28146380Y-46088000D02*
X27146380Y-46088000D01*
X27289238Y-46183238D01*
X27384476Y-46278476D01*
X27432095Y-46373714D01*
%TO.C,J1*%
X722380Y-79327333D02*
X1436666Y-79327333D01*
X1579523Y-79374952D01*
X1674761Y-79470190D01*
X1722380Y-79613047D01*
X1722380Y-79708285D01*
X1722380Y-78327333D02*
X1722380Y-78898761D01*
X1722380Y-78613047D02*
X722380Y-78613047D01*
X865238Y-78708285D01*
X960476Y-78803523D01*
X1008095Y-78898761D01*
%TO.C,J2*%
X74902380Y-27765333D02*
X75616666Y-27765333D01*
X75759523Y-27812952D01*
X75854761Y-27908190D01*
X75902380Y-28051047D01*
X75902380Y-28146285D01*
X74997619Y-27336761D02*
X74950000Y-27289142D01*
X74902380Y-27193904D01*
X74902380Y-26955809D01*
X74950000Y-26860571D01*
X74997619Y-26812952D01*
X75092857Y-26765333D01*
X75188095Y-26765333D01*
X75330952Y-26812952D01*
X75902380Y-27384380D01*
X75902380Y-26765333D01*
%TO.C,R19*%
X22471142Y-49092380D02*
X22137809Y-48616190D01*
X21899714Y-49092380D02*
X21899714Y-48092380D01*
X22280666Y-48092380D01*
X22375904Y-48140000D01*
X22423523Y-48187619D01*
X22471142Y-48282857D01*
X22471142Y-48425714D01*
X22423523Y-48520952D01*
X22375904Y-48568571D01*
X22280666Y-48616190D01*
X21899714Y-48616190D01*
X23423523Y-49092380D02*
X22852095Y-49092380D01*
X23137809Y-49092380D02*
X23137809Y-48092380D01*
X23042571Y-48235238D01*
X22947333Y-48330476D01*
X22852095Y-48378095D01*
X23899714Y-49092380D02*
X24090190Y-49092380D01*
X24185428Y-49044761D01*
X24233047Y-48997142D01*
X24328285Y-48854285D01*
X24375904Y-48663809D01*
X24375904Y-48282857D01*
X24328285Y-48187619D01*
X24280666Y-48140000D01*
X24185428Y-48092380D01*
X23994952Y-48092380D01*
X23899714Y-48140000D01*
X23852095Y-48187619D01*
X23804476Y-48282857D01*
X23804476Y-48520952D01*
X23852095Y-48616190D01*
X23899714Y-48663809D01*
X23994952Y-48711428D01*
X24185428Y-48711428D01*
X24280666Y-48663809D01*
X24328285Y-48616190D01*
X24375904Y-48520952D01*
%TO.C,R9*%
X59479180Y-85112666D02*
X59002990Y-85446000D01*
X59479180Y-85684095D02*
X58479180Y-85684095D01*
X58479180Y-85303142D01*
X58526800Y-85207904D01*
X58574419Y-85160285D01*
X58669657Y-85112666D01*
X58812514Y-85112666D01*
X58907752Y-85160285D01*
X58955371Y-85207904D01*
X59002990Y-85303142D01*
X59002990Y-85684095D01*
X59479180Y-84636476D02*
X59479180Y-84446000D01*
X59431561Y-84350761D01*
X59383942Y-84303142D01*
X59241085Y-84207904D01*
X59050609Y-84160285D01*
X58669657Y-84160285D01*
X58574419Y-84207904D01*
X58526800Y-84255523D01*
X58479180Y-84350761D01*
X58479180Y-84541238D01*
X58526800Y-84636476D01*
X58574419Y-84684095D01*
X58669657Y-84731714D01*
X58907752Y-84731714D01*
X59002990Y-84684095D01*
X59050609Y-84636476D01*
X59098228Y-84541238D01*
X59098228Y-84350761D01*
X59050609Y-84255523D01*
X59002990Y-84207904D01*
X58907752Y-84160285D01*
%TO.C,R26*%
X57348380Y-2642857D02*
X56872190Y-2976190D01*
X57348380Y-3214285D02*
X56348380Y-3214285D01*
X56348380Y-2833333D01*
X56396000Y-2738095D01*
X56443619Y-2690476D01*
X56538857Y-2642857D01*
X56681714Y-2642857D01*
X56776952Y-2690476D01*
X56824571Y-2738095D01*
X56872190Y-2833333D01*
X56872190Y-3214285D01*
X56443619Y-2261904D02*
X56396000Y-2214285D01*
X56348380Y-2119047D01*
X56348380Y-1880952D01*
X56396000Y-1785714D01*
X56443619Y-1738095D01*
X56538857Y-1690476D01*
X56634095Y-1690476D01*
X56776952Y-1738095D01*
X57348380Y-2309523D01*
X57348380Y-1690476D01*
X56348380Y-833333D02*
X56348380Y-1023809D01*
X56396000Y-1119047D01*
X56443619Y-1166666D01*
X56586476Y-1261904D01*
X56776952Y-1309523D01*
X57157904Y-1309523D01*
X57253142Y-1261904D01*
X57300761Y-1214285D01*
X57348380Y-1119047D01*
X57348380Y-928571D01*
X57300761Y-833333D01*
X57253142Y-785714D01*
X57157904Y-738095D01*
X56919809Y-738095D01*
X56824571Y-785714D01*
X56776952Y-833333D01*
X56729333Y-928571D01*
X56729333Y-1119047D01*
X56776952Y-1214285D01*
X56824571Y-1261904D01*
X56919809Y-1309523D01*
%TO.C,R17*%
X63989180Y-86088857D02*
X63512990Y-86422190D01*
X63989180Y-86660285D02*
X62989180Y-86660285D01*
X62989180Y-86279333D01*
X63036800Y-86184095D01*
X63084419Y-86136476D01*
X63179657Y-86088857D01*
X63322514Y-86088857D01*
X63417752Y-86136476D01*
X63465371Y-86184095D01*
X63512990Y-86279333D01*
X63512990Y-86660285D01*
X63989180Y-85136476D02*
X63989180Y-85707904D01*
X63989180Y-85422190D02*
X62989180Y-85422190D01*
X63132038Y-85517428D01*
X63227276Y-85612666D01*
X63274895Y-85707904D01*
X62989180Y-84803142D02*
X62989180Y-84136476D01*
X63989180Y-84565047D01*
%TO.C,R_vcc_protected1*%
X58872380Y-12802476D02*
X58396190Y-13135809D01*
X58872380Y-13373904D02*
X57872380Y-13373904D01*
X57872380Y-12992952D01*
X57920000Y-12897714D01*
X57967619Y-12850095D01*
X58062857Y-12802476D01*
X58205714Y-12802476D01*
X58300952Y-12850095D01*
X58348571Y-12897714D01*
X58396190Y-12992952D01*
X58396190Y-13373904D01*
X58967619Y-12612000D02*
X58967619Y-11850095D01*
X58205714Y-11707238D02*
X58872380Y-11469142D01*
X58205714Y-11231047D01*
X58824761Y-10421523D02*
X58872380Y-10516761D01*
X58872380Y-10707238D01*
X58824761Y-10802476D01*
X58777142Y-10850095D01*
X58681904Y-10897714D01*
X58396190Y-10897714D01*
X58300952Y-10850095D01*
X58253333Y-10802476D01*
X58205714Y-10707238D01*
X58205714Y-10516761D01*
X58253333Y-10421523D01*
X58824761Y-9564380D02*
X58872380Y-9659619D01*
X58872380Y-9850095D01*
X58824761Y-9945333D01*
X58777142Y-9992952D01*
X58681904Y-10040571D01*
X58396190Y-10040571D01*
X58300952Y-9992952D01*
X58253333Y-9945333D01*
X58205714Y-9850095D01*
X58205714Y-9659619D01*
X58253333Y-9564380D01*
X58967619Y-9373904D02*
X58967619Y-8612000D01*
X58205714Y-8373904D02*
X59205714Y-8373904D01*
X58253333Y-8373904D02*
X58205714Y-8278666D01*
X58205714Y-8088190D01*
X58253333Y-7992952D01*
X58300952Y-7945333D01*
X58396190Y-7897714D01*
X58681904Y-7897714D01*
X58777142Y-7945333D01*
X58824761Y-7992952D01*
X58872380Y-8088190D01*
X58872380Y-8278666D01*
X58824761Y-8373904D01*
X58872380Y-7469142D02*
X58205714Y-7469142D01*
X58396190Y-7469142D02*
X58300952Y-7421523D01*
X58253333Y-7373904D01*
X58205714Y-7278666D01*
X58205714Y-7183428D01*
X58872380Y-6707238D02*
X58824761Y-6802476D01*
X58777142Y-6850095D01*
X58681904Y-6897714D01*
X58396190Y-6897714D01*
X58300952Y-6850095D01*
X58253333Y-6802476D01*
X58205714Y-6707238D01*
X58205714Y-6564380D01*
X58253333Y-6469142D01*
X58300952Y-6421523D01*
X58396190Y-6373904D01*
X58681904Y-6373904D01*
X58777142Y-6421523D01*
X58824761Y-6469142D01*
X58872380Y-6564380D01*
X58872380Y-6707238D01*
X58205714Y-6088190D02*
X58205714Y-5707238D01*
X57872380Y-5945333D02*
X58729523Y-5945333D01*
X58824761Y-5897714D01*
X58872380Y-5802476D01*
X58872380Y-5707238D01*
X58824761Y-4992952D02*
X58872380Y-5088190D01*
X58872380Y-5278666D01*
X58824761Y-5373904D01*
X58729523Y-5421523D01*
X58348571Y-5421523D01*
X58253333Y-5373904D01*
X58205714Y-5278666D01*
X58205714Y-5088190D01*
X58253333Y-4992952D01*
X58348571Y-4945333D01*
X58443809Y-4945333D01*
X58539047Y-5421523D01*
X58824761Y-4088190D02*
X58872380Y-4183428D01*
X58872380Y-4373904D01*
X58824761Y-4469142D01*
X58777142Y-4516761D01*
X58681904Y-4564380D01*
X58396190Y-4564380D01*
X58300952Y-4516761D01*
X58253333Y-4469142D01*
X58205714Y-4373904D01*
X58205714Y-4183428D01*
X58253333Y-4088190D01*
X58205714Y-3802476D02*
X58205714Y-3421523D01*
X57872380Y-3659619D02*
X58729523Y-3659619D01*
X58824761Y-3612000D01*
X58872380Y-3516761D01*
X58872380Y-3421523D01*
X58824761Y-2707238D02*
X58872380Y-2802476D01*
X58872380Y-2992952D01*
X58824761Y-3088190D01*
X58729523Y-3135809D01*
X58348571Y-3135809D01*
X58253333Y-3088190D01*
X58205714Y-2992952D01*
X58205714Y-2802476D01*
X58253333Y-2707238D01*
X58348571Y-2659619D01*
X58443809Y-2659619D01*
X58539047Y-3135809D01*
X58872380Y-1802476D02*
X57872380Y-1802476D01*
X58824761Y-1802476D02*
X58872380Y-1897714D01*
X58872380Y-2088190D01*
X58824761Y-2183428D01*
X58777142Y-2231047D01*
X58681904Y-2278666D01*
X58396190Y-2278666D01*
X58300952Y-2231047D01*
X58253333Y-2183428D01*
X58205714Y-2088190D01*
X58205714Y-1897714D01*
X58253333Y-1802476D01*
X58872380Y-802476D02*
X58872380Y-1373904D01*
X58872380Y-1088190D02*
X57872380Y-1088190D01*
X58015238Y-1183428D01*
X58110476Y-1278666D01*
X58158095Y-1373904D01*
%TO.C,R3*%
X46552380Y-1690666D02*
X46076190Y-2024000D01*
X46552380Y-2262095D02*
X45552380Y-2262095D01*
X45552380Y-1881142D01*
X45600000Y-1785904D01*
X45647619Y-1738285D01*
X45742857Y-1690666D01*
X45885714Y-1690666D01*
X45980952Y-1738285D01*
X46028571Y-1785904D01*
X46076190Y-1881142D01*
X46076190Y-2262095D01*
X45552380Y-1357333D02*
X45552380Y-738285D01*
X45933333Y-1071619D01*
X45933333Y-928761D01*
X45980952Y-833523D01*
X46028571Y-785904D01*
X46123809Y-738285D01*
X46361904Y-738285D01*
X46457142Y-785904D01*
X46504761Y-833523D01*
X46552380Y-928761D01*
X46552380Y-1214476D01*
X46504761Y-1309714D01*
X46457142Y-1357333D01*
%TO.C,R21*%
X62479180Y-76338857D02*
X62002990Y-76672190D01*
X62479180Y-76910285D02*
X61479180Y-76910285D01*
X61479180Y-76529333D01*
X61526800Y-76434095D01*
X61574419Y-76386476D01*
X61669657Y-76338857D01*
X61812514Y-76338857D01*
X61907752Y-76386476D01*
X61955371Y-76434095D01*
X62002990Y-76529333D01*
X62002990Y-76910285D01*
X61574419Y-75957904D02*
X61526800Y-75910285D01*
X61479180Y-75815047D01*
X61479180Y-75576952D01*
X61526800Y-75481714D01*
X61574419Y-75434095D01*
X61669657Y-75386476D01*
X61764895Y-75386476D01*
X61907752Y-75434095D01*
X62479180Y-76005523D01*
X62479180Y-75386476D01*
X62479180Y-74434095D02*
X62479180Y-75005523D01*
X62479180Y-74719809D02*
X61479180Y-74719809D01*
X61622038Y-74815047D01*
X61717276Y-74910285D01*
X61764895Y-75005523D01*
%TO.C,R16*%
X62479180Y-86013857D02*
X62002990Y-86347190D01*
X62479180Y-86585285D02*
X61479180Y-86585285D01*
X61479180Y-86204333D01*
X61526800Y-86109095D01*
X61574419Y-86061476D01*
X61669657Y-86013857D01*
X61812514Y-86013857D01*
X61907752Y-86061476D01*
X61955371Y-86109095D01*
X62002990Y-86204333D01*
X62002990Y-86585285D01*
X62479180Y-85061476D02*
X62479180Y-85632904D01*
X62479180Y-85347190D02*
X61479180Y-85347190D01*
X61622038Y-85442428D01*
X61717276Y-85537666D01*
X61764895Y-85632904D01*
X61479180Y-84204333D02*
X61479180Y-84394809D01*
X61526800Y-84490047D01*
X61574419Y-84537666D01*
X61717276Y-84632904D01*
X61907752Y-84680523D01*
X62288704Y-84680523D01*
X62383942Y-84632904D01*
X62431561Y-84585285D01*
X62479180Y-84490047D01*
X62479180Y-84299571D01*
X62431561Y-84204333D01*
X62383942Y-84156714D01*
X62288704Y-84109095D01*
X62050609Y-84109095D01*
X61955371Y-84156714D01*
X61907752Y-84204333D01*
X61860133Y-84299571D01*
X61860133Y-84490047D01*
X61907752Y-84585285D01*
X61955371Y-84632904D01*
X62050609Y-84680523D01*
%TO.C,R_0_if_no_usb_switch1*%
X51252380Y-18795047D02*
X50776190Y-19128380D01*
X51252380Y-19366476D02*
X50252380Y-19366476D01*
X50252380Y-18985523D01*
X50300000Y-18890285D01*
X50347619Y-18842666D01*
X50442857Y-18795047D01*
X50585714Y-18795047D01*
X50680952Y-18842666D01*
X50728571Y-18890285D01*
X50776190Y-18985523D01*
X50776190Y-19366476D01*
X51347619Y-18604571D02*
X51347619Y-17842666D01*
X50252380Y-17414095D02*
X50252380Y-17318857D01*
X50300000Y-17223619D01*
X50347619Y-17176000D01*
X50442857Y-17128380D01*
X50633333Y-17080761D01*
X50871428Y-17080761D01*
X51061904Y-17128380D01*
X51157142Y-17176000D01*
X51204761Y-17223619D01*
X51252380Y-17318857D01*
X51252380Y-17414095D01*
X51204761Y-17509333D01*
X51157142Y-17556952D01*
X51061904Y-17604571D01*
X50871428Y-17652190D01*
X50633333Y-17652190D01*
X50442857Y-17604571D01*
X50347619Y-17556952D01*
X50300000Y-17509333D01*
X50252380Y-17414095D01*
X51347619Y-16890285D02*
X51347619Y-16128380D01*
X51252380Y-15890285D02*
X50585714Y-15890285D01*
X50252380Y-15890285D02*
X50300000Y-15937904D01*
X50347619Y-15890285D01*
X50300000Y-15842666D01*
X50252380Y-15890285D01*
X50347619Y-15890285D01*
X50585714Y-15556952D02*
X50585714Y-15176000D01*
X51252380Y-15414095D02*
X50395238Y-15414095D01*
X50300000Y-15366476D01*
X50252380Y-15271238D01*
X50252380Y-15176000D01*
X51347619Y-15080761D02*
X51347619Y-14318857D01*
X50585714Y-14080761D02*
X51252380Y-14080761D01*
X50680952Y-14080761D02*
X50633333Y-14033142D01*
X50585714Y-13937904D01*
X50585714Y-13795047D01*
X50633333Y-13699809D01*
X50728571Y-13652190D01*
X51252380Y-13652190D01*
X51252380Y-13033142D02*
X51204761Y-13128380D01*
X51157142Y-13176000D01*
X51061904Y-13223619D01*
X50776190Y-13223619D01*
X50680952Y-13176000D01*
X50633333Y-13128380D01*
X50585714Y-13033142D01*
X50585714Y-12890285D01*
X50633333Y-12795047D01*
X50680952Y-12747428D01*
X50776190Y-12699809D01*
X51061904Y-12699809D01*
X51157142Y-12747428D01*
X51204761Y-12795047D01*
X51252380Y-12890285D01*
X51252380Y-13033142D01*
X51347619Y-12509333D02*
X51347619Y-11747428D01*
X50585714Y-11080761D02*
X51252380Y-11080761D01*
X50585714Y-11509333D02*
X51109523Y-11509333D01*
X51204761Y-11461714D01*
X51252380Y-11366476D01*
X51252380Y-11223619D01*
X51204761Y-11128380D01*
X51157142Y-11080761D01*
X51204761Y-10652190D02*
X51252380Y-10556952D01*
X51252380Y-10366476D01*
X51204761Y-10271238D01*
X51109523Y-10223619D01*
X51061904Y-10223619D01*
X50966666Y-10271238D01*
X50919047Y-10366476D01*
X50919047Y-10509333D01*
X50871428Y-10604571D01*
X50776190Y-10652190D01*
X50728571Y-10652190D01*
X50633333Y-10604571D01*
X50585714Y-10509333D01*
X50585714Y-10366476D01*
X50633333Y-10271238D01*
X51252380Y-9795047D02*
X50252380Y-9795047D01*
X50633333Y-9795047D02*
X50585714Y-9699809D01*
X50585714Y-9509333D01*
X50633333Y-9414095D01*
X50680952Y-9366476D01*
X50776190Y-9318857D01*
X51061904Y-9318857D01*
X51157142Y-9366476D01*
X51204761Y-9414095D01*
X51252380Y-9509333D01*
X51252380Y-9699809D01*
X51204761Y-9795047D01*
X51347619Y-9128380D02*
X51347619Y-8366476D01*
X51204761Y-8176000D02*
X51252380Y-8080761D01*
X51252380Y-7890285D01*
X51204761Y-7795047D01*
X51109523Y-7747428D01*
X51061904Y-7747428D01*
X50966666Y-7795047D01*
X50919047Y-7890285D01*
X50919047Y-8033142D01*
X50871428Y-8128380D01*
X50776190Y-8176000D01*
X50728571Y-8176000D01*
X50633333Y-8128380D01*
X50585714Y-8033142D01*
X50585714Y-7890285D01*
X50633333Y-7795047D01*
X50585714Y-7414095D02*
X51252380Y-7223619D01*
X50776190Y-7033142D01*
X51252380Y-6842666D01*
X50585714Y-6652190D01*
X51252380Y-6271238D02*
X50585714Y-6271238D01*
X50252380Y-6271238D02*
X50300000Y-6318857D01*
X50347619Y-6271238D01*
X50300000Y-6223619D01*
X50252380Y-6271238D01*
X50347619Y-6271238D01*
X50585714Y-5937904D02*
X50585714Y-5556952D01*
X50252380Y-5795047D02*
X51109523Y-5795047D01*
X51204761Y-5747428D01*
X51252380Y-5652190D01*
X51252380Y-5556952D01*
X51204761Y-4795047D02*
X51252380Y-4890285D01*
X51252380Y-5080761D01*
X51204761Y-5176000D01*
X51157142Y-5223619D01*
X51061904Y-5271238D01*
X50776190Y-5271238D01*
X50680952Y-5223619D01*
X50633333Y-5176000D01*
X50585714Y-5080761D01*
X50585714Y-4890285D01*
X50633333Y-4795047D01*
X51252380Y-4366476D02*
X50252380Y-4366476D01*
X51252380Y-3937904D02*
X50728571Y-3937904D01*
X50633333Y-3985523D01*
X50585714Y-4080761D01*
X50585714Y-4223619D01*
X50633333Y-4318857D01*
X50680952Y-4366476D01*
X51252380Y-2937904D02*
X51252380Y-3509333D01*
X51252380Y-3223619D02*
X50252380Y-3223619D01*
X50395238Y-3318857D01*
X50490476Y-3414095D01*
X50538095Y-3509333D01*
%TO.C,R2*%
X48052380Y-1690666D02*
X47576190Y-2024000D01*
X48052380Y-2262095D02*
X47052380Y-2262095D01*
X47052380Y-1881142D01*
X47100000Y-1785904D01*
X47147619Y-1738285D01*
X47242857Y-1690666D01*
X47385714Y-1690666D01*
X47480952Y-1738285D01*
X47528571Y-1785904D01*
X47576190Y-1881142D01*
X47576190Y-2262095D01*
X47147619Y-1309714D02*
X47100000Y-1262095D01*
X47052380Y-1166857D01*
X47052380Y-928761D01*
X47100000Y-833523D01*
X47147619Y-785904D01*
X47242857Y-738285D01*
X47338095Y-738285D01*
X47480952Y-785904D01*
X48052380Y-1357333D01*
X48052380Y-738285D01*
%TO.C,D8*%
X32253180Y-77700095D02*
X31253180Y-77700095D01*
X31253180Y-77462000D01*
X31300800Y-77319142D01*
X31396038Y-77223904D01*
X31491276Y-77176285D01*
X31681752Y-77128666D01*
X31824609Y-77128666D01*
X32015085Y-77176285D01*
X32110323Y-77223904D01*
X32205561Y-77319142D01*
X32253180Y-77462000D01*
X32253180Y-77700095D01*
X31681752Y-76557238D02*
X31634133Y-76652476D01*
X31586514Y-76700095D01*
X31491276Y-76747714D01*
X31443657Y-76747714D01*
X31348419Y-76700095D01*
X31300800Y-76652476D01*
X31253180Y-76557238D01*
X31253180Y-76366761D01*
X31300800Y-76271523D01*
X31348419Y-76223904D01*
X31443657Y-76176285D01*
X31491276Y-76176285D01*
X31586514Y-76223904D01*
X31634133Y-76271523D01*
X31681752Y-76366761D01*
X31681752Y-76557238D01*
X31729371Y-76652476D01*
X31776990Y-76700095D01*
X31872228Y-76747714D01*
X32062704Y-76747714D01*
X32157942Y-76700095D01*
X32205561Y-76652476D01*
X32253180Y-76557238D01*
X32253180Y-76366761D01*
X32205561Y-76271523D01*
X32157942Y-76223904D01*
X32062704Y-76176285D01*
X31872228Y-76176285D01*
X31776990Y-76223904D01*
X31729371Y-76271523D01*
X31681752Y-76366761D01*
%TO.C,H1*%
X71238095Y-11152380D02*
X71238095Y-10152380D01*
X71238095Y-10628571D02*
X71809523Y-10628571D01*
X71809523Y-11152380D02*
X71809523Y-10152380D01*
X72809523Y-11152380D02*
X72238095Y-11152380D01*
X72523809Y-11152380D02*
X72523809Y-10152380D01*
X72428571Y-10295238D01*
X72333333Y-10390476D01*
X72238095Y-10438095D01*
%TO.C,T2*%
X10160095Y-48180380D02*
X10731523Y-48180380D01*
X10445809Y-49180380D02*
X10445809Y-48180380D01*
X11017238Y-48275619D02*
X11064857Y-48228000D01*
X11160095Y-48180380D01*
X11398190Y-48180380D01*
X11493428Y-48228000D01*
X11541047Y-48275619D01*
X11588666Y-48370857D01*
X11588666Y-48466095D01*
X11541047Y-48608952D01*
X10969619Y-49180380D01*
X11588666Y-49180380D01*
%TO.C,D6*%
X36926780Y-77700095D02*
X35926780Y-77700095D01*
X35926780Y-77462000D01*
X35974400Y-77319142D01*
X36069638Y-77223904D01*
X36164876Y-77176285D01*
X36355352Y-77128666D01*
X36498209Y-77128666D01*
X36688685Y-77176285D01*
X36783923Y-77223904D01*
X36879161Y-77319142D01*
X36926780Y-77462000D01*
X36926780Y-77700095D01*
X35926780Y-76271523D02*
X35926780Y-76462000D01*
X35974400Y-76557238D01*
X36022019Y-76604857D01*
X36164876Y-76700095D01*
X36355352Y-76747714D01*
X36736304Y-76747714D01*
X36831542Y-76700095D01*
X36879161Y-76652476D01*
X36926780Y-76557238D01*
X36926780Y-76366761D01*
X36879161Y-76271523D01*
X36831542Y-76223904D01*
X36736304Y-76176285D01*
X36498209Y-76176285D01*
X36402971Y-76223904D01*
X36355352Y-76271523D01*
X36307733Y-76366761D01*
X36307733Y-76557238D01*
X36355352Y-76652476D01*
X36402971Y-76700095D01*
X36498209Y-76747714D01*
%TO.C,C3*%
X21693142Y-49345666D02*
X21740761Y-49393285D01*
X21788380Y-49536142D01*
X21788380Y-49631380D01*
X21740761Y-49774238D01*
X21645523Y-49869476D01*
X21550285Y-49917095D01*
X21359809Y-49964714D01*
X21216952Y-49964714D01*
X21026476Y-49917095D01*
X20931238Y-49869476D01*
X20836000Y-49774238D01*
X20788380Y-49631380D01*
X20788380Y-49536142D01*
X20836000Y-49393285D01*
X20883619Y-49345666D01*
X20788380Y-49012333D02*
X20788380Y-48393285D01*
X21169333Y-48726619D01*
X21169333Y-48583761D01*
X21216952Y-48488523D01*
X21264571Y-48440904D01*
X21359809Y-48393285D01*
X21597904Y-48393285D01*
X21693142Y-48440904D01*
X21740761Y-48488523D01*
X21788380Y-48583761D01*
X21788380Y-48869476D01*
X21740761Y-48964714D01*
X21693142Y-49012333D01*
%TO.C,R18*%
X65479180Y-86013857D02*
X65002990Y-86347190D01*
X65479180Y-86585285D02*
X64479180Y-86585285D01*
X64479180Y-86204333D01*
X64526800Y-86109095D01*
X64574419Y-86061476D01*
X64669657Y-86013857D01*
X64812514Y-86013857D01*
X64907752Y-86061476D01*
X64955371Y-86109095D01*
X65002990Y-86204333D01*
X65002990Y-86585285D01*
X65479180Y-85061476D02*
X65479180Y-85632904D01*
X65479180Y-85347190D02*
X64479180Y-85347190D01*
X64622038Y-85442428D01*
X64717276Y-85537666D01*
X64764895Y-85632904D01*
X64907752Y-84490047D02*
X64860133Y-84585285D01*
X64812514Y-84632904D01*
X64717276Y-84680523D01*
X64669657Y-84680523D01*
X64574419Y-84632904D01*
X64526800Y-84585285D01*
X64479180Y-84490047D01*
X64479180Y-84299571D01*
X64526800Y-84204333D01*
X64574419Y-84156714D01*
X64669657Y-84109095D01*
X64717276Y-84109095D01*
X64812514Y-84156714D01*
X64860133Y-84204333D01*
X64907752Y-84299571D01*
X64907752Y-84490047D01*
X64955371Y-84585285D01*
X65002990Y-84632904D01*
X65098228Y-84680523D01*
X65288704Y-84680523D01*
X65383942Y-84632904D01*
X65431561Y-84585285D01*
X65479180Y-84490047D01*
X65479180Y-84299571D01*
X65431561Y-84204333D01*
X65383942Y-84156714D01*
X65288704Y-84109095D01*
X65098228Y-84109095D01*
X65002990Y-84156714D01*
X64955371Y-84204333D01*
X64907752Y-84299571D01*
%TO.C,R1*%
X49552380Y-1690666D02*
X49076190Y-2024000D01*
X49552380Y-2262095D02*
X48552380Y-2262095D01*
X48552380Y-1881142D01*
X48600000Y-1785904D01*
X48647619Y-1738285D01*
X48742857Y-1690666D01*
X48885714Y-1690666D01*
X48980952Y-1738285D01*
X49028571Y-1785904D01*
X49076190Y-1881142D01*
X49076190Y-2262095D01*
X49552380Y-738285D02*
X49552380Y-1309714D01*
X49552380Y-1024000D02*
X48552380Y-1024000D01*
X48695238Y-1119238D01*
X48790476Y-1214476D01*
X48838095Y-1309714D01*
%TO.C,R4*%
X45052380Y-1690666D02*
X44576190Y-2024000D01*
X45052380Y-2262095D02*
X44052380Y-2262095D01*
X44052380Y-1881142D01*
X44100000Y-1785904D01*
X44147619Y-1738285D01*
X44242857Y-1690666D01*
X44385714Y-1690666D01*
X44480952Y-1738285D01*
X44528571Y-1785904D01*
X44576190Y-1881142D01*
X44576190Y-2262095D01*
X44385714Y-833523D02*
X45052380Y-833523D01*
X44004761Y-1071619D02*
X44719047Y-1309714D01*
X44719047Y-690666D01*
%TO.C,R27*%
X54300380Y-2674857D02*
X53824190Y-3008190D01*
X54300380Y-3246285D02*
X53300380Y-3246285D01*
X53300380Y-2865333D01*
X53348000Y-2770095D01*
X53395619Y-2722476D01*
X53490857Y-2674857D01*
X53633714Y-2674857D01*
X53728952Y-2722476D01*
X53776571Y-2770095D01*
X53824190Y-2865333D01*
X53824190Y-3246285D01*
X53395619Y-2293904D02*
X53348000Y-2246285D01*
X53300380Y-2151047D01*
X53300380Y-1912952D01*
X53348000Y-1817714D01*
X53395619Y-1770095D01*
X53490857Y-1722476D01*
X53586095Y-1722476D01*
X53728952Y-1770095D01*
X54300380Y-2341523D01*
X54300380Y-1722476D01*
X53300380Y-1389142D02*
X53300380Y-722476D01*
X54300380Y-1151047D01*
%TO.C,U2*%
X57664445Y-11735180D02*
X57664445Y-12544704D01*
X57712064Y-12639942D01*
X57759683Y-12687561D01*
X57854921Y-12735180D01*
X58045397Y-12735180D01*
X58140635Y-12687561D01*
X58188254Y-12639942D01*
X58235873Y-12544704D01*
X58235873Y-11735180D01*
X58664445Y-11830419D02*
X58712064Y-11782800D01*
X58807302Y-11735180D01*
X59045397Y-11735180D01*
X59140635Y-11782800D01*
X59188254Y-11830419D01*
X59235873Y-11925657D01*
X59235873Y-12020895D01*
X59188254Y-12163752D01*
X58616826Y-12735180D01*
X59235873Y-12735180D01*
%TO.C,R10*%
X54979180Y-76338857D02*
X54502990Y-76672190D01*
X54979180Y-76910285D02*
X53979180Y-76910285D01*
X53979180Y-76529333D01*
X54026800Y-76434095D01*
X54074419Y-76386476D01*
X54169657Y-76338857D01*
X54312514Y-76338857D01*
X54407752Y-76386476D01*
X54455371Y-76434095D01*
X54502990Y-76529333D01*
X54502990Y-76910285D01*
X54979180Y-75386476D02*
X54979180Y-75957904D01*
X54979180Y-75672190D02*
X53979180Y-75672190D01*
X54122038Y-75767428D01*
X54217276Y-75862666D01*
X54264895Y-75957904D01*
X53979180Y-74767428D02*
X53979180Y-74672190D01*
X54026800Y-74576952D01*
X54074419Y-74529333D01*
X54169657Y-74481714D01*
X54360133Y-74434095D01*
X54598228Y-74434095D01*
X54788704Y-74481714D01*
X54883942Y-74529333D01*
X54931561Y-74576952D01*
X54979180Y-74672190D01*
X54979180Y-74767428D01*
X54931561Y-74862666D01*
X54883942Y-74910285D01*
X54788704Y-74957904D01*
X54598228Y-75005523D01*
X54360133Y-75005523D01*
X54169657Y-74957904D01*
X54074419Y-74910285D01*
X54026800Y-74862666D01*
X53979180Y-74767428D01*
%TO.C,R15*%
X60979180Y-86013857D02*
X60502990Y-86347190D01*
X60979180Y-86585285D02*
X59979180Y-86585285D01*
X59979180Y-86204333D01*
X60026800Y-86109095D01*
X60074419Y-86061476D01*
X60169657Y-86013857D01*
X60312514Y-86013857D01*
X60407752Y-86061476D01*
X60455371Y-86109095D01*
X60502990Y-86204333D01*
X60502990Y-86585285D01*
X60979180Y-85061476D02*
X60979180Y-85632904D01*
X60979180Y-85347190D02*
X59979180Y-85347190D01*
X60122038Y-85442428D01*
X60217276Y-85537666D01*
X60264895Y-85632904D01*
X59979180Y-84156714D02*
X59979180Y-84632904D01*
X60455371Y-84680523D01*
X60407752Y-84632904D01*
X60360133Y-84537666D01*
X60360133Y-84299571D01*
X60407752Y-84204333D01*
X60455371Y-84156714D01*
X60550609Y-84109095D01*
X60788704Y-84109095D01*
X60883942Y-84156714D01*
X60931561Y-84204333D01*
X60979180Y-84299571D01*
X60979180Y-84537666D01*
X60931561Y-84632904D01*
X60883942Y-84680523D01*
%TO.C,R20*%
X60979180Y-76338857D02*
X60502990Y-76672190D01*
X60979180Y-76910285D02*
X59979180Y-76910285D01*
X59979180Y-76529333D01*
X60026800Y-76434095D01*
X60074419Y-76386476D01*
X60169657Y-76338857D01*
X60312514Y-76338857D01*
X60407752Y-76386476D01*
X60455371Y-76434095D01*
X60502990Y-76529333D01*
X60502990Y-76910285D01*
X60074419Y-75957904D02*
X60026800Y-75910285D01*
X59979180Y-75815047D01*
X59979180Y-75576952D01*
X60026800Y-75481714D01*
X60074419Y-75434095D01*
X60169657Y-75386476D01*
X60264895Y-75386476D01*
X60407752Y-75434095D01*
X60979180Y-76005523D01*
X60979180Y-75386476D01*
X59979180Y-74767428D02*
X59979180Y-74672190D01*
X60026800Y-74576952D01*
X60074419Y-74529333D01*
X60169657Y-74481714D01*
X60360133Y-74434095D01*
X60598228Y-74434095D01*
X60788704Y-74481714D01*
X60883942Y-74529333D01*
X60931561Y-74576952D01*
X60979180Y-74672190D01*
X60979180Y-74767428D01*
X60931561Y-74862666D01*
X60883942Y-74910285D01*
X60788704Y-74957904D01*
X60598228Y-75005523D01*
X60360133Y-75005523D01*
X60169657Y-74957904D01*
X60074419Y-74910285D01*
X60026800Y-74862666D01*
X59979180Y-74767428D01*
%TO.C,R12*%
X57979180Y-76338857D02*
X57502990Y-76672190D01*
X57979180Y-76910285D02*
X56979180Y-76910285D01*
X56979180Y-76529333D01*
X57026800Y-76434095D01*
X57074419Y-76386476D01*
X57169657Y-76338857D01*
X57312514Y-76338857D01*
X57407752Y-76386476D01*
X57455371Y-76434095D01*
X57502990Y-76529333D01*
X57502990Y-76910285D01*
X57979180Y-75386476D02*
X57979180Y-75957904D01*
X57979180Y-75672190D02*
X56979180Y-75672190D01*
X57122038Y-75767428D01*
X57217276Y-75862666D01*
X57264895Y-75957904D01*
X57074419Y-75005523D02*
X57026800Y-74957904D01*
X56979180Y-74862666D01*
X56979180Y-74624571D01*
X57026800Y-74529333D01*
X57074419Y-74481714D01*
X57169657Y-74434095D01*
X57264895Y-74434095D01*
X57407752Y-74481714D01*
X57979180Y-75053142D01*
X57979180Y-74434095D01*
%TO.C,T7*%
X29738095Y-8702380D02*
X30309523Y-8702380D01*
X30023809Y-9702380D02*
X30023809Y-8702380D01*
X30547619Y-8702380D02*
X31214285Y-8702380D01*
X30785714Y-9702380D01*
%TO.C,U1*%
X44738095Y-34952380D02*
X44738095Y-35761904D01*
X44785714Y-35857142D01*
X44833333Y-35904761D01*
X44928571Y-35952380D01*
X45119047Y-35952380D01*
X45214285Y-35904761D01*
X45261904Y-35857142D01*
X45309523Y-35761904D01*
X45309523Y-34952380D01*
X46309523Y-35952380D02*
X45738095Y-35952380D01*
X46023809Y-35952380D02*
X46023809Y-34952380D01*
X45928571Y-35095238D01*
X45833333Y-35190476D01*
X45738095Y-35238095D01*
%TO.C,S1*%
X12438095Y-54044761D02*
X12580952Y-54092380D01*
X12819047Y-54092380D01*
X12914285Y-54044761D01*
X12961904Y-53997142D01*
X13009523Y-53901904D01*
X13009523Y-53806666D01*
X12961904Y-53711428D01*
X12914285Y-53663809D01*
X12819047Y-53616190D01*
X12628571Y-53568571D01*
X12533333Y-53520952D01*
X12485714Y-53473333D01*
X12438095Y-53378095D01*
X12438095Y-53282857D01*
X12485714Y-53187619D01*
X12533333Y-53140000D01*
X12628571Y-53092380D01*
X12866666Y-53092380D01*
X13009523Y-53140000D01*
X13961904Y-54092380D02*
X13390476Y-54092380D01*
X13676190Y-54092380D02*
X13676190Y-53092380D01*
X13580952Y-53235238D01*
X13485714Y-53330476D01*
X13390476Y-53378095D01*
%TO.C,T8*%
X29798095Y-202380D02*
X30369523Y-202380D01*
X30083809Y-1202380D02*
X30083809Y-202380D01*
X30845714Y-630952D02*
X30750476Y-583333D01*
X30702857Y-535714D01*
X30655238Y-440476D01*
X30655238Y-392857D01*
X30702857Y-297619D01*
X30750476Y-250000D01*
X30845714Y-202380D01*
X31036190Y-202380D01*
X31131428Y-250000D01*
X31179047Y-297619D01*
X31226666Y-392857D01*
X31226666Y-440476D01*
X31179047Y-535714D01*
X31131428Y-583333D01*
X31036190Y-630952D01*
X30845714Y-630952D01*
X30750476Y-678571D01*
X30702857Y-726190D01*
X30655238Y-821428D01*
X30655238Y-1011904D01*
X30702857Y-1107142D01*
X30750476Y-1154761D01*
X30845714Y-1202380D01*
X31036190Y-1202380D01*
X31131428Y-1154761D01*
X31179047Y-1107142D01*
X31226666Y-1011904D01*
X31226666Y-821428D01*
X31179047Y-726190D01*
X31131428Y-678571D01*
X31036190Y-630952D01*
%TO.C,BZ1*%
X12524571Y-32452952D02*
X12572190Y-32310095D01*
X12619809Y-32262476D01*
X12715047Y-32214857D01*
X12857904Y-32214857D01*
X12953142Y-32262476D01*
X13000761Y-32310095D01*
X13048380Y-32405333D01*
X13048380Y-32786285D01*
X12048380Y-32786285D01*
X12048380Y-32452952D01*
X12096000Y-32357714D01*
X12143619Y-32310095D01*
X12238857Y-32262476D01*
X12334095Y-32262476D01*
X12429333Y-32310095D01*
X12476952Y-32357714D01*
X12524571Y-32452952D01*
X12524571Y-32786285D01*
X12048380Y-31881523D02*
X12048380Y-31214857D01*
X13048380Y-31881523D01*
X13048380Y-31214857D01*
X13048380Y-30310095D02*
X13048380Y-30881523D01*
X13048380Y-30595809D02*
X12048380Y-30595809D01*
X12191238Y-30691047D01*
X12286476Y-30786285D01*
X12334095Y-30881523D01*
D11*
%TO.C,R11*%
X56549300Y-78533742D02*
X56549300Y-79008258D01*
X55504300Y-78533742D02*
X55504300Y-79008258D01*
%TO.C,R13*%
X58504300Y-79008258D02*
X58504300Y-78533742D01*
X59549300Y-79008258D02*
X59549300Y-78533742D01*
%TO.C,R5*%
X42577500Y-5362258D02*
X42577500Y-4887742D01*
X43622500Y-5362258D02*
X43622500Y-4887742D01*
%TO.C,D7*%
X35138800Y-78435200D02*
X33208400Y-78435200D01*
%TO.C,D1*%
X48564800Y-78435200D02*
X46634400Y-78435200D01*
%TO.C,D2*%
X46314800Y-78435200D02*
X44384400Y-78435200D01*
%TO.C,D3*%
X44079600Y-78435200D02*
X42149200Y-78435200D01*
%TO.C,T5*%
X8660000Y-76073000D02*
X8660000Y-69088000D01*
X11660000Y-69088000D02*
X11660000Y-76073000D01*
%TO.C,R8*%
X58049300Y-82058742D02*
X58049300Y-82533258D01*
X57004300Y-82058742D02*
X57004300Y-82533258D01*
%TO.C,Q1*%
X50190000Y-9000000D02*
X50190000Y-8350000D01*
X50190000Y-9000000D02*
X50190000Y-9650000D01*
X53310000Y-9000000D02*
X53310000Y-7325000D01*
X53310000Y-9000000D02*
X53310000Y-9650000D01*
%TO.C,C2*%
X27640500Y-46922258D02*
X27640500Y-46447742D01*
X26595500Y-46922258D02*
X26595500Y-46447742D01*
D10*
%TO.C,Y1*%
X21678000Y-48300000D02*
X32678000Y-48300000D01*
X32678000Y-48300000D02*
X32678000Y-53300000D01*
X32678000Y-53300000D02*
X21678000Y-53300000D01*
X21678000Y-53300000D02*
X21678000Y-48300000D01*
D11*
%TO.C,R_0_if_no_auto_power_off1*%
X42026100Y-5354858D02*
X42026100Y-4880342D01*
X40981100Y-5354858D02*
X40981100Y-4880342D01*
%TO.C,R23*%
X65549300Y-79008258D02*
X65549300Y-78533742D01*
X64504300Y-79008258D02*
X64504300Y-78533742D01*
%TO.C,D5*%
X39609200Y-78435200D02*
X37678800Y-78435200D01*
%TO.C,R28*%
X54727500Y-4762742D02*
X54727500Y-5237258D01*
X55772500Y-4762742D02*
X55772500Y-5237258D01*
%TO.C,R6*%
X54004300Y-82058742D02*
X54004300Y-82533258D01*
X55049300Y-82058742D02*
X55049300Y-82533258D01*
%TO.C,D10*%
X30617600Y-78435200D02*
X28687200Y-78435200D01*
%TO.C,D9*%
X2844800Y-60655200D02*
X914400Y-60655200D01*
%TO.C,Q2*%
X57310000Y-9000000D02*
X57310000Y-9650000D01*
X54190000Y-9000000D02*
X54190000Y-8350000D01*
X54190000Y-9000000D02*
X54190000Y-10675000D01*
X57310000Y-9000000D02*
X57310000Y-8350000D01*
%TO.C,R25*%
X52772500Y-4762742D02*
X52772500Y-5237258D01*
X51727500Y-4762742D02*
X51727500Y-5237258D01*
%TO.C,R7*%
X56549300Y-82058742D02*
X56549300Y-82533258D01*
X55504300Y-82058742D02*
X55504300Y-82533258D01*
%TO.C,R22*%
X63004300Y-78533742D02*
X63004300Y-79008258D01*
X64049300Y-78533742D02*
X64049300Y-79008258D01*
%TO.C,D4*%
X41844400Y-78435200D02*
X39914000Y-78435200D01*
%TO.C,R_reset_pullup1*%
X51903100Y-79028058D02*
X51903100Y-78553542D01*
X52948100Y-79028058D02*
X52948100Y-78553542D01*
%TO.C,C1*%
X30688500Y-46350742D02*
X30688500Y-46825258D01*
X29643500Y-46350742D02*
X29643500Y-46825258D01*
D10*
%TO.C,J1*%
X7100000Y-69768000D02*
X7100000Y-77468000D01*
X7100000Y-77468000D02*
X100000Y-77468000D01*
X100000Y-69768000D02*
X7100000Y-69768000D01*
%TO.C,J2*%
X70900000Y-23582000D02*
X77900000Y-23582000D01*
X70900000Y-31282000D02*
X70900000Y-23582000D01*
X77900000Y-31282000D02*
X70900000Y-31282000D01*
D11*
%TO.C,R19*%
X23605258Y-46837500D02*
X23130742Y-46837500D01*
X23605258Y-47882500D02*
X23130742Y-47882500D01*
%TO.C,R9*%
X58504300Y-82058742D02*
X58504300Y-82533258D01*
X59549300Y-82058742D02*
X59549300Y-82533258D01*
%TO.C,R26*%
X56227500Y-5237258D02*
X56227500Y-4762742D01*
X57272500Y-5237258D02*
X57272500Y-4762742D01*
%TO.C,R17*%
X63004300Y-82058742D02*
X63004300Y-82533258D01*
X64049300Y-82058742D02*
X64049300Y-82533258D01*
%TO.C,R_vcc_protected1*%
X57795900Y-5215658D02*
X57795900Y-4741142D01*
X58840900Y-5215658D02*
X58840900Y-4741142D01*
%TO.C,R3*%
X46622500Y-5362258D02*
X46622500Y-4887742D01*
X45577500Y-5362258D02*
X45577500Y-4887742D01*
%TO.C,R21*%
X61504300Y-79008258D02*
X61504300Y-78533742D01*
X62549300Y-79008258D02*
X62549300Y-78533742D01*
%TO.C,R16*%
X61504300Y-82058742D02*
X61504300Y-82533258D01*
X62549300Y-82058742D02*
X62549300Y-82533258D01*
%TO.C,R_0_if_no_usb_switch1*%
X50152500Y-4762742D02*
X50152500Y-5237258D01*
X51197500Y-4762742D02*
X51197500Y-5237258D01*
%TO.C,R2*%
X48122500Y-5262258D02*
X48122500Y-4787742D01*
X47077500Y-5262258D02*
X47077500Y-4787742D01*
%TO.C,D8*%
X32903600Y-78435200D02*
X30973200Y-78435200D01*
%TO.C,T2*%
X14732000Y-47728000D02*
X7747000Y-47728000D01*
X7747000Y-44728000D02*
X14732000Y-44728000D01*
%TO.C,D6*%
X37374000Y-78435200D02*
X35443600Y-78435200D01*
%TO.C,C3*%
X20559500Y-46719258D02*
X20559500Y-46244742D01*
X21604500Y-46719258D02*
X21604500Y-46244742D01*
%TO.C,R18*%
X65549300Y-82058742D02*
X65549300Y-82533258D01*
X64504300Y-82058742D02*
X64504300Y-82533258D01*
%TO.C,R1*%
X49622500Y-5162258D02*
X49622500Y-4687742D01*
X48577500Y-5162258D02*
X48577500Y-4687742D01*
%TO.C,R4*%
X45122500Y-5362258D02*
X45122500Y-4887742D01*
X44077500Y-5362258D02*
X44077500Y-4887742D01*
%TO.C,R27*%
X53227500Y-5237258D02*
X53227500Y-4762742D01*
X54272500Y-5237258D02*
X54272500Y-4762742D01*
%TO.C,R10*%
X54004300Y-79008258D02*
X54004300Y-78533742D01*
X55049300Y-79008258D02*
X55049300Y-78533742D01*
%TO.C,R15*%
X60004300Y-82058742D02*
X60004300Y-82533258D01*
X61049300Y-82058742D02*
X61049300Y-82533258D01*
%TO.C,R20*%
X60004300Y-78533742D02*
X60004300Y-79008258D01*
X61049300Y-78533742D02*
X61049300Y-79008258D01*
%TO.C,R12*%
X58049300Y-79008258D02*
X58049300Y-78533742D01*
X57004300Y-79008258D02*
X57004300Y-78533742D01*
D10*
%TO.C,BZ1*%
X12494400Y-27000000D02*
G75*
G03*
X12494400Y-27000000I-5994400J0D01*
G01*
%TD*%
M02*
