%TF.GenerationSoftware,KiCad,Pcbnew,(6.0.0)*%
%TF.CreationDate,2022-11-14T01:44:22-08:00*%
%TF.ProjectId,Luciebox_v4,4c756369-6562-46f7-985f-76342e6b6963,rev?*%
%TF.SameCoordinates,Original*%
%TF.FileFunction,Copper,L1,Top*%
%TF.FilePolarity,Positive*%
%FSLAX46Y46*%
G04 Gerber Fmt 4.6, Leading zero omitted, Abs format (unit mm)*
G04 Created by KiCad (PCBNEW (6.0.0)) date 2022-11-14 01:44:22*
%MOMM*%
%LPD*%
G01*
G04 APERTURE LIST*
G04 Aperture macros list*
%AMRoundRect*
0 Rectangle with rounded corners*
0 $1 Rounding radius*
0 $2 $3 $4 $5 $6 $7 $8 $9 X,Y pos of 4 corners*
0 Add a 4 corners polygon primitive as box body*
4,1,4,$2,$3,$4,$5,$6,$7,$8,$9,$2,$3,0*
0 Add four circle primitives for the rounded corners*
1,1,$1+$1,$2,$3*
1,1,$1+$1,$4,$5*
1,1,$1+$1,$6,$7*
1,1,$1+$1,$8,$9*
0 Add four rect primitives between the rounded corners*
20,1,$1+$1,$2,$3,$4,$5,0*
20,1,$1+$1,$4,$5,$6,$7,0*
20,1,$1+$1,$6,$7,$8,$9,0*
20,1,$1+$1,$8,$9,$2,$3,0*%
G04 Aperture macros list end*
%TA.AperFunction,SMDPad,CuDef*%
%ADD10RoundRect,0.200000X-0.275000X0.200000X-0.275000X-0.200000X0.275000X-0.200000X0.275000X0.200000X0*%
%TD*%
%TA.AperFunction,SMDPad,CuDef*%
%ADD11RoundRect,0.200000X0.275000X-0.200000X0.275000X0.200000X-0.275000X0.200000X-0.275000X-0.200000X0*%
%TD*%
%TA.AperFunction,SMDPad,CuDef*%
%ADD12R,1.800000X2.500000*%
%TD*%
%TA.AperFunction,ComponentPad*%
%ADD13R,2.000000X1.200000*%
%TD*%
%TA.AperFunction,ComponentPad*%
%ADD14O,2.000000X1.200000*%
%TD*%
%TA.AperFunction,SMDPad,CuDef*%
%ADD15RoundRect,0.150000X-0.150000X0.587500X-0.150000X-0.587500X0.150000X-0.587500X0.150000X0.587500X0*%
%TD*%
%TA.AperFunction,ComponentPad*%
%ADD16C,1.000000*%
%TD*%
%TA.AperFunction,SMDPad,CuDef*%
%ADD17RoundRect,0.150000X0.150000X-0.587500X0.150000X0.587500X-0.150000X0.587500X-0.150000X-0.587500X0*%
%TD*%
%TA.AperFunction,ComponentPad*%
%ADD18O,1.650000X1.100000*%
%TD*%
%TA.AperFunction,ComponentPad*%
%ADD19O,2.700000X1.700000*%
%TD*%
%TA.AperFunction,SMDPad,CuDef*%
%ADD20RoundRect,0.200000X0.200000X0.275000X-0.200000X0.275000X-0.200000X-0.275000X0.200000X-0.275000X0*%
%TD*%
%TA.AperFunction,ComponentPad*%
%ADD21R,1.200000X2.000000*%
%TD*%
%TA.AperFunction,ComponentPad*%
%ADD22O,1.200000X2.000000*%
%TD*%
%TA.AperFunction,ComponentPad*%
%ADD23O,2.000000X2.000000*%
%TD*%
%TA.AperFunction,ComponentPad*%
%ADD24R,1.500000X1.500000*%
%TD*%
%TA.AperFunction,ComponentPad*%
%ADD25C,1.500000*%
%TD*%
%TA.AperFunction,ComponentPad*%
%ADD26R,1.600000X1.600000*%
%TD*%
%TA.AperFunction,ComponentPad*%
%ADD27C,1.600000*%
%TD*%
%TA.AperFunction,WasherPad*%
%ADD28R,2.000000X2.100000*%
%TD*%
%TA.AperFunction,ComponentPad*%
%ADD29C,3.000000*%
%TD*%
%TA.AperFunction,ComponentPad*%
%ADD30R,2.032000X2.032000*%
%TD*%
%TA.AperFunction,ComponentPad*%
%ADD31C,2.032000*%
%TD*%
%TA.AperFunction,ViaPad*%
%ADD32C,0.800000*%
%TD*%
%TA.AperFunction,Conductor*%
%ADD33C,0.250000*%
%TD*%
G04 APERTURE END LIST*
D10*
%TO.P,R11,1*%
%TO.N,Net-(R10-Pad2)*%
X56026800Y-77946000D03*
%TO.P,R11,2*%
%TO.N,Net-(R11-Pad2)*%
X56026800Y-79596000D03*
%TD*%
D11*
%TO.P,R13,1*%
%TO.N,Net-(R12-Pad2)*%
X59026800Y-79596000D03*
%TO.P,R13,2*%
%TO.N,GND*%
X59026800Y-77946000D03*
%TD*%
%TO.P,R5,1*%
%TO.N,Net-(R5-Pad1)*%
X43100000Y-5950000D03*
%TO.P,R5,2*%
%TO.N,/11(PWM-MOSI)*%
X43100000Y-4300000D03*
%TD*%
D12*
%TO.P,D7,1,K*%
%TO.N,/13(SCK)*%
X34173600Y-79788000D03*
%TO.P,D7,2,A*%
%TO.N,Net-(D7-Pad2)*%
X34173600Y-83788000D03*
%TD*%
%TO.P,D1,1,K*%
%TO.N,/7*%
X47599600Y-79788000D03*
%TO.P,D1,2,A*%
%TO.N,Net-(D1-Pad2)*%
X47599600Y-83788000D03*
%TD*%
%TO.P,D2,1,K*%
%TO.N,/A3*%
X45349600Y-79788000D03*
%TO.P,D2,2,A*%
%TO.N,Net-(D2-Pad2)*%
X45349600Y-83788000D03*
%TD*%
%TO.P,D3,1,K*%
%TO.N,/4*%
X43114400Y-79788000D03*
%TO.P,D3,2,A*%
%TO.N,Net-(D3-Pad2)*%
X43114400Y-83788000D03*
%TD*%
D13*
%TO.P,T5,1,1*%
%TO.N,Net-(J1-Pad2)*%
X10160000Y-75438000D03*
D14*
%TO.P,T5,2,2*%
%TO.N,Net-(J1-Pad4)*%
X10160000Y-72898000D03*
%TO.P,T5,3,3*%
%TO.N,Net-(J1-Pad3)*%
X10160000Y-70358000D03*
%TD*%
D10*
%TO.P,R8,1*%
%TO.N,Net-(R11-Pad2)*%
X57526800Y-81471000D03*
%TO.P,R8,2*%
%TO.N,Net-(R8-Pad2)*%
X57526800Y-83121000D03*
%TD*%
D15*
%TO.P,Q1,1,G*%
%TO.N,Net-(Q1-Pad1)*%
X52700000Y-8062500D03*
%TO.P,Q1,2,S*%
%TO.N,/Vin*%
X50800000Y-8062500D03*
%TO.P,Q1,3,D*%
%TO.N,VCC*%
X51750000Y-9937500D03*
%TD*%
D11*
%TO.P,C2,1*%
%TO.N,GND*%
X27118000Y-47510000D03*
%TO.P,C2,2*%
%TO.N,Net-(C2-Pad2)*%
X27118000Y-45860000D03*
%TD*%
D16*
%TO.P,Y1,1,1*%
%TO.N,Net-(C2-Pad2)*%
X29718000Y-50800000D03*
%TO.P,Y1,2,2*%
%TO.N,Net-(C3-Pad2)*%
X24638000Y-50800000D03*
%TD*%
D11*
%TO.P,R_0_if_no_auto_power_off1,1*%
%TO.N,VCC*%
X41503600Y-5942600D03*
%TO.P,R_0_if_no_auto_power_off1,2*%
%TO.N,/Vin*%
X41503600Y-4292600D03*
%TD*%
%TO.P,R23,1*%
%TO.N,Net-(R18-Pad1)*%
X65026800Y-79596000D03*
%TO.P,R23,2*%
%TO.N,GND*%
X65026800Y-77946000D03*
%TD*%
D12*
%TO.P,D5,1,K*%
%TO.N,/0(Rx)*%
X38644000Y-79788000D03*
%TO.P,D5,2,A*%
%TO.N,Net-(D5-Pad2)*%
X38644000Y-83788000D03*
%TD*%
D10*
%TO.P,R28,1*%
%TO.N,GND*%
X55250000Y-4175000D03*
%TO.P,R28,2*%
%TO.N,Net-(Q2-Pad2)*%
X55250000Y-5825000D03*
%TD*%
%TO.P,R6,1*%
%TO.N,/A2*%
X54526800Y-81471000D03*
%TO.P,R6,2*%
%TO.N,Net-(R6-Pad2)*%
X54526800Y-83121000D03*
%TD*%
D12*
%TO.P,D10,1,K*%
%TO.N,Net-(D10-Pad1)*%
X29652400Y-79788000D03*
%TO.P,D10,2,A*%
%TO.N,Net-(D10-Pad2)*%
X29652400Y-83788000D03*
%TD*%
%TO.P,D9,1,K*%
%TO.N,Net-(D9-Pad1)*%
X1879600Y-62008000D03*
%TO.P,D9,2,A*%
%TO.N,Net-(D9-Pad2)*%
X1879600Y-66008000D03*
%TD*%
D17*
%TO.P,Q2,1,C*%
%TO.N,Net-(Q1-Pad1)*%
X54800000Y-9937500D03*
%TO.P,Q2,2,B*%
%TO.N,Net-(Q2-Pad2)*%
X56700000Y-9937500D03*
%TO.P,Q2,3,E*%
%TO.N,GND*%
X55750000Y-8062500D03*
%TD*%
D10*
%TO.P,R25,1*%
%TO.N,/Vin*%
X52250000Y-4175000D03*
%TO.P,R25,2*%
%TO.N,Net-(Q1-Pad1)*%
X52250000Y-5825000D03*
%TD*%
%TO.P,R7,1*%
%TO.N,Net-(R10-Pad2)*%
X56026800Y-81471000D03*
%TO.P,R7,2*%
%TO.N,Net-(R7-Pad2)*%
X56026800Y-83121000D03*
%TD*%
%TO.P,R22,1*%
%TO.N,Net-(R17-Pad1)*%
X63526800Y-77946000D03*
%TO.P,R22,2*%
%TO.N,Net-(R18-Pad1)*%
X63526800Y-79596000D03*
%TD*%
D12*
%TO.P,D4,1,K*%
%TO.N,/8*%
X40879200Y-79788000D03*
%TO.P,D4,2,A*%
%TO.N,Net-(D4-Pad2)*%
X40879200Y-83788000D03*
%TD*%
D11*
%TO.P,R_reset_pullup1,1*%
%TO.N,VCC*%
X52425600Y-79615800D03*
%TO.P,R_reset_pullup1,2*%
%TO.N,Net-(R_reset_pullup1-Pad2)*%
X52425600Y-77965800D03*
%TD*%
D10*
%TO.P,C1,1*%
%TO.N,VCC*%
X30166000Y-45763000D03*
%TO.P,C1,2*%
%TO.N,GND*%
X30166000Y-47413000D03*
%TD*%
D18*
%TO.P,J1,1,GND*%
%TO.N,GND*%
X7150000Y-75218000D03*
%TO.P,J1,2,ID*%
%TO.N,Net-(J1-Pad2)*%
X5450000Y-74418000D03*
%TO.P,J1,3,D+*%
%TO.N,Net-(J1-Pad3)*%
X7150000Y-73618000D03*
%TO.P,J1,4,D-*%
%TO.N,Net-(J1-Pad4)*%
X5450000Y-72818000D03*
%TO.P,J1,5,VBUS*%
%TO.N,Net-(D9-Pad2)*%
X7150000Y-72018000D03*
D19*
%TO.P,J1,6,Shield*%
%TO.N,GND*%
X6360720Y-77268000D03*
X1850000Y-69968000D03*
X1850000Y-77268000D03*
X6360720Y-69968000D03*
%TD*%
D18*
%TO.P,J2,1,GND*%
%TO.N,GND*%
X70850000Y-25832000D03*
%TO.P,J2,2,ID*%
%TO.N,unconnected-(J2-Pad2)*%
X72550000Y-26632000D03*
%TO.P,J2,3,D+*%
%TO.N,unconnected-(J2-Pad3)*%
X70850000Y-27432000D03*
%TO.P,J2,4,D-*%
%TO.N,unconnected-(J2-Pad4)*%
X72550000Y-28232000D03*
%TO.P,J2,5,VBUS*%
%TO.N,Net-(D9-Pad2)*%
X70850000Y-29032000D03*
D19*
%TO.P,J2,6,Shield*%
%TO.N,GND*%
X71639280Y-31082000D03*
X76150000Y-23782000D03*
X76150000Y-31082000D03*
X71639280Y-23782000D03*
%TD*%
D20*
%TO.P,R19,1*%
%TO.N,Net-(C2-Pad2)*%
X24193000Y-47360000D03*
%TO.P,R19,2*%
%TO.N,Net-(C3-Pad2)*%
X22543000Y-47360000D03*
%TD*%
D10*
%TO.P,R9,1*%
%TO.N,Net-(R12-Pad2)*%
X59026800Y-81471000D03*
%TO.P,R9,2*%
%TO.N,Net-(R9-Pad2)*%
X59026800Y-83121000D03*
%TD*%
D11*
%TO.P,R26,1*%
%TO.N,Net-(Q2-Pad2)*%
X56750000Y-5825000D03*
%TO.P,R26,2*%
%TO.N,Net-(R26-Pad2)*%
X56750000Y-4175000D03*
%TD*%
D10*
%TO.P,R17,1*%
%TO.N,Net-(R17-Pad1)*%
X63526800Y-81471000D03*
%TO.P,R17,2*%
%TO.N,Net-(R17-Pad2)*%
X63526800Y-83121000D03*
%TD*%
D11*
%TO.P,R_vcc_protected1,1*%
%TO.N,VCC*%
X58318400Y-5803400D03*
%TO.P,R_vcc_protected1,2*%
%TO.N,VCC_minimalCurrent*%
X58318400Y-4153400D03*
%TD*%
%TO.P,R3,1*%
%TO.N,Net-(R3-Pad1)*%
X46100000Y-5950000D03*
%TO.P,R3,2*%
%TO.N,/9(PWM)*%
X46100000Y-4300000D03*
%TD*%
%TO.P,R21,1*%
%TO.N,Net-(R16-Pad1)*%
X62026800Y-79596000D03*
%TO.P,R21,2*%
%TO.N,Net-(R17-Pad1)*%
X62026800Y-77946000D03*
%TD*%
D10*
%TO.P,R16,1*%
%TO.N,Net-(R16-Pad1)*%
X62026800Y-81471000D03*
%TO.P,R16,2*%
%TO.N,Net-(R16-Pad2)*%
X62026800Y-83121000D03*
%TD*%
%TO.P,R_0_if_no_usb_switch1,1*%
%TO.N,Net-(D9-Pad1)*%
X50675000Y-4175000D03*
%TO.P,R_0_if_no_usb_switch1,2*%
%TO.N,/Vin*%
X50675000Y-5825000D03*
%TD*%
D11*
%TO.P,R2,1*%
%TO.N,Net-(R2-Pad1)*%
X47600000Y-5850000D03*
%TO.P,R2,2*%
%TO.N,/5(PWM)*%
X47600000Y-4200000D03*
%TD*%
D12*
%TO.P,D8,1,K*%
%TO.N,/12(MISO)*%
X31938400Y-79788000D03*
%TO.P,D8,2,A*%
%TO.N,Net-(D8-Pad2)*%
X31938400Y-83788000D03*
%TD*%
D21*
%TO.P,T2,1,1*%
%TO.N,/2*%
X8382000Y-46228000D03*
D22*
%TO.P,T2,2,2*%
%TO.N,/3(PWM)*%
X10922000Y-46228000D03*
%TO.P,T2,3,3*%
%TO.N,/A5(SCL)*%
X13462000Y-46228000D03*
%TD*%
D12*
%TO.P,D6,1,K*%
%TO.N,/1(Tx)*%
X36408800Y-79788000D03*
%TO.P,D6,2,A*%
%TO.N,Net-(D6-Pad2)*%
X36408800Y-83788000D03*
%TD*%
D11*
%TO.P,C3,1*%
%TO.N,GND*%
X21082000Y-47307000D03*
%TO.P,C3,2*%
%TO.N,Net-(C3-Pad2)*%
X21082000Y-45657000D03*
%TD*%
D10*
%TO.P,R18,1*%
%TO.N,Net-(R18-Pad1)*%
X65026800Y-81471000D03*
%TO.P,R18,2*%
%TO.N,Net-(R18-Pad2)*%
X65026800Y-83121000D03*
%TD*%
D11*
%TO.P,R1,1*%
%TO.N,Net-(R1-Pad1)*%
X49100000Y-5750000D03*
%TO.P,R1,2*%
%TO.N,/6(PWM)*%
X49100000Y-4100000D03*
%TD*%
%TO.P,R4,1*%
%TO.N,Net-(R4-Pad1)*%
X44600000Y-5950000D03*
%TO.P,R4,2*%
%TO.N,/10(PWM-SS)*%
X44600000Y-4300000D03*
%TD*%
%TO.P,R27,1*%
%TO.N,Net-(Q2-Pad2)*%
X53750000Y-5825000D03*
%TO.P,R27,2*%
%TO.N,/A4*%
X53750000Y-4175000D03*
%TD*%
D23*
%TO.P,U2,1*%
%TO.N,VCC*%
X48425100Y-32562800D03*
%TO.P,U2,2*%
X48412400Y-30022800D03*
%TO.P,U2,3*%
X48425100Y-27482800D03*
%TO.P,U2,4*%
X48437800Y-24942800D03*
%TO.P,U2,5*%
X48425100Y-22402800D03*
%TO.P,U2,6*%
X48412400Y-19862800D03*
%TO.P,U2,7*%
X48425100Y-17322800D03*
%TO.P,U2,8*%
%TO.N,unconnected-(U2-Pad8)*%
X48412400Y-14782800D03*
%TO.P,U2,9*%
%TO.N,Net-(U2-Pad10)*%
X50965100Y-32562800D03*
%TO.P,U2,10*%
X50952400Y-30022800D03*
%TO.P,U2,11*%
%TO.N,Net-(U2-Pad11)*%
X50965100Y-27482800D03*
%TO.P,U2,12*%
X50977800Y-24942800D03*
%TO.P,U2,13*%
%TO.N,Net-(U2-Pad13)*%
X50965100Y-22402800D03*
%TO.P,U2,14*%
X50952400Y-19862800D03*
%TO.P,U2,15*%
X50965100Y-17322800D03*
%TO.P,U2,16*%
%TO.N,unconnected-(U2-Pad16)*%
X50952400Y-14782800D03*
%TO.P,U2,17*%
%TO.N,Net-(U2-Pad17)*%
X53505100Y-32562800D03*
%TO.P,U2,18*%
X53492400Y-30022800D03*
%TO.P,U2,19*%
%TO.N,Net-(U2-Pad19)*%
X53505100Y-27482800D03*
%TO.P,U2,20*%
X53517800Y-24942800D03*
%TO.P,U2,21*%
%TO.N,Net-(U2-Pad21)*%
X53505100Y-22402800D03*
%TO.P,U2,22*%
X53492400Y-19862800D03*
%TO.P,U2,23*%
X53505100Y-17322800D03*
%TO.P,U2,24*%
%TO.N,unconnected-(U2-Pad24)*%
X53492400Y-14782800D03*
%TO.P,U2,25*%
%TO.N,Net-(U2-Pad25)*%
X56045100Y-32562800D03*
%TO.P,U2,26*%
X56032400Y-30022800D03*
%TO.P,U2,27*%
%TO.N,Net-(U2-Pad27)*%
X56045100Y-27482800D03*
%TO.P,U2,28*%
X56057800Y-24942800D03*
%TO.P,U2,29*%
%TO.N,Net-(U2-Pad29)*%
X56045100Y-22402800D03*
%TO.P,U2,30*%
X56032400Y-19862800D03*
%TO.P,U2,31*%
X56045100Y-17322800D03*
%TO.P,U2,32*%
%TO.N,unconnected-(U2-Pad32)*%
X56032400Y-14782800D03*
%TO.P,U2,33*%
%TO.N,Net-(U2-Pad33)*%
X58585100Y-32562800D03*
%TO.P,U2,34*%
X58572400Y-30022800D03*
%TO.P,U2,35*%
%TO.N,Net-(U2-Pad35)*%
X58585100Y-27482800D03*
%TO.P,U2,36*%
X58597800Y-24942800D03*
%TO.P,U2,37*%
%TO.N,Net-(U2-Pad37)*%
X58585100Y-22402800D03*
%TO.P,U2,38*%
X58572400Y-19862800D03*
%TO.P,U2,39*%
X58585100Y-17322800D03*
%TO.P,U2,40*%
X58572400Y-14782800D03*
%TO.P,U2,41*%
%TO.N,Net-(U2-Pad41)*%
X61125100Y-32562800D03*
%TO.P,U2,42*%
X61112400Y-30022800D03*
%TO.P,U2,43*%
%TO.N,Net-(U2-Pad43)*%
X61125100Y-27482800D03*
%TO.P,U2,44*%
X61137800Y-24942800D03*
%TO.P,U2,45*%
%TO.N,Net-(U2-Pad45)*%
X61125100Y-22402800D03*
%TO.P,U2,46*%
X61112400Y-19862800D03*
%TO.P,U2,47*%
X61125100Y-17322800D03*
%TO.P,U2,48*%
X61112400Y-14782800D03*
%TO.P,U2,49*%
%TO.N,Net-(U2-Pad49)*%
X63665100Y-32562800D03*
%TO.P,U2,50*%
X63652400Y-30022800D03*
%TO.P,U2,51*%
%TO.N,Net-(U2-Pad51)*%
X63665100Y-27482800D03*
%TO.P,U2,52*%
X63677800Y-24942800D03*
%TO.P,U2,53*%
%TO.N,Net-(U2-Pad53)*%
X63665100Y-22402800D03*
%TO.P,U2,54*%
X63652400Y-19862800D03*
%TO.P,U2,55*%
X63665100Y-17322800D03*
%TO.P,U2,56*%
X63652400Y-14782800D03*
%TO.P,U2,57*%
%TO.N,GND*%
X66205100Y-32562800D03*
%TO.P,U2,58*%
X66192400Y-30022800D03*
%TO.P,U2,59*%
X66205100Y-27482800D03*
%TO.P,U2,60*%
X66217800Y-24942800D03*
%TO.P,U2,61*%
X66205100Y-22402800D03*
%TO.P,U2,62*%
X66192400Y-19862800D03*
%TO.P,U2,63*%
X66205100Y-17322800D03*
%TO.P,U2,64*%
X66192400Y-14782800D03*
%TD*%
D11*
%TO.P,R10,1*%
%TO.N,/A2*%
X54526800Y-79596000D03*
%TO.P,R10,2*%
%TO.N,Net-(R10-Pad2)*%
X54526800Y-77946000D03*
%TD*%
D10*
%TO.P,R15,1*%
%TO.N,/A1*%
X60526800Y-81471000D03*
%TO.P,R15,2*%
%TO.N,Net-(R15-Pad2)*%
X60526800Y-83121000D03*
%TD*%
%TO.P,R20,1*%
%TO.N,/A1*%
X60526800Y-77946000D03*
%TO.P,R20,2*%
%TO.N,Net-(R16-Pad1)*%
X60526800Y-79596000D03*
%TD*%
D11*
%TO.P,R12,1*%
%TO.N,Net-(R11-Pad2)*%
X57526800Y-79596000D03*
%TO.P,R12,2*%
%TO.N,Net-(R12-Pad2)*%
X57526800Y-77946000D03*
%TD*%
D24*
%TO.P,T7,1,1*%
%TO.N,unconnected-(T7-Pad1)*%
X39390000Y-6750000D03*
D25*
%TO.P,T7,2,2*%
%TO.N,unconnected-(T7-Pad2)*%
X36850000Y-6750000D03*
%TO.P,T7,3,3*%
%TO.N,unconnected-(T7-Pad3)*%
X34310000Y-6750000D03*
%TO.P,T7,4,4*%
%TO.N,Net-(R_reset_pullup1-Pad2)*%
X31770000Y-6750000D03*
%TO.P,T7,5,5*%
%TO.N,/0(Rx)*%
X29230000Y-6750000D03*
%TO.P,T7,6,6*%
%TO.N,/1(Tx)*%
X26690000Y-6750000D03*
%TO.P,T7,7,7*%
%TO.N,GND*%
X24150000Y-6750000D03*
%TO.P,T7,8,8*%
%TO.N,VCC*%
X21610000Y-6750000D03*
%TD*%
D24*
%TO.P,T1,1,1*%
%TO.N,Net-(D1-Pad2)*%
X48260000Y-88620000D03*
D25*
%TO.P,T1,2,2*%
%TO.N,Net-(D2-Pad2)*%
X45720000Y-88620000D03*
%TO.P,T1,3,3*%
%TO.N,Net-(D3-Pad2)*%
X43180000Y-88620000D03*
%TO.P,T1,4,4*%
%TO.N,Net-(D4-Pad2)*%
X40640000Y-88620000D03*
%TO.P,T1,5,5*%
%TO.N,Net-(D5-Pad2)*%
X38100000Y-88620000D03*
%TO.P,T1,6,6*%
%TO.N,Net-(D6-Pad2)*%
X35560000Y-88620000D03*
%TO.P,T1,7,7*%
%TO.N,Net-(D7-Pad2)*%
X33020000Y-88620000D03*
%TO.P,T1,8,8*%
%TO.N,Net-(D8-Pad2)*%
X30480000Y-88620000D03*
%TD*%
D24*
%TO.P,U1,1,e*%
%TO.N,/12(MISO)*%
X45940000Y-32440000D03*
D25*
%TO.P,U1,2,d*%
%TO.N,/8*%
X43400000Y-32440000D03*
%TO.P,U1,3,DPX*%
%TO.N,/0(Rx)*%
X40860000Y-32440000D03*
%TO.P,U1,4,c*%
%TO.N,/4*%
X38320000Y-32440000D03*
%TO.P,U1,5,g*%
%TO.N,/1(Tx)*%
X35780000Y-32440000D03*
%TO.P,U1,6,CA4*%
%TO.N,Net-(R2-Pad1)*%
X33240000Y-32440000D03*
%TO.P,U1,7,b*%
%TO.N,/A3*%
X33240000Y-17200000D03*
%TO.P,U1,8,CA3*%
%TO.N,Net-(R3-Pad1)*%
X35780000Y-17200000D03*
%TO.P,U1,9,CA2*%
%TO.N,Net-(R4-Pad1)*%
X38320000Y-17200000D03*
%TO.P,U1,10,f*%
%TO.N,/13(SCK)*%
X40860000Y-17200000D03*
%TO.P,U1,11,a*%
%TO.N,/7*%
X43400000Y-17200000D03*
%TO.P,U1,12,CA1*%
%TO.N,Net-(R5-Pad1)*%
X45940000Y-17200000D03*
%TD*%
D26*
%TO.P,U3,1,~{RESET}/PC6*%
%TO.N,Net-(R_reset_pullup1-Pad2)*%
X38855000Y-43250000D03*
D27*
%TO.P,U3,2,PD0*%
%TO.N,/0(Rx)*%
X36315000Y-43250000D03*
%TO.P,U3,3,PD1*%
%TO.N,/1(Tx)*%
X33775000Y-43250000D03*
%TO.P,U3,4,PD2*%
%TO.N,/2*%
X31235000Y-43250000D03*
%TO.P,U3,5,PD3*%
%TO.N,/3(PWM)*%
X28695000Y-43250000D03*
%TO.P,U3,6,PD4*%
%TO.N,/4*%
X26155000Y-43250000D03*
%TO.P,U3,7,VCC*%
%TO.N,VCC*%
X23615000Y-43250000D03*
%TO.P,U3,8,GND*%
%TO.N,GND*%
X21075000Y-43250000D03*
%TO.P,U3,9,XTAL1/PB6*%
%TO.N,Net-(C2-Pad2)*%
X18535000Y-43250000D03*
%TO.P,U3,10,XTAL2/PB7*%
%TO.N,Net-(C3-Pad2)*%
X15995000Y-43250000D03*
%TO.P,U3,11,PD5*%
%TO.N,/5(PWM)*%
X13455000Y-43250000D03*
%TO.P,U3,12,PD6*%
%TO.N,/6(PWM)*%
X10915000Y-43250000D03*
%TO.P,U3,13,PD7*%
%TO.N,/7*%
X8375000Y-43250000D03*
%TO.P,U3,14,PB0*%
%TO.N,/8*%
X5835000Y-43250000D03*
%TO.P,U3,15,PB1*%
%TO.N,/9(PWM)*%
X5835000Y-35630000D03*
%TO.P,U3,16,PB2*%
%TO.N,/10(PWM-SS)*%
X8375000Y-35630000D03*
%TO.P,U3,17,PB3*%
%TO.N,/11(PWM-MOSI)*%
X10915000Y-35630000D03*
%TO.P,U3,18,PB4*%
%TO.N,/12(MISO)*%
X13455000Y-35630000D03*
%TO.P,U3,19,PB5*%
%TO.N,/13(SCK)*%
X15995000Y-35630000D03*
%TO.P,U3,20,AVCC*%
%TO.N,VCC*%
X18535000Y-35630000D03*
%TO.P,U3,21,AREF*%
X21075000Y-35630000D03*
%TO.P,U3,22,GND*%
%TO.N,GND*%
X23615000Y-35630000D03*
%TO.P,U3,23,PC0*%
%TO.N,/A0*%
X26155000Y-35630000D03*
%TO.P,U3,24,PC1*%
%TO.N,/A1*%
X28695000Y-35630000D03*
%TO.P,U3,25,PC2*%
%TO.N,/A2*%
X31235000Y-35630000D03*
%TO.P,U3,26,PC3*%
%TO.N,/A3*%
X33775000Y-35630000D03*
%TO.P,U3,27,PC4*%
%TO.N,/A4(SDA)*%
X36315000Y-35630000D03*
%TO.P,U3,28,PC5*%
%TO.N,/A5(SCL)*%
X38855000Y-35630000D03*
%TD*%
D28*
%TO.P,S1,*%
%TO.N,*%
X20500000Y-60140000D03*
X4900000Y-60140000D03*
D29*
%TO.P,S1,1,A*%
%TO.N,/2*%
X7700000Y-49640000D03*
%TO.P,S1,2,B*%
%TO.N,/3(PWM)*%
X12700000Y-49640000D03*
%TO.P,S1,3,C*%
%TO.N,GND*%
X17700000Y-49640000D03*
%TD*%
D24*
%TO.P,T6,1,1*%
%TO.N,GND*%
X27940000Y-88620000D03*
D25*
%TO.P,T6,2,2*%
%TO.N,VCC*%
X25400000Y-88620000D03*
%TO.P,T6,3,3*%
%TO.N,Net-(R1-Pad1)*%
X22860000Y-88620000D03*
%TO.P,T6,4,4*%
%TO.N,GND*%
X20320000Y-88620000D03*
%TO.P,T6,5,5*%
%TO.N,Net-(D10-Pad2)*%
X17780000Y-88620000D03*
%TO.P,T6,6,6*%
%TO.N,/A0*%
X15240000Y-88620000D03*
%TO.P,T6,7,7*%
%TO.N,Net-(R26-Pad2)*%
X12700000Y-88620000D03*
%TO.P,T6,8,8*%
%TO.N,unconnected-(T6-Pad8)*%
X10160000Y-88620000D03*
%TD*%
D24*
%TO.P,T8,1,1*%
%TO.N,/Vin*%
X21670000Y-3250000D03*
D25*
%TO.P,T8,2,2*%
%TO.N,Net-(D9-Pad1)*%
X24210000Y-3250000D03*
%TO.P,T8,3,3*%
%TO.N,Net-(D10-Pad2)*%
X26750000Y-3250000D03*
%TO.P,T8,4,4*%
%TO.N,GND*%
X29290000Y-3250000D03*
%TO.P,T8,5,5*%
%TO.N,Net-(D10-Pad1)*%
X31830000Y-3250000D03*
%TO.P,T8,6,6*%
%TO.N,/Vin*%
X34370000Y-3250000D03*
%TO.P,T8,7,7*%
%TO.N,GND*%
X36910000Y-3250000D03*
%TO.P,T8,8,8*%
%TO.N,VCC*%
X39450000Y-3250000D03*
%TD*%
D24*
%TO.P,T4,1,1*%
%TO.N,Net-(R18-Pad2)*%
X68580000Y-88620000D03*
D25*
%TO.P,T4,2,2*%
%TO.N,Net-(R17-Pad2)*%
X66040000Y-88620000D03*
%TO.P,T4,3,3*%
%TO.N,Net-(R16-Pad2)*%
X63500000Y-88620000D03*
%TO.P,T4,4,4*%
%TO.N,Net-(R15-Pad2)*%
X60960000Y-88620000D03*
%TO.P,T4,5,5*%
%TO.N,Net-(R9-Pad2)*%
X58420000Y-88620000D03*
%TO.P,T4,6,6*%
%TO.N,Net-(R8-Pad2)*%
X55880000Y-88620000D03*
%TO.P,T4,7,7*%
%TO.N,Net-(R7-Pad2)*%
X53340000Y-88620000D03*
%TO.P,T4,8,8*%
%TO.N,Net-(R6-Pad2)*%
X50800000Y-88620000D03*
%TD*%
D30*
%TO.P,BZ1,1,-*%
%TO.N,/A5(SCL)*%
X10310000Y-27000000D03*
D31*
%TO.P,BZ1,2,+*%
%TO.N,GND*%
X2690000Y-27000000D03*
%TD*%
D32*
%TO.N,/A5(SCL)*%
X19500559Y-28898559D03*
%TO.N,GND*%
X54610000Y-7112000D03*
X55118000Y-3048000D03*
X66500000Y-79000000D03*
X28448000Y-46990000D03*
X32139536Y-47498000D03*
X32139536Y-47498000D03*
X57500000Y-76924500D03*
X3556000Y-68072000D03*
X7837583Y-65255813D03*
%TO.N,VCC*%
X52476400Y-80670400D03*
X2835033Y-37409320D03*
X45941484Y-10147180D03*
X28972475Y-9182479D03*
%TO.N,/Vin*%
X45974000Y-8890000D03*
X41402000Y-3048000D03*
%TO.N,/A0*%
X13944405Y-39239620D03*
X15494000Y-76454000D03*
X26155000Y-35630000D03*
%TO.N,/A1*%
X60526800Y-80697200D03*
X62000000Y-76000000D03*
%TO.N,/A3*%
X33981979Y-26481434D03*
%TO.N,/11(PWM-MOSI)*%
X42926000Y-3048000D03*
X41402000Y-7366000D03*
%TO.N,/10(PWM-SS)*%
X44704000Y-3048000D03*
X41618500Y-9398000D03*
%TO.N,/9(PWM)*%
X41148000Y-8382000D03*
X45974000Y-2794000D03*
%TO.N,/8*%
X38387023Y-46116120D03*
X37084000Y-47752000D03*
%TO.N,/7*%
X16002000Y-73660000D03*
X39214080Y-76112630D03*
%TO.N,/6(PWM)*%
X47498000Y-10414000D03*
X49022000Y-3302000D03*
X45585950Y-12968120D03*
%TO.N,/5(PWM)*%
X44453532Y-9029840D03*
X45920808Y-18840594D03*
X47498000Y-2794000D03*
%TO.N,/4*%
X37162178Y-44844406D03*
X35423351Y-41792649D03*
%TO.N,/1(Tx)*%
X21336000Y-29464000D03*
%TO.N,Net-(R17-Pad1)*%
X62012299Y-77012299D03*
X63526800Y-80595500D03*
%TO.N,Net-(R_reset_pullup1-Pad2)*%
X35560000Y-26162000D03*
%TO.N,Net-(R26-Pad2)*%
X28890712Y-10178632D03*
X56896000Y-3302000D03*
%TO.N,Net-(D9-Pad2)*%
X42007088Y-75173097D03*
%TO.N,Net-(D10-Pad2)*%
X27432000Y-84074000D03*
%TO.N,Net-(R1-Pad1)*%
X49022000Y-7874000D03*
X28956000Y-11430000D03*
%TO.N,Net-(R2-Pad1)*%
X36847987Y-9549528D03*
X37096943Y-22984767D03*
X46990000Y-6858000D03*
%TO.N,Net-(R3-Pad1)*%
X43678770Y-13132052D03*
X43678768Y-13132052D03*
%TO.N,Net-(R4-Pad1)*%
X42967033Y-13930623D03*
%TO.N,Net-(R10-Pad2)*%
X55880000Y-76962000D03*
X56134000Y-80595500D03*
%TD*%
D33*
%TO.N,/A5(SCL)*%
X14579511Y-43075189D02*
X17119511Y-40535189D01*
X19304000Y-29095118D02*
X19500559Y-28898559D01*
X19659619Y-28739499D02*
X19500559Y-28898559D01*
X39654999Y-32255410D02*
X36403569Y-29003980D01*
X36403569Y-29003980D02*
X32937107Y-29003980D01*
X32672626Y-28739499D02*
X19659619Y-28739499D01*
X17119511Y-40535189D02*
X17119511Y-35455189D01*
X19304000Y-33270700D02*
X19304000Y-29095118D01*
X38855000Y-35630000D02*
X39654999Y-34830001D01*
X13462000Y-46228000D02*
X14579511Y-45110489D01*
X17119511Y-35455189D02*
X19304000Y-33270700D01*
X14579511Y-45110489D02*
X14579511Y-43075189D01*
X39654999Y-34830001D02*
X39654999Y-32255410D01*
X32937107Y-29003980D02*
X32672626Y-28739499D01*
%TO.N,GND*%
X66540000Y-30529400D02*
X66540000Y-33056700D01*
X53346467Y-1276467D02*
X31263533Y-1276467D01*
X66540000Y-17816700D02*
X66552700Y-17829400D01*
X28460000Y-47002000D02*
X28448000Y-46990000D01*
X66552700Y-30516700D02*
X66540000Y-30529400D01*
X4464720Y-68072000D02*
X3556000Y-68072000D01*
X20033000Y-47307000D02*
X21082000Y-47307000D01*
X65026800Y-77946000D02*
X65446000Y-77946000D01*
X76150000Y-31082000D02*
X71639280Y-31082000D01*
X27118000Y-47510000D02*
X28460000Y-47510000D01*
X66565400Y-25449400D02*
X66565400Y-27976700D01*
X71639280Y-23782000D02*
X76150000Y-23782000D01*
X28460000Y-47510000D02*
X30069000Y-47510000D01*
X66565400Y-27976700D02*
X66552700Y-27989400D01*
X19950489Y-35164211D02*
X20609211Y-34505489D01*
X17700000Y-49640000D02*
X20033000Y-47307000D01*
X59026800Y-77946000D02*
X58005300Y-76924500D01*
X66552700Y-17829400D02*
X66552700Y-20356700D01*
X55118000Y-3048000D02*
X53346467Y-1276467D01*
X54799500Y-7112000D02*
X55750000Y-8062500D01*
X54610000Y-7112000D02*
X54799500Y-7112000D01*
X66552700Y-22909400D02*
X66552700Y-25436700D01*
X66540000Y-15289400D02*
X66540000Y-17816700D01*
X20609211Y-34505489D02*
X22490489Y-34505489D01*
X6360720Y-66732676D02*
X7837583Y-65255813D01*
X30069000Y-47510000D02*
X30166000Y-47413000D01*
X66540000Y-33056700D02*
X66552700Y-33069400D01*
X55118000Y-3048000D02*
X55118000Y-4043000D01*
X66217800Y-24942800D02*
X67378600Y-23782000D01*
X67378600Y-23782000D02*
X71639280Y-23782000D01*
X66540000Y-20369400D02*
X66540000Y-22896700D01*
X22490489Y-34505489D02*
X23615000Y-35630000D01*
X66552700Y-25436700D02*
X66565400Y-25449400D01*
X66552700Y-20356700D02*
X66540000Y-20369400D01*
X65446000Y-77946000D02*
X66500000Y-79000000D01*
X71639280Y-23782000D02*
X71639280Y-25292720D01*
X71639280Y-25292720D02*
X71100000Y-25832000D01*
X19950489Y-42125489D02*
X19950489Y-35164211D01*
X6360720Y-69968000D02*
X4464720Y-68072000D01*
X31263533Y-1276467D02*
X29290000Y-3250000D01*
X55118000Y-4043000D02*
X55250000Y-4175000D01*
X28460000Y-47510000D02*
X28460000Y-47002000D01*
X6360720Y-69968000D02*
X6360720Y-66732676D01*
X66540000Y-22896700D02*
X66552700Y-22909400D01*
X66552700Y-27989400D02*
X66552700Y-30516700D01*
X21075000Y-43250000D02*
X19950489Y-42125489D01*
X58005300Y-76924500D02*
X57500000Y-76924500D01*
%TO.N,VCC*%
X58420000Y-9906000D02*
X58420000Y-5905000D01*
X57150000Y-11176000D02*
X58420000Y-9906000D01*
X39450000Y-3250000D02*
X40464511Y-4264511D01*
X41502600Y-5942600D02*
X40464511Y-4904511D01*
X48772700Y-25436700D02*
X48785400Y-25449400D01*
X48772700Y-22909400D02*
X48772700Y-25436700D01*
X48760000Y-30529400D02*
X48760000Y-33056700D01*
X2835033Y-36283783D02*
X8980261Y-30138555D01*
X52425600Y-80619600D02*
X52476400Y-80670400D01*
X48772700Y-17829400D02*
X48772700Y-20356700D01*
X30030489Y-10240493D02*
X28972475Y-9182479D01*
X25400000Y-88620000D02*
X24728288Y-88620000D01*
X48760000Y-17816700D02*
X48772700Y-17829400D01*
X24042479Y-9182479D02*
X28972475Y-9182479D01*
X52425600Y-79615800D02*
X52425600Y-80619600D01*
X48760000Y-22896700D02*
X48772700Y-22909400D01*
X41503600Y-5942600D02*
X41502600Y-5942600D01*
X23615000Y-43250000D02*
X24414999Y-42450001D01*
X45884304Y-10147180D02*
X45941484Y-10147180D01*
X48772700Y-30516700D02*
X48760000Y-30529400D01*
X7658444Y-58329332D02*
X2306044Y-52976932D01*
X51750000Y-9937500D02*
X52988500Y-11176000D01*
X51501999Y-9689499D02*
X46399165Y-9689499D01*
X44852781Y-13750481D02*
X48425100Y-17322800D01*
X52988500Y-11176000D02*
X57150000Y-11176000D01*
X2835033Y-37409320D02*
X2835033Y-36283783D01*
X29538480Y-45135480D02*
X25500480Y-45135480D01*
X48760000Y-20369400D02*
X48760000Y-22896700D01*
X2306044Y-37938309D02*
X2835033Y-37409320D01*
X44852781Y-11235883D02*
X44852781Y-13750481D01*
X40464511Y-4904511D02*
X40464511Y-4264511D01*
X8980261Y-30138555D02*
X12395284Y-30138554D01*
X51750000Y-9937500D02*
X51501999Y-9689499D01*
X24728288Y-88620000D02*
X13420967Y-77312679D01*
X30030489Y-12503349D02*
X30030489Y-10240493D01*
X13420966Y-67907486D02*
X7658444Y-62144964D01*
X24414999Y-42450001D02*
X24414999Y-38969999D01*
X48772700Y-20356700D02*
X48760000Y-20369400D01*
X40492600Y-4292600D02*
X40464511Y-4264511D01*
X21610000Y-6750000D02*
X24042479Y-9182479D01*
X2306044Y-52976932D02*
X2306044Y-37938309D01*
X46399165Y-9689499D02*
X44852781Y-11235883D01*
X48785400Y-27976700D02*
X48772700Y-27989400D01*
X48772700Y-27989400D02*
X48772700Y-30516700D01*
X30166000Y-45763000D02*
X29538480Y-45135480D01*
X12395284Y-30138554D02*
X30030489Y-12503349D01*
X25500480Y-45135480D02*
X23615000Y-43250000D01*
X7658444Y-62144964D02*
X7658444Y-58329332D01*
X48785400Y-25449400D02*
X48785400Y-27976700D01*
X48760000Y-33056700D02*
X48772700Y-33069400D01*
X13420967Y-77312679D02*
X13420966Y-67907486D01*
X24414999Y-38969999D02*
X21075000Y-35630000D01*
X58420000Y-5905000D02*
X58318400Y-5803400D01*
%TO.N,Net-(C2-Pad2)*%
X25006000Y-46547000D02*
X25006000Y-45860000D01*
X22746000Y-45860000D02*
X21260511Y-44374511D01*
X25657000Y-47360000D02*
X29097000Y-50800000D01*
X19659511Y-44374511D02*
X18535000Y-43250000D01*
X24193000Y-47360000D02*
X25657000Y-47360000D01*
X29097000Y-50800000D02*
X29718000Y-50800000D01*
X25006000Y-45860000D02*
X22746000Y-45860000D01*
X24193000Y-47360000D02*
X25006000Y-46547000D01*
X27118000Y-45860000D02*
X25006000Y-45860000D01*
X21260511Y-44374511D02*
X19659511Y-44374511D01*
%TO.N,Net-(C3-Pad2)*%
X17957000Y-45212000D02*
X15995000Y-43250000D01*
X24638000Y-49455000D02*
X22543000Y-47360000D01*
X22543000Y-47360000D02*
X22543000Y-47118000D01*
X21082000Y-45657000D02*
X20637000Y-45212000D01*
X22543000Y-47118000D02*
X21082000Y-45657000D01*
X24638000Y-49455000D02*
X24638000Y-50800000D01*
X20637000Y-45212000D02*
X17957000Y-45212000D01*
%TO.N,Net-(D1-Pad2)*%
X47599600Y-83788000D02*
X47599600Y-87959600D01*
X47599600Y-87959600D02*
X48260000Y-88620000D01*
%TO.N,Net-(J1-Pad3)*%
X10160000Y-71190532D02*
X10160000Y-70358000D01*
X6900000Y-73618000D02*
X7732532Y-73618000D01*
X7732532Y-73618000D02*
X10160000Y-71190532D01*
%TO.N,/Vin*%
X41503600Y-3784011D02*
X39895078Y-2175489D01*
X41402000Y-3048000D02*
X41402000Y-4191000D01*
X50800000Y-8062500D02*
X49972500Y-8890000D01*
X41503600Y-4292600D02*
X41503600Y-3784011D01*
X35444511Y-2175489D02*
X34370000Y-3250000D01*
X41402000Y-4191000D02*
X41503600Y-4292600D01*
X39895078Y-2175489D02*
X39004921Y-2175490D01*
X50675000Y-5825000D02*
X50675000Y-7937500D01*
X39004921Y-2175490D02*
X38757390Y-2423021D01*
X52250000Y-4175000D02*
X52250000Y-4250000D01*
X50675000Y-7937500D02*
X50800000Y-8062500D01*
X38757390Y-2423021D02*
X37602610Y-2423021D01*
X37355078Y-2175489D02*
X35444511Y-2175489D01*
X49972500Y-8890000D02*
X45974000Y-8890000D01*
X37602610Y-2423021D02*
X37355078Y-2175489D01*
X52250000Y-4250000D02*
X50675000Y-5825000D01*
%TO.N,/A0*%
X4932317Y-41675979D02*
X4122489Y-42485807D01*
X15277499Y-76237499D02*
X15494000Y-76454000D01*
X4122489Y-52250560D02*
X9456486Y-57584557D01*
X9456487Y-61400191D02*
X15277499Y-67221203D01*
X4122489Y-42485807D02*
X4122489Y-52250560D01*
X9456486Y-57584557D02*
X9456487Y-61400191D01*
X13944405Y-39239620D02*
X11508046Y-41675979D01*
X11508046Y-41675979D02*
X4932317Y-41675979D01*
X15277499Y-67221203D02*
X15277499Y-76237499D01*
%TO.N,/A1*%
X37439511Y-38709511D02*
X37439511Y-34391511D01*
X30269021Y-34055979D02*
X28695000Y-35630000D01*
X60526800Y-77946000D02*
X60526800Y-77473200D01*
X60380000Y-77946000D02*
X58342501Y-75908501D01*
X41185500Y-75152338D02*
X41185499Y-42455499D01*
X41185499Y-42455499D02*
X37439511Y-38709511D01*
X58342501Y-75908501D02*
X41609899Y-75908501D01*
X37439511Y-34391511D02*
X37103979Y-34055979D01*
X41609899Y-75908501D02*
X41287113Y-75585713D01*
X37103979Y-34055979D02*
X30269021Y-34055979D01*
X41287113Y-75585713D02*
X41287113Y-75253951D01*
X60526800Y-81471000D02*
X60526800Y-80697200D01*
X41287113Y-75253951D02*
X41185500Y-75152338D01*
X60526800Y-77473200D02*
X62000000Y-76000000D01*
X60706000Y-80518000D02*
X60526800Y-80697200D01*
%TO.N,/A2*%
X35190489Y-35455189D02*
X35190489Y-37096193D01*
X35190489Y-37096193D02*
X40735989Y-42641693D01*
X31235000Y-35630000D02*
X32359511Y-34505489D01*
X40735989Y-75338531D02*
X40837603Y-75440145D01*
X40837602Y-75771906D02*
X41423707Y-76358011D01*
X54526800Y-81471000D02*
X54526800Y-79596000D01*
X53270320Y-76649511D02*
X53270320Y-78339520D01*
X34240790Y-34505490D02*
X35190489Y-35455189D01*
X40735989Y-42641693D02*
X40735989Y-75338531D01*
X53270320Y-78339520D02*
X54526800Y-79596000D01*
X52978820Y-76358011D02*
X53270320Y-76649511D01*
X40837603Y-75440145D02*
X40837602Y-75771906D01*
X32359511Y-34505489D02*
X34240790Y-34505490D01*
X41423707Y-76358011D02*
X52978820Y-76358011D01*
%TO.N,/A3*%
X33775000Y-36316408D02*
X33775000Y-35630000D01*
X37592000Y-44080183D02*
X37592000Y-40133408D01*
X45349600Y-79788000D02*
X45349600Y-80337022D01*
X45349600Y-80337022D02*
X46375089Y-81362511D01*
X39836965Y-75710915D02*
X39836965Y-45905758D01*
X37592000Y-40133408D02*
X33775000Y-36316408D01*
X33240000Y-25739455D02*
X33981979Y-26481434D01*
X48824111Y-81362511D02*
X48824111Y-78232463D01*
X39836965Y-45905758D02*
X38873315Y-44942108D01*
X39938581Y-75812531D02*
X39836965Y-75710915D01*
X48824111Y-78232463D02*
X47848681Y-77257033D01*
X46375089Y-81362511D02*
X48824111Y-81362511D01*
X38873315Y-44942108D02*
X38453925Y-44942108D01*
X47848681Y-77257033D02*
X41051319Y-77257033D01*
X33240000Y-17200000D02*
X33240000Y-25739455D01*
X39938581Y-76144295D02*
X39938581Y-75812531D01*
X41051319Y-77257033D02*
X39938581Y-76144295D01*
X38453925Y-44942108D02*
X37592000Y-44080183D01*
%TO.N,/13(SCK)*%
X6020510Y-54784283D02*
X5287005Y-54050782D01*
X3654577Y-52418354D02*
X3654577Y-42568715D01*
X4260982Y-41585314D02*
X6417807Y-39428489D01*
X9006975Y-57770750D02*
X6020510Y-54784283D01*
X12196511Y-39428489D02*
X15995000Y-35630000D01*
X6417807Y-39428489D02*
X12196511Y-39428489D01*
X4260982Y-41711610D02*
X4260982Y-41585314D01*
X5287005Y-54050782D02*
X3654577Y-52418354D01*
X3672979Y-42299613D02*
X4260982Y-41711610D01*
X14769499Y-76754099D02*
X14769499Y-67348907D01*
X15193901Y-77178501D02*
X14769499Y-76754099D01*
X33064101Y-77178501D02*
X15193901Y-77178501D01*
X34173600Y-78288000D02*
X33064101Y-77178501D01*
X3654577Y-42568715D02*
X3672978Y-42550314D01*
X34173600Y-79788000D02*
X34173600Y-78288000D01*
X9006976Y-61586384D02*
X9006975Y-57770750D01*
X3672978Y-42550314D02*
X3672979Y-42299613D01*
X14769499Y-67348907D02*
X9006976Y-61586384D01*
%TO.N,/12(MISO)*%
X45940000Y-32440000D02*
X42054469Y-28554469D01*
X3205067Y-52604548D02*
X8557465Y-57956944D01*
X14319989Y-76940293D02*
X15007708Y-77628012D01*
X3205066Y-42382522D02*
X3205067Y-52604548D01*
X8557466Y-61772578D02*
X14319989Y-67535101D01*
X14319989Y-67535101D02*
X14319989Y-76940293D01*
X11747000Y-37338000D02*
X6605408Y-37338000D01*
X17676376Y-28035988D02*
X13455000Y-32257364D01*
X8557465Y-57956944D02*
X8557466Y-61772578D01*
X15007708Y-77628012D02*
X30128412Y-77628012D01*
X33123301Y-28554469D02*
X32604819Y-28035988D01*
X13455000Y-32257364D02*
X13455000Y-35630000D01*
X42054469Y-28554469D02*
X33123301Y-28554469D01*
X3223469Y-40719939D02*
X3223467Y-42364121D01*
X32604819Y-28035988D02*
X17676376Y-28035988D01*
X3223467Y-42364121D02*
X3205066Y-42382522D01*
X13455000Y-35630000D02*
X11747000Y-37338000D01*
X30128412Y-77628012D02*
X31938400Y-79438000D01*
X31938400Y-79438000D02*
X31938400Y-79788000D01*
X6605408Y-37338000D02*
X3223469Y-40719939D01*
%TO.N,/11(PWM-MOSI)*%
X42373201Y-15494000D02*
X41793022Y-14913821D01*
X42380501Y-8344501D02*
X41402000Y-7366000D01*
X42926000Y-4126000D02*
X43100000Y-4300000D01*
X32732526Y-27527990D02*
X33309492Y-28104956D01*
X17548665Y-27527990D02*
X32732526Y-27527990D01*
X10915000Y-34161653D02*
X17548665Y-27527990D01*
X42380501Y-9952099D02*
X42380501Y-8344501D01*
X41793022Y-14913821D02*
X41793022Y-10539578D01*
X33309492Y-28104956D02*
X36157045Y-28104955D01*
X44509215Y-19752785D02*
X44509215Y-15494000D01*
X44509215Y-15494000D02*
X42373201Y-15494000D01*
X10915000Y-35630000D02*
X10915000Y-34161653D01*
X41793022Y-10539578D02*
X42380501Y-9952099D01*
X36157045Y-28104955D02*
X44509215Y-19752785D01*
X42926000Y-3048000D02*
X42926000Y-4126000D01*
%TO.N,/10(PWM-SS)*%
X9174999Y-34830001D02*
X9610950Y-34830001D01*
X44704000Y-4196000D02*
X44600000Y-4300000D01*
X44704000Y-3048000D02*
X44704000Y-4196000D01*
X9610950Y-34830001D02*
X17362473Y-27078479D01*
X8375000Y-35630000D02*
X9174999Y-34830001D01*
X17362473Y-27078479D02*
X19976488Y-27078480D01*
X41343511Y-9672989D02*
X41618500Y-9398000D01*
X41968490Y-21657806D02*
X41968490Y-15724997D01*
X32333497Y-27078479D02*
X32370996Y-27040980D01*
X19976488Y-27078480D02*
X32333497Y-27078479D01*
X41968490Y-15724997D02*
X41343511Y-15100018D01*
X32881219Y-27040979D02*
X33495685Y-27655445D01*
X33495685Y-27655445D02*
X35970851Y-27655445D01*
X32370996Y-27040980D02*
X32881219Y-27040979D01*
X35970851Y-27655445D02*
X41968490Y-21657806D01*
X41343511Y-15100018D02*
X41343511Y-9672989D01*
%TO.N,/9(PWM)*%
X45974000Y-2794000D02*
X45974000Y-4174000D01*
X39785489Y-21496081D02*
X39785489Y-16754922D01*
X40640000Y-22350592D02*
X39785489Y-21496081D01*
X5835000Y-35630000D02*
X10427424Y-31037576D01*
X45974000Y-4174000D02*
X46100000Y-4300000D01*
X35784657Y-27205935D02*
X40640000Y-22350592D01*
X33067413Y-26591469D02*
X33681878Y-27205934D01*
X12767670Y-31037576D02*
X17213777Y-26591469D01*
X33681878Y-27205934D02*
X35784657Y-27205935D01*
X40894000Y-15646411D02*
X40894000Y-8636000D01*
X40894000Y-8636000D02*
X41148000Y-8382000D01*
X17213777Y-26591469D02*
X33067413Y-26591469D01*
X39785489Y-16754922D02*
X40894000Y-15646411D01*
X10427424Y-31037576D02*
X12767670Y-31037576D01*
%TO.N,/8*%
X5835000Y-43250000D02*
X5835000Y-50355249D01*
X32004000Y-52832000D02*
X37084000Y-47752000D01*
X8311751Y-52832000D02*
X32004000Y-52832000D01*
X37921947Y-75744461D02*
X38707523Y-74958885D01*
X40879200Y-79788000D02*
X40879200Y-79253921D01*
X37921947Y-76568776D02*
X37921947Y-75744461D01*
X38684457Y-77331286D02*
X37921947Y-76568776D01*
X38707523Y-74958885D02*
X38707521Y-46436618D01*
X40879200Y-79253921D02*
X38956565Y-77331286D01*
X5835000Y-50355249D02*
X8311751Y-52832000D01*
X38707521Y-46436618D02*
X38387023Y-46116120D01*
X38956565Y-77331286D02*
X38684457Y-77331286D01*
%TO.N,/7*%
X9905997Y-57398364D02*
X9905997Y-61213997D01*
X4571999Y-52064366D02*
X9905997Y-57398364D01*
X8375000Y-43250000D02*
X7250490Y-42125490D01*
X7250490Y-42125490D02*
X5369211Y-42125489D01*
X4571999Y-42922701D02*
X4571999Y-52064366D01*
X47599600Y-78208712D02*
X47097431Y-77706543D01*
X9905997Y-61213997D02*
X15748000Y-67056000D01*
X15748000Y-73406000D02*
X16002000Y-73660000D01*
X40807993Y-77706543D02*
X39214080Y-76112630D01*
X47097431Y-77706543D02*
X40807993Y-77706543D01*
X47599600Y-79788000D02*
X47599600Y-78208712D01*
X5369211Y-42125489D02*
X4571999Y-42922701D01*
X15748000Y-67056000D02*
X15748000Y-73406000D01*
%TO.N,/6(PWM)*%
X49100000Y-4100000D02*
X49100000Y-3380000D01*
X45585950Y-12326050D02*
X47498000Y-10414000D01*
X49100000Y-3380000D02*
X49022000Y-3302000D01*
X45585950Y-12968120D02*
X45585950Y-12326050D01*
%TO.N,/5(PWM)*%
X45920808Y-18840594D02*
X47014511Y-17746891D01*
X44403271Y-14116648D02*
X44403271Y-12644671D01*
X44403271Y-12644671D02*
X44325131Y-12566531D01*
X44325131Y-9158241D02*
X44453532Y-9029840D01*
X47498000Y-2794000D02*
X47498000Y-4098000D01*
X44325131Y-12566531D02*
X44325131Y-9158241D01*
X47014511Y-17746891D02*
X47014511Y-16727888D01*
X47014511Y-16727888D02*
X44403271Y-14116648D01*
X47498000Y-4098000D02*
X47600000Y-4200000D01*
%TO.N,/4*%
X39086855Y-76825872D02*
X38814747Y-76825872D01*
X39157031Y-45861528D02*
X38687122Y-45391619D01*
X38687122Y-45391619D02*
X37709391Y-45391619D01*
X39157033Y-74772691D02*
X39157031Y-45861528D01*
X43114400Y-79788000D02*
X43114400Y-78288000D01*
X38814747Y-76825872D02*
X38371457Y-76382582D01*
X26155000Y-43250000D02*
X27612351Y-41792649D01*
X27612351Y-41792649D02*
X35423351Y-41792649D01*
X42982454Y-78156054D02*
X40417037Y-78156054D01*
X39157034Y-75145078D02*
X39157033Y-74772691D01*
X38371457Y-75930655D02*
X39157034Y-75145078D01*
X37709391Y-45391619D02*
X37162178Y-44844406D01*
X40417037Y-78156054D02*
X39086855Y-76825872D01*
X43114400Y-78288000D02*
X42982454Y-78156054D01*
X38371457Y-76382582D02*
X38371457Y-75930655D01*
%TO.N,/3(PWM)*%
X28869783Y-43250000D02*
X28695000Y-43250000D01*
X12700000Y-49640000D02*
X14992978Y-51932978D01*
X30965520Y-45345737D02*
X28869783Y-43250000D01*
X30965520Y-51202776D02*
X30965520Y-46995737D01*
X30965520Y-46995737D02*
X30905740Y-46935956D01*
X14992978Y-51932978D02*
X30235318Y-51932978D01*
X30235318Y-51932978D02*
X30965520Y-51202776D01*
X10922000Y-47862000D02*
X12700000Y-49640000D01*
X10922000Y-46228000D02*
X10922000Y-47862000D01*
X30965519Y-46876177D02*
X30965520Y-45345737D01*
X30905740Y-46935956D02*
X30965519Y-46876177D01*
%TO.N,/2*%
X8382000Y-48958000D02*
X7700000Y-49640000D01*
X31415030Y-48395531D02*
X31496000Y-48476501D01*
X30421511Y-52382489D02*
X10442489Y-52382489D01*
X31235000Y-43250000D02*
X31415030Y-43430030D01*
X8382000Y-46228000D02*
X8382000Y-48958000D01*
X31415030Y-43430030D02*
X31415030Y-48395531D01*
X31496000Y-51308000D02*
X30421511Y-52382489D01*
X10442489Y-52382489D02*
X7700000Y-49640000D01*
X31496000Y-48476501D02*
X31496000Y-51308000D01*
%TO.N,/1(Tx)*%
X36408800Y-75986200D02*
X37808501Y-74586499D01*
X35780000Y-32440000D02*
X32804000Y-29464000D01*
X37808501Y-74586499D02*
X37808501Y-47283501D01*
X36408800Y-79788000D02*
X36408800Y-75986200D01*
X32804000Y-29464000D02*
X21336000Y-29464000D01*
X37808501Y-47283501D02*
X33775000Y-43250000D01*
%TO.N,/0(Rx)*%
X37472437Y-75558267D02*
X38258012Y-74772692D01*
X38644000Y-79788000D02*
X38644000Y-78288000D01*
X38644000Y-78288000D02*
X37472437Y-77116437D01*
X38258011Y-47011707D02*
X36315000Y-45068696D01*
X38258012Y-74772692D02*
X38258011Y-47011707D01*
X36315000Y-45068696D02*
X36315000Y-43250000D01*
X37472437Y-77116437D02*
X37472437Y-75558267D01*
%TO.N,Net-(Q1-Pad1)*%
X52250000Y-7612500D02*
X52700000Y-8062500D01*
X52925000Y-8062500D02*
X54800000Y-9937500D01*
X52250000Y-5825000D02*
X52250000Y-7612500D01*
X52700000Y-8062500D02*
X52925000Y-8062500D01*
%TO.N,Net-(Q2-Pad2)*%
X55250000Y-5825000D02*
X56750000Y-5825000D01*
X56750000Y-9887500D02*
X56700000Y-9937500D01*
X55233000Y-5842000D02*
X55250000Y-5825000D01*
X53848000Y-5842000D02*
X55233000Y-5842000D01*
X53831000Y-5825000D02*
X53848000Y-5842000D01*
X56750000Y-5825000D02*
X56750000Y-9887500D01*
X53750000Y-5825000D02*
X53831000Y-5825000D01*
%TO.N,Net-(R16-Pad1)*%
X62026800Y-79596000D02*
X62026800Y-81471000D01*
X62026800Y-79596000D02*
X60526800Y-79596000D01*
%TO.N,Net-(R17-Pad1)*%
X62593099Y-77012299D02*
X62012299Y-77012299D01*
X63500000Y-80518000D02*
X63526800Y-80544800D01*
X62026800Y-77946000D02*
X63526800Y-77946000D01*
X63526800Y-80544800D02*
X63526800Y-80595500D01*
X63526800Y-81471000D02*
X63526800Y-80544800D01*
X63526800Y-77946000D02*
X62593099Y-77012299D01*
%TO.N,Net-(R18-Pad1)*%
X65026800Y-79596000D02*
X63526800Y-79596000D01*
X65026800Y-79596000D02*
X65026800Y-81471000D01*
%TO.N,Net-(R_reset_pullup1-Pad2)*%
X40286479Y-75524725D02*
X40388092Y-75626338D01*
X40388092Y-75958100D02*
X41237514Y-76807522D01*
X40286479Y-44681479D02*
X40286479Y-75524725D01*
X34330295Y-24932295D02*
X35560000Y-26162000D01*
X41237514Y-76807522D02*
X51267322Y-76807522D01*
X40388092Y-75626338D02*
X40388092Y-75958100D01*
X51267322Y-76807522D02*
X52425600Y-77965800D01*
X31770000Y-6750000D02*
X34330295Y-9310295D01*
X38855000Y-43250000D02*
X40286479Y-44681479D01*
X34330295Y-9310295D02*
X34330295Y-24932295D01*
%TO.N,Net-(R26-Pad2)*%
X6759423Y-58701719D02*
X1407022Y-53349318D01*
X28231499Y-10837845D02*
X28890712Y-10178632D01*
X12022896Y-29239534D02*
X28231499Y-13030931D01*
X56896000Y-3302000D02*
X56896000Y-4029000D01*
X12700000Y-88620000D02*
X12446000Y-88366000D01*
X56896000Y-4029000D02*
X56750000Y-4175000D01*
X6759422Y-62517350D02*
X6759423Y-58701719D01*
X1407022Y-53349318D02*
X1407023Y-36440385D01*
X8607874Y-29239534D02*
X12022896Y-29239534D01*
X12446000Y-68203928D02*
X6759422Y-62517350D01*
X12446000Y-88366000D02*
X12446000Y-68203928D01*
X28231499Y-13030931D02*
X28231499Y-10837845D01*
X1407023Y-36440385D02*
X8607874Y-29239534D01*
%TO.N,Net-(D2-Pad2)*%
X45720000Y-84158400D02*
X45349600Y-83788000D01*
X45720000Y-88620000D02*
X45720000Y-84158400D01*
%TO.N,Net-(D3-Pad2)*%
X43114400Y-83788000D02*
X43114400Y-87818400D01*
X43114400Y-87818400D02*
X43180000Y-87884000D01*
X43180000Y-87884000D02*
X43180000Y-88620000D01*
%TO.N,Net-(D4-Pad2)*%
X40640000Y-88620000D02*
X40640000Y-84027200D01*
X40640000Y-84027200D02*
X40879200Y-83788000D01*
%TO.N,Net-(D5-Pad2)*%
X38644000Y-83788000D02*
X38644000Y-88076000D01*
X38644000Y-88076000D02*
X38100000Y-88620000D01*
%TO.N,Net-(D6-Pad2)*%
X35560000Y-84636800D02*
X36408800Y-83788000D01*
X35560000Y-88620000D02*
X35560000Y-84636800D01*
%TO.N,Net-(D7-Pad2)*%
X33020000Y-88620000D02*
X34173600Y-87466400D01*
X34173600Y-87466400D02*
X34173600Y-83788000D01*
%TO.N,Net-(D8-Pad2)*%
X31938400Y-83788000D02*
X31938400Y-87161600D01*
X31938400Y-87161600D02*
X30480000Y-88620000D01*
%TO.N,Net-(D9-Pad1)*%
X49536467Y-1725978D02*
X31449726Y-1725978D01*
X11650509Y-28340513D02*
X11650509Y-14257491D01*
X30659726Y-2515978D02*
X30659726Y-3399863D01*
X28215489Y-3695078D02*
X28215489Y-2804922D01*
X1879600Y-61658000D02*
X508000Y-60286400D01*
X29735078Y-4324511D02*
X28844922Y-4324511D01*
X508000Y-60286400D02*
X508001Y-36067999D01*
X28844922Y-4324511D02*
X28215489Y-3695078D01*
X50675000Y-4175000D02*
X50675000Y-2864511D01*
X8235487Y-28340513D02*
X11650509Y-28340513D01*
X31449726Y-1725978D02*
X30659726Y-2515978D01*
X508001Y-36067999D02*
X8235487Y-28340513D01*
X27470567Y-2060000D02*
X25400000Y-2060000D01*
X28215489Y-2804922D02*
X27470567Y-2060000D01*
X30659726Y-3399863D02*
X29735078Y-4324511D01*
X11650509Y-14257491D02*
X21583489Y-4324511D01*
X50675000Y-2864511D02*
X49536467Y-1725978D01*
X21583489Y-4324511D02*
X23135489Y-4324511D01*
X23135489Y-4324511D02*
X24210000Y-3250000D01*
X1879600Y-62008000D02*
X1879600Y-61658000D01*
X25400000Y-2060000D02*
X24210000Y-3250000D01*
%TO.N,Net-(D9-Pad2)*%
X6900000Y-72018000D02*
X6825480Y-71943480D01*
X6175178Y-71943480D02*
X1879600Y-67647902D01*
X67529611Y-32602389D02*
X67529611Y-49650574D01*
X1879600Y-67647902D02*
X1879600Y-66008000D01*
X67529611Y-49650574D02*
X42007088Y-75173097D01*
X6825480Y-71943480D02*
X6175178Y-71943480D01*
X71100000Y-29032000D02*
X67529611Y-32602389D01*
%TO.N,Net-(D10-Pad1)*%
X16531992Y-79788000D02*
X13870478Y-77126486D01*
X8107955Y-61958771D02*
X8107954Y-58143138D01*
X8107954Y-58143138D02*
X2755555Y-52790739D01*
X2755555Y-52790739D02*
X2755555Y-38513398D01*
X30480000Y-12689542D02*
X30480000Y-4600000D01*
X3559534Y-37709419D02*
X3559534Y-36194986D01*
X12581478Y-30588064D02*
X30480000Y-12689542D01*
X13870478Y-67721294D02*
X8107955Y-61958771D01*
X13870478Y-77126486D02*
X13870478Y-67721294D01*
X30480000Y-4600000D02*
X31830000Y-3250000D01*
X29652400Y-79788000D02*
X16531992Y-79788000D01*
X2755555Y-38513398D02*
X3559534Y-37709419D01*
X9166454Y-30588066D02*
X12581478Y-30588064D01*
X3559534Y-36194986D02*
X9166454Y-30588066D01*
%TO.N,Net-(D10-Pad2)*%
X27718000Y-83788000D02*
X27432000Y-84074000D01*
X29652400Y-83788000D02*
X27718000Y-83788000D01*
X11625489Y-68019121D02*
X11625489Y-89065078D01*
X20535489Y-20091237D02*
X11836702Y-28790024D01*
X11836702Y-28790024D02*
X8421680Y-28790024D01*
X957512Y-36254192D02*
X957511Y-53535511D01*
X12254922Y-89694511D02*
X25845078Y-89694511D01*
X26474511Y-86965889D02*
X29652400Y-83788000D01*
X957511Y-53535511D02*
X6309912Y-58887912D01*
X6309912Y-62703544D02*
X11625489Y-68019121D01*
X11625489Y-89065078D02*
X12254922Y-89694511D01*
X26474511Y-89065078D02*
X26474511Y-86965889D01*
X26750000Y-3250000D02*
X24920000Y-5080000D01*
X20535489Y-6304922D02*
X20535489Y-20091237D01*
X25845078Y-89694511D02*
X26474511Y-89065078D01*
X21164922Y-5675489D02*
X20535489Y-6304922D01*
X24920000Y-5080000D02*
X21590000Y-5080000D01*
X8421680Y-28790024D02*
X957512Y-36254192D01*
X6309912Y-58887912D02*
X6309912Y-62703544D01*
X21590000Y-5080000D02*
X21164922Y-5505078D01*
X21164922Y-5505078D02*
X21164922Y-5675489D01*
%TO.N,Net-(R1-Pad1)*%
X12971456Y-78731456D02*
X12971456Y-68093680D01*
X1856533Y-53163125D02*
X1856533Y-36626579D01*
X7208933Y-58515525D02*
X1856533Y-53163125D01*
X49100000Y-5750000D02*
X49100000Y-7796000D01*
X49100000Y-7796000D02*
X49022000Y-7874000D01*
X12971456Y-68093680D02*
X7208933Y-62331157D01*
X28956000Y-12942134D02*
X28956000Y-11430000D01*
X7208933Y-62331157D02*
X7208933Y-58515525D01*
X8794067Y-29689045D02*
X12209090Y-29689044D01*
X22860000Y-88620000D02*
X12971456Y-78731456D01*
X1856533Y-36626579D02*
X8794067Y-29689045D01*
X12209090Y-29689044D02*
X28956000Y-12942134D01*
%TO.N,Net-(R2-Pad1)*%
X36847987Y-9549528D02*
X36854511Y-9556052D01*
X36854511Y-9556052D02*
X36854511Y-22742335D01*
X46990000Y-6460000D02*
X47600000Y-5850000D01*
X36854511Y-22742335D02*
X37096943Y-22984767D01*
X46990000Y-6858000D02*
X46990000Y-6460000D01*
%TO.N,Net-(R3-Pad1)*%
X46100000Y-5950000D02*
X43729032Y-8320968D01*
X43729032Y-13081790D02*
X43678770Y-13132052D01*
X43729032Y-8320968D02*
X43729032Y-13081790D01*
%TO.N,Net-(R4-Pad1)*%
X44600000Y-5950000D02*
X43279522Y-7270478D01*
X43279522Y-10324486D02*
X42713033Y-10890975D01*
X42713033Y-13676623D02*
X42967033Y-13930623D01*
X43279522Y-7270478D02*
X43279522Y-10324486D01*
X42713033Y-10890975D02*
X42713033Y-13676623D01*
%TO.N,Net-(R5-Pad1)*%
X42830012Y-10138292D02*
X42830012Y-6219988D01*
X45940000Y-16289081D02*
X44695408Y-15044489D01*
X42830012Y-6219988D02*
X43100000Y-5950000D01*
X42242533Y-10725771D02*
X42830012Y-10138292D01*
X42559394Y-15044489D02*
X42242533Y-14727628D01*
X45940000Y-17200000D02*
X45940000Y-16289081D01*
X42242533Y-14727628D02*
X42242533Y-10725771D01*
X44695408Y-15044489D02*
X42559394Y-15044489D01*
%TO.N,Net-(R6-Pad2)*%
X50800000Y-88620000D02*
X50800000Y-86847800D01*
X50800000Y-86847800D02*
X54526800Y-83121000D01*
%TO.N,Net-(R10-Pad2)*%
X56134000Y-80518000D02*
X56134000Y-80595500D01*
X56026800Y-81471000D02*
X56026800Y-80625200D01*
X55880000Y-77799200D02*
X56026800Y-77946000D01*
X54526800Y-77946000D02*
X56026800Y-77946000D01*
X56026800Y-80625200D02*
X56134000Y-80518000D01*
X55880000Y-76962000D02*
X55880000Y-77799200D01*
%TO.N,Net-(R7-Pad2)*%
X53340000Y-85807800D02*
X53340000Y-88620000D01*
X56026800Y-83121000D02*
X53340000Y-85807800D01*
%TO.N,Net-(R11-Pad2)*%
X57526800Y-79596000D02*
X57526800Y-81471000D01*
X57526800Y-79596000D02*
X56026800Y-79596000D01*
%TO.N,Net-(R8-Pad2)*%
X55880000Y-84767800D02*
X57526800Y-83121000D01*
X55880000Y-88620000D02*
X55880000Y-84767800D01*
%TO.N,Net-(R12-Pad2)*%
X59026800Y-81471000D02*
X59026800Y-79596000D01*
X59026800Y-79596000D02*
X59026800Y-79446000D01*
X59026800Y-79446000D02*
X57526800Y-77946000D01*
%TO.N,Net-(R9-Pad2)*%
X59026800Y-83121000D02*
X58420000Y-83727800D01*
X58420000Y-83727800D02*
X58420000Y-88620000D01*
%TO.N,Net-(R15-Pad2)*%
X60960000Y-83554200D02*
X60526800Y-83121000D01*
X60960000Y-88620000D02*
X60960000Y-83554200D01*
%TO.N,Net-(R16-Pad2)*%
X62026800Y-87146800D02*
X63500000Y-88620000D01*
X62026800Y-83121000D02*
X62026800Y-87146800D01*
%TO.N,Net-(R17-Pad2)*%
X63526800Y-86106800D02*
X63526800Y-83121000D01*
X66040000Y-88620000D02*
X63526800Y-86106800D01*
%TO.N,Net-(R18-Pad2)*%
X65026800Y-83121000D02*
X68580000Y-86674200D01*
X68580000Y-86674200D02*
X68580000Y-88620000D01*
%TO.N,Net-(U2-Pad10)*%
X51312700Y-33069400D02*
X51312700Y-30542100D01*
X51312700Y-30542100D02*
X51300000Y-30529400D01*
%TO.N,Net-(U2-Pad11)*%
X51312700Y-27989400D02*
X51312700Y-25462100D01*
X51312700Y-25462100D02*
X51325400Y-25449400D01*
%TO.N,Net-(U2-Pad13)*%
X51300000Y-20369400D02*
X51300000Y-17842100D01*
X51300000Y-17842100D02*
X51312700Y-17829400D01*
X51312700Y-22909400D02*
X51312700Y-20382100D01*
X51312700Y-20382100D02*
X51300000Y-20369400D01*
%TO.N,Net-(U2-Pad17)*%
X53840000Y-33056700D02*
X53852700Y-33069400D01*
X53840000Y-30529400D02*
X53840000Y-33056700D01*
%TO.N,Net-(U2-Pad19)*%
X53865400Y-25449400D02*
X53865400Y-27976700D01*
X53865400Y-27976700D02*
X53852700Y-27989400D01*
%TO.N,Net-(U2-Pad21)*%
X53852700Y-22909400D02*
X53852700Y-20382100D01*
X53840000Y-20369400D02*
X53840000Y-17842100D01*
X53840000Y-17842100D02*
X53852700Y-17829400D01*
X53852700Y-20382100D02*
X53840000Y-20369400D01*
X53840000Y-17816700D02*
X53852700Y-17829400D01*
%TO.N,Net-(U2-Pad25)*%
X56380000Y-30529400D02*
X56380000Y-33056700D01*
X56380000Y-33056700D02*
X56392700Y-33069400D01*
%TO.N,Net-(U2-Pad27)*%
X56405400Y-25449400D02*
X56405400Y-27976700D01*
X56405400Y-27976700D02*
X56392700Y-27989400D01*
%TO.N,Net-(U2-Pad29)*%
X56392700Y-17829400D02*
X56392700Y-20356700D01*
X56380000Y-20369400D02*
X56380000Y-22896700D01*
X56380000Y-22896700D02*
X56392700Y-22909400D01*
X56392700Y-20356700D02*
X56380000Y-20369400D01*
X56380000Y-17816700D02*
X56392700Y-17829400D01*
%TO.N,Net-(U2-Pad33)*%
X58920000Y-33056700D02*
X58932700Y-33069400D01*
X58920000Y-30529400D02*
X58920000Y-33056700D01*
%TO.N,Net-(U2-Pad35)*%
X58945400Y-25449400D02*
X58945400Y-27976700D01*
X58945400Y-27976700D02*
X58932700Y-27989400D01*
%TO.N,Net-(U2-Pad37)*%
X58920000Y-20369400D02*
X58920000Y-22896700D01*
X58920000Y-17816700D02*
X58932700Y-17829400D01*
X58920000Y-22896700D02*
X58932700Y-22909400D01*
X58920000Y-15289400D02*
X58920000Y-17816700D01*
X58932700Y-17829400D02*
X58932700Y-20356700D01*
X58932700Y-20356700D02*
X58920000Y-20369400D01*
%TO.N,Net-(U2-Pad41)*%
X61460000Y-33056700D02*
X61472700Y-33069400D01*
X61460000Y-30529400D02*
X61460000Y-33056700D01*
%TO.N,Net-(U2-Pad43)*%
X61485400Y-27976700D02*
X61472700Y-27989400D01*
X61485400Y-25449400D02*
X61485400Y-27976700D01*
%TO.N,Net-(U2-Pad45)*%
X61472700Y-17829400D02*
X61472700Y-20356700D01*
X61460000Y-20369400D02*
X61460000Y-22896700D01*
X61460000Y-17816700D02*
X61472700Y-17829400D01*
X61460000Y-15289400D02*
X61460000Y-17816700D01*
X61472700Y-20356700D02*
X61460000Y-20369400D01*
X61460000Y-22896700D02*
X61472700Y-22909400D01*
%TO.N,Net-(U2-Pad49)*%
X64000000Y-33056700D02*
X64012700Y-33069400D01*
X64000000Y-30529400D02*
X64000000Y-33056700D01*
%TO.N,Net-(U2-Pad51)*%
X64025400Y-27976700D02*
X64012700Y-27989400D01*
X64025400Y-25449400D02*
X64025400Y-27976700D01*
%TO.N,Net-(U2-Pad53)*%
X64012700Y-17829400D02*
X64012700Y-20356700D01*
X64000000Y-17816700D02*
X64012700Y-17829400D01*
X64000000Y-22896700D02*
X64012700Y-22909400D01*
X64000000Y-20369400D02*
X64000000Y-22896700D01*
X64012700Y-20356700D02*
X64000000Y-20369400D01*
X64000000Y-15289400D02*
X64000000Y-17816700D01*
%TO.N,unconnected-(U2-Pad16)*%
X51312700Y-15302100D02*
X51300000Y-15289400D01*
%TD*%
M02*
