M48
; DRILL file {KiCad (6.0.0)} date Mon Nov 14 01:44:17 2022
; FORMAT={-:-/ absolute / inch / decimal}
; #@! TF.CreationDate,2022-11-14T01:44:17-08:00
; #@! TF.GenerationSoftware,Kicad,Pcbnew,(6.0.0)
; #@! TF.FileFunction,Plated,1,2,PTH
FMAT,2
INCH
; #@! TA.AperFunction,Plated,PTH,ViaDrill
T1C0.0157
; #@! TA.AperFunction,Plated,PTH,ComponentDrill
T2C0.0197
; #@! TA.AperFunction,Plated,PTH,ComponentDrill
T3C0.0276
; #@! TA.AperFunction,Plated,PTH,ComponentDrill
T4C0.0315
; #@! TA.AperFunction,Plated,PTH,ComponentDrill
T5C0.0394
; #@! TA.AperFunction,Plated,PTH,ComponentDrill
T6C0.0472
; #@! TA.AperFunction,Plated,PTH,ComponentDrill
T7C0.0520
%
G90
G05
T1
X0.1116Y-1.4728
X0.14Y-2.68
X0.3086Y-2.5691
X0.549Y-1.5449
X0.61Y-3.01
X0.63Y-2.9
X0.7677Y-1.1377
X0.84Y-1.16
X1.0297Y-1.4028
X1.08Y-3.31
X1.12Y-1.85
X1.1374Y-0.4007
X1.14Y-0.45
X1.1406Y-0.3615
X1.2653Y-1.87
X1.2653Y-1.87
X1.3379Y-1.0426
X1.3946Y-1.6454
X1.4Y-1.03
X1.4507Y-0.376
X1.46Y-1.88
X1.4605Y-0.9049
X1.4631Y-1.7655
X1.5113Y-1.8156
X1.5439Y-2.9966
X1.62Y-0.33
X1.63Y-0.12
X1.63Y-0.29
X1.6385Y-0.37
X1.6538Y-2.9596
X1.69Y-0.12
X1.6916Y-0.5484
X1.7196Y-0.517
X1.7196Y-0.517
X1.7501Y-0.3555
X1.76Y-0.12
X1.7947Y-0.5106
X1.8079Y-0.7418
X1.8087Y-0.3995
X1.81Y-0.11
X1.81Y-0.35
X1.85Y-0.27
X1.87Y-0.11
X1.87Y-0.41
X1.93Y-0.13
X1.93Y-0.31
X2.066Y-3.176
X2.15Y-0.28
X2.17Y-0.12
X2.2Y-3.03
X2.21Y-3.1731
X2.24Y-0.13
X2.2638Y-3.0285
X2.3829Y-3.1771
X2.4409Y-2.9921
X2.4414Y-3.032
X2.5011Y-3.1731
X2.6181Y-3.1102
T2
X0.97Y-2.0
X1.17Y-2.0
T4
X0.33Y-1.82
X0.4Y-2.77
X0.4Y-2.87
X0.4Y-2.97
X0.4Y-3.489
X0.43Y-1.82
X0.5Y-3.489
X0.53Y-1.82
X0.6Y-3.489
X0.7Y-3.489
X0.8Y-3.489
X0.8508Y-0.2657
X0.8531Y-0.128
X0.9Y-3.489
X0.9508Y-0.2657
X0.9531Y-0.128
X1.0Y-3.489
X1.0508Y-0.2657
X1.0531Y-0.128
X1.1Y-3.489
X1.1508Y-0.2657
X1.1531Y-0.128
X1.2Y-3.489
X1.2508Y-0.2657
X1.2531Y-0.128
X1.3Y-3.489
X1.3508Y-0.2657
X1.3531Y-0.128
X1.4Y-3.489
X1.4508Y-0.2657
X1.4531Y-0.128
X1.5Y-3.489
X1.5508Y-0.2657
X1.5531Y-0.128
X1.6Y-3.489
X1.7Y-3.489
X1.8Y-3.489
X1.9Y-3.489
X1.906Y-0.582
X1.906Y-0.782
X1.906Y-1.182
X1.9065Y-0.682
X1.9065Y-0.882
X1.9065Y-1.082
X1.9065Y-1.282
X1.907Y-0.982
X2.0Y-3.489
X2.006Y-0.582
X2.006Y-0.782
X2.006Y-1.182
X2.0065Y-0.682
X2.0065Y-0.882
X2.0065Y-1.082
X2.0065Y-1.282
X2.007Y-0.982
X2.1Y-3.489
X2.106Y-0.582
X2.106Y-0.782
X2.106Y-1.182
X2.1065Y-0.682
X2.1065Y-0.882
X2.1065Y-1.082
X2.1065Y-1.282
X2.107Y-0.982
X2.2Y-3.489
X2.206Y-0.582
X2.206Y-0.782
X2.206Y-1.182
X2.2065Y-0.682
X2.2065Y-0.882
X2.2065Y-1.082
X2.2065Y-1.282
X2.207Y-0.982
X2.3Y-3.489
X2.306Y-0.582
X2.306Y-0.782
X2.306Y-1.182
X2.3065Y-0.682
X2.3065Y-0.882
X2.3065Y-1.082
X2.3065Y-1.282
X2.307Y-0.982
X2.4Y-3.489
X2.406Y-0.582
X2.406Y-0.782
X2.406Y-1.182
X2.4065Y-0.682
X2.4065Y-0.882
X2.4065Y-1.082
X2.4065Y-1.282
X2.407Y-0.982
X2.5Y-3.489
X2.506Y-0.582
X2.506Y-0.782
X2.506Y-1.182
X2.5065Y-0.682
X2.5065Y-0.882
X2.5065Y-1.082
X2.5065Y-1.282
X2.507Y-0.982
X2.6Y-3.489
X2.606Y-0.582
X2.606Y-0.782
X2.606Y-1.182
X2.6065Y-0.682
X2.6065Y-0.882
X2.6065Y-1.082
X2.6065Y-1.282
X2.607Y-0.982
X2.7Y-3.489
T5
X0.2297Y-1.4028
X0.2297Y-1.7028
X0.3297Y-1.4028
X0.3297Y-1.7028
X0.4297Y-1.4028
X0.4297Y-1.7028
X0.5297Y-1.4028
X0.5297Y-1.7028
X0.6297Y-1.4028
X0.6297Y-1.7028
X0.7297Y-1.4028
X0.7297Y-1.7028
X0.8297Y-1.4028
X0.8297Y-1.7028
X0.9297Y-1.4028
X0.9297Y-1.7028
X1.0297Y-1.4028
X1.0297Y-1.7028
X1.1297Y-1.4028
X1.1297Y-1.7028
X1.2297Y-1.4028
X1.2297Y-1.7028
X1.3087Y-0.6772
X1.3087Y-1.2772
X1.3297Y-1.4028
X1.3297Y-1.7028
X1.4087Y-0.6772
X1.4087Y-1.2772
X1.4297Y-1.4028
X1.4297Y-1.7028
X1.5087Y-0.6772
X1.5087Y-1.2772
X1.5297Y-1.4028
X1.5297Y-1.7028
X1.6087Y-0.6772
X1.6087Y-1.2772
X1.7087Y-0.6772
X1.7087Y-1.2772
X1.8087Y-0.6772
X1.8087Y-1.2772
T6
X0.3031Y-1.9543
X0.5Y-1.9543
X0.6969Y-1.9543
T7
X0.1059Y-1.063
X0.4059Y-1.063
T3
G00X0.0492Y-2.7546
M15
G01X0.0965Y-2.7546
M16
G05
G00X0.0492Y-3.042
M15
G01X0.0965Y-3.042
M16
G05
G00X0.2244Y-2.8669
M15
G01X0.2244Y-2.8669
M16
G05
G00X0.2244Y-2.9298
M15
G01X0.2244Y-2.9298
M16
G05
G00X0.2268Y-2.7546
M15
G01X0.274Y-2.7546
M16
G05
G00X0.2268Y-3.042
M15
G01X0.274Y-3.042
M16
G05
G00X0.2717Y-2.8354
M15
G01X0.2717Y-2.8354
M16
G05
G00X0.2717Y-2.8983
M15
G01X0.2717Y-2.8983
M16
G05
G00X0.2717Y-2.9613
M15
G01X0.2717Y-2.9613
M16
G05
G00X2.7992Y-1.017
M15
G01X2.7992Y-1.017
M16
G05
G00X2.7992Y-1.08
M15
G01X2.7992Y-1.08
M16
G05
G00X2.7992Y-1.143
M15
G01X2.7992Y-1.143
M16
G05
G00X2.8441Y-0.9363
M15
G01X2.7968Y-0.9363
M16
G05
G00X2.8441Y-1.2237
M15
G01X2.7968Y-1.2237
M16
G05
G00X2.8465Y-1.0485
M15
G01X2.8465Y-1.0485
M16
G05
G00X2.8465Y-1.1115
M15
G01X2.8465Y-1.1115
M16
G05
G00X3.0217Y-0.9363
M15
G01X2.9744Y-0.9363
M16
G05
G00X3.0217Y-1.2237
M15
G01X2.9744Y-1.2237
M16
G05
T0
M30
