M48
; DRILL file {KiCad (5.1.5)-3} date 2020-12-11 4:36:04 PM
; FORMAT={-:-/ absolute / inch / decimal}
; #@! TF.CreationDate,2020-12-11T16:36:04-08:00
; #@! TF.GenerationSoftware,Kicad,Pcbnew,(5.1.5)-3
; #@! TF.FileFunction,Plated,1,2,PTH
FMAT,2
INCH
T1C0.0157
T2C0.0197
T3C0.0250
T4C0.0276
T5C0.0315
T6C0.0394
T7C0.0400
T8C0.0472
T9C0.0520
T10C0.1200
%
G90
G05
T1
X0.6398Y-2.1358
X0.67Y-2.67
X0.7185Y-1.7618
X0.786Y-0.4723
X0.8357Y-0.4724
X1.3878Y-1.8898
X1.3976Y-2.4606
X1.3976Y-2.4606
X1.4672Y-0.8205
X1.4961Y-2.2244
X1.5478Y-1.9784
X1.5551Y-2.2524
X1.5846Y-1.7897
X1.6142Y-1.5453
X1.624Y-1.8456
X1.6633Y-2.4714
X1.6633Y-2.4714
X1.7815Y-0.3937
X1.8306Y-0.5709
X1.8307Y-1.1319
X1.8799Y-2.2524
X1.8896Y-1.0651
X1.8898Y-0.6496
X1.8996Y-0.2461
X1.9327Y-2.1493
X1.939Y-1.2205
X1.939Y-2.3241
X1.9782Y-1.8355
X2.0666Y-1.8899
X2.0965Y-1.8799
X2.1176Y-2.472
X2.1178Y-1.9473
X2.1247Y-2.2946
X2.1457Y-1.8898
X2.1555Y-2.1949
X2.1555Y-1.8455
X2.2343Y-1.3189
X2.2539Y-0.7382
X2.3031Y-2.2684
X2.3418Y-1.5455
X2.4047Y-0.8169
X2.4088Y-2.2047
X2.4114Y-2.2835
X2.4286Y-1.6875
X2.4781Y-2.1065
X2.4956Y-1.9785
X2.5064Y-1.9424
X2.5555Y-1.948
X2.5689Y-1.8865
X2.5704Y-1.4566
X2.5983Y-1.4115
X2.6996Y-2.1955
X2.7158Y-1.8487
X2.7228Y-2.4714
X2.7689Y-1.9484
X2.8642Y-2.0126
X2.9846Y-1.6955
X3.0086Y-1.7115
T2
X2.9169Y-2.0067
X2.9169Y-2.2067
T3
X3.3957Y-0.352
X3.3957Y-0.652
T5
X1.8197Y-2.6862
X1.9197Y-2.6862
X2.0197Y-2.6862
X2.1197Y-2.6862
X2.2197Y-2.6862
X2.3197Y-2.6862
X2.4197Y-2.6862
X2.5197Y-2.6862
X0.5183Y-1.7145
X0.5183Y-1.8145
X1.7226Y-1.4885
X1.8226Y-1.4885
X1.9226Y-1.4885
X0.3283Y-1.9145
X0.4283Y-1.9145
X0.48Y-2.58
X0.58Y-2.58
X0.68Y-2.58
X2.7313Y-2.5535
X2.8313Y-2.5535
X2.9313Y-2.5535
X0.2283Y-1.7245
X0.2283Y-1.8245
X2.7313Y-2.7135
X2.8313Y-2.7135
X2.9313Y-2.7135
X0.3283Y-1.6245
X0.4283Y-1.6245
X2.4Y-0.1
X2.5Y-0.1
X2.6Y-0.1
X2.7Y-0.1
X2.8Y-0.1
X2.9Y-0.1
X3.0Y-0.1
X3.1Y-0.1
X0.48Y-2.4178
X0.58Y-2.4178
X0.68Y-2.4178
X3.1783Y-1.2402
X3.1783Y-1.4402
X3.1783Y-1.8402
X3.1788Y-1.3402
X3.1788Y-1.5402
X3.1788Y-1.7402
X3.1788Y-1.9402
X3.1793Y-1.6402
X3.2783Y-1.2402
X3.2783Y-1.4402
X3.2783Y-1.8402
X3.2788Y-1.3402
X3.2788Y-1.5402
X3.2788Y-1.7402
X3.2788Y-1.9402
X3.2793Y-1.6402
X3.3783Y-1.2402
X3.3783Y-1.4402
X3.3783Y-1.8402
X3.3788Y-1.3402
X3.3788Y-1.5402
X3.3788Y-1.7402
X3.3788Y-1.9402
X3.3793Y-1.6402
X3.4783Y-1.2402
X3.4783Y-1.4402
X3.4783Y-1.8402
X3.4788Y-1.3402
X3.4788Y-1.5402
X3.4788Y-1.7402
X3.4788Y-1.9402
X3.4793Y-1.6402
X3.5783Y-1.2402
X3.5783Y-1.4402
X3.5783Y-1.8402
X3.5788Y-1.3402
X3.5788Y-1.5402
X3.5788Y-1.7402
X3.5788Y-1.9402
X3.5793Y-1.6402
X3.6783Y-1.2402
X3.6783Y-1.4402
X3.6783Y-1.8402
X3.6788Y-1.3402
X3.6788Y-1.5402
X3.6788Y-1.7402
X3.6788Y-1.9402
X3.6793Y-1.6402
X3.7783Y-1.2402
X3.7783Y-1.4402
X3.7783Y-1.8402
X3.7788Y-1.3402
X3.7788Y-1.5402
X3.7788Y-1.7402
X3.7788Y-1.9402
X3.7793Y-1.6402
X3.8783Y-1.2402
X3.8783Y-1.4402
X3.8783Y-1.8402
X3.8788Y-1.3402
X3.8788Y-1.5402
X3.8788Y-1.7402
X3.8788Y-1.9402
X3.8793Y-1.6402
X1.6Y-0.1
X1.7Y-0.1
X1.8Y-0.1
X1.9Y-0.1
X2.0Y-0.1
X2.1Y-0.1
X2.2Y-0.1
X2.3Y-0.1
X2.0226Y-1.4885
X2.1226Y-1.4885
X2.2226Y-1.4885
X1.8197Y-2.5862
X1.9197Y-2.5862
X2.0197Y-2.5862
X2.1197Y-2.5862
X2.2197Y-2.5862
X2.3197Y-2.5862
X2.4197Y-2.5862
X2.5197Y-2.5862
X1.9181Y-2.9665
X2.0181Y-2.9665
X2.1181Y-2.9665
X2.2181Y-2.9665
X2.3181Y-2.9665
X2.4181Y-2.9665
X2.5181Y-2.9665
X2.6181Y-2.9665
X3.8148Y-0.9347
X3.8148Y-1.0347
X3.8148Y-1.1347
X1.9181Y-2.8665
X2.0181Y-2.8665
X2.1181Y-2.8665
X2.2181Y-2.8665
X2.3181Y-2.8665
X2.4181Y-2.8665
X2.5181Y-2.8665
X2.6181Y-2.8665
T6
X1.4336Y-1.7665
X1.4336Y-2.0665
X1.5336Y-1.7665
X1.5336Y-2.0665
X1.6336Y-1.7665
X1.6336Y-2.0665
X1.7336Y-1.7665
X1.7336Y-2.0665
X1.8336Y-1.7665
X1.8336Y-2.0665
X1.9336Y-1.7665
X1.9336Y-2.0665
X2.0336Y-1.7665
X2.0336Y-2.0665
X2.1336Y-1.7665
X2.1336Y-2.0665
X2.2336Y-1.7665
X2.2336Y-2.0665
X2.3336Y-1.7665
X2.3336Y-2.0665
X2.4336Y-1.7665
X2.4336Y-2.0665
X2.5336Y-1.7665
X2.5336Y-2.0665
X2.6336Y-1.7665
X2.6336Y-2.0665
X2.7336Y-1.7665
X2.7336Y-2.0665
X0.85Y-1.36
X0.85Y-1.46
X0.85Y-1.56
X0.85Y-1.66
X0.85Y-1.76
X0.85Y-1.86
X0.85Y-1.96
X0.85Y-2.06
X0.85Y-2.16
X0.85Y-2.26
X0.5645Y-0.1796
X0.5645Y-0.2796
X0.5645Y-0.3796
X1.7226Y-0.9885
X1.7226Y-1.5885
X1.8226Y-0.9885
X1.8226Y-1.5885
X1.9226Y-0.9885
X1.9226Y-1.5885
X2.0226Y-0.9885
X2.0226Y-1.5885
X2.1226Y-0.9885
X2.1226Y-1.5885
X2.2226Y-0.9885
X2.2226Y-1.5885
T7
X1.2481Y-0.4838
X1.3481Y-0.4838
X1.4481Y-0.4838
X1.5481Y-0.4838
X1.6481Y-0.4838
X1.7481Y-0.4838
X1.9481Y-0.4838
X2.0481Y-0.4838
X2.1481Y-0.4838
X2.2481Y-0.4838
X2.3481Y-0.4838
X2.4481Y-0.4838
X2.5481Y-0.4838
X2.6481Y-0.4838
X1.2481Y-2.3838
X1.3481Y-2.3838
X1.4481Y-2.3838
X1.5481Y-2.3838
X1.6481Y-2.3838
X1.7481Y-2.3838
X1.8481Y-2.3838
X1.9481Y-2.3838
X2.1081Y-2.3838
X2.2081Y-2.3838
X2.3081Y-2.3838
X2.4081Y-2.3838
X2.5081Y-2.3838
X2.6081Y-2.3838
X2.7081Y-2.3838
X2.8081Y-2.3838
X2.9081Y-2.3838
X3.0081Y-2.3838
T8
X2.874Y-3.073
X2.874Y-3.2699
X2.874Y-3.4667
T9
X0.6696Y-0.8055
X0.6696Y-1.1055
T10
X3.1381Y-0.4838
X1.1481Y-0.6838
X1.1481Y-1.7838
X3.1481Y-2.3838
T4
G00X3.5906Y-0.5413
M15
G01X3.5906Y-0.5413
M16
G05
G00X3.5906Y-0.6043
M15
G01X3.5906Y-0.6043
M16
G05
G00X3.5906Y-0.6673
M15
G01X3.5906Y-0.6673
M16
G05
G00X3.6354Y-0.4606
M15
G01X3.5882Y-0.4606
M16
G05
G00X3.6354Y-0.748
M15
G01X3.5882Y-0.748
M16
G05
G00X3.6378Y-0.5728
M15
G01X3.6378Y-0.5728
M16
G05
G00X3.6378Y-0.6358
M15
G01X3.6378Y-0.6358
M16
G05
G00X3.813Y-0.4606
M15
G01X3.7657Y-0.4606
M16
G05
G00X3.813Y-0.748
M15
G01X3.7657Y-0.748
M16
G05
T6
G00X0.3117Y-3.1971
M15
G01X0.327Y-3.1401
M16
G05
G00X0.327Y-3.4009
M15
G01X0.3117Y-3.3439
M16
G05
G00X0.4003Y-3.013
M15
G01X0.4421Y-2.9712
M16
G05
G00X0.4421Y-3.5698
M15
G01X0.4003Y-3.528
M16
G05
G00X0.4634Y-3.3
M15
G01X0.4634Y-3.241
M16
G05
G00X0.5692Y-2.8979
M15
G01X0.6262Y-2.8826
M16
G05
G00X0.6262Y-3.6584
M15
G01X0.5692Y-3.6432
M16
G05
G00X0.773Y-2.8826
M15
G01X0.83Y-2.8979
M16
G05
G00X0.83Y-3.6432
M15
G01X0.773Y-3.6584
M16
G05
G00X0.9571Y-2.9712
M15
G01X0.9989Y-3.013
M16
G05
G00X0.9989Y-3.528
M15
G01X0.9571Y-3.5698
M16
G05
G00X1.0722Y-3.1401
M15
G01X1.0875Y-3.1971
M16
G05
G00X1.0875Y-3.3439
M15
G01X1.0722Y-3.4009
M16
G05
T0
M30
