%TF.GenerationSoftware,KiCad,Pcbnew,(6.0.0)*%
%TF.CreationDate,2023-02-05T23:32:21-08:00*%
%TF.ProjectId,Luciebox_v5,4c756369-6562-46f7-985f-76352e6b6963,rev?*%
%TF.SameCoordinates,Original*%
%TF.FileFunction,Copper,L2,Bot*%
%TF.FilePolarity,Positive*%
%FSLAX46Y46*%
G04 Gerber Fmt 4.6, Leading zero omitted, Abs format (unit mm)*
G04 Created by KiCad (PCBNEW (6.0.0)) date 2023-02-05 23:32:21*
%MOMM*%
%LPD*%
G01*
G04 APERTURE LIST*
%TA.AperFunction,ComponentPad*%
%ADD10R,2.000000X1.200000*%
%TD*%
%TA.AperFunction,ComponentPad*%
%ADD11O,2.000000X1.200000*%
%TD*%
%TA.AperFunction,ComponentPad*%
%ADD12C,1.000000*%
%TD*%
%TA.AperFunction,ComponentPad*%
%ADD13O,1.650000X1.100000*%
%TD*%
%TA.AperFunction,ComponentPad*%
%ADD14O,2.700000X1.700000*%
%TD*%
%TA.AperFunction,ComponentPad*%
%ADD15R,1.300000X1.300000*%
%TD*%
%TA.AperFunction,ComponentPad*%
%ADD16C,1.300000*%
%TD*%
%TA.AperFunction,ComponentPad*%
%ADD17R,1.200000X2.000000*%
%TD*%
%TA.AperFunction,ComponentPad*%
%ADD18O,1.200000X2.000000*%
%TD*%
%TA.AperFunction,ComponentPad*%
%ADD19O,2.000000X2.000000*%
%TD*%
%TA.AperFunction,ComponentPad*%
%ADD20R,2.500000X3.500000*%
%TD*%
%TA.AperFunction,ComponentPad*%
%ADD21O,2.500000X3.500000*%
%TD*%
%TA.AperFunction,ComponentPad*%
%ADD22R,1.500000X1.500000*%
%TD*%
%TA.AperFunction,ComponentPad*%
%ADD23C,1.500000*%
%TD*%
%TA.AperFunction,ComponentPad*%
%ADD24R,1.600000X1.600000*%
%TD*%
%TA.AperFunction,ComponentPad*%
%ADD25C,1.600000*%
%TD*%
%TA.AperFunction,WasherPad*%
%ADD26R,2.000000X2.100000*%
%TD*%
%TA.AperFunction,ComponentPad*%
%ADD27C,3.000000*%
%TD*%
%TA.AperFunction,ComponentPad*%
%ADD28R,2.032000X2.032000*%
%TD*%
%TA.AperFunction,ComponentPad*%
%ADD29C,2.032000*%
%TD*%
%TA.AperFunction,ViaPad*%
%ADD30C,0.800000*%
%TD*%
%TA.AperFunction,Conductor*%
%ADD31C,0.250000*%
%TD*%
G04 APERTURE END LIST*
D10*
%TO.P,T5,1,1*%
%TO.N,Net-(J1-Pad2)*%
X10160000Y-75438000D03*
D11*
%TO.P,T5,2,2*%
%TO.N,Net-(J1-Pad4)*%
X10160000Y-72898000D03*
%TO.P,T5,3,3*%
%TO.N,Net-(J1-Pad3)*%
X10160000Y-70358000D03*
%TD*%
D12*
%TO.P,Y1,1,1*%
%TO.N,Net-(C2-Pad2)*%
X29718000Y-50800000D03*
%TO.P,Y1,2,2*%
%TO.N,Net-(C3-Pad2)*%
X24638000Y-50800000D03*
%TD*%
D13*
%TO.P,J1,1,GND*%
%TO.N,GND*%
X7150000Y-75218000D03*
%TO.P,J1,2,ID*%
%TO.N,Net-(J1-Pad2)*%
X5450000Y-74418000D03*
%TO.P,J1,3,D+*%
%TO.N,Net-(J1-Pad3)*%
X7150000Y-73618000D03*
%TO.P,J1,4,D-*%
%TO.N,Net-(J1-Pad4)*%
X5450000Y-72818000D03*
%TO.P,J1,5,VBUS*%
%TO.N,Net-(D9-Pad2)*%
X7150000Y-72018000D03*
D14*
%TO.P,J1,6,Shield*%
%TO.N,GND*%
X6360720Y-77268000D03*
X1850000Y-69968000D03*
X1850000Y-77268000D03*
X6360720Y-69968000D03*
%TD*%
D13*
%TO.P,J2,1,GND*%
%TO.N,GND*%
X70850000Y-25832000D03*
%TO.P,J2,2,ID*%
%TO.N,unconnected-(J2-Pad2)*%
X72550000Y-26632000D03*
%TO.P,J2,3,D+*%
%TO.N,unconnected-(J2-Pad3)*%
X70850000Y-27432000D03*
%TO.P,J2,4,D-*%
%TO.N,unconnected-(J2-Pad4)*%
X72550000Y-28232000D03*
%TO.P,J2,5,VBUS*%
%TO.N,Net-(D9-Pad2)*%
X70850000Y-29032000D03*
D14*
%TO.P,J2,6,Shield*%
%TO.N,GND*%
X71639280Y-31082000D03*
X76150000Y-23782000D03*
X76150000Y-31082000D03*
X71639280Y-23782000D03*
%TD*%
D15*
%TO.P,Q4,1,C*%
%TO.N,GND*%
X25044400Y-23414400D03*
D16*
%TO.P,Q4,2,B*%
%TO.N,Net-(Q2-Pad1)*%
X23774400Y-24684400D03*
%TO.P,Q4,3,E*%
%TO.N,Net-(Q1-Pad1)*%
X22504400Y-23414400D03*
%TD*%
D17*
%TO.P,T2,1,1*%
%TO.N,/2*%
X8382000Y-46228000D03*
D18*
%TO.P,T2,2,2*%
%TO.N,/3(PWM)*%
X10922000Y-46228000D03*
%TO.P,T2,3,3*%
%TO.N,/A5(SCL)*%
X13462000Y-46228000D03*
%TD*%
D19*
%TO.P,U2,1*%
%TO.N,VCC*%
X48425100Y-32562800D03*
%TO.P,U2,2*%
X48412400Y-30022800D03*
%TO.P,U2,3*%
X48425100Y-27482800D03*
%TO.P,U2,4*%
X48437800Y-24942800D03*
%TO.P,U2,5*%
X48425100Y-22402800D03*
%TO.P,U2,6*%
X48412400Y-19862800D03*
%TO.P,U2,7*%
X48425100Y-17322800D03*
%TO.P,U2,8*%
%TO.N,unconnected-(U2-Pad8)*%
X48412400Y-14782800D03*
%TO.P,U2,9*%
%TO.N,Net-(U2-Pad10)*%
X50965100Y-32562800D03*
%TO.P,U2,10*%
X50952400Y-30022800D03*
%TO.P,U2,11*%
%TO.N,Net-(U2-Pad11)*%
X50965100Y-27482800D03*
%TO.P,U2,12*%
X50977800Y-24942800D03*
%TO.P,U2,13*%
%TO.N,Net-(U2-Pad13)*%
X50965100Y-22402800D03*
%TO.P,U2,14*%
X50952400Y-19862800D03*
%TO.P,U2,15*%
X50965100Y-17322800D03*
%TO.P,U2,16*%
%TO.N,unconnected-(U2-Pad16)*%
X50952400Y-14782800D03*
%TO.P,U2,17*%
%TO.N,Net-(U2-Pad17)*%
X53505100Y-32562800D03*
%TO.P,U2,18*%
X53492400Y-30022800D03*
%TO.P,U2,19*%
%TO.N,Net-(U2-Pad19)*%
X53505100Y-27482800D03*
%TO.P,U2,20*%
X53517800Y-24942800D03*
%TO.P,U2,21*%
%TO.N,Net-(U2-Pad21)*%
X53505100Y-22402800D03*
%TO.P,U2,22*%
X53492400Y-19862800D03*
%TO.P,U2,23*%
X53505100Y-17322800D03*
%TO.P,U2,24*%
%TO.N,unconnected-(U2-Pad24)*%
X53492400Y-14782800D03*
%TO.P,U2,25*%
%TO.N,Net-(U2-Pad25)*%
X56045100Y-32562800D03*
%TO.P,U2,26*%
X56032400Y-30022800D03*
%TO.P,U2,27*%
%TO.N,Net-(U2-Pad27)*%
X56045100Y-27482800D03*
%TO.P,U2,28*%
X56057800Y-24942800D03*
%TO.P,U2,29*%
%TO.N,Net-(U2-Pad29)*%
X56045100Y-22402800D03*
%TO.P,U2,30*%
X56032400Y-19862800D03*
%TO.P,U2,31*%
X56045100Y-17322800D03*
%TO.P,U2,32*%
%TO.N,unconnected-(U2-Pad32)*%
X56032400Y-14782800D03*
%TO.P,U2,33*%
%TO.N,Net-(U2-Pad33)*%
X58585100Y-32562800D03*
%TO.P,U2,34*%
X58572400Y-30022800D03*
%TO.P,U2,35*%
%TO.N,Net-(U2-Pad35)*%
X58585100Y-27482800D03*
%TO.P,U2,36*%
X58597800Y-24942800D03*
%TO.P,U2,37*%
%TO.N,Net-(U2-Pad37)*%
X58585100Y-22402800D03*
%TO.P,U2,38*%
X58572400Y-19862800D03*
%TO.P,U2,39*%
X58585100Y-17322800D03*
%TO.P,U2,40*%
X58572400Y-14782800D03*
%TO.P,U2,41*%
%TO.N,Net-(U2-Pad41)*%
X61125100Y-32562800D03*
%TO.P,U2,42*%
X61112400Y-30022800D03*
%TO.P,U2,43*%
%TO.N,Net-(U2-Pad43)*%
X61125100Y-27482800D03*
%TO.P,U2,44*%
X61137800Y-24942800D03*
%TO.P,U2,45*%
%TO.N,Net-(U2-Pad45)*%
X61125100Y-22402800D03*
%TO.P,U2,46*%
X61112400Y-19862800D03*
%TO.P,U2,47*%
X61125100Y-17322800D03*
%TO.P,U2,48*%
X61112400Y-14782800D03*
%TO.P,U2,49*%
%TO.N,Net-(U2-Pad49)*%
X63665100Y-32562800D03*
%TO.P,U2,50*%
X63652400Y-30022800D03*
%TO.P,U2,51*%
%TO.N,Net-(U2-Pad51)*%
X63665100Y-27482800D03*
%TO.P,U2,52*%
X63677800Y-24942800D03*
%TO.P,U2,53*%
%TO.N,Net-(U2-Pad53)*%
X63665100Y-22402800D03*
%TO.P,U2,54*%
X63652400Y-19862800D03*
%TO.P,U2,55*%
X63665100Y-17322800D03*
%TO.P,U2,56*%
X63652400Y-14782800D03*
%TO.P,U2,57*%
%TO.N,GND*%
X66205100Y-32562800D03*
%TO.P,U2,58*%
X66192400Y-30022800D03*
%TO.P,U2,59*%
X66205100Y-27482800D03*
%TO.P,U2,60*%
X66217800Y-24942800D03*
%TO.P,U2,61*%
X66205100Y-22402800D03*
%TO.P,U2,62*%
X66192400Y-19862800D03*
%TO.P,U2,63*%
X66205100Y-17322800D03*
%TO.P,U2,64*%
X66192400Y-14782800D03*
%TD*%
D20*
%TO.P,Q3,1,G*%
%TO.N,Net-(Q1-Pad1)*%
X18299400Y-18591600D03*
D21*
%TO.P,Q3,2,D*%
%TO.N,VCC*%
X23774400Y-18591600D03*
%TO.P,Q3,3,S*%
%TO.N,/Vin*%
X29249400Y-18591600D03*
%TD*%
D22*
%TO.P,T7,1,1*%
%TO.N,unconnected-(T7-Pad1)*%
X39390000Y-6750000D03*
D23*
%TO.P,T7,2,2*%
%TO.N,unconnected-(T7-Pad2)*%
X36850000Y-6750000D03*
%TO.P,T7,3,3*%
%TO.N,unconnected-(T7-Pad3)*%
X34310000Y-6750000D03*
%TO.P,T7,4,4*%
%TO.N,Net-(R_reset_pullup1-Pad2)*%
X31770000Y-6750000D03*
%TO.P,T7,5,5*%
%TO.N,/0(Rx)*%
X29230000Y-6750000D03*
%TO.P,T7,6,6*%
%TO.N,/1(Tx)*%
X26690000Y-6750000D03*
%TO.P,T7,7,7*%
%TO.N,GND*%
X24150000Y-6750000D03*
%TO.P,T7,8,8*%
%TO.N,VCC*%
X21610000Y-6750000D03*
%TD*%
D22*
%TO.P,T1,1,1*%
%TO.N,Net-(D1-Pad2)*%
X48260000Y-88620000D03*
D23*
%TO.P,T1,2,2*%
%TO.N,Net-(D2-Pad2)*%
X45720000Y-88620000D03*
%TO.P,T1,3,3*%
%TO.N,Net-(D3-Pad2)*%
X43180000Y-88620000D03*
%TO.P,T1,4,4*%
%TO.N,Net-(D4-Pad2)*%
X40640000Y-88620000D03*
%TO.P,T1,5,5*%
%TO.N,Net-(D5-Pad2)*%
X38100000Y-88620000D03*
%TO.P,T1,6,6*%
%TO.N,Net-(D6-Pad2)*%
X35560000Y-88620000D03*
%TO.P,T1,7,7*%
%TO.N,Net-(D7-Pad2)*%
X33020000Y-88620000D03*
%TO.P,T1,8,8*%
%TO.N,Net-(D8-Pad2)*%
X30480000Y-88620000D03*
%TD*%
D22*
%TO.P,U1,1,e*%
%TO.N,/12(MISO)*%
X45940000Y-32440000D03*
D23*
%TO.P,U1,2,d*%
%TO.N,/8*%
X43400000Y-32440000D03*
%TO.P,U1,3,DPX*%
%TO.N,/0(Rx)*%
X40860000Y-32440000D03*
%TO.P,U1,4,c*%
%TO.N,/4*%
X38320000Y-32440000D03*
%TO.P,U1,5,g*%
%TO.N,/1(Tx)*%
X35780000Y-32440000D03*
%TO.P,U1,6,CA4*%
%TO.N,Net-(R2-Pad1)*%
X33240000Y-32440000D03*
%TO.P,U1,7,b*%
%TO.N,/A3*%
X33240000Y-17200000D03*
%TO.P,U1,8,CA3*%
%TO.N,Net-(R3-Pad1)*%
X35780000Y-17200000D03*
%TO.P,U1,9,CA2*%
%TO.N,Net-(R4-Pad1)*%
X38320000Y-17200000D03*
%TO.P,U1,10,f*%
%TO.N,/13(SCK)*%
X40860000Y-17200000D03*
%TO.P,U1,11,a*%
%TO.N,/7*%
X43400000Y-17200000D03*
%TO.P,U1,12,CA1*%
%TO.N,Net-(R5-Pad1)*%
X45940000Y-17200000D03*
%TD*%
D24*
%TO.P,U3,1,~{RESET}/PC6*%
%TO.N,Net-(R_reset_pullup1-Pad2)*%
X38855000Y-43250000D03*
D25*
%TO.P,U3,2,PD0*%
%TO.N,/0(Rx)*%
X36315000Y-43250000D03*
%TO.P,U3,3,PD1*%
%TO.N,/1(Tx)*%
X33775000Y-43250000D03*
%TO.P,U3,4,PD2*%
%TO.N,/2*%
X31235000Y-43250000D03*
%TO.P,U3,5,PD3*%
%TO.N,/3(PWM)*%
X28695000Y-43250000D03*
%TO.P,U3,6,PD4*%
%TO.N,/4*%
X26155000Y-43250000D03*
%TO.P,U3,7,VCC*%
%TO.N,VCC*%
X23615000Y-43250000D03*
%TO.P,U3,8,GND*%
%TO.N,GND*%
X21075000Y-43250000D03*
%TO.P,U3,9,XTAL1/PB6*%
%TO.N,Net-(C2-Pad2)*%
X18535000Y-43250000D03*
%TO.P,U3,10,XTAL2/PB7*%
%TO.N,Net-(C3-Pad2)*%
X15995000Y-43250000D03*
%TO.P,U3,11,PD5*%
%TO.N,/5(PWM)*%
X13455000Y-43250000D03*
%TO.P,U3,12,PD6*%
%TO.N,/6(PWM)*%
X10915000Y-43250000D03*
%TO.P,U3,13,PD7*%
%TO.N,/7*%
X8375000Y-43250000D03*
%TO.P,U3,14,PB0*%
%TO.N,/8*%
X5835000Y-43250000D03*
%TO.P,U3,15,PB1*%
%TO.N,/9(PWM)*%
X5835000Y-35630000D03*
%TO.P,U3,16,PB2*%
%TO.N,/10(PWM-SS)*%
X8375000Y-35630000D03*
%TO.P,U3,17,PB3*%
%TO.N,/11(PWM-MOSI)*%
X10915000Y-35630000D03*
%TO.P,U3,18,PB4*%
%TO.N,/12(MISO)*%
X13455000Y-35630000D03*
%TO.P,U3,19,PB5*%
%TO.N,/13(SCK)*%
X15995000Y-35630000D03*
%TO.P,U3,20,AVCC*%
%TO.N,VCC*%
X18535000Y-35630000D03*
%TO.P,U3,21,AREF*%
X21075000Y-35630000D03*
%TO.P,U3,22,GND*%
%TO.N,GND*%
X23615000Y-35630000D03*
%TO.P,U3,23,PC0*%
%TO.N,/A0*%
X26155000Y-35630000D03*
%TO.P,U3,24,PC1*%
%TO.N,/A1*%
X28695000Y-35630000D03*
%TO.P,U3,25,PC2*%
%TO.N,/A2*%
X31235000Y-35630000D03*
%TO.P,U3,26,PC3*%
%TO.N,/A3*%
X33775000Y-35630000D03*
%TO.P,U3,27,PC4*%
%TO.N,/A4(SDA)*%
X36315000Y-35630000D03*
%TO.P,U3,28,PC5*%
%TO.N,/A5(SCL)*%
X38855000Y-35630000D03*
%TD*%
D26*
%TO.P,S1,*%
%TO.N,*%
X20500000Y-60140000D03*
X4900000Y-60140000D03*
D27*
%TO.P,S1,1,A*%
%TO.N,/2*%
X7700000Y-49640000D03*
%TO.P,S1,2,B*%
%TO.N,/3(PWM)*%
X12700000Y-49640000D03*
%TO.P,S1,3,C*%
%TO.N,GND*%
X17700000Y-49640000D03*
%TD*%
D22*
%TO.P,T6,1,1*%
%TO.N,GND*%
X27940000Y-88620000D03*
D23*
%TO.P,T6,2,2*%
%TO.N,VCC*%
X25400000Y-88620000D03*
%TO.P,T6,3,3*%
%TO.N,Net-(R1-Pad1)*%
X22860000Y-88620000D03*
%TO.P,T6,4,4*%
%TO.N,GND*%
X20320000Y-88620000D03*
%TO.P,T6,5,5*%
%TO.N,Net-(D10-Pad2)*%
X17780000Y-88620000D03*
%TO.P,T6,6,6*%
%TO.N,/A0*%
X15240000Y-88620000D03*
%TO.P,T6,7,7*%
%TO.N,Net-(R26-Pad2)*%
X12700000Y-88620000D03*
%TO.P,T6,8,8*%
%TO.N,/Vin*%
X10160000Y-88620000D03*
%TD*%
D22*
%TO.P,T8,1,1*%
%TO.N,/Vin*%
X21670000Y-3250000D03*
D23*
%TO.P,T8,2,2*%
%TO.N,Net-(D9-Pad1)*%
X24210000Y-3250000D03*
%TO.P,T8,3,3*%
%TO.N,Net-(D10-Pad2)*%
X26750000Y-3250000D03*
%TO.P,T8,4,4*%
%TO.N,GND*%
X29290000Y-3250000D03*
%TO.P,T8,5,5*%
%TO.N,Net-(D10-Pad1)*%
X31830000Y-3250000D03*
%TO.P,T8,6,6*%
%TO.N,/Vin*%
X34370000Y-3250000D03*
%TO.P,T8,7,7*%
%TO.N,GND*%
X36910000Y-3250000D03*
%TO.P,T8,8,8*%
%TO.N,VCC*%
X39450000Y-3250000D03*
%TD*%
D22*
%TO.P,T4,1,1*%
%TO.N,Net-(R18-Pad2)*%
X68580000Y-88620000D03*
D23*
%TO.P,T4,2,2*%
%TO.N,Net-(R17-Pad2)*%
X66040000Y-88620000D03*
%TO.P,T4,3,3*%
%TO.N,Net-(R16-Pad2)*%
X63500000Y-88620000D03*
%TO.P,T4,4,4*%
%TO.N,Net-(R15-Pad2)*%
X60960000Y-88620000D03*
%TO.P,T4,5,5*%
%TO.N,Net-(R9-Pad2)*%
X58420000Y-88620000D03*
%TO.P,T4,6,6*%
%TO.N,Net-(R8-Pad2)*%
X55880000Y-88620000D03*
%TO.P,T4,7,7*%
%TO.N,Net-(R7-Pad2)*%
X53340000Y-88620000D03*
%TO.P,T4,8,8*%
%TO.N,Net-(R6-Pad2)*%
X50800000Y-88620000D03*
%TD*%
D28*
%TO.P,BZ1,1,-*%
%TO.N,/A5(SCL)*%
X10310000Y-27000000D03*
D29*
%TO.P,BZ1,2,+*%
%TO.N,GND*%
X2690000Y-27000000D03*
%TD*%
D30*
%TO.N,/A5(SCL)*%
X19056480Y-29192544D03*
%TO.N,GND*%
X54923490Y-7039536D03*
X55118000Y-3048000D03*
X66500000Y-79000000D03*
X28448000Y-46990000D03*
X32139536Y-47498000D03*
X32139536Y-47498000D03*
X23495000Y-33020000D03*
X57500000Y-76924500D03*
X3556000Y-68072000D03*
X6620367Y-66071299D03*
%TO.N,VCC*%
X52476400Y-80670400D03*
X2835033Y-37409320D03*
X45577907Y-9969017D03*
X26729121Y-8549011D03*
%TO.N,/Vin*%
X45974000Y-8890000D03*
X41402000Y-3048000D03*
X1270000Y-55245000D03*
%TO.N,/A0*%
X13944405Y-39239620D03*
X15936074Y-76236601D03*
X26155000Y-35630000D03*
%TO.N,/A1*%
X60526800Y-80697200D03*
X62000000Y-76000000D03*
%TO.N,/A3*%
X33655254Y-25602947D03*
%TO.N,/A4(SDA)*%
X37114999Y-30764999D03*
X53975000Y-3175000D03*
X26035000Y-29845000D03*
%TO.N,/11(PWM-MOSI)*%
X42926000Y-3048000D03*
X41416109Y-7327908D03*
%TO.N,/10(PWM-SS)*%
X44704000Y-3048000D03*
X41629132Y-9092947D03*
%TO.N,/9(PWM)*%
X41068944Y-8265182D03*
X45974000Y-2794000D03*
%TO.N,/8*%
X38387023Y-46116120D03*
X37084000Y-47752000D03*
%TO.N,/7*%
X16385585Y-73568692D03*
X39214080Y-76112630D03*
%TO.N,/6(PWM)*%
X47010124Y-10424162D03*
X49022000Y-3302000D03*
X46355000Y-13970000D03*
%TO.N,/5(PWM)*%
X44491033Y-9006693D03*
X45920808Y-18840594D03*
X47498000Y-2794000D03*
%TO.N,/4*%
X37162178Y-44844406D03*
X35423351Y-41792649D03*
%TO.N,/1(Tx)*%
X19889628Y-29744694D03*
%TO.N,/0(Rx)*%
X38100000Y-24765000D03*
%TO.N,Net-(Q1-Pad1)*%
X53534799Y-10354799D03*
%TO.N,Net-(R17-Pad1)*%
X62012299Y-77012299D03*
X63526800Y-80595500D03*
%TO.N,Net-(R_reset_pullup1-Pad2)*%
X35866379Y-25338959D03*
%TO.N,Net-(D9-Pad2)*%
X42007088Y-75173097D03*
%TO.N,Net-(D10-Pad2)*%
X27432000Y-84074000D03*
%TO.N,Net-(R1-Pad1)*%
X48805500Y-7944006D03*
X26030800Y-10612097D03*
%TO.N,Net-(R2-Pad1)*%
X36847987Y-9549528D03*
X37025069Y-22707133D03*
X46990000Y-6858000D03*
%TO.N,Net-(R3-Pad1)*%
X44521755Y-13898245D03*
%TO.N,Net-(R4-Pad1)*%
X43815000Y-14605000D03*
%TO.N,Net-(R10-Pad2)*%
X55880000Y-76962000D03*
X56134000Y-80595500D03*
%TO.N,Net-(Q2-Pad1)*%
X53379977Y-6945023D03*
%TO.N,Net-(R26-Pad2)*%
X26051360Y-9388138D03*
X56896000Y-3302000D03*
%TD*%
D31*
%TO.N,/A5(SCL)*%
X16863936Y-27000000D02*
X19056480Y-29192544D01*
X10310000Y-27000000D02*
X16863936Y-27000000D01*
%TO.N,GND*%
X24150000Y-6750000D02*
X24150000Y-7810660D01*
X17700000Y-49640000D02*
X7258534Y-60081466D01*
X9790489Y-35453805D02*
X7171194Y-32834510D01*
X26694433Y-5225978D02*
X26058728Y-5225979D01*
X31631536Y-46990000D02*
X32139536Y-47498000D01*
X4960660Y-27000000D02*
X2690000Y-27000000D01*
X55118000Y-3048000D02*
X55118000Y-6845026D01*
X25044400Y-23414400D02*
X25044400Y-28295600D01*
X17410489Y-35804811D02*
X16460789Y-36754511D01*
X52070000Y-88370411D02*
X57500000Y-82940411D01*
X62775499Y-75275499D02*
X59149001Y-75275499D01*
X29290000Y-3250000D02*
X28670411Y-3250000D01*
X7258534Y-60081466D02*
X7258534Y-65433132D01*
X57500000Y-82940411D02*
X57500000Y-76924500D01*
X67251600Y-31082000D02*
X66192400Y-30022800D01*
X66192400Y-14782800D02*
X58449136Y-7039536D01*
X25165978Y-6118729D02*
X25165979Y-6491116D01*
X25165979Y-6491116D02*
X25165978Y-6750000D01*
X6360720Y-77268000D02*
X6360720Y-75757280D01*
X55118000Y-6845026D02*
X54923490Y-7039536D01*
X66500000Y-79000000D02*
X62775499Y-75275499D01*
X7258534Y-65433132D02*
X6620367Y-66071299D01*
X35835489Y-4324511D02*
X30364511Y-4324511D01*
X7171194Y-32834510D02*
X1964910Y-32834510D01*
X26058728Y-5225979D02*
X25165978Y-6118729D01*
X26865489Y-89694511D02*
X27940000Y-88620000D01*
X29490000Y-90170000D02*
X52070000Y-90170000D01*
X1719511Y-32589111D02*
X1719511Y-27970489D01*
X1719511Y-27970489D02*
X2690000Y-27000000D01*
X28670411Y-3250000D02*
X26694433Y-5225978D01*
X1964910Y-32834510D02*
X1719511Y-32589111D01*
X10449211Y-36754511D02*
X9790489Y-36095789D01*
X21075000Y-46265000D02*
X17700000Y-49640000D01*
X14165489Y-85072769D02*
X14165489Y-89065078D01*
X18069211Y-34505489D02*
X17410489Y-35164211D01*
X36910000Y-3250000D02*
X35835489Y-4324511D01*
X16460789Y-36754511D02*
X10449211Y-36754511D01*
X30364511Y-4324511D02*
X29290000Y-3250000D01*
X3556000Y-68072000D02*
X1850000Y-69778000D01*
X32139536Y-47616464D02*
X32139536Y-47498000D01*
X6360720Y-77268000D02*
X14165489Y-85072769D01*
X15016411Y-89916000D02*
X19024000Y-89916000D01*
X21394511Y-89694511D02*
X26865489Y-89694511D01*
X1850000Y-77268000D02*
X6360720Y-77268000D01*
X9790489Y-36095789D02*
X9790489Y-35453805D01*
X25044400Y-28295600D02*
X23495000Y-29845000D01*
X27940000Y-88620000D02*
X29490000Y-90170000D01*
X19024000Y-89916000D02*
X20320000Y-88620000D01*
X52070000Y-90170000D02*
X52070000Y-88370411D01*
X1850000Y-69778000D02*
X1850000Y-69968000D01*
X71639280Y-31082000D02*
X67251600Y-31082000D01*
X23495000Y-29845000D02*
X23495000Y-33020000D01*
X21075000Y-43250000D02*
X21075000Y-46265000D01*
X24150000Y-7810660D02*
X4960660Y-27000000D01*
X30116000Y-49640000D02*
X31750000Y-48006000D01*
X58449136Y-7039536D02*
X54923490Y-7039536D01*
X17700000Y-49640000D02*
X30116000Y-49640000D01*
X25165978Y-6750000D02*
X24150000Y-6750000D01*
X22490489Y-34505489D02*
X18069211Y-34505489D01*
X59149001Y-75275499D02*
X57500000Y-76924500D01*
X14165489Y-89065078D02*
X15016411Y-89916000D01*
X23615000Y-35630000D02*
X22490489Y-34505489D01*
X17410489Y-35164211D02*
X17410489Y-35804811D01*
X20320000Y-88620000D02*
X21394511Y-89694511D01*
X31750000Y-48006000D02*
X32139536Y-47616464D01*
X1850000Y-69968000D02*
X1850000Y-77268000D01*
X6360720Y-75757280D02*
X6900000Y-75218000D01*
X28448000Y-46990000D02*
X31631536Y-46990000D01*
%TO.N,VCC*%
X25400000Y-88620000D02*
X33349600Y-80670400D01*
X38958679Y-9991967D02*
X39233670Y-10266958D01*
X37396490Y-8186490D02*
X37396490Y-9076194D01*
X37396490Y-9076194D02*
X38312263Y-9991967D01*
X27467293Y-8128000D02*
X27321271Y-8274022D01*
X38830411Y-3250000D02*
X35775489Y-6304922D01*
X37338000Y-8128000D02*
X27467293Y-8128000D01*
X33349600Y-80670400D02*
X52476400Y-80670400D01*
X39450000Y-3250000D02*
X38830411Y-3250000D01*
X27321271Y-8274022D02*
X27004110Y-8274022D01*
X38312263Y-9991967D02*
X38958679Y-9991967D01*
X39233670Y-10266958D02*
X45279966Y-10266958D01*
X36708411Y-8128000D02*
X37338000Y-8128000D01*
X18535000Y-35630000D02*
X16755680Y-37409320D01*
X27004110Y-8274022D02*
X26729121Y-8549011D01*
X16755680Y-37409320D02*
X2835033Y-37409320D01*
X37338000Y-8128000D02*
X37396490Y-8186490D01*
X35775489Y-6304922D02*
X35775489Y-7195078D01*
X18535000Y-35630000D02*
X21075000Y-35630000D01*
X45279966Y-10266958D02*
X45577907Y-9969017D01*
X35775489Y-7195078D02*
X36708411Y-8128000D01*
%TO.N,Net-(J1-Pad2)*%
X8035240Y-70631668D02*
X9377052Y-71973480D01*
X4236689Y-73116447D02*
X4236689Y-68415911D01*
X10942948Y-71973480D02*
X11484520Y-72515052D01*
X11484520Y-72515052D02*
X11484520Y-74113480D01*
X5538242Y-74418000D02*
X4236689Y-73116447D01*
X5700000Y-74418000D02*
X5538242Y-74418000D01*
X6925841Y-68372099D02*
X8035240Y-69481498D01*
X11484520Y-74113480D02*
X10160000Y-75438000D01*
X9377052Y-71973480D02*
X10942948Y-71973480D01*
X4236689Y-68415911D02*
X4280501Y-68372099D01*
X8035240Y-69481498D02*
X8035240Y-70631668D01*
X4280501Y-68372099D02*
X6925841Y-68372099D01*
%TO.N,Net-(J1-Pad4)*%
X9190858Y-72422990D02*
X7910388Y-71142520D01*
X7910388Y-71142520D02*
X5374218Y-71142520D01*
X4686200Y-71804200D02*
X5700000Y-72818000D01*
X5374218Y-71142520D02*
X4686200Y-70454502D01*
X4686200Y-70454502D02*
X4686200Y-71804200D01*
X10160000Y-72898000D02*
X10160000Y-72422991D01*
X10160000Y-72422991D02*
X9190858Y-72422990D01*
%TO.N,/Vin*%
X45249166Y-9215874D02*
X45411136Y-9215874D01*
X32136000Y-1016000D02*
X34370000Y-3250000D01*
X2394230Y-25400000D02*
X5715000Y-25400000D01*
X38916646Y-9542456D02*
X39144873Y-9542457D01*
X5715000Y-25400000D02*
X20535489Y-10579511D01*
X45215533Y-9306792D02*
X45215533Y-9249507D01*
X45411136Y-9215874D02*
X45737010Y-8890000D01*
X41402000Y-3048000D02*
X39370000Y-5080000D01*
X44809563Y-9817447D02*
X44824764Y-9802246D01*
X1270000Y-26524230D02*
X2394230Y-25400000D01*
X45215533Y-9249507D02*
X45249166Y-9215874D01*
X39370000Y-5080000D02*
X38608000Y-5080000D01*
X1270000Y-55245000D02*
X1270000Y-26524230D01*
X44824764Y-9697561D02*
X45215533Y-9306792D01*
X38608000Y-5080000D02*
X38100000Y-5588000D01*
X45737010Y-8890000D02*
X45974000Y-8890000D01*
X23904000Y-1016000D02*
X32136000Y-1016000D01*
X39144873Y-9542457D02*
X39419863Y-9817447D01*
X20535489Y-10579511D02*
X20535489Y-4384511D01*
X38100000Y-8725810D02*
X38916646Y-9542456D01*
X21670000Y-3250000D02*
X23904000Y-1016000D01*
X39419863Y-9817447D02*
X44809563Y-9817447D01*
X44824764Y-9802246D02*
X44824764Y-9697561D01*
X38100000Y-5588000D02*
X38100000Y-8725810D01*
X20535489Y-4384511D02*
X21670000Y-3250000D01*
%TO.N,/A0*%
X15240000Y-76932675D02*
X15936074Y-76236601D01*
X24134084Y-39239620D02*
X13944405Y-39239620D01*
X26155000Y-35630000D02*
X26155000Y-37218704D01*
X15240000Y-88620000D02*
X15240000Y-76932675D01*
X26155000Y-37218704D02*
X24134084Y-39239620D01*
%TO.N,/A1*%
X60452000Y-77548000D02*
X62000000Y-76000000D01*
X60452000Y-80622400D02*
X60452000Y-77548000D01*
X60526800Y-80697200D02*
X60452000Y-80622400D01*
%TO.N,/A3*%
X33775000Y-35630000D02*
X32093754Y-33948754D01*
X32093754Y-33948754D02*
X32093754Y-27164447D01*
X32093754Y-27164447D02*
X33655254Y-25602947D01*
%TO.N,/A4(SDA)*%
X54198989Y-3398989D02*
X54198989Y-7339633D01*
X27491193Y-13149511D02*
X26035000Y-14605704D01*
X54610000Y-7750644D02*
X54610000Y-10795000D01*
X54610000Y-10795000D02*
X52255489Y-13149511D01*
X36315000Y-35630000D02*
X37114999Y-34830001D01*
X26035000Y-14605704D02*
X26035000Y-29845000D01*
X53975000Y-3175000D02*
X54198989Y-3398989D01*
X37114999Y-34830001D02*
X37114999Y-30764999D01*
X52255489Y-13149511D02*
X27491193Y-13149511D01*
X54198989Y-7339633D02*
X54610000Y-7750644D01*
%TO.N,/13(SCK)*%
X39785489Y-18274511D02*
X40860000Y-17200000D01*
X24219501Y-32685099D02*
X26759501Y-30145099D01*
X26759501Y-30145099D02*
X26759501Y-29510099D01*
X15995000Y-35630000D02*
X17880499Y-33744501D01*
X17880499Y-33744501D02*
X23795099Y-33744501D01*
X41009402Y-17200000D02*
X40860000Y-17200000D01*
X37995089Y-18274511D02*
X39785489Y-18274511D01*
X24219501Y-33320099D02*
X24219501Y-32685099D01*
X23795099Y-33744501D02*
X24219501Y-33320099D01*
X26759501Y-29510099D02*
X37995089Y-18274511D01*
%TO.N,/11(PWM-MOSI)*%
X42926000Y-3048000D02*
X42926000Y-5818017D01*
X42926000Y-5818017D02*
X41416109Y-7327908D01*
%TO.N,/10(PWM-SS)*%
X44704000Y-6232304D02*
X41843357Y-9092947D01*
X44704000Y-3048000D02*
X44704000Y-6232304D01*
X41843357Y-9092947D02*
X41629132Y-9092947D01*
%TO.N,/9(PWM)*%
X43650501Y-3076899D02*
X43650501Y-6650099D01*
X42035418Y-8265182D02*
X41068944Y-8265182D01*
X45974000Y-2794000D02*
X45503499Y-2323499D01*
X44403901Y-2323499D02*
X43650501Y-3076899D01*
X45503499Y-2323499D02*
X44403901Y-2323499D01*
X43650501Y-6650099D02*
X42035418Y-8265182D01*
%TO.N,/8*%
X40894000Y-44195998D02*
X38973878Y-46116120D01*
X38387023Y-46116120D02*
X37084000Y-47419143D01*
X37084000Y-47419143D02*
X37084000Y-47752000D01*
X43400000Y-32440000D02*
X40894000Y-34946000D01*
X40894000Y-34946000D02*
X40894000Y-44195998D01*
X38973878Y-46116120D02*
X38387023Y-46116120D01*
%TO.N,/7*%
X14412384Y-38682999D02*
X24055001Y-38682999D01*
X14244504Y-38515119D02*
X14412384Y-38682999D01*
X36761450Y-73660000D02*
X16476893Y-73660000D01*
X24892000Y-37846000D02*
X24892000Y-32648304D01*
X8375000Y-43250000D02*
X13109881Y-38515119D01*
X16476893Y-73660000D02*
X16385585Y-73568692D01*
X41875979Y-18724021D02*
X43400000Y-17200000D01*
X39214080Y-76112630D02*
X36761450Y-73660000D01*
X27209012Y-30331292D02*
X27209012Y-29753190D01*
X38238181Y-18724021D02*
X41875979Y-18724021D01*
X24055001Y-38682999D02*
X24892000Y-37846000D01*
X24892000Y-32648304D02*
X27209012Y-30331292D01*
X27209012Y-29753190D02*
X38238181Y-18724021D01*
X13109881Y-38515119D02*
X14244504Y-38515119D01*
%TO.N,/6(PWM)*%
X27570489Y-30605519D02*
X27658524Y-30517482D01*
X14287000Y-39878000D02*
X24256296Y-39878000D01*
X10915000Y-43250000D02*
X14287000Y-39878000D01*
X43436761Y-19173533D02*
X44830535Y-17779759D01*
X49022000Y-5850600D02*
X47402011Y-7470589D01*
X49022000Y-3302000D02*
X49022000Y-5850600D01*
X44830535Y-15494465D02*
X46355000Y-13970000D01*
X38424366Y-19173533D02*
X43436761Y-19173533D01*
X24256296Y-39878000D02*
X27570489Y-36563807D01*
X27570489Y-36563807D02*
X27570489Y-30605519D01*
X27658524Y-30517482D02*
X27658524Y-29939375D01*
X27658524Y-29939375D02*
X38424366Y-19173533D01*
X44830535Y-17779759D02*
X44830535Y-15494465D01*
X47402011Y-10032275D02*
X47010124Y-10424162D01*
X47402011Y-7470589D02*
X47402011Y-10032275D01*
%TO.N,/5(PWM)*%
X16319000Y-40386000D02*
X24384000Y-40386000D01*
X45138359Y-19623043D02*
X45920808Y-18840594D01*
X47498000Y-5071400D02*
X44491033Y-8078367D01*
X24384000Y-40386000D02*
X28015489Y-36754511D01*
X44491033Y-8078367D02*
X44491033Y-9006693D01*
X47498000Y-2794000D02*
X47498000Y-5071400D01*
X29819511Y-36095789D02*
X29819511Y-28414090D01*
X28015489Y-36754511D02*
X29160789Y-36754511D01*
X38610558Y-19623043D02*
X45138359Y-19623043D01*
X29819511Y-28414090D02*
X38610558Y-19623043D01*
X29160789Y-36754511D02*
X29819511Y-36095789D01*
X13455000Y-43250000D02*
X16319000Y-40386000D01*
%TO.N,/4*%
X34915489Y-43829698D02*
X35930197Y-44844406D01*
X37570000Y-39646000D02*
X35423351Y-41792649D01*
X35423351Y-41792649D02*
X34915489Y-42300511D01*
X38320000Y-32440000D02*
X37570000Y-33190000D01*
X35930197Y-44844406D02*
X37162178Y-44844406D01*
X34915489Y-42300511D02*
X34915489Y-43829698D01*
X37570000Y-33190000D02*
X37570000Y-39646000D01*
%TO.N,/1(Tx)*%
X34899511Y-40994119D02*
X34899511Y-33320489D01*
X33775000Y-43250000D02*
X33775000Y-42118630D01*
X34899511Y-33320489D02*
X35780000Y-32440000D01*
X33775000Y-42118630D02*
X34899511Y-40994119D01*
X19889628Y-13550372D02*
X19889628Y-29744694D01*
X26690000Y-6750000D02*
X19889628Y-13550372D01*
%TO.N,/0(Rx)*%
X36592372Y-43250000D02*
X37716883Y-44374511D01*
X39979511Y-44374511D02*
X40444489Y-43909533D01*
X40444489Y-43909533D02*
X40444489Y-32855511D01*
X36315000Y-43250000D02*
X36592372Y-43250000D01*
X40860000Y-32440000D02*
X40860000Y-27525000D01*
X40860000Y-27525000D02*
X38100000Y-24765000D01*
X40444489Y-32855511D02*
X40860000Y-32440000D01*
X37716883Y-44374511D02*
X39979511Y-44374511D01*
%TO.N,Net-(Q1-Pad1)*%
X51189598Y-12700000D02*
X26939293Y-12700000D01*
X21979400Y-17659893D02*
X21979400Y-22889400D01*
X53534799Y-10354799D02*
X51189598Y-12700000D01*
X21979400Y-22889400D02*
X22504400Y-23414400D01*
X26939293Y-12700000D02*
X21979400Y-17659893D01*
%TO.N,Net-(R17-Pad1)*%
X63526800Y-77242800D02*
X63296299Y-77012299D01*
X63526800Y-80595500D02*
X63526800Y-77242800D01*
X63296299Y-77012299D02*
X62012299Y-77012299D01*
%TO.N,Net-(R_reset_pullup1-Pad2)*%
X39394511Y-34579211D02*
X39394511Y-28867091D01*
X38855000Y-43250000D02*
X39994978Y-42110022D01*
X39994978Y-42110022D02*
X39994979Y-35179679D01*
X39994979Y-35179679D02*
X39394511Y-34579211D01*
X39394511Y-28867091D02*
X35866379Y-25338959D01*
%TO.N,Net-(D9-Pad2)*%
X6900000Y-72018000D02*
X7756000Y-72018000D01*
X15371030Y-75512100D02*
X37500975Y-75512100D01*
X14520619Y-76362511D02*
X15371030Y-75512100D01*
X7756000Y-72018000D02*
X8835489Y-73097489D01*
X40298410Y-76881775D02*
X42007088Y-75173097D01*
X8835489Y-76362511D02*
X14520619Y-76362511D01*
X8835489Y-73097489D02*
X8835489Y-76362511D01*
X37500975Y-75512100D02*
X38870650Y-76881775D01*
X38870650Y-76881775D02*
X40298410Y-76881775D01*
%TO.N,Net-(D10-Pad2)*%
X27432000Y-84074000D02*
X22326000Y-84074000D01*
X22326000Y-84074000D02*
X17780000Y-88620000D01*
%TO.N,Net-(R1-Pad1)*%
X48805500Y-10289090D02*
X48805500Y-7944006D01*
X27034192Y-11615489D02*
X47479101Y-11615489D01*
X47479101Y-11615489D02*
X48805500Y-10289090D01*
X26030800Y-10612097D02*
X27034192Y-11615489D01*
%TO.N,Net-(R2-Pad1)*%
X34379755Y-31300245D02*
X34379755Y-24979341D01*
X46698501Y-9670892D02*
X46677102Y-9692291D01*
X37739937Y-10441478D02*
X36847987Y-9549528D01*
X46676385Y-9692291D02*
X46302408Y-10066268D01*
X46677102Y-9692291D02*
X46676385Y-9692291D01*
X46698501Y-7149499D02*
X46698501Y-9670892D01*
X33240000Y-32440000D02*
X34379755Y-31300245D01*
X46251983Y-10716469D02*
X39047476Y-10716468D01*
X36651963Y-22707133D02*
X37025069Y-22707133D01*
X39047476Y-10716468D02*
X38772486Y-10441478D01*
X34379755Y-24979341D02*
X36651963Y-22707133D01*
X46251983Y-10319541D02*
X46251983Y-10716469D01*
X46302408Y-10066268D02*
X46302408Y-10269116D01*
X46302408Y-10269116D02*
X46251983Y-10319541D01*
X38772486Y-10441478D02*
X37739937Y-10441478D01*
X46990000Y-6858000D02*
X46698501Y-7149499D01*
%TO.N,Net-(R3-Pad1)*%
X39380978Y-13599022D02*
X44222532Y-13599022D01*
X44222532Y-13599022D02*
X44521755Y-13898245D01*
X35780000Y-17200000D02*
X39380978Y-13599022D01*
%TO.N,Net-(R4-Pad1)*%
X40915000Y-14605000D02*
X43815000Y-14605000D01*
X38320000Y-17200000D02*
X40915000Y-14605000D01*
%TO.N,Net-(R10-Pad2)*%
X56134000Y-80595500D02*
X56134000Y-77216000D01*
X56134000Y-77216000D02*
X55880000Y-76962000D01*
%TO.N,Net-(Q2-Pad1)*%
X25848806Y-12250490D02*
X23495000Y-14604296D01*
X53379977Y-6945023D02*
X48074510Y-12250490D01*
X21529889Y-23818057D02*
X21529889Y-16569407D01*
X23495000Y-14604296D02*
X23495000Y-14605000D01*
X21529889Y-16569407D02*
X23495000Y-14604296D01*
X48074510Y-12250490D02*
X25848806Y-12250490D01*
X22396232Y-24684400D02*
X21529889Y-23818057D01*
X23774400Y-24684400D02*
X22396232Y-24684400D01*
%TO.N,Net-(R26-Pad2)*%
X47734625Y-10683250D02*
X47734625Y-10724261D01*
X47310223Y-11148663D02*
X47269212Y-11148663D01*
X48080999Y-8244105D02*
X48222501Y-8385607D01*
X47269212Y-11148663D02*
X47251896Y-11165979D01*
X27829201Y-11165979D02*
X26051360Y-9388138D01*
X47995979Y-9787613D02*
X47995980Y-10421895D01*
X47251896Y-11165979D02*
X38861283Y-11165979D01*
X47734625Y-10724261D02*
X47310223Y-11148663D01*
X38861283Y-11165979D02*
X38586292Y-10890988D01*
X56896000Y-3302000D02*
X55917499Y-2323499D01*
X48222501Y-9561091D02*
X47995979Y-9787613D01*
X47995980Y-10421895D02*
X47734625Y-10683250D01*
X48080999Y-7643907D02*
X48080999Y-8244105D01*
X53401407Y-2323499D02*
X48080999Y-7643907D01*
X55917499Y-2323499D02*
X53401407Y-2323499D01*
X32922604Y-10890988D02*
X32647614Y-11165978D01*
X38586292Y-10890988D02*
X32922604Y-10890988D01*
X48222501Y-8385607D02*
X48222501Y-9561091D01*
X32647614Y-11165978D02*
X27829201Y-11165979D01*
%TD*%
M02*
