%TF.GenerationSoftware,KiCad,Pcbnew,(6.0.0)*%
%TF.CreationDate,2023-02-05T23:32:21-08:00*%
%TF.ProjectId,Luciebox_v5,4c756369-6562-46f7-985f-76352e6b6963,rev?*%
%TF.SameCoordinates,Original*%
%TF.FileFunction,Legend,Top*%
%TF.FilePolarity,Positive*%
%FSLAX46Y46*%
G04 Gerber Fmt 4.6, Leading zero omitted, Abs format (unit mm)*
G04 Created by KiCad (PCBNEW (6.0.0)) date 2023-02-05 23:32:21*
%MOMM*%
%LPD*%
G01*
G04 APERTURE LIST*
%ADD10C,0.150000*%
%ADD11C,0.254000*%
%ADD12C,0.120000*%
G04 APERTURE END LIST*
D10*
X58940700Y-25425400D02*
X58940700Y-27965400D01*
X61480700Y-15265400D02*
X61480700Y-22885400D01*
X51320700Y-30505400D02*
X51320700Y-33045400D01*
X48780700Y-15519400D02*
X48780700Y-15265400D01*
X17145000Y-3175000D02*
X14605000Y-4445000D01*
X51320700Y-15265400D02*
X51320700Y-22885400D01*
X16510000Y-64770000D02*
X14605000Y-64135000D01*
X16510000Y-64770000D02*
X16510000Y-62865000D01*
X53860700Y-15265400D02*
X53860700Y-22885400D01*
X14605000Y-4445000D02*
X14605000Y-62230000D01*
X66560700Y-33299400D02*
X66560700Y-15265400D01*
X40640000Y-1905000D02*
X40640000Y-66675000D01*
X56400700Y-25425400D02*
X56400700Y-27965400D01*
X61480700Y-25425400D02*
X61480700Y-27965400D01*
X64020700Y-25425400D02*
X64020700Y-27965400D01*
X53860700Y-25425400D02*
X53860700Y-27965400D01*
X14605000Y-62230000D02*
X16510000Y-64770000D01*
X30480000Y-1905000D02*
X30480000Y-66675000D01*
X58940700Y-15265400D02*
X58940700Y-22885400D01*
X61480700Y-30505400D02*
X61480700Y-33045400D01*
X20320000Y-1905000D02*
X20320000Y-66675000D01*
X64020700Y-15265400D02*
X64020700Y-22885400D01*
X58940700Y-30505400D02*
X58940700Y-33045400D01*
X53860700Y-30505400D02*
X53860700Y-33045400D01*
X48780700Y-33045400D02*
X48780700Y-15519400D01*
X56400700Y-15265400D02*
X56400700Y-22885400D01*
X51320700Y-25425400D02*
X51320700Y-27965400D01*
X56400700Y-30505400D02*
X56400700Y-33045400D01*
X64020700Y-30505400D02*
X64020700Y-33045400D01*
X17321785Y-30422380D02*
X16845595Y-30422380D01*
X16845595Y-29422380D01*
X18083690Y-29755714D02*
X18083690Y-30422380D01*
X17655119Y-29755714D02*
X17655119Y-30279523D01*
X17702738Y-30374761D01*
X17797976Y-30422380D01*
X17940833Y-30422380D01*
X18036071Y-30374761D01*
X18083690Y-30327142D01*
X18988452Y-30374761D02*
X18893214Y-30422380D01*
X18702738Y-30422380D01*
X18607500Y-30374761D01*
X18559880Y-30327142D01*
X18512261Y-30231904D01*
X18512261Y-29946190D01*
X18559880Y-29850952D01*
X18607500Y-29803333D01*
X18702738Y-29755714D01*
X18893214Y-29755714D01*
X18988452Y-29803333D01*
X19417023Y-30422380D02*
X19417023Y-29755714D01*
X19417023Y-29422380D02*
X19369404Y-29470000D01*
X19417023Y-29517619D01*
X19464642Y-29470000D01*
X19417023Y-29422380D01*
X19417023Y-29517619D01*
X20274166Y-30374761D02*
X20178928Y-30422380D01*
X19988452Y-30422380D01*
X19893214Y-30374761D01*
X19845595Y-30279523D01*
X19845595Y-29898571D01*
X19893214Y-29803333D01*
X19988452Y-29755714D01*
X20178928Y-29755714D01*
X20274166Y-29803333D01*
X20321785Y-29898571D01*
X20321785Y-29993809D01*
X19845595Y-30089047D01*
X20750357Y-30422380D02*
X20750357Y-29422380D01*
X20750357Y-29803333D02*
X20845595Y-29755714D01*
X21036071Y-29755714D01*
X21131309Y-29803333D01*
X21178928Y-29850952D01*
X21226547Y-29946190D01*
X21226547Y-30231904D01*
X21178928Y-30327142D01*
X21131309Y-30374761D01*
X21036071Y-30422380D01*
X20845595Y-30422380D01*
X20750357Y-30374761D01*
X21797976Y-30422380D02*
X21702738Y-30374761D01*
X21655119Y-30327142D01*
X21607500Y-30231904D01*
X21607500Y-29946190D01*
X21655119Y-29850952D01*
X21702738Y-29803333D01*
X21797976Y-29755714D01*
X21940833Y-29755714D01*
X22036071Y-29803333D01*
X22083690Y-29850952D01*
X22131309Y-29946190D01*
X22131309Y-30231904D01*
X22083690Y-30327142D01*
X22036071Y-30374761D01*
X21940833Y-30422380D01*
X21797976Y-30422380D01*
X22464642Y-30422380D02*
X22988452Y-29755714D01*
X22464642Y-29755714D02*
X22988452Y-30422380D01*
X24036071Y-29755714D02*
X24274166Y-30422380D01*
X24512261Y-29755714D01*
X25369404Y-29422380D02*
X24893214Y-29422380D01*
X24845595Y-29898571D01*
X24893214Y-29850952D01*
X24988452Y-29803333D01*
X25226547Y-29803333D01*
X25321785Y-29850952D01*
X25369404Y-29898571D01*
X25417023Y-29993809D01*
X25417023Y-30231904D01*
X25369404Y-30327142D01*
X25321785Y-30374761D01*
X25226547Y-30422380D01*
X24988452Y-30422380D01*
X24893214Y-30374761D01*
X24845595Y-30327142D01*
X25845595Y-30327142D02*
X25893214Y-30374761D01*
X25845595Y-30422380D01*
X25797976Y-30374761D01*
X25845595Y-30327142D01*
X25845595Y-30422380D01*
X26512261Y-29422380D02*
X26607500Y-29422380D01*
X26702738Y-29470000D01*
X26750357Y-29517619D01*
X26797976Y-29612857D01*
X26845595Y-29803333D01*
X26845595Y-30041428D01*
X26797976Y-30231904D01*
X26750357Y-30327142D01*
X26702738Y-30374761D01*
X26607500Y-30422380D01*
X26512261Y-30422380D01*
X26417023Y-30374761D01*
X26369404Y-30327142D01*
X26321785Y-30231904D01*
X26274166Y-30041428D01*
X26274166Y-29803333D01*
X26321785Y-29612857D01*
X26369404Y-29517619D01*
X26417023Y-29470000D01*
X26512261Y-29422380D01*
X17274166Y-32032380D02*
X17274166Y-31508571D01*
X17226547Y-31413333D01*
X17131309Y-31365714D01*
X16940833Y-31365714D01*
X16845595Y-31413333D01*
X17274166Y-31984761D02*
X17178928Y-32032380D01*
X16940833Y-32032380D01*
X16845595Y-31984761D01*
X16797976Y-31889523D01*
X16797976Y-31794285D01*
X16845595Y-31699047D01*
X16940833Y-31651428D01*
X17178928Y-31651428D01*
X17274166Y-31603809D01*
X18512261Y-31365714D02*
X18512261Y-32032380D01*
X18512261Y-31460952D02*
X18559880Y-31413333D01*
X18655119Y-31365714D01*
X18797976Y-31365714D01*
X18893214Y-31413333D01*
X18940833Y-31508571D01*
X18940833Y-32032380D01*
X19559880Y-32032380D02*
X19464642Y-31984761D01*
X19417023Y-31937142D01*
X19369404Y-31841904D01*
X19369404Y-31556190D01*
X19417023Y-31460952D01*
X19464642Y-31413333D01*
X19559880Y-31365714D01*
X19702738Y-31365714D01*
X19797976Y-31413333D01*
X19845595Y-31460952D01*
X19893214Y-31556190D01*
X19893214Y-31841904D01*
X19845595Y-31937142D01*
X19797976Y-31984761D01*
X19702738Y-32032380D01*
X19559880Y-32032380D01*
X20321785Y-31365714D02*
X20321785Y-32032380D01*
X20321785Y-31460952D02*
X20369404Y-31413333D01*
X20464642Y-31365714D01*
X20607500Y-31365714D01*
X20702738Y-31413333D01*
X20750357Y-31508571D01*
X20750357Y-32032380D01*
X21226547Y-32032380D02*
X21226547Y-31032380D01*
X21321785Y-31651428D02*
X21607500Y-32032380D01*
X21607500Y-31365714D02*
X21226547Y-31746666D01*
X22417023Y-31984761D02*
X22321785Y-32032380D01*
X22131309Y-32032380D01*
X22036071Y-31984761D01*
X21988452Y-31889523D01*
X21988452Y-31508571D01*
X22036071Y-31413333D01*
X22131309Y-31365714D01*
X22321785Y-31365714D01*
X22417023Y-31413333D01*
X22464642Y-31508571D01*
X22464642Y-31603809D01*
X21988452Y-31699047D01*
X23036071Y-32032380D02*
X22940833Y-31984761D01*
X22893214Y-31889523D01*
X22893214Y-31032380D01*
X24655119Y-32032380D02*
X24178928Y-32032380D01*
X24178928Y-31032380D01*
X25131309Y-32032380D02*
X25036071Y-31984761D01*
X24988452Y-31937142D01*
X24940833Y-31841904D01*
X24940833Y-31556190D01*
X24988452Y-31460952D01*
X25036071Y-31413333D01*
X25131309Y-31365714D01*
X25274166Y-31365714D01*
X25369404Y-31413333D01*
X25417023Y-31460952D01*
X25464642Y-31556190D01*
X25464642Y-31841904D01*
X25417023Y-31937142D01*
X25369404Y-31984761D01*
X25274166Y-32032380D01*
X25131309Y-32032380D01*
X26321785Y-32032380D02*
X26321785Y-31032380D01*
X26321785Y-31984761D02*
X26226547Y-32032380D01*
X26036071Y-32032380D01*
X25940833Y-31984761D01*
X25893214Y-31937142D01*
X25845595Y-31841904D01*
X25845595Y-31556190D01*
X25893214Y-31460952D01*
X25940833Y-31413333D01*
X26036071Y-31365714D01*
X26226547Y-31365714D01*
X26321785Y-31413333D01*
X27178928Y-31984761D02*
X27083690Y-32032380D01*
X26893214Y-32032380D01*
X26797976Y-31984761D01*
X26750357Y-31889523D01*
X26750357Y-31508571D01*
X26797976Y-31413333D01*
X26893214Y-31365714D01*
X27083690Y-31365714D01*
X27178928Y-31413333D01*
X27226547Y-31508571D01*
X27226547Y-31603809D01*
X26750357Y-31699047D01*
X28417023Y-31365714D02*
X28417023Y-32365714D01*
X28417023Y-31413333D02*
X28512261Y-31365714D01*
X28702738Y-31365714D01*
X28797976Y-31413333D01*
X28845595Y-31460952D01*
X28893214Y-31556190D01*
X28893214Y-31841904D01*
X28845595Y-31937142D01*
X28797976Y-31984761D01*
X28702738Y-32032380D01*
X28512261Y-32032380D01*
X28417023Y-31984761D01*
X29321785Y-32032380D02*
X29321785Y-31365714D01*
X29321785Y-31556190D02*
X29369404Y-31460952D01*
X29417023Y-31413333D01*
X29512261Y-31365714D01*
X29607500Y-31365714D01*
X30083690Y-32032380D02*
X29988452Y-31984761D01*
X29940833Y-31937142D01*
X29893214Y-31841904D01*
X29893214Y-31556190D01*
X29940833Y-31460952D01*
X29988452Y-31413333D01*
X30083690Y-31365714D01*
X30226547Y-31365714D01*
X30321785Y-31413333D01*
X30369404Y-31460952D01*
X30417023Y-31556190D01*
X30417023Y-31841904D01*
X30369404Y-31937142D01*
X30321785Y-31984761D01*
X30226547Y-32032380D01*
X30083690Y-32032380D01*
X31274166Y-32032380D02*
X31274166Y-31032380D01*
X31274166Y-31984761D02*
X31178928Y-32032380D01*
X30988452Y-32032380D01*
X30893214Y-31984761D01*
X30845595Y-31937142D01*
X30797976Y-31841904D01*
X30797976Y-31556190D01*
X30845595Y-31460952D01*
X30893214Y-31413333D01*
X30988452Y-31365714D01*
X31178928Y-31365714D01*
X31274166Y-31413333D01*
X32178928Y-31365714D02*
X32178928Y-32032380D01*
X31750357Y-31365714D02*
X31750357Y-31889523D01*
X31797976Y-31984761D01*
X31893214Y-32032380D01*
X32036071Y-32032380D01*
X32131309Y-31984761D01*
X32178928Y-31937142D01*
X33083690Y-31984761D02*
X32988452Y-32032380D01*
X32797976Y-32032380D01*
X32702738Y-31984761D01*
X32655119Y-31937142D01*
X32607500Y-31841904D01*
X32607500Y-31556190D01*
X32655119Y-31460952D01*
X32702738Y-31413333D01*
X32797976Y-31365714D01*
X32988452Y-31365714D01*
X33083690Y-31413333D01*
X33369404Y-31365714D02*
X33750357Y-31365714D01*
X33512261Y-31032380D02*
X33512261Y-31889523D01*
X33559880Y-31984761D01*
X33655119Y-32032380D01*
X33750357Y-32032380D01*
X34083690Y-32032380D02*
X34083690Y-31365714D01*
X34083690Y-31032380D02*
X34036071Y-31080000D01*
X34083690Y-31127619D01*
X34131309Y-31080000D01*
X34083690Y-31032380D01*
X34083690Y-31127619D01*
X34702738Y-32032380D02*
X34607500Y-31984761D01*
X34559880Y-31937142D01*
X34512261Y-31841904D01*
X34512261Y-31556190D01*
X34559880Y-31460952D01*
X34607500Y-31413333D01*
X34702738Y-31365714D01*
X34845595Y-31365714D01*
X34940833Y-31413333D01*
X34988452Y-31460952D01*
X35036071Y-31556190D01*
X35036071Y-31841904D01*
X34988452Y-31937142D01*
X34940833Y-31984761D01*
X34845595Y-32032380D01*
X34702738Y-32032380D01*
X35464642Y-31365714D02*
X35464642Y-32032380D01*
X35464642Y-31460952D02*
X35512261Y-31413333D01*
X35607500Y-31365714D01*
X35750357Y-31365714D01*
X35845595Y-31413333D01*
X35893214Y-31508571D01*
X35893214Y-32032380D01*
X16797976Y-32737619D02*
X16845595Y-32690000D01*
X16940833Y-32642380D01*
X17178928Y-32642380D01*
X17274166Y-32690000D01*
X17321785Y-32737619D01*
X17369404Y-32832857D01*
X17369404Y-32928095D01*
X17321785Y-33070952D01*
X16750357Y-33642380D01*
X17369404Y-33642380D01*
X17988452Y-32642380D02*
X18083690Y-32642380D01*
X18178928Y-32690000D01*
X18226547Y-32737619D01*
X18274166Y-32832857D01*
X18321785Y-33023333D01*
X18321785Y-33261428D01*
X18274166Y-33451904D01*
X18226547Y-33547142D01*
X18178928Y-33594761D01*
X18083690Y-33642380D01*
X17988452Y-33642380D01*
X17893214Y-33594761D01*
X17845595Y-33547142D01*
X17797976Y-33451904D01*
X17750357Y-33261428D01*
X17750357Y-33023333D01*
X17797976Y-32832857D01*
X17845595Y-32737619D01*
X17893214Y-32690000D01*
X17988452Y-32642380D01*
X18702738Y-32737619D02*
X18750357Y-32690000D01*
X18845595Y-32642380D01*
X19083690Y-32642380D01*
X19178928Y-32690000D01*
X19226547Y-32737619D01*
X19274166Y-32832857D01*
X19274166Y-32928095D01*
X19226547Y-33070952D01*
X18655119Y-33642380D01*
X19274166Y-33642380D01*
X19607500Y-32642380D02*
X20226547Y-32642380D01*
X19893214Y-33023333D01*
X20036071Y-33023333D01*
X20131309Y-33070952D01*
X20178928Y-33118571D01*
X20226547Y-33213809D01*
X20226547Y-33451904D01*
X20178928Y-33547142D01*
X20131309Y-33594761D01*
X20036071Y-33642380D01*
X19750357Y-33642380D01*
X19655119Y-33594761D01*
X19607500Y-33547142D01*
X20655119Y-33261428D02*
X21417023Y-33261428D01*
X22083690Y-32642380D02*
X22178928Y-32642380D01*
X22274166Y-32690000D01*
X22321785Y-32737619D01*
X22369404Y-32832857D01*
X22417023Y-33023333D01*
X22417023Y-33261428D01*
X22369404Y-33451904D01*
X22321785Y-33547142D01*
X22274166Y-33594761D01*
X22178928Y-33642380D01*
X22083690Y-33642380D01*
X21988452Y-33594761D01*
X21940833Y-33547142D01*
X21893214Y-33451904D01*
X21845595Y-33261428D01*
X21845595Y-33023333D01*
X21893214Y-32832857D01*
X21940833Y-32737619D01*
X21988452Y-32690000D01*
X22083690Y-32642380D01*
X22797976Y-32737619D02*
X22845595Y-32690000D01*
X22940833Y-32642380D01*
X23178928Y-32642380D01*
X23274166Y-32690000D01*
X23321785Y-32737619D01*
X23369404Y-32832857D01*
X23369404Y-32928095D01*
X23321785Y-33070952D01*
X22750357Y-33642380D01*
X23369404Y-33642380D01*
X16988452Y-35252380D02*
X16893214Y-35204761D01*
X16845595Y-35109523D01*
X16845595Y-34252380D01*
X17797976Y-34585714D02*
X17797976Y-35252380D01*
X17369404Y-34585714D02*
X17369404Y-35109523D01*
X17417023Y-35204761D01*
X17512261Y-35252380D01*
X17655119Y-35252380D01*
X17750357Y-35204761D01*
X17797976Y-35157142D01*
X18702738Y-35204761D02*
X18607500Y-35252380D01*
X18417023Y-35252380D01*
X18321785Y-35204761D01*
X18274166Y-35157142D01*
X18226547Y-35061904D01*
X18226547Y-34776190D01*
X18274166Y-34680952D01*
X18321785Y-34633333D01*
X18417023Y-34585714D01*
X18607500Y-34585714D01*
X18702738Y-34633333D01*
X19131309Y-35252380D02*
X19131309Y-34585714D01*
X19131309Y-34252380D02*
X19083690Y-34300000D01*
X19131309Y-34347619D01*
X19178928Y-34300000D01*
X19131309Y-34252380D01*
X19131309Y-34347619D01*
X19988452Y-35204761D02*
X19893214Y-35252380D01*
X19702738Y-35252380D01*
X19607500Y-35204761D01*
X19559880Y-35109523D01*
X19559880Y-34728571D01*
X19607500Y-34633333D01*
X19702738Y-34585714D01*
X19893214Y-34585714D01*
X19988452Y-34633333D01*
X20036071Y-34728571D01*
X20036071Y-34823809D01*
X19559880Y-34919047D01*
X20464642Y-35252380D02*
X20464642Y-34252380D01*
X20464642Y-34633333D02*
X20559880Y-34585714D01*
X20750357Y-34585714D01*
X20845595Y-34633333D01*
X20893214Y-34680952D01*
X20940833Y-34776190D01*
X20940833Y-35061904D01*
X20893214Y-35157142D01*
X20845595Y-35204761D01*
X20750357Y-35252380D01*
X20559880Y-35252380D01*
X20464642Y-35204761D01*
X21512261Y-35252380D02*
X21417023Y-35204761D01*
X21369404Y-35157142D01*
X21321785Y-35061904D01*
X21321785Y-34776190D01*
X21369404Y-34680952D01*
X21417023Y-34633333D01*
X21512261Y-34585714D01*
X21655119Y-34585714D01*
X21750357Y-34633333D01*
X21797976Y-34680952D01*
X21845595Y-34776190D01*
X21845595Y-35061904D01*
X21797976Y-35157142D01*
X21750357Y-35204761D01*
X21655119Y-35252380D01*
X21512261Y-35252380D01*
X22178928Y-35252380D02*
X22702738Y-34585714D01*
X22178928Y-34585714D02*
X22702738Y-35252380D01*
X23083690Y-35157142D02*
X23131309Y-35204761D01*
X23083690Y-35252380D01*
X23036071Y-35204761D01*
X23083690Y-35157142D01*
X23083690Y-35252380D01*
X23988452Y-35252380D02*
X23988452Y-34728571D01*
X23940833Y-34633333D01*
X23845595Y-34585714D01*
X23655119Y-34585714D01*
X23559880Y-34633333D01*
X23988452Y-35204761D02*
X23893214Y-35252380D01*
X23655119Y-35252380D01*
X23559880Y-35204761D01*
X23512261Y-35109523D01*
X23512261Y-35014285D01*
X23559880Y-34919047D01*
X23655119Y-34871428D01*
X23893214Y-34871428D01*
X23988452Y-34823809D01*
X24464642Y-35252380D02*
X24464642Y-34585714D01*
X24464642Y-34680952D02*
X24512261Y-34633333D01*
X24607500Y-34585714D01*
X24750357Y-34585714D01*
X24845595Y-34633333D01*
X24893214Y-34728571D01*
X24893214Y-35252380D01*
X24893214Y-34728571D02*
X24940833Y-34633333D01*
X25036071Y-34585714D01*
X25178928Y-34585714D01*
X25274166Y-34633333D01*
X25321785Y-34728571D01*
X25321785Y-35252380D01*
X26178928Y-35204761D02*
X26083690Y-35252380D01*
X25893214Y-35252380D01*
X25797976Y-35204761D01*
X25750357Y-35109523D01*
X25750357Y-34728571D01*
X25797976Y-34633333D01*
X25893214Y-34585714D01*
X26083690Y-34585714D01*
X26178928Y-34633333D01*
X26226547Y-34728571D01*
X26226547Y-34823809D01*
X25750357Y-34919047D01*
X26655119Y-35252380D02*
X26655119Y-34585714D01*
X26655119Y-34252380D02*
X26607500Y-34300000D01*
X26655119Y-34347619D01*
X26702738Y-34300000D01*
X26655119Y-34252380D01*
X26655119Y-34347619D01*
X27131309Y-34585714D02*
X27131309Y-35442857D01*
X27083690Y-35538095D01*
X26988452Y-35585714D01*
X26940833Y-35585714D01*
X27131309Y-34252380D02*
X27083690Y-34300000D01*
X27131309Y-34347619D01*
X27178928Y-34300000D01*
X27131309Y-34252380D01*
X27131309Y-34347619D01*
X27988452Y-35204761D02*
X27893214Y-35252380D01*
X27702738Y-35252380D01*
X27607500Y-35204761D01*
X27559880Y-35109523D01*
X27559880Y-34728571D01*
X27607500Y-34633333D01*
X27702738Y-34585714D01*
X27893214Y-34585714D01*
X27988452Y-34633333D01*
X28036071Y-34728571D01*
X28036071Y-34823809D01*
X27559880Y-34919047D01*
X28464642Y-35157142D02*
X28512261Y-35204761D01*
X28464642Y-35252380D01*
X28417023Y-35204761D01*
X28464642Y-35157142D01*
X28464642Y-35252380D01*
X29369404Y-35204761D02*
X29274166Y-35252380D01*
X29083690Y-35252380D01*
X28988452Y-35204761D01*
X28940833Y-35157142D01*
X28893214Y-35061904D01*
X28893214Y-34776190D01*
X28940833Y-34680952D01*
X28988452Y-34633333D01*
X29083690Y-34585714D01*
X29274166Y-34585714D01*
X29369404Y-34633333D01*
X29940833Y-35252380D02*
X29845595Y-35204761D01*
X29797976Y-35157142D01*
X29750357Y-35061904D01*
X29750357Y-34776190D01*
X29797976Y-34680952D01*
X29845595Y-34633333D01*
X29940833Y-34585714D01*
X30083690Y-34585714D01*
X30178928Y-34633333D01*
X30226547Y-34680952D01*
X30274166Y-34776190D01*
X30274166Y-35061904D01*
X30226547Y-35157142D01*
X30178928Y-35204761D01*
X30083690Y-35252380D01*
X29940833Y-35252380D01*
X30702738Y-35252380D02*
X30702738Y-34585714D01*
X30702738Y-34680952D02*
X30750357Y-34633333D01*
X30845595Y-34585714D01*
X30988452Y-34585714D01*
X31083690Y-34633333D01*
X31131309Y-34728571D01*
X31131309Y-35252380D01*
X31131309Y-34728571D02*
X31178928Y-34633333D01*
X31274166Y-34585714D01*
X31417023Y-34585714D01*
X31512261Y-34633333D01*
X31559880Y-34728571D01*
X31559880Y-35252380D01*
X18029809Y-66482261D02*
X18029809Y-65910833D01*
X19629809Y-66196547D02*
X18029809Y-66196547D01*
X18715523Y-65434642D02*
X18639333Y-65529880D01*
X18563142Y-65577500D01*
X18410761Y-65625119D01*
X18334571Y-65625119D01*
X18182190Y-65577500D01*
X18106000Y-65529880D01*
X18029809Y-65434642D01*
X18029809Y-65244166D01*
X18106000Y-65148928D01*
X18182190Y-65101309D01*
X18334571Y-65053690D01*
X18410761Y-65053690D01*
X18563142Y-65101309D01*
X18639333Y-65148928D01*
X18715523Y-65244166D01*
X18715523Y-65434642D01*
X18791714Y-65529880D01*
X18867904Y-65577500D01*
X19020285Y-65625119D01*
X19325047Y-65625119D01*
X19477428Y-65577500D01*
X19553619Y-65529880D01*
X19629809Y-65434642D01*
X19629809Y-65244166D01*
X19553619Y-65148928D01*
X19477428Y-65101309D01*
X19325047Y-65053690D01*
X19020285Y-65053690D01*
X18867904Y-65101309D01*
X18791714Y-65148928D01*
X18715523Y-65244166D01*
X18563142Y-64006071D02*
X18563142Y-63625119D01*
X18029809Y-63863214D02*
X19401238Y-63863214D01*
X19553619Y-63815595D01*
X19629809Y-63720357D01*
X19629809Y-63625119D01*
X19553619Y-62910833D02*
X19629809Y-63006071D01*
X19629809Y-63196547D01*
X19553619Y-63291785D01*
X19401238Y-63339404D01*
X18791714Y-63339404D01*
X18639333Y-63291785D01*
X18563142Y-63196547D01*
X18563142Y-63006071D01*
X18639333Y-62910833D01*
X18791714Y-62863214D01*
X18944095Y-62863214D01*
X19096476Y-63339404D01*
X19629809Y-62434642D02*
X18563142Y-62434642D01*
X18867904Y-62434642D02*
X18715523Y-62387023D01*
X18639333Y-62339404D01*
X18563142Y-62244166D01*
X18563142Y-62148928D01*
X19629809Y-61815595D02*
X18563142Y-61815595D01*
X18715523Y-61815595D02*
X18639333Y-61767976D01*
X18563142Y-61672738D01*
X18563142Y-61529880D01*
X18639333Y-61434642D01*
X18791714Y-61387023D01*
X19629809Y-61387023D01*
X18791714Y-61387023D02*
X18639333Y-61339404D01*
X18563142Y-61244166D01*
X18563142Y-61101309D01*
X18639333Y-61006071D01*
X18791714Y-60958452D01*
X19629809Y-60958452D01*
X19629809Y-60482261D02*
X18563142Y-60482261D01*
X18029809Y-60482261D02*
X18106000Y-60529880D01*
X18182190Y-60482261D01*
X18106000Y-60434642D01*
X18029809Y-60482261D01*
X18182190Y-60482261D01*
X18563142Y-60006071D02*
X19629809Y-60006071D01*
X18715523Y-60006071D02*
X18639333Y-59958452D01*
X18563142Y-59863214D01*
X18563142Y-59720357D01*
X18639333Y-59625119D01*
X18791714Y-59577500D01*
X19629809Y-59577500D01*
X19629809Y-58672738D02*
X18791714Y-58672738D01*
X18639333Y-58720357D01*
X18563142Y-58815595D01*
X18563142Y-59006071D01*
X18639333Y-59101309D01*
X19553619Y-58672738D02*
X19629809Y-58767976D01*
X19629809Y-59006071D01*
X19553619Y-59101309D01*
X19401238Y-59148928D01*
X19248857Y-59148928D01*
X19096476Y-59101309D01*
X19020285Y-59006071D01*
X19020285Y-58767976D01*
X18944095Y-58672738D01*
X19629809Y-58053690D02*
X19553619Y-58148928D01*
X19401238Y-58196547D01*
X18029809Y-58196547D01*
X19553619Y-57720357D02*
X19629809Y-57625119D01*
X19629809Y-57434642D01*
X19553619Y-57339404D01*
X19401238Y-57291785D01*
X19325047Y-57291785D01*
X19172666Y-57339404D01*
X19096476Y-57434642D01*
X19096476Y-57577500D01*
X19020285Y-57672738D01*
X18867904Y-57720357D01*
X18791714Y-57720357D01*
X18639333Y-57672738D01*
X18563142Y-57577500D01*
X18563142Y-57434642D01*
X18639333Y-57339404D01*
X19477428Y-56863214D02*
X19553619Y-56815595D01*
X19629809Y-56863214D01*
X19553619Y-56910833D01*
X19477428Y-56863214D01*
X19629809Y-56863214D01*
X18639333Y-56863214D02*
X18715523Y-56815595D01*
X18791714Y-56863214D01*
X18715523Y-56910833D01*
X18639333Y-56863214D01*
X18791714Y-56863214D01*
X22205809Y-65815595D02*
X22205809Y-66387023D01*
X22205809Y-66101309D02*
X20605809Y-66101309D01*
X20834380Y-66196547D01*
X20986761Y-66291785D01*
X21062952Y-66387023D01*
X22053428Y-65387023D02*
X22129619Y-65339404D01*
X22205809Y-65387023D01*
X22129619Y-65434642D01*
X22053428Y-65387023D01*
X22205809Y-65387023D01*
X22129619Y-64196547D02*
X22205809Y-64053690D01*
X22205809Y-63815595D01*
X22129619Y-63720357D01*
X22053428Y-63672738D01*
X21901047Y-63625119D01*
X21748666Y-63625119D01*
X21596285Y-63672738D01*
X21520095Y-63720357D01*
X21443904Y-63815595D01*
X21367714Y-64006071D01*
X21291523Y-64101309D01*
X21215333Y-64148928D01*
X21062952Y-64196547D01*
X20910571Y-64196547D01*
X20758190Y-64148928D01*
X20682000Y-64101309D01*
X20605809Y-64006071D01*
X20605809Y-63767976D01*
X20682000Y-63625119D01*
X20605809Y-63291785D02*
X22205809Y-63053690D01*
X21062952Y-62863214D01*
X22205809Y-62672738D01*
X20605809Y-62434642D01*
X22205809Y-62053690D02*
X20605809Y-62053690D01*
X20605809Y-61720357D02*
X20605809Y-61148928D01*
X22205809Y-61434642D02*
X20605809Y-61434642D01*
X22053428Y-60244166D02*
X22129619Y-60291785D01*
X22205809Y-60434642D01*
X22205809Y-60529880D01*
X22129619Y-60672738D01*
X21977238Y-60767976D01*
X21824857Y-60815595D01*
X21520095Y-60863214D01*
X21291523Y-60863214D01*
X20986761Y-60815595D01*
X20834380Y-60767976D01*
X20682000Y-60672738D01*
X20605809Y-60529880D01*
X20605809Y-60434642D01*
X20682000Y-60291785D01*
X20758190Y-60244166D01*
X22205809Y-59815595D02*
X20605809Y-59815595D01*
X21367714Y-59815595D02*
X21367714Y-59244166D01*
X22205809Y-59244166D02*
X20605809Y-59244166D01*
X20605809Y-58006071D02*
X21901047Y-58006071D01*
X22053428Y-57958452D01*
X22129619Y-57910833D01*
X22205809Y-57815595D01*
X22205809Y-57625119D01*
X22129619Y-57529880D01*
X22053428Y-57482261D01*
X21901047Y-57434642D01*
X20605809Y-57434642D01*
X22129619Y-57006071D02*
X22205809Y-56863214D01*
X22205809Y-56625119D01*
X22129619Y-56529880D01*
X22053428Y-56482261D01*
X21901047Y-56434642D01*
X21748666Y-56434642D01*
X21596285Y-56482261D01*
X21520095Y-56529880D01*
X21443904Y-56625119D01*
X21367714Y-56815595D01*
X21291523Y-56910833D01*
X21215333Y-56958452D01*
X21062952Y-57006071D01*
X20910571Y-57006071D01*
X20758190Y-56958452D01*
X20682000Y-56910833D01*
X20605809Y-56815595D01*
X20605809Y-56577500D01*
X20682000Y-56434642D01*
X21367714Y-55672738D02*
X21443904Y-55529880D01*
X21520095Y-55482261D01*
X21672476Y-55434642D01*
X21901047Y-55434642D01*
X22053428Y-55482261D01*
X22129619Y-55529880D01*
X22205809Y-55625119D01*
X22205809Y-56006071D01*
X20605809Y-56006071D01*
X20605809Y-55672738D01*
X20682000Y-55577500D01*
X20758190Y-55529880D01*
X20910571Y-55482261D01*
X21062952Y-55482261D01*
X21215333Y-55529880D01*
X21291523Y-55577500D01*
X21367714Y-55672738D01*
X21367714Y-56006071D01*
X23334190Y-66387023D02*
X23258000Y-66339404D01*
X23181809Y-66244166D01*
X23181809Y-66006071D01*
X23258000Y-65910833D01*
X23334190Y-65863214D01*
X23486571Y-65815595D01*
X23638952Y-65815595D01*
X23867523Y-65863214D01*
X24781809Y-66434642D01*
X24781809Y-65815595D01*
X24629428Y-65387023D02*
X24705619Y-65339404D01*
X24781809Y-65387023D01*
X24705619Y-65434642D01*
X24629428Y-65387023D01*
X24781809Y-65387023D01*
X24705619Y-64196547D02*
X24781809Y-64053690D01*
X24781809Y-63815595D01*
X24705619Y-63720357D01*
X24629428Y-63672738D01*
X24477047Y-63625119D01*
X24324666Y-63625119D01*
X24172285Y-63672738D01*
X24096095Y-63720357D01*
X24019904Y-63815595D01*
X23943714Y-64006071D01*
X23867523Y-64101309D01*
X23791333Y-64148928D01*
X23638952Y-64196547D01*
X23486571Y-64196547D01*
X23334190Y-64148928D01*
X23258000Y-64101309D01*
X23181809Y-64006071D01*
X23181809Y-63767976D01*
X23258000Y-63625119D01*
X23181809Y-63291785D02*
X24781809Y-63053690D01*
X23638952Y-62863214D01*
X24781809Y-62672738D01*
X23181809Y-62434642D01*
X24781809Y-62053690D02*
X23181809Y-62053690D01*
X23181809Y-61720357D02*
X23181809Y-61148928D01*
X24781809Y-61434642D02*
X23181809Y-61434642D01*
X24629428Y-60244166D02*
X24705619Y-60291785D01*
X24781809Y-60434642D01*
X24781809Y-60529880D01*
X24705619Y-60672738D01*
X24553238Y-60767976D01*
X24400857Y-60815595D01*
X24096095Y-60863214D01*
X23867523Y-60863214D01*
X23562761Y-60815595D01*
X23410380Y-60767976D01*
X23258000Y-60672738D01*
X23181809Y-60529880D01*
X23181809Y-60434642D01*
X23258000Y-60291785D01*
X23334190Y-60244166D01*
X24781809Y-59815595D02*
X23181809Y-59815595D01*
X23943714Y-59815595D02*
X23943714Y-59244166D01*
X24781809Y-59244166D02*
X23181809Y-59244166D01*
X23181809Y-58006071D02*
X24477047Y-58006071D01*
X24629428Y-57958452D01*
X24705619Y-57910833D01*
X24781809Y-57815595D01*
X24781809Y-57625119D01*
X24705619Y-57529880D01*
X24629428Y-57482261D01*
X24477047Y-57434642D01*
X23181809Y-57434642D01*
X24705619Y-57006071D02*
X24781809Y-56863214D01*
X24781809Y-56625119D01*
X24705619Y-56529880D01*
X24629428Y-56482261D01*
X24477047Y-56434642D01*
X24324666Y-56434642D01*
X24172285Y-56482261D01*
X24096095Y-56529880D01*
X24019904Y-56625119D01*
X23943714Y-56815595D01*
X23867523Y-56910833D01*
X23791333Y-56958452D01*
X23638952Y-57006071D01*
X23486571Y-57006071D01*
X23334190Y-56958452D01*
X23258000Y-56910833D01*
X23181809Y-56815595D01*
X23181809Y-56577500D01*
X23258000Y-56434642D01*
X23943714Y-55672738D02*
X24019904Y-55529880D01*
X24096095Y-55482261D01*
X24248476Y-55434642D01*
X24477047Y-55434642D01*
X24629428Y-55482261D01*
X24705619Y-55529880D01*
X24781809Y-55625119D01*
X24781809Y-56006071D01*
X23181809Y-56006071D01*
X23181809Y-55672738D01*
X23258000Y-55577500D01*
X23334190Y-55529880D01*
X23486571Y-55482261D01*
X23638952Y-55482261D01*
X23791333Y-55529880D01*
X23867523Y-55577500D01*
X23943714Y-55672738D01*
X23943714Y-56006071D01*
X25757809Y-66434642D02*
X25757809Y-65815595D01*
X26367333Y-66148928D01*
X26367333Y-66006071D01*
X26443523Y-65910833D01*
X26519714Y-65863214D01*
X26672095Y-65815595D01*
X27053047Y-65815595D01*
X27205428Y-65863214D01*
X27281619Y-65910833D01*
X27357809Y-66006071D01*
X27357809Y-66291785D01*
X27281619Y-66387023D01*
X27205428Y-66434642D01*
X27205428Y-65387023D02*
X27281619Y-65339404D01*
X27357809Y-65387023D01*
X27281619Y-65434642D01*
X27205428Y-65387023D01*
X27357809Y-65387023D01*
X26519714Y-63815595D02*
X26595904Y-63672738D01*
X26672095Y-63625119D01*
X26824476Y-63577500D01*
X27053047Y-63577500D01*
X27205428Y-63625119D01*
X27281619Y-63672738D01*
X27357809Y-63767976D01*
X27357809Y-64148928D01*
X25757809Y-64148928D01*
X25757809Y-63815595D01*
X25834000Y-63720357D01*
X25910190Y-63672738D01*
X26062571Y-63625119D01*
X26214952Y-63625119D01*
X26367333Y-63672738D01*
X26443523Y-63720357D01*
X26519714Y-63815595D01*
X26519714Y-64148928D01*
X26900666Y-63196547D02*
X26900666Y-62720357D01*
X27357809Y-63291785D02*
X25757809Y-62958452D01*
X27357809Y-62625119D01*
X25757809Y-62434642D02*
X25757809Y-61863214D01*
X27357809Y-62148928D02*
X25757809Y-62148928D01*
X26748285Y-61529880D02*
X26748285Y-60767976D01*
X27357809Y-61148928D02*
X26138761Y-61148928D01*
X28867142Y-65910833D02*
X29933809Y-65910833D01*
X28257619Y-66148928D02*
X29400476Y-66387023D01*
X29400476Y-65767976D01*
X29781428Y-65387023D02*
X29857619Y-65339404D01*
X29933809Y-65387023D01*
X29857619Y-65434642D01*
X29781428Y-65387023D01*
X29933809Y-65387023D01*
X29095714Y-63815595D02*
X29171904Y-63672738D01*
X29248095Y-63625119D01*
X29400476Y-63577500D01*
X29629047Y-63577500D01*
X29781428Y-63625119D01*
X29857619Y-63672738D01*
X29933809Y-63767976D01*
X29933809Y-64148928D01*
X28333809Y-64148928D01*
X28333809Y-63815595D01*
X28410000Y-63720357D01*
X28486190Y-63672738D01*
X28638571Y-63625119D01*
X28790952Y-63625119D01*
X28943333Y-63672738D01*
X29019523Y-63720357D01*
X29095714Y-63815595D01*
X29095714Y-64148928D01*
X29476666Y-63196547D02*
X29476666Y-62720357D01*
X29933809Y-63291785D02*
X28333809Y-62958452D01*
X29933809Y-62625119D01*
X28333809Y-62434642D02*
X28333809Y-61863214D01*
X29933809Y-62148928D02*
X28333809Y-62148928D01*
X29324285Y-61529880D02*
X29324285Y-60767976D01*
X30909809Y-65863214D02*
X30909809Y-66339404D01*
X31671714Y-66387023D01*
X31595523Y-66339404D01*
X31519333Y-66244166D01*
X31519333Y-66006071D01*
X31595523Y-65910833D01*
X31671714Y-65863214D01*
X31824095Y-65815595D01*
X32205047Y-65815595D01*
X32357428Y-65863214D01*
X32433619Y-65910833D01*
X32509809Y-66006071D01*
X32509809Y-66244166D01*
X32433619Y-66339404D01*
X32357428Y-66387023D01*
X32357428Y-65387023D02*
X32433619Y-65339404D01*
X32509809Y-65387023D01*
X32433619Y-65434642D01*
X32357428Y-65387023D01*
X32509809Y-65387023D01*
X32433619Y-64196547D02*
X32509809Y-64053690D01*
X32509809Y-63815595D01*
X32433619Y-63720357D01*
X32357428Y-63672738D01*
X32205047Y-63625119D01*
X32052666Y-63625119D01*
X31900285Y-63672738D01*
X31824095Y-63720357D01*
X31747904Y-63815595D01*
X31671714Y-64006071D01*
X31595523Y-64101309D01*
X31519333Y-64148928D01*
X31366952Y-64196547D01*
X31214571Y-64196547D01*
X31062190Y-64148928D01*
X30986000Y-64101309D01*
X30909809Y-64006071D01*
X30909809Y-63767976D01*
X30986000Y-63625119D01*
X30909809Y-63291785D02*
X32509809Y-63053690D01*
X31366952Y-62863214D01*
X32509809Y-62672738D01*
X30909809Y-62434642D01*
X32509809Y-62053690D02*
X30909809Y-62053690D01*
X30909809Y-61720357D02*
X30909809Y-61148928D01*
X32509809Y-61434642D02*
X30909809Y-61434642D01*
X32357428Y-60244166D02*
X32433619Y-60291785D01*
X32509809Y-60434642D01*
X32509809Y-60529880D01*
X32433619Y-60672738D01*
X32281238Y-60767976D01*
X32128857Y-60815595D01*
X31824095Y-60863214D01*
X31595523Y-60863214D01*
X31290761Y-60815595D01*
X31138380Y-60767976D01*
X30986000Y-60672738D01*
X30909809Y-60529880D01*
X30909809Y-60434642D01*
X30986000Y-60291785D01*
X31062190Y-60244166D01*
X32509809Y-59815595D02*
X30909809Y-59815595D01*
X31671714Y-59815595D02*
X31671714Y-59244166D01*
X32509809Y-59244166D02*
X30909809Y-59244166D01*
X31671714Y-57672738D02*
X31747904Y-57529880D01*
X31824095Y-57482261D01*
X31976476Y-57434642D01*
X32205047Y-57434642D01*
X32357428Y-57482261D01*
X32433619Y-57529880D01*
X32509809Y-57625119D01*
X32509809Y-58006071D01*
X30909809Y-58006071D01*
X30909809Y-57672738D01*
X30986000Y-57577500D01*
X31062190Y-57529880D01*
X31214571Y-57482261D01*
X31366952Y-57482261D01*
X31519333Y-57529880D01*
X31595523Y-57577500D01*
X31671714Y-57672738D01*
X31671714Y-58006071D01*
X32052666Y-57053690D02*
X32052666Y-56577500D01*
X32509809Y-57148928D02*
X30909809Y-56815595D01*
X32509809Y-56482261D01*
X30909809Y-56291785D02*
X30909809Y-55720357D01*
X32509809Y-56006071D02*
X30909809Y-56006071D01*
X33485809Y-65910833D02*
X33485809Y-66101309D01*
X33562000Y-66196547D01*
X33638190Y-66244166D01*
X33866761Y-66339404D01*
X34171523Y-66387023D01*
X34781047Y-66387023D01*
X34933428Y-66339404D01*
X35009619Y-66291785D01*
X35085809Y-66196547D01*
X35085809Y-66006071D01*
X35009619Y-65910833D01*
X34933428Y-65863214D01*
X34781047Y-65815595D01*
X34400095Y-65815595D01*
X34247714Y-65863214D01*
X34171523Y-65910833D01*
X34095333Y-66006071D01*
X34095333Y-66196547D01*
X34171523Y-66291785D01*
X34247714Y-66339404D01*
X34400095Y-66387023D01*
X34933428Y-65387023D02*
X35009619Y-65339404D01*
X35085809Y-65387023D01*
X35009619Y-65434642D01*
X34933428Y-65387023D01*
X35085809Y-65387023D01*
X35009619Y-64196547D02*
X35085809Y-64053690D01*
X35085809Y-63815595D01*
X35009619Y-63720357D01*
X34933428Y-63672738D01*
X34781047Y-63625119D01*
X34628666Y-63625119D01*
X34476285Y-63672738D01*
X34400095Y-63720357D01*
X34323904Y-63815595D01*
X34247714Y-64006071D01*
X34171523Y-64101309D01*
X34095333Y-64148928D01*
X33942952Y-64196547D01*
X33790571Y-64196547D01*
X33638190Y-64148928D01*
X33562000Y-64101309D01*
X33485809Y-64006071D01*
X33485809Y-63767976D01*
X33562000Y-63625119D01*
X33485809Y-63291785D02*
X35085809Y-63053690D01*
X33942952Y-62863214D01*
X35085809Y-62672738D01*
X33485809Y-62434642D01*
X35085809Y-62053690D02*
X33485809Y-62053690D01*
X33485809Y-61720357D02*
X33485809Y-61148928D01*
X35085809Y-61434642D02*
X33485809Y-61434642D01*
X34933428Y-60244166D02*
X35009619Y-60291785D01*
X35085809Y-60434642D01*
X35085809Y-60529880D01*
X35009619Y-60672738D01*
X34857238Y-60767976D01*
X34704857Y-60815595D01*
X34400095Y-60863214D01*
X34171523Y-60863214D01*
X33866761Y-60815595D01*
X33714380Y-60767976D01*
X33562000Y-60672738D01*
X33485809Y-60529880D01*
X33485809Y-60434642D01*
X33562000Y-60291785D01*
X33638190Y-60244166D01*
X35085809Y-59815595D02*
X33485809Y-59815595D01*
X34247714Y-59815595D02*
X34247714Y-59244166D01*
X35085809Y-59244166D02*
X33485809Y-59244166D01*
X34247714Y-57672738D02*
X34323904Y-57529880D01*
X34400095Y-57482261D01*
X34552476Y-57434642D01*
X34781047Y-57434642D01*
X34933428Y-57482261D01*
X35009619Y-57529880D01*
X35085809Y-57625119D01*
X35085809Y-58006071D01*
X33485809Y-58006071D01*
X33485809Y-57672738D01*
X33562000Y-57577500D01*
X33638190Y-57529880D01*
X33790571Y-57482261D01*
X33942952Y-57482261D01*
X34095333Y-57529880D01*
X34171523Y-57577500D01*
X34247714Y-57672738D01*
X34247714Y-58006071D01*
X34628666Y-57053690D02*
X34628666Y-56577500D01*
X35085809Y-57148928D02*
X33485809Y-56815595D01*
X35085809Y-56482261D01*
X33485809Y-56291785D02*
X33485809Y-55720357D01*
X35085809Y-56006071D02*
X33485809Y-56006071D01*
X36061809Y-66434642D02*
X36061809Y-65767976D01*
X37661809Y-66196547D01*
X37509428Y-65387023D02*
X37585619Y-65339404D01*
X37661809Y-65387023D01*
X37585619Y-65434642D01*
X37509428Y-65387023D01*
X37661809Y-65387023D01*
X36138000Y-63625119D02*
X36061809Y-63720357D01*
X36061809Y-63863214D01*
X36138000Y-64006071D01*
X36290380Y-64101309D01*
X36442761Y-64148928D01*
X36747523Y-64196547D01*
X36976095Y-64196547D01*
X37280857Y-64148928D01*
X37433238Y-64101309D01*
X37585619Y-64006071D01*
X37661809Y-63863214D01*
X37661809Y-63767976D01*
X37585619Y-63625119D01*
X37509428Y-63577500D01*
X36976095Y-63577500D01*
X36976095Y-63767976D01*
X37661809Y-63148928D02*
X36061809Y-63148928D01*
X37661809Y-62577500D01*
X36061809Y-62577500D01*
X37661809Y-62101309D02*
X36061809Y-62101309D01*
X36061809Y-61863214D01*
X36138000Y-61720357D01*
X36290380Y-61625119D01*
X36442761Y-61577500D01*
X36747523Y-61529880D01*
X36976095Y-61529880D01*
X37280857Y-61577500D01*
X37433238Y-61625119D01*
X37585619Y-61720357D01*
X37661809Y-61863214D01*
X37661809Y-62101309D01*
X39323523Y-66196547D02*
X39247333Y-66291785D01*
X39171142Y-66339404D01*
X39018761Y-66387023D01*
X38942571Y-66387023D01*
X38790190Y-66339404D01*
X38714000Y-66291785D01*
X38637809Y-66196547D01*
X38637809Y-66006071D01*
X38714000Y-65910833D01*
X38790190Y-65863214D01*
X38942571Y-65815595D01*
X39018761Y-65815595D01*
X39171142Y-65863214D01*
X39247333Y-65910833D01*
X39323523Y-66006071D01*
X39323523Y-66196547D01*
X39399714Y-66291785D01*
X39475904Y-66339404D01*
X39628285Y-66387023D01*
X39933047Y-66387023D01*
X40085428Y-66339404D01*
X40161619Y-66291785D01*
X40237809Y-66196547D01*
X40237809Y-66006071D01*
X40161619Y-65910833D01*
X40085428Y-65863214D01*
X39933047Y-65815595D01*
X39628285Y-65815595D01*
X39475904Y-65863214D01*
X39399714Y-65910833D01*
X39323523Y-66006071D01*
X40085428Y-65387023D02*
X40161619Y-65339404D01*
X40237809Y-65387023D01*
X40161619Y-65434642D01*
X40085428Y-65387023D01*
X40237809Y-65387023D01*
X38637809Y-64291785D02*
X40237809Y-63958452D01*
X38637809Y-63625119D01*
X40085428Y-62720357D02*
X40161619Y-62767976D01*
X40237809Y-62910833D01*
X40237809Y-63006071D01*
X40161619Y-63148928D01*
X40009238Y-63244166D01*
X39856857Y-63291785D01*
X39552095Y-63339404D01*
X39323523Y-63339404D01*
X39018761Y-63291785D01*
X38866380Y-63244166D01*
X38714000Y-63148928D01*
X38637809Y-63006071D01*
X38637809Y-62910833D01*
X38714000Y-62767976D01*
X38790190Y-62720357D01*
X40085428Y-61720357D02*
X40161619Y-61767976D01*
X40237809Y-61910833D01*
X40237809Y-62006071D01*
X40161619Y-62148928D01*
X40009238Y-62244166D01*
X39856857Y-62291785D01*
X39552095Y-62339404D01*
X39323523Y-62339404D01*
X39018761Y-62291785D01*
X38866380Y-62244166D01*
X38714000Y-62148928D01*
X38637809Y-62006071D01*
X38637809Y-61910833D01*
X38714000Y-61767976D01*
X38790190Y-61720357D01*
X40318190Y-8826666D02*
X38718190Y-9160000D01*
X40318190Y-9493333D01*
X38870571Y-10398095D02*
X38794380Y-10350476D01*
X38718190Y-10207619D01*
X38718190Y-10112380D01*
X38794380Y-9969523D01*
X38946761Y-9874285D01*
X39099142Y-9826666D01*
X39403904Y-9779047D01*
X39632476Y-9779047D01*
X39937238Y-9826666D01*
X40089619Y-9874285D01*
X40242000Y-9969523D01*
X40318190Y-10112380D01*
X40318190Y-10207619D01*
X40242000Y-10350476D01*
X40165809Y-10398095D01*
X38870571Y-11398095D02*
X38794380Y-11350476D01*
X38718190Y-11207619D01*
X38718190Y-11112380D01*
X38794380Y-10969523D01*
X38946761Y-10874285D01*
X39099142Y-10826666D01*
X39403904Y-10779047D01*
X39632476Y-10779047D01*
X39937238Y-10826666D01*
X40089619Y-10874285D01*
X40242000Y-10969523D01*
X40318190Y-11112380D01*
X40318190Y-11207619D01*
X40242000Y-11350476D01*
X40165809Y-11398095D01*
X37666000Y-9398095D02*
X37742190Y-9302857D01*
X37742190Y-9160000D01*
X37666000Y-9017142D01*
X37513619Y-8921904D01*
X37361238Y-8874285D01*
X37056476Y-8826666D01*
X36827904Y-8826666D01*
X36523142Y-8874285D01*
X36370761Y-8921904D01*
X36218380Y-9017142D01*
X36142190Y-9160000D01*
X36142190Y-9255238D01*
X36218380Y-9398095D01*
X36294571Y-9445714D01*
X36827904Y-9445714D01*
X36827904Y-9255238D01*
X36142190Y-9874285D02*
X37742190Y-9874285D01*
X36142190Y-10445714D01*
X37742190Y-10445714D01*
X36142190Y-10921904D02*
X37742190Y-10921904D01*
X37742190Y-11160000D01*
X37666000Y-11302857D01*
X37513619Y-11398095D01*
X37361238Y-11445714D01*
X37056476Y-11493333D01*
X36827904Y-11493333D01*
X36523142Y-11445714D01*
X36370761Y-11398095D01*
X36218380Y-11302857D01*
X36142190Y-11160000D01*
X36142190Y-10921904D01*
X35166190Y-9398095D02*
X35166190Y-9969523D01*
X33566190Y-9683809D02*
X35166190Y-9683809D01*
X35166190Y-10207619D02*
X33566190Y-10874285D01*
X35166190Y-10874285D02*
X33566190Y-10207619D01*
X30990190Y-9993333D02*
X31752095Y-9660000D01*
X30990190Y-9421904D02*
X32590190Y-9421904D01*
X32590190Y-9802857D01*
X32514000Y-9898095D01*
X32437809Y-9945714D01*
X32285428Y-9993333D01*
X32056857Y-9993333D01*
X31904476Y-9945714D01*
X31828285Y-9898095D01*
X31752095Y-9802857D01*
X31752095Y-9421904D01*
X32590190Y-10326666D02*
X30990190Y-10993333D01*
X32590190Y-10993333D02*
X30990190Y-10326666D01*
X28414190Y-9612380D02*
X29176095Y-9279047D01*
X28414190Y-9040952D02*
X30014190Y-9040952D01*
X30014190Y-9421904D01*
X29938000Y-9517142D01*
X29861809Y-9564761D01*
X29709428Y-9612380D01*
X29480857Y-9612380D01*
X29328476Y-9564761D01*
X29252285Y-9517142D01*
X29176095Y-9421904D01*
X29176095Y-9040952D01*
X28490380Y-9993333D02*
X28414190Y-10136190D01*
X28414190Y-10374285D01*
X28490380Y-10469523D01*
X28566571Y-10517142D01*
X28718952Y-10564761D01*
X28871333Y-10564761D01*
X29023714Y-10517142D01*
X29099904Y-10469523D01*
X29176095Y-10374285D01*
X29252285Y-10183809D01*
X29328476Y-10088571D01*
X29404666Y-10040952D01*
X29557047Y-9993333D01*
X29709428Y-9993333D01*
X29861809Y-10040952D01*
X29938000Y-10088571D01*
X30014190Y-10183809D01*
X30014190Y-10421904D01*
X29938000Y-10564761D01*
X30014190Y-10850476D02*
X30014190Y-11421904D01*
X28414190Y-11136190D02*
X30014190Y-11136190D01*
%TO.C,R11*%
X56479180Y-76338857D02*
X56002990Y-76672190D01*
X56479180Y-76910285D02*
X55479180Y-76910285D01*
X55479180Y-76529333D01*
X55526800Y-76434095D01*
X55574419Y-76386476D01*
X55669657Y-76338857D01*
X55812514Y-76338857D01*
X55907752Y-76386476D01*
X55955371Y-76434095D01*
X56002990Y-76529333D01*
X56002990Y-76910285D01*
X56479180Y-75386476D02*
X56479180Y-75957904D01*
X56479180Y-75672190D02*
X55479180Y-75672190D01*
X55622038Y-75767428D01*
X55717276Y-75862666D01*
X55764895Y-75957904D01*
X56479180Y-74434095D02*
X56479180Y-75005523D01*
X56479180Y-74719809D02*
X55479180Y-74719809D01*
X55622038Y-74815047D01*
X55717276Y-74910285D01*
X55764895Y-75005523D01*
%TO.C,R13*%
X59479180Y-76338857D02*
X59002990Y-76672190D01*
X59479180Y-76910285D02*
X58479180Y-76910285D01*
X58479180Y-76529333D01*
X58526800Y-76434095D01*
X58574419Y-76386476D01*
X58669657Y-76338857D01*
X58812514Y-76338857D01*
X58907752Y-76386476D01*
X58955371Y-76434095D01*
X59002990Y-76529333D01*
X59002990Y-76910285D01*
X59479180Y-75386476D02*
X59479180Y-75957904D01*
X59479180Y-75672190D02*
X58479180Y-75672190D01*
X58622038Y-75767428D01*
X58717276Y-75862666D01*
X58764895Y-75957904D01*
X58479180Y-75053142D02*
X58479180Y-74434095D01*
X58860133Y-74767428D01*
X58860133Y-74624571D01*
X58907752Y-74529333D01*
X58955371Y-74481714D01*
X59050609Y-74434095D01*
X59288704Y-74434095D01*
X59383942Y-74481714D01*
X59431561Y-74529333D01*
X59479180Y-74624571D01*
X59479180Y-74910285D01*
X59431561Y-75005523D01*
X59383942Y-75053142D01*
%TO.C,R5*%
X43552380Y-1690666D02*
X43076190Y-2024000D01*
X43552380Y-2262095D02*
X42552380Y-2262095D01*
X42552380Y-1881142D01*
X42600000Y-1785904D01*
X42647619Y-1738285D01*
X42742857Y-1690666D01*
X42885714Y-1690666D01*
X42980952Y-1738285D01*
X43028571Y-1785904D01*
X43076190Y-1881142D01*
X43076190Y-2262095D01*
X42552380Y-785904D02*
X42552380Y-1262095D01*
X43028571Y-1309714D01*
X42980952Y-1262095D01*
X42933333Y-1166857D01*
X42933333Y-928761D01*
X42980952Y-833523D01*
X43028571Y-785904D01*
X43123809Y-738285D01*
X43361904Y-738285D01*
X43457142Y-785904D01*
X43504761Y-833523D01*
X43552380Y-928761D01*
X43552380Y-1166857D01*
X43504761Y-1262095D01*
X43457142Y-1309714D01*
%TO.C,D7*%
X34742380Y-77700095D02*
X33742380Y-77700095D01*
X33742380Y-77462000D01*
X33790000Y-77319142D01*
X33885238Y-77223904D01*
X33980476Y-77176285D01*
X34170952Y-77128666D01*
X34313809Y-77128666D01*
X34504285Y-77176285D01*
X34599523Y-77223904D01*
X34694761Y-77319142D01*
X34742380Y-77462000D01*
X34742380Y-77700095D01*
X33742380Y-76795333D02*
X33742380Y-76128666D01*
X34742380Y-76557238D01*
%TO.C,D1*%
X47950380Y-77700095D02*
X46950380Y-77700095D01*
X46950380Y-77462000D01*
X46998000Y-77319142D01*
X47093238Y-77223904D01*
X47188476Y-77176285D01*
X47378952Y-77128666D01*
X47521809Y-77128666D01*
X47712285Y-77176285D01*
X47807523Y-77223904D01*
X47902761Y-77319142D01*
X47950380Y-77462000D01*
X47950380Y-77700095D01*
X47950380Y-76176285D02*
X47950380Y-76747714D01*
X47950380Y-76462000D02*
X46950380Y-76462000D01*
X47093238Y-76557238D01*
X47188476Y-76652476D01*
X47236095Y-76747714D01*
%TO.C,D2*%
X45918380Y-77700095D02*
X44918380Y-77700095D01*
X44918380Y-77462000D01*
X44966000Y-77319142D01*
X45061238Y-77223904D01*
X45156476Y-77176285D01*
X45346952Y-77128666D01*
X45489809Y-77128666D01*
X45680285Y-77176285D01*
X45775523Y-77223904D01*
X45870761Y-77319142D01*
X45918380Y-77462000D01*
X45918380Y-77700095D01*
X45013619Y-76747714D02*
X44966000Y-76700095D01*
X44918380Y-76604857D01*
X44918380Y-76366761D01*
X44966000Y-76271523D01*
X45013619Y-76223904D01*
X45108857Y-76176285D01*
X45204095Y-76176285D01*
X45346952Y-76223904D01*
X45918380Y-76795333D01*
X45918380Y-76176285D01*
%TO.C,D3*%
X43632380Y-77700095D02*
X42632380Y-77700095D01*
X42632380Y-77462000D01*
X42680000Y-77319142D01*
X42775238Y-77223904D01*
X42870476Y-77176285D01*
X43060952Y-77128666D01*
X43203809Y-77128666D01*
X43394285Y-77176285D01*
X43489523Y-77223904D01*
X43584761Y-77319142D01*
X43632380Y-77462000D01*
X43632380Y-77700095D01*
X42632380Y-76795333D02*
X42632380Y-76176285D01*
X43013333Y-76509619D01*
X43013333Y-76366761D01*
X43060952Y-76271523D01*
X43108571Y-76223904D01*
X43203809Y-76176285D01*
X43441904Y-76176285D01*
X43537142Y-76223904D01*
X43584761Y-76271523D01*
X43632380Y-76366761D01*
X43632380Y-76652476D01*
X43584761Y-76747714D01*
X43537142Y-76795333D01*
%TO.C,T5*%
X12152380Y-73786904D02*
X12152380Y-73215476D01*
X13152380Y-73501190D02*
X12152380Y-73501190D01*
X12152380Y-72405952D02*
X12152380Y-72882142D01*
X12628571Y-72929761D01*
X12580952Y-72882142D01*
X12533333Y-72786904D01*
X12533333Y-72548809D01*
X12580952Y-72453571D01*
X12628571Y-72405952D01*
X12723809Y-72358333D01*
X12961904Y-72358333D01*
X13057142Y-72405952D01*
X13104761Y-72453571D01*
X13152380Y-72548809D01*
X13152380Y-72786904D01*
X13104761Y-72882142D01*
X13057142Y-72929761D01*
%TO.C,R8*%
X57979180Y-85112666D02*
X57502990Y-85446000D01*
X57979180Y-85684095D02*
X56979180Y-85684095D01*
X56979180Y-85303142D01*
X57026800Y-85207904D01*
X57074419Y-85160285D01*
X57169657Y-85112666D01*
X57312514Y-85112666D01*
X57407752Y-85160285D01*
X57455371Y-85207904D01*
X57502990Y-85303142D01*
X57502990Y-85684095D01*
X57407752Y-84541238D02*
X57360133Y-84636476D01*
X57312514Y-84684095D01*
X57217276Y-84731714D01*
X57169657Y-84731714D01*
X57074419Y-84684095D01*
X57026800Y-84636476D01*
X56979180Y-84541238D01*
X56979180Y-84350761D01*
X57026800Y-84255523D01*
X57074419Y-84207904D01*
X57169657Y-84160285D01*
X57217276Y-84160285D01*
X57312514Y-84207904D01*
X57360133Y-84255523D01*
X57407752Y-84350761D01*
X57407752Y-84541238D01*
X57455371Y-84636476D01*
X57502990Y-84684095D01*
X57598228Y-84731714D01*
X57788704Y-84731714D01*
X57883942Y-84684095D01*
X57931561Y-84636476D01*
X57979180Y-84541238D01*
X57979180Y-84350761D01*
X57931561Y-84255523D01*
X57883942Y-84207904D01*
X57788704Y-84160285D01*
X57598228Y-84160285D01*
X57502990Y-84207904D01*
X57455371Y-84255523D01*
X57407752Y-84350761D01*
%TO.C,H2*%
X5238095Y-78232380D02*
X5238095Y-77232380D01*
X5238095Y-77708571D02*
X5809523Y-77708571D01*
X5809523Y-78232380D02*
X5809523Y-77232380D01*
X6238095Y-77327619D02*
X6285714Y-77280000D01*
X6380952Y-77232380D01*
X6619047Y-77232380D01*
X6714285Y-77280000D01*
X6761904Y-77327619D01*
X6809523Y-77422857D01*
X6809523Y-77518095D01*
X6761904Y-77660952D01*
X6190476Y-78232380D01*
X6809523Y-78232380D01*
%TO.C,Q1*%
X52617619Y-12160238D02*
X52570000Y-12255476D01*
X52474761Y-12350714D01*
X52331904Y-12493571D01*
X52284285Y-12588809D01*
X52284285Y-12684047D01*
X52522380Y-12636428D02*
X52474761Y-12731666D01*
X52379523Y-12826904D01*
X52189047Y-12874523D01*
X51855714Y-12874523D01*
X51665238Y-12826904D01*
X51570000Y-12731666D01*
X51522380Y-12636428D01*
X51522380Y-12445952D01*
X51570000Y-12350714D01*
X51665238Y-12255476D01*
X51855714Y-12207857D01*
X52189047Y-12207857D01*
X52379523Y-12255476D01*
X52474761Y-12350714D01*
X52522380Y-12445952D01*
X52522380Y-12636428D01*
X52522380Y-11255476D02*
X52522380Y-11826904D01*
X52522380Y-11541190D02*
X51522380Y-11541190D01*
X51665238Y-11636428D01*
X51760476Y-11731666D01*
X51808095Y-11826904D01*
%TO.C,C2*%
X28932142Y-45632666D02*
X28979761Y-45680285D01*
X29027380Y-45823142D01*
X29027380Y-45918380D01*
X28979761Y-46061238D01*
X28884523Y-46156476D01*
X28789285Y-46204095D01*
X28598809Y-46251714D01*
X28455952Y-46251714D01*
X28265476Y-46204095D01*
X28170238Y-46156476D01*
X28075000Y-46061238D01*
X28027380Y-45918380D01*
X28027380Y-45823142D01*
X28075000Y-45680285D01*
X28122619Y-45632666D01*
X28122619Y-45251714D02*
X28075000Y-45204095D01*
X28027380Y-45108857D01*
X28027380Y-44870761D01*
X28075000Y-44775523D01*
X28122619Y-44727904D01*
X28217857Y-44680285D01*
X28313095Y-44680285D01*
X28455952Y-44727904D01*
X29027380Y-45299333D01*
X29027380Y-44680285D01*
%TO.C,Y1*%
X26574809Y-49633190D02*
X26574809Y-50109380D01*
X26241476Y-49109380D02*
X26574809Y-49633190D01*
X26908142Y-49109380D01*
X27765285Y-50109380D02*
X27193857Y-50109380D01*
X27479571Y-50109380D02*
X27479571Y-49109380D01*
X27384333Y-49252238D01*
X27289095Y-49347476D01*
X27193857Y-49395095D01*
%TO.C,R_0_if_no_auto_power_off1*%
X42057580Y-9265676D02*
X41581390Y-9599009D01*
X42057580Y-9837104D02*
X41057580Y-9837104D01*
X41057580Y-9456152D01*
X41105200Y-9360914D01*
X41152819Y-9313295D01*
X41248057Y-9265676D01*
X41390914Y-9265676D01*
X41486152Y-9313295D01*
X41533771Y-9360914D01*
X41581390Y-9456152D01*
X41581390Y-9837104D01*
X42152819Y-9075200D02*
X42152819Y-8313295D01*
X41057580Y-7884723D02*
X41057580Y-7789485D01*
X41105200Y-7694247D01*
X41152819Y-7646628D01*
X41248057Y-7599009D01*
X41438533Y-7551390D01*
X41676628Y-7551390D01*
X41867104Y-7599009D01*
X41962342Y-7646628D01*
X42009961Y-7694247D01*
X42057580Y-7789485D01*
X42057580Y-7884723D01*
X42009961Y-7979961D01*
X41962342Y-8027580D01*
X41867104Y-8075200D01*
X41676628Y-8122819D01*
X41438533Y-8122819D01*
X41248057Y-8075200D01*
X41152819Y-8027580D01*
X41105200Y-7979961D01*
X41057580Y-7884723D01*
X42152819Y-7360914D02*
X42152819Y-6599009D01*
X42057580Y-6360914D02*
X41390914Y-6360914D01*
X41057580Y-6360914D02*
X41105200Y-6408533D01*
X41152819Y-6360914D01*
X41105200Y-6313295D01*
X41057580Y-6360914D01*
X41152819Y-6360914D01*
X41390914Y-6027580D02*
X41390914Y-5646628D01*
X42057580Y-5884723D02*
X41200438Y-5884723D01*
X41105200Y-5837104D01*
X41057580Y-5741866D01*
X41057580Y-5646628D01*
X42152819Y-5551390D02*
X42152819Y-4789485D01*
X41390914Y-4551390D02*
X42057580Y-4551390D01*
X41486152Y-4551390D02*
X41438533Y-4503771D01*
X41390914Y-4408533D01*
X41390914Y-4265676D01*
X41438533Y-4170438D01*
X41533771Y-4122819D01*
X42057580Y-4122819D01*
X42057580Y-3503771D02*
X42009961Y-3599009D01*
X41962342Y-3646628D01*
X41867104Y-3694247D01*
X41581390Y-3694247D01*
X41486152Y-3646628D01*
X41438533Y-3599009D01*
X41390914Y-3503771D01*
X41390914Y-3360914D01*
X41438533Y-3265676D01*
X41486152Y-3218057D01*
X41581390Y-3170438D01*
X41867104Y-3170438D01*
X41962342Y-3218057D01*
X42009961Y-3265676D01*
X42057580Y-3360914D01*
X42057580Y-3503771D01*
X42152819Y-2979961D02*
X42152819Y-2218057D01*
X42057580Y-1551390D02*
X41533771Y-1551390D01*
X41438533Y-1599009D01*
X41390914Y-1694247D01*
X41390914Y-1884723D01*
X41438533Y-1979961D01*
X42009961Y-1551390D02*
X42057580Y-1646628D01*
X42057580Y-1884723D01*
X42009961Y-1979961D01*
X41914723Y-2027580D01*
X41819485Y-2027580D01*
X41724247Y-1979961D01*
X41676628Y-1884723D01*
X41676628Y-1646628D01*
X41629009Y-1551390D01*
X41390914Y-646628D02*
X42057580Y-646628D01*
X41390914Y-1075200D02*
X41914723Y-1075200D01*
X42009961Y-1027580D01*
X42057580Y-932342D01*
X42057580Y-789485D01*
X42009961Y-694247D01*
X41962342Y-646628D01*
X41390914Y-313295D02*
X41390914Y67657D01*
X41057580Y-170438D02*
X41914723Y-170438D01*
X42009961Y-122819D01*
X42057580Y-27580D01*
X42057580Y67657D01*
X42057580Y543847D02*
X42009961Y448609D01*
X41962342Y400990D01*
X41867104Y353371D01*
X41581390Y353371D01*
X41486152Y400990D01*
X41438533Y448609D01*
X41390914Y543847D01*
X41390914Y686704D01*
X41438533Y781942D01*
X41486152Y829561D01*
X41581390Y877180D01*
X41867104Y877180D01*
X41962342Y829561D01*
X42009961Y781942D01*
X42057580Y686704D01*
X42057580Y543847D01*
X42152819Y1067657D02*
X42152819Y1829561D01*
X41390914Y2067657D02*
X42390914Y2067657D01*
X41438533Y2067657D02*
X41390914Y2162895D01*
X41390914Y2353371D01*
X41438533Y2448609D01*
X41486152Y2496228D01*
X41581390Y2543847D01*
X41867104Y2543847D01*
X41962342Y2496228D01*
X42009961Y2448609D01*
X42057580Y2353371D01*
X42057580Y2162895D01*
X42009961Y2067657D01*
X42057580Y3115276D02*
X42009961Y3020038D01*
X41962342Y2972419D01*
X41867104Y2924799D01*
X41581390Y2924799D01*
X41486152Y2972419D01*
X41438533Y3020038D01*
X41390914Y3115276D01*
X41390914Y3258133D01*
X41438533Y3353371D01*
X41486152Y3400990D01*
X41581390Y3448609D01*
X41867104Y3448609D01*
X41962342Y3400990D01*
X42009961Y3353371D01*
X42057580Y3258133D01*
X42057580Y3115276D01*
X41390914Y3781942D02*
X42057580Y3972419D01*
X41581390Y4162895D01*
X42057580Y4353371D01*
X41390914Y4543847D01*
X42009961Y5305752D02*
X42057580Y5210514D01*
X42057580Y5020038D01*
X42009961Y4924799D01*
X41914723Y4877180D01*
X41533771Y4877180D01*
X41438533Y4924799D01*
X41390914Y5020038D01*
X41390914Y5210514D01*
X41438533Y5305752D01*
X41533771Y5353371D01*
X41629009Y5353371D01*
X41724247Y4877180D01*
X42057580Y5781942D02*
X41390914Y5781942D01*
X41581390Y5781942D02*
X41486152Y5829561D01*
X41438533Y5877180D01*
X41390914Y5972419D01*
X41390914Y6067657D01*
X42152819Y6162895D02*
X42152819Y6924799D01*
X42057580Y7305752D02*
X42009961Y7210514D01*
X41962342Y7162895D01*
X41867104Y7115276D01*
X41581390Y7115276D01*
X41486152Y7162895D01*
X41438533Y7210514D01*
X41390914Y7305752D01*
X41390914Y7448609D01*
X41438533Y7543847D01*
X41486152Y7591466D01*
X41581390Y7639085D01*
X41867104Y7639085D01*
X41962342Y7591466D01*
X42009961Y7543847D01*
X42057580Y7448609D01*
X42057580Y7305752D01*
X41390914Y7924799D02*
X41390914Y8305752D01*
X42057580Y8067657D02*
X41200438Y8067657D01*
X41105200Y8115276D01*
X41057580Y8210514D01*
X41057580Y8305752D01*
X41390914Y8496228D02*
X41390914Y8877180D01*
X42057580Y8639085D02*
X41200438Y8639085D01*
X41105200Y8686704D01*
X41057580Y8781942D01*
X41057580Y8877180D01*
X42057580Y9734323D02*
X42057580Y9162895D01*
X42057580Y9448609D02*
X41057580Y9448609D01*
X41200438Y9353371D01*
X41295676Y9258133D01*
X41343295Y9162895D01*
%TO.C,R23*%
X65479180Y-76338857D02*
X65002990Y-76672190D01*
X65479180Y-76910285D02*
X64479180Y-76910285D01*
X64479180Y-76529333D01*
X64526800Y-76434095D01*
X64574419Y-76386476D01*
X64669657Y-76338857D01*
X64812514Y-76338857D01*
X64907752Y-76386476D01*
X64955371Y-76434095D01*
X65002990Y-76529333D01*
X65002990Y-76910285D01*
X64574419Y-75957904D02*
X64526800Y-75910285D01*
X64479180Y-75815047D01*
X64479180Y-75576952D01*
X64526800Y-75481714D01*
X64574419Y-75434095D01*
X64669657Y-75386476D01*
X64764895Y-75386476D01*
X64907752Y-75434095D01*
X65479180Y-76005523D01*
X65479180Y-75386476D01*
X64479180Y-75053142D02*
X64479180Y-74434095D01*
X64860133Y-74767428D01*
X64860133Y-74624571D01*
X64907752Y-74529333D01*
X64955371Y-74481714D01*
X65050609Y-74434095D01*
X65288704Y-74434095D01*
X65383942Y-74481714D01*
X65431561Y-74529333D01*
X65479180Y-74624571D01*
X65479180Y-74910285D01*
X65431561Y-75005523D01*
X65383942Y-75053142D01*
%TO.C,D5*%
X39060380Y-77700095D02*
X38060380Y-77700095D01*
X38060380Y-77462000D01*
X38108000Y-77319142D01*
X38203238Y-77223904D01*
X38298476Y-77176285D01*
X38488952Y-77128666D01*
X38631809Y-77128666D01*
X38822285Y-77176285D01*
X38917523Y-77223904D01*
X39012761Y-77319142D01*
X39060380Y-77462000D01*
X39060380Y-77700095D01*
X38060380Y-76223904D02*
X38060380Y-76700095D01*
X38536571Y-76747714D01*
X38488952Y-76700095D01*
X38441333Y-76604857D01*
X38441333Y-76366761D01*
X38488952Y-76271523D01*
X38536571Y-76223904D01*
X38631809Y-76176285D01*
X38869904Y-76176285D01*
X38965142Y-76223904D01*
X39012761Y-76271523D01*
X39060380Y-76366761D01*
X39060380Y-76604857D01*
X39012761Y-76700095D01*
X38965142Y-76747714D01*
%TO.C,R28*%
X55952380Y-2642857D02*
X55476190Y-2976190D01*
X55952380Y-3214285D02*
X54952380Y-3214285D01*
X54952380Y-2833333D01*
X55000000Y-2738095D01*
X55047619Y-2690476D01*
X55142857Y-2642857D01*
X55285714Y-2642857D01*
X55380952Y-2690476D01*
X55428571Y-2738095D01*
X55476190Y-2833333D01*
X55476190Y-3214285D01*
X55047619Y-2261904D02*
X55000000Y-2214285D01*
X54952380Y-2119047D01*
X54952380Y-1880952D01*
X55000000Y-1785714D01*
X55047619Y-1738095D01*
X55142857Y-1690476D01*
X55238095Y-1690476D01*
X55380952Y-1738095D01*
X55952380Y-2309523D01*
X55952380Y-1690476D01*
X55380952Y-1119047D02*
X55333333Y-1214285D01*
X55285714Y-1261904D01*
X55190476Y-1309523D01*
X55142857Y-1309523D01*
X55047619Y-1261904D01*
X55000000Y-1214285D01*
X54952380Y-1119047D01*
X54952380Y-928571D01*
X55000000Y-833333D01*
X55047619Y-785714D01*
X55142857Y-738095D01*
X55190476Y-738095D01*
X55285714Y-785714D01*
X55333333Y-833333D01*
X55380952Y-928571D01*
X55380952Y-1119047D01*
X55428571Y-1214285D01*
X55476190Y-1261904D01*
X55571428Y-1309523D01*
X55761904Y-1309523D01*
X55857142Y-1261904D01*
X55904761Y-1214285D01*
X55952380Y-1119047D01*
X55952380Y-928571D01*
X55904761Y-833333D01*
X55857142Y-785714D01*
X55761904Y-738095D01*
X55571428Y-738095D01*
X55476190Y-785714D01*
X55428571Y-833333D01*
X55380952Y-928571D01*
%TO.C,R6*%
X54979180Y-85112666D02*
X54502990Y-85446000D01*
X54979180Y-85684095D02*
X53979180Y-85684095D01*
X53979180Y-85303142D01*
X54026800Y-85207904D01*
X54074419Y-85160285D01*
X54169657Y-85112666D01*
X54312514Y-85112666D01*
X54407752Y-85160285D01*
X54455371Y-85207904D01*
X54502990Y-85303142D01*
X54502990Y-85684095D01*
X53979180Y-84255523D02*
X53979180Y-84446000D01*
X54026800Y-84541238D01*
X54074419Y-84588857D01*
X54217276Y-84684095D01*
X54407752Y-84731714D01*
X54788704Y-84731714D01*
X54883942Y-84684095D01*
X54931561Y-84636476D01*
X54979180Y-84541238D01*
X54979180Y-84350761D01*
X54931561Y-84255523D01*
X54883942Y-84207904D01*
X54788704Y-84160285D01*
X54550609Y-84160285D01*
X54455371Y-84207904D01*
X54407752Y-84255523D01*
X54360133Y-84350761D01*
X54360133Y-84541238D01*
X54407752Y-84636476D01*
X54455371Y-84684095D01*
X54550609Y-84731714D01*
%TO.C,D10*%
X30271980Y-77769885D02*
X29271980Y-77769885D01*
X29271980Y-77531790D01*
X29319600Y-77388933D01*
X29414838Y-77293695D01*
X29510076Y-77246076D01*
X29700552Y-77198457D01*
X29843409Y-77198457D01*
X30033885Y-77246076D01*
X30129123Y-77293695D01*
X30224361Y-77388933D01*
X30271980Y-77531790D01*
X30271980Y-77769885D01*
X30271980Y-76246076D02*
X30271980Y-76817504D01*
X30271980Y-76531790D02*
X29271980Y-76531790D01*
X29414838Y-76627028D01*
X29510076Y-76722266D01*
X29557695Y-76817504D01*
X29271980Y-75627028D02*
X29271980Y-75531790D01*
X29319600Y-75436552D01*
X29367219Y-75388933D01*
X29462457Y-75341314D01*
X29652933Y-75293695D01*
X29891028Y-75293695D01*
X30081504Y-75341314D01*
X30176742Y-75388933D01*
X30224361Y-75436552D01*
X30271980Y-75531790D01*
X30271980Y-75627028D01*
X30224361Y-75722266D01*
X30176742Y-75769885D01*
X30081504Y-75817504D01*
X29891028Y-75865123D01*
X29652933Y-75865123D01*
X29462457Y-75817504D01*
X29367219Y-75769885D01*
X29319600Y-75722266D01*
X29271980Y-75627028D01*
%TO.C,D9*%
X4831980Y-64746095D02*
X3831980Y-64746095D01*
X3831980Y-64508000D01*
X3879600Y-64365142D01*
X3974838Y-64269904D01*
X4070076Y-64222285D01*
X4260552Y-64174666D01*
X4403409Y-64174666D01*
X4593885Y-64222285D01*
X4689123Y-64269904D01*
X4784361Y-64365142D01*
X4831980Y-64508000D01*
X4831980Y-64746095D01*
X4831980Y-63698476D02*
X4831980Y-63508000D01*
X4784361Y-63412761D01*
X4736742Y-63365142D01*
X4593885Y-63269904D01*
X4403409Y-63222285D01*
X4022457Y-63222285D01*
X3927219Y-63269904D01*
X3879600Y-63317523D01*
X3831980Y-63412761D01*
X3831980Y-63603238D01*
X3879600Y-63698476D01*
X3927219Y-63746095D01*
X4022457Y-63793714D01*
X4260552Y-63793714D01*
X4355790Y-63746095D01*
X4403409Y-63698476D01*
X4451028Y-63603238D01*
X4451028Y-63412761D01*
X4403409Y-63317523D01*
X4355790Y-63269904D01*
X4260552Y-63222285D01*
%TO.C,Q2*%
X57062619Y-12160238D02*
X57015000Y-12255476D01*
X56919761Y-12350714D01*
X56776904Y-12493571D01*
X56729285Y-12588809D01*
X56729285Y-12684047D01*
X56967380Y-12636428D02*
X56919761Y-12731666D01*
X56824523Y-12826904D01*
X56634047Y-12874523D01*
X56300714Y-12874523D01*
X56110238Y-12826904D01*
X56015000Y-12731666D01*
X55967380Y-12636428D01*
X55967380Y-12445952D01*
X56015000Y-12350714D01*
X56110238Y-12255476D01*
X56300714Y-12207857D01*
X56634047Y-12207857D01*
X56824523Y-12255476D01*
X56919761Y-12350714D01*
X56967380Y-12445952D01*
X56967380Y-12636428D01*
X56062619Y-11826904D02*
X56015000Y-11779285D01*
X55967380Y-11684047D01*
X55967380Y-11445952D01*
X56015000Y-11350714D01*
X56062619Y-11303095D01*
X56157857Y-11255476D01*
X56253095Y-11255476D01*
X56395952Y-11303095D01*
X56967380Y-11874523D01*
X56967380Y-11255476D01*
%TO.C,R25*%
X52776380Y-2674857D02*
X52300190Y-3008190D01*
X52776380Y-3246285D02*
X51776380Y-3246285D01*
X51776380Y-2865333D01*
X51824000Y-2770095D01*
X51871619Y-2722476D01*
X51966857Y-2674857D01*
X52109714Y-2674857D01*
X52204952Y-2722476D01*
X52252571Y-2770095D01*
X52300190Y-2865333D01*
X52300190Y-3246285D01*
X51871619Y-2293904D02*
X51824000Y-2246285D01*
X51776380Y-2151047D01*
X51776380Y-1912952D01*
X51824000Y-1817714D01*
X51871619Y-1770095D01*
X51966857Y-1722476D01*
X52062095Y-1722476D01*
X52204952Y-1770095D01*
X52776380Y-2341523D01*
X52776380Y-1722476D01*
X51776380Y-817714D02*
X51776380Y-1293904D01*
X52252571Y-1341523D01*
X52204952Y-1293904D01*
X52157333Y-1198666D01*
X52157333Y-960571D01*
X52204952Y-865333D01*
X52252571Y-817714D01*
X52347809Y-770095D01*
X52585904Y-770095D01*
X52681142Y-817714D01*
X52728761Y-865333D01*
X52776380Y-960571D01*
X52776380Y-1198666D01*
X52728761Y-1293904D01*
X52681142Y-1341523D01*
%TO.C,R7*%
X56479180Y-85112666D02*
X56002990Y-85446000D01*
X56479180Y-85684095D02*
X55479180Y-85684095D01*
X55479180Y-85303142D01*
X55526800Y-85207904D01*
X55574419Y-85160285D01*
X55669657Y-85112666D01*
X55812514Y-85112666D01*
X55907752Y-85160285D01*
X55955371Y-85207904D01*
X56002990Y-85303142D01*
X56002990Y-85684095D01*
X55479180Y-84779333D02*
X55479180Y-84112666D01*
X56479180Y-84541238D01*
%TO.C,R22*%
X63979180Y-76338857D02*
X63502990Y-76672190D01*
X63979180Y-76910285D02*
X62979180Y-76910285D01*
X62979180Y-76529333D01*
X63026800Y-76434095D01*
X63074419Y-76386476D01*
X63169657Y-76338857D01*
X63312514Y-76338857D01*
X63407752Y-76386476D01*
X63455371Y-76434095D01*
X63502990Y-76529333D01*
X63502990Y-76910285D01*
X63074419Y-75957904D02*
X63026800Y-75910285D01*
X62979180Y-75815047D01*
X62979180Y-75576952D01*
X63026800Y-75481714D01*
X63074419Y-75434095D01*
X63169657Y-75386476D01*
X63264895Y-75386476D01*
X63407752Y-75434095D01*
X63979180Y-76005523D01*
X63979180Y-75386476D01*
X63074419Y-75005523D02*
X63026800Y-74957904D01*
X62979180Y-74862666D01*
X62979180Y-74624571D01*
X63026800Y-74529333D01*
X63074419Y-74481714D01*
X63169657Y-74434095D01*
X63264895Y-74434095D01*
X63407752Y-74481714D01*
X63979180Y-75053142D01*
X63979180Y-74434095D01*
%TO.C,D4*%
X41346380Y-77700095D02*
X40346380Y-77700095D01*
X40346380Y-77462000D01*
X40394000Y-77319142D01*
X40489238Y-77223904D01*
X40584476Y-77176285D01*
X40774952Y-77128666D01*
X40917809Y-77128666D01*
X41108285Y-77176285D01*
X41203523Y-77223904D01*
X41298761Y-77319142D01*
X41346380Y-77462000D01*
X41346380Y-77700095D01*
X40679714Y-76271523D02*
X41346380Y-76271523D01*
X40298761Y-76509619D02*
X41013047Y-76747714D01*
X41013047Y-76128666D01*
%TO.C,R_reset_pullup1*%
X50953180Y-86640847D02*
X50476990Y-86974180D01*
X50953180Y-87212276D02*
X49953180Y-87212276D01*
X49953180Y-86831323D01*
X50000800Y-86736085D01*
X50048419Y-86688466D01*
X50143657Y-86640847D01*
X50286514Y-86640847D01*
X50381752Y-86688466D01*
X50429371Y-86736085D01*
X50476990Y-86831323D01*
X50476990Y-87212276D01*
X51048419Y-86450371D02*
X51048419Y-85688466D01*
X50953180Y-85450371D02*
X50286514Y-85450371D01*
X50476990Y-85450371D02*
X50381752Y-85402752D01*
X50334133Y-85355133D01*
X50286514Y-85259895D01*
X50286514Y-85164657D01*
X50905561Y-84450371D02*
X50953180Y-84545609D01*
X50953180Y-84736085D01*
X50905561Y-84831323D01*
X50810323Y-84878942D01*
X50429371Y-84878942D01*
X50334133Y-84831323D01*
X50286514Y-84736085D01*
X50286514Y-84545609D01*
X50334133Y-84450371D01*
X50429371Y-84402752D01*
X50524609Y-84402752D01*
X50619847Y-84878942D01*
X50905561Y-84021800D02*
X50953180Y-83926561D01*
X50953180Y-83736085D01*
X50905561Y-83640847D01*
X50810323Y-83593228D01*
X50762704Y-83593228D01*
X50667466Y-83640847D01*
X50619847Y-83736085D01*
X50619847Y-83878942D01*
X50572228Y-83974180D01*
X50476990Y-84021800D01*
X50429371Y-84021800D01*
X50334133Y-83974180D01*
X50286514Y-83878942D01*
X50286514Y-83736085D01*
X50334133Y-83640847D01*
X50905561Y-82783704D02*
X50953180Y-82878942D01*
X50953180Y-83069419D01*
X50905561Y-83164657D01*
X50810323Y-83212276D01*
X50429371Y-83212276D01*
X50334133Y-83164657D01*
X50286514Y-83069419D01*
X50286514Y-82878942D01*
X50334133Y-82783704D01*
X50429371Y-82736085D01*
X50524609Y-82736085D01*
X50619847Y-83212276D01*
X50286514Y-82450371D02*
X50286514Y-82069419D01*
X49953180Y-82307514D02*
X50810323Y-82307514D01*
X50905561Y-82259895D01*
X50953180Y-82164657D01*
X50953180Y-82069419D01*
X51048419Y-81974180D02*
X51048419Y-81212276D01*
X50286514Y-80974180D02*
X51286514Y-80974180D01*
X50334133Y-80974180D02*
X50286514Y-80878942D01*
X50286514Y-80688466D01*
X50334133Y-80593228D01*
X50381752Y-80545609D01*
X50476990Y-80497990D01*
X50762704Y-80497990D01*
X50857942Y-80545609D01*
X50905561Y-80593228D01*
X50953180Y-80688466D01*
X50953180Y-80878942D01*
X50905561Y-80974180D01*
X50286514Y-79640847D02*
X50953180Y-79640847D01*
X50286514Y-80069419D02*
X50810323Y-80069419D01*
X50905561Y-80021800D01*
X50953180Y-79926561D01*
X50953180Y-79783704D01*
X50905561Y-79688466D01*
X50857942Y-79640847D01*
X50953180Y-79021800D02*
X50905561Y-79117038D01*
X50810323Y-79164657D01*
X49953180Y-79164657D01*
X50953180Y-78497990D02*
X50905561Y-78593228D01*
X50810323Y-78640847D01*
X49953180Y-78640847D01*
X50286514Y-77688466D02*
X50953180Y-77688466D01*
X50286514Y-78117038D02*
X50810323Y-78117038D01*
X50905561Y-78069419D01*
X50953180Y-77974180D01*
X50953180Y-77831323D01*
X50905561Y-77736085D01*
X50857942Y-77688466D01*
X50286514Y-77212276D02*
X51286514Y-77212276D01*
X50334133Y-77212276D02*
X50286514Y-77117038D01*
X50286514Y-76926561D01*
X50334133Y-76831323D01*
X50381752Y-76783704D01*
X50476990Y-76736085D01*
X50762704Y-76736085D01*
X50857942Y-76783704D01*
X50905561Y-76831323D01*
X50953180Y-76926561D01*
X50953180Y-77117038D01*
X50905561Y-77212276D01*
X50953180Y-75783704D02*
X50953180Y-76355133D01*
X50953180Y-76069419D02*
X49953180Y-76069419D01*
X50096038Y-76164657D01*
X50191276Y-76259895D01*
X50238895Y-76355133D01*
%TO.C,H3*%
X71238095Y-78152380D02*
X71238095Y-77152380D01*
X71238095Y-77628571D02*
X71809523Y-77628571D01*
X71809523Y-78152380D02*
X71809523Y-77152380D01*
X72190476Y-77152380D02*
X72809523Y-77152380D01*
X72476190Y-77533333D01*
X72619047Y-77533333D01*
X72714285Y-77580952D01*
X72761904Y-77628571D01*
X72809523Y-77723809D01*
X72809523Y-77961904D01*
X72761904Y-78057142D01*
X72714285Y-78104761D01*
X72619047Y-78152380D01*
X72333333Y-78152380D01*
X72238095Y-78104761D01*
X72190476Y-78057142D01*
%TO.C,H6*%
X5238095Y-11152380D02*
X5238095Y-10152380D01*
X5238095Y-10628571D02*
X5809523Y-10628571D01*
X5809523Y-11152380D02*
X5809523Y-10152380D01*
X6714285Y-10152380D02*
X6523809Y-10152380D01*
X6428571Y-10200000D01*
X6380952Y-10247619D01*
X6285714Y-10390476D01*
X6238095Y-10580952D01*
X6238095Y-10961904D01*
X6285714Y-11057142D01*
X6333333Y-11104761D01*
X6428571Y-11152380D01*
X6619047Y-11152380D01*
X6714285Y-11104761D01*
X6761904Y-11057142D01*
X6809523Y-10961904D01*
X6809523Y-10723809D01*
X6761904Y-10628571D01*
X6714285Y-10580952D01*
X6619047Y-10533333D01*
X6428571Y-10533333D01*
X6333333Y-10580952D01*
X6285714Y-10628571D01*
X6238095Y-10723809D01*
%TO.C,C1*%
X31980142Y-46267666D02*
X32027761Y-46315285D01*
X32075380Y-46458142D01*
X32075380Y-46553380D01*
X32027761Y-46696238D01*
X31932523Y-46791476D01*
X31837285Y-46839095D01*
X31646809Y-46886714D01*
X31503952Y-46886714D01*
X31313476Y-46839095D01*
X31218238Y-46791476D01*
X31123000Y-46696238D01*
X31075380Y-46553380D01*
X31075380Y-46458142D01*
X31123000Y-46315285D01*
X31170619Y-46267666D01*
X32075380Y-45315285D02*
X32075380Y-45886714D01*
X32075380Y-45601000D02*
X31075380Y-45601000D01*
X31218238Y-45696238D01*
X31313476Y-45791476D01*
X31361095Y-45886714D01*
%TO.C,J1*%
X722380Y-79327333D02*
X1436666Y-79327333D01*
X1579523Y-79374952D01*
X1674761Y-79470190D01*
X1722380Y-79613047D01*
X1722380Y-79708285D01*
X1722380Y-78327333D02*
X1722380Y-78898761D01*
X1722380Y-78613047D02*
X722380Y-78613047D01*
X865238Y-78708285D01*
X960476Y-78803523D01*
X1008095Y-78898761D01*
%TO.C,J2*%
X74902380Y-27765333D02*
X75616666Y-27765333D01*
X75759523Y-27812952D01*
X75854761Y-27908190D01*
X75902380Y-28051047D01*
X75902380Y-28146285D01*
X74997619Y-27336761D02*
X74950000Y-27289142D01*
X74902380Y-27193904D01*
X74902380Y-26955809D01*
X74950000Y-26860571D01*
X74997619Y-26812952D01*
X75092857Y-26765333D01*
X75188095Y-26765333D01*
X75330952Y-26812952D01*
X75902380Y-27384380D01*
X75902380Y-26765333D01*
%TO.C,R19*%
X22471142Y-49092380D02*
X22137809Y-48616190D01*
X21899714Y-49092380D02*
X21899714Y-48092380D01*
X22280666Y-48092380D01*
X22375904Y-48140000D01*
X22423523Y-48187619D01*
X22471142Y-48282857D01*
X22471142Y-48425714D01*
X22423523Y-48520952D01*
X22375904Y-48568571D01*
X22280666Y-48616190D01*
X21899714Y-48616190D01*
X23423523Y-49092380D02*
X22852095Y-49092380D01*
X23137809Y-49092380D02*
X23137809Y-48092380D01*
X23042571Y-48235238D01*
X22947333Y-48330476D01*
X22852095Y-48378095D01*
X23899714Y-49092380D02*
X24090190Y-49092380D01*
X24185428Y-49044761D01*
X24233047Y-48997142D01*
X24328285Y-48854285D01*
X24375904Y-48663809D01*
X24375904Y-48282857D01*
X24328285Y-48187619D01*
X24280666Y-48140000D01*
X24185428Y-48092380D01*
X23994952Y-48092380D01*
X23899714Y-48140000D01*
X23852095Y-48187619D01*
X23804476Y-48282857D01*
X23804476Y-48520952D01*
X23852095Y-48616190D01*
X23899714Y-48663809D01*
X23994952Y-48711428D01*
X24185428Y-48711428D01*
X24280666Y-48663809D01*
X24328285Y-48616190D01*
X24375904Y-48520952D01*
%TO.C,R9*%
X59479180Y-85112666D02*
X59002990Y-85446000D01*
X59479180Y-85684095D02*
X58479180Y-85684095D01*
X58479180Y-85303142D01*
X58526800Y-85207904D01*
X58574419Y-85160285D01*
X58669657Y-85112666D01*
X58812514Y-85112666D01*
X58907752Y-85160285D01*
X58955371Y-85207904D01*
X59002990Y-85303142D01*
X59002990Y-85684095D01*
X59479180Y-84636476D02*
X59479180Y-84446000D01*
X59431561Y-84350761D01*
X59383942Y-84303142D01*
X59241085Y-84207904D01*
X59050609Y-84160285D01*
X58669657Y-84160285D01*
X58574419Y-84207904D01*
X58526800Y-84255523D01*
X58479180Y-84350761D01*
X58479180Y-84541238D01*
X58526800Y-84636476D01*
X58574419Y-84684095D01*
X58669657Y-84731714D01*
X58907752Y-84731714D01*
X59002990Y-84684095D01*
X59050609Y-84636476D01*
X59098228Y-84541238D01*
X59098228Y-84350761D01*
X59050609Y-84255523D01*
X59002990Y-84207904D01*
X58907752Y-84160285D01*
%TO.C,R26*%
X57348380Y-2642857D02*
X56872190Y-2976190D01*
X57348380Y-3214285D02*
X56348380Y-3214285D01*
X56348380Y-2833333D01*
X56396000Y-2738095D01*
X56443619Y-2690476D01*
X56538857Y-2642857D01*
X56681714Y-2642857D01*
X56776952Y-2690476D01*
X56824571Y-2738095D01*
X56872190Y-2833333D01*
X56872190Y-3214285D01*
X56443619Y-2261904D02*
X56396000Y-2214285D01*
X56348380Y-2119047D01*
X56348380Y-1880952D01*
X56396000Y-1785714D01*
X56443619Y-1738095D01*
X56538857Y-1690476D01*
X56634095Y-1690476D01*
X56776952Y-1738095D01*
X57348380Y-2309523D01*
X57348380Y-1690476D01*
X56348380Y-833333D02*
X56348380Y-1023809D01*
X56396000Y-1119047D01*
X56443619Y-1166666D01*
X56586476Y-1261904D01*
X56776952Y-1309523D01*
X57157904Y-1309523D01*
X57253142Y-1261904D01*
X57300761Y-1214285D01*
X57348380Y-1119047D01*
X57348380Y-928571D01*
X57300761Y-833333D01*
X57253142Y-785714D01*
X57157904Y-738095D01*
X56919809Y-738095D01*
X56824571Y-785714D01*
X56776952Y-833333D01*
X56729333Y-928571D01*
X56729333Y-1119047D01*
X56776952Y-1214285D01*
X56824571Y-1261904D01*
X56919809Y-1309523D01*
%TO.C,R17*%
X63989180Y-86088857D02*
X63512990Y-86422190D01*
X63989180Y-86660285D02*
X62989180Y-86660285D01*
X62989180Y-86279333D01*
X63036800Y-86184095D01*
X63084419Y-86136476D01*
X63179657Y-86088857D01*
X63322514Y-86088857D01*
X63417752Y-86136476D01*
X63465371Y-86184095D01*
X63512990Y-86279333D01*
X63512990Y-86660285D01*
X63989180Y-85136476D02*
X63989180Y-85707904D01*
X63989180Y-85422190D02*
X62989180Y-85422190D01*
X63132038Y-85517428D01*
X63227276Y-85612666D01*
X63274895Y-85707904D01*
X62989180Y-84803142D02*
X62989180Y-84136476D01*
X63989180Y-84565047D01*
%TO.C,R_vcc_protected1*%
X58872380Y-12802476D02*
X58396190Y-13135809D01*
X58872380Y-13373904D02*
X57872380Y-13373904D01*
X57872380Y-12992952D01*
X57920000Y-12897714D01*
X57967619Y-12850095D01*
X58062857Y-12802476D01*
X58205714Y-12802476D01*
X58300952Y-12850095D01*
X58348571Y-12897714D01*
X58396190Y-12992952D01*
X58396190Y-13373904D01*
X58967619Y-12612000D02*
X58967619Y-11850095D01*
X58205714Y-11707238D02*
X58872380Y-11469142D01*
X58205714Y-11231047D01*
X58824761Y-10421523D02*
X58872380Y-10516761D01*
X58872380Y-10707238D01*
X58824761Y-10802476D01*
X58777142Y-10850095D01*
X58681904Y-10897714D01*
X58396190Y-10897714D01*
X58300952Y-10850095D01*
X58253333Y-10802476D01*
X58205714Y-10707238D01*
X58205714Y-10516761D01*
X58253333Y-10421523D01*
X58824761Y-9564380D02*
X58872380Y-9659619D01*
X58872380Y-9850095D01*
X58824761Y-9945333D01*
X58777142Y-9992952D01*
X58681904Y-10040571D01*
X58396190Y-10040571D01*
X58300952Y-9992952D01*
X58253333Y-9945333D01*
X58205714Y-9850095D01*
X58205714Y-9659619D01*
X58253333Y-9564380D01*
X58967619Y-9373904D02*
X58967619Y-8612000D01*
X58205714Y-8373904D02*
X59205714Y-8373904D01*
X58253333Y-8373904D02*
X58205714Y-8278666D01*
X58205714Y-8088190D01*
X58253333Y-7992952D01*
X58300952Y-7945333D01*
X58396190Y-7897714D01*
X58681904Y-7897714D01*
X58777142Y-7945333D01*
X58824761Y-7992952D01*
X58872380Y-8088190D01*
X58872380Y-8278666D01*
X58824761Y-8373904D01*
X58872380Y-7469142D02*
X58205714Y-7469142D01*
X58396190Y-7469142D02*
X58300952Y-7421523D01*
X58253333Y-7373904D01*
X58205714Y-7278666D01*
X58205714Y-7183428D01*
X58872380Y-6707238D02*
X58824761Y-6802476D01*
X58777142Y-6850095D01*
X58681904Y-6897714D01*
X58396190Y-6897714D01*
X58300952Y-6850095D01*
X58253333Y-6802476D01*
X58205714Y-6707238D01*
X58205714Y-6564380D01*
X58253333Y-6469142D01*
X58300952Y-6421523D01*
X58396190Y-6373904D01*
X58681904Y-6373904D01*
X58777142Y-6421523D01*
X58824761Y-6469142D01*
X58872380Y-6564380D01*
X58872380Y-6707238D01*
X58205714Y-6088190D02*
X58205714Y-5707238D01*
X57872380Y-5945333D02*
X58729523Y-5945333D01*
X58824761Y-5897714D01*
X58872380Y-5802476D01*
X58872380Y-5707238D01*
X58824761Y-4992952D02*
X58872380Y-5088190D01*
X58872380Y-5278666D01*
X58824761Y-5373904D01*
X58729523Y-5421523D01*
X58348571Y-5421523D01*
X58253333Y-5373904D01*
X58205714Y-5278666D01*
X58205714Y-5088190D01*
X58253333Y-4992952D01*
X58348571Y-4945333D01*
X58443809Y-4945333D01*
X58539047Y-5421523D01*
X58824761Y-4088190D02*
X58872380Y-4183428D01*
X58872380Y-4373904D01*
X58824761Y-4469142D01*
X58777142Y-4516761D01*
X58681904Y-4564380D01*
X58396190Y-4564380D01*
X58300952Y-4516761D01*
X58253333Y-4469142D01*
X58205714Y-4373904D01*
X58205714Y-4183428D01*
X58253333Y-4088190D01*
X58205714Y-3802476D02*
X58205714Y-3421523D01*
X57872380Y-3659619D02*
X58729523Y-3659619D01*
X58824761Y-3612000D01*
X58872380Y-3516761D01*
X58872380Y-3421523D01*
X58824761Y-2707238D02*
X58872380Y-2802476D01*
X58872380Y-2992952D01*
X58824761Y-3088190D01*
X58729523Y-3135809D01*
X58348571Y-3135809D01*
X58253333Y-3088190D01*
X58205714Y-2992952D01*
X58205714Y-2802476D01*
X58253333Y-2707238D01*
X58348571Y-2659619D01*
X58443809Y-2659619D01*
X58539047Y-3135809D01*
X58872380Y-1802476D02*
X57872380Y-1802476D01*
X58824761Y-1802476D02*
X58872380Y-1897714D01*
X58872380Y-2088190D01*
X58824761Y-2183428D01*
X58777142Y-2231047D01*
X58681904Y-2278666D01*
X58396190Y-2278666D01*
X58300952Y-2231047D01*
X58253333Y-2183428D01*
X58205714Y-2088190D01*
X58205714Y-1897714D01*
X58253333Y-1802476D01*
X58872380Y-802476D02*
X58872380Y-1373904D01*
X58872380Y-1088190D02*
X57872380Y-1088190D01*
X58015238Y-1183428D01*
X58110476Y-1278666D01*
X58158095Y-1373904D01*
%TO.C,Q4*%
X23679161Y-27522019D02*
X23583923Y-27474400D01*
X23488685Y-27379161D01*
X23345828Y-27236304D01*
X23250590Y-27188685D01*
X23155352Y-27188685D01*
X23202971Y-27426780D02*
X23107733Y-27379161D01*
X23012495Y-27283923D01*
X22964876Y-27093447D01*
X22964876Y-26760114D01*
X23012495Y-26569638D01*
X23107733Y-26474400D01*
X23202971Y-26426780D01*
X23393447Y-26426780D01*
X23488685Y-26474400D01*
X23583923Y-26569638D01*
X23631542Y-26760114D01*
X23631542Y-27093447D01*
X23583923Y-27283923D01*
X23488685Y-27379161D01*
X23393447Y-27426780D01*
X23202971Y-27426780D01*
X24488685Y-26760114D02*
X24488685Y-27426780D01*
X24250590Y-26379161D02*
X24012495Y-27093447D01*
X24631542Y-27093447D01*
%TO.C,R3*%
X46552380Y-1690666D02*
X46076190Y-2024000D01*
X46552380Y-2262095D02*
X45552380Y-2262095D01*
X45552380Y-1881142D01*
X45600000Y-1785904D01*
X45647619Y-1738285D01*
X45742857Y-1690666D01*
X45885714Y-1690666D01*
X45980952Y-1738285D01*
X46028571Y-1785904D01*
X46076190Y-1881142D01*
X46076190Y-2262095D01*
X45552380Y-1357333D02*
X45552380Y-738285D01*
X45933333Y-1071619D01*
X45933333Y-928761D01*
X45980952Y-833523D01*
X46028571Y-785904D01*
X46123809Y-738285D01*
X46361904Y-738285D01*
X46457142Y-785904D01*
X46504761Y-833523D01*
X46552380Y-928761D01*
X46552380Y-1214476D01*
X46504761Y-1309714D01*
X46457142Y-1357333D01*
%TO.C,R21*%
X62479180Y-76338857D02*
X62002990Y-76672190D01*
X62479180Y-76910285D02*
X61479180Y-76910285D01*
X61479180Y-76529333D01*
X61526800Y-76434095D01*
X61574419Y-76386476D01*
X61669657Y-76338857D01*
X61812514Y-76338857D01*
X61907752Y-76386476D01*
X61955371Y-76434095D01*
X62002990Y-76529333D01*
X62002990Y-76910285D01*
X61574419Y-75957904D02*
X61526800Y-75910285D01*
X61479180Y-75815047D01*
X61479180Y-75576952D01*
X61526800Y-75481714D01*
X61574419Y-75434095D01*
X61669657Y-75386476D01*
X61764895Y-75386476D01*
X61907752Y-75434095D01*
X62479180Y-76005523D01*
X62479180Y-75386476D01*
X62479180Y-74434095D02*
X62479180Y-75005523D01*
X62479180Y-74719809D02*
X61479180Y-74719809D01*
X61622038Y-74815047D01*
X61717276Y-74910285D01*
X61764895Y-75005523D01*
%TO.C,R16*%
X62479180Y-86013857D02*
X62002990Y-86347190D01*
X62479180Y-86585285D02*
X61479180Y-86585285D01*
X61479180Y-86204333D01*
X61526800Y-86109095D01*
X61574419Y-86061476D01*
X61669657Y-86013857D01*
X61812514Y-86013857D01*
X61907752Y-86061476D01*
X61955371Y-86109095D01*
X62002990Y-86204333D01*
X62002990Y-86585285D01*
X62479180Y-85061476D02*
X62479180Y-85632904D01*
X62479180Y-85347190D02*
X61479180Y-85347190D01*
X61622038Y-85442428D01*
X61717276Y-85537666D01*
X61764895Y-85632904D01*
X61479180Y-84204333D02*
X61479180Y-84394809D01*
X61526800Y-84490047D01*
X61574419Y-84537666D01*
X61717276Y-84632904D01*
X61907752Y-84680523D01*
X62288704Y-84680523D01*
X62383942Y-84632904D01*
X62431561Y-84585285D01*
X62479180Y-84490047D01*
X62479180Y-84299571D01*
X62431561Y-84204333D01*
X62383942Y-84156714D01*
X62288704Y-84109095D01*
X62050609Y-84109095D01*
X61955371Y-84156714D01*
X61907752Y-84204333D01*
X61860133Y-84299571D01*
X61860133Y-84490047D01*
X61907752Y-84585285D01*
X61955371Y-84632904D01*
X62050609Y-84680523D01*
%TO.C,R_0_if_no_usb_switch1*%
X51252380Y-18795047D02*
X50776190Y-19128380D01*
X51252380Y-19366476D02*
X50252380Y-19366476D01*
X50252380Y-18985523D01*
X50300000Y-18890285D01*
X50347619Y-18842666D01*
X50442857Y-18795047D01*
X50585714Y-18795047D01*
X50680952Y-18842666D01*
X50728571Y-18890285D01*
X50776190Y-18985523D01*
X50776190Y-19366476D01*
X51347619Y-18604571D02*
X51347619Y-17842666D01*
X50252380Y-17414095D02*
X50252380Y-17318857D01*
X50300000Y-17223619D01*
X50347619Y-17176000D01*
X50442857Y-17128380D01*
X50633333Y-17080761D01*
X50871428Y-17080761D01*
X51061904Y-17128380D01*
X51157142Y-17176000D01*
X51204761Y-17223619D01*
X51252380Y-17318857D01*
X51252380Y-17414095D01*
X51204761Y-17509333D01*
X51157142Y-17556952D01*
X51061904Y-17604571D01*
X50871428Y-17652190D01*
X50633333Y-17652190D01*
X50442857Y-17604571D01*
X50347619Y-17556952D01*
X50300000Y-17509333D01*
X50252380Y-17414095D01*
X51347619Y-16890285D02*
X51347619Y-16128380D01*
X51252380Y-15890285D02*
X50585714Y-15890285D01*
X50252380Y-15890285D02*
X50300000Y-15937904D01*
X50347619Y-15890285D01*
X50300000Y-15842666D01*
X50252380Y-15890285D01*
X50347619Y-15890285D01*
X50585714Y-15556952D02*
X50585714Y-15176000D01*
X51252380Y-15414095D02*
X50395238Y-15414095D01*
X50300000Y-15366476D01*
X50252380Y-15271238D01*
X50252380Y-15176000D01*
X51347619Y-15080761D02*
X51347619Y-14318857D01*
X50585714Y-14080761D02*
X51252380Y-14080761D01*
X50680952Y-14080761D02*
X50633333Y-14033142D01*
X50585714Y-13937904D01*
X50585714Y-13795047D01*
X50633333Y-13699809D01*
X50728571Y-13652190D01*
X51252380Y-13652190D01*
X51252380Y-13033142D02*
X51204761Y-13128380D01*
X51157142Y-13176000D01*
X51061904Y-13223619D01*
X50776190Y-13223619D01*
X50680952Y-13176000D01*
X50633333Y-13128380D01*
X50585714Y-13033142D01*
X50585714Y-12890285D01*
X50633333Y-12795047D01*
X50680952Y-12747428D01*
X50776190Y-12699809D01*
X51061904Y-12699809D01*
X51157142Y-12747428D01*
X51204761Y-12795047D01*
X51252380Y-12890285D01*
X51252380Y-13033142D01*
X51347619Y-12509333D02*
X51347619Y-11747428D01*
X50585714Y-11080761D02*
X51252380Y-11080761D01*
X50585714Y-11509333D02*
X51109523Y-11509333D01*
X51204761Y-11461714D01*
X51252380Y-11366476D01*
X51252380Y-11223619D01*
X51204761Y-11128380D01*
X51157142Y-11080761D01*
X51204761Y-10652190D02*
X51252380Y-10556952D01*
X51252380Y-10366476D01*
X51204761Y-10271238D01*
X51109523Y-10223619D01*
X51061904Y-10223619D01*
X50966666Y-10271238D01*
X50919047Y-10366476D01*
X50919047Y-10509333D01*
X50871428Y-10604571D01*
X50776190Y-10652190D01*
X50728571Y-10652190D01*
X50633333Y-10604571D01*
X50585714Y-10509333D01*
X50585714Y-10366476D01*
X50633333Y-10271238D01*
X51252380Y-9795047D02*
X50252380Y-9795047D01*
X50633333Y-9795047D02*
X50585714Y-9699809D01*
X50585714Y-9509333D01*
X50633333Y-9414095D01*
X50680952Y-9366476D01*
X50776190Y-9318857D01*
X51061904Y-9318857D01*
X51157142Y-9366476D01*
X51204761Y-9414095D01*
X51252380Y-9509333D01*
X51252380Y-9699809D01*
X51204761Y-9795047D01*
X51347619Y-9128380D02*
X51347619Y-8366476D01*
X51204761Y-8176000D02*
X51252380Y-8080761D01*
X51252380Y-7890285D01*
X51204761Y-7795047D01*
X51109523Y-7747428D01*
X51061904Y-7747428D01*
X50966666Y-7795047D01*
X50919047Y-7890285D01*
X50919047Y-8033142D01*
X50871428Y-8128380D01*
X50776190Y-8176000D01*
X50728571Y-8176000D01*
X50633333Y-8128380D01*
X50585714Y-8033142D01*
X50585714Y-7890285D01*
X50633333Y-7795047D01*
X50585714Y-7414095D02*
X51252380Y-7223619D01*
X50776190Y-7033142D01*
X51252380Y-6842666D01*
X50585714Y-6652190D01*
X51252380Y-6271238D02*
X50585714Y-6271238D01*
X50252380Y-6271238D02*
X50300000Y-6318857D01*
X50347619Y-6271238D01*
X50300000Y-6223619D01*
X50252380Y-6271238D01*
X50347619Y-6271238D01*
X50585714Y-5937904D02*
X50585714Y-5556952D01*
X50252380Y-5795047D02*
X51109523Y-5795047D01*
X51204761Y-5747428D01*
X51252380Y-5652190D01*
X51252380Y-5556952D01*
X51204761Y-4795047D02*
X51252380Y-4890285D01*
X51252380Y-5080761D01*
X51204761Y-5176000D01*
X51157142Y-5223619D01*
X51061904Y-5271238D01*
X50776190Y-5271238D01*
X50680952Y-5223619D01*
X50633333Y-5176000D01*
X50585714Y-5080761D01*
X50585714Y-4890285D01*
X50633333Y-4795047D01*
X51252380Y-4366476D02*
X50252380Y-4366476D01*
X51252380Y-3937904D02*
X50728571Y-3937904D01*
X50633333Y-3985523D01*
X50585714Y-4080761D01*
X50585714Y-4223619D01*
X50633333Y-4318857D01*
X50680952Y-4366476D01*
X51252380Y-2937904D02*
X51252380Y-3509333D01*
X51252380Y-3223619D02*
X50252380Y-3223619D01*
X50395238Y-3318857D01*
X50490476Y-3414095D01*
X50538095Y-3509333D01*
%TO.C,R2*%
X48052380Y-1690666D02*
X47576190Y-2024000D01*
X48052380Y-2262095D02*
X47052380Y-2262095D01*
X47052380Y-1881142D01*
X47100000Y-1785904D01*
X47147619Y-1738285D01*
X47242857Y-1690666D01*
X47385714Y-1690666D01*
X47480952Y-1738285D01*
X47528571Y-1785904D01*
X47576190Y-1881142D01*
X47576190Y-2262095D01*
X47147619Y-1309714D02*
X47100000Y-1262095D01*
X47052380Y-1166857D01*
X47052380Y-928761D01*
X47100000Y-833523D01*
X47147619Y-785904D01*
X47242857Y-738285D01*
X47338095Y-738285D01*
X47480952Y-785904D01*
X48052380Y-1357333D01*
X48052380Y-738285D01*
%TO.C,D8*%
X32253180Y-77700095D02*
X31253180Y-77700095D01*
X31253180Y-77462000D01*
X31300800Y-77319142D01*
X31396038Y-77223904D01*
X31491276Y-77176285D01*
X31681752Y-77128666D01*
X31824609Y-77128666D01*
X32015085Y-77176285D01*
X32110323Y-77223904D01*
X32205561Y-77319142D01*
X32253180Y-77462000D01*
X32253180Y-77700095D01*
X31681752Y-76557238D02*
X31634133Y-76652476D01*
X31586514Y-76700095D01*
X31491276Y-76747714D01*
X31443657Y-76747714D01*
X31348419Y-76700095D01*
X31300800Y-76652476D01*
X31253180Y-76557238D01*
X31253180Y-76366761D01*
X31300800Y-76271523D01*
X31348419Y-76223904D01*
X31443657Y-76176285D01*
X31491276Y-76176285D01*
X31586514Y-76223904D01*
X31634133Y-76271523D01*
X31681752Y-76366761D01*
X31681752Y-76557238D01*
X31729371Y-76652476D01*
X31776990Y-76700095D01*
X31872228Y-76747714D01*
X32062704Y-76747714D01*
X32157942Y-76700095D01*
X32205561Y-76652476D01*
X32253180Y-76557238D01*
X32253180Y-76366761D01*
X32205561Y-76271523D01*
X32157942Y-76223904D01*
X32062704Y-76176285D01*
X31872228Y-76176285D01*
X31776990Y-76223904D01*
X31729371Y-76271523D01*
X31681752Y-76366761D01*
%TO.C,H1*%
X71238095Y-11152380D02*
X71238095Y-10152380D01*
X71238095Y-10628571D02*
X71809523Y-10628571D01*
X71809523Y-11152380D02*
X71809523Y-10152380D01*
X72809523Y-11152380D02*
X72238095Y-11152380D01*
X72523809Y-11152380D02*
X72523809Y-10152380D01*
X72428571Y-10295238D01*
X72333333Y-10390476D01*
X72238095Y-10438095D01*
%TO.C,T2*%
X10160095Y-48180380D02*
X10731523Y-48180380D01*
X10445809Y-49180380D02*
X10445809Y-48180380D01*
X11017238Y-48275619D02*
X11064857Y-48228000D01*
X11160095Y-48180380D01*
X11398190Y-48180380D01*
X11493428Y-48228000D01*
X11541047Y-48275619D01*
X11588666Y-48370857D01*
X11588666Y-48466095D01*
X11541047Y-48608952D01*
X10969619Y-49180380D01*
X11588666Y-49180380D01*
%TO.C,D6*%
X36926780Y-77700095D02*
X35926780Y-77700095D01*
X35926780Y-77462000D01*
X35974400Y-77319142D01*
X36069638Y-77223904D01*
X36164876Y-77176285D01*
X36355352Y-77128666D01*
X36498209Y-77128666D01*
X36688685Y-77176285D01*
X36783923Y-77223904D01*
X36879161Y-77319142D01*
X36926780Y-77462000D01*
X36926780Y-77700095D01*
X35926780Y-76271523D02*
X35926780Y-76462000D01*
X35974400Y-76557238D01*
X36022019Y-76604857D01*
X36164876Y-76700095D01*
X36355352Y-76747714D01*
X36736304Y-76747714D01*
X36831542Y-76700095D01*
X36879161Y-76652476D01*
X36926780Y-76557238D01*
X36926780Y-76366761D01*
X36879161Y-76271523D01*
X36831542Y-76223904D01*
X36736304Y-76176285D01*
X36498209Y-76176285D01*
X36402971Y-76223904D01*
X36355352Y-76271523D01*
X36307733Y-76366761D01*
X36307733Y-76557238D01*
X36355352Y-76652476D01*
X36402971Y-76700095D01*
X36498209Y-76747714D01*
%TO.C,C3*%
X21693142Y-49345666D02*
X21740761Y-49393285D01*
X21788380Y-49536142D01*
X21788380Y-49631380D01*
X21740761Y-49774238D01*
X21645523Y-49869476D01*
X21550285Y-49917095D01*
X21359809Y-49964714D01*
X21216952Y-49964714D01*
X21026476Y-49917095D01*
X20931238Y-49869476D01*
X20836000Y-49774238D01*
X20788380Y-49631380D01*
X20788380Y-49536142D01*
X20836000Y-49393285D01*
X20883619Y-49345666D01*
X20788380Y-49012333D02*
X20788380Y-48393285D01*
X21169333Y-48726619D01*
X21169333Y-48583761D01*
X21216952Y-48488523D01*
X21264571Y-48440904D01*
X21359809Y-48393285D01*
X21597904Y-48393285D01*
X21693142Y-48440904D01*
X21740761Y-48488523D01*
X21788380Y-48583761D01*
X21788380Y-48869476D01*
X21740761Y-48964714D01*
X21693142Y-49012333D01*
%TO.C,R18*%
X65479180Y-86013857D02*
X65002990Y-86347190D01*
X65479180Y-86585285D02*
X64479180Y-86585285D01*
X64479180Y-86204333D01*
X64526800Y-86109095D01*
X64574419Y-86061476D01*
X64669657Y-86013857D01*
X64812514Y-86013857D01*
X64907752Y-86061476D01*
X64955371Y-86109095D01*
X65002990Y-86204333D01*
X65002990Y-86585285D01*
X65479180Y-85061476D02*
X65479180Y-85632904D01*
X65479180Y-85347190D02*
X64479180Y-85347190D01*
X64622038Y-85442428D01*
X64717276Y-85537666D01*
X64764895Y-85632904D01*
X64907752Y-84490047D02*
X64860133Y-84585285D01*
X64812514Y-84632904D01*
X64717276Y-84680523D01*
X64669657Y-84680523D01*
X64574419Y-84632904D01*
X64526800Y-84585285D01*
X64479180Y-84490047D01*
X64479180Y-84299571D01*
X64526800Y-84204333D01*
X64574419Y-84156714D01*
X64669657Y-84109095D01*
X64717276Y-84109095D01*
X64812514Y-84156714D01*
X64860133Y-84204333D01*
X64907752Y-84299571D01*
X64907752Y-84490047D01*
X64955371Y-84585285D01*
X65002990Y-84632904D01*
X65098228Y-84680523D01*
X65288704Y-84680523D01*
X65383942Y-84632904D01*
X65431561Y-84585285D01*
X65479180Y-84490047D01*
X65479180Y-84299571D01*
X65431561Y-84204333D01*
X65383942Y-84156714D01*
X65288704Y-84109095D01*
X65098228Y-84109095D01*
X65002990Y-84156714D01*
X64955371Y-84204333D01*
X64907752Y-84299571D01*
%TO.C,R1*%
X49552380Y-1690666D02*
X49076190Y-2024000D01*
X49552380Y-2262095D02*
X48552380Y-2262095D01*
X48552380Y-1881142D01*
X48600000Y-1785904D01*
X48647619Y-1738285D01*
X48742857Y-1690666D01*
X48885714Y-1690666D01*
X48980952Y-1738285D01*
X49028571Y-1785904D01*
X49076190Y-1881142D01*
X49076190Y-2262095D01*
X49552380Y-738285D02*
X49552380Y-1309714D01*
X49552380Y-1024000D02*
X48552380Y-1024000D01*
X48695238Y-1119238D01*
X48790476Y-1214476D01*
X48838095Y-1309714D01*
%TO.C,R4*%
X45052380Y-1690666D02*
X44576190Y-2024000D01*
X45052380Y-2262095D02*
X44052380Y-2262095D01*
X44052380Y-1881142D01*
X44100000Y-1785904D01*
X44147619Y-1738285D01*
X44242857Y-1690666D01*
X44385714Y-1690666D01*
X44480952Y-1738285D01*
X44528571Y-1785904D01*
X44576190Y-1881142D01*
X44576190Y-2262095D01*
X44385714Y-833523D02*
X45052380Y-833523D01*
X44004761Y-1071619D02*
X44719047Y-1309714D01*
X44719047Y-690666D01*
%TO.C,R27*%
X54300380Y-2674857D02*
X53824190Y-3008190D01*
X54300380Y-3246285D02*
X53300380Y-3246285D01*
X53300380Y-2865333D01*
X53348000Y-2770095D01*
X53395619Y-2722476D01*
X53490857Y-2674857D01*
X53633714Y-2674857D01*
X53728952Y-2722476D01*
X53776571Y-2770095D01*
X53824190Y-2865333D01*
X53824190Y-3246285D01*
X53395619Y-2293904D02*
X53348000Y-2246285D01*
X53300380Y-2151047D01*
X53300380Y-1912952D01*
X53348000Y-1817714D01*
X53395619Y-1770095D01*
X53490857Y-1722476D01*
X53586095Y-1722476D01*
X53728952Y-1770095D01*
X54300380Y-2341523D01*
X54300380Y-1722476D01*
X53300380Y-1389142D02*
X53300380Y-722476D01*
X54300380Y-1151047D01*
%TO.C,U2*%
X57664445Y-11735180D02*
X57664445Y-12544704D01*
X57712064Y-12639942D01*
X57759683Y-12687561D01*
X57854921Y-12735180D01*
X58045397Y-12735180D01*
X58140635Y-12687561D01*
X58188254Y-12639942D01*
X58235873Y-12544704D01*
X58235873Y-11735180D01*
X58664445Y-11830419D02*
X58712064Y-11782800D01*
X58807302Y-11735180D01*
X59045397Y-11735180D01*
X59140635Y-11782800D01*
X59188254Y-11830419D01*
X59235873Y-11925657D01*
X59235873Y-12020895D01*
X59188254Y-12163752D01*
X58616826Y-12735180D01*
X59235873Y-12735180D01*
%TO.C,R10*%
X54979180Y-76338857D02*
X54502990Y-76672190D01*
X54979180Y-76910285D02*
X53979180Y-76910285D01*
X53979180Y-76529333D01*
X54026800Y-76434095D01*
X54074419Y-76386476D01*
X54169657Y-76338857D01*
X54312514Y-76338857D01*
X54407752Y-76386476D01*
X54455371Y-76434095D01*
X54502990Y-76529333D01*
X54502990Y-76910285D01*
X54979180Y-75386476D02*
X54979180Y-75957904D01*
X54979180Y-75672190D02*
X53979180Y-75672190D01*
X54122038Y-75767428D01*
X54217276Y-75862666D01*
X54264895Y-75957904D01*
X53979180Y-74767428D02*
X53979180Y-74672190D01*
X54026800Y-74576952D01*
X54074419Y-74529333D01*
X54169657Y-74481714D01*
X54360133Y-74434095D01*
X54598228Y-74434095D01*
X54788704Y-74481714D01*
X54883942Y-74529333D01*
X54931561Y-74576952D01*
X54979180Y-74672190D01*
X54979180Y-74767428D01*
X54931561Y-74862666D01*
X54883942Y-74910285D01*
X54788704Y-74957904D01*
X54598228Y-75005523D01*
X54360133Y-75005523D01*
X54169657Y-74957904D01*
X54074419Y-74910285D01*
X54026800Y-74862666D01*
X53979180Y-74767428D01*
%TO.C,R15*%
X60979180Y-86013857D02*
X60502990Y-86347190D01*
X60979180Y-86585285D02*
X59979180Y-86585285D01*
X59979180Y-86204333D01*
X60026800Y-86109095D01*
X60074419Y-86061476D01*
X60169657Y-86013857D01*
X60312514Y-86013857D01*
X60407752Y-86061476D01*
X60455371Y-86109095D01*
X60502990Y-86204333D01*
X60502990Y-86585285D01*
X60979180Y-85061476D02*
X60979180Y-85632904D01*
X60979180Y-85347190D02*
X59979180Y-85347190D01*
X60122038Y-85442428D01*
X60217276Y-85537666D01*
X60264895Y-85632904D01*
X59979180Y-84156714D02*
X59979180Y-84632904D01*
X60455371Y-84680523D01*
X60407752Y-84632904D01*
X60360133Y-84537666D01*
X60360133Y-84299571D01*
X60407752Y-84204333D01*
X60455371Y-84156714D01*
X60550609Y-84109095D01*
X60788704Y-84109095D01*
X60883942Y-84156714D01*
X60931561Y-84204333D01*
X60979180Y-84299571D01*
X60979180Y-84537666D01*
X60931561Y-84632904D01*
X60883942Y-84680523D01*
%TO.C,R20*%
X60979180Y-76338857D02*
X60502990Y-76672190D01*
X60979180Y-76910285D02*
X59979180Y-76910285D01*
X59979180Y-76529333D01*
X60026800Y-76434095D01*
X60074419Y-76386476D01*
X60169657Y-76338857D01*
X60312514Y-76338857D01*
X60407752Y-76386476D01*
X60455371Y-76434095D01*
X60502990Y-76529333D01*
X60502990Y-76910285D01*
X60074419Y-75957904D02*
X60026800Y-75910285D01*
X59979180Y-75815047D01*
X59979180Y-75576952D01*
X60026800Y-75481714D01*
X60074419Y-75434095D01*
X60169657Y-75386476D01*
X60264895Y-75386476D01*
X60407752Y-75434095D01*
X60979180Y-76005523D01*
X60979180Y-75386476D01*
X59979180Y-74767428D02*
X59979180Y-74672190D01*
X60026800Y-74576952D01*
X60074419Y-74529333D01*
X60169657Y-74481714D01*
X60360133Y-74434095D01*
X60598228Y-74434095D01*
X60788704Y-74481714D01*
X60883942Y-74529333D01*
X60931561Y-74576952D01*
X60979180Y-74672190D01*
X60979180Y-74767428D01*
X60931561Y-74862666D01*
X60883942Y-74910285D01*
X60788704Y-74957904D01*
X60598228Y-75005523D01*
X60360133Y-75005523D01*
X60169657Y-74957904D01*
X60074419Y-74910285D01*
X60026800Y-74862666D01*
X59979180Y-74767428D01*
%TO.C,R12*%
X57979180Y-76338857D02*
X57502990Y-76672190D01*
X57979180Y-76910285D02*
X56979180Y-76910285D01*
X56979180Y-76529333D01*
X57026800Y-76434095D01*
X57074419Y-76386476D01*
X57169657Y-76338857D01*
X57312514Y-76338857D01*
X57407752Y-76386476D01*
X57455371Y-76434095D01*
X57502990Y-76529333D01*
X57502990Y-76910285D01*
X57979180Y-75386476D02*
X57979180Y-75957904D01*
X57979180Y-75672190D02*
X56979180Y-75672190D01*
X57122038Y-75767428D01*
X57217276Y-75862666D01*
X57264895Y-75957904D01*
X57074419Y-75005523D02*
X57026800Y-74957904D01*
X56979180Y-74862666D01*
X56979180Y-74624571D01*
X57026800Y-74529333D01*
X57074419Y-74481714D01*
X57169657Y-74434095D01*
X57264895Y-74434095D01*
X57407752Y-74481714D01*
X57979180Y-75053142D01*
X57979180Y-74434095D01*
%TO.C,Q3*%
X14509761Y-18962619D02*
X14414523Y-18915000D01*
X14319285Y-18819761D01*
X14176428Y-18676904D01*
X14081190Y-18629285D01*
X13985952Y-18629285D01*
X14033571Y-18867380D02*
X13938333Y-18819761D01*
X13843095Y-18724523D01*
X13795476Y-18534047D01*
X13795476Y-18200714D01*
X13843095Y-18010238D01*
X13938333Y-17915000D01*
X14033571Y-17867380D01*
X14224047Y-17867380D01*
X14319285Y-17915000D01*
X14414523Y-18010238D01*
X14462142Y-18200714D01*
X14462142Y-18534047D01*
X14414523Y-18724523D01*
X14319285Y-18819761D01*
X14224047Y-18867380D01*
X14033571Y-18867380D01*
X14795476Y-17867380D02*
X15414523Y-17867380D01*
X15081190Y-18248333D01*
X15224047Y-18248333D01*
X15319285Y-18295952D01*
X15366904Y-18343571D01*
X15414523Y-18438809D01*
X15414523Y-18676904D01*
X15366904Y-18772142D01*
X15319285Y-18819761D01*
X15224047Y-18867380D01*
X14938333Y-18867380D01*
X14843095Y-18819761D01*
X14795476Y-18772142D01*
%TO.C,T7*%
X18288095Y-6437380D02*
X18859523Y-6437380D01*
X18573809Y-7437380D02*
X18573809Y-6437380D01*
X19097619Y-6437380D02*
X19764285Y-6437380D01*
X19335714Y-7437380D01*
%TO.C,U1*%
X44738095Y-34952380D02*
X44738095Y-35761904D01*
X44785714Y-35857142D01*
X44833333Y-35904761D01*
X44928571Y-35952380D01*
X45119047Y-35952380D01*
X45214285Y-35904761D01*
X45261904Y-35857142D01*
X45309523Y-35761904D01*
X45309523Y-34952380D01*
X46309523Y-35952380D02*
X45738095Y-35952380D01*
X46023809Y-35952380D02*
X46023809Y-34952380D01*
X45928571Y-35095238D01*
X45833333Y-35190476D01*
X45738095Y-35238095D01*
%TO.C,S1*%
X12438095Y-54044761D02*
X12580952Y-54092380D01*
X12819047Y-54092380D01*
X12914285Y-54044761D01*
X12961904Y-53997142D01*
X13009523Y-53901904D01*
X13009523Y-53806666D01*
X12961904Y-53711428D01*
X12914285Y-53663809D01*
X12819047Y-53616190D01*
X12628571Y-53568571D01*
X12533333Y-53520952D01*
X12485714Y-53473333D01*
X12438095Y-53378095D01*
X12438095Y-53282857D01*
X12485714Y-53187619D01*
X12533333Y-53140000D01*
X12628571Y-53092380D01*
X12866666Y-53092380D01*
X13009523Y-53140000D01*
X13961904Y-54092380D02*
X13390476Y-54092380D01*
X13676190Y-54092380D02*
X13676190Y-53092380D01*
X13580952Y-53235238D01*
X13485714Y-53330476D01*
X13390476Y-53378095D01*
%TO.C,T8*%
X18288095Y-2627380D02*
X18859523Y-2627380D01*
X18573809Y-3627380D02*
X18573809Y-2627380D01*
X19335714Y-3055952D02*
X19240476Y-3008333D01*
X19192857Y-2960714D01*
X19145238Y-2865476D01*
X19145238Y-2817857D01*
X19192857Y-2722619D01*
X19240476Y-2675000D01*
X19335714Y-2627380D01*
X19526190Y-2627380D01*
X19621428Y-2675000D01*
X19669047Y-2722619D01*
X19716666Y-2817857D01*
X19716666Y-2865476D01*
X19669047Y-2960714D01*
X19621428Y-3008333D01*
X19526190Y-3055952D01*
X19335714Y-3055952D01*
X19240476Y-3103571D01*
X19192857Y-3151190D01*
X19145238Y-3246428D01*
X19145238Y-3436904D01*
X19192857Y-3532142D01*
X19240476Y-3579761D01*
X19335714Y-3627380D01*
X19526190Y-3627380D01*
X19621428Y-3579761D01*
X19669047Y-3532142D01*
X19716666Y-3436904D01*
X19716666Y-3246428D01*
X19669047Y-3151190D01*
X19621428Y-3103571D01*
X19526190Y-3055952D01*
%TO.C,BZ1*%
X12524571Y-32452952D02*
X12572190Y-32310095D01*
X12619809Y-32262476D01*
X12715047Y-32214857D01*
X12857904Y-32214857D01*
X12953142Y-32262476D01*
X13000761Y-32310095D01*
X13048380Y-32405333D01*
X13048380Y-32786285D01*
X12048380Y-32786285D01*
X12048380Y-32452952D01*
X12096000Y-32357714D01*
X12143619Y-32310095D01*
X12238857Y-32262476D01*
X12334095Y-32262476D01*
X12429333Y-32310095D01*
X12476952Y-32357714D01*
X12524571Y-32452952D01*
X12524571Y-32786285D01*
X12048380Y-31881523D02*
X12048380Y-31214857D01*
X13048380Y-31881523D01*
X13048380Y-31214857D01*
X13048380Y-30310095D02*
X13048380Y-30881523D01*
X13048380Y-30595809D02*
X12048380Y-30595809D01*
X12191238Y-30691047D01*
X12286476Y-30786285D01*
X12334095Y-30881523D01*
D11*
X13480142Y-27774095D02*
X13480142Y-26225904D01*
X14254238Y-27000000D02*
X12706047Y-27000000D01*
D12*
%TO.C,R11*%
X56549300Y-78533742D02*
X56549300Y-79008258D01*
X55504300Y-78533742D02*
X55504300Y-79008258D01*
%TO.C,R13*%
X58504300Y-79008258D02*
X58504300Y-78533742D01*
X59549300Y-79008258D02*
X59549300Y-78533742D01*
%TO.C,R5*%
X42577500Y-5362258D02*
X42577500Y-4887742D01*
X43622500Y-5362258D02*
X43622500Y-4887742D01*
%TO.C,D7*%
X35138800Y-78435200D02*
X33208400Y-78435200D01*
%TO.C,D1*%
X48564800Y-78435200D02*
X46634400Y-78435200D01*
%TO.C,D2*%
X46314800Y-78435200D02*
X44384400Y-78435200D01*
%TO.C,D3*%
X44079600Y-78435200D02*
X42149200Y-78435200D01*
%TO.C,T5*%
X8660000Y-76073000D02*
X8660000Y-69088000D01*
X11660000Y-69088000D02*
X11660000Y-76073000D01*
%TO.C,R8*%
X58049300Y-82058742D02*
X58049300Y-82533258D01*
X57004300Y-82058742D02*
X57004300Y-82533258D01*
%TO.C,Q1*%
X50190000Y-9000000D02*
X50190000Y-8350000D01*
X50190000Y-9000000D02*
X50190000Y-9650000D01*
X53310000Y-9000000D02*
X53310000Y-7325000D01*
X53310000Y-9000000D02*
X53310000Y-9650000D01*
%TO.C,C2*%
X27640500Y-46922258D02*
X27640500Y-46447742D01*
X26595500Y-46922258D02*
X26595500Y-46447742D01*
D10*
%TO.C,Y1*%
X21678000Y-48300000D02*
X32678000Y-48300000D01*
X32678000Y-48300000D02*
X32678000Y-53300000D01*
X32678000Y-53300000D02*
X21678000Y-53300000D01*
X21678000Y-53300000D02*
X21678000Y-48300000D01*
D12*
%TO.C,R_0_if_no_auto_power_off1*%
X42026100Y-5354858D02*
X42026100Y-4880342D01*
X40981100Y-5354858D02*
X40981100Y-4880342D01*
%TO.C,R23*%
X65549300Y-79008258D02*
X65549300Y-78533742D01*
X64504300Y-79008258D02*
X64504300Y-78533742D01*
%TO.C,D5*%
X39609200Y-78435200D02*
X37678800Y-78435200D01*
%TO.C,R28*%
X54727500Y-4762742D02*
X54727500Y-5237258D01*
X55772500Y-4762742D02*
X55772500Y-5237258D01*
%TO.C,R6*%
X54004300Y-82058742D02*
X54004300Y-82533258D01*
X55049300Y-82058742D02*
X55049300Y-82533258D01*
%TO.C,D10*%
X30617600Y-78435200D02*
X28687200Y-78435200D01*
%TO.C,D9*%
X2844800Y-60655200D02*
X914400Y-60655200D01*
%TO.C,Q2*%
X54675600Y-8991600D02*
X54675600Y-8341600D01*
X57795600Y-8991600D02*
X57795600Y-9641600D01*
X57795600Y-8991600D02*
X57795600Y-7316600D01*
X54675600Y-8991600D02*
X54675600Y-9641600D01*
%TO.C,R25*%
X52772500Y-4762742D02*
X52772500Y-5237258D01*
X51727500Y-4762742D02*
X51727500Y-5237258D01*
%TO.C,R7*%
X56549300Y-82058742D02*
X56549300Y-82533258D01*
X55504300Y-82058742D02*
X55504300Y-82533258D01*
%TO.C,R22*%
X63004300Y-78533742D02*
X63004300Y-79008258D01*
X64049300Y-78533742D02*
X64049300Y-79008258D01*
%TO.C,D4*%
X41844400Y-78435200D02*
X39914000Y-78435200D01*
%TO.C,R_reset_pullup1*%
X51903100Y-79028058D02*
X51903100Y-78553542D01*
X52948100Y-79028058D02*
X52948100Y-78553542D01*
%TO.C,C1*%
X30688500Y-46350742D02*
X30688500Y-46825258D01*
X29643500Y-46350742D02*
X29643500Y-46825258D01*
D10*
%TO.C,J1*%
X7100000Y-69768000D02*
X7100000Y-77468000D01*
X7100000Y-77468000D02*
X100000Y-77468000D01*
X100000Y-69768000D02*
X7100000Y-69768000D01*
%TO.C,J2*%
X70900000Y-23582000D02*
X77900000Y-23582000D01*
X70900000Y-31282000D02*
X70900000Y-23582000D01*
X77900000Y-31282000D02*
X70900000Y-31282000D01*
D12*
%TO.C,R19*%
X23605258Y-46837500D02*
X23130742Y-46837500D01*
X23605258Y-47882500D02*
X23130742Y-47882500D01*
%TO.C,R9*%
X58504300Y-82058742D02*
X58504300Y-82533258D01*
X59549300Y-82058742D02*
X59549300Y-82533258D01*
%TO.C,R26*%
X56227500Y-5237258D02*
X56227500Y-4762742D01*
X57272500Y-5237258D02*
X57272500Y-4762742D01*
%TO.C,R17*%
X63004300Y-82058742D02*
X63004300Y-82533258D01*
X64049300Y-82058742D02*
X64049300Y-82533258D01*
%TO.C,R_vcc_protected1*%
X57795900Y-5215658D02*
X57795900Y-4741142D01*
X58840900Y-5215658D02*
X58840900Y-4741142D01*
%TO.C,Q4*%
X25574400Y-21564400D02*
X21974400Y-21564400D01*
X21935922Y-21575922D02*
G75*
G03*
X23774400Y-26014400I1838478J-1838478D01*
G01*
X23774400Y-26014401D02*
G75*
G03*
X25612878Y-21575922I0J2600001D01*
G01*
%TO.C,R3*%
X46622500Y-5362258D02*
X46622500Y-4887742D01*
X45577500Y-5362258D02*
X45577500Y-4887742D01*
%TO.C,R21*%
X61504300Y-79008258D02*
X61504300Y-78533742D01*
X62549300Y-79008258D02*
X62549300Y-78533742D01*
%TO.C,R16*%
X61504300Y-82058742D02*
X61504300Y-82533258D01*
X62549300Y-82058742D02*
X62549300Y-82533258D01*
%TO.C,R_0_if_no_usb_switch1*%
X50152500Y-4762742D02*
X50152500Y-5237258D01*
X51197500Y-4762742D02*
X51197500Y-5237258D01*
%TO.C,R2*%
X48122500Y-5262258D02*
X48122500Y-4787742D01*
X47077500Y-5262258D02*
X47077500Y-4787742D01*
%TO.C,D8*%
X32903600Y-78435200D02*
X30973200Y-78435200D01*
%TO.C,T2*%
X14732000Y-47728000D02*
X7747000Y-47728000D01*
X7747000Y-44728000D02*
X14732000Y-44728000D01*
%TO.C,D6*%
X37374000Y-78435200D02*
X35443600Y-78435200D01*
%TO.C,C3*%
X20559500Y-46719258D02*
X20559500Y-46244742D01*
X21604500Y-46719258D02*
X21604500Y-46244742D01*
%TO.C,R18*%
X65549300Y-82058742D02*
X65549300Y-82533258D01*
X64504300Y-82058742D02*
X64504300Y-82533258D01*
%TO.C,R1*%
X49622500Y-5162258D02*
X49622500Y-4687742D01*
X48577500Y-5162258D02*
X48577500Y-4687742D01*
%TO.C,R4*%
X45122500Y-5362258D02*
X45122500Y-4887742D01*
X44077500Y-5362258D02*
X44077500Y-4887742D01*
%TO.C,R27*%
X53227500Y-5237258D02*
X53227500Y-4762742D01*
X54272500Y-5237258D02*
X54272500Y-4762742D01*
%TO.C,R10*%
X54004300Y-79008258D02*
X54004300Y-78533742D01*
X55049300Y-79008258D02*
X55049300Y-78533742D01*
%TO.C,R15*%
X60004300Y-82058742D02*
X60004300Y-82533258D01*
X61049300Y-82058742D02*
X61049300Y-82533258D01*
%TO.C,R20*%
X60004300Y-78533742D02*
X60004300Y-79008258D01*
X61049300Y-78533742D02*
X61049300Y-79008258D01*
%TO.C,R12*%
X58049300Y-79008258D02*
X58049300Y-78533742D01*
X57004300Y-79008258D02*
X57004300Y-78533742D01*
%TO.C,Q3*%
X16184400Y-20341600D02*
X16899400Y-20341600D01*
X30649400Y-20341600D02*
X31364400Y-20341600D01*
X25174400Y-16811600D02*
X27849400Y-16811600D01*
X16184400Y-15301600D02*
X31364400Y-15301600D01*
X16184400Y-15301600D02*
X16184400Y-20341600D01*
X31364400Y-15301600D02*
X31364400Y-20341600D01*
X21659400Y-15301600D02*
X21659400Y-16811600D01*
X25174400Y-20341600D02*
X27849400Y-20341600D01*
X19699400Y-20341600D02*
X22374400Y-20341600D01*
X19699400Y-16811600D02*
X22374400Y-16811600D01*
X30649400Y-16811600D02*
X31364400Y-16811600D01*
X16184400Y-16811600D02*
X16899400Y-16811600D01*
X25889400Y-15301600D02*
X25889400Y-16811600D01*
D10*
%TO.C,BZ1*%
X12494400Y-27000000D02*
G75*
G03*
X12494400Y-27000000I-5994400J0D01*
G01*
%TD*%
M02*
