%TF.GenerationSoftware,KiCad,Pcbnew,(6.0.0)*%
%TF.CreationDate,2023-02-05T23:32:21-08:00*%
%TF.ProjectId,Luciebox_v5,4c756369-6562-46f7-985f-76352e6b6963,rev?*%
%TF.SameCoordinates,Original*%
%TF.FileFunction,Copper,L1,Top*%
%TF.FilePolarity,Positive*%
%FSLAX46Y46*%
G04 Gerber Fmt 4.6, Leading zero omitted, Abs format (unit mm)*
G04 Created by KiCad (PCBNEW (6.0.0)) date 2023-02-05 23:32:21*
%MOMM*%
%LPD*%
G01*
G04 APERTURE LIST*
G04 Aperture macros list*
%AMRoundRect*
0 Rectangle with rounded corners*
0 $1 Rounding radius*
0 $2 $3 $4 $5 $6 $7 $8 $9 X,Y pos of 4 corners*
0 Add a 4 corners polygon primitive as box body*
4,1,4,$2,$3,$4,$5,$6,$7,$8,$9,$2,$3,0*
0 Add four circle primitives for the rounded corners*
1,1,$1+$1,$2,$3*
1,1,$1+$1,$4,$5*
1,1,$1+$1,$6,$7*
1,1,$1+$1,$8,$9*
0 Add four rect primitives between the rounded corners*
20,1,$1+$1,$2,$3,$4,$5,0*
20,1,$1+$1,$4,$5,$6,$7,0*
20,1,$1+$1,$6,$7,$8,$9,0*
20,1,$1+$1,$8,$9,$2,$3,0*%
G04 Aperture macros list end*
%TA.AperFunction,SMDPad,CuDef*%
%ADD10RoundRect,0.200000X-0.275000X0.200000X-0.275000X-0.200000X0.275000X-0.200000X0.275000X0.200000X0*%
%TD*%
%TA.AperFunction,SMDPad,CuDef*%
%ADD11RoundRect,0.200000X0.275000X-0.200000X0.275000X0.200000X-0.275000X0.200000X-0.275000X-0.200000X0*%
%TD*%
%TA.AperFunction,SMDPad,CuDef*%
%ADD12R,1.800000X2.500000*%
%TD*%
%TA.AperFunction,ComponentPad*%
%ADD13R,2.000000X1.200000*%
%TD*%
%TA.AperFunction,ComponentPad*%
%ADD14O,2.000000X1.200000*%
%TD*%
%TA.AperFunction,SMDPad,CuDef*%
%ADD15RoundRect,0.150000X-0.150000X0.587500X-0.150000X-0.587500X0.150000X-0.587500X0.150000X0.587500X0*%
%TD*%
%TA.AperFunction,ComponentPad*%
%ADD16C,1.000000*%
%TD*%
%TA.AperFunction,ComponentPad*%
%ADD17O,1.650000X1.100000*%
%TD*%
%TA.AperFunction,ComponentPad*%
%ADD18O,2.700000X1.700000*%
%TD*%
%TA.AperFunction,SMDPad,CuDef*%
%ADD19RoundRect,0.200000X0.200000X0.275000X-0.200000X0.275000X-0.200000X-0.275000X0.200000X-0.275000X0*%
%TD*%
%TA.AperFunction,ComponentPad*%
%ADD20R,1.300000X1.300000*%
%TD*%
%TA.AperFunction,ComponentPad*%
%ADD21C,1.300000*%
%TD*%
%TA.AperFunction,ComponentPad*%
%ADD22R,1.200000X2.000000*%
%TD*%
%TA.AperFunction,ComponentPad*%
%ADD23O,1.200000X2.000000*%
%TD*%
%TA.AperFunction,ComponentPad*%
%ADD24O,2.000000X2.000000*%
%TD*%
%TA.AperFunction,ComponentPad*%
%ADD25R,2.500000X3.500000*%
%TD*%
%TA.AperFunction,ComponentPad*%
%ADD26O,2.500000X3.500000*%
%TD*%
%TA.AperFunction,ComponentPad*%
%ADD27R,1.500000X1.500000*%
%TD*%
%TA.AperFunction,ComponentPad*%
%ADD28C,1.500000*%
%TD*%
%TA.AperFunction,ComponentPad*%
%ADD29R,1.600000X1.600000*%
%TD*%
%TA.AperFunction,ComponentPad*%
%ADD30C,1.600000*%
%TD*%
%TA.AperFunction,WasherPad*%
%ADD31R,2.000000X2.100000*%
%TD*%
%TA.AperFunction,ComponentPad*%
%ADD32C,3.000000*%
%TD*%
%TA.AperFunction,ComponentPad*%
%ADD33R,2.032000X2.032000*%
%TD*%
%TA.AperFunction,ComponentPad*%
%ADD34C,2.032000*%
%TD*%
%TA.AperFunction,ViaPad*%
%ADD35C,0.800000*%
%TD*%
%TA.AperFunction,Conductor*%
%ADD36C,0.250000*%
%TD*%
G04 APERTURE END LIST*
D10*
%TO.P,R11,1*%
%TO.N,Net-(R10-Pad2)*%
X56026800Y-77946000D03*
%TO.P,R11,2*%
%TO.N,Net-(R11-Pad2)*%
X56026800Y-79596000D03*
%TD*%
D11*
%TO.P,R13,1*%
%TO.N,Net-(R12-Pad2)*%
X59026800Y-79596000D03*
%TO.P,R13,2*%
%TO.N,GND*%
X59026800Y-77946000D03*
%TD*%
%TO.P,R5,1*%
%TO.N,Net-(R5-Pad1)*%
X43100000Y-5950000D03*
%TO.P,R5,2*%
%TO.N,/11(PWM-MOSI)*%
X43100000Y-4300000D03*
%TD*%
D12*
%TO.P,D7,1,K*%
%TO.N,/13(SCK)*%
X34173600Y-79788000D03*
%TO.P,D7,2,A*%
%TO.N,Net-(D7-Pad2)*%
X34173600Y-83788000D03*
%TD*%
%TO.P,D1,1,K*%
%TO.N,/7*%
X47599600Y-79788000D03*
%TO.P,D1,2,A*%
%TO.N,Net-(D1-Pad2)*%
X47599600Y-83788000D03*
%TD*%
%TO.P,D2,1,K*%
%TO.N,/A3*%
X45349600Y-79788000D03*
%TO.P,D2,2,A*%
%TO.N,Net-(D2-Pad2)*%
X45349600Y-83788000D03*
%TD*%
%TO.P,D3,1,K*%
%TO.N,/4*%
X43114400Y-79788000D03*
%TO.P,D3,2,A*%
%TO.N,Net-(D3-Pad2)*%
X43114400Y-83788000D03*
%TD*%
D13*
%TO.P,T5,1,1*%
%TO.N,Net-(J1-Pad2)*%
X10160000Y-75438000D03*
D14*
%TO.P,T5,2,2*%
%TO.N,Net-(J1-Pad4)*%
X10160000Y-72898000D03*
%TO.P,T5,3,3*%
%TO.N,Net-(J1-Pad3)*%
X10160000Y-70358000D03*
%TD*%
D10*
%TO.P,R8,1*%
%TO.N,Net-(R11-Pad2)*%
X57526800Y-81471000D03*
%TO.P,R8,2*%
%TO.N,Net-(R8-Pad2)*%
X57526800Y-83121000D03*
%TD*%
D15*
%TO.P,Q1,1,G*%
%TO.N,Net-(Q1-Pad1)*%
X52700000Y-8062500D03*
%TO.P,Q1,2,S*%
%TO.N,/Vin*%
X50800000Y-8062500D03*
%TO.P,Q1,3,D*%
%TO.N,VCC*%
X51750000Y-9937500D03*
%TD*%
D11*
%TO.P,C2,1*%
%TO.N,GND*%
X27118000Y-47510000D03*
%TO.P,C2,2*%
%TO.N,Net-(C2-Pad2)*%
X27118000Y-45860000D03*
%TD*%
D16*
%TO.P,Y1,1,1*%
%TO.N,Net-(C2-Pad2)*%
X29718000Y-50800000D03*
%TO.P,Y1,2,2*%
%TO.N,Net-(C3-Pad2)*%
X24638000Y-50800000D03*
%TD*%
D11*
%TO.P,R_0_if_no_auto_power_off1,1*%
%TO.N,VCC*%
X41503600Y-5942600D03*
%TO.P,R_0_if_no_auto_power_off1,2*%
%TO.N,/Vin*%
X41503600Y-4292600D03*
%TD*%
%TO.P,R23,1*%
%TO.N,Net-(R18-Pad1)*%
X65026800Y-79596000D03*
%TO.P,R23,2*%
%TO.N,GND*%
X65026800Y-77946000D03*
%TD*%
D12*
%TO.P,D5,1,K*%
%TO.N,/0(Rx)*%
X38644000Y-79788000D03*
%TO.P,D5,2,A*%
%TO.N,Net-(D5-Pad2)*%
X38644000Y-83788000D03*
%TD*%
D10*
%TO.P,R28,1*%
%TO.N,GND*%
X55250000Y-4175000D03*
%TO.P,R28,2*%
%TO.N,Net-(Q2-Pad1)*%
X55250000Y-5825000D03*
%TD*%
%TO.P,R6,1*%
%TO.N,/A2*%
X54526800Y-81471000D03*
%TO.P,R6,2*%
%TO.N,Net-(R6-Pad2)*%
X54526800Y-83121000D03*
%TD*%
D12*
%TO.P,D10,1,K*%
%TO.N,Net-(D10-Pad1)*%
X29652400Y-79788000D03*
%TO.P,D10,2,A*%
%TO.N,Net-(D10-Pad2)*%
X29652400Y-83788000D03*
%TD*%
%TO.P,D9,1,K*%
%TO.N,Net-(D9-Pad1)*%
X1879600Y-62008000D03*
%TO.P,D9,2,A*%
%TO.N,Net-(D9-Pad2)*%
X1879600Y-66008000D03*
%TD*%
D15*
%TO.P,Q2,1,C*%
%TO.N,Net-(Q2-Pad1)*%
X57185600Y-8054100D03*
%TO.P,Q2,2,B*%
%TO.N,GND*%
X55285600Y-8054100D03*
%TO.P,Q2,3,E*%
%TO.N,Net-(Q1-Pad1)*%
X56235600Y-9929100D03*
%TD*%
D10*
%TO.P,R25,1*%
%TO.N,/Vin*%
X52250000Y-4175000D03*
%TO.P,R25,2*%
%TO.N,Net-(Q1-Pad1)*%
X52250000Y-5825000D03*
%TD*%
%TO.P,R7,1*%
%TO.N,Net-(R10-Pad2)*%
X56026800Y-81471000D03*
%TO.P,R7,2*%
%TO.N,Net-(R7-Pad2)*%
X56026800Y-83121000D03*
%TD*%
%TO.P,R22,1*%
%TO.N,Net-(R17-Pad1)*%
X63526800Y-77946000D03*
%TO.P,R22,2*%
%TO.N,Net-(R18-Pad1)*%
X63526800Y-79596000D03*
%TD*%
D12*
%TO.P,D4,1,K*%
%TO.N,/8*%
X40879200Y-79788000D03*
%TO.P,D4,2,A*%
%TO.N,Net-(D4-Pad2)*%
X40879200Y-83788000D03*
%TD*%
D11*
%TO.P,R_reset_pullup1,1*%
%TO.N,VCC*%
X52425600Y-79615800D03*
%TO.P,R_reset_pullup1,2*%
%TO.N,Net-(R_reset_pullup1-Pad2)*%
X52425600Y-77965800D03*
%TD*%
D10*
%TO.P,C1,1*%
%TO.N,VCC*%
X30166000Y-45763000D03*
%TO.P,C1,2*%
%TO.N,GND*%
X30166000Y-47413000D03*
%TD*%
D17*
%TO.P,J1,1,GND*%
%TO.N,GND*%
X7150000Y-75218000D03*
%TO.P,J1,2,ID*%
%TO.N,Net-(J1-Pad2)*%
X5450000Y-74418000D03*
%TO.P,J1,3,D+*%
%TO.N,Net-(J1-Pad3)*%
X7150000Y-73618000D03*
%TO.P,J1,4,D-*%
%TO.N,Net-(J1-Pad4)*%
X5450000Y-72818000D03*
%TO.P,J1,5,VBUS*%
%TO.N,Net-(D9-Pad2)*%
X7150000Y-72018000D03*
D18*
%TO.P,J1,6,Shield*%
%TO.N,GND*%
X6360720Y-77268000D03*
X1850000Y-69968000D03*
X1850000Y-77268000D03*
X6360720Y-69968000D03*
%TD*%
D17*
%TO.P,J2,1,GND*%
%TO.N,GND*%
X70850000Y-25832000D03*
%TO.P,J2,2,ID*%
%TO.N,unconnected-(J2-Pad2)*%
X72550000Y-26632000D03*
%TO.P,J2,3,D+*%
%TO.N,unconnected-(J2-Pad3)*%
X70850000Y-27432000D03*
%TO.P,J2,4,D-*%
%TO.N,unconnected-(J2-Pad4)*%
X72550000Y-28232000D03*
%TO.P,J2,5,VBUS*%
%TO.N,Net-(D9-Pad2)*%
X70850000Y-29032000D03*
D18*
%TO.P,J2,6,Shield*%
%TO.N,GND*%
X71639280Y-31082000D03*
X76150000Y-23782000D03*
X76150000Y-31082000D03*
X71639280Y-23782000D03*
%TD*%
D19*
%TO.P,R19,1*%
%TO.N,Net-(C2-Pad2)*%
X24193000Y-47360000D03*
%TO.P,R19,2*%
%TO.N,Net-(C3-Pad2)*%
X22543000Y-47360000D03*
%TD*%
D10*
%TO.P,R9,1*%
%TO.N,Net-(R12-Pad2)*%
X59026800Y-81471000D03*
%TO.P,R9,2*%
%TO.N,Net-(R9-Pad2)*%
X59026800Y-83121000D03*
%TD*%
D11*
%TO.P,R26,1*%
%TO.N,Net-(Q2-Pad1)*%
X56750000Y-5825000D03*
%TO.P,R26,2*%
%TO.N,Net-(R26-Pad2)*%
X56750000Y-4175000D03*
%TD*%
D10*
%TO.P,R17,1*%
%TO.N,Net-(R17-Pad1)*%
X63526800Y-81471000D03*
%TO.P,R17,2*%
%TO.N,Net-(R17-Pad2)*%
X63526800Y-83121000D03*
%TD*%
D11*
%TO.P,R_vcc_protected1,1*%
%TO.N,VCC*%
X58318400Y-5803400D03*
%TO.P,R_vcc_protected1,2*%
%TO.N,VCC_minimalCurrent*%
X58318400Y-4153400D03*
%TD*%
D20*
%TO.P,Q4,1,C*%
%TO.N,GND*%
X25044400Y-23414400D03*
D21*
%TO.P,Q4,2,B*%
%TO.N,Net-(Q2-Pad1)*%
X23774400Y-24684400D03*
%TO.P,Q4,3,E*%
%TO.N,Net-(Q1-Pad1)*%
X22504400Y-23414400D03*
%TD*%
D11*
%TO.P,R3,1*%
%TO.N,Net-(R3-Pad1)*%
X46100000Y-5950000D03*
%TO.P,R3,2*%
%TO.N,/9(PWM)*%
X46100000Y-4300000D03*
%TD*%
%TO.P,R21,1*%
%TO.N,Net-(R16-Pad1)*%
X62026800Y-79596000D03*
%TO.P,R21,2*%
%TO.N,Net-(R17-Pad1)*%
X62026800Y-77946000D03*
%TD*%
D10*
%TO.P,R16,1*%
%TO.N,Net-(R16-Pad1)*%
X62026800Y-81471000D03*
%TO.P,R16,2*%
%TO.N,Net-(R16-Pad2)*%
X62026800Y-83121000D03*
%TD*%
%TO.P,R_0_if_no_usb_switch1,1*%
%TO.N,Net-(D9-Pad1)*%
X50675000Y-4175000D03*
%TO.P,R_0_if_no_usb_switch1,2*%
%TO.N,/Vin*%
X50675000Y-5825000D03*
%TD*%
D11*
%TO.P,R2,1*%
%TO.N,Net-(R2-Pad1)*%
X47600000Y-5850000D03*
%TO.P,R2,2*%
%TO.N,/5(PWM)*%
X47600000Y-4200000D03*
%TD*%
D12*
%TO.P,D8,1,K*%
%TO.N,/12(MISO)*%
X31938400Y-79788000D03*
%TO.P,D8,2,A*%
%TO.N,Net-(D8-Pad2)*%
X31938400Y-83788000D03*
%TD*%
D22*
%TO.P,T2,1,1*%
%TO.N,/2*%
X8382000Y-46228000D03*
D23*
%TO.P,T2,2,2*%
%TO.N,/3(PWM)*%
X10922000Y-46228000D03*
%TO.P,T2,3,3*%
%TO.N,/A5(SCL)*%
X13462000Y-46228000D03*
%TD*%
D12*
%TO.P,D6,1,K*%
%TO.N,/1(Tx)*%
X36408800Y-79788000D03*
%TO.P,D6,2,A*%
%TO.N,Net-(D6-Pad2)*%
X36408800Y-83788000D03*
%TD*%
D11*
%TO.P,C3,1*%
%TO.N,GND*%
X21082000Y-47307000D03*
%TO.P,C3,2*%
%TO.N,Net-(C3-Pad2)*%
X21082000Y-45657000D03*
%TD*%
D10*
%TO.P,R18,1*%
%TO.N,Net-(R18-Pad1)*%
X65026800Y-81471000D03*
%TO.P,R18,2*%
%TO.N,Net-(R18-Pad2)*%
X65026800Y-83121000D03*
%TD*%
D11*
%TO.P,R1,1*%
%TO.N,Net-(R1-Pad1)*%
X49100000Y-5750000D03*
%TO.P,R1,2*%
%TO.N,/6(PWM)*%
X49100000Y-4100000D03*
%TD*%
%TO.P,R4,1*%
%TO.N,Net-(R4-Pad1)*%
X44600000Y-5950000D03*
%TO.P,R4,2*%
%TO.N,/10(PWM-SS)*%
X44600000Y-4300000D03*
%TD*%
%TO.P,R27,1*%
%TO.N,Net-(Q2-Pad1)*%
X53750000Y-5825000D03*
%TO.P,R27,2*%
%TO.N,/A4(SDA)*%
X53750000Y-4175000D03*
%TD*%
D24*
%TO.P,U2,1*%
%TO.N,VCC*%
X48425100Y-32562800D03*
%TO.P,U2,2*%
X48412400Y-30022800D03*
%TO.P,U2,3*%
X48425100Y-27482800D03*
%TO.P,U2,4*%
X48437800Y-24942800D03*
%TO.P,U2,5*%
X48425100Y-22402800D03*
%TO.P,U2,6*%
X48412400Y-19862800D03*
%TO.P,U2,7*%
X48425100Y-17322800D03*
%TO.P,U2,8*%
%TO.N,unconnected-(U2-Pad8)*%
X48412400Y-14782800D03*
%TO.P,U2,9*%
%TO.N,Net-(U2-Pad10)*%
X50965100Y-32562800D03*
%TO.P,U2,10*%
X50952400Y-30022800D03*
%TO.P,U2,11*%
%TO.N,Net-(U2-Pad11)*%
X50965100Y-27482800D03*
%TO.P,U2,12*%
X50977800Y-24942800D03*
%TO.P,U2,13*%
%TO.N,Net-(U2-Pad13)*%
X50965100Y-22402800D03*
%TO.P,U2,14*%
X50952400Y-19862800D03*
%TO.P,U2,15*%
X50965100Y-17322800D03*
%TO.P,U2,16*%
%TO.N,unconnected-(U2-Pad16)*%
X50952400Y-14782800D03*
%TO.P,U2,17*%
%TO.N,Net-(U2-Pad17)*%
X53505100Y-32562800D03*
%TO.P,U2,18*%
X53492400Y-30022800D03*
%TO.P,U2,19*%
%TO.N,Net-(U2-Pad19)*%
X53505100Y-27482800D03*
%TO.P,U2,20*%
X53517800Y-24942800D03*
%TO.P,U2,21*%
%TO.N,Net-(U2-Pad21)*%
X53505100Y-22402800D03*
%TO.P,U2,22*%
X53492400Y-19862800D03*
%TO.P,U2,23*%
X53505100Y-17322800D03*
%TO.P,U2,24*%
%TO.N,unconnected-(U2-Pad24)*%
X53492400Y-14782800D03*
%TO.P,U2,25*%
%TO.N,Net-(U2-Pad25)*%
X56045100Y-32562800D03*
%TO.P,U2,26*%
X56032400Y-30022800D03*
%TO.P,U2,27*%
%TO.N,Net-(U2-Pad27)*%
X56045100Y-27482800D03*
%TO.P,U2,28*%
X56057800Y-24942800D03*
%TO.P,U2,29*%
%TO.N,Net-(U2-Pad29)*%
X56045100Y-22402800D03*
%TO.P,U2,30*%
X56032400Y-19862800D03*
%TO.P,U2,31*%
X56045100Y-17322800D03*
%TO.P,U2,32*%
%TO.N,unconnected-(U2-Pad32)*%
X56032400Y-14782800D03*
%TO.P,U2,33*%
%TO.N,Net-(U2-Pad33)*%
X58585100Y-32562800D03*
%TO.P,U2,34*%
X58572400Y-30022800D03*
%TO.P,U2,35*%
%TO.N,Net-(U2-Pad35)*%
X58585100Y-27482800D03*
%TO.P,U2,36*%
X58597800Y-24942800D03*
%TO.P,U2,37*%
%TO.N,Net-(U2-Pad37)*%
X58585100Y-22402800D03*
%TO.P,U2,38*%
X58572400Y-19862800D03*
%TO.P,U2,39*%
X58585100Y-17322800D03*
%TO.P,U2,40*%
X58572400Y-14782800D03*
%TO.P,U2,41*%
%TO.N,Net-(U2-Pad41)*%
X61125100Y-32562800D03*
%TO.P,U2,42*%
X61112400Y-30022800D03*
%TO.P,U2,43*%
%TO.N,Net-(U2-Pad43)*%
X61125100Y-27482800D03*
%TO.P,U2,44*%
X61137800Y-24942800D03*
%TO.P,U2,45*%
%TO.N,Net-(U2-Pad45)*%
X61125100Y-22402800D03*
%TO.P,U2,46*%
X61112400Y-19862800D03*
%TO.P,U2,47*%
X61125100Y-17322800D03*
%TO.P,U2,48*%
X61112400Y-14782800D03*
%TO.P,U2,49*%
%TO.N,Net-(U2-Pad49)*%
X63665100Y-32562800D03*
%TO.P,U2,50*%
X63652400Y-30022800D03*
%TO.P,U2,51*%
%TO.N,Net-(U2-Pad51)*%
X63665100Y-27482800D03*
%TO.P,U2,52*%
X63677800Y-24942800D03*
%TO.P,U2,53*%
%TO.N,Net-(U2-Pad53)*%
X63665100Y-22402800D03*
%TO.P,U2,54*%
X63652400Y-19862800D03*
%TO.P,U2,55*%
X63665100Y-17322800D03*
%TO.P,U2,56*%
X63652400Y-14782800D03*
%TO.P,U2,57*%
%TO.N,GND*%
X66205100Y-32562800D03*
%TO.P,U2,58*%
X66192400Y-30022800D03*
%TO.P,U2,59*%
X66205100Y-27482800D03*
%TO.P,U2,60*%
X66217800Y-24942800D03*
%TO.P,U2,61*%
X66205100Y-22402800D03*
%TO.P,U2,62*%
X66192400Y-19862800D03*
%TO.P,U2,63*%
X66205100Y-17322800D03*
%TO.P,U2,64*%
X66192400Y-14782800D03*
%TD*%
D11*
%TO.P,R10,1*%
%TO.N,/A2*%
X54526800Y-79596000D03*
%TO.P,R10,2*%
%TO.N,Net-(R10-Pad2)*%
X54526800Y-77946000D03*
%TD*%
D10*
%TO.P,R15,1*%
%TO.N,/A1*%
X60526800Y-81471000D03*
%TO.P,R15,2*%
%TO.N,Net-(R15-Pad2)*%
X60526800Y-83121000D03*
%TD*%
%TO.P,R20,1*%
%TO.N,/A1*%
X60526800Y-77946000D03*
%TO.P,R20,2*%
%TO.N,Net-(R16-Pad1)*%
X60526800Y-79596000D03*
%TD*%
D11*
%TO.P,R12,1*%
%TO.N,Net-(R11-Pad2)*%
X57526800Y-79596000D03*
%TO.P,R12,2*%
%TO.N,Net-(R12-Pad2)*%
X57526800Y-77946000D03*
%TD*%
D25*
%TO.P,Q3,1,G*%
%TO.N,Net-(Q1-Pad1)*%
X18299400Y-18591600D03*
D26*
%TO.P,Q3,2,D*%
%TO.N,VCC*%
X23774400Y-18591600D03*
%TO.P,Q3,3,S*%
%TO.N,/Vin*%
X29249400Y-18591600D03*
%TD*%
D27*
%TO.P,T7,1,1*%
%TO.N,unconnected-(T7-Pad1)*%
X39390000Y-6750000D03*
D28*
%TO.P,T7,2,2*%
%TO.N,unconnected-(T7-Pad2)*%
X36850000Y-6750000D03*
%TO.P,T7,3,3*%
%TO.N,unconnected-(T7-Pad3)*%
X34310000Y-6750000D03*
%TO.P,T7,4,4*%
%TO.N,Net-(R_reset_pullup1-Pad2)*%
X31770000Y-6750000D03*
%TO.P,T7,5,5*%
%TO.N,/0(Rx)*%
X29230000Y-6750000D03*
%TO.P,T7,6,6*%
%TO.N,/1(Tx)*%
X26690000Y-6750000D03*
%TO.P,T7,7,7*%
%TO.N,GND*%
X24150000Y-6750000D03*
%TO.P,T7,8,8*%
%TO.N,VCC*%
X21610000Y-6750000D03*
%TD*%
D27*
%TO.P,T1,1,1*%
%TO.N,Net-(D1-Pad2)*%
X48260000Y-88620000D03*
D28*
%TO.P,T1,2,2*%
%TO.N,Net-(D2-Pad2)*%
X45720000Y-88620000D03*
%TO.P,T1,3,3*%
%TO.N,Net-(D3-Pad2)*%
X43180000Y-88620000D03*
%TO.P,T1,4,4*%
%TO.N,Net-(D4-Pad2)*%
X40640000Y-88620000D03*
%TO.P,T1,5,5*%
%TO.N,Net-(D5-Pad2)*%
X38100000Y-88620000D03*
%TO.P,T1,6,6*%
%TO.N,Net-(D6-Pad2)*%
X35560000Y-88620000D03*
%TO.P,T1,7,7*%
%TO.N,Net-(D7-Pad2)*%
X33020000Y-88620000D03*
%TO.P,T1,8,8*%
%TO.N,Net-(D8-Pad2)*%
X30480000Y-88620000D03*
%TD*%
D27*
%TO.P,U1,1,e*%
%TO.N,/12(MISO)*%
X45940000Y-32440000D03*
D28*
%TO.P,U1,2,d*%
%TO.N,/8*%
X43400000Y-32440000D03*
%TO.P,U1,3,DPX*%
%TO.N,/0(Rx)*%
X40860000Y-32440000D03*
%TO.P,U1,4,c*%
%TO.N,/4*%
X38320000Y-32440000D03*
%TO.P,U1,5,g*%
%TO.N,/1(Tx)*%
X35780000Y-32440000D03*
%TO.P,U1,6,CA4*%
%TO.N,Net-(R2-Pad1)*%
X33240000Y-32440000D03*
%TO.P,U1,7,b*%
%TO.N,/A3*%
X33240000Y-17200000D03*
%TO.P,U1,8,CA3*%
%TO.N,Net-(R3-Pad1)*%
X35780000Y-17200000D03*
%TO.P,U1,9,CA2*%
%TO.N,Net-(R4-Pad1)*%
X38320000Y-17200000D03*
%TO.P,U1,10,f*%
%TO.N,/13(SCK)*%
X40860000Y-17200000D03*
%TO.P,U1,11,a*%
%TO.N,/7*%
X43400000Y-17200000D03*
%TO.P,U1,12,CA1*%
%TO.N,Net-(R5-Pad1)*%
X45940000Y-17200000D03*
%TD*%
D29*
%TO.P,U3,1,~{RESET}/PC6*%
%TO.N,Net-(R_reset_pullup1-Pad2)*%
X38855000Y-43250000D03*
D30*
%TO.P,U3,2,PD0*%
%TO.N,/0(Rx)*%
X36315000Y-43250000D03*
%TO.P,U3,3,PD1*%
%TO.N,/1(Tx)*%
X33775000Y-43250000D03*
%TO.P,U3,4,PD2*%
%TO.N,/2*%
X31235000Y-43250000D03*
%TO.P,U3,5,PD3*%
%TO.N,/3(PWM)*%
X28695000Y-43250000D03*
%TO.P,U3,6,PD4*%
%TO.N,/4*%
X26155000Y-43250000D03*
%TO.P,U3,7,VCC*%
%TO.N,VCC*%
X23615000Y-43250000D03*
%TO.P,U3,8,GND*%
%TO.N,GND*%
X21075000Y-43250000D03*
%TO.P,U3,9,XTAL1/PB6*%
%TO.N,Net-(C2-Pad2)*%
X18535000Y-43250000D03*
%TO.P,U3,10,XTAL2/PB7*%
%TO.N,Net-(C3-Pad2)*%
X15995000Y-43250000D03*
%TO.P,U3,11,PD5*%
%TO.N,/5(PWM)*%
X13455000Y-43250000D03*
%TO.P,U3,12,PD6*%
%TO.N,/6(PWM)*%
X10915000Y-43250000D03*
%TO.P,U3,13,PD7*%
%TO.N,/7*%
X8375000Y-43250000D03*
%TO.P,U3,14,PB0*%
%TO.N,/8*%
X5835000Y-43250000D03*
%TO.P,U3,15,PB1*%
%TO.N,/9(PWM)*%
X5835000Y-35630000D03*
%TO.P,U3,16,PB2*%
%TO.N,/10(PWM-SS)*%
X8375000Y-35630000D03*
%TO.P,U3,17,PB3*%
%TO.N,/11(PWM-MOSI)*%
X10915000Y-35630000D03*
%TO.P,U3,18,PB4*%
%TO.N,/12(MISO)*%
X13455000Y-35630000D03*
%TO.P,U3,19,PB5*%
%TO.N,/13(SCK)*%
X15995000Y-35630000D03*
%TO.P,U3,20,AVCC*%
%TO.N,VCC*%
X18535000Y-35630000D03*
%TO.P,U3,21,AREF*%
X21075000Y-35630000D03*
%TO.P,U3,22,GND*%
%TO.N,GND*%
X23615000Y-35630000D03*
%TO.P,U3,23,PC0*%
%TO.N,/A0*%
X26155000Y-35630000D03*
%TO.P,U3,24,PC1*%
%TO.N,/A1*%
X28695000Y-35630000D03*
%TO.P,U3,25,PC2*%
%TO.N,/A2*%
X31235000Y-35630000D03*
%TO.P,U3,26,PC3*%
%TO.N,/A3*%
X33775000Y-35630000D03*
%TO.P,U3,27,PC4*%
%TO.N,/A4(SDA)*%
X36315000Y-35630000D03*
%TO.P,U3,28,PC5*%
%TO.N,/A5(SCL)*%
X38855000Y-35630000D03*
%TD*%
D31*
%TO.P,S1,*%
%TO.N,*%
X20500000Y-60140000D03*
X4900000Y-60140000D03*
D32*
%TO.P,S1,1,A*%
%TO.N,/2*%
X7700000Y-49640000D03*
%TO.P,S1,2,B*%
%TO.N,/3(PWM)*%
X12700000Y-49640000D03*
%TO.P,S1,3,C*%
%TO.N,GND*%
X17700000Y-49640000D03*
%TD*%
D27*
%TO.P,T6,1,1*%
%TO.N,GND*%
X27940000Y-88620000D03*
D28*
%TO.P,T6,2,2*%
%TO.N,VCC*%
X25400000Y-88620000D03*
%TO.P,T6,3,3*%
%TO.N,Net-(R1-Pad1)*%
X22860000Y-88620000D03*
%TO.P,T6,4,4*%
%TO.N,GND*%
X20320000Y-88620000D03*
%TO.P,T6,5,5*%
%TO.N,Net-(D10-Pad2)*%
X17780000Y-88620000D03*
%TO.P,T6,6,6*%
%TO.N,/A0*%
X15240000Y-88620000D03*
%TO.P,T6,7,7*%
%TO.N,Net-(R26-Pad2)*%
X12700000Y-88620000D03*
%TO.P,T6,8,8*%
%TO.N,/Vin*%
X10160000Y-88620000D03*
%TD*%
D27*
%TO.P,T8,1,1*%
%TO.N,/Vin*%
X21670000Y-3250000D03*
D28*
%TO.P,T8,2,2*%
%TO.N,Net-(D9-Pad1)*%
X24210000Y-3250000D03*
%TO.P,T8,3,3*%
%TO.N,Net-(D10-Pad2)*%
X26750000Y-3250000D03*
%TO.P,T8,4,4*%
%TO.N,GND*%
X29290000Y-3250000D03*
%TO.P,T8,5,5*%
%TO.N,Net-(D10-Pad1)*%
X31830000Y-3250000D03*
%TO.P,T8,6,6*%
%TO.N,/Vin*%
X34370000Y-3250000D03*
%TO.P,T8,7,7*%
%TO.N,GND*%
X36910000Y-3250000D03*
%TO.P,T8,8,8*%
%TO.N,VCC*%
X39450000Y-3250000D03*
%TD*%
D27*
%TO.P,T4,1,1*%
%TO.N,Net-(R18-Pad2)*%
X68580000Y-88620000D03*
D28*
%TO.P,T4,2,2*%
%TO.N,Net-(R17-Pad2)*%
X66040000Y-88620000D03*
%TO.P,T4,3,3*%
%TO.N,Net-(R16-Pad2)*%
X63500000Y-88620000D03*
%TO.P,T4,4,4*%
%TO.N,Net-(R15-Pad2)*%
X60960000Y-88620000D03*
%TO.P,T4,5,5*%
%TO.N,Net-(R9-Pad2)*%
X58420000Y-88620000D03*
%TO.P,T4,6,6*%
%TO.N,Net-(R8-Pad2)*%
X55880000Y-88620000D03*
%TO.P,T4,7,7*%
%TO.N,Net-(R7-Pad2)*%
X53340000Y-88620000D03*
%TO.P,T4,8,8*%
%TO.N,Net-(R6-Pad2)*%
X50800000Y-88620000D03*
%TD*%
D33*
%TO.P,BZ1,1,-*%
%TO.N,/A5(SCL)*%
X10310000Y-27000000D03*
D34*
%TO.P,BZ1,2,+*%
%TO.N,GND*%
X2690000Y-27000000D03*
%TD*%
D35*
%TO.N,/A5(SCL)*%
X19056480Y-29192544D03*
%TO.N,GND*%
X54923490Y-7039536D03*
X55118000Y-3048000D03*
X66500000Y-79000000D03*
X28448000Y-46990000D03*
X32139536Y-47498000D03*
X32139536Y-47498000D03*
X23495000Y-33020000D03*
X57500000Y-76924500D03*
X3556000Y-68072000D03*
X6620367Y-66071299D03*
%TO.N,VCC*%
X52476400Y-80670400D03*
X2835033Y-37409320D03*
X45577907Y-9969017D03*
X26729121Y-8549011D03*
%TO.N,/Vin*%
X45974000Y-8890000D03*
X41402000Y-3048000D03*
X1270000Y-55245000D03*
%TO.N,/A0*%
X13944405Y-39239620D03*
X15936074Y-76236601D03*
X26155000Y-35630000D03*
%TO.N,/A1*%
X60526800Y-80697200D03*
X62000000Y-76000000D03*
%TO.N,/A3*%
X33655254Y-25602947D03*
%TO.N,/A4(SDA)*%
X37114999Y-30764999D03*
X53975000Y-3175000D03*
X26035000Y-29845000D03*
%TO.N,/11(PWM-MOSI)*%
X42926000Y-3048000D03*
X41416109Y-7327908D03*
%TO.N,/10(PWM-SS)*%
X44704000Y-3048000D03*
X41629132Y-9092947D03*
%TO.N,/9(PWM)*%
X41068944Y-8265182D03*
X45974000Y-2794000D03*
%TO.N,/8*%
X38387023Y-46116120D03*
X37084000Y-47752000D03*
%TO.N,/7*%
X16385585Y-73568692D03*
X39214080Y-76112630D03*
%TO.N,/6(PWM)*%
X47010124Y-10424162D03*
X49022000Y-3302000D03*
X46355000Y-13970000D03*
%TO.N,/5(PWM)*%
X44491033Y-9006693D03*
X45920808Y-18840594D03*
X47498000Y-2794000D03*
%TO.N,/4*%
X37162178Y-44844406D03*
X35423351Y-41792649D03*
%TO.N,/1(Tx)*%
X19889628Y-29744694D03*
%TO.N,/0(Rx)*%
X38100000Y-24765000D03*
%TO.N,Net-(Q1-Pad1)*%
X53534799Y-10354799D03*
%TO.N,Net-(R17-Pad1)*%
X62012299Y-77012299D03*
X63526800Y-80595500D03*
%TO.N,Net-(R_reset_pullup1-Pad2)*%
X35866379Y-25338959D03*
%TO.N,Net-(D9-Pad2)*%
X42007088Y-75173097D03*
%TO.N,Net-(D10-Pad2)*%
X27432000Y-84074000D03*
%TO.N,Net-(R1-Pad1)*%
X48805500Y-7944006D03*
X26030800Y-10612097D03*
%TO.N,Net-(R2-Pad1)*%
X36847987Y-9549528D03*
X37025069Y-22707133D03*
X46990000Y-6858000D03*
%TO.N,Net-(R3-Pad1)*%
X44521755Y-13898245D03*
%TO.N,Net-(R4-Pad1)*%
X43815000Y-14605000D03*
%TO.N,Net-(R10-Pad2)*%
X55880000Y-76962000D03*
X56134000Y-80595500D03*
%TO.N,Net-(Q2-Pad1)*%
X53379977Y-6945023D03*
%TO.N,Net-(R26-Pad2)*%
X26051360Y-9388138D03*
X56896000Y-3302000D03*
%TD*%
D36*
%TO.N,/A5(SCL)*%
X19014111Y-33560589D02*
X19014111Y-29234913D01*
X39654999Y-32255410D02*
X36413069Y-29013480D01*
X14579511Y-43075189D02*
X17119511Y-40535189D01*
X36413069Y-29013480D02*
X33760138Y-29013480D01*
X13462000Y-46228000D02*
X14579511Y-45110489D01*
X19331469Y-28917555D02*
X19056480Y-29192544D01*
X19014111Y-29234913D02*
X19056480Y-29192544D01*
X38855000Y-35630000D02*
X39654999Y-34830001D01*
X26159067Y-28575000D02*
X25816512Y-28917555D01*
X39654999Y-34830001D02*
X39654999Y-32255410D01*
X33321658Y-28575000D02*
X26159067Y-28575000D01*
X17119511Y-40535189D02*
X17119511Y-35455189D01*
X14579511Y-45110489D02*
X14579511Y-43075189D01*
X17119511Y-35455189D02*
X19014111Y-33560589D01*
X33760138Y-29013480D02*
X33321658Y-28575000D01*
X25816512Y-28917555D02*
X19331469Y-28917555D01*
%TO.N,GND*%
X66540000Y-30529400D02*
X66540000Y-33056700D01*
X53346467Y-1276467D02*
X31263533Y-1276467D01*
X66540000Y-17816700D02*
X66552700Y-17829400D01*
X28460000Y-47002000D02*
X28448000Y-46990000D01*
X54871964Y-7039536D02*
X54923490Y-7039536D01*
X66552700Y-30516700D02*
X66540000Y-30529400D01*
X4464720Y-68072000D02*
X3556000Y-68072000D01*
X20033000Y-47307000D02*
X21082000Y-47307000D01*
X65026800Y-77946000D02*
X65446000Y-77946000D01*
X76150000Y-31082000D02*
X71639280Y-31082000D01*
X27118000Y-47510000D02*
X28460000Y-47510000D01*
X66565400Y-25449400D02*
X66565400Y-27976700D01*
X54799500Y-7112000D02*
X54871964Y-7039536D01*
X71639280Y-23782000D02*
X76150000Y-23782000D01*
X54923490Y-7691990D02*
X54923490Y-7039536D01*
X28460000Y-47510000D02*
X30069000Y-47510000D01*
X66565400Y-27976700D02*
X66552700Y-27989400D01*
X19950489Y-35164211D02*
X20609211Y-34505489D01*
X17700000Y-49640000D02*
X20033000Y-47307000D01*
X59026800Y-77946000D02*
X58005300Y-76924500D01*
X66552700Y-17829400D02*
X66552700Y-20356700D01*
X55118000Y-3048000D02*
X53346467Y-1276467D01*
X66552700Y-22909400D02*
X66552700Y-25436700D01*
X66540000Y-15289400D02*
X66540000Y-17816700D01*
X20609211Y-34505489D02*
X22490489Y-34505489D01*
X6360720Y-66330946D02*
X6620367Y-66071299D01*
X30069000Y-47510000D02*
X30166000Y-47413000D01*
X66540000Y-33056700D02*
X66552700Y-33069400D01*
X55118000Y-3048000D02*
X55118000Y-4043000D01*
X66217800Y-24942800D02*
X67378600Y-23782000D01*
X67378600Y-23782000D02*
X71639280Y-23782000D01*
X66540000Y-20369400D02*
X66540000Y-22896700D01*
X22490489Y-34505489D02*
X23615000Y-35630000D01*
X23615000Y-33140000D02*
X23495000Y-33020000D01*
X66552700Y-25436700D02*
X66565400Y-25449400D01*
X55285600Y-8054100D02*
X54923490Y-7691990D01*
X66552700Y-20356700D02*
X66540000Y-20369400D01*
X65446000Y-77946000D02*
X66500000Y-79000000D01*
X71639280Y-23782000D02*
X71639280Y-25292720D01*
X71639280Y-25292720D02*
X71100000Y-25832000D01*
X6360720Y-69968000D02*
X6360720Y-66330946D01*
X19950489Y-42125489D02*
X19950489Y-35164211D01*
X6360720Y-69968000D02*
X4464720Y-68072000D01*
X31263533Y-1276467D02*
X29290000Y-3250000D01*
X55118000Y-4043000D02*
X55250000Y-4175000D01*
X28460000Y-47510000D02*
X28460000Y-47002000D01*
X66540000Y-22896700D02*
X66552700Y-22909400D01*
X23615000Y-35630000D02*
X23615000Y-33140000D01*
X66552700Y-27989400D02*
X66552700Y-30516700D01*
X21075000Y-43250000D02*
X19950489Y-42125489D01*
X58005300Y-76924500D02*
X57500000Y-76924500D01*
%TO.N,VCC*%
X58420000Y-9906000D02*
X58420000Y-5905000D01*
X8519979Y-22595021D02*
X19774252Y-11340748D01*
X57150000Y-11176000D02*
X58420000Y-9906000D01*
X13863041Y-77754753D02*
X13863041Y-74185225D01*
X47079501Y-15328797D02*
X48425100Y-16674396D01*
X11682974Y-67431866D02*
X11662928Y-67426856D01*
X39450000Y-3250000D02*
X40464511Y-4264511D01*
X41502600Y-5942600D02*
X40464511Y-4904511D01*
X48772700Y-25436700D02*
X48785400Y-25449400D01*
X48772700Y-22909400D02*
X48772700Y-25436700D01*
X48760000Y-30529400D02*
X48760000Y-33056700D01*
X25400000Y-88620000D02*
X24728288Y-88620000D01*
X26775860Y-8595750D02*
X26729121Y-8549011D01*
X11964263Y-67771161D02*
X11877322Y-67753773D01*
X52425600Y-80619600D02*
X52476400Y-80670400D01*
X48772700Y-17829400D02*
X48772700Y-20356700D01*
X48760000Y-17816700D02*
X48772700Y-17829400D01*
X50741737Y-9972863D02*
X47583425Y-9972863D01*
X52425600Y-79615800D02*
X52425600Y-80619600D01*
X12050849Y-67875443D02*
X12004597Y-67798387D01*
X11977984Y-67791739D02*
X11964266Y-67771162D01*
X48760000Y-22896700D02*
X48772700Y-22909400D01*
X13420966Y-69304486D02*
X13081708Y-68965225D01*
X8519979Y-30215725D02*
X8519979Y-22595021D01*
X12226624Y-68110140D02*
X12091974Y-67885724D01*
X41503600Y-5942600D02*
X41502600Y-5942600D01*
X23615000Y-43250000D02*
X24414999Y-42450001D01*
X48772700Y-30516700D02*
X48760000Y-30529400D01*
X8148041Y-58310225D02*
X3284773Y-53446957D01*
X23409011Y-8549011D02*
X26729121Y-8549011D01*
X2306044Y-52976932D02*
X2306044Y-37938309D01*
X51750000Y-9937500D02*
X52988500Y-11176000D01*
X19774252Y-11340748D02*
X26326748Y-11340748D01*
X46676385Y-9692291D02*
X46399659Y-9969017D01*
X11864182Y-67732156D02*
X11867364Y-67713067D01*
X2835033Y-37409320D02*
X2835033Y-35900671D01*
X47079501Y-13635099D02*
X47079501Y-15328797D01*
X2306044Y-37938309D02*
X2835033Y-37409320D01*
X8148040Y-64031560D02*
X8148041Y-58310225D01*
X52988500Y-11176000D02*
X57150000Y-11176000D01*
X29538480Y-45135480D02*
X25500480Y-45135480D01*
X13863041Y-74185225D02*
X13420967Y-73743151D01*
X11693247Y-67448961D02*
X11683000Y-67431885D01*
X11964266Y-67771162D02*
X11964263Y-67771161D01*
X50777100Y-9937500D02*
X47079501Y-13635099D01*
X48760000Y-20369400D02*
X48760000Y-22896700D01*
X21610000Y-6750000D02*
X23409011Y-8549011D01*
X23774400Y-13893096D02*
X26326748Y-11340748D01*
X11682983Y-67431881D02*
X11682974Y-67431866D01*
X40464511Y-4904511D02*
X40464511Y-4264511D01*
X11502068Y-67385235D02*
X11501538Y-67385058D01*
X11662928Y-67426856D02*
X11650918Y-67410043D01*
X47583425Y-9972863D02*
X47310223Y-9699661D01*
X47283953Y-9699661D02*
X47276583Y-9692291D01*
X24414999Y-42450001D02*
X24414999Y-38969999D01*
X48772700Y-20356700D02*
X48760000Y-20369400D01*
X40492600Y-4292600D02*
X40464511Y-4264511D01*
X12004597Y-67798387D02*
X11977984Y-67791739D01*
X3284773Y-53446957D02*
X2776068Y-53446956D01*
X47276583Y-9692291D02*
X46676385Y-9692291D01*
X50777100Y-9937500D02*
X50741737Y-9972863D01*
X2835033Y-35900671D02*
X8519979Y-30215725D01*
X11650918Y-67410043D02*
X11502068Y-67385235D01*
X45884304Y-10147180D02*
X45706141Y-9969017D01*
X48785400Y-27976700D02*
X48772700Y-27989400D01*
X24728288Y-88620000D02*
X13863041Y-77754753D01*
X11501538Y-67385058D02*
X8148040Y-64031560D01*
X48772700Y-27989400D02*
X48772700Y-30516700D01*
X30166000Y-45763000D02*
X29538480Y-45135480D01*
X48425100Y-16674396D02*
X48425100Y-17322800D01*
X26326748Y-11340748D02*
X26775860Y-10891636D01*
X11877322Y-67753773D02*
X11864182Y-67732156D01*
X13420967Y-73743151D02*
X13420966Y-69304486D01*
X11683000Y-67431885D02*
X11682983Y-67431881D01*
X46399659Y-9969017D02*
X45577907Y-9969017D01*
X13081708Y-68965225D02*
X12226624Y-68110140D01*
X25500480Y-45135480D02*
X23615000Y-43250000D01*
X26775860Y-10891636D02*
X26775860Y-8595750D01*
X45706141Y-9969017D02*
X45577907Y-9969017D01*
X12091974Y-67885724D02*
X12050849Y-67875443D01*
X48785400Y-25449400D02*
X48785400Y-27976700D01*
X51750000Y-9937500D02*
X50777100Y-9937500D01*
X47310223Y-9699661D02*
X47283953Y-9699661D01*
X11779623Y-67590230D02*
X11712137Y-67455258D01*
X48760000Y-33056700D02*
X48772700Y-33069400D01*
X2776068Y-53446956D02*
X2306044Y-52976932D01*
X11867364Y-67713067D02*
X11779623Y-67590230D01*
X24414999Y-38969999D02*
X21075000Y-35630000D01*
X11712137Y-67455258D02*
X11693247Y-67448961D01*
X58420000Y-5905000D02*
X58318400Y-5803400D01*
X23774400Y-18591600D02*
X23774400Y-13893096D01*
%TO.N,Net-(C2-Pad2)*%
X25006000Y-46547000D02*
X25006000Y-45860000D01*
X22746000Y-45860000D02*
X21260511Y-44374511D01*
X25657000Y-47360000D02*
X29097000Y-50800000D01*
X19659511Y-44374511D02*
X18535000Y-43250000D01*
X24193000Y-47360000D02*
X25657000Y-47360000D01*
X29097000Y-50800000D02*
X29718000Y-50800000D01*
X25006000Y-45860000D02*
X22746000Y-45860000D01*
X24193000Y-47360000D02*
X25006000Y-46547000D01*
X27118000Y-45860000D02*
X25006000Y-45860000D01*
X21260511Y-44374511D02*
X19659511Y-44374511D01*
%TO.N,Net-(C3-Pad2)*%
X17957000Y-45212000D02*
X15995000Y-43250000D01*
X24638000Y-49455000D02*
X22543000Y-47360000D01*
X22543000Y-47360000D02*
X22543000Y-47118000D01*
X21082000Y-45657000D02*
X20637000Y-45212000D01*
X22543000Y-47118000D02*
X21082000Y-45657000D01*
X24638000Y-49455000D02*
X24638000Y-50800000D01*
X20637000Y-45212000D02*
X17957000Y-45212000D01*
%TO.N,Net-(D1-Pad2)*%
X47599600Y-83788000D02*
X47599600Y-87959600D01*
X47599600Y-87959600D02*
X48260000Y-88620000D01*
%TO.N,Net-(J1-Pad3)*%
X10160000Y-71190532D02*
X10160000Y-70358000D01*
X6900000Y-73618000D02*
X7732532Y-73618000D01*
X7732532Y-73618000D02*
X10160000Y-71190532D01*
%TO.N,/Vin*%
X6350000Y-59055000D02*
X2539996Y-55245002D01*
X41503600Y-3784011D02*
X39895078Y-2175489D01*
X41402000Y-3048000D02*
X41402000Y-4191000D01*
X10160000Y-88620000D02*
X10910000Y-87870000D01*
X50800000Y-8062500D02*
X49972500Y-8890000D01*
X41503600Y-4292600D02*
X41503600Y-3784011D01*
X35444511Y-2175489D02*
X34370000Y-3250000D01*
X30695489Y-17145511D02*
X30695489Y-6304922D01*
X41402000Y-4191000D02*
X41503600Y-4292600D01*
X30695489Y-6304922D02*
X33750411Y-3250000D01*
X39895078Y-2175489D02*
X39004921Y-2175490D01*
X50675000Y-5825000D02*
X50675000Y-7937500D01*
X10910000Y-77990000D02*
X11484511Y-77415489D01*
X39004921Y-2175490D02*
X38757390Y-2423021D01*
X52250000Y-4175000D02*
X52250000Y-4250000D01*
X50675000Y-7937500D02*
X50800000Y-8062500D01*
X11484511Y-69969825D02*
X10887160Y-69372474D01*
X10910000Y-87870000D02*
X10910000Y-77990000D01*
X10457120Y-68883454D02*
X6349997Y-64776332D01*
X10887160Y-69372474D02*
X10726415Y-69332287D01*
X11484511Y-77415489D02*
X11484511Y-69969825D01*
X10726415Y-69332287D02*
X10457120Y-68883454D01*
X29249400Y-18591600D02*
X30695489Y-17145511D01*
X38757390Y-2423021D02*
X37602610Y-2423021D01*
X37355078Y-2175489D02*
X35444511Y-2175489D01*
X49972500Y-8890000D02*
X45974000Y-8890000D01*
X2539996Y-55245002D02*
X1270000Y-55245000D01*
X6349997Y-64776332D02*
X6350000Y-59055000D01*
X37602610Y-2423021D02*
X37355078Y-2175489D01*
X33750411Y-3250000D02*
X34370000Y-3250000D01*
X52250000Y-4250000D02*
X50675000Y-5825000D01*
%TO.N,/A0*%
X12819671Y-65852131D02*
X12819711Y-65852195D01*
X13500860Y-66739099D02*
X13511946Y-66757575D01*
X15661085Y-75961612D02*
X15936074Y-76236601D01*
X12968394Y-65978699D02*
X12987269Y-65984990D01*
X12724609Y-65787661D02*
X12731987Y-65799258D01*
X12818925Y-65851955D02*
X12819671Y-65852131D01*
X12861539Y-65888431D02*
X12870697Y-65891484D01*
X13944405Y-39239620D02*
X11508046Y-41675979D01*
X12827235Y-65857715D02*
X12827266Y-65857722D01*
X12886791Y-65911627D02*
X12899893Y-65914902D01*
X12635355Y-65743361D02*
X12661800Y-65747138D01*
X13279727Y-66345364D02*
X13355255Y-66496420D01*
X12681163Y-65758910D02*
X12682615Y-65760943D01*
X12843698Y-65869705D02*
X12844157Y-65870480D01*
X12612554Y-65718658D02*
X12612557Y-65718658D01*
X12724562Y-65787630D02*
X12724577Y-65787654D01*
X13355255Y-66496420D02*
X13387686Y-66550473D01*
X12348624Y-65689328D02*
X12365115Y-65691161D01*
X12841512Y-65868105D02*
X12841572Y-65868120D01*
X12836385Y-65866065D02*
X12839990Y-65866952D01*
X12839990Y-65866952D02*
X12840509Y-65867809D01*
X12845028Y-65870706D02*
X12848755Y-65877041D01*
X12873109Y-65896309D02*
X12880337Y-65898718D01*
X12922606Y-65952751D02*
X12958158Y-65961639D01*
X13002204Y-66004667D02*
X13014067Y-66009116D01*
X12856002Y-65878956D02*
X12856013Y-65878959D01*
X13014071Y-66009126D02*
X13014083Y-66009130D01*
X12840509Y-65867809D02*
X12841480Y-65868052D01*
X12827266Y-65857722D02*
X12828457Y-65859626D01*
X12827217Y-65857686D02*
X12827235Y-65857715D01*
X12997118Y-65993768D02*
X13002204Y-66004667D01*
X12685074Y-65761377D02*
X12699563Y-65782076D01*
X12813733Y-65847892D02*
X12815432Y-65850591D01*
X13133615Y-66131335D02*
X13171060Y-66243670D01*
X12855997Y-65878947D02*
X12856002Y-65878956D01*
X12899893Y-65914902D02*
X12899896Y-65914907D01*
X12681149Y-65758901D02*
X12681154Y-65758909D01*
X13036062Y-66033781D02*
X13055573Y-66092313D01*
X15661084Y-69001788D02*
X15661085Y-75961612D01*
X12822869Y-65856684D02*
X12827217Y-65857686D01*
X13654548Y-66995244D02*
X15661084Y-69001788D01*
X4122490Y-51741856D02*
X9946083Y-57565449D01*
X13250545Y-66304715D02*
X13250557Y-66304739D01*
X12818521Y-65851307D02*
X12818925Y-65851955D01*
X12745341Y-65802605D02*
X12766002Y-65837039D01*
X12841480Y-65868052D02*
X12841512Y-65868105D01*
X9946083Y-57565449D02*
X9946087Y-63286791D01*
X13014083Y-66009130D02*
X13022118Y-66026809D01*
X12675948Y-65755701D02*
X12677897Y-65758359D01*
X12899901Y-65914908D02*
X12922606Y-65952751D01*
X12844157Y-65870480D02*
X12845028Y-65870706D01*
X12819991Y-65852548D02*
X12820375Y-65852639D01*
X13014067Y-66009116D02*
X13014071Y-66009126D01*
X12766002Y-65837039D02*
X12813723Y-65847885D01*
X12682615Y-65760943D02*
X12685074Y-65761377D01*
X13241931Y-66297418D02*
X13244773Y-66302786D01*
X12618250Y-65722837D02*
X12635355Y-65743361D01*
X12990469Y-65991350D02*
X12997118Y-65993768D01*
X12841703Y-65868220D02*
X12842393Y-65869371D01*
X12987305Y-65985022D02*
X12990469Y-65991350D01*
X4122489Y-42485807D02*
X4122490Y-51741856D01*
X12842393Y-65869371D02*
X12843698Y-65869705D01*
X12828457Y-65859626D02*
X12830711Y-65860190D01*
X9946087Y-63286791D02*
X12348624Y-65689328D01*
X12612551Y-65718654D02*
X12612554Y-65718658D01*
X12848755Y-65877041D02*
X12855997Y-65878947D01*
X13250557Y-66304739D02*
X13250583Y-66304748D01*
X12958158Y-65961639D02*
X12968394Y-65978699D01*
X13511946Y-66757575D02*
X13654548Y-66995244D01*
X12813726Y-65847891D02*
X12813733Y-65847892D01*
X12819783Y-65852212D02*
X12819991Y-65852548D01*
X12899896Y-65914907D02*
X12899901Y-65914908D01*
X11508046Y-41675979D02*
X4932317Y-41675979D01*
X12856013Y-65878959D02*
X12861539Y-65888431D01*
X12819711Y-65852195D02*
X12819783Y-65852212D01*
X13387686Y-66550473D02*
X13500860Y-66663647D01*
X12832281Y-65862013D02*
X12832608Y-65862503D01*
X12820375Y-65852639D02*
X12822869Y-65856684D01*
X12987269Y-65984990D02*
X12987276Y-65985004D01*
X12612557Y-65718658D02*
X12615716Y-65722607D01*
X12870697Y-65891484D02*
X12873109Y-65896309D01*
X12615716Y-65722607D02*
X12618250Y-65722837D01*
X12681154Y-65758909D02*
X12681163Y-65758910D01*
X12841636Y-65868203D02*
X12841703Y-65868220D01*
X4932317Y-41675979D02*
X4122489Y-42485807D01*
X13250583Y-66304748D02*
X13269121Y-66341829D01*
X12841572Y-65868120D02*
X12841582Y-65868137D01*
X12987289Y-65985008D02*
X12987294Y-65985018D01*
X12813723Y-65847885D02*
X12813726Y-65847891D01*
X12661827Y-65747154D02*
X12667231Y-65754359D01*
X12987276Y-65985004D02*
X12987289Y-65985008D01*
X13022118Y-66026809D02*
X13036062Y-66033781D01*
X12724577Y-65787654D02*
X12724609Y-65787661D01*
X12365115Y-65691161D02*
X12612551Y-65718654D01*
X12731987Y-65799258D02*
X12745320Y-65802590D01*
X12661810Y-65747152D02*
X12661827Y-65747154D01*
X12830721Y-65860207D02*
X12830738Y-65860211D01*
X12987294Y-65985018D02*
X12987305Y-65985022D01*
X12677897Y-65758359D02*
X12681149Y-65758901D01*
X12699563Y-65782076D02*
X12724562Y-65787630D01*
X12830711Y-65860190D02*
X12830721Y-65860207D01*
X12841582Y-65868137D02*
X12841599Y-65868141D01*
X12831756Y-65861908D02*
X12832281Y-65862013D01*
X13055573Y-66092313D02*
X13133615Y-66131335D01*
X12841599Y-65868141D02*
X12841636Y-65868203D01*
X12880337Y-65898718D02*
X12886791Y-65911627D01*
X12667231Y-65754359D02*
X12675948Y-65755701D01*
X13193769Y-66282599D02*
X13241931Y-66297418D01*
X13250537Y-66304712D02*
X13250545Y-66304715D01*
X12815432Y-65850591D02*
X12818521Y-65851307D01*
X13500860Y-66663647D02*
X13500860Y-66739099D01*
X13250534Y-66304706D02*
X13250537Y-66304712D01*
X13244773Y-66302786D02*
X13250534Y-66304706D01*
X12834419Y-65862921D02*
X12836385Y-65866065D01*
X12661800Y-65747138D02*
X12661810Y-65747152D01*
X12832608Y-65862503D02*
X12834419Y-65862921D01*
X13269121Y-66341829D02*
X13279727Y-66345364D01*
X13171060Y-66243670D02*
X13193769Y-66282599D01*
X12830738Y-65860211D02*
X12831756Y-65861908D01*
X12745327Y-65802601D02*
X12745341Y-65802605D01*
X12745320Y-65802590D02*
X12745327Y-65802601D01*
%TO.N,/A1*%
X37439511Y-38709511D02*
X37439511Y-34391511D01*
X30269021Y-34055979D02*
X28695000Y-35630000D01*
X60526800Y-77946000D02*
X60526800Y-77473200D01*
X60380000Y-77946000D02*
X58342501Y-75908501D01*
X41185500Y-75152338D02*
X41185499Y-42455499D01*
X41185499Y-42455499D02*
X37439511Y-38709511D01*
X58342501Y-75908501D02*
X41609899Y-75908501D01*
X37439511Y-34391511D02*
X37103979Y-34055979D01*
X41609899Y-75908501D02*
X41287113Y-75585713D01*
X37103979Y-34055979D02*
X30269021Y-34055979D01*
X41287113Y-75585713D02*
X41287113Y-75253951D01*
X60526800Y-81471000D02*
X60526800Y-80697200D01*
X41287113Y-75253951D02*
X41185500Y-75152338D01*
X60526800Y-77473200D02*
X62000000Y-76000000D01*
X60706000Y-80518000D02*
X60526800Y-80697200D01*
%TO.N,/A2*%
X35190489Y-35455189D02*
X35190489Y-37096193D01*
X35190489Y-37096193D02*
X40735989Y-42641693D01*
X31235000Y-35630000D02*
X32359511Y-34505489D01*
X40735989Y-75338531D02*
X40837603Y-75440145D01*
X40837602Y-75771906D02*
X41423707Y-76358011D01*
X54526800Y-81471000D02*
X54526800Y-79596000D01*
X53270320Y-76649511D02*
X53270320Y-78339520D01*
X34240790Y-34505490D02*
X35190489Y-35455189D01*
X40735989Y-42641693D02*
X40735989Y-75338531D01*
X53270320Y-78339520D02*
X54526800Y-79596000D01*
X52978820Y-76358011D02*
X53270320Y-76649511D01*
X40837603Y-75440145D02*
X40837602Y-75771906D01*
X32359511Y-34505489D02*
X34240790Y-34505490D01*
X41423707Y-76358011D02*
X52978820Y-76358011D01*
%TO.N,/A3*%
X33775000Y-36316408D02*
X33775000Y-35630000D01*
X37592000Y-44080183D02*
X37592000Y-40133408D01*
X45349600Y-79788000D02*
X45349600Y-80337022D01*
X45349600Y-80337022D02*
X46375089Y-81362511D01*
X33240000Y-25187693D02*
X33655254Y-25602947D01*
X39836965Y-75710915D02*
X39836965Y-45905758D01*
X37592000Y-40133408D02*
X33775000Y-36316408D01*
X48824111Y-81362511D02*
X48824111Y-78232463D01*
X39836965Y-45905758D02*
X38873315Y-44942108D01*
X39938581Y-75812531D02*
X39836965Y-75710915D01*
X48824111Y-78232463D02*
X47848681Y-77257033D01*
X46375089Y-81362511D02*
X48824111Y-81362511D01*
X38873315Y-44942108D02*
X38453925Y-44942108D01*
X33240000Y-17200000D02*
X33240000Y-25187693D01*
X47848681Y-77257033D02*
X41051319Y-77257033D01*
X39938581Y-76144295D02*
X39938581Y-75812531D01*
X41051319Y-77257033D02*
X39938581Y-76144295D01*
X38453925Y-44942108D02*
X37592000Y-44080183D01*
%TO.N,/A4(SDA)*%
X53750000Y-4175000D02*
X53750000Y-3400000D01*
X36195000Y-29845000D02*
X26035000Y-29845000D01*
X53750000Y-3400000D02*
X53975000Y-3175000D01*
X37114999Y-30764999D02*
X36195000Y-29845000D01*
%TO.N,/13(SCK)*%
X12551942Y-66259072D02*
X12551926Y-66259068D01*
X12561546Y-66266279D02*
X12555302Y-66264636D01*
X15211574Y-77178500D02*
X15211573Y-69187981D01*
X12561551Y-66266283D02*
X12561548Y-66266282D01*
X12630725Y-66339978D02*
X12630724Y-66339976D01*
X12931764Y-66672290D02*
X12931758Y-66672278D01*
X12920607Y-66668454D02*
X12919752Y-66668169D01*
X13030697Y-66829188D02*
X13029493Y-66827180D01*
X12707432Y-66420812D02*
X12681894Y-66364628D01*
X15211573Y-69187981D02*
X13297568Y-67273970D01*
X12580249Y-66298337D02*
X12561551Y-66266283D01*
X12931777Y-66672294D02*
X12931764Y-66672290D01*
X12479275Y-66232846D02*
X12455691Y-66193541D01*
X12400694Y-66163917D02*
X12392140Y-66153653D01*
X12824520Y-66595066D02*
X12813098Y-66591259D01*
X12835653Y-66598872D02*
X12835640Y-66598869D01*
X12825392Y-66596810D02*
X12824520Y-66595066D01*
X12867232Y-66621825D02*
X12866272Y-66620289D01*
X12919347Y-66667366D02*
X12893390Y-66658814D01*
X12551926Y-66259068D02*
X12551916Y-66259052D01*
X12813098Y-66591259D02*
X12766054Y-66450124D01*
X13029493Y-66827180D02*
X13024930Y-66819575D01*
X12541055Y-66251122D02*
X12537519Y-66250238D01*
X12960946Y-66712932D02*
X12960942Y-66712931D01*
X12535495Y-66247064D02*
X12533582Y-66246614D01*
X9496572Y-63472980D02*
X9496572Y-57751644D01*
X12835640Y-66598869D02*
X12835632Y-66598858D01*
X12449001Y-66191869D02*
X12445300Y-66186052D01*
X12445300Y-66186052D02*
X12431695Y-66183029D01*
X12866272Y-66620289D02*
X12846960Y-66615832D01*
X12555302Y-66264636D02*
X12551984Y-66259104D01*
X12893390Y-66658814D02*
X12873359Y-66625441D01*
X12870516Y-66624715D02*
X12868996Y-66622245D01*
X9496572Y-57751644D02*
X3654577Y-51909649D01*
X13024930Y-66819575D02*
X12960946Y-66712932D01*
X12392140Y-66153653D02*
X12384327Y-66152943D01*
X12551844Y-66258998D02*
X12547263Y-66257853D01*
X12873340Y-66625436D02*
X12873329Y-66625418D01*
X13051349Y-66849840D02*
X13030697Y-66829188D01*
X34173600Y-78288000D02*
X33064101Y-77178501D01*
X12873329Y-66625418D02*
X12870516Y-66624715D01*
X3654577Y-42191719D02*
X4756785Y-41089511D01*
X12873359Y-66625441D02*
X12873340Y-66625436D01*
X12561548Y-66266282D02*
X12561546Y-66266279D01*
X12681894Y-66364628D02*
X12672842Y-66361233D01*
X12535601Y-66247140D02*
X12535532Y-66247124D01*
X12919752Y-66668169D02*
X12919347Y-66667366D01*
X12868996Y-66622245D02*
X12867232Y-66621825D01*
X12931758Y-66672278D02*
X12920672Y-66668583D01*
X12455691Y-66193541D02*
X12449001Y-66191869D01*
X12668498Y-66352570D02*
X12668497Y-66352567D01*
X12167400Y-66121469D02*
X12137615Y-66114023D01*
X12668502Y-66352571D02*
X12668498Y-66352570D01*
X12551867Y-66259036D02*
X12551844Y-66258998D01*
X12920672Y-66668583D02*
X12920607Y-66668454D01*
X13297568Y-67273970D02*
X13051349Y-66863607D01*
X12542361Y-66253299D02*
X12541055Y-66251122D01*
X12417570Y-66170672D02*
X12413921Y-66165807D01*
X12960940Y-66712927D02*
X12950827Y-66710399D01*
X12960942Y-66712931D02*
X12960940Y-66712927D01*
X12431695Y-66183029D02*
X12423596Y-66171690D01*
X13051349Y-66863607D02*
X13051349Y-66849840D01*
X12672842Y-66361233D02*
X12668518Y-66352585D01*
X12423596Y-66171690D02*
X12423579Y-66171687D01*
X12668497Y-66352567D02*
X12630725Y-66339978D01*
X4756785Y-41089511D02*
X10535489Y-41089511D01*
X12384327Y-66152943D02*
X12377856Y-66144854D01*
X3654577Y-51909649D02*
X3654577Y-42191719D01*
X12551916Y-66259052D02*
X12551912Y-66259051D01*
X12537519Y-66250238D02*
X12535601Y-66247140D01*
X12668518Y-66352585D02*
X12668507Y-66352581D01*
X12532535Y-66244951D02*
X12479275Y-66232846D01*
X12137615Y-66114023D02*
X9496572Y-63472980D01*
X12766054Y-66450124D02*
X12707432Y-66420812D01*
X12423568Y-66171672D02*
X12417570Y-66170672D01*
X12547263Y-66257853D02*
X12544763Y-66253853D01*
X12551957Y-66259097D02*
X12551942Y-66259072D01*
X12423579Y-66171687D02*
X12423568Y-66171672D01*
X12630724Y-66339976D02*
X12610239Y-66305835D01*
X12835632Y-66598858D02*
X12825392Y-66596810D01*
X33064101Y-77178501D02*
X15211574Y-77178500D01*
X12544763Y-66253853D02*
X12542361Y-66253299D01*
X34173600Y-79788000D02*
X34173600Y-78288000D01*
X12551910Y-66259047D02*
X12551867Y-66259036D01*
X12413921Y-66165807D02*
X12400694Y-66163917D01*
X12551984Y-66259104D02*
X12551957Y-66259097D01*
X10535489Y-41089511D02*
X15995000Y-35630000D01*
X12610239Y-66305835D02*
X12580249Y-66298337D01*
X12950827Y-66710399D02*
X12931777Y-66672294D01*
X12535532Y-66247124D02*
X12535495Y-66247064D01*
X12668507Y-66352581D02*
X12668502Y-66352571D01*
X12533582Y-66246614D02*
X12532535Y-66244951D01*
X12551912Y-66259051D02*
X12551910Y-66259047D01*
X12846960Y-66615832D02*
X12835653Y-66598872D01*
X12377856Y-66144854D02*
X12167400Y-66121469D01*
%TO.N,/12(MISO)*%
X8445000Y-40640000D02*
X3303408Y-40640000D01*
X12262270Y-66650000D02*
X12262286Y-66650004D01*
X12262253Y-66649978D02*
X12262256Y-66649983D01*
X9047062Y-63659174D02*
X11933622Y-66545734D01*
X12287433Y-66688479D02*
X12320585Y-66696767D01*
X12166028Y-66584468D02*
X12166031Y-66584472D01*
X13455000Y-29725000D02*
X13455000Y-35630000D01*
X14762063Y-77382367D02*
X15007708Y-77628012D01*
X12251399Y-66642054D02*
X12255216Y-66648220D01*
X12262256Y-66649983D02*
X12262260Y-66649984D01*
X12349722Y-66720141D02*
X12365977Y-66752653D01*
X25972873Y-28125490D02*
X25630322Y-28468041D01*
X12349714Y-66720138D02*
X12349722Y-66720141D01*
X12583770Y-67016422D02*
X12593965Y-67033407D01*
X13455000Y-35630000D02*
X8445000Y-40640000D01*
X12527792Y-66995711D02*
X12564915Y-67003136D01*
X33946332Y-28563970D02*
X33507851Y-28125489D01*
X12143161Y-66571053D02*
X12152021Y-66582128D01*
X12571767Y-67013413D02*
X12583749Y-67016406D01*
X12330826Y-66713835D02*
X12349710Y-66720130D01*
X12505733Y-66962629D02*
X12505734Y-66962631D01*
X12262260Y-66649984D02*
X12262270Y-66650000D01*
X12262286Y-66650004D02*
X12263953Y-66652783D01*
X3303408Y-40640000D02*
X3205067Y-40738341D01*
X12583749Y-67016406D02*
X12583757Y-67016419D01*
X31938400Y-79438000D02*
X31938400Y-79788000D01*
X3205067Y-52095843D02*
X9047062Y-57937838D01*
X12505739Y-66962632D02*
X12527792Y-66995711D01*
X3205067Y-40738341D02*
X3205067Y-52095843D01*
X12583757Y-67016419D02*
X12583770Y-67016422D01*
X12398489Y-66768909D02*
X12441762Y-66898729D01*
X12251350Y-66642019D02*
X12251367Y-66642046D01*
X12601897Y-67036149D02*
X12612971Y-67039841D01*
X12441762Y-66898729D02*
X12476607Y-66956804D01*
X12349710Y-66720130D02*
X12349714Y-66720138D01*
X45940000Y-32440000D02*
X42063969Y-28563969D01*
X11970289Y-66551844D02*
X12143161Y-66571053D01*
X12166035Y-66584473D02*
X12198214Y-66629524D01*
X12601839Y-67036034D02*
X12601897Y-67036149D01*
X15007708Y-77628012D02*
X30128412Y-77628012D01*
X12612971Y-67039841D02*
X12641222Y-67096343D01*
X12641222Y-67096343D02*
X12671284Y-67103859D01*
X12320585Y-66696767D02*
X12330826Y-66713835D01*
X12198214Y-66629524D02*
X12251350Y-66642019D01*
X33135464Y-28125490D02*
X25972873Y-28125490D01*
X33507851Y-28125489D02*
X33135464Y-28125490D01*
X12365977Y-66752653D02*
X12398489Y-66768909D01*
X11933622Y-66545734D02*
X11970289Y-66551844D01*
X12267092Y-66653609D02*
X12287433Y-66688479D01*
X12671284Y-67103859D02*
X12940588Y-67552695D01*
X25630322Y-28468041D02*
X14711959Y-28468041D01*
X12166031Y-66584472D02*
X12166035Y-66584473D01*
X9047062Y-57937838D02*
X9047062Y-63659174D01*
X12263953Y-66652783D02*
X12267092Y-66653609D01*
X12564915Y-67003136D02*
X12571767Y-67013413D01*
X42063969Y-28563969D02*
X33946332Y-28563970D01*
X14711959Y-28468041D02*
X13455000Y-29725000D01*
X12505734Y-66962631D02*
X12505739Y-66962632D01*
X12601835Y-67036030D02*
X12601839Y-67036034D01*
X12255216Y-66648220D02*
X12262253Y-66649978D01*
X12476607Y-66956804D02*
X12505733Y-66962629D01*
X12593965Y-67033407D02*
X12601835Y-67036030D01*
X12152021Y-66582128D02*
X12166014Y-66584460D01*
X12251367Y-66642046D02*
X12251399Y-66642054D01*
X14762063Y-69374175D02*
X14762063Y-77382367D01*
X30128412Y-77628012D02*
X31938400Y-79438000D01*
X12940588Y-67552695D02*
X14762063Y-69374175D01*
X12166019Y-66584466D02*
X12166028Y-66584468D01*
X12166014Y-66584460D02*
X12166019Y-66584466D01*
%TO.N,/11(PWM-MOSI)*%
X44509215Y-16621935D02*
X43710450Y-15823170D01*
X25786680Y-27675979D02*
X37485028Y-27675979D01*
X10915000Y-35630000D02*
X10915000Y-31629296D01*
X42418001Y-8329800D02*
X41416109Y-7327908D01*
X43180000Y-15823170D02*
X42418001Y-15061171D01*
X42926000Y-4126000D02*
X43100000Y-4300000D01*
X43710450Y-15823170D02*
X43180000Y-15823170D01*
X25444128Y-28018531D02*
X25786680Y-27675979D01*
X10915000Y-31629296D02*
X14525768Y-28018530D01*
X14525768Y-28018530D02*
X25444128Y-28018531D01*
X37485028Y-27675979D02*
X44509215Y-20651792D01*
X44509215Y-20651792D02*
X44509215Y-16621935D01*
X42926000Y-3048000D02*
X42926000Y-4126000D01*
X42418001Y-15061171D02*
X42418001Y-8329800D01*
%TO.N,/10(PWM-SS)*%
X8375000Y-33533592D02*
X14339574Y-27569020D01*
X37298835Y-27226469D02*
X41968490Y-22556814D01*
X44704000Y-4196000D02*
X44600000Y-4300000D01*
X44704000Y-3048000D02*
X44704000Y-4196000D01*
X41968490Y-9432305D02*
X41629132Y-9092947D01*
X8375000Y-35630000D02*
X8375000Y-33533592D01*
X25600486Y-27226469D02*
X37298835Y-27226469D01*
X41968490Y-22556814D02*
X41968490Y-9432305D01*
X25257936Y-27569019D02*
X25600486Y-27226469D01*
X14339574Y-27569020D02*
X25257936Y-27569019D01*
%TO.N,/9(PWM)*%
X45974000Y-2794000D02*
X45974000Y-4174000D01*
X37112641Y-26776959D02*
X39785489Y-24104111D01*
X39785489Y-9548637D02*
X41068944Y-8265182D01*
X39785489Y-24104111D02*
X39785489Y-9548637D01*
X45974000Y-4174000D02*
X46100000Y-4300000D01*
X5835000Y-35630000D02*
X6634999Y-34830001D01*
X25414292Y-26776959D02*
X37112641Y-26776959D01*
X25071742Y-27119509D02*
X25414292Y-26776959D01*
X14153379Y-27119509D02*
X25071742Y-27119509D01*
X6634999Y-34830001D02*
X6634999Y-34637889D01*
X6634999Y-34637889D02*
X14153379Y-27119509D01*
%TO.N,/8*%
X5835000Y-43250000D02*
X5835000Y-50355249D01*
X32004000Y-52832000D02*
X37084000Y-47752000D01*
X8311751Y-52832000D02*
X32004000Y-52832000D01*
X37921947Y-75744461D02*
X38707523Y-74958885D01*
X40879200Y-79788000D02*
X40879200Y-79253921D01*
X37921947Y-76568776D02*
X37921947Y-75744461D01*
X38684457Y-77331286D02*
X37921947Y-76568776D01*
X38707523Y-74958885D02*
X38707521Y-46436618D01*
X40879200Y-79253921D02*
X38956565Y-77331286D01*
X5835000Y-50355249D02*
X8311751Y-52832000D01*
X38707521Y-46436618D02*
X38387023Y-46116120D01*
X38956565Y-77331286D02*
X38684457Y-77331286D01*
%TO.N,/7*%
X13116831Y-65466724D02*
X13116870Y-65466786D01*
X13034993Y-65411671D02*
X13039478Y-65419146D01*
X13118144Y-65468734D02*
X13120429Y-65469306D01*
X13681776Y-66144325D02*
X13746319Y-66273402D01*
X13746319Y-66273402D02*
X13950371Y-66477454D01*
X13131743Y-65477789D02*
X13132184Y-65477900D01*
X13105204Y-65458177D02*
X13105232Y-65458223D01*
X13189550Y-65523971D02*
X13189555Y-65523979D01*
X13536216Y-65917656D02*
X13552080Y-65922537D01*
X13569301Y-65937125D02*
X13569308Y-65937139D01*
X12928357Y-65339753D02*
X12928370Y-65339755D01*
X12909690Y-65328484D02*
X12909711Y-65328487D01*
X13134922Y-65480241D02*
X13135532Y-65480397D01*
X13131328Y-65477354D02*
X13131510Y-65477400D01*
X13306081Y-65617455D02*
X13306092Y-65617459D01*
X13332869Y-65641565D02*
X13337195Y-65650216D01*
X5369211Y-42125489D02*
X4572000Y-42922700D01*
X13115653Y-65466452D02*
X13116831Y-65466724D01*
X13189515Y-65523947D02*
X13189520Y-65523956D01*
X12963652Y-65362770D02*
X12975991Y-65382511D01*
X13120429Y-65469306D02*
X13120435Y-65469316D01*
X13105232Y-65458223D02*
X13105284Y-65458235D01*
X13993193Y-66685955D02*
X13993192Y-66685959D01*
X13110949Y-65462434D02*
X13112347Y-65464685D01*
X13306043Y-65617416D02*
X13306047Y-65617424D01*
X13337195Y-65650216D02*
X13346249Y-65653612D01*
X13103983Y-65457297D02*
X13104026Y-65457366D01*
X13346271Y-65653631D02*
X13351241Y-65664566D01*
X13552080Y-65922537D02*
X13552084Y-65922541D01*
X13047860Y-65421540D02*
X13051315Y-65427758D01*
X13192548Y-65528954D02*
X13199108Y-65531141D01*
X7250490Y-42125490D02*
X5369211Y-42125489D01*
X13501181Y-65812551D02*
X13536216Y-65917656D01*
X12844355Y-65292019D02*
X12844460Y-65292145D01*
X13110087Y-65462232D02*
X13110949Y-65462434D01*
X13131230Y-65477191D02*
X13131328Y-65477354D01*
X13101463Y-65455489D02*
X13101716Y-65455894D01*
X12912608Y-65332349D02*
X12915857Y-65332710D01*
X13993192Y-66685959D02*
X14011528Y-66716519D01*
X13570734Y-65939889D02*
X13573573Y-65940872D01*
X13598507Y-65977799D02*
X13598514Y-65977801D01*
X13189540Y-65523969D02*
X13189550Y-65523971D01*
X13315905Y-65626205D02*
X13318817Y-65632446D01*
X12922573Y-65338853D02*
X12928349Y-65339742D01*
X13094910Y-65450818D02*
X13094927Y-65450845D01*
X13151652Y-65493660D02*
X13153919Y-65494278D01*
X14011528Y-66716519D02*
X16385585Y-69090585D01*
X13109598Y-65461468D02*
X13109606Y-65461481D01*
X13135532Y-65480397D02*
X13135549Y-65480426D01*
X13109619Y-65461484D02*
X13110087Y-65462232D01*
X13176635Y-65519643D02*
X13189495Y-65523930D01*
X13569350Y-65937188D02*
X13569390Y-65937201D01*
X12844314Y-65291997D02*
X12844331Y-65292017D01*
X13328060Y-65639962D02*
X13332869Y-65641565D01*
X13101716Y-65455894D02*
X13102174Y-65456000D01*
X12946562Y-65351070D02*
X12953037Y-65360321D01*
X13109606Y-65461481D02*
X13109619Y-65461484D01*
X12916835Y-65333933D02*
X12919360Y-65334354D01*
X12915857Y-65332710D02*
X12916835Y-65333933D01*
X13102174Y-65456000D02*
X13102812Y-65457022D01*
X13306063Y-65617441D02*
X13306076Y-65617445D01*
X12946557Y-65351067D02*
X12946562Y-65351070D01*
X13123756Y-65471793D02*
X13124406Y-65472897D01*
X12919360Y-65334354D02*
X12922573Y-65338853D01*
X13189535Y-65523960D02*
X13189540Y-65523969D01*
X13950371Y-66477454D02*
X13950370Y-66614586D01*
X13028280Y-65409968D02*
X13034942Y-65411633D01*
X13107896Y-65460262D02*
X13108498Y-65461215D01*
X12818908Y-65289305D02*
X12837866Y-65291412D01*
X13309256Y-65623787D02*
X13315905Y-65626205D01*
X13598514Y-65977801D02*
X13681776Y-66144325D01*
X12875182Y-65319644D02*
X12899266Y-65322477D01*
X13138150Y-65482366D02*
X13142333Y-65489482D01*
X4572000Y-51555662D02*
X10395597Y-57379259D01*
X12644525Y-65269147D02*
X12798750Y-65269147D01*
X12860444Y-65299993D02*
X12875182Y-65319644D01*
X12844460Y-65292145D02*
X12847245Y-65292454D01*
X13318817Y-65632446D02*
X13325725Y-65634958D01*
X13297443Y-65610132D02*
X13300283Y-65615496D01*
X13351241Y-65664566D02*
X13362277Y-65669296D01*
X13106313Y-65459905D02*
X13107896Y-65460262D01*
X13104608Y-65458036D02*
X13105204Y-65458177D01*
X13132729Y-65478307D02*
X13133381Y-65479403D01*
X12928370Y-65339755D02*
X12932244Y-65345039D01*
X12903274Y-65327554D02*
X12909679Y-65328469D01*
X13300283Y-65615496D02*
X13306043Y-65617416D01*
X13582717Y-65949202D02*
X13595213Y-65976693D01*
X13132373Y-65478217D02*
X13132729Y-65478307D01*
X12847253Y-65292465D02*
X12847266Y-65292466D01*
X13003813Y-65389200D02*
X13003852Y-65389261D01*
X13097243Y-65454484D02*
X13101406Y-65455449D01*
X13101406Y-65455449D02*
X13101426Y-65455480D01*
X13124406Y-65472897D02*
X13125798Y-65473225D01*
X13133381Y-65479403D02*
X13134617Y-65479723D01*
X12909711Y-65328487D02*
X12912608Y-65332349D01*
X13013438Y-65401696D02*
X13024593Y-65404175D01*
X13569324Y-65937149D02*
X13569332Y-65937152D01*
X13003007Y-65389021D02*
X13003813Y-65389200D01*
X13126572Y-65474475D02*
X13128038Y-65474835D01*
X13002560Y-65388323D02*
X13003007Y-65389021D01*
X13051315Y-65427758D02*
X13061625Y-65429231D01*
X8375000Y-43250000D02*
X7250490Y-42125490D01*
X13116870Y-65466786D02*
X13116936Y-65466801D01*
X13138083Y-65482349D02*
X13138150Y-65482366D01*
X12953037Y-65360321D02*
X12963652Y-65362770D01*
X13569332Y-65937152D02*
X13569350Y-65937188D01*
X13306076Y-65617445D02*
X13306081Y-65617455D01*
X13306092Y-65617459D02*
X13309256Y-65623787D01*
X13061625Y-65429231D02*
X13074302Y-65446134D01*
X13005044Y-65391033D02*
X13007065Y-65391499D01*
X13214776Y-65562447D02*
X13247815Y-65570708D01*
X47599600Y-78208712D02*
X47097431Y-77706543D01*
X12975991Y-65382511D02*
X13002560Y-65388323D01*
X13094927Y-65450845D02*
X13094957Y-65450852D01*
X13189501Y-65523942D02*
X13189515Y-65523947D01*
X13131510Y-65477400D02*
X13131743Y-65477789D01*
X13150453Y-65491618D02*
X13150458Y-65491627D01*
X12909679Y-65328469D02*
X12909690Y-65328484D01*
X13158517Y-65497883D02*
X13164976Y-65509509D01*
X13116936Y-65466801D02*
X13118144Y-65468734D01*
X12938708Y-65346116D02*
X12938720Y-65346133D01*
X13153919Y-65494278D02*
X13155484Y-65497016D01*
X12844331Y-65292017D02*
X12844355Y-65292019D01*
X13121596Y-65471233D02*
X13123756Y-65471793D01*
X13039478Y-65419146D02*
X13047860Y-65421540D01*
X13170634Y-65510641D02*
X13176635Y-65519643D01*
X13102812Y-65457022D02*
X13103983Y-65457297D01*
X13325725Y-65634958D02*
X13328060Y-65639962D01*
X13131228Y-65477188D02*
X13131230Y-65477191D01*
X12798750Y-65269147D02*
X12818908Y-65289305D01*
X13374789Y-65700575D02*
X13403625Y-65714994D01*
X13552084Y-65922541D02*
X13557771Y-65933282D01*
X10395597Y-57379259D02*
X10395597Y-63100597D01*
X13130460Y-65476996D02*
X13131228Y-65477188D01*
X13034960Y-65411663D02*
X13034993Y-65411671D01*
X13108498Y-65461215D02*
X13109598Y-65461468D01*
X12938720Y-65346133D02*
X12938742Y-65346137D01*
X13598503Y-65977790D02*
X13598507Y-65977799D01*
X13112347Y-65464685D02*
X13114937Y-65465295D01*
X13346249Y-65653612D02*
X13346255Y-65653625D01*
X13094957Y-65450852D02*
X13097243Y-65454484D01*
X13199135Y-65531164D02*
X13214776Y-65562447D01*
X12847245Y-65292454D02*
X12847253Y-65292465D01*
X13569390Y-65937201D02*
X13570734Y-65939889D01*
X13306047Y-65617424D02*
X13306056Y-65617427D01*
X13423137Y-65773528D02*
X13501181Y-65812551D01*
X12837866Y-65291412D02*
X12844314Y-65291997D01*
X10395597Y-63100597D02*
X12550751Y-65255751D01*
X13104287Y-65457516D02*
X13104608Y-65458036D01*
X13007065Y-65391499D02*
X13013438Y-65401696D01*
X13189564Y-65523981D02*
X13192548Y-65528954D01*
X12938742Y-65346137D02*
X12941643Y-65350200D01*
X12847266Y-65292466D02*
X12852364Y-65298839D01*
X12899266Y-65322477D02*
X12903274Y-65327554D01*
X13135549Y-65480426D02*
X13135583Y-65480435D01*
X13247815Y-65570708D02*
X13265589Y-65600331D01*
X13189520Y-65523956D02*
X13189535Y-65523960D01*
X13130053Y-65476321D02*
X13130460Y-65476996D01*
X13135583Y-65480435D02*
X13136434Y-65481872D01*
X13557771Y-65933282D02*
X13569301Y-65937125D01*
X13189555Y-65523979D02*
X13189564Y-65523981D01*
X13101426Y-65455480D02*
X13101463Y-65455489D01*
X13155484Y-65497016D02*
X13158517Y-65497883D01*
X12852364Y-65298839D02*
X12860444Y-65299993D01*
X4572000Y-42922700D02*
X4572000Y-51555662D01*
X13128189Y-65474944D02*
X13128841Y-65476021D01*
X13132184Y-65477900D02*
X13132373Y-65478217D01*
X12941643Y-65350200D02*
X12946557Y-65351067D01*
X13128038Y-65474835D02*
X13128089Y-65474919D01*
X13104170Y-65457488D02*
X13104287Y-65457516D01*
X13034942Y-65411633D02*
X13034960Y-65411663D01*
X13150467Y-65491629D02*
X13151652Y-65493660D01*
X13138049Y-65482291D02*
X13138083Y-65482349D01*
X13104026Y-65457366D02*
X13104106Y-65457385D01*
X13003852Y-65389261D02*
X13003928Y-65389278D01*
X13306056Y-65617427D02*
X13306063Y-65617441D01*
X16385585Y-69090585D02*
X16385585Y-73568692D01*
X13403625Y-65714994D02*
X13423137Y-65773528D01*
X13128089Y-65474919D02*
X13128189Y-65474944D01*
X13346255Y-65653625D02*
X13346271Y-65653631D01*
X13199108Y-65531141D02*
X13199116Y-65531158D01*
X13569321Y-65937143D02*
X13569324Y-65937149D01*
X13573573Y-65940872D02*
X13576484Y-65946865D01*
X40807993Y-77706543D02*
X39214080Y-76112630D01*
X13576484Y-65946865D02*
X13582717Y-65949202D01*
X13362277Y-65669296D02*
X13374789Y-65700575D01*
X13120448Y-65469319D02*
X13121596Y-65471233D01*
X47097431Y-77706543D02*
X40807993Y-77706543D01*
X13074302Y-65446134D02*
X13094910Y-65450818D01*
X47599600Y-79788000D02*
X47599600Y-78208712D01*
X13128841Y-65476021D02*
X13130053Y-65476321D01*
X12932244Y-65345039D02*
X12938708Y-65346116D01*
X13950370Y-66614586D02*
X13993193Y-66685955D01*
X12928349Y-65339742D02*
X12928357Y-65339753D01*
X13569308Y-65937139D02*
X13569321Y-65937143D01*
X13104106Y-65457385D02*
X13104170Y-65457488D01*
X13199116Y-65531158D02*
X13199135Y-65531164D01*
X13024593Y-65404175D02*
X13028280Y-65409968D01*
X13595213Y-65976693D02*
X13598503Y-65977790D01*
X13003928Y-65389278D02*
X13005044Y-65391033D01*
X13114937Y-65465295D02*
X13115653Y-65466452D01*
X13105284Y-65458235D02*
X13106313Y-65459905D01*
X13164976Y-65509509D02*
X13170634Y-65510641D01*
X13136434Y-65481872D02*
X13138049Y-65482291D01*
X13189495Y-65523930D02*
X13189501Y-65523942D01*
X13265589Y-65600331D02*
X13297443Y-65610132D01*
X13134617Y-65479723D02*
X13134922Y-65480241D01*
X13125798Y-65473225D02*
X13126572Y-65474475D01*
X12550751Y-65255751D02*
X12644525Y-65269147D01*
X13142333Y-65489482D02*
X13150453Y-65491618D01*
X13120435Y-65469316D02*
X13120448Y-65469319D01*
X13150458Y-65491627D02*
X13150467Y-65491629D01*
%TO.N,/6(PWM)*%
X49100000Y-4100000D02*
X49100000Y-3380000D01*
X46355000Y-13970000D02*
X46355000Y-11079286D01*
X46355000Y-11079286D02*
X47010124Y-10424162D01*
X49100000Y-3380000D02*
X49022000Y-3302000D01*
%TO.N,/5(PWM)*%
X44450000Y-9047726D02*
X44491033Y-9006693D01*
X45246256Y-14131256D02*
X45246256Y-13496256D01*
X45920808Y-18840594D02*
X47014511Y-17746891D01*
X45246256Y-13496256D02*
X44450000Y-12700000D01*
X44450000Y-12700000D02*
X44450000Y-9047726D01*
X47014511Y-15899511D02*
X45246256Y-14131256D01*
X47014511Y-17746891D02*
X47014511Y-15899511D01*
X47498000Y-2794000D02*
X47498000Y-4098000D01*
X47498000Y-4098000D02*
X47600000Y-4200000D01*
%TO.N,/4*%
X39086855Y-76825872D02*
X38814747Y-76825872D01*
X39157031Y-45861528D02*
X38687122Y-45391619D01*
X38687122Y-45391619D02*
X37709391Y-45391619D01*
X39157033Y-74772691D02*
X39157031Y-45861528D01*
X43114400Y-79788000D02*
X43114400Y-78288000D01*
X38814747Y-76825872D02*
X38371457Y-76382582D01*
X26155000Y-43250000D02*
X27612351Y-41792649D01*
X27612351Y-41792649D02*
X35423351Y-41792649D01*
X42982454Y-78156054D02*
X40417037Y-78156054D01*
X39157034Y-75145078D02*
X39157033Y-74772691D01*
X38371457Y-75930655D02*
X39157034Y-75145078D01*
X37709391Y-45391619D02*
X37162178Y-44844406D01*
X40417037Y-78156054D02*
X39086855Y-76825872D01*
X43114400Y-78288000D02*
X42982454Y-78156054D01*
X38371457Y-76382582D02*
X38371457Y-75930655D01*
%TO.N,/3(PWM)*%
X28869783Y-43250000D02*
X28695000Y-43250000D01*
X12700000Y-49640000D02*
X14992978Y-51932978D01*
X30965520Y-45345737D02*
X28869783Y-43250000D01*
X30965520Y-51202776D02*
X30965520Y-46995737D01*
X30965520Y-46995737D02*
X30905740Y-46935956D01*
X14992978Y-51932978D02*
X30235318Y-51932978D01*
X30235318Y-51932978D02*
X30965520Y-51202776D01*
X10922000Y-47862000D02*
X12700000Y-49640000D01*
X10922000Y-46228000D02*
X10922000Y-47862000D01*
X30965519Y-46876177D02*
X30965520Y-45345737D01*
X30905740Y-46935956D02*
X30965519Y-46876177D01*
%TO.N,/2*%
X8382000Y-48958000D02*
X7700000Y-49640000D01*
X31415030Y-48395531D02*
X31496000Y-48476501D01*
X30421511Y-52382489D02*
X10442489Y-52382489D01*
X31235000Y-43250000D02*
X31415030Y-43430030D01*
X8382000Y-46228000D02*
X8382000Y-48958000D01*
X31415030Y-43430030D02*
X31415030Y-48395531D01*
X31496000Y-51308000D02*
X30421511Y-52382489D01*
X10442489Y-52382489D02*
X7700000Y-49640000D01*
X31496000Y-48476501D02*
X31496000Y-51308000D01*
%TO.N,/1(Tx)*%
X36408800Y-75986200D02*
X37808501Y-74586499D01*
X35780000Y-32440000D02*
X34365499Y-31025499D01*
X21170433Y-31025499D02*
X19889628Y-29744694D01*
X37808501Y-74586499D02*
X37808501Y-47283501D01*
X36408800Y-79788000D02*
X36408800Y-75986200D01*
X34365499Y-31025499D02*
X21170433Y-31025499D01*
X37808501Y-47283501D02*
X33775000Y-43250000D01*
%TO.N,/0(Rx)*%
X28232447Y-26327447D02*
X36537553Y-26327447D01*
X36537553Y-26327447D02*
X38100000Y-24765000D01*
X37472437Y-75558267D02*
X38258012Y-74772692D01*
X27674881Y-25769881D02*
X28232447Y-26327447D01*
X38644000Y-79788000D02*
X38644000Y-78288000D01*
X38644000Y-78288000D02*
X37472437Y-77116437D01*
X38258011Y-47011707D02*
X36315000Y-45068696D01*
X38258012Y-74772692D02*
X38258011Y-47011707D01*
X27674881Y-9263555D02*
X27674881Y-25769881D01*
X27903132Y-9035304D02*
X27674881Y-9263555D01*
X36315000Y-45068696D02*
X36315000Y-43250000D01*
X27903133Y-8076867D02*
X27903132Y-9035304D01*
X37472437Y-77116437D02*
X37472437Y-75558267D01*
X29230000Y-6750000D02*
X27903133Y-8076867D01*
%TO.N,Net-(Q1-Pad1)*%
X52250000Y-7612500D02*
X52700000Y-8062500D01*
X54566600Y-9929100D02*
X52700000Y-8062500D01*
X54064500Y-9427000D02*
X54064500Y-9525000D01*
X52700000Y-9520000D02*
X53534799Y-10354799D01*
X22504400Y-23414400D02*
X18299400Y-19209400D01*
X52705000Y-9525000D02*
X53534799Y-10354799D01*
X18299400Y-19209400D02*
X18299400Y-18591600D01*
X56235600Y-9929100D02*
X54566600Y-9929100D01*
X52250000Y-5825000D02*
X52250000Y-7612500D01*
X52700000Y-8062500D02*
X52700000Y-9520000D01*
X52700000Y-8062500D02*
X52925000Y-8062500D01*
%TO.N,Net-(R16-Pad1)*%
X62026800Y-79596000D02*
X62026800Y-81471000D01*
X62026800Y-79596000D02*
X60526800Y-79596000D01*
%TO.N,Net-(R17-Pad1)*%
X62593099Y-77012299D02*
X62012299Y-77012299D01*
X63500000Y-80518000D02*
X63526800Y-80544800D01*
X62026800Y-77946000D02*
X63526800Y-77946000D01*
X63526800Y-80544800D02*
X63526800Y-80595500D01*
X63526800Y-81471000D02*
X63526800Y-80544800D01*
X63526800Y-77946000D02*
X62593099Y-77012299D01*
%TO.N,Net-(R_reset_pullup1-Pad2)*%
X40286479Y-75524725D02*
X40388092Y-75626338D01*
X40388092Y-75958100D02*
X41237514Y-76807522D01*
X40286479Y-44681479D02*
X40286479Y-75524725D01*
X41237514Y-76807522D02*
X51267322Y-76807522D01*
X40388092Y-75626338D02*
X40388092Y-75958100D01*
X51267322Y-76807522D02*
X52425600Y-77965800D01*
X34330295Y-23802875D02*
X35866379Y-25338959D01*
X38855000Y-43250000D02*
X40286479Y-44681479D01*
X31770000Y-6750000D02*
X34330295Y-9310295D01*
X34330295Y-9310295D02*
X34330295Y-23802875D01*
%TO.N,Net-(D2-Pad2)*%
X45720000Y-84158400D02*
X45349600Y-83788000D01*
X45720000Y-88620000D02*
X45720000Y-84158400D01*
%TO.N,Net-(D3-Pad2)*%
X43114400Y-83788000D02*
X43114400Y-87818400D01*
X43114400Y-87818400D02*
X43180000Y-87884000D01*
X43180000Y-87884000D02*
X43180000Y-88620000D01*
%TO.N,Net-(D4-Pad2)*%
X40640000Y-88620000D02*
X40640000Y-84027200D01*
X40640000Y-84027200D02*
X40879200Y-83788000D01*
%TO.N,Net-(D5-Pad2)*%
X38644000Y-83788000D02*
X38644000Y-88076000D01*
X38644000Y-88076000D02*
X38100000Y-88620000D01*
%TO.N,Net-(D6-Pad2)*%
X35560000Y-84636800D02*
X36408800Y-83788000D01*
X35560000Y-88620000D02*
X35560000Y-84636800D01*
%TO.N,Net-(D7-Pad2)*%
X33020000Y-88620000D02*
X34173600Y-87466400D01*
X34173600Y-87466400D02*
X34173600Y-83788000D01*
%TO.N,Net-(D8-Pad2)*%
X31938400Y-83788000D02*
X31938400Y-87161600D01*
X31938400Y-87161600D02*
X30480000Y-88620000D01*
%TO.N,Net-(D9-Pad1)*%
X49536467Y-1725978D02*
X31449726Y-1725978D01*
X18415000Y-7493000D02*
X21583489Y-4324511D01*
X21583489Y-4324511D02*
X23135489Y-4324511D01*
X30659726Y-2515978D02*
X30659726Y-3399863D01*
X28215489Y-3695078D02*
X28215489Y-2804922D01*
X29735078Y-4324511D02*
X28844922Y-4324511D01*
X466965Y-35093035D02*
X6721937Y-28838063D01*
X28844922Y-4324511D02*
X28215489Y-3695078D01*
X50675000Y-4175000D02*
X50675000Y-2864511D01*
X31449726Y-1725978D02*
X30659726Y-2515978D01*
X27470567Y-2060000D02*
X25400000Y-2060000D01*
X28215489Y-2804922D02*
X27470567Y-2060000D01*
X30659726Y-3399863D02*
X29735078Y-4324511D01*
X23135489Y-4324511D02*
X24210000Y-3250000D01*
X6721937Y-28838063D02*
X6721937Y-21850247D01*
X1879600Y-62008000D02*
X1879600Y-61658000D01*
X1879600Y-61658000D02*
X466965Y-60245365D01*
X50675000Y-2864511D02*
X49536467Y-1725978D01*
X6721937Y-21850247D02*
X18415000Y-10157184D01*
X18415000Y-10157184D02*
X18415000Y-7493000D01*
X25400000Y-2060000D02*
X24210000Y-3250000D01*
X466965Y-60245365D02*
X466965Y-35093035D01*
%TO.N,Net-(D9-Pad2)*%
X6900000Y-72018000D02*
X6825480Y-71943480D01*
X67529611Y-32602389D02*
X67529611Y-34509611D01*
X6175178Y-71943480D02*
X1879600Y-67647902D01*
X43595389Y-34509611D02*
X67529611Y-34509611D01*
X1879600Y-67647902D02*
X1879600Y-66008000D01*
X6825480Y-71943480D02*
X6175178Y-71943480D01*
X42007088Y-36097912D02*
X43595389Y-34509611D01*
X42007088Y-75173097D02*
X42007088Y-36097912D01*
X71100000Y-29032000D02*
X67529611Y-32602389D01*
%TO.N,Net-(D10-Pad1)*%
X27453622Y-8849110D02*
X27453622Y-7890674D01*
X27453622Y-7890674D02*
X28155489Y-7188807D01*
X12030929Y-67087699D02*
X12030925Y-67087698D01*
X29652400Y-79788000D02*
X16531992Y-79788000D01*
X13870478Y-73556958D02*
X13870478Y-69118294D01*
X12252730Y-67393490D02*
X12235001Y-67366896D01*
X11972631Y-67040935D02*
X11972612Y-67040930D01*
X13490437Y-26327447D02*
X26377553Y-26327447D01*
X8597551Y-63845367D02*
X8597551Y-58124031D01*
X13870478Y-69118294D02*
X13267902Y-68515715D01*
X27225370Y-25479630D02*
X27225370Y-9077362D01*
X8597551Y-58124031D02*
X2755555Y-52282035D01*
X11908476Y-66997258D02*
X11908470Y-66997257D01*
X11967199Y-67036969D02*
X11930709Y-67028383D01*
X11908470Y-66997257D02*
X11908466Y-66997252D01*
X2755555Y-52282035D02*
X2755555Y-38513398D01*
X12381628Y-67494791D02*
X12340460Y-67484499D01*
X29404511Y-5675489D02*
X31830000Y-3250000D01*
X26377553Y-26327447D02*
X27225370Y-25479630D01*
X16531992Y-79788000D02*
X14312552Y-77568560D01*
X12283638Y-67404769D02*
X12283052Y-67403597D01*
X3559534Y-37709419D02*
X3559534Y-36258350D01*
X11972603Y-67040915D02*
X11969100Y-67040039D01*
X13267902Y-68515715D02*
X12583606Y-67831418D01*
X12030924Y-67087695D02*
X11993133Y-67075098D01*
X12030925Y-67087698D02*
X12030924Y-67087695D01*
X11717636Y-66965452D02*
X8597551Y-63845367D01*
X27225370Y-9077362D02*
X27453622Y-8849110D01*
X11908466Y-66997252D02*
X11717636Y-66965452D01*
X12294185Y-67407406D02*
X12294182Y-67407405D01*
X14312551Y-73999031D02*
X13870478Y-73556958D01*
X12235001Y-67366896D02*
X12163360Y-67352568D01*
X12294182Y-67407405D02*
X12294180Y-67407402D01*
X28155489Y-6304922D02*
X28784922Y-5675489D01*
X12163360Y-67352568D02*
X12103637Y-67233121D01*
X12283052Y-67403597D02*
X12252730Y-67393490D01*
X12103637Y-67233121D02*
X12030929Y-67087699D01*
X12340460Y-67484499D02*
X12294185Y-67407406D01*
X11930709Y-67028383D02*
X11908476Y-66997258D01*
X11969100Y-67040039D02*
X11967199Y-67036969D01*
X11993133Y-67075098D02*
X11972631Y-67040935D01*
X28784922Y-5675489D02*
X29404511Y-5675489D01*
X11972612Y-67040930D02*
X11972603Y-67040915D01*
X12583606Y-67831418D02*
X12381628Y-67494791D01*
X14312552Y-77568560D02*
X14312551Y-73999031D01*
X3559534Y-36258350D02*
X13490437Y-26327447D01*
X2755555Y-38513398D02*
X3559534Y-37709419D01*
X12294180Y-67407402D02*
X12283638Y-67404769D01*
X28155489Y-7188807D02*
X28155489Y-6304922D01*
%TO.N,Net-(D10-Pad2)*%
X27718000Y-83788000D02*
X27432000Y-84074000D01*
X26750000Y-3250000D02*
X24920000Y-5080000D01*
X11133189Y-68970674D02*
X11934022Y-69771507D01*
X29652400Y-83788000D02*
X27718000Y-83788000D01*
X24920000Y-5080000D02*
X21760411Y-5080000D01*
X25845078Y-89694511D02*
X26474511Y-89065078D01*
X7171448Y-22036440D02*
X7171447Y-29024257D01*
X11934022Y-69771507D02*
X11934022Y-83951682D01*
X11016079Y-68941361D02*
X11133141Y-68970626D01*
X21760411Y-5080000D02*
X19050000Y-7790411D01*
X10814098Y-68604728D02*
X10824484Y-68622035D01*
X6799508Y-64590139D02*
X10814098Y-68604728D01*
X916478Y-53494478D02*
X2217489Y-54795489D01*
X11016074Y-68941357D02*
X11016079Y-68941361D01*
X11625489Y-89065078D02*
X12254922Y-89694511D01*
X2726194Y-54795490D02*
X6799511Y-58868807D01*
X26474511Y-89065078D02*
X26474511Y-86965889D01*
X11625489Y-84260215D02*
X11625489Y-89065078D01*
X2353806Y-54795490D02*
X2726194Y-54795490D01*
X916478Y-35279226D02*
X916478Y-53494478D01*
X12254922Y-89694511D02*
X25845078Y-89694511D01*
X6799511Y-58868807D02*
X6799508Y-64590139D01*
X11133166Y-68970668D02*
X11133189Y-68970674D01*
X2217489Y-54795489D02*
X2353806Y-54795490D01*
X11133141Y-68970626D02*
X11133166Y-68970668D01*
X19050000Y-10157888D02*
X7171448Y-22036440D01*
X11934022Y-83951682D02*
X11625489Y-84260215D01*
X26474511Y-86965889D02*
X29652400Y-83788000D01*
X19050000Y-7790411D02*
X19050000Y-10157888D01*
X10824484Y-68622035D02*
X11016074Y-68941357D01*
X7171447Y-29024257D02*
X916478Y-35279226D01*
%TO.N,Net-(R1-Pad1)*%
X11693531Y-68175428D02*
X11646875Y-68166097D01*
X19588059Y-10891237D02*
X20733644Y-10891237D01*
X11497131Y-67995725D02*
X11403805Y-67840178D01*
X11393359Y-67822828D02*
X11393353Y-67822827D01*
X1856533Y-53163125D02*
X1856533Y-36243467D01*
X13413531Y-74371419D02*
X12971456Y-73929344D01*
X7698531Y-58496419D02*
X3098580Y-53896468D01*
X2589876Y-53896468D02*
X1856533Y-53163125D01*
X3098580Y-53896468D02*
X2589876Y-53896468D01*
X11403805Y-67840178D02*
X11403764Y-67840168D01*
X11273693Y-67792917D02*
X7698529Y-64217752D01*
X7698529Y-64217752D02*
X7698531Y-58496419D01*
X11403764Y-67840168D02*
X11393359Y-67822828D01*
X11532201Y-68051424D02*
X11497131Y-67995725D01*
X20733644Y-10891237D02*
X20910236Y-10714645D01*
X11869643Y-68388864D02*
X11802318Y-68276656D01*
X11700391Y-68185718D02*
X11693531Y-68175428D01*
X20910236Y-10714645D02*
X25928252Y-10714645D01*
X8070469Y-22408827D02*
X19588059Y-10891237D01*
X11761238Y-68266386D02*
X11715010Y-68189370D01*
X49100000Y-5750000D02*
X49100000Y-7649506D01*
X11802318Y-68276656D02*
X11761238Y-68266386D01*
X22860000Y-88620000D02*
X13413531Y-79173531D01*
X49100000Y-7649506D02*
X48805500Y-7944006D01*
X25928252Y-10714645D02*
X26030800Y-10612097D01*
X1856533Y-36243467D02*
X8070468Y-30029532D01*
X12895511Y-69414734D02*
X11869643Y-68388864D01*
X11646875Y-68166097D02*
X11532201Y-68051424D01*
X11393350Y-67822821D02*
X11273693Y-67792917D01*
X13413531Y-79173531D02*
X13413531Y-74371419D01*
X11715010Y-68189370D02*
X11700391Y-68185718D01*
X11393353Y-67822827D02*
X11393350Y-67822821D01*
X8070468Y-30029532D02*
X8070469Y-22408827D01*
X12971456Y-73929344D02*
X12971456Y-69490680D01*
X12971456Y-69490680D02*
X12895511Y-69414734D01*
%TO.N,Net-(R2-Pad1)*%
X36854511Y-22536575D02*
X37025069Y-22707133D01*
X46990000Y-6460000D02*
X47600000Y-5850000D01*
X46990000Y-6858000D02*
X46990000Y-6460000D01*
X36847987Y-9549528D02*
X36854511Y-9556052D01*
X36854511Y-9556052D02*
X36854511Y-22536575D01*
%TO.N,Net-(R3-Pad1)*%
X43766532Y-8283468D02*
X43766533Y-9364078D01*
X43766533Y-9364078D02*
X43904500Y-9502045D01*
X43904500Y-9502045D02*
X43904500Y-13280990D01*
X46100000Y-5950000D02*
X43766532Y-8283468D01*
X43904500Y-13280990D02*
X44521755Y-13898245D01*
%TO.N,Net-(R4-Pad1)*%
X43317022Y-9617214D02*
X43444021Y-9744213D01*
X43317021Y-7232979D02*
X43317022Y-9617214D01*
X43444021Y-9744213D02*
X43444021Y-14234021D01*
X43444021Y-14234021D02*
X43815000Y-14605000D01*
X44600000Y-5950000D02*
X43317021Y-7232979D01*
%TO.N,Net-(R5-Pad1)*%
X42867510Y-6182490D02*
X43100000Y-5950000D01*
X45940000Y-17200000D02*
X44113660Y-15373660D01*
X44113660Y-15373660D02*
X43366194Y-15373660D01*
X43366194Y-15373660D02*
X42867510Y-14874976D01*
X42867510Y-14874976D02*
X42867510Y-6182490D01*
%TO.N,Net-(R6-Pad2)*%
X50800000Y-88620000D02*
X50800000Y-86847800D01*
X50800000Y-86847800D02*
X54526800Y-83121000D01*
%TO.N,Net-(R10-Pad2)*%
X56134000Y-80518000D02*
X56134000Y-80595500D01*
X56026800Y-81471000D02*
X56026800Y-80625200D01*
X55880000Y-77799200D02*
X56026800Y-77946000D01*
X54526800Y-77946000D02*
X56026800Y-77946000D01*
X56026800Y-80625200D02*
X56134000Y-80518000D01*
X55880000Y-76962000D02*
X55880000Y-77799200D01*
%TO.N,Net-(R7-Pad2)*%
X53340000Y-85807800D02*
X53340000Y-88620000D01*
X56026800Y-83121000D02*
X53340000Y-85807800D01*
%TO.N,Net-(R11-Pad2)*%
X57526800Y-79596000D02*
X57526800Y-81471000D01*
X57526800Y-79596000D02*
X56026800Y-79596000D01*
%TO.N,Net-(R8-Pad2)*%
X55880000Y-84767800D02*
X57526800Y-83121000D01*
X55880000Y-88620000D02*
X55880000Y-84767800D01*
%TO.N,Net-(R12-Pad2)*%
X59026800Y-81471000D02*
X59026800Y-79596000D01*
X59026800Y-79596000D02*
X59026800Y-79446000D01*
X59026800Y-79446000D02*
X57526800Y-77946000D01*
%TO.N,Net-(R9-Pad2)*%
X59026800Y-83121000D02*
X58420000Y-83727800D01*
X58420000Y-83727800D02*
X58420000Y-88620000D01*
%TO.N,Net-(R15-Pad2)*%
X60960000Y-83554200D02*
X60526800Y-83121000D01*
X60960000Y-88620000D02*
X60960000Y-83554200D01*
%TO.N,Net-(R16-Pad2)*%
X62026800Y-87146800D02*
X63500000Y-88620000D01*
X62026800Y-83121000D02*
X62026800Y-87146800D01*
%TO.N,Net-(R17-Pad2)*%
X63526800Y-86106800D02*
X63526800Y-83121000D01*
X66040000Y-88620000D02*
X63526800Y-86106800D01*
%TO.N,Net-(R18-Pad2)*%
X65026800Y-83121000D02*
X68580000Y-86674200D01*
X68580000Y-86674200D02*
X68580000Y-88620000D01*
%TO.N,Net-(Q2-Pad1)*%
X55250000Y-5825000D02*
X56750000Y-5825000D01*
X53750000Y-6575000D02*
X53379977Y-6945023D01*
X57185600Y-6260600D02*
X56750000Y-5825000D01*
X55233000Y-5842000D02*
X55250000Y-5825000D01*
X53848000Y-5842000D02*
X55233000Y-5842000D01*
X53750000Y-5825000D02*
X53750000Y-6575000D01*
X57185600Y-8054100D02*
X57185600Y-6260600D01*
X53831000Y-5825000D02*
X53848000Y-5842000D01*
X53750000Y-5825000D02*
X53831000Y-5825000D01*
%TO.N,Net-(U2-Pad10)*%
X51312700Y-33069400D02*
X51312700Y-30542100D01*
X51312700Y-30542100D02*
X51300000Y-30529400D01*
%TO.N,Net-(U2-Pad11)*%
X51312700Y-27989400D02*
X51312700Y-25462100D01*
X51312700Y-25462100D02*
X51325400Y-25449400D01*
%TO.N,Net-(U2-Pad13)*%
X51300000Y-20369400D02*
X51300000Y-17842100D01*
X51300000Y-17842100D02*
X51312700Y-17829400D01*
X51312700Y-22909400D02*
X51312700Y-20382100D01*
X51312700Y-20382100D02*
X51300000Y-20369400D01*
%TO.N,Net-(U2-Pad17)*%
X53840000Y-33056700D02*
X53852700Y-33069400D01*
X53840000Y-30529400D02*
X53840000Y-33056700D01*
%TO.N,Net-(U2-Pad19)*%
X53865400Y-25449400D02*
X53865400Y-27976700D01*
X53865400Y-27976700D02*
X53852700Y-27989400D01*
%TO.N,Net-(U2-Pad21)*%
X53852700Y-22909400D02*
X53852700Y-20382100D01*
X53840000Y-20369400D02*
X53840000Y-17842100D01*
X53840000Y-17842100D02*
X53852700Y-17829400D01*
X53852700Y-20382100D02*
X53840000Y-20369400D01*
X53840000Y-17816700D02*
X53852700Y-17829400D01*
%TO.N,Net-(U2-Pad25)*%
X56380000Y-30529400D02*
X56380000Y-33056700D01*
X56380000Y-33056700D02*
X56392700Y-33069400D01*
%TO.N,Net-(U2-Pad27)*%
X56405400Y-25449400D02*
X56405400Y-27976700D01*
X56405400Y-27976700D02*
X56392700Y-27989400D01*
%TO.N,Net-(U2-Pad29)*%
X56392700Y-17829400D02*
X56392700Y-20356700D01*
X56380000Y-20369400D02*
X56380000Y-22896700D01*
X56380000Y-22896700D02*
X56392700Y-22909400D01*
X56392700Y-20356700D02*
X56380000Y-20369400D01*
X56380000Y-17816700D02*
X56392700Y-17829400D01*
%TO.N,Net-(U2-Pad33)*%
X58920000Y-33056700D02*
X58932700Y-33069400D01*
X58920000Y-30529400D02*
X58920000Y-33056700D01*
%TO.N,Net-(U2-Pad35)*%
X58945400Y-25449400D02*
X58945400Y-27976700D01*
X58945400Y-27976700D02*
X58932700Y-27989400D01*
%TO.N,Net-(U2-Pad37)*%
X58920000Y-20369400D02*
X58920000Y-22896700D01*
X58920000Y-17816700D02*
X58932700Y-17829400D01*
X58920000Y-22896700D02*
X58932700Y-22909400D01*
X58920000Y-15289400D02*
X58920000Y-17816700D01*
X58932700Y-17829400D02*
X58932700Y-20356700D01*
X58932700Y-20356700D02*
X58920000Y-20369400D01*
%TO.N,Net-(U2-Pad41)*%
X61460000Y-33056700D02*
X61472700Y-33069400D01*
X61460000Y-30529400D02*
X61460000Y-33056700D01*
%TO.N,Net-(U2-Pad43)*%
X61485400Y-27976700D02*
X61472700Y-27989400D01*
X61485400Y-25449400D02*
X61485400Y-27976700D01*
%TO.N,Net-(U2-Pad45)*%
X61472700Y-17829400D02*
X61472700Y-20356700D01*
X61460000Y-20369400D02*
X61460000Y-22896700D01*
X61460000Y-17816700D02*
X61472700Y-17829400D01*
X61460000Y-15289400D02*
X61460000Y-17816700D01*
X61472700Y-20356700D02*
X61460000Y-20369400D01*
X61460000Y-22896700D02*
X61472700Y-22909400D01*
%TO.N,Net-(U2-Pad49)*%
X64000000Y-33056700D02*
X64012700Y-33069400D01*
X64000000Y-30529400D02*
X64000000Y-33056700D01*
%TO.N,Net-(U2-Pad51)*%
X64025400Y-27976700D02*
X64012700Y-27989400D01*
X64025400Y-25449400D02*
X64025400Y-27976700D01*
%TO.N,Net-(U2-Pad53)*%
X64012700Y-17829400D02*
X64012700Y-20356700D01*
X64000000Y-17816700D02*
X64012700Y-17829400D01*
X64000000Y-22896700D02*
X64012700Y-22909400D01*
X64000000Y-20369400D02*
X64000000Y-22896700D01*
X64012700Y-20356700D02*
X64000000Y-20369400D01*
X64000000Y-15289400D02*
X64000000Y-17816700D01*
%TO.N,unconnected-(U2-Pad16)*%
X51312700Y-15302100D02*
X51300000Y-15289400D01*
%TO.N,Net-(R26-Pad2)*%
X12700000Y-87559340D02*
X12964022Y-87295318D01*
X12964022Y-87295318D02*
X12964021Y-74557613D01*
X20455454Y-9388138D02*
X26051360Y-9388138D01*
X11288191Y-68521164D02*
X11263608Y-68480200D01*
X11362952Y-68564733D02*
X11319383Y-68521164D01*
X11425424Y-68580353D02*
X11422798Y-68579697D01*
X12446000Y-69600928D02*
X11512662Y-68667588D01*
X11114144Y-68231106D02*
X11114122Y-68231101D01*
X11512658Y-68667587D02*
X11425424Y-68580353D01*
X1407022Y-53349318D02*
X1407022Y-35424386D01*
X7249021Y-58682613D02*
X2912387Y-54345979D01*
X11043897Y-68198823D02*
X7249018Y-64403945D01*
X12446000Y-74039592D02*
X12446000Y-69600928D01*
X11114122Y-68231101D02*
X11103725Y-68213775D01*
X11263608Y-68418534D02*
X11171087Y-68326013D01*
X56896000Y-3302000D02*
X56896000Y-4029000D01*
X7620958Y-22222634D02*
X20455454Y-9388138D01*
X11512662Y-68667588D02*
X11512658Y-68667587D01*
X12964021Y-74557613D02*
X12446000Y-74039592D01*
X56896000Y-4029000D02*
X56750000Y-4175000D01*
X2912387Y-54345979D02*
X2403682Y-54345978D01*
X7249018Y-64403945D02*
X7249021Y-58682613D01*
X11422798Y-68579697D02*
X11422796Y-68579694D01*
X12700000Y-88620000D02*
X12700000Y-87559340D01*
X11422796Y-68579694D02*
X11362952Y-68564733D01*
X11319383Y-68521164D02*
X11288191Y-68521164D01*
X1407022Y-35424386D02*
X7620958Y-29210450D01*
X2403682Y-54345978D02*
X1407022Y-53349318D01*
X11263608Y-68480200D02*
X11263608Y-68418534D01*
X7620958Y-29210450D02*
X7620958Y-22222634D01*
X11171087Y-68326013D02*
X11114144Y-68231106D01*
X11103725Y-68213775D02*
X11043897Y-68198823D01*
%TO.N,Net-(R18-Pad1)*%
X65026800Y-79596000D02*
X63526800Y-79596000D01*
X65026800Y-79596000D02*
X65026800Y-81471000D01*
%TD*%
M02*
