M48
; DRILL file {KiCad (6.0.0)} date Mon Nov 14 01:45:21 2022
; FORMAT={-:-/ absolute / inch / decimal}
; #@! TF.CreationDate,2022-11-14T01:45:21-08:00
; #@! TF.GenerationSoftware,Kicad,Pcbnew,(6.0.0)
; #@! TF.FileFunction,Plated,1,2,PTH
FMAT,2
INCH
; #@! TA.AperFunction,Plated,PTH,ViaDrill
T1C0.0157
; #@! TA.AperFunction,Plated,PTH,ComponentDrill
T2C0.0315
; #@! TA.AperFunction,Plated,PTH,ComponentDrill
T3C0.0866
%
G90
G05
T1
X0.168Y-2.1
X0.3311Y-1.4532
X0.4126Y-2.2679
X0.4126Y-2.2679
X0.4724Y-2.6378
X0.4921Y-1.437
X0.508Y-2.116
X0.5118Y-3.0906
X0.5512Y-2.6772
X0.5644Y-2.7441
X0.5791Y-2.0698
X0.689Y-1.8307
X0.7283Y-2.2441
X0.7677Y-2.5394
X1.2205Y-3.1102
X1.2977Y-1.8007
X1.65Y-1.81
X1.6912Y-1.8521
X1.73Y-1.53
X2.0079Y-3.1102
T2
X0.4Y-1.2213
X0.5Y-1.2213
X0.6Y-1.2213
X0.7Y-1.2213
X0.8Y-1.2213
X0.9Y-1.2213
X1.0Y-1.2213
X1.1Y-1.2213
X1.1901Y-0.2416
X1.1901Y-0.4416
X1.1901Y-0.8416
X1.1906Y-0.3416
X1.1906Y-0.5416
X1.1906Y-0.7416
X1.1906Y-0.9416
X1.1911Y-0.6416
X1.2Y-1.2213
X1.2901Y-0.2416
X1.2901Y-0.4416
X1.2901Y-0.8416
X1.2906Y-0.3416
X1.2906Y-0.5416
X1.2906Y-0.7416
X1.2906Y-0.9416
X1.2911Y-0.6416
X1.3Y-1.2213
X1.3901Y-0.2416
X1.3901Y-0.4416
X1.3901Y-0.8416
X1.3906Y-0.3416
X1.3906Y-0.5416
X1.3906Y-0.7416
X1.3906Y-0.9416
X1.3911Y-0.6416
X1.4Y-1.2213
X1.4901Y-0.2416
X1.4901Y-0.4416
X1.4901Y-0.8416
X1.4906Y-0.3416
X1.4906Y-0.5416
X1.4906Y-0.7416
X1.4906Y-0.9416
X1.4911Y-0.6416
X1.5Y-1.2213
X1.5901Y-0.2416
X1.5901Y-0.4416
X1.5901Y-0.8416
X1.5906Y-0.3416
X1.5906Y-0.5416
X1.5906Y-0.7416
X1.5906Y-0.9416
X1.5911Y-0.6416
X1.6Y-1.2213
X1.6901Y-0.2416
X1.6901Y-0.4416
X1.6901Y-0.8416
X1.6906Y-0.3416
X1.6906Y-0.5416
X1.6906Y-0.7416
X1.6906Y-0.9416
X1.6911Y-0.6416
X1.7Y-1.2213
X1.7901Y-0.2416
X1.7901Y-0.4416
X1.7901Y-0.8416
X1.7906Y-0.3416
X1.7906Y-0.5416
X1.7906Y-0.7416
X1.7906Y-0.9416
X1.7911Y-0.6416
X1.8Y-1.2213
X1.8901Y-0.2416
X1.8901Y-0.4416
X1.8901Y-0.8416
X1.8906Y-0.3416
X1.8906Y-0.5416
X1.8906Y-0.7416
X1.8906Y-0.9416
X1.8911Y-0.6416
X1.9Y-1.2213
X2.0Y-1.2213
X2.1Y-1.2213
X2.2Y-1.2213
X2.3Y-1.2213
X2.4Y-1.2213
X2.4591Y-0.9449
X2.5Y-1.2213
X2.5591Y-0.9449
X2.6Y-1.2213
X2.7Y-1.2213
T3
G00X0.1201Y-1.6826
M15
G01X0.1949Y-1.6826
M16
G05
G00X0.1201Y-2.9031
M15
G01X0.1949Y-2.9031
M16
G05
G00X0.3169Y-1.5448
M15
G01X0.3917Y-1.5448
M16
G05
G00X0.3169Y-1.6826
M15
G01X0.3917Y-1.6826
M16
G05
G00X0.3169Y-1.9976
M15
G01X0.3917Y-1.9976
M16
G05
G00X0.3169Y-2.7653
M15
G01X0.3917Y-2.7653
M16
G05
G00X0.3169Y-2.9031
M15
G01X0.3917Y-2.9031
M16
G05
G00X0.3169Y-3.218
M15
G01X0.3917Y-3.218
M16
G05
G00X0.5138Y-1.6826
M15
G01X0.5886Y-1.6826
M16
G05
G00X0.5138Y-2.9031
M15
G01X0.5886Y-2.9031
M16
G05
G00X0.9075Y-1.6826
M15
G01X0.9823Y-1.6826
M16
G05
G00X0.9075Y-2.9031
M15
G01X0.9823Y-2.9031
M16
G05
G00X1.1043Y-1.5448
M15
G01X1.1791Y-1.5448
M16
G05
G00X1.1043Y-1.6826
M15
G01X1.1791Y-1.6826
M16
G05
G00X1.1043Y-1.9976
M15
G01X1.1791Y-1.9976
M16
G05
G00X1.1043Y-2.7653
M15
G01X1.1791Y-2.7653
M16
G05
G00X1.1043Y-2.9031
M15
G01X1.1791Y-2.9031
M16
G05
G00X1.1043Y-3.218
M15
G01X1.1791Y-3.218
M16
G05
G00X1.3012Y-1.6826
M15
G01X1.376Y-1.6826
M16
G05
G00X1.3012Y-2.9031
M15
G01X1.376Y-2.9031
M16
G05
G00X1.6949Y-1.6826
M15
G01X1.7697Y-1.6826
M16
G05
G00X1.6949Y-2.9031
M15
G01X1.7697Y-2.9031
M16
G05
G00X1.8917Y-1.5448
M15
G01X1.9665Y-1.5448
M16
G05
G00X1.8917Y-1.6826
M15
G01X1.9665Y-1.6826
M16
G05
G00X1.8917Y-1.9976
M15
G01X1.9665Y-1.9976
M16
G05
G00X1.8917Y-2.7653
M15
G01X1.9665Y-2.7653
M16
G05
G00X1.8917Y-2.9031
M15
G01X1.9665Y-2.9031
M16
G05
G00X1.8917Y-3.218
M15
G01X1.9665Y-3.218
M16
G05
G00X2.0886Y-1.6826
M15
G01X2.1634Y-1.6826
M16
G05
G00X2.0886Y-2.9031
M15
G01X2.1634Y-2.9031
M16
G05
G00X2.4823Y-1.6826
M15
G01X2.5571Y-1.6826
M16
G05
G00X2.4823Y-2.9031
M15
G01X2.5571Y-2.9031
M16
G05
G00X2.6791Y-1.5448
M15
G01X2.7539Y-1.5448
M16
G05
G00X2.6791Y-1.6826
M15
G01X2.7539Y-1.6826
M16
G05
G00X2.6791Y-1.9976
M15
G01X2.7539Y-1.9976
M16
G05
G00X2.6791Y-2.7653
M15
G01X2.7539Y-2.7653
M16
G05
G00X2.6791Y-2.9031
M15
G01X2.7539Y-2.9031
M16
G05
G00X2.6791Y-3.218
M15
G01X2.7539Y-3.218
M16
G05
G00X2.876Y-1.6826
M15
G01X2.9508Y-1.6826
M16
G05
G00X2.876Y-2.9031
M15
G01X2.9508Y-2.9031
M16
G05
T0
M30
