%TF.GenerationSoftware,KiCad,Pcbnew,(6.0.0)*%
%TF.CreationDate,2022-11-14T01:45:54-08:00*%
%TF.ProjectId,button_pcb,62757474-6f6e-45f7-9063-622e6b696361,rev?*%
%TF.SameCoordinates,Original*%
%TF.FileFunction,Copper,L2,Bot*%
%TF.FilePolarity,Positive*%
%FSLAX46Y46*%
G04 Gerber Fmt 4.6, Leading zero omitted, Abs format (unit mm)*
G04 Created by KiCad (PCBNEW (6.0.0)) date 2022-11-14 01:45:54*
%MOMM*%
%LPD*%
G01*
G04 APERTURE LIST*
%TA.AperFunction,ComponentPad*%
%ADD10R,4.600000X3.300000*%
%TD*%
%TA.AperFunction,ComponentPad*%
%ADD11R,4.600000X3.800000*%
%TD*%
%TA.AperFunction,ComponentPad*%
%ADD12R,4.800000X3.100000*%
%TD*%
%TA.AperFunction,ComponentPad*%
%ADD13O,2.000000X2.000000*%
%TD*%
%TA.AperFunction,ComponentPad*%
%ADD14R,1.500000X1.500000*%
%TD*%
%TA.AperFunction,ComponentPad*%
%ADD15C,1.500000*%
%TD*%
%TA.AperFunction,ComponentPad*%
%ADD16R,1.200000X2.000000*%
%TD*%
%TA.AperFunction,ComponentPad*%
%ADD17O,1.200000X2.000000*%
%TD*%
%TA.AperFunction,ViaPad*%
%ADD18C,0.800000*%
%TD*%
%TA.AperFunction,Conductor*%
%ADD19C,0.250000*%
%TD*%
G04 APERTURE END LIST*
D10*
%TO.P,S8,1,NO*%
%TO.N,VCC*%
X69000000Y-42988000D03*
D11*
%TO.P,S8,2,NC*%
%TO.N,GND*%
X64000000Y-43238000D03*
%TO.P,S8,3,C*%
%TO.N,Net-(S8-Pad3)*%
X74000000Y-43238000D03*
D12*
%TO.P,S8,4,LED_+*%
%TO.N,/common Anode*%
X69000000Y-39338000D03*
D10*
%TO.P,S8,5,LED_-*%
%TO.N,Net-(S8-Pad5)*%
X69000000Y-50988000D03*
%TD*%
%TO.P,S1,1,NO*%
%TO.N,Net-(BT1-Pad1)*%
X9000000Y-73988000D03*
D11*
%TO.P,S1,2,NC*%
%TO.N,Net-(S1-Pad2)*%
X4000000Y-74238000D03*
%TO.P,S1,3,C*%
%TO.N,Net-(S1-Pad3)*%
X14000000Y-74238000D03*
D12*
%TO.P,S1,4,LED_+*%
%TO.N,/common Anode*%
X9000000Y-70338000D03*
D10*
%TO.P,S1,5,LED_-*%
%TO.N,Net-(S1-Pad5)*%
X9000000Y-81988000D03*
%TD*%
%TO.P,S4,1,NO*%
%TO.N,VCC*%
X69000000Y-73988000D03*
D11*
%TO.P,S4,2,NC*%
%TO.N,GND*%
X64000000Y-74238000D03*
%TO.P,S4,3,C*%
%TO.N,Net-(S4-Pad3)*%
X74000000Y-74238000D03*
D12*
%TO.P,S4,4,LED_+*%
%TO.N,/common Anode*%
X69000000Y-70338000D03*
D10*
%TO.P,S4,5,LED_-*%
%TO.N,Net-(S4-Pad5)*%
X69000000Y-81988000D03*
%TD*%
D13*
%TO.P,U1,1*%
%TO.N,VCC*%
X30242400Y-23915400D03*
%TO.P,U1,2*%
X30229700Y-21375400D03*
%TO.P,U1,3*%
X30242400Y-18835400D03*
%TO.P,U1,4*%
X30255100Y-16295400D03*
%TO.P,U1,5*%
X30242400Y-13755400D03*
%TO.P,U1,6*%
X30229700Y-11215400D03*
%TO.P,U1,7*%
X30242400Y-8675400D03*
%TO.P,U1,8*%
X30229700Y-6135400D03*
%TO.P,U1,9*%
%TO.N,Net-(U1-Pad10)*%
X32782400Y-23915400D03*
%TO.P,U1,10*%
X32769700Y-21375400D03*
%TO.P,U1,11*%
%TO.N,Net-(U1-Pad11)*%
X32782400Y-18835400D03*
%TO.P,U1,12*%
X32795100Y-16295400D03*
%TO.P,U1,13*%
%TO.N,Net-(U1-Pad14)*%
X32782400Y-13755400D03*
%TO.P,U1,14*%
X32769700Y-11215400D03*
%TO.P,U1,15*%
X32782400Y-8675400D03*
%TO.P,U1,16*%
X32769700Y-6135400D03*
%TO.P,U1,17*%
%TO.N,Net-(U1-Pad17)*%
X35322400Y-23915400D03*
%TO.P,U1,18*%
X35309700Y-21375400D03*
%TO.P,U1,19*%
%TO.N,Net-(U1-Pad19)*%
X35322400Y-18835400D03*
%TO.P,U1,20*%
X35335100Y-16295400D03*
%TO.P,U1,21*%
%TO.N,Net-(U1-Pad21)*%
X35322400Y-13755400D03*
%TO.P,U1,22*%
X35309700Y-11215400D03*
%TO.P,U1,23*%
X35322400Y-8675400D03*
%TO.P,U1,24*%
X35309700Y-6135400D03*
%TO.P,U1,25*%
%TO.N,unconnected-(U1-Pad25)*%
X37862400Y-23915400D03*
%TO.P,U1,26*%
%TO.N,unconnected-(U1-Pad26)*%
X37849700Y-21375400D03*
%TO.P,U1,27*%
%TO.N,unconnected-(U1-Pad27)*%
X37862400Y-18835400D03*
%TO.P,U1,28*%
%TO.N,unconnected-(U1-Pad28)*%
X37875100Y-16295400D03*
%TO.P,U1,29*%
%TO.N,unconnected-(U1-Pad29)*%
X37862400Y-13755400D03*
%TO.P,U1,30*%
%TO.N,Net-(U1-Pad30)*%
X37849700Y-11215400D03*
%TO.P,U1,31*%
X37862400Y-8675400D03*
%TO.P,U1,32*%
X37849700Y-6135400D03*
%TO.P,U1,33*%
%TO.N,unconnected-(U1-Pad33)*%
X40402400Y-23915400D03*
%TO.P,U1,34*%
%TO.N,unconnected-(U1-Pad34)*%
X40389700Y-21375400D03*
%TO.P,U1,35*%
%TO.N,unconnected-(U1-Pad35)*%
X40402400Y-18835400D03*
%TO.P,U1,36*%
%TO.N,unconnected-(U1-Pad36)*%
X40415100Y-16295400D03*
%TO.P,U1,37*%
%TO.N,unconnected-(U1-Pad37)*%
X40402400Y-13755400D03*
%TO.P,U1,38*%
%TO.N,Net-(U1-Pad38)*%
X40389700Y-11215400D03*
%TO.P,U1,39*%
X40402400Y-8675400D03*
%TO.P,U1,40*%
X40389700Y-6135400D03*
%TO.P,U1,41*%
%TO.N,unconnected-(U1-Pad41)*%
X42942400Y-23915400D03*
%TO.P,U1,42*%
%TO.N,unconnected-(U1-Pad42)*%
X42929700Y-21375400D03*
%TO.P,U1,43*%
%TO.N,unconnected-(U1-Pad43)*%
X42942400Y-18835400D03*
%TO.P,U1,44*%
%TO.N,unconnected-(U1-Pad44)*%
X42955100Y-16295400D03*
%TO.P,U1,45*%
%TO.N,unconnected-(U1-Pad45)*%
X42942400Y-13755400D03*
%TO.P,U1,46*%
%TO.N,Net-(U1-Pad46)*%
X42929700Y-11215400D03*
%TO.P,U1,47*%
X42942400Y-8675400D03*
%TO.P,U1,48*%
X42929700Y-6135400D03*
%TO.P,U1,49*%
%TO.N,unconnected-(U1-Pad49)*%
X45482400Y-23915400D03*
%TO.P,U1,50*%
%TO.N,unconnected-(U1-Pad50)*%
X45469700Y-21375400D03*
%TO.P,U1,51*%
%TO.N,unconnected-(U1-Pad51)*%
X45482400Y-18835400D03*
%TO.P,U1,52*%
%TO.N,unconnected-(U1-Pad52)*%
X45495100Y-16295400D03*
%TO.P,U1,53*%
%TO.N,unconnected-(U1-Pad53)*%
X45482400Y-13755400D03*
%TO.P,U1,54*%
%TO.N,Net-(U1-Pad54)*%
X45469700Y-11215400D03*
%TO.P,U1,55*%
X45482400Y-8675400D03*
%TO.P,U1,56*%
X45469700Y-6135400D03*
%TO.P,U1,57*%
%TO.N,GND*%
X48022400Y-23915400D03*
%TO.P,U1,58*%
X48009700Y-21375400D03*
%TO.P,U1,59*%
X48022400Y-18835400D03*
%TO.P,U1,60*%
X48035100Y-16295400D03*
%TO.P,U1,61*%
X48022400Y-13755400D03*
%TO.P,U1,62*%
X48009700Y-11215400D03*
%TO.P,U1,63*%
X48022400Y-8675400D03*
%TO.P,U1,64*%
X48009700Y-6135400D03*
%TD*%
D10*
%TO.P,S7,1,NO*%
%TO.N,VCC*%
X49000000Y-42988000D03*
D11*
%TO.P,S7,2,NC*%
%TO.N,GND*%
X44000000Y-43238000D03*
%TO.P,S7,3,C*%
%TO.N,Net-(S7-Pad3)*%
X54000000Y-43238000D03*
D12*
%TO.P,S7,4,LED_+*%
%TO.N,/common Anode*%
X49000000Y-39338000D03*
D10*
%TO.P,S7,5,LED_-*%
%TO.N,Net-(S7-Pad5)*%
X49000000Y-50988000D03*
%TD*%
D14*
%TO.P,T2,1,1*%
%TO.N,Net-(S1-Pad5)*%
X30480000Y-31020000D03*
D15*
%TO.P,T2,2,2*%
%TO.N,Net-(S2-Pad5)*%
X33020000Y-31020000D03*
%TO.P,T2,3,3*%
%TO.N,Net-(S3-Pad5)*%
X35560000Y-31020000D03*
%TO.P,T2,4,4*%
%TO.N,Net-(S4-Pad5)*%
X38100000Y-31020000D03*
%TO.P,T2,5,5*%
%TO.N,Net-(S5-Pad5)*%
X40640000Y-31020000D03*
%TO.P,T2,6,6*%
%TO.N,Net-(S6-Pad5)*%
X43180000Y-31020000D03*
%TO.P,T2,7,7*%
%TO.N,Net-(S7-Pad5)*%
X45720000Y-31020000D03*
%TO.P,T2,8,8*%
%TO.N,Net-(S8-Pad5)*%
X48260000Y-31020000D03*
%TD*%
D14*
%TO.P,T1,1,1*%
%TO.N,GND*%
X50800000Y-31020000D03*
D15*
%TO.P,T1,2,2*%
%TO.N,VCC*%
X53340000Y-31020000D03*
%TO.P,T1,3,3*%
%TO.N,/common Anode*%
X55880000Y-31020000D03*
%TO.P,T1,4,4*%
%TO.N,Net-(BT1-Pad2)*%
X58420000Y-31020000D03*
%TO.P,T1,5,5*%
%TO.N,Net-(BT1-Pad1)*%
X60960000Y-31020000D03*
%TO.P,T1,6,6*%
%TO.N,Net-(S1-Pad2)*%
X63500000Y-31020000D03*
%TO.P,T1,7,7*%
%TO.N,Net-(S1-Pad3)*%
X66040000Y-31020000D03*
%TO.P,T1,8,8*%
%TO.N,unconnected-(T1-Pad8)*%
X68580000Y-31020000D03*
%TD*%
D10*
%TO.P,S5,1,NO*%
%TO.N,VCC*%
X9000000Y-42988000D03*
D11*
%TO.P,S5,2,NC*%
%TO.N,GND*%
X4000000Y-43238000D03*
%TO.P,S5,3,C*%
%TO.N,Net-(S5-Pad3)*%
X14000000Y-43238000D03*
D12*
%TO.P,S5,4,LED_+*%
%TO.N,/common Anode*%
X9000000Y-39338000D03*
D10*
%TO.P,S5,5,LED_-*%
%TO.N,Net-(S5-Pad5)*%
X9000000Y-50988000D03*
%TD*%
%TO.P,S2,1,NO*%
%TO.N,VCC*%
X29000000Y-73988000D03*
D11*
%TO.P,S2,2,NC*%
%TO.N,GND*%
X24000000Y-74238000D03*
%TO.P,S2,3,C*%
%TO.N,Net-(S2-Pad3)*%
X34000000Y-74238000D03*
D12*
%TO.P,S2,4,LED_+*%
%TO.N,/common Anode*%
X29000000Y-70338000D03*
D10*
%TO.P,S2,5,LED_-*%
%TO.N,Net-(S2-Pad5)*%
X29000000Y-81988000D03*
%TD*%
%TO.P,S6,1,NO*%
%TO.N,VCC*%
X29000000Y-42988000D03*
D11*
%TO.P,S6,2,NC*%
%TO.N,GND*%
X24000000Y-43238000D03*
%TO.P,S6,3,C*%
%TO.N,Net-(S6-Pad3)*%
X34000000Y-43238000D03*
D12*
%TO.P,S6,4,LED_+*%
%TO.N,/common Anode*%
X29000000Y-39338000D03*
D10*
%TO.P,S6,5,LED_-*%
%TO.N,Net-(S6-Pad5)*%
X29000000Y-50988000D03*
%TD*%
D14*
%TO.P,T3,1,1*%
%TO.N,unconnected-(T3-Pad1)*%
X10160000Y-31020000D03*
D15*
%TO.P,T3,2,2*%
%TO.N,Net-(S2-Pad3)*%
X12700000Y-31020000D03*
%TO.P,T3,3,3*%
%TO.N,Net-(S3-Pad3)*%
X15240000Y-31020000D03*
%TO.P,T3,4,4*%
%TO.N,Net-(S4-Pad3)*%
X17780000Y-31020000D03*
%TO.P,T3,5,5*%
%TO.N,Net-(S5-Pad3)*%
X20320000Y-31020000D03*
%TO.P,T3,6,6*%
%TO.N,Net-(S6-Pad3)*%
X22860000Y-31020000D03*
%TO.P,T3,7,7*%
%TO.N,Net-(S7-Pad3)*%
X25400000Y-31020000D03*
%TO.P,T3,8,8*%
%TO.N,Net-(S8-Pad3)*%
X27940000Y-31020000D03*
%TD*%
D10*
%TO.P,S3,1,NO*%
%TO.N,VCC*%
X49000000Y-73988000D03*
D11*
%TO.P,S3,2,NC*%
%TO.N,GND*%
X44000000Y-74238000D03*
%TO.P,S3,3,C*%
%TO.N,Net-(S3-Pad3)*%
X54000000Y-74238000D03*
D12*
%TO.P,S3,4,LED_+*%
%TO.N,/common Anode*%
X49000000Y-70338000D03*
D10*
%TO.P,S3,5,LED_-*%
%TO.N,Net-(S3-Pad5)*%
X49000000Y-81988000D03*
%TD*%
D16*
%TO.P,T4,1,1*%
%TO.N,Net-(BT1-Pad2)*%
X62460000Y-24000000D03*
D17*
%TO.P,T4,2,2*%
%TO.N,Net-(BT1-Pad1)*%
X65000000Y-24000000D03*
%TD*%
D18*
%TO.N,VCC*%
X17500000Y-46500000D03*
X31000000Y-79000000D03*
X19500000Y-64500000D03*
X32962511Y-45737502D03*
X42956489Y-47043511D03*
X43942000Y-38862000D03*
X51000000Y-79000000D03*
X41910000Y-45974000D03*
X13000000Y-78500000D03*
%TO.N,/common Anode*%
X14336549Y-69699951D03*
%TO.N,Net-(S1-Pad3)*%
X14710298Y-52572389D03*
X14000000Y-68000000D03*
%TO.N,Net-(S4-Pad3)*%
X8411099Y-36911099D03*
X10479400Y-57605702D03*
X12500000Y-36500000D03*
X18500000Y-57000000D03*
X10479399Y-57605702D03*
%TO.N,Net-(BT1-Pad1)*%
X12903200Y-53746400D03*
%TO.N,Net-(S1-Pad2)*%
X4267200Y-53340000D03*
%TO.N,GND*%
X12000000Y-67000000D03*
%TD*%
D19*
%TO.N,VCC*%
X51875479Y-47124521D02*
X43037499Y-47124521D01*
X43037499Y-47124521D02*
X42956489Y-47043511D01*
X17500000Y-46500000D02*
X12412978Y-46500000D01*
X41910000Y-45974000D02*
X40894000Y-44958000D01*
X40894000Y-44958000D02*
X40894000Y-41494978D01*
X31000000Y-79000000D02*
X31000000Y-75738000D01*
X51000000Y-75738000D02*
X49000000Y-73738000D01*
X42956489Y-47043511D02*
X41910000Y-45997022D01*
X31000000Y-75738000D02*
X29000000Y-73738000D01*
X30242400Y-26044000D02*
X30242400Y-23915400D01*
X23912978Y-79000000D02*
X31000000Y-79000000D01*
X49000000Y-43087022D02*
X49000000Y-42738000D01*
X9000000Y-74500000D02*
X9000000Y-73738000D01*
X63500000Y-46500000D02*
X52500000Y-46500000D01*
X52500000Y-46500000D02*
X51875479Y-47124521D01*
X65587022Y-46500000D02*
X63500000Y-46500000D01*
X67625479Y-44112521D02*
X67625479Y-44461543D01*
X13000000Y-78500000D02*
X9000000Y-74500000D01*
X52500000Y-46500000D02*
X52412978Y-46500000D01*
X19500000Y-74587022D02*
X23912978Y-79000000D01*
X52412978Y-46500000D02*
X49000000Y-43087022D01*
X40894000Y-41494978D02*
X43526978Y-38862000D01*
X12412978Y-46500000D02*
X9000000Y-43087022D01*
X9000000Y-43087022D02*
X9000000Y-42738000D01*
X41910000Y-45997022D02*
X41910000Y-45974000D01*
X52324022Y-29759296D02*
X49234726Y-26670000D01*
X49234726Y-26670000D02*
X29616400Y-26670000D01*
X43526978Y-38862000D02*
X43942000Y-38862000D01*
X53340000Y-31020000D02*
X52324022Y-30004022D01*
X69000000Y-42738000D02*
X67625479Y-44112521D01*
X51000000Y-79000000D02*
X51000000Y-75738000D01*
X52324022Y-30004022D02*
X52324022Y-29759296D01*
X29616400Y-26670000D02*
X30242400Y-26044000D01*
X67625479Y-44461543D02*
X65587022Y-46500000D01*
X19500000Y-64500000D02*
X19500000Y-74587022D01*
%TO.N,/common Anode*%
X9170800Y-70408800D02*
X13627700Y-70408800D01*
X9000000Y-70238000D02*
X9170800Y-70408800D01*
X13627700Y-70408800D02*
X14336549Y-69699951D01*
%TO.N,Net-(S1-Pad3)*%
X46375489Y-52962511D02*
X46057155Y-52644177D01*
X66361956Y-52948978D02*
X51638043Y-52948978D01*
X51638043Y-52948978D02*
X51624510Y-52962511D01*
X71624510Y-52962511D02*
X66375489Y-52962511D01*
X76033489Y-41013489D02*
X76470481Y-41013489D01*
X66040000Y-31020000D02*
X76033489Y-41013489D01*
X26100500Y-52615500D02*
X14753409Y-52615500D01*
X76470481Y-41013489D02*
X76624511Y-41167519D01*
X26447511Y-52962511D02*
X26100500Y-52615500D01*
X76624511Y-47962510D02*
X71624510Y-52962511D01*
X76624511Y-41167519D02*
X76624511Y-47962510D01*
X14753409Y-52615500D02*
X14710298Y-52572389D01*
X31973681Y-52962511D02*
X26447511Y-52962511D01*
X15061050Y-72676950D02*
X14000000Y-73738000D01*
X46057155Y-52644177D02*
X32292013Y-52644179D01*
X32292013Y-52644179D02*
X31973681Y-52962511D01*
X66375489Y-52962511D02*
X66361956Y-52948978D01*
X15061050Y-69061050D02*
X15061050Y-72676950D01*
X14000000Y-68000000D02*
X15061050Y-69061050D01*
X51624510Y-52962511D02*
X46375489Y-52962511D01*
%TO.N,Net-(S2-Pad3)*%
X7552630Y-56247950D02*
X3607734Y-56247950D01*
X1375489Y-41013489D02*
X7844956Y-34544022D01*
X34000000Y-73738000D02*
X34000000Y-70738978D01*
X34000000Y-70738978D02*
X19508976Y-56247954D01*
X9820969Y-56451152D02*
X9719370Y-56552751D01*
X19508976Y-56247954D02*
X13969062Y-56247954D01*
X11420704Y-34544022D02*
X12700000Y-33264726D01*
X12700000Y-33264726D02*
X12700000Y-31020000D01*
X7857434Y-56552754D02*
X7552630Y-56247950D01*
X13969062Y-56247954D02*
X13897275Y-56319742D01*
X10765178Y-56319742D02*
X10633769Y-56451151D01*
X1744658Y-45831680D02*
X1375489Y-45462511D01*
X1744658Y-54384874D02*
X1744658Y-45831680D01*
X13897275Y-56319742D02*
X10765178Y-56319742D01*
X3607734Y-56247950D02*
X1744658Y-54384874D01*
X1375489Y-45462511D02*
X1375489Y-41013489D01*
X10633769Y-56451151D02*
X9820969Y-56451152D01*
X9719370Y-56552751D02*
X7857434Y-56552754D01*
X7844956Y-34544022D02*
X11420704Y-34544022D01*
%TO.N,Net-(S3-Pad3)*%
X26500000Y-86000000D02*
X21500000Y-81000000D01*
X13220000Y-29000000D02*
X15240000Y-31020000D01*
X3421543Y-56697463D02*
X1295147Y-54571067D01*
X7671240Y-57002264D02*
X7366439Y-56697463D01*
X8585641Y-57002264D02*
X7671240Y-57002264D01*
X10015256Y-58494247D02*
X9590854Y-58069845D01*
X4550489Y-83686193D02*
X4550490Y-81202784D01*
X925978Y-46561682D02*
X925979Y-40827295D01*
X7658763Y-34094511D02*
X11234511Y-34094511D01*
X1295147Y-54571067D02*
X1295147Y-46930851D01*
X21500000Y-81000000D02*
X15222726Y-81000000D01*
X10944825Y-79500000D02*
X16624511Y-79500000D01*
X7366439Y-56697463D02*
X3421543Y-56697463D01*
X12000000Y-29000000D02*
X13220000Y-29000000D01*
X11234511Y-34094511D02*
X11234511Y-29765489D01*
X1295147Y-46930851D02*
X925978Y-46561682D01*
X16624511Y-65041134D02*
X10077624Y-58494247D01*
X11810704Y-84412022D02*
X5276317Y-84412021D01*
X9590854Y-58069845D02*
X9590854Y-58007477D01*
X15222726Y-81000000D02*
X11810704Y-84412022D01*
X10077624Y-58494247D02*
X10015256Y-58494247D01*
X9590854Y-58007477D02*
X8585641Y-57002264D01*
X925979Y-40827295D02*
X7658763Y-34094511D01*
X54000000Y-82222726D02*
X50222726Y-86000000D01*
X54000000Y-73738000D02*
X54000000Y-82222726D01*
X4550490Y-81202784D02*
X7628753Y-78124521D01*
X5276317Y-84412021D02*
X4550489Y-83686193D01*
X7628753Y-78124521D02*
X9569346Y-78124521D01*
X9569346Y-78124521D02*
X10944825Y-79500000D01*
X11234511Y-29765489D02*
X12000000Y-29000000D01*
X16624511Y-79500000D02*
X16624511Y-65041134D01*
X50222726Y-86000000D02*
X26500000Y-86000000D01*
%TO.N,Net-(S4-Pad3)*%
X12500000Y-36500000D02*
X8822198Y-36500000D01*
X8822198Y-36500000D02*
X8411099Y-36911099D01*
X11085102Y-57000000D02*
X10479400Y-57605702D01*
X18500000Y-57000000D02*
X11085102Y-57000000D01*
%TO.N,Net-(BT1-Pad1)*%
X12903200Y-53746400D02*
X20878800Y-53746400D01*
X12700000Y-53949600D02*
X12903200Y-53746400D01*
X5486400Y-53949600D02*
X12700000Y-53949600D01*
X77165200Y-40132000D02*
X76860400Y-40132000D01*
X70135978Y-29495978D02*
X62484022Y-29495978D01*
X20878800Y-53746400D02*
X21488400Y-54356000D01*
X65000000Y-27000000D02*
X64980000Y-27000000D01*
X64980000Y-27000000D02*
X60960000Y-31020000D01*
X76860400Y-40132000D02*
X70612000Y-33883600D01*
X70612000Y-33883600D02*
X70612000Y-29972000D01*
X65000000Y-24000000D02*
X65000000Y-27000000D01*
X62484022Y-29495978D02*
X60960000Y-31020000D01*
X71729600Y-54356000D02*
X77523533Y-48562067D01*
X77523533Y-40490333D02*
X77165200Y-40132000D01*
X70612000Y-29972000D02*
X70135978Y-29495978D01*
X77523533Y-48562067D02*
X77523533Y-40490333D01*
X21488400Y-54356000D02*
X71729600Y-54356000D01*
%TO.N,Net-(S5-Pad3)*%
X17000000Y-33000000D02*
X18340000Y-33000000D01*
X14000000Y-42738000D02*
X14000000Y-36000000D01*
X18340000Y-33000000D02*
X20320000Y-31020000D01*
X14000000Y-36000000D02*
X17000000Y-33000000D01*
%TO.N,Net-(S5-Pad5)*%
X38477456Y-46230840D02*
X38477456Y-33182544D01*
X16829415Y-50738000D02*
X18567415Y-49000000D01*
X38477456Y-33182544D02*
X40640000Y-31020000D01*
X18567415Y-49000000D02*
X35708296Y-49000000D01*
X9000000Y-50738000D02*
X16829415Y-50738000D01*
X35708296Y-49000000D02*
X38477456Y-46230840D01*
%TO.N,Net-(S6-Pad3)*%
X23934511Y-34094511D02*
X22860000Y-33020000D01*
X34000000Y-42738000D02*
X34000000Y-39738978D01*
X22860000Y-33020000D02*
X22860000Y-31020000D01*
X28355533Y-34094511D02*
X23934511Y-34094511D01*
X34000000Y-39738978D02*
X28355533Y-34094511D01*
%TO.N,Net-(S1-Pad2)*%
X70162490Y-34069794D02*
X77074022Y-40981326D01*
X26189296Y-53412022D02*
X26074163Y-53296889D01*
X70162489Y-31082900D02*
X70162490Y-34069794D01*
X77074022Y-40981326D02*
X77074022Y-48148702D01*
X63500000Y-31020000D02*
X64574511Y-29945489D01*
X26074163Y-53296889D02*
X13478289Y-53296889D01*
X66175763Y-53398489D02*
X66162230Y-53412022D01*
X12603101Y-53021899D02*
X12285000Y-53340000D01*
X13203299Y-53021899D02*
X12603101Y-53021899D01*
X71810702Y-53412022D02*
X66189296Y-53412022D01*
X13478289Y-53296889D02*
X13203299Y-53021899D01*
X66189296Y-53412022D02*
X66175763Y-53398489D01*
X4165600Y-53441600D02*
X4267200Y-53340000D01*
X12285000Y-53340000D02*
X4267200Y-53340000D01*
X77074022Y-48148702D02*
X71810702Y-53412022D01*
X64574511Y-29945489D02*
X69025078Y-29945489D01*
X69025078Y-29945489D02*
X70162489Y-31082900D01*
X66162230Y-53412022D02*
X26189296Y-53412022D01*
%TO.N,Net-(S7-Pad3)*%
X51874511Y-40612511D02*
X51874511Y-29945489D01*
X51874511Y-29945489D02*
X50929022Y-29000000D01*
X54000000Y-42738000D02*
X51874511Y-40612511D01*
X27420000Y-29000000D02*
X25400000Y-31020000D01*
X50929022Y-29000000D02*
X27420000Y-29000000D01*
%TO.N,Net-(S4-Pad5)*%
X5520194Y-52788890D02*
X5578683Y-52847379D01*
X5036890Y-53950510D02*
X4922899Y-54064501D01*
X3542699Y-53640099D02*
X3542699Y-53039901D01*
X13478289Y-54195911D02*
X13152499Y-54521701D01*
X5578683Y-52847379D02*
X6435282Y-52847379D01*
X9330193Y-54399111D02*
X8974594Y-54754710D01*
X6891794Y-54449910D02*
X5351006Y-54449910D01*
X6942594Y-54399110D02*
X6891794Y-54449910D01*
X3967101Y-54064501D02*
X3542699Y-53640099D01*
X18381222Y-48550489D02*
X35522102Y-48550490D01*
X6435282Y-52847379D02*
X6000003Y-52412100D01*
X39234607Y-54805511D02*
X21302206Y-54805510D01*
X35522102Y-48550490D02*
X38027945Y-46044647D01*
X69000000Y-81738000D02*
X66167096Y-81738000D01*
X20692607Y-54195911D02*
X13478289Y-54195911D01*
X4922899Y-52615499D02*
X5096290Y-52788890D01*
X17931711Y-49000000D02*
X18381222Y-48550489D01*
X4922899Y-54064501D02*
X3967101Y-54064501D01*
X5036889Y-54135793D02*
X5036890Y-53950510D01*
X8907006Y-54754710D02*
X8551407Y-54399111D01*
X12429711Y-54399111D02*
X9330193Y-54399111D01*
X3542699Y-53039901D02*
X3967101Y-52615499D01*
X12552301Y-54521701D02*
X12429711Y-54399111D01*
X5096290Y-52788890D02*
X5520194Y-52788890D01*
X6000000Y-49000000D02*
X17931711Y-49000000D01*
X6000003Y-52412100D02*
X6000000Y-49000000D01*
X66167096Y-81738000D02*
X39234607Y-54805511D01*
X8551407Y-54399111D02*
X6942594Y-54399110D01*
X8974594Y-54754710D02*
X8907006Y-54754710D01*
X13152499Y-54521701D02*
X12552301Y-54521701D01*
X5351006Y-54449910D02*
X5036889Y-54135793D01*
X38027945Y-46044647D02*
X38027946Y-31092054D01*
X3967101Y-52615499D02*
X4922899Y-52615499D01*
X21302206Y-54805510D02*
X20692607Y-54195911D01*
X38027946Y-31092054D02*
X38100000Y-31020000D01*
%TO.N,Net-(S8-Pad3)*%
X68969988Y-47768012D02*
X42171412Y-47768012D01*
X49334511Y-31465078D02*
X49334511Y-30574922D01*
X40275499Y-40524090D02*
X48779589Y-32020000D01*
X48705078Y-29945489D02*
X29014511Y-29945489D01*
X42171412Y-47768012D02*
X40275499Y-45872099D01*
X40275499Y-45872099D02*
X40275499Y-40524090D01*
X29014511Y-29945489D02*
X27940000Y-31020000D01*
X48779589Y-32020000D02*
X48705078Y-32094511D01*
X48779589Y-32020000D02*
X49334511Y-31465078D01*
X49334511Y-30574922D02*
X48705078Y-29945489D01*
X74000000Y-42738000D02*
X68969988Y-47768012D01*
%TO.N,Net-(S8-Pad5)*%
X66479522Y-48217522D02*
X41985218Y-48217522D01*
X69000000Y-50738000D02*
X66479522Y-48217522D01*
X39825988Y-46058292D02*
X39825988Y-39454012D01*
X41985218Y-48217522D02*
X39825988Y-46058292D01*
X39825988Y-39454012D02*
X48260000Y-31020000D01*
%TO.N,Net-(S6-Pad5)*%
X38926967Y-46417033D02*
X38926967Y-35273033D01*
X38926967Y-35273033D02*
X43180000Y-31020000D01*
X29000000Y-50738000D02*
X34606000Y-50738000D01*
X34606000Y-50738000D02*
X38926967Y-46417033D01*
%TO.N,Net-(S7-Pad5)*%
X45720000Y-31020000D02*
X39376478Y-37363522D01*
X39376478Y-46244486D02*
X43869992Y-50738000D01*
X43869992Y-50738000D02*
X49000000Y-50738000D01*
X39376478Y-37363522D02*
X39376478Y-46244486D01*
%TO.N,Net-(BT1-Pad2)*%
X62460000Y-26760000D02*
X58420000Y-30800000D01*
X58420000Y-30800000D02*
X58420000Y-31020000D01*
X62460000Y-24000000D02*
X62460000Y-26760000D01*
%TO.N,Net-(S1-Pad5)*%
X30480000Y-33020000D02*
X36624511Y-39164511D01*
X17822629Y-47201964D02*
X17800093Y-47224501D01*
X9634775Y-56001641D02*
X10447576Y-56001640D01*
X7501173Y-55747643D02*
X7688027Y-55747643D01*
X2194169Y-54198681D02*
X3793928Y-55798440D01*
X10955574Y-55798443D02*
X11921931Y-55798443D01*
X11921931Y-55798443D02*
X11993723Y-55870234D01*
X5890930Y-47201958D02*
X2194169Y-50898719D01*
X17822640Y-47201959D02*
X17822635Y-47201964D01*
X10904776Y-55849240D02*
X10955574Y-55798443D01*
X2194169Y-52481319D02*
X2194166Y-52481322D01*
X33362521Y-79724501D02*
X17035714Y-79724501D01*
X36624511Y-72034932D02*
X36624511Y-76462511D01*
X4792427Y-55798443D02*
X5164814Y-55798442D01*
X36624511Y-76462511D02*
X33362521Y-79724501D01*
X17822635Y-47201964D02*
X17822629Y-47201964D01*
X17199901Y-47224501D02*
X17177358Y-47201958D01*
X4792424Y-55798440D02*
X4792427Y-55798443D01*
X7450376Y-55798440D02*
X7501173Y-55747643D01*
X10599975Y-55849241D02*
X10904776Y-55849240D01*
X20480313Y-55890729D02*
X20480313Y-55890734D01*
X18195020Y-47201959D02*
X18195017Y-47201956D01*
X20480313Y-55890734D02*
X36624511Y-72034932D01*
X10447576Y-56001640D02*
X10599975Y-55849241D01*
X17800093Y-47224501D02*
X17199901Y-47224501D01*
X3793928Y-55798440D02*
X4792424Y-55798440D01*
X17035714Y-79724501D02*
X16810704Y-79949511D01*
X11993723Y-55870234D02*
X13711081Y-55870231D01*
X7688027Y-55747643D02*
X8043628Y-56103243D01*
X18055371Y-47201959D02*
X17822640Y-47201959D01*
X2194167Y-52853709D02*
X2194169Y-54198681D01*
X36624511Y-39164511D02*
X36624511Y-45402118D01*
X18195017Y-47201956D02*
X18055371Y-47201959D01*
X34824672Y-47201957D02*
X18195020Y-47201959D01*
X13711081Y-55870231D02*
X13782869Y-55798443D01*
X8043628Y-56103243D02*
X9533176Y-56103240D01*
X30480000Y-31020000D02*
X30480000Y-33020000D01*
X17177358Y-47201958D02*
X5890930Y-47201958D01*
X20388027Y-55798443D02*
X20480313Y-55890729D01*
X16810704Y-79949511D02*
X10788490Y-79949510D01*
X10788490Y-79949510D02*
X9000000Y-81738000D01*
X2194169Y-50898719D02*
X2194169Y-52481319D01*
X36624511Y-45402118D02*
X34824672Y-47201957D01*
X9533176Y-56103240D02*
X9634775Y-56001641D01*
X5164814Y-55798442D02*
X7450376Y-55798440D01*
X2194166Y-52481322D02*
X2194167Y-52853709D01*
X13782869Y-55798443D02*
X20388027Y-55798443D01*
%TO.N,Net-(S2-Pad5)*%
X5100978Y-48627614D02*
X5100978Y-50210214D01*
X3776923Y-55145731D02*
X4775419Y-55145731D01*
X37074021Y-76648705D02*
X31984726Y-81738000D01*
X8229820Y-55653732D02*
X9346982Y-55653730D01*
X9346982Y-55653730D02*
X9448581Y-55552131D01*
X12108122Y-55348930D02*
X12179915Y-55420723D01*
X4978620Y-55348932D02*
X7264182Y-55348930D01*
X2643679Y-54012487D02*
X3776923Y-55145731D01*
X10413781Y-55399731D02*
X10718582Y-55399730D01*
X18008835Y-47651468D02*
X17986293Y-47674011D01*
X9448581Y-55552131D02*
X10261382Y-55552130D01*
X20574220Y-55348932D02*
X37074021Y-71848733D01*
X13596676Y-55348932D02*
X20574220Y-55348932D01*
X31984726Y-81738000D02*
X29000000Y-81738000D01*
X12552302Y-55420722D02*
X13524887Y-55420721D01*
X6077124Y-47651468D02*
X5100978Y-48627614D01*
X10718582Y-55399730D02*
X10769382Y-55348930D01*
X16991165Y-47651469D02*
X6077124Y-47651468D01*
X2643677Y-52667515D02*
X2643679Y-54012487D01*
X17986293Y-47674011D02*
X17013707Y-47674011D01*
X7264182Y-55348930D02*
X7314980Y-55298132D01*
X33020000Y-31020000D02*
X37074021Y-35074021D01*
X35149716Y-47651468D02*
X18008835Y-47651468D01*
X5100978Y-50210214D02*
X2643677Y-52667515D01*
X17013707Y-47674011D02*
X16991165Y-47651469D01*
X37074021Y-35074021D02*
X37074021Y-45727163D01*
X10261382Y-55552130D02*
X10413781Y-55399731D01*
X37074021Y-45727163D02*
X35149716Y-47651468D01*
X37074021Y-71848733D02*
X37074021Y-76648705D01*
X10769382Y-55348930D02*
X12108122Y-55348930D01*
X7874220Y-55298132D02*
X8229820Y-55653732D01*
X13524887Y-55420721D02*
X13596676Y-55348932D01*
X7314980Y-55298132D02*
X7874220Y-55298132D01*
X4775419Y-55145731D02*
X4978620Y-55348932D01*
X12179915Y-55420723D02*
X12552302Y-55420722D01*
%TO.N,Net-(S3-Pad5)*%
X12243517Y-54848621D02*
X12366108Y-54971212D01*
X14627613Y-54899021D02*
X15372388Y-54899020D01*
X17273408Y-54813200D02*
X20674192Y-54813200D01*
X17207229Y-54747021D02*
X17273408Y-54813200D01*
X7128788Y-54848620D02*
X8060413Y-54848621D01*
X20674192Y-54813200D02*
X37523533Y-71662541D01*
X18195029Y-48100978D02*
X18172484Y-48123523D01*
X8416013Y-55204221D02*
X9160788Y-55204220D01*
X13338693Y-54971211D02*
X13410484Y-54899420D01*
X9313188Y-55102620D02*
X9321800Y-55094008D01*
X7077988Y-54899420D02*
X7128788Y-54848620D01*
X10227588Y-54950220D02*
X10532388Y-54950220D01*
X3780908Y-54514012D02*
X4779403Y-54514011D01*
X10633987Y-54848621D02*
X12243517Y-54848621D01*
X37523533Y-45913355D02*
X35335908Y-48100980D01*
X46015260Y-81738000D02*
X49000000Y-81738000D01*
X13410484Y-54899420D02*
X14627214Y-54899420D01*
X15372388Y-54899020D02*
X15524387Y-54747021D01*
X18172484Y-48123523D02*
X16827513Y-48123521D01*
X5282484Y-52339380D02*
X5109092Y-52165988D01*
X3780907Y-52165989D02*
X3093188Y-52853708D01*
X16827513Y-48123521D02*
X16804972Y-48100980D01*
X37523533Y-71662541D02*
X37523533Y-73246273D01*
X10075188Y-55102620D02*
X10227588Y-54950220D01*
X37523533Y-73246273D02*
X46015260Y-81738000D01*
X37523533Y-32983533D02*
X37523533Y-45913355D01*
X15524387Y-54747021D02*
X17207229Y-54747021D01*
X3093189Y-53826293D02*
X3780908Y-54514012D01*
X4779403Y-54514011D02*
X5164813Y-54899421D01*
X5164813Y-54899421D02*
X7077988Y-54899420D01*
X35335908Y-48100980D02*
X18195029Y-48100978D01*
X9321800Y-55094008D02*
X9330413Y-55102621D01*
X3093188Y-52853708D02*
X3093189Y-53826293D01*
X9160788Y-55204220D02*
X9262388Y-55102620D01*
X10532388Y-54950220D02*
X10633987Y-54848621D01*
X14627214Y-54899420D02*
X14627613Y-54899021D01*
X9262388Y-55102620D02*
X9313188Y-55102620D01*
X6263316Y-48100980D02*
X5550489Y-48813807D01*
X9330413Y-55102621D02*
X10075188Y-55102620D01*
X5550489Y-52339379D02*
X5282484Y-52339380D01*
X35560000Y-31020000D02*
X37523533Y-32983533D01*
X8060413Y-54848621D02*
X8416013Y-55204221D01*
X16804972Y-48100980D02*
X6263316Y-48100980D01*
X12366108Y-54971212D02*
X13338693Y-54971211D01*
X5550489Y-48813807D02*
X5550489Y-52339379D01*
X5109092Y-52165988D02*
X3780907Y-52165989D01*
%TO.N,GND*%
X7738978Y-67000000D02*
X4000000Y-70738978D01*
X50800000Y-33020000D02*
X45320000Y-38500000D01*
X4000000Y-70738978D02*
X4000000Y-73738000D01*
X12000000Y-67000000D02*
X7738978Y-67000000D01*
X45320000Y-41418000D02*
X44000000Y-42738000D01*
X50800000Y-33020000D02*
X50800000Y-31020000D01*
X45320000Y-38500000D02*
X45320000Y-41418000D01*
%TD*%
M02*
