%TF.GenerationSoftware,KiCad,Pcbnew,(6.0.0)*%
%TF.CreationDate,2022-11-14T01:45:54-08:00*%
%TF.ProjectId,button_pcb,62757474-6f6e-45f7-9063-622e6b696361,rev?*%
%TF.SameCoordinates,Original*%
%TF.FileFunction,Legend,Top*%
%TF.FilePolarity,Positive*%
%FSLAX46Y46*%
G04 Gerber Fmt 4.6, Leading zero omitted, Abs format (unit mm)*
G04 Created by KiCad (PCBNEW (6.0.0)) date 2022-11-14 01:45:54*
%MOMM*%
%LPD*%
G01*
G04 APERTURE LIST*
%ADD10C,1.000000*%
%ADD11C,0.150000*%
%ADD12C,0.120000*%
%ADD13C,0.100000*%
G04 APERTURE END LIST*
D10*
X25257142Y-97261904D02*
X24780952Y-97023809D01*
X24542857Y-96547619D01*
X24542857Y-92261904D01*
X29304761Y-93928571D02*
X29304761Y-97261904D01*
X27161904Y-93928571D02*
X27161904Y-96547619D01*
X27400000Y-97023809D01*
X27876190Y-97261904D01*
X28590476Y-97261904D01*
X29066666Y-97023809D01*
X29304761Y-96785714D01*
X33828571Y-97023809D02*
X33352380Y-97261904D01*
X32400000Y-97261904D01*
X31923809Y-97023809D01*
X31685714Y-96785714D01*
X31447619Y-96309523D01*
X31447619Y-94880952D01*
X31685714Y-94404761D01*
X31923809Y-94166666D01*
X32400000Y-93928571D01*
X33352380Y-93928571D01*
X33828571Y-94166666D01*
X35971428Y-97261904D02*
X35971428Y-93928571D01*
X35971428Y-92261904D02*
X35733333Y-92500000D01*
X35971428Y-92738095D01*
X36209523Y-92500000D01*
X35971428Y-92261904D01*
X35971428Y-92738095D01*
X40257142Y-97023809D02*
X39780952Y-97261904D01*
X38828571Y-97261904D01*
X38352380Y-97023809D01*
X38114285Y-96547619D01*
X38114285Y-94642857D01*
X38352380Y-94166666D01*
X38828571Y-93928571D01*
X39780952Y-93928571D01*
X40257142Y-94166666D01*
X40495238Y-94642857D01*
X40495238Y-95119047D01*
X38114285Y-95595238D01*
D11*
%TO.C,S8*%
X69238095Y-35904761D02*
X69380952Y-35952380D01*
X69619047Y-35952380D01*
X69714285Y-35904761D01*
X69761904Y-35857142D01*
X69809523Y-35761904D01*
X69809523Y-35666666D01*
X69761904Y-35571428D01*
X69714285Y-35523809D01*
X69619047Y-35476190D01*
X69428571Y-35428571D01*
X69333333Y-35380952D01*
X69285714Y-35333333D01*
X69238095Y-35238095D01*
X69238095Y-35142857D01*
X69285714Y-35047619D01*
X69333333Y-35000000D01*
X69428571Y-34952380D01*
X69666666Y-34952380D01*
X69809523Y-35000000D01*
X70380952Y-35380952D02*
X70285714Y-35333333D01*
X70238095Y-35285714D01*
X70190476Y-35190476D01*
X70190476Y-35142857D01*
X70238095Y-35047619D01*
X70285714Y-35000000D01*
X70380952Y-34952380D01*
X70571428Y-34952380D01*
X70666666Y-35000000D01*
X70714285Y-35047619D01*
X70761904Y-35142857D01*
X70761904Y-35190476D01*
X70714285Y-35285714D01*
X70666666Y-35333333D01*
X70571428Y-35380952D01*
X70380952Y-35380952D01*
X70285714Y-35428571D01*
X70238095Y-35476190D01*
X70190476Y-35571428D01*
X70190476Y-35761904D01*
X70238095Y-35857142D01*
X70285714Y-35904761D01*
X70380952Y-35952380D01*
X70571428Y-35952380D01*
X70666666Y-35904761D01*
X70714285Y-35857142D01*
X70761904Y-35761904D01*
X70761904Y-35571428D01*
X70714285Y-35476190D01*
X70666666Y-35428571D01*
X70571428Y-35380952D01*
%TO.C,H6*%
X71238095Y-20552380D02*
X71238095Y-19552380D01*
X71238095Y-20028571D02*
X71809523Y-20028571D01*
X71809523Y-20552380D02*
X71809523Y-19552380D01*
X72714285Y-19552380D02*
X72523809Y-19552380D01*
X72428571Y-19600000D01*
X72380952Y-19647619D01*
X72285714Y-19790476D01*
X72238095Y-19980952D01*
X72238095Y-20361904D01*
X72285714Y-20457142D01*
X72333333Y-20504761D01*
X72428571Y-20552380D01*
X72619047Y-20552380D01*
X72714285Y-20504761D01*
X72761904Y-20457142D01*
X72809523Y-20361904D01*
X72809523Y-20123809D01*
X72761904Y-20028571D01*
X72714285Y-19980952D01*
X72619047Y-19933333D01*
X72428571Y-19933333D01*
X72333333Y-19980952D01*
X72285714Y-20028571D01*
X72238095Y-20123809D01*
%TO.C,S1*%
X9238095Y-66904761D02*
X9380952Y-66952380D01*
X9619047Y-66952380D01*
X9714285Y-66904761D01*
X9761904Y-66857142D01*
X9809523Y-66761904D01*
X9809523Y-66666666D01*
X9761904Y-66571428D01*
X9714285Y-66523809D01*
X9619047Y-66476190D01*
X9428571Y-66428571D01*
X9333333Y-66380952D01*
X9285714Y-66333333D01*
X9238095Y-66238095D01*
X9238095Y-66142857D01*
X9285714Y-66047619D01*
X9333333Y-66000000D01*
X9428571Y-65952380D01*
X9666666Y-65952380D01*
X9809523Y-66000000D01*
X10761904Y-66952380D02*
X10190476Y-66952380D01*
X10476190Y-66952380D02*
X10476190Y-65952380D01*
X10380952Y-66095238D01*
X10285714Y-66190476D01*
X10190476Y-66238095D01*
%TO.C,H5*%
X5238095Y-20552380D02*
X5238095Y-19552380D01*
X5238095Y-20028571D02*
X5809523Y-20028571D01*
X5809523Y-20552380D02*
X5809523Y-19552380D01*
X6761904Y-19552380D02*
X6285714Y-19552380D01*
X6238095Y-20028571D01*
X6285714Y-19980952D01*
X6380952Y-19933333D01*
X6619047Y-19933333D01*
X6714285Y-19980952D01*
X6761904Y-20028571D01*
X6809523Y-20123809D01*
X6809523Y-20361904D01*
X6761904Y-20457142D01*
X6714285Y-20504761D01*
X6619047Y-20552380D01*
X6380952Y-20552380D01*
X6285714Y-20504761D01*
X6238095Y-20457142D01*
%TO.C,S4*%
X69238095Y-66904761D02*
X69380952Y-66952380D01*
X69619047Y-66952380D01*
X69714285Y-66904761D01*
X69761904Y-66857142D01*
X69809523Y-66761904D01*
X69809523Y-66666666D01*
X69761904Y-66571428D01*
X69714285Y-66523809D01*
X69619047Y-66476190D01*
X69428571Y-66428571D01*
X69333333Y-66380952D01*
X69285714Y-66333333D01*
X69238095Y-66238095D01*
X69238095Y-66142857D01*
X69285714Y-66047619D01*
X69333333Y-66000000D01*
X69428571Y-65952380D01*
X69666666Y-65952380D01*
X69809523Y-66000000D01*
X70666666Y-66285714D02*
X70666666Y-66952380D01*
X70428571Y-65904761D02*
X70190476Y-66619047D01*
X70809523Y-66619047D01*
%TO.C,H8*%
X19238095Y-81652380D02*
X19238095Y-80652380D01*
X19238095Y-81128571D02*
X19809523Y-81128571D01*
X19809523Y-81652380D02*
X19809523Y-80652380D01*
X20428571Y-81080952D02*
X20333333Y-81033333D01*
X20285714Y-80985714D01*
X20238095Y-80890476D01*
X20238095Y-80842857D01*
X20285714Y-80747619D01*
X20333333Y-80700000D01*
X20428571Y-80652380D01*
X20619047Y-80652380D01*
X20714285Y-80700000D01*
X20761904Y-80747619D01*
X20809523Y-80842857D01*
X20809523Y-80890476D01*
X20761904Y-80985714D01*
X20714285Y-81033333D01*
X20619047Y-81080952D01*
X20428571Y-81080952D01*
X20333333Y-81128571D01*
X20285714Y-81176190D01*
X20238095Y-81271428D01*
X20238095Y-81461904D01*
X20285714Y-81557142D01*
X20333333Y-81604761D01*
X20428571Y-81652380D01*
X20619047Y-81652380D01*
X20714285Y-81604761D01*
X20761904Y-81557142D01*
X20809523Y-81461904D01*
X20809523Y-81271428D01*
X20761904Y-81176190D01*
X20714285Y-81128571D01*
X20619047Y-81080952D01*
%TO.C,U1*%
X39481745Y-3087780D02*
X39481745Y-3897304D01*
X39529364Y-3992542D01*
X39576983Y-4040161D01*
X39672221Y-4087780D01*
X39862697Y-4087780D01*
X39957935Y-4040161D01*
X40005554Y-3992542D01*
X40053173Y-3897304D01*
X40053173Y-3087780D01*
X41053173Y-4087780D02*
X40481745Y-4087780D01*
X40767459Y-4087780D02*
X40767459Y-3087780D01*
X40672221Y-3230638D01*
X40576983Y-3325876D01*
X40481745Y-3373495D01*
%TO.C,connect_for_vcc_as_common_anode1*%
X77366761Y-40320857D02*
X77414380Y-40416095D01*
X77414380Y-40606571D01*
X77366761Y-40701809D01*
X77319142Y-40749428D01*
X77223904Y-40797047D01*
X76938190Y-40797047D01*
X76842952Y-40749428D01*
X76795333Y-40701809D01*
X76747714Y-40606571D01*
X76747714Y-40416095D01*
X76795333Y-40320857D01*
X77414380Y-39749428D02*
X77366761Y-39844666D01*
X77319142Y-39892285D01*
X77223904Y-39939904D01*
X76938190Y-39939904D01*
X76842952Y-39892285D01*
X76795333Y-39844666D01*
X76747714Y-39749428D01*
X76747714Y-39606571D01*
X76795333Y-39511333D01*
X76842952Y-39463714D01*
X76938190Y-39416095D01*
X77223904Y-39416095D01*
X77319142Y-39463714D01*
X77366761Y-39511333D01*
X77414380Y-39606571D01*
X77414380Y-39749428D01*
X76747714Y-38987523D02*
X77414380Y-38987523D01*
X76842952Y-38987523D02*
X76795333Y-38939904D01*
X76747714Y-38844666D01*
X76747714Y-38701809D01*
X76795333Y-38606571D01*
X76890571Y-38558952D01*
X77414380Y-38558952D01*
X76747714Y-38082761D02*
X77414380Y-38082761D01*
X76842952Y-38082761D02*
X76795333Y-38035142D01*
X76747714Y-37939904D01*
X76747714Y-37797047D01*
X76795333Y-37701809D01*
X76890571Y-37654190D01*
X77414380Y-37654190D01*
X77366761Y-36797047D02*
X77414380Y-36892285D01*
X77414380Y-37082761D01*
X77366761Y-37178000D01*
X77271523Y-37225619D01*
X76890571Y-37225619D01*
X76795333Y-37178000D01*
X76747714Y-37082761D01*
X76747714Y-36892285D01*
X76795333Y-36797047D01*
X76890571Y-36749428D01*
X76985809Y-36749428D01*
X77081047Y-37225619D01*
X77366761Y-35892285D02*
X77414380Y-35987523D01*
X77414380Y-36178000D01*
X77366761Y-36273238D01*
X77319142Y-36320857D01*
X77223904Y-36368476D01*
X76938190Y-36368476D01*
X76842952Y-36320857D01*
X76795333Y-36273238D01*
X76747714Y-36178000D01*
X76747714Y-35987523D01*
X76795333Y-35892285D01*
X76747714Y-35606571D02*
X76747714Y-35225619D01*
X76414380Y-35463714D02*
X77271523Y-35463714D01*
X77366761Y-35416095D01*
X77414380Y-35320857D01*
X77414380Y-35225619D01*
X77509619Y-35130380D02*
X77509619Y-34368476D01*
X76747714Y-34273238D02*
X76747714Y-33892285D01*
X77414380Y-34130380D02*
X76557238Y-34130380D01*
X76462000Y-34082761D01*
X76414380Y-33987523D01*
X76414380Y-33892285D01*
X77414380Y-33416095D02*
X77366761Y-33511333D01*
X77319142Y-33558952D01*
X77223904Y-33606571D01*
X76938190Y-33606571D01*
X76842952Y-33558952D01*
X76795333Y-33511333D01*
X76747714Y-33416095D01*
X76747714Y-33273238D01*
X76795333Y-33178000D01*
X76842952Y-33130380D01*
X76938190Y-33082761D01*
X77223904Y-33082761D01*
X77319142Y-33130380D01*
X77366761Y-33178000D01*
X77414380Y-33273238D01*
X77414380Y-33416095D01*
X77414380Y-32654190D02*
X76747714Y-32654190D01*
X76938190Y-32654190D02*
X76842952Y-32606571D01*
X76795333Y-32558952D01*
X76747714Y-32463714D01*
X76747714Y-32368476D01*
X77509619Y-32273238D02*
X77509619Y-31511333D01*
X76747714Y-31368476D02*
X77414380Y-31130380D01*
X76747714Y-30892285D01*
X77366761Y-30082761D02*
X77414380Y-30178000D01*
X77414380Y-30368476D01*
X77366761Y-30463714D01*
X77319142Y-30511333D01*
X77223904Y-30558952D01*
X76938190Y-30558952D01*
X76842952Y-30511333D01*
X76795333Y-30463714D01*
X76747714Y-30368476D01*
X76747714Y-30178000D01*
X76795333Y-30082761D01*
X77366761Y-29225619D02*
X77414380Y-29320857D01*
X77414380Y-29511333D01*
X77366761Y-29606571D01*
X77319142Y-29654190D01*
X77223904Y-29701809D01*
X76938190Y-29701809D01*
X76842952Y-29654190D01*
X76795333Y-29606571D01*
X76747714Y-29511333D01*
X76747714Y-29320857D01*
X76795333Y-29225619D01*
X77509619Y-29035142D02*
X77509619Y-28273238D01*
X77414380Y-27606571D02*
X76890571Y-27606571D01*
X76795333Y-27654190D01*
X76747714Y-27749428D01*
X76747714Y-27939904D01*
X76795333Y-28035142D01*
X77366761Y-27606571D02*
X77414380Y-27701809D01*
X77414380Y-27939904D01*
X77366761Y-28035142D01*
X77271523Y-28082761D01*
X77176285Y-28082761D01*
X77081047Y-28035142D01*
X77033428Y-27939904D01*
X77033428Y-27701809D01*
X76985809Y-27606571D01*
X77366761Y-27178000D02*
X77414380Y-27082761D01*
X77414380Y-26892285D01*
X77366761Y-26797047D01*
X77271523Y-26749428D01*
X77223904Y-26749428D01*
X77128666Y-26797047D01*
X77081047Y-26892285D01*
X77081047Y-27035142D01*
X77033428Y-27130380D01*
X76938190Y-27178000D01*
X76890571Y-27178000D01*
X76795333Y-27130380D01*
X76747714Y-27035142D01*
X76747714Y-26892285D01*
X76795333Y-26797047D01*
X77509619Y-26558952D02*
X77509619Y-25797047D01*
X77366761Y-25130380D02*
X77414380Y-25225619D01*
X77414380Y-25416095D01*
X77366761Y-25511333D01*
X77319142Y-25558952D01*
X77223904Y-25606571D01*
X76938190Y-25606571D01*
X76842952Y-25558952D01*
X76795333Y-25511333D01*
X76747714Y-25416095D01*
X76747714Y-25225619D01*
X76795333Y-25130380D01*
X77414380Y-24558952D02*
X77366761Y-24654190D01*
X77319142Y-24701809D01*
X77223904Y-24749428D01*
X76938190Y-24749428D01*
X76842952Y-24701809D01*
X76795333Y-24654190D01*
X76747714Y-24558952D01*
X76747714Y-24416095D01*
X76795333Y-24320857D01*
X76842952Y-24273238D01*
X76938190Y-24225619D01*
X77223904Y-24225619D01*
X77319142Y-24273238D01*
X77366761Y-24320857D01*
X77414380Y-24416095D01*
X77414380Y-24558952D01*
X77414380Y-23797047D02*
X76747714Y-23797047D01*
X76842952Y-23797047D02*
X76795333Y-23749428D01*
X76747714Y-23654190D01*
X76747714Y-23511333D01*
X76795333Y-23416095D01*
X76890571Y-23368476D01*
X77414380Y-23368476D01*
X76890571Y-23368476D02*
X76795333Y-23320857D01*
X76747714Y-23225619D01*
X76747714Y-23082761D01*
X76795333Y-22987523D01*
X76890571Y-22939904D01*
X77414380Y-22939904D01*
X77414380Y-22463714D02*
X76747714Y-22463714D01*
X76842952Y-22463714D02*
X76795333Y-22416095D01*
X76747714Y-22320857D01*
X76747714Y-22178000D01*
X76795333Y-22082761D01*
X76890571Y-22035142D01*
X77414380Y-22035142D01*
X76890571Y-22035142D02*
X76795333Y-21987523D01*
X76747714Y-21892285D01*
X76747714Y-21749428D01*
X76795333Y-21654190D01*
X76890571Y-21606571D01*
X77414380Y-21606571D01*
X77414380Y-20987523D02*
X77366761Y-21082761D01*
X77319142Y-21130380D01*
X77223904Y-21178000D01*
X76938190Y-21178000D01*
X76842952Y-21130380D01*
X76795333Y-21082761D01*
X76747714Y-20987523D01*
X76747714Y-20844666D01*
X76795333Y-20749428D01*
X76842952Y-20701809D01*
X76938190Y-20654190D01*
X77223904Y-20654190D01*
X77319142Y-20701809D01*
X77366761Y-20749428D01*
X77414380Y-20844666D01*
X77414380Y-20987523D01*
X76747714Y-20225619D02*
X77414380Y-20225619D01*
X76842952Y-20225619D02*
X76795333Y-20178000D01*
X76747714Y-20082761D01*
X76747714Y-19939904D01*
X76795333Y-19844666D01*
X76890571Y-19797047D01*
X77414380Y-19797047D01*
X77509619Y-19558952D02*
X77509619Y-18797047D01*
X77414380Y-18130380D02*
X76890571Y-18130380D01*
X76795333Y-18178000D01*
X76747714Y-18273238D01*
X76747714Y-18463714D01*
X76795333Y-18558952D01*
X77366761Y-18130380D02*
X77414380Y-18225619D01*
X77414380Y-18463714D01*
X77366761Y-18558952D01*
X77271523Y-18606571D01*
X77176285Y-18606571D01*
X77081047Y-18558952D01*
X77033428Y-18463714D01*
X77033428Y-18225619D01*
X76985809Y-18130380D01*
X76747714Y-17654190D02*
X77414380Y-17654190D01*
X76842952Y-17654190D02*
X76795333Y-17606571D01*
X76747714Y-17511333D01*
X76747714Y-17368476D01*
X76795333Y-17273238D01*
X76890571Y-17225619D01*
X77414380Y-17225619D01*
X77414380Y-16606571D02*
X77366761Y-16701809D01*
X77319142Y-16749428D01*
X77223904Y-16797047D01*
X76938190Y-16797047D01*
X76842952Y-16749428D01*
X76795333Y-16701809D01*
X76747714Y-16606571D01*
X76747714Y-16463714D01*
X76795333Y-16368476D01*
X76842952Y-16320857D01*
X76938190Y-16273238D01*
X77223904Y-16273238D01*
X77319142Y-16320857D01*
X77366761Y-16368476D01*
X77414380Y-16463714D01*
X77414380Y-16606571D01*
X77414380Y-15416095D02*
X76414380Y-15416095D01*
X77366761Y-15416095D02*
X77414380Y-15511333D01*
X77414380Y-15701809D01*
X77366761Y-15797047D01*
X77319142Y-15844666D01*
X77223904Y-15892285D01*
X76938190Y-15892285D01*
X76842952Y-15844666D01*
X76795333Y-15797047D01*
X76747714Y-15701809D01*
X76747714Y-15511333D01*
X76795333Y-15416095D01*
X77366761Y-14558952D02*
X77414380Y-14654190D01*
X77414380Y-14844666D01*
X77366761Y-14939904D01*
X77271523Y-14987523D01*
X76890571Y-14987523D01*
X76795333Y-14939904D01*
X76747714Y-14844666D01*
X76747714Y-14654190D01*
X76795333Y-14558952D01*
X76890571Y-14511333D01*
X76985809Y-14511333D01*
X77081047Y-14987523D01*
X77414380Y-13558952D02*
X77414380Y-14130380D01*
X77414380Y-13844666D02*
X76414380Y-13844666D01*
X76557238Y-13939904D01*
X76652476Y-14035142D01*
X76700095Y-14130380D01*
%TO.C,S7*%
X49238095Y-35904761D02*
X49380952Y-35952380D01*
X49619047Y-35952380D01*
X49714285Y-35904761D01*
X49761904Y-35857142D01*
X49809523Y-35761904D01*
X49809523Y-35666666D01*
X49761904Y-35571428D01*
X49714285Y-35523809D01*
X49619047Y-35476190D01*
X49428571Y-35428571D01*
X49333333Y-35380952D01*
X49285714Y-35333333D01*
X49238095Y-35238095D01*
X49238095Y-35142857D01*
X49285714Y-35047619D01*
X49333333Y-35000000D01*
X49428571Y-34952380D01*
X49666666Y-34952380D01*
X49809523Y-35000000D01*
X50142857Y-34952380D02*
X50809523Y-34952380D01*
X50380952Y-35952380D01*
%TO.C,T2*%
X38608095Y-32972380D02*
X39179523Y-32972380D01*
X38893809Y-33972380D02*
X38893809Y-32972380D01*
X39465238Y-33067619D02*
X39512857Y-33020000D01*
X39608095Y-32972380D01*
X39846190Y-32972380D01*
X39941428Y-33020000D01*
X39989047Y-33067619D01*
X40036666Y-33162857D01*
X40036666Y-33258095D01*
X39989047Y-33400952D01*
X39417619Y-33972380D01*
X40036666Y-33972380D01*
%TO.C,H4*%
X5238095Y-56152380D02*
X5238095Y-55152380D01*
X5238095Y-55628571D02*
X5809523Y-55628571D01*
X5809523Y-56152380D02*
X5809523Y-55152380D01*
X6714285Y-55485714D02*
X6714285Y-56152380D01*
X6476190Y-55104761D02*
X6238095Y-55819047D01*
X6857142Y-55819047D01*
%TO.C,T1*%
X58928095Y-32972380D02*
X59499523Y-32972380D01*
X59213809Y-33972380D02*
X59213809Y-32972380D01*
X60356666Y-33972380D02*
X59785238Y-33972380D01*
X60070952Y-33972380D02*
X60070952Y-32972380D01*
X59975714Y-33115238D01*
X59880476Y-33210476D01*
X59785238Y-33258095D01*
%TO.C,S5*%
X9238095Y-35904761D02*
X9380952Y-35952380D01*
X9619047Y-35952380D01*
X9714285Y-35904761D01*
X9761904Y-35857142D01*
X9809523Y-35761904D01*
X9809523Y-35666666D01*
X9761904Y-35571428D01*
X9714285Y-35523809D01*
X9619047Y-35476190D01*
X9428571Y-35428571D01*
X9333333Y-35380952D01*
X9285714Y-35333333D01*
X9238095Y-35238095D01*
X9238095Y-35142857D01*
X9285714Y-35047619D01*
X9333333Y-35000000D01*
X9428571Y-34952380D01*
X9666666Y-34952380D01*
X9809523Y-35000000D01*
X10714285Y-34952380D02*
X10238095Y-34952380D01*
X10190476Y-35428571D01*
X10238095Y-35380952D01*
X10333333Y-35333333D01*
X10571428Y-35333333D01*
X10666666Y-35380952D01*
X10714285Y-35428571D01*
X10761904Y-35523809D01*
X10761904Y-35761904D01*
X10714285Y-35857142D01*
X10666666Y-35904761D01*
X10571428Y-35952380D01*
X10333333Y-35952380D01*
X10238095Y-35904761D01*
X10190476Y-35857142D01*
%TO.C,S2*%
X29238095Y-66904761D02*
X29380952Y-66952380D01*
X29619047Y-66952380D01*
X29714285Y-66904761D01*
X29761904Y-66857142D01*
X29809523Y-66761904D01*
X29809523Y-66666666D01*
X29761904Y-66571428D01*
X29714285Y-66523809D01*
X29619047Y-66476190D01*
X29428571Y-66428571D01*
X29333333Y-66380952D01*
X29285714Y-66333333D01*
X29238095Y-66238095D01*
X29238095Y-66142857D01*
X29285714Y-66047619D01*
X29333333Y-66000000D01*
X29428571Y-65952380D01*
X29666666Y-65952380D01*
X29809523Y-66000000D01*
X30190476Y-66047619D02*
X30238095Y-66000000D01*
X30333333Y-65952380D01*
X30571428Y-65952380D01*
X30666666Y-66000000D01*
X30714285Y-66047619D01*
X30761904Y-66142857D01*
X30761904Y-66238095D01*
X30714285Y-66380952D01*
X30142857Y-66952380D01*
X30761904Y-66952380D01*
%TO.C,S6*%
X29238095Y-35904761D02*
X29380952Y-35952380D01*
X29619047Y-35952380D01*
X29714285Y-35904761D01*
X29761904Y-35857142D01*
X29809523Y-35761904D01*
X29809523Y-35666666D01*
X29761904Y-35571428D01*
X29714285Y-35523809D01*
X29619047Y-35476190D01*
X29428571Y-35428571D01*
X29333333Y-35380952D01*
X29285714Y-35333333D01*
X29238095Y-35238095D01*
X29238095Y-35142857D01*
X29285714Y-35047619D01*
X29333333Y-35000000D01*
X29428571Y-34952380D01*
X29666666Y-34952380D01*
X29809523Y-35000000D01*
X30666666Y-34952380D02*
X30476190Y-34952380D01*
X30380952Y-35000000D01*
X30333333Y-35047619D01*
X30238095Y-35190476D01*
X30190476Y-35380952D01*
X30190476Y-35761904D01*
X30238095Y-35857142D01*
X30285714Y-35904761D01*
X30380952Y-35952380D01*
X30571428Y-35952380D01*
X30666666Y-35904761D01*
X30714285Y-35857142D01*
X30761904Y-35761904D01*
X30761904Y-35523809D01*
X30714285Y-35428571D01*
X30666666Y-35380952D01*
X30571428Y-35333333D01*
X30380952Y-35333333D01*
X30285714Y-35380952D01*
X30238095Y-35428571D01*
X30190476Y-35523809D01*
%TO.C,T3*%
X6540395Y-30817380D02*
X7111823Y-30817380D01*
X6826109Y-31817380D02*
X6826109Y-30817380D01*
X7349919Y-30817380D02*
X7968966Y-30817380D01*
X7635633Y-31198333D01*
X7778490Y-31198333D01*
X7873728Y-31245952D01*
X7921347Y-31293571D01*
X7968966Y-31388809D01*
X7968966Y-31626904D01*
X7921347Y-31722142D01*
X7873728Y-31769761D01*
X7778490Y-31817380D01*
X7492776Y-31817380D01*
X7397538Y-31769761D01*
X7349919Y-31722142D01*
%TO.C,S3*%
X49238095Y-66904761D02*
X49380952Y-66952380D01*
X49619047Y-66952380D01*
X49714285Y-66904761D01*
X49761904Y-66857142D01*
X49809523Y-66761904D01*
X49809523Y-66666666D01*
X49761904Y-66571428D01*
X49714285Y-66523809D01*
X49619047Y-66476190D01*
X49428571Y-66428571D01*
X49333333Y-66380952D01*
X49285714Y-66333333D01*
X49238095Y-66238095D01*
X49238095Y-66142857D01*
X49285714Y-66047619D01*
X49333333Y-66000000D01*
X49428571Y-65952380D01*
X49666666Y-65952380D01*
X49809523Y-66000000D01*
X50142857Y-65952380D02*
X50761904Y-65952380D01*
X50428571Y-66333333D01*
X50571428Y-66333333D01*
X50666666Y-66380952D01*
X50714285Y-66428571D01*
X50761904Y-66523809D01*
X50761904Y-66761904D01*
X50714285Y-66857142D01*
X50666666Y-66904761D01*
X50571428Y-66952380D01*
X50285714Y-66952380D01*
X50190476Y-66904761D01*
X50142857Y-66857142D01*
%TO.C,T4*%
X64238095Y-25952380D02*
X64809523Y-25952380D01*
X64523809Y-26952380D02*
X64523809Y-25952380D01*
X65571428Y-26285714D02*
X65571428Y-26952380D01*
X65333333Y-25904761D02*
X65095238Y-26619047D01*
X65714285Y-26619047D01*
%TO.C,H1*%
X5238095Y-1152380D02*
X5238095Y-152380D01*
X5238095Y-628571D02*
X5809523Y-628571D01*
X5809523Y-1152380D02*
X5809523Y-152380D01*
X6809523Y-1152380D02*
X6238095Y-1152380D01*
X6523809Y-1152380D02*
X6523809Y-152380D01*
X6428571Y-295238D01*
X6333333Y-390476D01*
X6238095Y-438095D01*
%TO.C,H3*%
X71238095Y-56152380D02*
X71238095Y-55152380D01*
X71238095Y-55628571D02*
X71809523Y-55628571D01*
X71809523Y-56152380D02*
X71809523Y-55152380D01*
X72190476Y-55152380D02*
X72809523Y-55152380D01*
X72476190Y-55533333D01*
X72619047Y-55533333D01*
X72714285Y-55580952D01*
X72761904Y-55628571D01*
X72809523Y-55723809D01*
X72809523Y-55961904D01*
X72761904Y-56057142D01*
X72714285Y-56104761D01*
X72619047Y-56152380D01*
X72333333Y-56152380D01*
X72238095Y-56104761D01*
X72190476Y-56057142D01*
%TO.C,H2*%
X71238095Y-1152380D02*
X71238095Y-152380D01*
X71238095Y-628571D02*
X71809523Y-628571D01*
X71809523Y-1152380D02*
X71809523Y-152380D01*
X72238095Y-247619D02*
X72285714Y-200000D01*
X72380952Y-152380D01*
X72619047Y-152380D01*
X72714285Y-200000D01*
X72761904Y-247619D01*
X72809523Y-342857D01*
X72809523Y-438095D01*
X72761904Y-580952D01*
X72190476Y-1152380D01*
X72809523Y-1152380D01*
%TO.C,H7*%
X57238095Y-81652380D02*
X57238095Y-80652380D01*
X57238095Y-81128571D02*
X57809523Y-81128571D01*
X57809523Y-81652380D02*
X57809523Y-80652380D01*
X58190476Y-80652380D02*
X58857142Y-80652380D01*
X58428571Y-81652380D01*
D12*
%TO.C,S8*%
X78000000Y-34000000D02*
X78000000Y-58000000D01*
X78000000Y-33000000D02*
X78000000Y-34000000D01*
X60000000Y-33000000D02*
X60000000Y-34000000D01*
X78000000Y-58000000D02*
X60000000Y-58000000D01*
X60000000Y-33000000D02*
X78000000Y-33000000D01*
X60000000Y-58000000D02*
X60000000Y-34000000D01*
X76500000Y-45750000D02*
G75*
G03*
X76500000Y-45750000I-7500000J0D01*
G01*
X70001249Y-45750000D02*
G75*
G03*
X70001249Y-45750000I-1001249J0D01*
G01*
%TO.C,S1*%
X0Y-89000000D02*
X0Y-65000000D01*
X0Y-64000000D02*
X0Y-65000000D01*
X0Y-64000000D02*
X18000000Y-64000000D01*
X18000000Y-89000000D02*
X0Y-89000000D01*
X18000000Y-65000000D02*
X18000000Y-89000000D01*
X18000000Y-64000000D02*
X18000000Y-65000000D01*
X10001249Y-76750000D02*
G75*
G03*
X10001249Y-76750000I-1001249J0D01*
G01*
X16500000Y-76750000D02*
G75*
G03*
X16500000Y-76750000I-7500000J0D01*
G01*
%TO.C,S4*%
X78000000Y-89000000D02*
X60000000Y-89000000D01*
X60000000Y-64000000D02*
X78000000Y-64000000D01*
X60000000Y-89000000D02*
X60000000Y-65000000D01*
X78000000Y-65000000D02*
X78000000Y-89000000D01*
X60000000Y-64000000D02*
X60000000Y-65000000D01*
X78000000Y-64000000D02*
X78000000Y-65000000D01*
X76500000Y-76750000D02*
G75*
G03*
X76500000Y-76750000I-7500000J0D01*
G01*
X70001249Y-76750000D02*
G75*
G03*
X70001249Y-76750000I-1001249J0D01*
G01*
D13*
%TO.C,connect_for_vcc_as_common_anode1*%
X75400000Y-34000000D02*
X75400000Y-33500000D01*
X75400000Y-34000000D02*
X75400000Y-34500000D01*
X74200000Y-36600000D02*
X74800000Y-36600000D01*
X73600000Y-34000000D02*
X73600000Y-33500000D01*
X73600000Y-34000000D02*
X73600000Y-34500000D01*
X74200000Y-31400000D02*
X74800000Y-31400000D01*
D12*
%TO.C,S7*%
X58000000Y-58000000D02*
X40000000Y-58000000D01*
X40000000Y-33000000D02*
X58000000Y-33000000D01*
X40000000Y-58000000D02*
X40000000Y-34000000D01*
X40000000Y-33000000D02*
X40000000Y-34000000D01*
X58000000Y-33000000D02*
X58000000Y-34000000D01*
X58000000Y-34000000D02*
X58000000Y-58000000D01*
X50001249Y-45750000D02*
G75*
G03*
X50001249Y-45750000I-1001249J0D01*
G01*
X56500000Y-45750000D02*
G75*
G03*
X56500000Y-45750000I-7500000J0D01*
G01*
%TO.C,T2*%
X29380000Y-32520000D02*
X29380000Y-29520000D01*
X29380000Y-29520000D02*
X49360000Y-29520000D01*
X49360000Y-32520000D02*
X29380000Y-32520000D01*
X49360000Y-29520000D02*
X49360000Y-32520000D01*
X31750000Y-29520000D02*
X31750000Y-32520000D01*
%TO.C,T1*%
X49700000Y-29520000D02*
X69680000Y-29520000D01*
X69680000Y-29520000D02*
X69680000Y-32520000D01*
X52070000Y-29520000D02*
X52070000Y-32520000D01*
X49700000Y-32520000D02*
X49700000Y-29520000D01*
X69680000Y-32520000D02*
X49700000Y-32520000D01*
%TO.C,S5*%
X18000000Y-58000000D02*
X0Y-58000000D01*
X0Y-58000000D02*
X0Y-34000000D01*
X0Y-33000000D02*
X18000000Y-33000000D01*
X18000000Y-34000000D02*
X18000000Y-58000000D01*
X18000000Y-33000000D02*
X18000000Y-34000000D01*
X0Y-33000000D02*
X0Y-34000000D01*
X10001249Y-45750000D02*
G75*
G03*
X10001249Y-45750000I-1001249J0D01*
G01*
X16500000Y-45750000D02*
G75*
G03*
X16500000Y-45750000I-7500000J0D01*
G01*
%TO.C,S2*%
X20000000Y-64000000D02*
X20000000Y-65000000D01*
X20000000Y-64000000D02*
X38000000Y-64000000D01*
X38000000Y-65000000D02*
X38000000Y-89000000D01*
X38000000Y-64000000D02*
X38000000Y-65000000D01*
X20000000Y-89000000D02*
X20000000Y-65000000D01*
X38000000Y-89000000D02*
X20000000Y-89000000D01*
X30001249Y-76750000D02*
G75*
G03*
X30001249Y-76750000I-1001249J0D01*
G01*
X36500000Y-76750000D02*
G75*
G03*
X36500000Y-76750000I-7500000J0D01*
G01*
%TO.C,S6*%
X38000000Y-33000000D02*
X38000000Y-34000000D01*
X38000000Y-58000000D02*
X20000000Y-58000000D01*
X20000000Y-58000000D02*
X20000000Y-34000000D01*
X38000000Y-34000000D02*
X38000000Y-58000000D01*
X20000000Y-33000000D02*
X38000000Y-33000000D01*
X20000000Y-33000000D02*
X20000000Y-34000000D01*
X36500000Y-45750000D02*
G75*
G03*
X36500000Y-45750000I-7500000J0D01*
G01*
X30001249Y-45750000D02*
G75*
G03*
X30001249Y-45750000I-1001249J0D01*
G01*
%TO.C,T3*%
X29040000Y-29520000D02*
X29040000Y-32520000D01*
X9060000Y-29520000D02*
X29040000Y-29520000D01*
X9060000Y-32520000D02*
X9060000Y-29520000D01*
X11430000Y-29520000D02*
X11430000Y-32520000D01*
X29040000Y-32520000D02*
X9060000Y-32520000D01*
%TO.C,S3*%
X40000000Y-64000000D02*
X58000000Y-64000000D01*
X40000000Y-89000000D02*
X40000000Y-65000000D01*
X40000000Y-64000000D02*
X40000000Y-65000000D01*
X58000000Y-89000000D02*
X40000000Y-89000000D01*
X58000000Y-64000000D02*
X58000000Y-65000000D01*
X58000000Y-65000000D02*
X58000000Y-89000000D01*
X50001249Y-76750000D02*
G75*
G03*
X50001249Y-76750000I-1001249J0D01*
G01*
X56500000Y-76750000D02*
G75*
G03*
X56500000Y-76750000I-7500000J0D01*
G01*
%TO.C,T4*%
X61825000Y-22500000D02*
X65914400Y-22500000D01*
X65939800Y-25500000D02*
X61825000Y-25500000D01*
%TD*%
M02*
