%TF.GenerationSoftware,KiCad,Pcbnew,(6.0.0)*%
%TF.CreationDate,2022-11-14T01:45:54-08:00*%
%TF.ProjectId,button_pcb,62757474-6f6e-45f7-9063-622e6b696361,rev?*%
%TF.SameCoordinates,Original*%
%TF.FileFunction,Copper,L1,Top*%
%TF.FilePolarity,Positive*%
%FSLAX46Y46*%
G04 Gerber Fmt 4.6, Leading zero omitted, Abs format (unit mm)*
G04 Created by KiCad (PCBNEW (6.0.0)) date 2022-11-14 01:45:54*
%MOMM*%
%LPD*%
G01*
G04 APERTURE LIST*
G04 Aperture macros list*
%AMFreePoly0*
4,1,21,0.785355,0.935355,0.800000,0.900000,0.800000,0.600000,1.450000,0.600000,1.485355,0.585355,1.500000,0.550000,1.500000,-0.550000,1.485355,-0.585355,1.450000,-0.600000,0.800000,-0.600000,0.800000,-0.900000,0.785355,-0.935355,0.750000,-0.950000,-0.750000,-0.950000,-0.785355,-0.935355,-0.800000,-0.900000,-0.800000,0.900000,-0.785355,0.935355,-0.750000,0.950000,0.750000,0.950000,
0.785355,0.935355,0.785355,0.935355,$1*%
%AMFreePoly1*
4,1,21,0.785355,0.935355,0.800000,0.900000,0.800000,-0.900000,0.785355,-0.935355,0.750000,-0.950000,-0.750000,-0.950000,-0.785355,-0.935355,-0.800000,-0.900000,-0.800000,-0.600000,-1.450000,-0.600000,-1.485355,-0.585355,-1.500000,-0.550000,-1.500000,0.550000,-1.485355,0.585355,-1.450000,0.600000,-0.800000,0.600000,-0.800000,0.900000,-0.785355,0.935355,-0.750000,0.950000,0.750000,0.950000,
0.785355,0.935355,0.785355,0.935355,$1*%
G04 Aperture macros list end*
%ADD10C,1.000000*%
%TA.AperFunction,NonConductor*%
%ADD11C,1.000000*%
%TD*%
%TA.AperFunction,ComponentPad*%
%ADD12R,4.600000X3.300000*%
%TD*%
%TA.AperFunction,ComponentPad*%
%ADD13R,4.600000X3.800000*%
%TD*%
%TA.AperFunction,ComponentPad*%
%ADD14R,4.800000X3.100000*%
%TD*%
%TA.AperFunction,ComponentPad*%
%ADD15O,2.000000X2.000000*%
%TD*%
%TA.AperFunction,SMDPad,CuDef*%
%ADD16FreePoly0,90.000000*%
%TD*%
%TA.AperFunction,SMDPad,CuDef*%
%ADD17FreePoly1,90.000000*%
%TD*%
%TA.AperFunction,ComponentPad*%
%ADD18R,1.500000X1.500000*%
%TD*%
%TA.AperFunction,ComponentPad*%
%ADD19C,1.500000*%
%TD*%
%TA.AperFunction,ComponentPad*%
%ADD20R,1.200000X2.000000*%
%TD*%
%TA.AperFunction,ComponentPad*%
%ADD21O,1.200000X2.000000*%
%TD*%
%TA.AperFunction,ViaPad*%
%ADD22C,0.800000*%
%TD*%
%TA.AperFunction,Conductor*%
%ADD23C,0.250000*%
%TD*%
G04 APERTURE END LIST*
D10*
D11*
X42642857Y-97261904D02*
X42642857Y-92261904D01*
X42642857Y-94166666D02*
X43119047Y-93928571D01*
X44071428Y-93928571D01*
X44547619Y-94166666D01*
X44785714Y-94404761D01*
X45023809Y-94880952D01*
X45023809Y-96309523D01*
X44785714Y-96785714D01*
X44547619Y-97023809D01*
X44071428Y-97261904D01*
X43119047Y-97261904D01*
X42642857Y-97023809D01*
X47880952Y-97261904D02*
X47404761Y-97023809D01*
X47166666Y-96785714D01*
X46928571Y-96309523D01*
X46928571Y-94880952D01*
X47166666Y-94404761D01*
X47404761Y-94166666D01*
X47880952Y-93928571D01*
X48595238Y-93928571D01*
X49071428Y-94166666D01*
X49309523Y-94404761D01*
X49547619Y-94880952D01*
X49547619Y-96309523D01*
X49309523Y-96785714D01*
X49071428Y-97023809D01*
X48595238Y-97261904D01*
X47880952Y-97261904D01*
X51214285Y-97261904D02*
X53833333Y-93928571D01*
X51214285Y-93928571D02*
X53833333Y-97261904D01*
D12*
%TO.P,S8,1,NO*%
%TO.N,VCC*%
X69000000Y-42988000D03*
D13*
%TO.P,S8,2,NC*%
%TO.N,GND*%
X64000000Y-43238000D03*
%TO.P,S8,3,C*%
%TO.N,Net-(S8-Pad3)*%
X74000000Y-43238000D03*
D14*
%TO.P,S8,4,LED_+*%
%TO.N,/common Anode*%
X69000000Y-39338000D03*
D12*
%TO.P,S8,5,LED_-*%
%TO.N,Net-(S8-Pad5)*%
X69000000Y-50988000D03*
%TD*%
%TO.P,S1,1,NO*%
%TO.N,Net-(BT1-Pad1)*%
X9000000Y-73988000D03*
D13*
%TO.P,S1,2,NC*%
%TO.N,Net-(S1-Pad2)*%
X4000000Y-74238000D03*
%TO.P,S1,3,C*%
%TO.N,Net-(S1-Pad3)*%
X14000000Y-74238000D03*
D14*
%TO.P,S1,4,LED_+*%
%TO.N,/common Anode*%
X9000000Y-70338000D03*
D12*
%TO.P,S1,5,LED_-*%
%TO.N,Net-(S1-Pad5)*%
X9000000Y-81988000D03*
%TD*%
%TO.P,S4,1,NO*%
%TO.N,VCC*%
X69000000Y-73988000D03*
D13*
%TO.P,S4,2,NC*%
%TO.N,GND*%
X64000000Y-74238000D03*
%TO.P,S4,3,C*%
%TO.N,Net-(S4-Pad3)*%
X74000000Y-74238000D03*
D14*
%TO.P,S4,4,LED_+*%
%TO.N,/common Anode*%
X69000000Y-70338000D03*
D12*
%TO.P,S4,5,LED_-*%
%TO.N,Net-(S4-Pad5)*%
X69000000Y-81988000D03*
%TD*%
D15*
%TO.P,U1,1*%
%TO.N,VCC*%
X30242400Y-23915400D03*
%TO.P,U1,2*%
X30229700Y-21375400D03*
%TO.P,U1,3*%
X30242400Y-18835400D03*
%TO.P,U1,4*%
X30255100Y-16295400D03*
%TO.P,U1,5*%
X30242400Y-13755400D03*
%TO.P,U1,6*%
X30229700Y-11215400D03*
%TO.P,U1,7*%
X30242400Y-8675400D03*
%TO.P,U1,8*%
X30229700Y-6135400D03*
%TO.P,U1,9*%
%TO.N,Net-(U1-Pad10)*%
X32782400Y-23915400D03*
%TO.P,U1,10*%
X32769700Y-21375400D03*
%TO.P,U1,11*%
%TO.N,Net-(U1-Pad11)*%
X32782400Y-18835400D03*
%TO.P,U1,12*%
X32795100Y-16295400D03*
%TO.P,U1,13*%
%TO.N,Net-(U1-Pad14)*%
X32782400Y-13755400D03*
%TO.P,U1,14*%
X32769700Y-11215400D03*
%TO.P,U1,15*%
X32782400Y-8675400D03*
%TO.P,U1,16*%
X32769700Y-6135400D03*
%TO.P,U1,17*%
%TO.N,Net-(U1-Pad17)*%
X35322400Y-23915400D03*
%TO.P,U1,18*%
X35309700Y-21375400D03*
%TO.P,U1,19*%
%TO.N,Net-(U1-Pad19)*%
X35322400Y-18835400D03*
%TO.P,U1,20*%
X35335100Y-16295400D03*
%TO.P,U1,21*%
%TO.N,Net-(U1-Pad21)*%
X35322400Y-13755400D03*
%TO.P,U1,22*%
X35309700Y-11215400D03*
%TO.P,U1,23*%
X35322400Y-8675400D03*
%TO.P,U1,24*%
X35309700Y-6135400D03*
%TO.P,U1,25*%
%TO.N,unconnected-(U1-Pad25)*%
X37862400Y-23915400D03*
%TO.P,U1,26*%
%TO.N,unconnected-(U1-Pad26)*%
X37849700Y-21375400D03*
%TO.P,U1,27*%
%TO.N,unconnected-(U1-Pad27)*%
X37862400Y-18835400D03*
%TO.P,U1,28*%
%TO.N,unconnected-(U1-Pad28)*%
X37875100Y-16295400D03*
%TO.P,U1,29*%
%TO.N,unconnected-(U1-Pad29)*%
X37862400Y-13755400D03*
%TO.P,U1,30*%
%TO.N,Net-(U1-Pad30)*%
X37849700Y-11215400D03*
%TO.P,U1,31*%
X37862400Y-8675400D03*
%TO.P,U1,32*%
X37849700Y-6135400D03*
%TO.P,U1,33*%
%TO.N,unconnected-(U1-Pad33)*%
X40402400Y-23915400D03*
%TO.P,U1,34*%
%TO.N,unconnected-(U1-Pad34)*%
X40389700Y-21375400D03*
%TO.P,U1,35*%
%TO.N,unconnected-(U1-Pad35)*%
X40402400Y-18835400D03*
%TO.P,U1,36*%
%TO.N,unconnected-(U1-Pad36)*%
X40415100Y-16295400D03*
%TO.P,U1,37*%
%TO.N,unconnected-(U1-Pad37)*%
X40402400Y-13755400D03*
%TO.P,U1,38*%
%TO.N,Net-(U1-Pad38)*%
X40389700Y-11215400D03*
%TO.P,U1,39*%
X40402400Y-8675400D03*
%TO.P,U1,40*%
X40389700Y-6135400D03*
%TO.P,U1,41*%
%TO.N,unconnected-(U1-Pad41)*%
X42942400Y-23915400D03*
%TO.P,U1,42*%
%TO.N,unconnected-(U1-Pad42)*%
X42929700Y-21375400D03*
%TO.P,U1,43*%
%TO.N,unconnected-(U1-Pad43)*%
X42942400Y-18835400D03*
%TO.P,U1,44*%
%TO.N,unconnected-(U1-Pad44)*%
X42955100Y-16295400D03*
%TO.P,U1,45*%
%TO.N,unconnected-(U1-Pad45)*%
X42942400Y-13755400D03*
%TO.P,U1,46*%
%TO.N,Net-(U1-Pad46)*%
X42929700Y-11215400D03*
%TO.P,U1,47*%
X42942400Y-8675400D03*
%TO.P,U1,48*%
X42929700Y-6135400D03*
%TO.P,U1,49*%
%TO.N,unconnected-(U1-Pad49)*%
X45482400Y-23915400D03*
%TO.P,U1,50*%
%TO.N,unconnected-(U1-Pad50)*%
X45469700Y-21375400D03*
%TO.P,U1,51*%
%TO.N,unconnected-(U1-Pad51)*%
X45482400Y-18835400D03*
%TO.P,U1,52*%
%TO.N,unconnected-(U1-Pad52)*%
X45495100Y-16295400D03*
%TO.P,U1,53*%
%TO.N,unconnected-(U1-Pad53)*%
X45482400Y-13755400D03*
%TO.P,U1,54*%
%TO.N,Net-(U1-Pad54)*%
X45469700Y-11215400D03*
%TO.P,U1,55*%
X45482400Y-8675400D03*
%TO.P,U1,56*%
X45469700Y-6135400D03*
%TO.P,U1,57*%
%TO.N,GND*%
X48022400Y-23915400D03*
%TO.P,U1,58*%
X48009700Y-21375400D03*
%TO.P,U1,59*%
X48022400Y-18835400D03*
%TO.P,U1,60*%
X48035100Y-16295400D03*
%TO.P,U1,61*%
X48022400Y-13755400D03*
%TO.P,U1,62*%
X48009700Y-11215400D03*
%TO.P,U1,63*%
X48022400Y-8675400D03*
%TO.P,U1,64*%
X48009700Y-6135400D03*
%TD*%
D16*
%TO.P,connect_for_vcc_as_common_anode1,1*%
%TO.N,VCC*%
X74500000Y-35800000D03*
D17*
%TO.P,connect_for_vcc_as_common_anode1,2*%
%TO.N,/common Anode*%
X74500000Y-32200000D03*
%TD*%
D12*
%TO.P,S7,1,NO*%
%TO.N,VCC*%
X49000000Y-42988000D03*
D13*
%TO.P,S7,2,NC*%
%TO.N,GND*%
X44000000Y-43238000D03*
%TO.P,S7,3,C*%
%TO.N,Net-(S7-Pad3)*%
X54000000Y-43238000D03*
D14*
%TO.P,S7,4,LED_+*%
%TO.N,/common Anode*%
X49000000Y-39338000D03*
D12*
%TO.P,S7,5,LED_-*%
%TO.N,Net-(S7-Pad5)*%
X49000000Y-50988000D03*
%TD*%
D18*
%TO.P,T2,1,1*%
%TO.N,Net-(S1-Pad5)*%
X30480000Y-31020000D03*
D19*
%TO.P,T2,2,2*%
%TO.N,Net-(S2-Pad5)*%
X33020000Y-31020000D03*
%TO.P,T2,3,3*%
%TO.N,Net-(S3-Pad5)*%
X35560000Y-31020000D03*
%TO.P,T2,4,4*%
%TO.N,Net-(S4-Pad5)*%
X38100000Y-31020000D03*
%TO.P,T2,5,5*%
%TO.N,Net-(S5-Pad5)*%
X40640000Y-31020000D03*
%TO.P,T2,6,6*%
%TO.N,Net-(S6-Pad5)*%
X43180000Y-31020000D03*
%TO.P,T2,7,7*%
%TO.N,Net-(S7-Pad5)*%
X45720000Y-31020000D03*
%TO.P,T2,8,8*%
%TO.N,Net-(S8-Pad5)*%
X48260000Y-31020000D03*
%TD*%
D18*
%TO.P,T1,1,1*%
%TO.N,GND*%
X50800000Y-31020000D03*
D19*
%TO.P,T1,2,2*%
%TO.N,VCC*%
X53340000Y-31020000D03*
%TO.P,T1,3,3*%
%TO.N,/common Anode*%
X55880000Y-31020000D03*
%TO.P,T1,4,4*%
%TO.N,Net-(BT1-Pad2)*%
X58420000Y-31020000D03*
%TO.P,T1,5,5*%
%TO.N,Net-(BT1-Pad1)*%
X60960000Y-31020000D03*
%TO.P,T1,6,6*%
%TO.N,Net-(S1-Pad2)*%
X63500000Y-31020000D03*
%TO.P,T1,7,7*%
%TO.N,Net-(S1-Pad3)*%
X66040000Y-31020000D03*
%TO.P,T1,8,8*%
%TO.N,unconnected-(T1-Pad8)*%
X68580000Y-31020000D03*
%TD*%
D12*
%TO.P,S5,1,NO*%
%TO.N,VCC*%
X9000000Y-42988000D03*
D13*
%TO.P,S5,2,NC*%
%TO.N,GND*%
X4000000Y-43238000D03*
%TO.P,S5,3,C*%
%TO.N,Net-(S5-Pad3)*%
X14000000Y-43238000D03*
D14*
%TO.P,S5,4,LED_+*%
%TO.N,/common Anode*%
X9000000Y-39338000D03*
D12*
%TO.P,S5,5,LED_-*%
%TO.N,Net-(S5-Pad5)*%
X9000000Y-50988000D03*
%TD*%
%TO.P,S2,1,NO*%
%TO.N,VCC*%
X29000000Y-73988000D03*
D13*
%TO.P,S2,2,NC*%
%TO.N,GND*%
X24000000Y-74238000D03*
%TO.P,S2,3,C*%
%TO.N,Net-(S2-Pad3)*%
X34000000Y-74238000D03*
D14*
%TO.P,S2,4,LED_+*%
%TO.N,/common Anode*%
X29000000Y-70338000D03*
D12*
%TO.P,S2,5,LED_-*%
%TO.N,Net-(S2-Pad5)*%
X29000000Y-81988000D03*
%TD*%
%TO.P,S6,1,NO*%
%TO.N,VCC*%
X29000000Y-42988000D03*
D13*
%TO.P,S6,2,NC*%
%TO.N,GND*%
X24000000Y-43238000D03*
%TO.P,S6,3,C*%
%TO.N,Net-(S6-Pad3)*%
X34000000Y-43238000D03*
D14*
%TO.P,S6,4,LED_+*%
%TO.N,/common Anode*%
X29000000Y-39338000D03*
D12*
%TO.P,S6,5,LED_-*%
%TO.N,Net-(S6-Pad5)*%
X29000000Y-50988000D03*
%TD*%
D18*
%TO.P,T3,1,1*%
%TO.N,unconnected-(T3-Pad1)*%
X10160000Y-31020000D03*
D19*
%TO.P,T3,2,2*%
%TO.N,Net-(S2-Pad3)*%
X12700000Y-31020000D03*
%TO.P,T3,3,3*%
%TO.N,Net-(S3-Pad3)*%
X15240000Y-31020000D03*
%TO.P,T3,4,4*%
%TO.N,Net-(S4-Pad3)*%
X17780000Y-31020000D03*
%TO.P,T3,5,5*%
%TO.N,Net-(S5-Pad3)*%
X20320000Y-31020000D03*
%TO.P,T3,6,6*%
%TO.N,Net-(S6-Pad3)*%
X22860000Y-31020000D03*
%TO.P,T3,7,7*%
%TO.N,Net-(S7-Pad3)*%
X25400000Y-31020000D03*
%TO.P,T3,8,8*%
%TO.N,Net-(S8-Pad3)*%
X27940000Y-31020000D03*
%TD*%
D12*
%TO.P,S3,1,NO*%
%TO.N,VCC*%
X49000000Y-73988000D03*
D13*
%TO.P,S3,2,NC*%
%TO.N,GND*%
X44000000Y-74238000D03*
%TO.P,S3,3,C*%
%TO.N,Net-(S3-Pad3)*%
X54000000Y-74238000D03*
D14*
%TO.P,S3,4,LED_+*%
%TO.N,/common Anode*%
X49000000Y-70338000D03*
D12*
%TO.P,S3,5,LED_-*%
%TO.N,Net-(S3-Pad5)*%
X49000000Y-81988000D03*
%TD*%
D20*
%TO.P,T4,1,1*%
%TO.N,Net-(BT1-Pad2)*%
X62460000Y-24000000D03*
D21*
%TO.P,T4,2,2*%
%TO.N,Net-(BT1-Pad1)*%
X65000000Y-24000000D03*
%TD*%
D22*
%TO.N,VCC*%
X17500000Y-46500000D03*
X31000000Y-79000000D03*
X19500000Y-64500000D03*
X32962511Y-45737502D03*
X42956489Y-47043511D03*
X43942000Y-38862000D03*
X51000000Y-79000000D03*
X41910000Y-45974000D03*
X13000000Y-78500000D03*
%TO.N,/common Anode*%
X14336549Y-69699951D03*
%TO.N,Net-(S1-Pad3)*%
X14710298Y-52572389D03*
X14000000Y-68000000D03*
%TO.N,Net-(S4-Pad3)*%
X8411099Y-36911099D03*
X10479400Y-57605702D03*
X12500000Y-36500000D03*
X18500000Y-57000000D03*
X10479399Y-57605702D03*
%TO.N,Net-(BT1-Pad1)*%
X12903200Y-53746400D03*
%TO.N,Net-(S1-Pad2)*%
X4267200Y-53340000D03*
%TO.N,GND*%
X12000000Y-67000000D03*
%TD*%
D23*
%TO.N,VCC*%
X31000000Y-79000000D02*
X13500000Y-79000000D01*
X69000000Y-43087022D02*
X69000000Y-42738000D01*
X32962511Y-45462511D02*
X41398511Y-45462511D01*
X23750000Y-52750000D02*
X19500000Y-57000000D01*
X32962511Y-45462511D02*
X31375489Y-45462511D01*
X29000000Y-43087022D02*
X29000000Y-42738000D01*
X30814534Y-79000000D02*
X31000000Y-79000000D01*
X32962511Y-45462511D02*
X32962511Y-45737502D01*
X71375489Y-45462511D02*
X69000000Y-43087022D01*
X69000000Y-74087022D02*
X64087022Y-79000000D01*
X76624511Y-37924511D02*
X76624511Y-45462511D01*
X53340000Y-31020000D02*
X46896511Y-37463489D01*
X30814534Y-79000000D02*
X51000000Y-79000000D01*
X76624511Y-45462511D02*
X71375489Y-45462511D01*
X23750000Y-52750000D02*
X17500000Y-46500000D01*
X74500000Y-35800000D02*
X76624511Y-37924511D01*
X41398511Y-45462511D02*
X41910000Y-45974000D01*
X64087022Y-79000000D02*
X51000000Y-79000000D01*
X23962511Y-52962511D02*
X23750000Y-52750000D01*
X69000000Y-73738000D02*
X69000000Y-74087022D01*
X19500000Y-57000000D02*
X19500000Y-64500000D01*
X42956489Y-47043511D02*
X37037489Y-52962511D01*
X46896511Y-37463489D02*
X45340511Y-37463489D01*
X45340511Y-37463489D02*
X43942000Y-38862000D01*
X13500000Y-79000000D02*
X13000000Y-78500000D01*
X31375489Y-45462511D02*
X29000000Y-43087022D01*
X37037489Y-52962511D02*
X23962511Y-52962511D01*
%TO.N,/common Anode*%
X55880000Y-33020000D02*
X62098000Y-39238000D01*
X7310319Y-53412022D02*
X6189296Y-53412022D01*
X69000000Y-37700000D02*
X69000000Y-39238000D01*
X11203900Y-68034100D02*
X11203900Y-57305603D01*
X29405489Y-32425489D02*
X29405489Y-38832511D01*
X28385078Y-29945489D02*
X29014511Y-30574922D01*
X16530489Y-32749922D02*
X17260411Y-32020000D01*
X12199901Y-35775499D02*
X14004090Y-35775499D01*
X17334922Y-29945489D02*
X28385078Y-29945489D01*
X74500000Y-32200000D02*
X69000000Y-37700000D01*
X29000000Y-32020000D02*
X29405489Y-32425489D01*
X16705489Y-31465078D02*
X16705489Y-30574922D01*
X15045398Y-70408800D02*
X14336549Y-69699951D01*
X9000000Y-70238000D02*
X11203900Y-68034100D01*
X49000000Y-39238000D02*
X49000000Y-38000000D01*
X29405489Y-38832511D02*
X29000000Y-39238000D01*
X17260411Y-32020000D02*
X16705489Y-31465078D01*
X3150978Y-39238000D02*
X9000000Y-39238000D01*
X11203900Y-57305603D02*
X7310319Y-53412022D01*
X29000000Y-70238000D02*
X28829200Y-70408800D01*
X49662000Y-39238000D02*
X49000000Y-39238000D01*
X62098000Y-39238000D02*
X69000000Y-39238000D01*
X6189296Y-53412022D02*
X4476011Y-51698737D01*
X9000000Y-38975400D02*
X12199901Y-35775499D01*
X1375489Y-41013489D02*
X3150978Y-39238000D01*
X55880000Y-33020000D02*
X49662000Y-39238000D01*
X48274521Y-39963479D02*
X49000000Y-39238000D01*
X29014511Y-32005489D02*
X29000000Y-32020000D01*
X49000000Y-70238000D02*
X29000000Y-70238000D01*
X28829200Y-70408800D02*
X15045398Y-70408800D01*
X2825215Y-45462511D02*
X1375489Y-45462511D01*
X69000000Y-70238000D02*
X49000000Y-70238000D01*
X4476011Y-47113307D02*
X2825215Y-45462511D01*
X29725479Y-39963479D02*
X48274521Y-39963479D01*
X16705489Y-30574922D02*
X17334922Y-29945489D01*
X16530489Y-33249100D02*
X16530489Y-32749922D01*
X55880000Y-33020000D02*
X55880000Y-31020000D01*
X4476011Y-51698737D02*
X4476011Y-47113307D01*
X1375489Y-45462511D02*
X1375489Y-41013489D01*
X29000000Y-39238000D02*
X29725479Y-39963479D01*
X9000000Y-39238000D02*
X9000000Y-38975400D01*
X29014511Y-30574922D02*
X29014511Y-32005489D01*
X14004090Y-35775499D02*
X16530489Y-33249100D01*
%TO.N,Net-(S1-Pad3)*%
X14710298Y-54361618D02*
X14710298Y-52572389D01*
X17963358Y-57614678D02*
X14710298Y-54361618D01*
X17963358Y-64036642D02*
X17963358Y-57614678D01*
X14000000Y-68000000D02*
X17963358Y-64036642D01*
%TO.N,Net-(S4-Pad3)*%
X13915293Y-36500000D02*
X12500000Y-36500000D01*
X925979Y-40827295D02*
X4289785Y-37463489D01*
X4026501Y-51884945D02*
X4026501Y-47299501D01*
X71724511Y-68463489D02*
X74000000Y-70738978D01*
X925978Y-45648704D02*
X925979Y-40827295D01*
X9159509Y-56225019D02*
X6796032Y-53861542D01*
X6796032Y-53861542D02*
X6003098Y-53861542D01*
X16980000Y-33020000D02*
X16980000Y-33435293D01*
X4289785Y-37463489D02*
X7858709Y-37463489D01*
X18500000Y-64524600D02*
X22438889Y-68463489D01*
X7858709Y-37463489D02*
X8411099Y-36911099D01*
X17780000Y-33020000D02*
X16980000Y-33020000D01*
X22438889Y-68463489D02*
X71724511Y-68463489D01*
X16980000Y-33435293D02*
X13915293Y-36500000D01*
X10479400Y-57605702D02*
X9159509Y-56285811D01*
X6003098Y-53861542D02*
X4026501Y-51884945D01*
X74000000Y-70738978D02*
X74000000Y-73738000D01*
X17780000Y-33020000D02*
X17780000Y-31020000D01*
X2639022Y-45912022D02*
X1189296Y-45912022D01*
X4026501Y-47299501D02*
X2639022Y-45912022D01*
X1189296Y-45912022D02*
X925978Y-45648704D01*
X18500000Y-57000000D02*
X18500000Y-64524600D01*
X9159509Y-56285811D02*
X9159509Y-56225019D01*
%TO.N,Net-(BT1-Pad1)*%
X15625489Y-72013489D02*
X16624511Y-72013489D01*
X16624511Y-72013489D02*
X16624511Y-76288689D01*
X11375489Y-76462511D02*
X9000000Y-74087022D01*
X12750800Y-69138800D02*
X15625489Y-72013489D01*
X16450689Y-76462511D02*
X11375489Y-76462511D01*
X16624511Y-76288689D02*
X16450689Y-76462511D01*
X9000000Y-74087022D02*
X9000000Y-73738000D01*
X12750800Y-53898800D02*
X12750800Y-69138800D01*
X12903200Y-53746400D02*
X12750800Y-53898800D01*
%TO.N,Net-(S1-Pad2)*%
X3962400Y-70776578D02*
X3962400Y-72339200D01*
X6160152Y-54311053D02*
X10274521Y-58425422D01*
X4267200Y-53340000D02*
X5238253Y-54311053D01*
X10274521Y-58425422D02*
X10274521Y-64464457D01*
X10274521Y-64464457D02*
X3962400Y-70776578D01*
X5238253Y-54311053D02*
X6160152Y-54311053D01*
%TO.N,GND*%
X48022400Y-23915400D02*
X48022400Y-28242400D01*
X12699901Y-77775499D02*
X19962501Y-77775499D01*
X64000000Y-42738000D02*
X59613479Y-47124521D01*
X16239775Y-47124521D02*
X8386521Y-47124521D01*
X12000000Y-57465999D02*
X12000000Y-67000000D01*
X41784079Y-47124521D02*
X28386521Y-47124521D01*
X12350879Y-78124521D02*
X12699901Y-77775499D01*
X16775499Y-46199901D02*
X16775499Y-46588797D01*
X19962501Y-77775499D02*
X24000000Y-73738000D01*
X4000000Y-42738000D02*
X6246322Y-44984322D01*
X24000000Y-42738000D02*
X20626296Y-42738000D01*
X48386521Y-78124521D02*
X59613479Y-78124521D01*
X59613479Y-47124521D02*
X48386521Y-47124521D01*
X59613479Y-78124521D02*
X64000000Y-73738000D01*
X48386521Y-47124521D02*
X44000000Y-42738000D01*
X17588797Y-45775499D02*
X17199901Y-45775499D01*
X7496513Y-52962512D02*
X12000000Y-57465999D01*
X48022400Y-28242400D02*
X50800000Y-31020000D01*
X28386521Y-47124521D02*
X24000000Y-42738000D01*
X4000000Y-73738000D02*
X8386521Y-78124521D01*
X6375489Y-52169576D02*
X6375489Y-52962511D01*
X6375489Y-52962511D02*
X7496513Y-52962512D01*
X16775499Y-46588797D02*
X16239775Y-47124521D01*
X17199901Y-45775499D02*
X16775499Y-46199901D01*
X44000000Y-44908600D02*
X41784079Y-47124521D01*
X6246322Y-44984322D02*
X6246322Y-52040409D01*
X39613479Y-78124521D02*
X44000000Y-73738000D01*
X8386521Y-47124521D02*
X4000000Y-42738000D01*
X44000000Y-73738000D02*
X48386521Y-78124521D01*
X6246322Y-52040409D02*
X6375489Y-52169576D01*
X20626296Y-42738000D02*
X17588797Y-45775499D01*
X24000000Y-73738000D02*
X28386521Y-78124521D01*
X28386521Y-78124521D02*
X39613479Y-78124521D01*
X8386521Y-78124521D02*
X12350879Y-78124521D01*
X44000000Y-42738000D02*
X44000000Y-44908600D01*
%TD*%
M02*
