G04 #@! TF.GenerationSoftware,KiCad,Pcbnew,(5.1.5)-3*
G04 #@! TF.CreationDate,2020-12-12T23:50:59-08:00*
G04 #@! TF.ProjectId,button_pcb_4x_laz16-11_,62757474-6f6e-45f7-9063-625f34785f6c,rev?*
G04 #@! TF.SameCoordinates,Original*
G04 #@! TF.FileFunction,Copper,L1,Top*
G04 #@! TF.FilePolarity,Positive*
%FSLAX46Y46*%
G04 Gerber Fmt 4.6, Leading zero omitted, Abs format (unit mm)*
G04 Created by KiCad (PCBNEW (5.1.5)-3) date 2020-12-12 23:50:59*
%MOMM*%
%LPD*%
G04 APERTURE LIST*
%ADD10C,1.000000*%
%ADD11C,0.100000*%
%ADD12R,4.000000X2.000000*%
%ADD13C,1.500000*%
%ADD14R,1.500000X1.500000*%
%ADD15O,1.200000X2.000000*%
%ADD16R,1.200000X2.000000*%
%ADD17C,8.600000*%
%ADD18C,0.600000*%
%ADD19C,0.508000*%
G04 APERTURE END LIST*
D10*
X30882857Y93598095D02*
X30882857Y98598095D01*
X30882857Y96693333D02*
X31359047Y96931428D01*
X32311428Y96931428D01*
X32787619Y96693333D01*
X33025714Y96455238D01*
X33263809Y95979047D01*
X33263809Y94550476D01*
X33025714Y94074285D01*
X32787619Y93836190D01*
X32311428Y93598095D01*
X31359047Y93598095D01*
X30882857Y93836190D01*
X36120952Y93598095D02*
X35644761Y93836190D01*
X35406666Y94074285D01*
X35168571Y94550476D01*
X35168571Y95979047D01*
X35406666Y96455238D01*
X35644761Y96693333D01*
X36120952Y96931428D01*
X36835238Y96931428D01*
X37311428Y96693333D01*
X37549523Y96455238D01*
X37787619Y95979047D01*
X37787619Y94550476D01*
X37549523Y94074285D01*
X37311428Y93836190D01*
X36835238Y93598095D01*
X36120952Y93598095D01*
X39454285Y93598095D02*
X42073333Y96931428D01*
X39454285Y96931428D02*
X42073333Y93598095D01*
G04 #@! TA.AperFunction,ComponentPad*
D11*
G36*
X78988191Y49436247D02*
G01*
X78914849Y49450836D01*
X78843290Y49472543D01*
X78774203Y49501160D01*
X78708254Y49536411D01*
X78646077Y49577956D01*
X78588272Y49625395D01*
X78535395Y49678272D01*
X78487956Y49736077D01*
X78446411Y49798254D01*
X78411160Y49864203D01*
X78382543Y49933290D01*
X78360836Y50004849D01*
X78346247Y50078191D01*
X78338918Y50152610D01*
X78338918Y50227390D01*
X78346247Y50301809D01*
X78360836Y50375151D01*
X78382543Y50446710D01*
X78411160Y50515797D01*
X78446411Y50581746D01*
X78487956Y50643923D01*
X78535395Y50701728D01*
X78588272Y50754605D01*
X78646077Y50802044D01*
X78708254Y50843589D01*
X78774203Y50878840D01*
X78843290Y50907457D01*
X78914849Y50929164D01*
X78988191Y50943753D01*
X79062610Y50951082D01*
X79137390Y50951082D01*
X79211809Y50943753D01*
X79285151Y50929164D01*
X79356710Y50907457D01*
X79425797Y50878840D01*
X79491746Y50843589D01*
X79553923Y50802044D01*
X79611728Y50754605D01*
X79664605Y50701728D01*
X79712044Y50643923D01*
X79753589Y50581746D01*
X79788840Y50515797D01*
X79797869Y50494000D01*
X80193000Y50494000D01*
X80193000Y50825000D01*
X80193961Y50834755D01*
X80196806Y50844134D01*
X80201427Y50852779D01*
X80207645Y50860355D01*
X80215221Y50866573D01*
X80223866Y50871194D01*
X80233245Y50874039D01*
X80243000Y50875000D01*
X82021000Y50875000D01*
X82030755Y50874039D01*
X82040134Y50871194D01*
X82048779Y50866573D01*
X82056355Y50860355D01*
X82062573Y50852779D01*
X82067194Y50844134D01*
X82070039Y50834755D01*
X82071000Y50825000D01*
X82071000Y50494000D01*
X82656000Y50494000D01*
X82665755Y50493039D01*
X82675134Y50490194D01*
X82683779Y50485573D01*
X82691355Y50479355D01*
X82697573Y50471779D01*
X82702194Y50463134D01*
X82705039Y50453755D01*
X82706000Y50444000D01*
X82706000Y49936000D01*
X82705039Y49926245D01*
X82702194Y49916866D01*
X82697573Y49908221D01*
X82691355Y49900645D01*
X82683779Y49894427D01*
X82675134Y49889806D01*
X82665755Y49886961D01*
X82656000Y49886000D01*
X82071000Y49886000D01*
X82071000Y49555000D01*
X82070039Y49545245D01*
X82067194Y49535866D01*
X82062573Y49527221D01*
X82056355Y49519645D01*
X82048779Y49513427D01*
X82040134Y49508806D01*
X82030755Y49505961D01*
X82021000Y49505000D01*
X80243000Y49505000D01*
X80233245Y49505961D01*
X80223866Y49508806D01*
X80215221Y49513427D01*
X80207645Y49519645D01*
X80201427Y49527221D01*
X80196806Y49535866D01*
X80193961Y49545245D01*
X80193000Y49555000D01*
X80193000Y49886000D01*
X79797869Y49886000D01*
X79788840Y49864203D01*
X79753589Y49798254D01*
X79712044Y49736077D01*
X79664605Y49678272D01*
X79611728Y49625395D01*
X79553923Y49577956D01*
X79491746Y49536411D01*
X79425797Y49501160D01*
X79356710Y49472543D01*
X79285151Y49450836D01*
X79211809Y49436247D01*
X79137390Y49428918D01*
X79062610Y49428918D01*
X78988191Y49436247D01*
G37*
G04 #@! TD.AperFunction*
G04 #@! TA.AperFunction,ComponentPad*
G36*
X86608191Y49436247D02*
G01*
X86534849Y49450836D01*
X86463290Y49472543D01*
X86394203Y49501160D01*
X86328254Y49536411D01*
X86266077Y49577956D01*
X86208272Y49625395D01*
X86155395Y49678272D01*
X86107956Y49736077D01*
X86066411Y49798254D01*
X86031160Y49864203D01*
X86022131Y49886000D01*
X85627000Y49886000D01*
X85627000Y49555000D01*
X85626039Y49545245D01*
X85623194Y49535866D01*
X85618573Y49527221D01*
X85612355Y49519645D01*
X85604779Y49513427D01*
X85596134Y49508806D01*
X85586755Y49505961D01*
X85577000Y49505000D01*
X83799000Y49505000D01*
X83789245Y49505961D01*
X83779866Y49508806D01*
X83771221Y49513427D01*
X83763645Y49519645D01*
X83757427Y49527221D01*
X83752806Y49535866D01*
X83749961Y49545245D01*
X83749000Y49555000D01*
X83749000Y49886000D01*
X83164000Y49886000D01*
X83154245Y49886961D01*
X83144866Y49889806D01*
X83136221Y49894427D01*
X83128645Y49900645D01*
X83122427Y49908221D01*
X83117806Y49916866D01*
X83114961Y49926245D01*
X83114000Y49936000D01*
X83114000Y50444000D01*
X83114961Y50453755D01*
X83117806Y50463134D01*
X83122427Y50471779D01*
X83128645Y50479355D01*
X83136221Y50485573D01*
X83144866Y50490194D01*
X83154245Y50493039D01*
X83164000Y50494000D01*
X83749000Y50494000D01*
X83749000Y50825000D01*
X83749961Y50834755D01*
X83752806Y50844134D01*
X83757427Y50852779D01*
X83763645Y50860355D01*
X83771221Y50866573D01*
X83779866Y50871194D01*
X83789245Y50874039D01*
X83799000Y50875000D01*
X85577000Y50875000D01*
X85586755Y50874039D01*
X85596134Y50871194D01*
X85604779Y50866573D01*
X85612355Y50860355D01*
X85618573Y50852779D01*
X85623194Y50844134D01*
X85626039Y50834755D01*
X85627000Y50825000D01*
X85627000Y50494000D01*
X86022131Y50494000D01*
X86031160Y50515797D01*
X86066411Y50581746D01*
X86107956Y50643923D01*
X86155395Y50701728D01*
X86208272Y50754605D01*
X86266077Y50802044D01*
X86328254Y50843589D01*
X86394203Y50878840D01*
X86463290Y50907457D01*
X86534849Y50929164D01*
X86608191Y50943753D01*
X86682610Y50951082D01*
X86757390Y50951082D01*
X86831809Y50943753D01*
X86905151Y50929164D01*
X86976710Y50907457D01*
X87045797Y50878840D01*
X87111746Y50843589D01*
X87173923Y50802044D01*
X87231728Y50754605D01*
X87284605Y50701728D01*
X87332044Y50643923D01*
X87373589Y50581746D01*
X87408840Y50515797D01*
X87437457Y50446710D01*
X87459164Y50375151D01*
X87473753Y50301809D01*
X87481082Y50227390D01*
X87481082Y50152610D01*
X87473753Y50078191D01*
X87459164Y50004849D01*
X87437457Y49933290D01*
X87408840Y49864203D01*
X87373589Y49798254D01*
X87332044Y49736077D01*
X87284605Y49678272D01*
X87231728Y49625395D01*
X87173923Y49577956D01*
X87111746Y49536411D01*
X87045797Y49501160D01*
X86976710Y49472543D01*
X86905151Y49450836D01*
X86831809Y49436247D01*
X86757390Y49428918D01*
X86682610Y49428918D01*
X86608191Y49436247D01*
G37*
G04 #@! TD.AperFunction*
G04 #@! TA.AperFunction,ComponentPad*
G36*
X56878191Y48526247D02*
G01*
X56804849Y48540836D01*
X56733290Y48562543D01*
X56664203Y48591160D01*
X56598254Y48626411D01*
X56536077Y48667956D01*
X56478272Y48715395D01*
X56425395Y48768272D01*
X56377956Y48826077D01*
X56336411Y48888254D01*
X56301160Y48954203D01*
X56272543Y49023290D01*
X56250836Y49094849D01*
X56236247Y49168191D01*
X56228918Y49242610D01*
X56228918Y49317390D01*
X56236247Y49391809D01*
X56250836Y49465151D01*
X56272543Y49536710D01*
X56301160Y49605797D01*
X56336411Y49671746D01*
X56377956Y49733923D01*
X56425395Y49791728D01*
X56478272Y49844605D01*
X56536077Y49892044D01*
X56598254Y49933589D01*
X56664203Y49968840D01*
X56733290Y49997457D01*
X56804849Y50019164D01*
X56878191Y50033753D01*
X56952610Y50041082D01*
X57027390Y50041082D01*
X57101809Y50033753D01*
X57175151Y50019164D01*
X57246710Y49997457D01*
X57315797Y49968840D01*
X57381746Y49933589D01*
X57443923Y49892044D01*
X57501728Y49844605D01*
X57554605Y49791728D01*
X57602044Y49733923D01*
X57643589Y49671746D01*
X57678840Y49605797D01*
X57687869Y49584000D01*
X58083000Y49584000D01*
X58083000Y49915000D01*
X58083961Y49924755D01*
X58086806Y49934134D01*
X58091427Y49942779D01*
X58097645Y49950355D01*
X58105221Y49956573D01*
X58113866Y49961194D01*
X58123245Y49964039D01*
X58133000Y49965000D01*
X59911000Y49965000D01*
X59920755Y49964039D01*
X59930134Y49961194D01*
X59938779Y49956573D01*
X59946355Y49950355D01*
X59952573Y49942779D01*
X59957194Y49934134D01*
X59960039Y49924755D01*
X59961000Y49915000D01*
X59961000Y49584000D01*
X60546000Y49584000D01*
X60555755Y49583039D01*
X60565134Y49580194D01*
X60573779Y49575573D01*
X60581355Y49569355D01*
X60587573Y49561779D01*
X60592194Y49553134D01*
X60595039Y49543755D01*
X60596000Y49534000D01*
X60596000Y49026000D01*
X60595039Y49016245D01*
X60592194Y49006866D01*
X60587573Y48998221D01*
X60581355Y48990645D01*
X60573779Y48984427D01*
X60565134Y48979806D01*
X60555755Y48976961D01*
X60546000Y48976000D01*
X59961000Y48976000D01*
X59961000Y48645000D01*
X59960039Y48635245D01*
X59957194Y48625866D01*
X59952573Y48617221D01*
X59946355Y48609645D01*
X59938779Y48603427D01*
X59930134Y48598806D01*
X59920755Y48595961D01*
X59911000Y48595000D01*
X58133000Y48595000D01*
X58123245Y48595961D01*
X58113866Y48598806D01*
X58105221Y48603427D01*
X58097645Y48609645D01*
X58091427Y48617221D01*
X58086806Y48625866D01*
X58083961Y48635245D01*
X58083000Y48645000D01*
X58083000Y48976000D01*
X57687869Y48976000D01*
X57678840Y48954203D01*
X57643589Y48888254D01*
X57602044Y48826077D01*
X57554605Y48768272D01*
X57501728Y48715395D01*
X57443923Y48667956D01*
X57381746Y48626411D01*
X57315797Y48591160D01*
X57246710Y48562543D01*
X57175151Y48540836D01*
X57101809Y48526247D01*
X57027390Y48518918D01*
X56952610Y48518918D01*
X56878191Y48526247D01*
G37*
G04 #@! TD.AperFunction*
G04 #@! TA.AperFunction,ComponentPad*
G36*
X64498191Y48526247D02*
G01*
X64424849Y48540836D01*
X64353290Y48562543D01*
X64284203Y48591160D01*
X64218254Y48626411D01*
X64156077Y48667956D01*
X64098272Y48715395D01*
X64045395Y48768272D01*
X63997956Y48826077D01*
X63956411Y48888254D01*
X63921160Y48954203D01*
X63912131Y48976000D01*
X63517000Y48976000D01*
X63517000Y48645000D01*
X63516039Y48635245D01*
X63513194Y48625866D01*
X63508573Y48617221D01*
X63502355Y48609645D01*
X63494779Y48603427D01*
X63486134Y48598806D01*
X63476755Y48595961D01*
X63467000Y48595000D01*
X61689000Y48595000D01*
X61679245Y48595961D01*
X61669866Y48598806D01*
X61661221Y48603427D01*
X61653645Y48609645D01*
X61647427Y48617221D01*
X61642806Y48625866D01*
X61639961Y48635245D01*
X61639000Y48645000D01*
X61639000Y48976000D01*
X61054000Y48976000D01*
X61044245Y48976961D01*
X61034866Y48979806D01*
X61026221Y48984427D01*
X61018645Y48990645D01*
X61012427Y48998221D01*
X61007806Y49006866D01*
X61004961Y49016245D01*
X61004000Y49026000D01*
X61004000Y49534000D01*
X61004961Y49543755D01*
X61007806Y49553134D01*
X61012427Y49561779D01*
X61018645Y49569355D01*
X61026221Y49575573D01*
X61034866Y49580194D01*
X61044245Y49583039D01*
X61054000Y49584000D01*
X61639000Y49584000D01*
X61639000Y49915000D01*
X61639961Y49924755D01*
X61642806Y49934134D01*
X61647427Y49942779D01*
X61653645Y49950355D01*
X61661221Y49956573D01*
X61669866Y49961194D01*
X61679245Y49964039D01*
X61689000Y49965000D01*
X63467000Y49965000D01*
X63476755Y49964039D01*
X63486134Y49961194D01*
X63494779Y49956573D01*
X63502355Y49950355D01*
X63508573Y49942779D01*
X63513194Y49934134D01*
X63516039Y49924755D01*
X63517000Y49915000D01*
X63517000Y49584000D01*
X63912131Y49584000D01*
X63921160Y49605797D01*
X63956411Y49671746D01*
X63997956Y49733923D01*
X64045395Y49791728D01*
X64098272Y49844605D01*
X64156077Y49892044D01*
X64218254Y49933589D01*
X64284203Y49968840D01*
X64353290Y49997457D01*
X64424849Y50019164D01*
X64498191Y50033753D01*
X64572610Y50041082D01*
X64647390Y50041082D01*
X64721809Y50033753D01*
X64795151Y50019164D01*
X64866710Y49997457D01*
X64935797Y49968840D01*
X65001746Y49933589D01*
X65063923Y49892044D01*
X65121728Y49844605D01*
X65174605Y49791728D01*
X65222044Y49733923D01*
X65263589Y49671746D01*
X65298840Y49605797D01*
X65327457Y49536710D01*
X65349164Y49465151D01*
X65363753Y49391809D01*
X65371082Y49317390D01*
X65371082Y49242610D01*
X65363753Y49168191D01*
X65349164Y49094849D01*
X65327457Y49023290D01*
X65298840Y48954203D01*
X65263589Y48888254D01*
X65222044Y48826077D01*
X65174605Y48768272D01*
X65121728Y48715395D01*
X65063923Y48667956D01*
X65001746Y48626411D01*
X64935797Y48591160D01*
X64866710Y48562543D01*
X64795151Y48540836D01*
X64721809Y48526247D01*
X64647390Y48518918D01*
X64572610Y48518918D01*
X64498191Y48526247D01*
G37*
G04 #@! TD.AperFunction*
G04 #@! TA.AperFunction,ComponentPad*
G36*
X34718191Y48456247D02*
G01*
X34644849Y48470836D01*
X34573290Y48492543D01*
X34504203Y48521160D01*
X34438254Y48556411D01*
X34376077Y48597956D01*
X34318272Y48645395D01*
X34265395Y48698272D01*
X34217956Y48756077D01*
X34176411Y48818254D01*
X34141160Y48884203D01*
X34112543Y48953290D01*
X34090836Y49024849D01*
X34076247Y49098191D01*
X34068918Y49172610D01*
X34068918Y49247390D01*
X34076247Y49321809D01*
X34090836Y49395151D01*
X34112543Y49466710D01*
X34141160Y49535797D01*
X34176411Y49601746D01*
X34217956Y49663923D01*
X34265395Y49721728D01*
X34318272Y49774605D01*
X34376077Y49822044D01*
X34438254Y49863589D01*
X34504203Y49898840D01*
X34573290Y49927457D01*
X34644849Y49949164D01*
X34718191Y49963753D01*
X34792610Y49971082D01*
X34867390Y49971082D01*
X34941809Y49963753D01*
X35015151Y49949164D01*
X35086710Y49927457D01*
X35155797Y49898840D01*
X35221746Y49863589D01*
X35283923Y49822044D01*
X35341728Y49774605D01*
X35394605Y49721728D01*
X35442044Y49663923D01*
X35483589Y49601746D01*
X35518840Y49535797D01*
X35527869Y49514000D01*
X35923000Y49514000D01*
X35923000Y49845000D01*
X35923961Y49854755D01*
X35926806Y49864134D01*
X35931427Y49872779D01*
X35937645Y49880355D01*
X35945221Y49886573D01*
X35953866Y49891194D01*
X35963245Y49894039D01*
X35973000Y49895000D01*
X37751000Y49895000D01*
X37760755Y49894039D01*
X37770134Y49891194D01*
X37778779Y49886573D01*
X37786355Y49880355D01*
X37792573Y49872779D01*
X37797194Y49864134D01*
X37800039Y49854755D01*
X37801000Y49845000D01*
X37801000Y49514000D01*
X38386000Y49514000D01*
X38395755Y49513039D01*
X38405134Y49510194D01*
X38413779Y49505573D01*
X38421355Y49499355D01*
X38427573Y49491779D01*
X38432194Y49483134D01*
X38435039Y49473755D01*
X38436000Y49464000D01*
X38436000Y48956000D01*
X38435039Y48946245D01*
X38432194Y48936866D01*
X38427573Y48928221D01*
X38421355Y48920645D01*
X38413779Y48914427D01*
X38405134Y48909806D01*
X38395755Y48906961D01*
X38386000Y48906000D01*
X37801000Y48906000D01*
X37801000Y48575000D01*
X37800039Y48565245D01*
X37797194Y48555866D01*
X37792573Y48547221D01*
X37786355Y48539645D01*
X37778779Y48533427D01*
X37770134Y48528806D01*
X37760755Y48525961D01*
X37751000Y48525000D01*
X35973000Y48525000D01*
X35963245Y48525961D01*
X35953866Y48528806D01*
X35945221Y48533427D01*
X35937645Y48539645D01*
X35931427Y48547221D01*
X35926806Y48555866D01*
X35923961Y48565245D01*
X35923000Y48575000D01*
X35923000Y48906000D01*
X35527869Y48906000D01*
X35518840Y48884203D01*
X35483589Y48818254D01*
X35442044Y48756077D01*
X35394605Y48698272D01*
X35341728Y48645395D01*
X35283923Y48597956D01*
X35221746Y48556411D01*
X35155797Y48521160D01*
X35086710Y48492543D01*
X35015151Y48470836D01*
X34941809Y48456247D01*
X34867390Y48448918D01*
X34792610Y48448918D01*
X34718191Y48456247D01*
G37*
G04 #@! TD.AperFunction*
G04 #@! TA.AperFunction,ComponentPad*
G36*
X42338191Y48456247D02*
G01*
X42264849Y48470836D01*
X42193290Y48492543D01*
X42124203Y48521160D01*
X42058254Y48556411D01*
X41996077Y48597956D01*
X41938272Y48645395D01*
X41885395Y48698272D01*
X41837956Y48756077D01*
X41796411Y48818254D01*
X41761160Y48884203D01*
X41752131Y48906000D01*
X41357000Y48906000D01*
X41357000Y48575000D01*
X41356039Y48565245D01*
X41353194Y48555866D01*
X41348573Y48547221D01*
X41342355Y48539645D01*
X41334779Y48533427D01*
X41326134Y48528806D01*
X41316755Y48525961D01*
X41307000Y48525000D01*
X39529000Y48525000D01*
X39519245Y48525961D01*
X39509866Y48528806D01*
X39501221Y48533427D01*
X39493645Y48539645D01*
X39487427Y48547221D01*
X39482806Y48555866D01*
X39479961Y48565245D01*
X39479000Y48575000D01*
X39479000Y48906000D01*
X38894000Y48906000D01*
X38884245Y48906961D01*
X38874866Y48909806D01*
X38866221Y48914427D01*
X38858645Y48920645D01*
X38852427Y48928221D01*
X38847806Y48936866D01*
X38844961Y48946245D01*
X38844000Y48956000D01*
X38844000Y49464000D01*
X38844961Y49473755D01*
X38847806Y49483134D01*
X38852427Y49491779D01*
X38858645Y49499355D01*
X38866221Y49505573D01*
X38874866Y49510194D01*
X38884245Y49513039D01*
X38894000Y49514000D01*
X39479000Y49514000D01*
X39479000Y49845000D01*
X39479961Y49854755D01*
X39482806Y49864134D01*
X39487427Y49872779D01*
X39493645Y49880355D01*
X39501221Y49886573D01*
X39509866Y49891194D01*
X39519245Y49894039D01*
X39529000Y49895000D01*
X41307000Y49895000D01*
X41316755Y49894039D01*
X41326134Y49891194D01*
X41334779Y49886573D01*
X41342355Y49880355D01*
X41348573Y49872779D01*
X41353194Y49864134D01*
X41356039Y49854755D01*
X41357000Y49845000D01*
X41357000Y49514000D01*
X41752131Y49514000D01*
X41761160Y49535797D01*
X41796411Y49601746D01*
X41837956Y49663923D01*
X41885395Y49721728D01*
X41938272Y49774605D01*
X41996077Y49822044D01*
X42058254Y49863589D01*
X42124203Y49898840D01*
X42193290Y49927457D01*
X42264849Y49949164D01*
X42338191Y49963753D01*
X42412610Y49971082D01*
X42487390Y49971082D01*
X42561809Y49963753D01*
X42635151Y49949164D01*
X42706710Y49927457D01*
X42775797Y49898840D01*
X42841746Y49863589D01*
X42903923Y49822044D01*
X42961728Y49774605D01*
X43014605Y49721728D01*
X43062044Y49663923D01*
X43103589Y49601746D01*
X43138840Y49535797D01*
X43167457Y49466710D01*
X43189164Y49395151D01*
X43203753Y49321809D01*
X43211082Y49247390D01*
X43211082Y49172610D01*
X43203753Y49098191D01*
X43189164Y49024849D01*
X43167457Y48953290D01*
X43138840Y48884203D01*
X43103589Y48818254D01*
X43062044Y48756077D01*
X43014605Y48698272D01*
X42961728Y48645395D01*
X42903923Y48597956D01*
X42841746Y48556411D01*
X42775797Y48521160D01*
X42706710Y48492543D01*
X42635151Y48470836D01*
X42561809Y48456247D01*
X42487390Y48448918D01*
X42412610Y48448918D01*
X42338191Y48456247D01*
G37*
G04 #@! TD.AperFunction*
G04 #@! TA.AperFunction,ComponentPad*
G36*
X12558191Y48956247D02*
G01*
X12484849Y48970836D01*
X12413290Y48992543D01*
X12344203Y49021160D01*
X12278254Y49056411D01*
X12216077Y49097956D01*
X12158272Y49145395D01*
X12105395Y49198272D01*
X12057956Y49256077D01*
X12016411Y49318254D01*
X11981160Y49384203D01*
X11952543Y49453290D01*
X11930836Y49524849D01*
X11916247Y49598191D01*
X11908918Y49672610D01*
X11908918Y49747390D01*
X11916247Y49821809D01*
X11930836Y49895151D01*
X11952543Y49966710D01*
X11981160Y50035797D01*
X12016411Y50101746D01*
X12057956Y50163923D01*
X12105395Y50221728D01*
X12158272Y50274605D01*
X12216077Y50322044D01*
X12278254Y50363589D01*
X12344203Y50398840D01*
X12413290Y50427457D01*
X12484849Y50449164D01*
X12558191Y50463753D01*
X12632610Y50471082D01*
X12707390Y50471082D01*
X12781809Y50463753D01*
X12855151Y50449164D01*
X12926710Y50427457D01*
X12995797Y50398840D01*
X13061746Y50363589D01*
X13123923Y50322044D01*
X13181728Y50274605D01*
X13234605Y50221728D01*
X13282044Y50163923D01*
X13323589Y50101746D01*
X13358840Y50035797D01*
X13367869Y50014000D01*
X13763000Y50014000D01*
X13763000Y50345000D01*
X13763961Y50354755D01*
X13766806Y50364134D01*
X13771427Y50372779D01*
X13777645Y50380355D01*
X13785221Y50386573D01*
X13793866Y50391194D01*
X13803245Y50394039D01*
X13813000Y50395000D01*
X15591000Y50395000D01*
X15600755Y50394039D01*
X15610134Y50391194D01*
X15618779Y50386573D01*
X15626355Y50380355D01*
X15632573Y50372779D01*
X15637194Y50364134D01*
X15640039Y50354755D01*
X15641000Y50345000D01*
X15641000Y50014000D01*
X16226000Y50014000D01*
X16235755Y50013039D01*
X16245134Y50010194D01*
X16253779Y50005573D01*
X16261355Y49999355D01*
X16267573Y49991779D01*
X16272194Y49983134D01*
X16275039Y49973755D01*
X16276000Y49964000D01*
X16276000Y49456000D01*
X16275039Y49446245D01*
X16272194Y49436866D01*
X16267573Y49428221D01*
X16261355Y49420645D01*
X16253779Y49414427D01*
X16245134Y49409806D01*
X16235755Y49406961D01*
X16226000Y49406000D01*
X15641000Y49406000D01*
X15641000Y49075000D01*
X15640039Y49065245D01*
X15637194Y49055866D01*
X15632573Y49047221D01*
X15626355Y49039645D01*
X15618779Y49033427D01*
X15610134Y49028806D01*
X15600755Y49025961D01*
X15591000Y49025000D01*
X13813000Y49025000D01*
X13803245Y49025961D01*
X13793866Y49028806D01*
X13785221Y49033427D01*
X13777645Y49039645D01*
X13771427Y49047221D01*
X13766806Y49055866D01*
X13763961Y49065245D01*
X13763000Y49075000D01*
X13763000Y49406000D01*
X13367869Y49406000D01*
X13358840Y49384203D01*
X13323589Y49318254D01*
X13282044Y49256077D01*
X13234605Y49198272D01*
X13181728Y49145395D01*
X13123923Y49097956D01*
X13061746Y49056411D01*
X12995797Y49021160D01*
X12926710Y48992543D01*
X12855151Y48970836D01*
X12781809Y48956247D01*
X12707390Y48948918D01*
X12632610Y48948918D01*
X12558191Y48956247D01*
G37*
G04 #@! TD.AperFunction*
G04 #@! TA.AperFunction,ComponentPad*
G36*
X20178191Y48956247D02*
G01*
X20104849Y48970836D01*
X20033290Y48992543D01*
X19964203Y49021160D01*
X19898254Y49056411D01*
X19836077Y49097956D01*
X19778272Y49145395D01*
X19725395Y49198272D01*
X19677956Y49256077D01*
X19636411Y49318254D01*
X19601160Y49384203D01*
X19592131Y49406000D01*
X19197000Y49406000D01*
X19197000Y49075000D01*
X19196039Y49065245D01*
X19193194Y49055866D01*
X19188573Y49047221D01*
X19182355Y49039645D01*
X19174779Y49033427D01*
X19166134Y49028806D01*
X19156755Y49025961D01*
X19147000Y49025000D01*
X17369000Y49025000D01*
X17359245Y49025961D01*
X17349866Y49028806D01*
X17341221Y49033427D01*
X17333645Y49039645D01*
X17327427Y49047221D01*
X17322806Y49055866D01*
X17319961Y49065245D01*
X17319000Y49075000D01*
X17319000Y49406000D01*
X16734000Y49406000D01*
X16724245Y49406961D01*
X16714866Y49409806D01*
X16706221Y49414427D01*
X16698645Y49420645D01*
X16692427Y49428221D01*
X16687806Y49436866D01*
X16684961Y49446245D01*
X16684000Y49456000D01*
X16684000Y49964000D01*
X16684961Y49973755D01*
X16687806Y49983134D01*
X16692427Y49991779D01*
X16698645Y49999355D01*
X16706221Y50005573D01*
X16714866Y50010194D01*
X16724245Y50013039D01*
X16734000Y50014000D01*
X17319000Y50014000D01*
X17319000Y50345000D01*
X17319961Y50354755D01*
X17322806Y50364134D01*
X17327427Y50372779D01*
X17333645Y50380355D01*
X17341221Y50386573D01*
X17349866Y50391194D01*
X17359245Y50394039D01*
X17369000Y50395000D01*
X19147000Y50395000D01*
X19156755Y50394039D01*
X19166134Y50391194D01*
X19174779Y50386573D01*
X19182355Y50380355D01*
X19188573Y50372779D01*
X19193194Y50364134D01*
X19196039Y50354755D01*
X19197000Y50345000D01*
X19197000Y50014000D01*
X19592131Y50014000D01*
X19601160Y50035797D01*
X19636411Y50101746D01*
X19677956Y50163923D01*
X19725395Y50221728D01*
X19778272Y50274605D01*
X19836077Y50322044D01*
X19898254Y50363589D01*
X19964203Y50398840D01*
X20033290Y50427457D01*
X20104849Y50449164D01*
X20178191Y50463753D01*
X20252610Y50471082D01*
X20327390Y50471082D01*
X20401809Y50463753D01*
X20475151Y50449164D01*
X20546710Y50427457D01*
X20615797Y50398840D01*
X20681746Y50363589D01*
X20743923Y50322044D01*
X20801728Y50274605D01*
X20854605Y50221728D01*
X20902044Y50163923D01*
X20943589Y50101746D01*
X20978840Y50035797D01*
X21007457Y49966710D01*
X21029164Y49895151D01*
X21043753Y49821809D01*
X21051082Y49747390D01*
X21051082Y49672610D01*
X21043753Y49598191D01*
X21029164Y49524849D01*
X21007457Y49453290D01*
X20978840Y49384203D01*
X20943589Y49318254D01*
X20902044Y49256077D01*
X20854605Y49198272D01*
X20801728Y49145395D01*
X20743923Y49097956D01*
X20681746Y49056411D01*
X20615797Y49021160D01*
X20546710Y48992543D01*
X20475151Y48970836D01*
X20401809Y48956247D01*
X20327390Y48948918D01*
X20252610Y48948918D01*
X20178191Y48956247D01*
G37*
G04 #@! TD.AperFunction*
G04 #@! TA.AperFunction,ComponentPad*
G36*
X78718191Y20206247D02*
G01*
X78644849Y20220836D01*
X78573290Y20242543D01*
X78504203Y20271160D01*
X78438254Y20306411D01*
X78376077Y20347956D01*
X78318272Y20395395D01*
X78265395Y20448272D01*
X78217956Y20506077D01*
X78176411Y20568254D01*
X78141160Y20634203D01*
X78112543Y20703290D01*
X78090836Y20774849D01*
X78076247Y20848191D01*
X78068918Y20922610D01*
X78068918Y20997390D01*
X78076247Y21071809D01*
X78090836Y21145151D01*
X78112543Y21216710D01*
X78141160Y21285797D01*
X78176411Y21351746D01*
X78217956Y21413923D01*
X78265395Y21471728D01*
X78318272Y21524605D01*
X78376077Y21572044D01*
X78438254Y21613589D01*
X78504203Y21648840D01*
X78573290Y21677457D01*
X78644849Y21699164D01*
X78718191Y21713753D01*
X78792610Y21721082D01*
X78867390Y21721082D01*
X78941809Y21713753D01*
X79015151Y21699164D01*
X79086710Y21677457D01*
X79155797Y21648840D01*
X79221746Y21613589D01*
X79283923Y21572044D01*
X79341728Y21524605D01*
X79394605Y21471728D01*
X79442044Y21413923D01*
X79483589Y21351746D01*
X79518840Y21285797D01*
X79527869Y21264000D01*
X79923000Y21264000D01*
X79923000Y21595000D01*
X79923961Y21604755D01*
X79926806Y21614134D01*
X79931427Y21622779D01*
X79937645Y21630355D01*
X79945221Y21636573D01*
X79953866Y21641194D01*
X79963245Y21644039D01*
X79973000Y21645000D01*
X81751000Y21645000D01*
X81760755Y21644039D01*
X81770134Y21641194D01*
X81778779Y21636573D01*
X81786355Y21630355D01*
X81792573Y21622779D01*
X81797194Y21614134D01*
X81800039Y21604755D01*
X81801000Y21595000D01*
X81801000Y21264000D01*
X82386000Y21264000D01*
X82395755Y21263039D01*
X82405134Y21260194D01*
X82413779Y21255573D01*
X82421355Y21249355D01*
X82427573Y21241779D01*
X82432194Y21233134D01*
X82435039Y21223755D01*
X82436000Y21214000D01*
X82436000Y20706000D01*
X82435039Y20696245D01*
X82432194Y20686866D01*
X82427573Y20678221D01*
X82421355Y20670645D01*
X82413779Y20664427D01*
X82405134Y20659806D01*
X82395755Y20656961D01*
X82386000Y20656000D01*
X81801000Y20656000D01*
X81801000Y20325000D01*
X81800039Y20315245D01*
X81797194Y20305866D01*
X81792573Y20297221D01*
X81786355Y20289645D01*
X81778779Y20283427D01*
X81770134Y20278806D01*
X81760755Y20275961D01*
X81751000Y20275000D01*
X79973000Y20275000D01*
X79963245Y20275961D01*
X79953866Y20278806D01*
X79945221Y20283427D01*
X79937645Y20289645D01*
X79931427Y20297221D01*
X79926806Y20305866D01*
X79923961Y20315245D01*
X79923000Y20325000D01*
X79923000Y20656000D01*
X79527869Y20656000D01*
X79518840Y20634203D01*
X79483589Y20568254D01*
X79442044Y20506077D01*
X79394605Y20448272D01*
X79341728Y20395395D01*
X79283923Y20347956D01*
X79221746Y20306411D01*
X79155797Y20271160D01*
X79086710Y20242543D01*
X79015151Y20220836D01*
X78941809Y20206247D01*
X78867390Y20198918D01*
X78792610Y20198918D01*
X78718191Y20206247D01*
G37*
G04 #@! TD.AperFunction*
G04 #@! TA.AperFunction,ComponentPad*
G36*
X86338191Y20206247D02*
G01*
X86264849Y20220836D01*
X86193290Y20242543D01*
X86124203Y20271160D01*
X86058254Y20306411D01*
X85996077Y20347956D01*
X85938272Y20395395D01*
X85885395Y20448272D01*
X85837956Y20506077D01*
X85796411Y20568254D01*
X85761160Y20634203D01*
X85752131Y20656000D01*
X85357000Y20656000D01*
X85357000Y20325000D01*
X85356039Y20315245D01*
X85353194Y20305866D01*
X85348573Y20297221D01*
X85342355Y20289645D01*
X85334779Y20283427D01*
X85326134Y20278806D01*
X85316755Y20275961D01*
X85307000Y20275000D01*
X83529000Y20275000D01*
X83519245Y20275961D01*
X83509866Y20278806D01*
X83501221Y20283427D01*
X83493645Y20289645D01*
X83487427Y20297221D01*
X83482806Y20305866D01*
X83479961Y20315245D01*
X83479000Y20325000D01*
X83479000Y20656000D01*
X82894000Y20656000D01*
X82884245Y20656961D01*
X82874866Y20659806D01*
X82866221Y20664427D01*
X82858645Y20670645D01*
X82852427Y20678221D01*
X82847806Y20686866D01*
X82844961Y20696245D01*
X82844000Y20706000D01*
X82844000Y21214000D01*
X82844961Y21223755D01*
X82847806Y21233134D01*
X82852427Y21241779D01*
X82858645Y21249355D01*
X82866221Y21255573D01*
X82874866Y21260194D01*
X82884245Y21263039D01*
X82894000Y21264000D01*
X83479000Y21264000D01*
X83479000Y21595000D01*
X83479961Y21604755D01*
X83482806Y21614134D01*
X83487427Y21622779D01*
X83493645Y21630355D01*
X83501221Y21636573D01*
X83509866Y21641194D01*
X83519245Y21644039D01*
X83529000Y21645000D01*
X85307000Y21645000D01*
X85316755Y21644039D01*
X85326134Y21641194D01*
X85334779Y21636573D01*
X85342355Y21630355D01*
X85348573Y21622779D01*
X85353194Y21614134D01*
X85356039Y21604755D01*
X85357000Y21595000D01*
X85357000Y21264000D01*
X85752131Y21264000D01*
X85761160Y21285797D01*
X85796411Y21351746D01*
X85837956Y21413923D01*
X85885395Y21471728D01*
X85938272Y21524605D01*
X85996077Y21572044D01*
X86058254Y21613589D01*
X86124203Y21648840D01*
X86193290Y21677457D01*
X86264849Y21699164D01*
X86338191Y21713753D01*
X86412610Y21721082D01*
X86487390Y21721082D01*
X86561809Y21713753D01*
X86635151Y21699164D01*
X86706710Y21677457D01*
X86775797Y21648840D01*
X86841746Y21613589D01*
X86903923Y21572044D01*
X86961728Y21524605D01*
X87014605Y21471728D01*
X87062044Y21413923D01*
X87103589Y21351746D01*
X87138840Y21285797D01*
X87167457Y21216710D01*
X87189164Y21145151D01*
X87203753Y21071809D01*
X87211082Y20997390D01*
X87211082Y20922610D01*
X87203753Y20848191D01*
X87189164Y20774849D01*
X87167457Y20703290D01*
X87138840Y20634203D01*
X87103589Y20568254D01*
X87062044Y20506077D01*
X87014605Y20448272D01*
X86961728Y20395395D01*
X86903923Y20347956D01*
X86841746Y20306411D01*
X86775797Y20271160D01*
X86706710Y20242543D01*
X86635151Y20220836D01*
X86561809Y20206247D01*
X86487390Y20198918D01*
X86412610Y20198918D01*
X86338191Y20206247D01*
G37*
G04 #@! TD.AperFunction*
G04 #@! TA.AperFunction,ComponentPad*
G36*
X56718191Y20122247D02*
G01*
X56644849Y20136836D01*
X56573290Y20158543D01*
X56504203Y20187160D01*
X56438254Y20222411D01*
X56376077Y20263956D01*
X56318272Y20311395D01*
X56265395Y20364272D01*
X56217956Y20422077D01*
X56176411Y20484254D01*
X56141160Y20550203D01*
X56112543Y20619290D01*
X56090836Y20690849D01*
X56076247Y20764191D01*
X56068918Y20838610D01*
X56068918Y20913390D01*
X56076247Y20987809D01*
X56090836Y21061151D01*
X56112543Y21132710D01*
X56141160Y21201797D01*
X56176411Y21267746D01*
X56217956Y21329923D01*
X56265395Y21387728D01*
X56318272Y21440605D01*
X56376077Y21488044D01*
X56438254Y21529589D01*
X56504203Y21564840D01*
X56573290Y21593457D01*
X56644849Y21615164D01*
X56718191Y21629753D01*
X56792610Y21637082D01*
X56867390Y21637082D01*
X56941809Y21629753D01*
X57015151Y21615164D01*
X57086710Y21593457D01*
X57155797Y21564840D01*
X57221746Y21529589D01*
X57283923Y21488044D01*
X57341728Y21440605D01*
X57394605Y21387728D01*
X57442044Y21329923D01*
X57483589Y21267746D01*
X57518840Y21201797D01*
X57527869Y21180000D01*
X57923000Y21180000D01*
X57923000Y21511000D01*
X57923961Y21520755D01*
X57926806Y21530134D01*
X57931427Y21538779D01*
X57937645Y21546355D01*
X57945221Y21552573D01*
X57953866Y21557194D01*
X57963245Y21560039D01*
X57973000Y21561000D01*
X59751000Y21561000D01*
X59760755Y21560039D01*
X59770134Y21557194D01*
X59778779Y21552573D01*
X59786355Y21546355D01*
X59792573Y21538779D01*
X59797194Y21530134D01*
X59800039Y21520755D01*
X59801000Y21511000D01*
X59801000Y21180000D01*
X60386000Y21180000D01*
X60395755Y21179039D01*
X60405134Y21176194D01*
X60413779Y21171573D01*
X60421355Y21165355D01*
X60427573Y21157779D01*
X60432194Y21149134D01*
X60435039Y21139755D01*
X60436000Y21130000D01*
X60436000Y20622000D01*
X60435039Y20612245D01*
X60432194Y20602866D01*
X60427573Y20594221D01*
X60421355Y20586645D01*
X60413779Y20580427D01*
X60405134Y20575806D01*
X60395755Y20572961D01*
X60386000Y20572000D01*
X59801000Y20572000D01*
X59801000Y20241000D01*
X59800039Y20231245D01*
X59797194Y20221866D01*
X59792573Y20213221D01*
X59786355Y20205645D01*
X59778779Y20199427D01*
X59770134Y20194806D01*
X59760755Y20191961D01*
X59751000Y20191000D01*
X57973000Y20191000D01*
X57963245Y20191961D01*
X57953866Y20194806D01*
X57945221Y20199427D01*
X57937645Y20205645D01*
X57931427Y20213221D01*
X57926806Y20221866D01*
X57923961Y20231245D01*
X57923000Y20241000D01*
X57923000Y20572000D01*
X57527869Y20572000D01*
X57518840Y20550203D01*
X57483589Y20484254D01*
X57442044Y20422077D01*
X57394605Y20364272D01*
X57341728Y20311395D01*
X57283923Y20263956D01*
X57221746Y20222411D01*
X57155797Y20187160D01*
X57086710Y20158543D01*
X57015151Y20136836D01*
X56941809Y20122247D01*
X56867390Y20114918D01*
X56792610Y20114918D01*
X56718191Y20122247D01*
G37*
G04 #@! TD.AperFunction*
G04 #@! TA.AperFunction,ComponentPad*
G36*
X64338191Y20122247D02*
G01*
X64264849Y20136836D01*
X64193290Y20158543D01*
X64124203Y20187160D01*
X64058254Y20222411D01*
X63996077Y20263956D01*
X63938272Y20311395D01*
X63885395Y20364272D01*
X63837956Y20422077D01*
X63796411Y20484254D01*
X63761160Y20550203D01*
X63752131Y20572000D01*
X63357000Y20572000D01*
X63357000Y20241000D01*
X63356039Y20231245D01*
X63353194Y20221866D01*
X63348573Y20213221D01*
X63342355Y20205645D01*
X63334779Y20199427D01*
X63326134Y20194806D01*
X63316755Y20191961D01*
X63307000Y20191000D01*
X61529000Y20191000D01*
X61519245Y20191961D01*
X61509866Y20194806D01*
X61501221Y20199427D01*
X61493645Y20205645D01*
X61487427Y20213221D01*
X61482806Y20221866D01*
X61479961Y20231245D01*
X61479000Y20241000D01*
X61479000Y20572000D01*
X60894000Y20572000D01*
X60884245Y20572961D01*
X60874866Y20575806D01*
X60866221Y20580427D01*
X60858645Y20586645D01*
X60852427Y20594221D01*
X60847806Y20602866D01*
X60844961Y20612245D01*
X60844000Y20622000D01*
X60844000Y21130000D01*
X60844961Y21139755D01*
X60847806Y21149134D01*
X60852427Y21157779D01*
X60858645Y21165355D01*
X60866221Y21171573D01*
X60874866Y21176194D01*
X60884245Y21179039D01*
X60894000Y21180000D01*
X61479000Y21180000D01*
X61479000Y21511000D01*
X61479961Y21520755D01*
X61482806Y21530134D01*
X61487427Y21538779D01*
X61493645Y21546355D01*
X61501221Y21552573D01*
X61509866Y21557194D01*
X61519245Y21560039D01*
X61529000Y21561000D01*
X63307000Y21561000D01*
X63316755Y21560039D01*
X63326134Y21557194D01*
X63334779Y21552573D01*
X63342355Y21546355D01*
X63348573Y21538779D01*
X63353194Y21530134D01*
X63356039Y21520755D01*
X63357000Y21511000D01*
X63357000Y21180000D01*
X63752131Y21180000D01*
X63761160Y21201797D01*
X63796411Y21267746D01*
X63837956Y21329923D01*
X63885395Y21387728D01*
X63938272Y21440605D01*
X63996077Y21488044D01*
X64058254Y21529589D01*
X64124203Y21564840D01*
X64193290Y21593457D01*
X64264849Y21615164D01*
X64338191Y21629753D01*
X64412610Y21637082D01*
X64487390Y21637082D01*
X64561809Y21629753D01*
X64635151Y21615164D01*
X64706710Y21593457D01*
X64775797Y21564840D01*
X64841746Y21529589D01*
X64903923Y21488044D01*
X64961728Y21440605D01*
X65014605Y21387728D01*
X65062044Y21329923D01*
X65103589Y21267746D01*
X65138840Y21201797D01*
X65167457Y21132710D01*
X65189164Y21061151D01*
X65203753Y20987809D01*
X65211082Y20913390D01*
X65211082Y20838610D01*
X65203753Y20764191D01*
X65189164Y20690849D01*
X65167457Y20619290D01*
X65138840Y20550203D01*
X65103589Y20484254D01*
X65062044Y20422077D01*
X65014605Y20364272D01*
X64961728Y20311395D01*
X64903923Y20263956D01*
X64841746Y20222411D01*
X64775797Y20187160D01*
X64706710Y20158543D01*
X64635151Y20136836D01*
X64561809Y20122247D01*
X64487390Y20114918D01*
X64412610Y20114918D01*
X64338191Y20122247D01*
G37*
G04 #@! TD.AperFunction*
G04 #@! TA.AperFunction,ComponentPad*
G36*
X34828191Y20116247D02*
G01*
X34754849Y20130836D01*
X34683290Y20152543D01*
X34614203Y20181160D01*
X34548254Y20216411D01*
X34486077Y20257956D01*
X34428272Y20305395D01*
X34375395Y20358272D01*
X34327956Y20416077D01*
X34286411Y20478254D01*
X34251160Y20544203D01*
X34222543Y20613290D01*
X34200836Y20684849D01*
X34186247Y20758191D01*
X34178918Y20832610D01*
X34178918Y20907390D01*
X34186247Y20981809D01*
X34200836Y21055151D01*
X34222543Y21126710D01*
X34251160Y21195797D01*
X34286411Y21261746D01*
X34327956Y21323923D01*
X34375395Y21381728D01*
X34428272Y21434605D01*
X34486077Y21482044D01*
X34548254Y21523589D01*
X34614203Y21558840D01*
X34683290Y21587457D01*
X34754849Y21609164D01*
X34828191Y21623753D01*
X34902610Y21631082D01*
X34977390Y21631082D01*
X35051809Y21623753D01*
X35125151Y21609164D01*
X35196710Y21587457D01*
X35265797Y21558840D01*
X35331746Y21523589D01*
X35393923Y21482044D01*
X35451728Y21434605D01*
X35504605Y21381728D01*
X35552044Y21323923D01*
X35593589Y21261746D01*
X35628840Y21195797D01*
X35637869Y21174000D01*
X36033000Y21174000D01*
X36033000Y21505000D01*
X36033961Y21514755D01*
X36036806Y21524134D01*
X36041427Y21532779D01*
X36047645Y21540355D01*
X36055221Y21546573D01*
X36063866Y21551194D01*
X36073245Y21554039D01*
X36083000Y21555000D01*
X37861000Y21555000D01*
X37870755Y21554039D01*
X37880134Y21551194D01*
X37888779Y21546573D01*
X37896355Y21540355D01*
X37902573Y21532779D01*
X37907194Y21524134D01*
X37910039Y21514755D01*
X37911000Y21505000D01*
X37911000Y21174000D01*
X38496000Y21174000D01*
X38505755Y21173039D01*
X38515134Y21170194D01*
X38523779Y21165573D01*
X38531355Y21159355D01*
X38537573Y21151779D01*
X38542194Y21143134D01*
X38545039Y21133755D01*
X38546000Y21124000D01*
X38546000Y20616000D01*
X38545039Y20606245D01*
X38542194Y20596866D01*
X38537573Y20588221D01*
X38531355Y20580645D01*
X38523779Y20574427D01*
X38515134Y20569806D01*
X38505755Y20566961D01*
X38496000Y20566000D01*
X37911000Y20566000D01*
X37911000Y20235000D01*
X37910039Y20225245D01*
X37907194Y20215866D01*
X37902573Y20207221D01*
X37896355Y20199645D01*
X37888779Y20193427D01*
X37880134Y20188806D01*
X37870755Y20185961D01*
X37861000Y20185000D01*
X36083000Y20185000D01*
X36073245Y20185961D01*
X36063866Y20188806D01*
X36055221Y20193427D01*
X36047645Y20199645D01*
X36041427Y20207221D01*
X36036806Y20215866D01*
X36033961Y20225245D01*
X36033000Y20235000D01*
X36033000Y20566000D01*
X35637869Y20566000D01*
X35628840Y20544203D01*
X35593589Y20478254D01*
X35552044Y20416077D01*
X35504605Y20358272D01*
X35451728Y20305395D01*
X35393923Y20257956D01*
X35331746Y20216411D01*
X35265797Y20181160D01*
X35196710Y20152543D01*
X35125151Y20130836D01*
X35051809Y20116247D01*
X34977390Y20108918D01*
X34902610Y20108918D01*
X34828191Y20116247D01*
G37*
G04 #@! TD.AperFunction*
G04 #@! TA.AperFunction,ComponentPad*
G36*
X42448191Y20116247D02*
G01*
X42374849Y20130836D01*
X42303290Y20152543D01*
X42234203Y20181160D01*
X42168254Y20216411D01*
X42106077Y20257956D01*
X42048272Y20305395D01*
X41995395Y20358272D01*
X41947956Y20416077D01*
X41906411Y20478254D01*
X41871160Y20544203D01*
X41862131Y20566000D01*
X41467000Y20566000D01*
X41467000Y20235000D01*
X41466039Y20225245D01*
X41463194Y20215866D01*
X41458573Y20207221D01*
X41452355Y20199645D01*
X41444779Y20193427D01*
X41436134Y20188806D01*
X41426755Y20185961D01*
X41417000Y20185000D01*
X39639000Y20185000D01*
X39629245Y20185961D01*
X39619866Y20188806D01*
X39611221Y20193427D01*
X39603645Y20199645D01*
X39597427Y20207221D01*
X39592806Y20215866D01*
X39589961Y20225245D01*
X39589000Y20235000D01*
X39589000Y20566000D01*
X39004000Y20566000D01*
X38994245Y20566961D01*
X38984866Y20569806D01*
X38976221Y20574427D01*
X38968645Y20580645D01*
X38962427Y20588221D01*
X38957806Y20596866D01*
X38954961Y20606245D01*
X38954000Y20616000D01*
X38954000Y21124000D01*
X38954961Y21133755D01*
X38957806Y21143134D01*
X38962427Y21151779D01*
X38968645Y21159355D01*
X38976221Y21165573D01*
X38984866Y21170194D01*
X38994245Y21173039D01*
X39004000Y21174000D01*
X39589000Y21174000D01*
X39589000Y21505000D01*
X39589961Y21514755D01*
X39592806Y21524134D01*
X39597427Y21532779D01*
X39603645Y21540355D01*
X39611221Y21546573D01*
X39619866Y21551194D01*
X39629245Y21554039D01*
X39639000Y21555000D01*
X41417000Y21555000D01*
X41426755Y21554039D01*
X41436134Y21551194D01*
X41444779Y21546573D01*
X41452355Y21540355D01*
X41458573Y21532779D01*
X41463194Y21524134D01*
X41466039Y21514755D01*
X41467000Y21505000D01*
X41467000Y21174000D01*
X41862131Y21174000D01*
X41871160Y21195797D01*
X41906411Y21261746D01*
X41947956Y21323923D01*
X41995395Y21381728D01*
X42048272Y21434605D01*
X42106077Y21482044D01*
X42168254Y21523589D01*
X42234203Y21558840D01*
X42303290Y21587457D01*
X42374849Y21609164D01*
X42448191Y21623753D01*
X42522610Y21631082D01*
X42597390Y21631082D01*
X42671809Y21623753D01*
X42745151Y21609164D01*
X42816710Y21587457D01*
X42885797Y21558840D01*
X42951746Y21523589D01*
X43013923Y21482044D01*
X43071728Y21434605D01*
X43124605Y21381728D01*
X43172044Y21323923D01*
X43213589Y21261746D01*
X43248840Y21195797D01*
X43277457Y21126710D01*
X43299164Y21055151D01*
X43313753Y20981809D01*
X43321082Y20907390D01*
X43321082Y20832610D01*
X43313753Y20758191D01*
X43299164Y20684849D01*
X43277457Y20613290D01*
X43248840Y20544203D01*
X43213589Y20478254D01*
X43172044Y20416077D01*
X43124605Y20358272D01*
X43071728Y20305395D01*
X43013923Y20257956D01*
X42951746Y20216411D01*
X42885797Y20181160D01*
X42816710Y20152543D01*
X42745151Y20130836D01*
X42671809Y20116247D01*
X42597390Y20108918D01*
X42522610Y20108918D01*
X42448191Y20116247D01*
G37*
G04 #@! TD.AperFunction*
G04 #@! TA.AperFunction,ComponentPad*
G36*
X13218191Y20206247D02*
G01*
X13144849Y20220836D01*
X13073290Y20242543D01*
X13004203Y20271160D01*
X12938254Y20306411D01*
X12876077Y20347956D01*
X12818272Y20395395D01*
X12765395Y20448272D01*
X12717956Y20506077D01*
X12676411Y20568254D01*
X12641160Y20634203D01*
X12612543Y20703290D01*
X12590836Y20774849D01*
X12576247Y20848191D01*
X12568918Y20922610D01*
X12568918Y20997390D01*
X12576247Y21071809D01*
X12590836Y21145151D01*
X12612543Y21216710D01*
X12641160Y21285797D01*
X12676411Y21351746D01*
X12717956Y21413923D01*
X12765395Y21471728D01*
X12818272Y21524605D01*
X12876077Y21572044D01*
X12938254Y21613589D01*
X13004203Y21648840D01*
X13073290Y21677457D01*
X13144849Y21699164D01*
X13218191Y21713753D01*
X13292610Y21721082D01*
X13367390Y21721082D01*
X13441809Y21713753D01*
X13515151Y21699164D01*
X13586710Y21677457D01*
X13655797Y21648840D01*
X13721746Y21613589D01*
X13783923Y21572044D01*
X13841728Y21524605D01*
X13894605Y21471728D01*
X13942044Y21413923D01*
X13983589Y21351746D01*
X14018840Y21285797D01*
X14027869Y21264000D01*
X14423000Y21264000D01*
X14423000Y21595000D01*
X14423961Y21604755D01*
X14426806Y21614134D01*
X14431427Y21622779D01*
X14437645Y21630355D01*
X14445221Y21636573D01*
X14453866Y21641194D01*
X14463245Y21644039D01*
X14473000Y21645000D01*
X16251000Y21645000D01*
X16260755Y21644039D01*
X16270134Y21641194D01*
X16278779Y21636573D01*
X16286355Y21630355D01*
X16292573Y21622779D01*
X16297194Y21614134D01*
X16300039Y21604755D01*
X16301000Y21595000D01*
X16301000Y21264000D01*
X16886000Y21264000D01*
X16895755Y21263039D01*
X16905134Y21260194D01*
X16913779Y21255573D01*
X16921355Y21249355D01*
X16927573Y21241779D01*
X16932194Y21233134D01*
X16935039Y21223755D01*
X16936000Y21214000D01*
X16936000Y20706000D01*
X16935039Y20696245D01*
X16932194Y20686866D01*
X16927573Y20678221D01*
X16921355Y20670645D01*
X16913779Y20664427D01*
X16905134Y20659806D01*
X16895755Y20656961D01*
X16886000Y20656000D01*
X16301000Y20656000D01*
X16301000Y20325000D01*
X16300039Y20315245D01*
X16297194Y20305866D01*
X16292573Y20297221D01*
X16286355Y20289645D01*
X16278779Y20283427D01*
X16270134Y20278806D01*
X16260755Y20275961D01*
X16251000Y20275000D01*
X14473000Y20275000D01*
X14463245Y20275961D01*
X14453866Y20278806D01*
X14445221Y20283427D01*
X14437645Y20289645D01*
X14431427Y20297221D01*
X14426806Y20305866D01*
X14423961Y20315245D01*
X14423000Y20325000D01*
X14423000Y20656000D01*
X14027869Y20656000D01*
X14018840Y20634203D01*
X13983589Y20568254D01*
X13942044Y20506077D01*
X13894605Y20448272D01*
X13841728Y20395395D01*
X13783923Y20347956D01*
X13721746Y20306411D01*
X13655797Y20271160D01*
X13586710Y20242543D01*
X13515151Y20220836D01*
X13441809Y20206247D01*
X13367390Y20198918D01*
X13292610Y20198918D01*
X13218191Y20206247D01*
G37*
G04 #@! TD.AperFunction*
G04 #@! TA.AperFunction,ComponentPad*
G36*
X20838191Y20206247D02*
G01*
X20764849Y20220836D01*
X20693290Y20242543D01*
X20624203Y20271160D01*
X20558254Y20306411D01*
X20496077Y20347956D01*
X20438272Y20395395D01*
X20385395Y20448272D01*
X20337956Y20506077D01*
X20296411Y20568254D01*
X20261160Y20634203D01*
X20252131Y20656000D01*
X19857000Y20656000D01*
X19857000Y20325000D01*
X19856039Y20315245D01*
X19853194Y20305866D01*
X19848573Y20297221D01*
X19842355Y20289645D01*
X19834779Y20283427D01*
X19826134Y20278806D01*
X19816755Y20275961D01*
X19807000Y20275000D01*
X18029000Y20275000D01*
X18019245Y20275961D01*
X18009866Y20278806D01*
X18001221Y20283427D01*
X17993645Y20289645D01*
X17987427Y20297221D01*
X17982806Y20305866D01*
X17979961Y20315245D01*
X17979000Y20325000D01*
X17979000Y20656000D01*
X17394000Y20656000D01*
X17384245Y20656961D01*
X17374866Y20659806D01*
X17366221Y20664427D01*
X17358645Y20670645D01*
X17352427Y20678221D01*
X17347806Y20686866D01*
X17344961Y20696245D01*
X17344000Y20706000D01*
X17344000Y21214000D01*
X17344961Y21223755D01*
X17347806Y21233134D01*
X17352427Y21241779D01*
X17358645Y21249355D01*
X17366221Y21255573D01*
X17374866Y21260194D01*
X17384245Y21263039D01*
X17394000Y21264000D01*
X17979000Y21264000D01*
X17979000Y21595000D01*
X17979961Y21604755D01*
X17982806Y21614134D01*
X17987427Y21622779D01*
X17993645Y21630355D01*
X18001221Y21636573D01*
X18009866Y21641194D01*
X18019245Y21644039D01*
X18029000Y21645000D01*
X19807000Y21645000D01*
X19816755Y21644039D01*
X19826134Y21641194D01*
X19834779Y21636573D01*
X19842355Y21630355D01*
X19848573Y21622779D01*
X19853194Y21614134D01*
X19856039Y21604755D01*
X19857000Y21595000D01*
X19857000Y21264000D01*
X20252131Y21264000D01*
X20261160Y21285797D01*
X20296411Y21351746D01*
X20337956Y21413923D01*
X20385395Y21471728D01*
X20438272Y21524605D01*
X20496077Y21572044D01*
X20558254Y21613589D01*
X20624203Y21648840D01*
X20693290Y21677457D01*
X20764849Y21699164D01*
X20838191Y21713753D01*
X20912610Y21721082D01*
X20987390Y21721082D01*
X21061809Y21713753D01*
X21135151Y21699164D01*
X21206710Y21677457D01*
X21275797Y21648840D01*
X21341746Y21613589D01*
X21403923Y21572044D01*
X21461728Y21524605D01*
X21514605Y21471728D01*
X21562044Y21413923D01*
X21603589Y21351746D01*
X21638840Y21285797D01*
X21667457Y21216710D01*
X21689164Y21145151D01*
X21703753Y21071809D01*
X21711082Y20997390D01*
X21711082Y20922610D01*
X21703753Y20848191D01*
X21689164Y20774849D01*
X21667457Y20703290D01*
X21638840Y20634203D01*
X21603589Y20568254D01*
X21562044Y20506077D01*
X21514605Y20448272D01*
X21461728Y20395395D01*
X21403923Y20347956D01*
X21341746Y20306411D01*
X21275797Y20271160D01*
X21206710Y20242543D01*
X21135151Y20220836D01*
X21061809Y20206247D01*
X20987390Y20198918D01*
X20912610Y20198918D01*
X20838191Y20206247D01*
G37*
G04 #@! TD.AperFunction*
D12*
X17000000Y6500000D03*
X17000000Y18000000D03*
X22000000Y14500000D03*
X17000000Y14500000D03*
X12000000Y14500000D03*
G04 #@! TA.AperFunction,SMDPad,CuDef*
D11*
G36*
X34349039Y5006245D02*
G01*
X34346194Y4996866D01*
X34341573Y4988221D01*
X34335355Y4980645D01*
X34327779Y4974427D01*
X34319134Y4969806D01*
X34309755Y4966961D01*
X34300000Y4966000D01*
X32500000Y4966000D01*
X32490245Y4966961D01*
X32480866Y4969806D01*
X32472221Y4974427D01*
X32464645Y4980645D01*
X32458427Y4988221D01*
X32453806Y4996866D01*
X32450961Y5006245D01*
X32450000Y5016000D01*
X32450000Y6516000D01*
X32450961Y6525755D01*
X32453806Y6535134D01*
X32458427Y6543779D01*
X32464645Y6551355D01*
X32472221Y6557573D01*
X32480866Y6562194D01*
X32490245Y6565039D01*
X32500000Y6566000D01*
X32800000Y6566000D01*
X32800000Y7216000D01*
X32800961Y7225755D01*
X32803806Y7235134D01*
X32808427Y7243779D01*
X32814645Y7251355D01*
X32822221Y7257573D01*
X32830866Y7262194D01*
X32840245Y7265039D01*
X32850000Y7266000D01*
X33950000Y7266000D01*
X33959755Y7265039D01*
X33969134Y7262194D01*
X33977779Y7257573D01*
X33985355Y7251355D01*
X33991573Y7243779D01*
X33996194Y7235134D01*
X33999039Y7225755D01*
X34000000Y7216000D01*
X34000000Y6566000D01*
X34300000Y6566000D01*
X34309755Y6565039D01*
X34319134Y6562194D01*
X34327779Y6557573D01*
X34335355Y6551355D01*
X34341573Y6543779D01*
X34346194Y6535134D01*
X34349039Y6525755D01*
X34350000Y6516000D01*
X34350000Y5016000D01*
X34349039Y5006245D01*
G37*
G04 #@! TD.AperFunction*
G04 #@! TA.AperFunction,SMDPad,CuDef*
G36*
X34349039Y8606245D02*
G01*
X34346194Y8596866D01*
X34341573Y8588221D01*
X34335355Y8580645D01*
X34327779Y8574427D01*
X34319134Y8569806D01*
X34309755Y8566961D01*
X34300000Y8566000D01*
X34000000Y8566000D01*
X34000000Y7916000D01*
X33999039Y7906245D01*
X33996194Y7896866D01*
X33991573Y7888221D01*
X33985355Y7880645D01*
X33977779Y7874427D01*
X33969134Y7869806D01*
X33959755Y7866961D01*
X33950000Y7866000D01*
X32850000Y7866000D01*
X32840245Y7866961D01*
X32830866Y7869806D01*
X32822221Y7874427D01*
X32814645Y7880645D01*
X32808427Y7888221D01*
X32803806Y7896866D01*
X32800961Y7906245D01*
X32800000Y7916000D01*
X32800000Y8566000D01*
X32500000Y8566000D01*
X32490245Y8566961D01*
X32480866Y8569806D01*
X32472221Y8574427D01*
X32464645Y8580645D01*
X32458427Y8588221D01*
X32453806Y8596866D01*
X32450961Y8606245D01*
X32450000Y8616000D01*
X32450000Y10116000D01*
X32450961Y10125755D01*
X32453806Y10135134D01*
X32458427Y10143779D01*
X32464645Y10151355D01*
X32472221Y10157573D01*
X32480866Y10162194D01*
X32490245Y10165039D01*
X32500000Y10166000D01*
X34300000Y10166000D01*
X34309755Y10165039D01*
X34319134Y10162194D01*
X34327779Y10157573D01*
X34335355Y10151355D01*
X34341573Y10143779D01*
X34346194Y10135134D01*
X34349039Y10125755D01*
X34350000Y10116000D01*
X34350000Y8616000D01*
X34349039Y8606245D01*
G37*
G04 #@! TD.AperFunction*
D13*
X43690000Y75740000D03*
X46230000Y75740000D03*
X48770000Y75740000D03*
X51310000Y75740000D03*
X53850000Y75740000D03*
X56390000Y75740000D03*
X56390000Y60500000D03*
X53850000Y60500000D03*
X51310000Y60500000D03*
X48770000Y60500000D03*
X46230000Y60500000D03*
D14*
X43690000Y60500000D03*
D13*
X58930000Y68530000D03*
X56390000Y68530000D03*
X53850000Y68530000D03*
X51310000Y68530000D03*
X48770000Y68530000D03*
X46230000Y68530000D03*
X43690000Y68530000D03*
D14*
X41150000Y68530000D03*
D13*
X58930000Y71070000D03*
X56390000Y71070000D03*
X53850000Y71070000D03*
X51310000Y71070000D03*
X48770000Y71070000D03*
X46230000Y71070000D03*
X43690000Y71070000D03*
D14*
X41150000Y71070000D03*
D13*
X13310000Y39100000D03*
X15850000Y39100000D03*
X18390000Y39100000D03*
X20930000Y39100000D03*
X23470000Y39100000D03*
X26010000Y39100000D03*
X28550000Y39100000D03*
D14*
X31090000Y39100000D03*
D13*
X58890000Y51800000D03*
X56350000Y51800000D03*
X53810000Y51800000D03*
X51270000Y51800000D03*
X48730000Y51800000D03*
X46190000Y51800000D03*
X43650000Y51800000D03*
D14*
X41110000Y51800000D03*
D13*
X28326000Y10201000D03*
X25786000Y10201000D03*
X23246000Y10201000D03*
X20706000Y10201000D03*
X18166000Y10201000D03*
X15626000Y10201000D03*
X13086000Y10201000D03*
D14*
X10546000Y10201000D03*
D13*
X58830000Y23260000D03*
X56290000Y23260000D03*
X53750000Y23260000D03*
X51210000Y23260000D03*
X48670000Y23260000D03*
X46130000Y23260000D03*
X43590000Y23260000D03*
D14*
X41050000Y23260000D03*
D12*
X83000000Y35500000D03*
X83000000Y47000000D03*
X88000000Y43500000D03*
X83000000Y43500000D03*
X78000000Y43500000D03*
X61000000Y35500000D03*
X61000000Y47000000D03*
X66000000Y43500000D03*
X61000000Y43500000D03*
X56000000Y43500000D03*
X39000000Y35500000D03*
X39000000Y47000000D03*
X44000000Y43500000D03*
X39000000Y43500000D03*
X34000000Y43500000D03*
X17000000Y35500000D03*
X17000000Y47000000D03*
X22000000Y43500000D03*
X17000000Y43500000D03*
X12000000Y43500000D03*
X83000000Y6500000D03*
X83000000Y18000000D03*
X88000000Y14500000D03*
X83000000Y14500000D03*
X78000000Y14500000D03*
X61000000Y6500000D03*
X61000000Y18000000D03*
X66000000Y14500000D03*
X61000000Y14500000D03*
X56000000Y14500000D03*
X39000000Y6500000D03*
X39000000Y18000000D03*
X44000000Y14500000D03*
X39000000Y14500000D03*
X34000000Y14500000D03*
D15*
X33230000Y31700000D03*
X30690000Y31700000D03*
X28150000Y31700000D03*
X25610000Y31700000D03*
X23070000Y31700000D03*
X20530000Y31700000D03*
X17990000Y31700000D03*
X15450000Y31700000D03*
X12910000Y31700000D03*
D16*
X10370000Y31700000D03*
G04 #@! TA.AperFunction,SMDPad,CuDef*
D11*
G36*
X88711039Y4847245D02*
G01*
X88708194Y4837866D01*
X88703573Y4829221D01*
X88697355Y4821645D01*
X88689779Y4815427D01*
X88681134Y4810806D01*
X88671755Y4807961D01*
X88662000Y4807000D01*
X86862000Y4807000D01*
X86852245Y4807961D01*
X86842866Y4810806D01*
X86834221Y4815427D01*
X86826645Y4821645D01*
X86820427Y4829221D01*
X86815806Y4837866D01*
X86812961Y4847245D01*
X86812000Y4857000D01*
X86812000Y6357000D01*
X86812961Y6366755D01*
X86815806Y6376134D01*
X86820427Y6384779D01*
X86826645Y6392355D01*
X86834221Y6398573D01*
X86842866Y6403194D01*
X86852245Y6406039D01*
X86862000Y6407000D01*
X87162000Y6407000D01*
X87162000Y7057000D01*
X87162961Y7066755D01*
X87165806Y7076134D01*
X87170427Y7084779D01*
X87176645Y7092355D01*
X87184221Y7098573D01*
X87192866Y7103194D01*
X87202245Y7106039D01*
X87212000Y7107000D01*
X88312000Y7107000D01*
X88321755Y7106039D01*
X88331134Y7103194D01*
X88339779Y7098573D01*
X88347355Y7092355D01*
X88353573Y7084779D01*
X88358194Y7076134D01*
X88361039Y7066755D01*
X88362000Y7057000D01*
X88362000Y6407000D01*
X88662000Y6407000D01*
X88671755Y6406039D01*
X88681134Y6403194D01*
X88689779Y6398573D01*
X88697355Y6392355D01*
X88703573Y6384779D01*
X88708194Y6376134D01*
X88711039Y6366755D01*
X88712000Y6357000D01*
X88712000Y4857000D01*
X88711039Y4847245D01*
G37*
G04 #@! TD.AperFunction*
G04 #@! TA.AperFunction,SMDPad,CuDef*
G36*
X88711039Y8447245D02*
G01*
X88708194Y8437866D01*
X88703573Y8429221D01*
X88697355Y8421645D01*
X88689779Y8415427D01*
X88681134Y8410806D01*
X88671755Y8407961D01*
X88662000Y8407000D01*
X88362000Y8407000D01*
X88362000Y7757000D01*
X88361039Y7747245D01*
X88358194Y7737866D01*
X88353573Y7729221D01*
X88347355Y7721645D01*
X88339779Y7715427D01*
X88331134Y7710806D01*
X88321755Y7707961D01*
X88312000Y7707000D01*
X87212000Y7707000D01*
X87202245Y7707961D01*
X87192866Y7710806D01*
X87184221Y7715427D01*
X87176645Y7721645D01*
X87170427Y7729221D01*
X87165806Y7737866D01*
X87162961Y7747245D01*
X87162000Y7757000D01*
X87162000Y8407000D01*
X86862000Y8407000D01*
X86852245Y8407961D01*
X86842866Y8410806D01*
X86834221Y8415427D01*
X86826645Y8421645D01*
X86820427Y8429221D01*
X86815806Y8437866D01*
X86812961Y8447245D01*
X86812000Y8457000D01*
X86812000Y9957000D01*
X86812961Y9966755D01*
X86815806Y9976134D01*
X86820427Y9984779D01*
X86826645Y9992355D01*
X86834221Y9998573D01*
X86842866Y10003194D01*
X86852245Y10006039D01*
X86862000Y10007000D01*
X88662000Y10007000D01*
X88671755Y10006039D01*
X88681134Y10003194D01*
X88689779Y9998573D01*
X88697355Y9992355D01*
X88703573Y9984779D01*
X88708194Y9976134D01*
X88711039Y9966755D01*
X88712000Y9957000D01*
X88712000Y8457000D01*
X88711039Y8447245D01*
G37*
G04 #@! TD.AperFunction*
G04 #@! TA.AperFunction,SMDPad,CuDef*
G36*
X85640245Y11050961D02*
G01*
X85630866Y11053806D01*
X85622221Y11058427D01*
X85614645Y11064645D01*
X85608427Y11072221D01*
X85603806Y11080866D01*
X85600961Y11090245D01*
X85600000Y11100000D01*
X85600000Y12900000D01*
X85600961Y12909755D01*
X85603806Y12919134D01*
X85608427Y12927779D01*
X85614645Y12935355D01*
X85622221Y12941573D01*
X85630866Y12946194D01*
X85640245Y12949039D01*
X85650000Y12950000D01*
X87150000Y12950000D01*
X87159755Y12949039D01*
X87169134Y12946194D01*
X87177779Y12941573D01*
X87185355Y12935355D01*
X87191573Y12927779D01*
X87196194Y12919134D01*
X87199039Y12909755D01*
X87200000Y12900000D01*
X87200000Y12600000D01*
X87850000Y12600000D01*
X87859755Y12599039D01*
X87869134Y12596194D01*
X87877779Y12591573D01*
X87885355Y12585355D01*
X87891573Y12577779D01*
X87896194Y12569134D01*
X87899039Y12559755D01*
X87900000Y12550000D01*
X87900000Y11450000D01*
X87899039Y11440245D01*
X87896194Y11430866D01*
X87891573Y11422221D01*
X87885355Y11414645D01*
X87877779Y11408427D01*
X87869134Y11403806D01*
X87859755Y11400961D01*
X87850000Y11400000D01*
X87200000Y11400000D01*
X87200000Y11100000D01*
X87199039Y11090245D01*
X87196194Y11080866D01*
X87191573Y11072221D01*
X87185355Y11064645D01*
X87177779Y11058427D01*
X87169134Y11053806D01*
X87159755Y11050961D01*
X87150000Y11050000D01*
X85650000Y11050000D01*
X85640245Y11050961D01*
G37*
G04 #@! TD.AperFunction*
G04 #@! TA.AperFunction,SMDPad,CuDef*
G36*
X89240245Y11050961D02*
G01*
X89230866Y11053806D01*
X89222221Y11058427D01*
X89214645Y11064645D01*
X89208427Y11072221D01*
X89203806Y11080866D01*
X89200961Y11090245D01*
X89200000Y11100000D01*
X89200000Y11400000D01*
X88550000Y11400000D01*
X88540245Y11400961D01*
X88530866Y11403806D01*
X88522221Y11408427D01*
X88514645Y11414645D01*
X88508427Y11422221D01*
X88503806Y11430866D01*
X88500961Y11440245D01*
X88500000Y11450000D01*
X88500000Y12550000D01*
X88500961Y12559755D01*
X88503806Y12569134D01*
X88508427Y12577779D01*
X88514645Y12585355D01*
X88522221Y12591573D01*
X88530866Y12596194D01*
X88540245Y12599039D01*
X88550000Y12600000D01*
X89200000Y12600000D01*
X89200000Y12900000D01*
X89200961Y12909755D01*
X89203806Y12919134D01*
X89208427Y12927779D01*
X89214645Y12935355D01*
X89222221Y12941573D01*
X89230866Y12946194D01*
X89240245Y12949039D01*
X89250000Y12950000D01*
X90750000Y12950000D01*
X90759755Y12949039D01*
X90769134Y12946194D01*
X90777779Y12941573D01*
X90785355Y12935355D01*
X90791573Y12927779D01*
X90796194Y12919134D01*
X90799039Y12909755D01*
X90800000Y12900000D01*
X90800000Y11100000D01*
X90799039Y11090245D01*
X90796194Y11080866D01*
X90791573Y11072221D01*
X90785355Y11064645D01*
X90777779Y11058427D01*
X90769134Y11053806D01*
X90759755Y11050961D01*
X90750000Y11050000D01*
X89250000Y11050000D01*
X89240245Y11050961D01*
G37*
G04 #@! TD.AperFunction*
G04 #@! TA.AperFunction,SMDPad,CuDef*
G36*
X78849039Y4840245D02*
G01*
X78846194Y4830866D01*
X78841573Y4822221D01*
X78835355Y4814645D01*
X78827779Y4808427D01*
X78819134Y4803806D01*
X78809755Y4800961D01*
X78800000Y4800000D01*
X77000000Y4800000D01*
X76990245Y4800961D01*
X76980866Y4803806D01*
X76972221Y4808427D01*
X76964645Y4814645D01*
X76958427Y4822221D01*
X76953806Y4830866D01*
X76950961Y4840245D01*
X76950000Y4850000D01*
X76950000Y6350000D01*
X76950961Y6359755D01*
X76953806Y6369134D01*
X76958427Y6377779D01*
X76964645Y6385355D01*
X76972221Y6391573D01*
X76980866Y6396194D01*
X76990245Y6399039D01*
X77000000Y6400000D01*
X77300000Y6400000D01*
X77300000Y7050000D01*
X77300961Y7059755D01*
X77303806Y7069134D01*
X77308427Y7077779D01*
X77314645Y7085355D01*
X77322221Y7091573D01*
X77330866Y7096194D01*
X77340245Y7099039D01*
X77350000Y7100000D01*
X78450000Y7100000D01*
X78459755Y7099039D01*
X78469134Y7096194D01*
X78477779Y7091573D01*
X78485355Y7085355D01*
X78491573Y7077779D01*
X78496194Y7069134D01*
X78499039Y7059755D01*
X78500000Y7050000D01*
X78500000Y6400000D01*
X78800000Y6400000D01*
X78809755Y6399039D01*
X78819134Y6396194D01*
X78827779Y6391573D01*
X78835355Y6385355D01*
X78841573Y6377779D01*
X78846194Y6369134D01*
X78849039Y6359755D01*
X78850000Y6350000D01*
X78850000Y4850000D01*
X78849039Y4840245D01*
G37*
G04 #@! TD.AperFunction*
G04 #@! TA.AperFunction,SMDPad,CuDef*
G36*
X78849039Y8440245D02*
G01*
X78846194Y8430866D01*
X78841573Y8422221D01*
X78835355Y8414645D01*
X78827779Y8408427D01*
X78819134Y8403806D01*
X78809755Y8400961D01*
X78800000Y8400000D01*
X78500000Y8400000D01*
X78500000Y7750000D01*
X78499039Y7740245D01*
X78496194Y7730866D01*
X78491573Y7722221D01*
X78485355Y7714645D01*
X78477779Y7708427D01*
X78469134Y7703806D01*
X78459755Y7700961D01*
X78450000Y7700000D01*
X77350000Y7700000D01*
X77340245Y7700961D01*
X77330866Y7703806D01*
X77322221Y7708427D01*
X77314645Y7714645D01*
X77308427Y7722221D01*
X77303806Y7730866D01*
X77300961Y7740245D01*
X77300000Y7750000D01*
X77300000Y8400000D01*
X77000000Y8400000D01*
X76990245Y8400961D01*
X76980866Y8403806D01*
X76972221Y8408427D01*
X76964645Y8414645D01*
X76958427Y8422221D01*
X76953806Y8430866D01*
X76950961Y8440245D01*
X76950000Y8450000D01*
X76950000Y9950000D01*
X76950961Y9959755D01*
X76953806Y9969134D01*
X76958427Y9977779D01*
X76964645Y9985355D01*
X76972221Y9991573D01*
X76980866Y9996194D01*
X76990245Y9999039D01*
X77000000Y10000000D01*
X78800000Y10000000D01*
X78809755Y9999039D01*
X78819134Y9996194D01*
X78827779Y9991573D01*
X78835355Y9985355D01*
X78841573Y9977779D01*
X78846194Y9969134D01*
X78849039Y9959755D01*
X78850000Y9950000D01*
X78850000Y8450000D01*
X78849039Y8440245D01*
G37*
G04 #@! TD.AperFunction*
G04 #@! TA.AperFunction,SMDPad,CuDef*
G36*
X79840245Y8950961D02*
G01*
X79830866Y8953806D01*
X79822221Y8958427D01*
X79814645Y8964645D01*
X79808427Y8972221D01*
X79803806Y8980866D01*
X79800961Y8990245D01*
X79800000Y9000000D01*
X79800000Y10800000D01*
X79800961Y10809755D01*
X79803806Y10819134D01*
X79808427Y10827779D01*
X79814645Y10835355D01*
X79822221Y10841573D01*
X79830866Y10846194D01*
X79840245Y10849039D01*
X79850000Y10850000D01*
X81350000Y10850000D01*
X81359755Y10849039D01*
X81369134Y10846194D01*
X81377779Y10841573D01*
X81385355Y10835355D01*
X81391573Y10827779D01*
X81396194Y10819134D01*
X81399039Y10809755D01*
X81400000Y10800000D01*
X81400000Y10500000D01*
X82050000Y10500000D01*
X82059755Y10499039D01*
X82069134Y10496194D01*
X82077779Y10491573D01*
X82085355Y10485355D01*
X82091573Y10477779D01*
X82096194Y10469134D01*
X82099039Y10459755D01*
X82100000Y10450000D01*
X82100000Y9350000D01*
X82099039Y9340245D01*
X82096194Y9330866D01*
X82091573Y9322221D01*
X82085355Y9314645D01*
X82077779Y9308427D01*
X82069134Y9303806D01*
X82059755Y9300961D01*
X82050000Y9300000D01*
X81400000Y9300000D01*
X81400000Y9000000D01*
X81399039Y8990245D01*
X81396194Y8980866D01*
X81391573Y8972221D01*
X81385355Y8964645D01*
X81377779Y8958427D01*
X81369134Y8953806D01*
X81359755Y8950961D01*
X81350000Y8950000D01*
X79850000Y8950000D01*
X79840245Y8950961D01*
G37*
G04 #@! TD.AperFunction*
G04 #@! TA.AperFunction,SMDPad,CuDef*
G36*
X83440245Y8950961D02*
G01*
X83430866Y8953806D01*
X83422221Y8958427D01*
X83414645Y8964645D01*
X83408427Y8972221D01*
X83403806Y8980866D01*
X83400961Y8990245D01*
X83400000Y9000000D01*
X83400000Y9300000D01*
X82750000Y9300000D01*
X82740245Y9300961D01*
X82730866Y9303806D01*
X82722221Y9308427D01*
X82714645Y9314645D01*
X82708427Y9322221D01*
X82703806Y9330866D01*
X82700961Y9340245D01*
X82700000Y9350000D01*
X82700000Y10450000D01*
X82700961Y10459755D01*
X82703806Y10469134D01*
X82708427Y10477779D01*
X82714645Y10485355D01*
X82722221Y10491573D01*
X82730866Y10496194D01*
X82740245Y10499039D01*
X82750000Y10500000D01*
X83400000Y10500000D01*
X83400000Y10800000D01*
X83400961Y10809755D01*
X83403806Y10819134D01*
X83408427Y10827779D01*
X83414645Y10835355D01*
X83422221Y10841573D01*
X83430866Y10846194D01*
X83440245Y10849039D01*
X83450000Y10850000D01*
X84950000Y10850000D01*
X84959755Y10849039D01*
X84969134Y10846194D01*
X84977779Y10841573D01*
X84985355Y10835355D01*
X84991573Y10827779D01*
X84996194Y10819134D01*
X84999039Y10809755D01*
X85000000Y10800000D01*
X85000000Y9000000D01*
X84999039Y8990245D01*
X84996194Y8980866D01*
X84991573Y8972221D01*
X84985355Y8964645D01*
X84977779Y8958427D01*
X84969134Y8953806D01*
X84959755Y8950961D01*
X84950000Y8950000D01*
X83450000Y8950000D01*
X83440245Y8950961D01*
G37*
G04 #@! TD.AperFunction*
G04 #@! TA.AperFunction,SMDPad,CuDef*
G36*
X76349039Y4847245D02*
G01*
X76346194Y4837866D01*
X76341573Y4829221D01*
X76335355Y4821645D01*
X76327779Y4815427D01*
X76319134Y4810806D01*
X76309755Y4807961D01*
X76300000Y4807000D01*
X74500000Y4807000D01*
X74490245Y4807961D01*
X74480866Y4810806D01*
X74472221Y4815427D01*
X74464645Y4821645D01*
X74458427Y4829221D01*
X74453806Y4837866D01*
X74450961Y4847245D01*
X74450000Y4857000D01*
X74450000Y6357000D01*
X74450961Y6366755D01*
X74453806Y6376134D01*
X74458427Y6384779D01*
X74464645Y6392355D01*
X74472221Y6398573D01*
X74480866Y6403194D01*
X74490245Y6406039D01*
X74500000Y6407000D01*
X74800000Y6407000D01*
X74800000Y7057000D01*
X74800961Y7066755D01*
X74803806Y7076134D01*
X74808427Y7084779D01*
X74814645Y7092355D01*
X74822221Y7098573D01*
X74830866Y7103194D01*
X74840245Y7106039D01*
X74850000Y7107000D01*
X75950000Y7107000D01*
X75959755Y7106039D01*
X75969134Y7103194D01*
X75977779Y7098573D01*
X75985355Y7092355D01*
X75991573Y7084779D01*
X75996194Y7076134D01*
X75999039Y7066755D01*
X76000000Y7057000D01*
X76000000Y6407000D01*
X76300000Y6407000D01*
X76309755Y6406039D01*
X76319134Y6403194D01*
X76327779Y6398573D01*
X76335355Y6392355D01*
X76341573Y6384779D01*
X76346194Y6376134D01*
X76349039Y6366755D01*
X76350000Y6357000D01*
X76350000Y4857000D01*
X76349039Y4847245D01*
G37*
G04 #@! TD.AperFunction*
G04 #@! TA.AperFunction,SMDPad,CuDef*
G36*
X76349039Y8447245D02*
G01*
X76346194Y8437866D01*
X76341573Y8429221D01*
X76335355Y8421645D01*
X76327779Y8415427D01*
X76319134Y8410806D01*
X76309755Y8407961D01*
X76300000Y8407000D01*
X76000000Y8407000D01*
X76000000Y7757000D01*
X75999039Y7747245D01*
X75996194Y7737866D01*
X75991573Y7729221D01*
X75985355Y7721645D01*
X75977779Y7715427D01*
X75969134Y7710806D01*
X75959755Y7707961D01*
X75950000Y7707000D01*
X74850000Y7707000D01*
X74840245Y7707961D01*
X74830866Y7710806D01*
X74822221Y7715427D01*
X74814645Y7721645D01*
X74808427Y7729221D01*
X74803806Y7737866D01*
X74800961Y7747245D01*
X74800000Y7757000D01*
X74800000Y8407000D01*
X74500000Y8407000D01*
X74490245Y8407961D01*
X74480866Y8410806D01*
X74472221Y8415427D01*
X74464645Y8421645D01*
X74458427Y8429221D01*
X74453806Y8437866D01*
X74450961Y8447245D01*
X74450000Y8457000D01*
X74450000Y9957000D01*
X74450961Y9966755D01*
X74453806Y9976134D01*
X74458427Y9984779D01*
X74464645Y9992355D01*
X74472221Y9998573D01*
X74480866Y10003194D01*
X74490245Y10006039D01*
X74500000Y10007000D01*
X76300000Y10007000D01*
X76309755Y10006039D01*
X76319134Y10003194D01*
X76327779Y9998573D01*
X76335355Y9992355D01*
X76341573Y9984779D01*
X76346194Y9976134D01*
X76349039Y9966755D01*
X76350000Y9957000D01*
X76350000Y8457000D01*
X76349039Y8447245D01*
G37*
G04 #@! TD.AperFunction*
G04 #@! TA.AperFunction,SMDPad,CuDef*
G36*
X71340245Y10521961D02*
G01*
X71330866Y10524806D01*
X71322221Y10529427D01*
X71314645Y10535645D01*
X71308427Y10543221D01*
X71303806Y10551866D01*
X71300961Y10561245D01*
X71300000Y10571000D01*
X71300000Y12371000D01*
X71300961Y12380755D01*
X71303806Y12390134D01*
X71308427Y12398779D01*
X71314645Y12406355D01*
X71322221Y12412573D01*
X71330866Y12417194D01*
X71340245Y12420039D01*
X71350000Y12421000D01*
X72850000Y12421000D01*
X72859755Y12420039D01*
X72869134Y12417194D01*
X72877779Y12412573D01*
X72885355Y12406355D01*
X72891573Y12398779D01*
X72896194Y12390134D01*
X72899039Y12380755D01*
X72900000Y12371000D01*
X72900000Y12071000D01*
X73550000Y12071000D01*
X73559755Y12070039D01*
X73569134Y12067194D01*
X73577779Y12062573D01*
X73585355Y12056355D01*
X73591573Y12048779D01*
X73596194Y12040134D01*
X73599039Y12030755D01*
X73600000Y12021000D01*
X73600000Y10921000D01*
X73599039Y10911245D01*
X73596194Y10901866D01*
X73591573Y10893221D01*
X73585355Y10885645D01*
X73577779Y10879427D01*
X73569134Y10874806D01*
X73559755Y10871961D01*
X73550000Y10871000D01*
X72900000Y10871000D01*
X72900000Y10571000D01*
X72899039Y10561245D01*
X72896194Y10551866D01*
X72891573Y10543221D01*
X72885355Y10535645D01*
X72877779Y10529427D01*
X72869134Y10524806D01*
X72859755Y10521961D01*
X72850000Y10521000D01*
X71350000Y10521000D01*
X71340245Y10521961D01*
G37*
G04 #@! TD.AperFunction*
G04 #@! TA.AperFunction,SMDPad,CuDef*
G36*
X74940245Y10521961D02*
G01*
X74930866Y10524806D01*
X74922221Y10529427D01*
X74914645Y10535645D01*
X74908427Y10543221D01*
X74903806Y10551866D01*
X74900961Y10561245D01*
X74900000Y10571000D01*
X74900000Y10871000D01*
X74250000Y10871000D01*
X74240245Y10871961D01*
X74230866Y10874806D01*
X74222221Y10879427D01*
X74214645Y10885645D01*
X74208427Y10893221D01*
X74203806Y10901866D01*
X74200961Y10911245D01*
X74200000Y10921000D01*
X74200000Y12021000D01*
X74200961Y12030755D01*
X74203806Y12040134D01*
X74208427Y12048779D01*
X74214645Y12056355D01*
X74222221Y12062573D01*
X74230866Y12067194D01*
X74240245Y12070039D01*
X74250000Y12071000D01*
X74900000Y12071000D01*
X74900000Y12371000D01*
X74900961Y12380755D01*
X74903806Y12390134D01*
X74908427Y12398779D01*
X74914645Y12406355D01*
X74922221Y12412573D01*
X74930866Y12417194D01*
X74940245Y12420039D01*
X74950000Y12421000D01*
X76450000Y12421000D01*
X76459755Y12420039D01*
X76469134Y12417194D01*
X76477779Y12412573D01*
X76485355Y12406355D01*
X76491573Y12398779D01*
X76496194Y12390134D01*
X76499039Y12380755D01*
X76500000Y12371000D01*
X76500000Y10571000D01*
X76499039Y10561245D01*
X76496194Y10551866D01*
X76491573Y10543221D01*
X76485355Y10535645D01*
X76477779Y10529427D01*
X76469134Y10524806D01*
X76459755Y10521961D01*
X76450000Y10521000D01*
X74950000Y10521000D01*
X74940245Y10521961D01*
G37*
G04 #@! TD.AperFunction*
G04 #@! TA.AperFunction,SMDPad,CuDef*
G36*
X72455039Y4847245D02*
G01*
X72452194Y4837866D01*
X72447573Y4829221D01*
X72441355Y4821645D01*
X72433779Y4815427D01*
X72425134Y4810806D01*
X72415755Y4807961D01*
X72406000Y4807000D01*
X70606000Y4807000D01*
X70596245Y4807961D01*
X70586866Y4810806D01*
X70578221Y4815427D01*
X70570645Y4821645D01*
X70564427Y4829221D01*
X70559806Y4837866D01*
X70556961Y4847245D01*
X70556000Y4857000D01*
X70556000Y6357000D01*
X70556961Y6366755D01*
X70559806Y6376134D01*
X70564427Y6384779D01*
X70570645Y6392355D01*
X70578221Y6398573D01*
X70586866Y6403194D01*
X70596245Y6406039D01*
X70606000Y6407000D01*
X70906000Y6407000D01*
X70906000Y7057000D01*
X70906961Y7066755D01*
X70909806Y7076134D01*
X70914427Y7084779D01*
X70920645Y7092355D01*
X70928221Y7098573D01*
X70936866Y7103194D01*
X70946245Y7106039D01*
X70956000Y7107000D01*
X72056000Y7107000D01*
X72065755Y7106039D01*
X72075134Y7103194D01*
X72083779Y7098573D01*
X72091355Y7092355D01*
X72097573Y7084779D01*
X72102194Y7076134D01*
X72105039Y7066755D01*
X72106000Y7057000D01*
X72106000Y6407000D01*
X72406000Y6407000D01*
X72415755Y6406039D01*
X72425134Y6403194D01*
X72433779Y6398573D01*
X72441355Y6392355D01*
X72447573Y6384779D01*
X72452194Y6376134D01*
X72455039Y6366755D01*
X72456000Y6357000D01*
X72456000Y4857000D01*
X72455039Y4847245D01*
G37*
G04 #@! TD.AperFunction*
G04 #@! TA.AperFunction,SMDPad,CuDef*
G36*
X72455039Y8447245D02*
G01*
X72452194Y8437866D01*
X72447573Y8429221D01*
X72441355Y8421645D01*
X72433779Y8415427D01*
X72425134Y8410806D01*
X72415755Y8407961D01*
X72406000Y8407000D01*
X72106000Y8407000D01*
X72106000Y7757000D01*
X72105039Y7747245D01*
X72102194Y7737866D01*
X72097573Y7729221D01*
X72091355Y7721645D01*
X72083779Y7715427D01*
X72075134Y7710806D01*
X72065755Y7707961D01*
X72056000Y7707000D01*
X70956000Y7707000D01*
X70946245Y7707961D01*
X70936866Y7710806D01*
X70928221Y7715427D01*
X70920645Y7721645D01*
X70914427Y7729221D01*
X70909806Y7737866D01*
X70906961Y7747245D01*
X70906000Y7757000D01*
X70906000Y8407000D01*
X70606000Y8407000D01*
X70596245Y8407961D01*
X70586866Y8410806D01*
X70578221Y8415427D01*
X70570645Y8421645D01*
X70564427Y8429221D01*
X70559806Y8437866D01*
X70556961Y8447245D01*
X70556000Y8457000D01*
X70556000Y9957000D01*
X70556961Y9966755D01*
X70559806Y9976134D01*
X70564427Y9984779D01*
X70570645Y9992355D01*
X70578221Y9998573D01*
X70586866Y10003194D01*
X70596245Y10006039D01*
X70606000Y10007000D01*
X72406000Y10007000D01*
X72415755Y10006039D01*
X72425134Y10003194D01*
X72433779Y9998573D01*
X72441355Y9992355D01*
X72447573Y9984779D01*
X72452194Y9976134D01*
X72455039Y9966755D01*
X72456000Y9957000D01*
X72456000Y8457000D01*
X72455039Y8447245D01*
G37*
G04 #@! TD.AperFunction*
G04 #@! TA.AperFunction,SMDPad,CuDef*
G36*
X65644245Y10521961D02*
G01*
X65634866Y10524806D01*
X65626221Y10529427D01*
X65618645Y10535645D01*
X65612427Y10543221D01*
X65607806Y10551866D01*
X65604961Y10561245D01*
X65604000Y10571000D01*
X65604000Y12371000D01*
X65604961Y12380755D01*
X65607806Y12390134D01*
X65612427Y12398779D01*
X65618645Y12406355D01*
X65626221Y12412573D01*
X65634866Y12417194D01*
X65644245Y12420039D01*
X65654000Y12421000D01*
X67154000Y12421000D01*
X67163755Y12420039D01*
X67173134Y12417194D01*
X67181779Y12412573D01*
X67189355Y12406355D01*
X67195573Y12398779D01*
X67200194Y12390134D01*
X67203039Y12380755D01*
X67204000Y12371000D01*
X67204000Y12071000D01*
X67854000Y12071000D01*
X67863755Y12070039D01*
X67873134Y12067194D01*
X67881779Y12062573D01*
X67889355Y12056355D01*
X67895573Y12048779D01*
X67900194Y12040134D01*
X67903039Y12030755D01*
X67904000Y12021000D01*
X67904000Y10921000D01*
X67903039Y10911245D01*
X67900194Y10901866D01*
X67895573Y10893221D01*
X67889355Y10885645D01*
X67881779Y10879427D01*
X67873134Y10874806D01*
X67863755Y10871961D01*
X67854000Y10871000D01*
X67204000Y10871000D01*
X67204000Y10571000D01*
X67203039Y10561245D01*
X67200194Y10551866D01*
X67195573Y10543221D01*
X67189355Y10535645D01*
X67181779Y10529427D01*
X67173134Y10524806D01*
X67163755Y10521961D01*
X67154000Y10521000D01*
X65654000Y10521000D01*
X65644245Y10521961D01*
G37*
G04 #@! TD.AperFunction*
G04 #@! TA.AperFunction,SMDPad,CuDef*
G36*
X69244245Y10521961D02*
G01*
X69234866Y10524806D01*
X69226221Y10529427D01*
X69218645Y10535645D01*
X69212427Y10543221D01*
X69207806Y10551866D01*
X69204961Y10561245D01*
X69204000Y10571000D01*
X69204000Y10871000D01*
X68554000Y10871000D01*
X68544245Y10871961D01*
X68534866Y10874806D01*
X68526221Y10879427D01*
X68518645Y10885645D01*
X68512427Y10893221D01*
X68507806Y10901866D01*
X68504961Y10911245D01*
X68504000Y10921000D01*
X68504000Y12021000D01*
X68504961Y12030755D01*
X68507806Y12040134D01*
X68512427Y12048779D01*
X68518645Y12056355D01*
X68526221Y12062573D01*
X68534866Y12067194D01*
X68544245Y12070039D01*
X68554000Y12071000D01*
X69204000Y12071000D01*
X69204000Y12371000D01*
X69204961Y12380755D01*
X69207806Y12390134D01*
X69212427Y12398779D01*
X69218645Y12406355D01*
X69226221Y12412573D01*
X69234866Y12417194D01*
X69244245Y12420039D01*
X69254000Y12421000D01*
X70754000Y12421000D01*
X70763755Y12420039D01*
X70773134Y12417194D01*
X70781779Y12412573D01*
X70789355Y12406355D01*
X70795573Y12398779D01*
X70800194Y12390134D01*
X70803039Y12380755D01*
X70804000Y12371000D01*
X70804000Y10571000D01*
X70803039Y10561245D01*
X70800194Y10551866D01*
X70795573Y10543221D01*
X70789355Y10535645D01*
X70781779Y10529427D01*
X70773134Y10524806D01*
X70763755Y10521961D01*
X70754000Y10521000D01*
X69254000Y10521000D01*
X69244245Y10521961D01*
G37*
G04 #@! TD.AperFunction*
G04 #@! TA.AperFunction,SMDPad,CuDef*
G36*
X68949039Y4840245D02*
G01*
X68946194Y4830866D01*
X68941573Y4822221D01*
X68935355Y4814645D01*
X68927779Y4808427D01*
X68919134Y4803806D01*
X68909755Y4800961D01*
X68900000Y4800000D01*
X67100000Y4800000D01*
X67090245Y4800961D01*
X67080866Y4803806D01*
X67072221Y4808427D01*
X67064645Y4814645D01*
X67058427Y4822221D01*
X67053806Y4830866D01*
X67050961Y4840245D01*
X67050000Y4850000D01*
X67050000Y6350000D01*
X67050961Y6359755D01*
X67053806Y6369134D01*
X67058427Y6377779D01*
X67064645Y6385355D01*
X67072221Y6391573D01*
X67080866Y6396194D01*
X67090245Y6399039D01*
X67100000Y6400000D01*
X67400000Y6400000D01*
X67400000Y7050000D01*
X67400961Y7059755D01*
X67403806Y7069134D01*
X67408427Y7077779D01*
X67414645Y7085355D01*
X67422221Y7091573D01*
X67430866Y7096194D01*
X67440245Y7099039D01*
X67450000Y7100000D01*
X68550000Y7100000D01*
X68559755Y7099039D01*
X68569134Y7096194D01*
X68577779Y7091573D01*
X68585355Y7085355D01*
X68591573Y7077779D01*
X68596194Y7069134D01*
X68599039Y7059755D01*
X68600000Y7050000D01*
X68600000Y6400000D01*
X68900000Y6400000D01*
X68909755Y6399039D01*
X68919134Y6396194D01*
X68927779Y6391573D01*
X68935355Y6385355D01*
X68941573Y6377779D01*
X68946194Y6369134D01*
X68949039Y6359755D01*
X68950000Y6350000D01*
X68950000Y4850000D01*
X68949039Y4840245D01*
G37*
G04 #@! TD.AperFunction*
G04 #@! TA.AperFunction,SMDPad,CuDef*
G36*
X68949039Y8440245D02*
G01*
X68946194Y8430866D01*
X68941573Y8422221D01*
X68935355Y8414645D01*
X68927779Y8408427D01*
X68919134Y8403806D01*
X68909755Y8400961D01*
X68900000Y8400000D01*
X68600000Y8400000D01*
X68600000Y7750000D01*
X68599039Y7740245D01*
X68596194Y7730866D01*
X68591573Y7722221D01*
X68585355Y7714645D01*
X68577779Y7708427D01*
X68569134Y7703806D01*
X68559755Y7700961D01*
X68550000Y7700000D01*
X67450000Y7700000D01*
X67440245Y7700961D01*
X67430866Y7703806D01*
X67422221Y7708427D01*
X67414645Y7714645D01*
X67408427Y7722221D01*
X67403806Y7730866D01*
X67400961Y7740245D01*
X67400000Y7750000D01*
X67400000Y8400000D01*
X67100000Y8400000D01*
X67090245Y8400961D01*
X67080866Y8403806D01*
X67072221Y8408427D01*
X67064645Y8414645D01*
X67058427Y8422221D01*
X67053806Y8430866D01*
X67050961Y8440245D01*
X67050000Y8450000D01*
X67050000Y9950000D01*
X67050961Y9959755D01*
X67053806Y9969134D01*
X67058427Y9977779D01*
X67064645Y9985355D01*
X67072221Y9991573D01*
X67080866Y9996194D01*
X67090245Y9999039D01*
X67100000Y10000000D01*
X68900000Y10000000D01*
X68909755Y9999039D01*
X68919134Y9996194D01*
X68927779Y9991573D01*
X68935355Y9985355D01*
X68941573Y9977779D01*
X68946194Y9969134D01*
X68949039Y9959755D01*
X68950000Y9950000D01*
X68950000Y8450000D01*
X68949039Y8440245D01*
G37*
G04 #@! TD.AperFunction*
G04 #@! TA.AperFunction,SMDPad,CuDef*
G36*
X58440245Y8450961D02*
G01*
X58430866Y8453806D01*
X58422221Y8458427D01*
X58414645Y8464645D01*
X58408427Y8472221D01*
X58403806Y8480866D01*
X58400961Y8490245D01*
X58400000Y8500000D01*
X58400000Y10300000D01*
X58400961Y10309755D01*
X58403806Y10319134D01*
X58408427Y10327779D01*
X58414645Y10335355D01*
X58422221Y10341573D01*
X58430866Y10346194D01*
X58440245Y10349039D01*
X58450000Y10350000D01*
X59950000Y10350000D01*
X59959755Y10349039D01*
X59969134Y10346194D01*
X59977779Y10341573D01*
X59985355Y10335355D01*
X59991573Y10327779D01*
X59996194Y10319134D01*
X59999039Y10309755D01*
X60000000Y10300000D01*
X60000000Y10000000D01*
X60650000Y10000000D01*
X60659755Y9999039D01*
X60669134Y9996194D01*
X60677779Y9991573D01*
X60685355Y9985355D01*
X60691573Y9977779D01*
X60696194Y9969134D01*
X60699039Y9959755D01*
X60700000Y9950000D01*
X60700000Y8850000D01*
X60699039Y8840245D01*
X60696194Y8830866D01*
X60691573Y8822221D01*
X60685355Y8814645D01*
X60677779Y8808427D01*
X60669134Y8803806D01*
X60659755Y8800961D01*
X60650000Y8800000D01*
X60000000Y8800000D01*
X60000000Y8500000D01*
X59999039Y8490245D01*
X59996194Y8480866D01*
X59991573Y8472221D01*
X59985355Y8464645D01*
X59977779Y8458427D01*
X59969134Y8453806D01*
X59959755Y8450961D01*
X59950000Y8450000D01*
X58450000Y8450000D01*
X58440245Y8450961D01*
G37*
G04 #@! TD.AperFunction*
G04 #@! TA.AperFunction,SMDPad,CuDef*
G36*
X62040245Y8450961D02*
G01*
X62030866Y8453806D01*
X62022221Y8458427D01*
X62014645Y8464645D01*
X62008427Y8472221D01*
X62003806Y8480866D01*
X62000961Y8490245D01*
X62000000Y8500000D01*
X62000000Y8800000D01*
X61350000Y8800000D01*
X61340245Y8800961D01*
X61330866Y8803806D01*
X61322221Y8808427D01*
X61314645Y8814645D01*
X61308427Y8822221D01*
X61303806Y8830866D01*
X61300961Y8840245D01*
X61300000Y8850000D01*
X61300000Y9950000D01*
X61300961Y9959755D01*
X61303806Y9969134D01*
X61308427Y9977779D01*
X61314645Y9985355D01*
X61322221Y9991573D01*
X61330866Y9996194D01*
X61340245Y9999039D01*
X61350000Y10000000D01*
X62000000Y10000000D01*
X62000000Y10300000D01*
X62000961Y10309755D01*
X62003806Y10319134D01*
X62008427Y10327779D01*
X62014645Y10335355D01*
X62022221Y10341573D01*
X62030866Y10346194D01*
X62040245Y10349039D01*
X62050000Y10350000D01*
X63550000Y10350000D01*
X63559755Y10349039D01*
X63569134Y10346194D01*
X63577779Y10341573D01*
X63585355Y10335355D01*
X63591573Y10327779D01*
X63596194Y10319134D01*
X63599039Y10309755D01*
X63600000Y10300000D01*
X63600000Y8500000D01*
X63599039Y8490245D01*
X63596194Y8480866D01*
X63591573Y8472221D01*
X63585355Y8464645D01*
X63577779Y8458427D01*
X63569134Y8453806D01*
X63559755Y8450961D01*
X63550000Y8450000D01*
X62050000Y8450000D01*
X62040245Y8450961D01*
G37*
G04 #@! TD.AperFunction*
G04 #@! TA.AperFunction,SMDPad,CuDef*
G36*
X65949039Y4840245D02*
G01*
X65946194Y4830866D01*
X65941573Y4822221D01*
X65935355Y4814645D01*
X65927779Y4808427D01*
X65919134Y4803806D01*
X65909755Y4800961D01*
X65900000Y4800000D01*
X64100000Y4800000D01*
X64090245Y4800961D01*
X64080866Y4803806D01*
X64072221Y4808427D01*
X64064645Y4814645D01*
X64058427Y4822221D01*
X64053806Y4830866D01*
X64050961Y4840245D01*
X64050000Y4850000D01*
X64050000Y6350000D01*
X64050961Y6359755D01*
X64053806Y6369134D01*
X64058427Y6377779D01*
X64064645Y6385355D01*
X64072221Y6391573D01*
X64080866Y6396194D01*
X64090245Y6399039D01*
X64100000Y6400000D01*
X64400000Y6400000D01*
X64400000Y7050000D01*
X64400961Y7059755D01*
X64403806Y7069134D01*
X64408427Y7077779D01*
X64414645Y7085355D01*
X64422221Y7091573D01*
X64430866Y7096194D01*
X64440245Y7099039D01*
X64450000Y7100000D01*
X65550000Y7100000D01*
X65559755Y7099039D01*
X65569134Y7096194D01*
X65577779Y7091573D01*
X65585355Y7085355D01*
X65591573Y7077779D01*
X65596194Y7069134D01*
X65599039Y7059755D01*
X65600000Y7050000D01*
X65600000Y6400000D01*
X65900000Y6400000D01*
X65909755Y6399039D01*
X65919134Y6396194D01*
X65927779Y6391573D01*
X65935355Y6385355D01*
X65941573Y6377779D01*
X65946194Y6369134D01*
X65949039Y6359755D01*
X65950000Y6350000D01*
X65950000Y4850000D01*
X65949039Y4840245D01*
G37*
G04 #@! TD.AperFunction*
G04 #@! TA.AperFunction,SMDPad,CuDef*
G36*
X65949039Y8440245D02*
G01*
X65946194Y8430866D01*
X65941573Y8422221D01*
X65935355Y8414645D01*
X65927779Y8408427D01*
X65919134Y8403806D01*
X65909755Y8400961D01*
X65900000Y8400000D01*
X65600000Y8400000D01*
X65600000Y7750000D01*
X65599039Y7740245D01*
X65596194Y7730866D01*
X65591573Y7722221D01*
X65585355Y7714645D01*
X65577779Y7708427D01*
X65569134Y7703806D01*
X65559755Y7700961D01*
X65550000Y7700000D01*
X64450000Y7700000D01*
X64440245Y7700961D01*
X64430866Y7703806D01*
X64422221Y7708427D01*
X64414645Y7714645D01*
X64408427Y7722221D01*
X64403806Y7730866D01*
X64400961Y7740245D01*
X64400000Y7750000D01*
X64400000Y8400000D01*
X64100000Y8400000D01*
X64090245Y8400961D01*
X64080866Y8403806D01*
X64072221Y8408427D01*
X64064645Y8414645D01*
X64058427Y8422221D01*
X64053806Y8430866D01*
X64050961Y8440245D01*
X64050000Y8450000D01*
X64050000Y9950000D01*
X64050961Y9959755D01*
X64053806Y9969134D01*
X64058427Y9977779D01*
X64064645Y9985355D01*
X64072221Y9991573D01*
X64080866Y9996194D01*
X64090245Y9999039D01*
X64100000Y10000000D01*
X65900000Y10000000D01*
X65909755Y9999039D01*
X65919134Y9996194D01*
X65927779Y9991573D01*
X65935355Y9985355D01*
X65941573Y9977779D01*
X65946194Y9969134D01*
X65949039Y9959755D01*
X65950000Y9950000D01*
X65950000Y8450000D01*
X65949039Y8440245D01*
G37*
G04 #@! TD.AperFunction*
G04 #@! TA.AperFunction,SMDPad,CuDef*
G36*
X53940245Y10950961D02*
G01*
X53930866Y10953806D01*
X53922221Y10958427D01*
X53914645Y10964645D01*
X53908427Y10972221D01*
X53903806Y10980866D01*
X53900961Y10990245D01*
X53900000Y11000000D01*
X53900000Y12800000D01*
X53900961Y12809755D01*
X53903806Y12819134D01*
X53908427Y12827779D01*
X53914645Y12835355D01*
X53922221Y12841573D01*
X53930866Y12846194D01*
X53940245Y12849039D01*
X53950000Y12850000D01*
X55450000Y12850000D01*
X55459755Y12849039D01*
X55469134Y12846194D01*
X55477779Y12841573D01*
X55485355Y12835355D01*
X55491573Y12827779D01*
X55496194Y12819134D01*
X55499039Y12809755D01*
X55500000Y12800000D01*
X55500000Y12500000D01*
X56150000Y12500000D01*
X56159755Y12499039D01*
X56169134Y12496194D01*
X56177779Y12491573D01*
X56185355Y12485355D01*
X56191573Y12477779D01*
X56196194Y12469134D01*
X56199039Y12459755D01*
X56200000Y12450000D01*
X56200000Y11350000D01*
X56199039Y11340245D01*
X56196194Y11330866D01*
X56191573Y11322221D01*
X56185355Y11314645D01*
X56177779Y11308427D01*
X56169134Y11303806D01*
X56159755Y11300961D01*
X56150000Y11300000D01*
X55500000Y11300000D01*
X55500000Y11000000D01*
X55499039Y10990245D01*
X55496194Y10980866D01*
X55491573Y10972221D01*
X55485355Y10964645D01*
X55477779Y10958427D01*
X55469134Y10953806D01*
X55459755Y10950961D01*
X55450000Y10950000D01*
X53950000Y10950000D01*
X53940245Y10950961D01*
G37*
G04 #@! TD.AperFunction*
G04 #@! TA.AperFunction,SMDPad,CuDef*
G36*
X57540245Y10950961D02*
G01*
X57530866Y10953806D01*
X57522221Y10958427D01*
X57514645Y10964645D01*
X57508427Y10972221D01*
X57503806Y10980866D01*
X57500961Y10990245D01*
X57500000Y11000000D01*
X57500000Y11300000D01*
X56850000Y11300000D01*
X56840245Y11300961D01*
X56830866Y11303806D01*
X56822221Y11308427D01*
X56814645Y11314645D01*
X56808427Y11322221D01*
X56803806Y11330866D01*
X56800961Y11340245D01*
X56800000Y11350000D01*
X56800000Y12450000D01*
X56800961Y12459755D01*
X56803806Y12469134D01*
X56808427Y12477779D01*
X56814645Y12485355D01*
X56822221Y12491573D01*
X56830866Y12496194D01*
X56840245Y12499039D01*
X56850000Y12500000D01*
X57500000Y12500000D01*
X57500000Y12800000D01*
X57500961Y12809755D01*
X57503806Y12819134D01*
X57508427Y12827779D01*
X57514645Y12835355D01*
X57522221Y12841573D01*
X57530866Y12846194D01*
X57540245Y12849039D01*
X57550000Y12850000D01*
X59050000Y12850000D01*
X59059755Y12849039D01*
X59069134Y12846194D01*
X59077779Y12841573D01*
X59085355Y12835355D01*
X59091573Y12827779D01*
X59096194Y12819134D01*
X59099039Y12809755D01*
X59100000Y12800000D01*
X59100000Y11000000D01*
X59099039Y10990245D01*
X59096194Y10980866D01*
X59091573Y10972221D01*
X59085355Y10964645D01*
X59077779Y10958427D01*
X59069134Y10953806D01*
X59059755Y10950961D01*
X59050000Y10950000D01*
X57550000Y10950000D01*
X57540245Y10950961D01*
G37*
G04 #@! TD.AperFunction*
G04 #@! TA.AperFunction,SMDPad,CuDef*
G36*
X56949039Y4840245D02*
G01*
X56946194Y4830866D01*
X56941573Y4822221D01*
X56935355Y4814645D01*
X56927779Y4808427D01*
X56919134Y4803806D01*
X56909755Y4800961D01*
X56900000Y4800000D01*
X55100000Y4800000D01*
X55090245Y4800961D01*
X55080866Y4803806D01*
X55072221Y4808427D01*
X55064645Y4814645D01*
X55058427Y4822221D01*
X55053806Y4830866D01*
X55050961Y4840245D01*
X55050000Y4850000D01*
X55050000Y6350000D01*
X55050961Y6359755D01*
X55053806Y6369134D01*
X55058427Y6377779D01*
X55064645Y6385355D01*
X55072221Y6391573D01*
X55080866Y6396194D01*
X55090245Y6399039D01*
X55100000Y6400000D01*
X55400000Y6400000D01*
X55400000Y7050000D01*
X55400961Y7059755D01*
X55403806Y7069134D01*
X55408427Y7077779D01*
X55414645Y7085355D01*
X55422221Y7091573D01*
X55430866Y7096194D01*
X55440245Y7099039D01*
X55450000Y7100000D01*
X56550000Y7100000D01*
X56559755Y7099039D01*
X56569134Y7096194D01*
X56577779Y7091573D01*
X56585355Y7085355D01*
X56591573Y7077779D01*
X56596194Y7069134D01*
X56599039Y7059755D01*
X56600000Y7050000D01*
X56600000Y6400000D01*
X56900000Y6400000D01*
X56909755Y6399039D01*
X56919134Y6396194D01*
X56927779Y6391573D01*
X56935355Y6385355D01*
X56941573Y6377779D01*
X56946194Y6369134D01*
X56949039Y6359755D01*
X56950000Y6350000D01*
X56950000Y4850000D01*
X56949039Y4840245D01*
G37*
G04 #@! TD.AperFunction*
G04 #@! TA.AperFunction,SMDPad,CuDef*
G36*
X56949039Y8440245D02*
G01*
X56946194Y8430866D01*
X56941573Y8422221D01*
X56935355Y8414645D01*
X56927779Y8408427D01*
X56919134Y8403806D01*
X56909755Y8400961D01*
X56900000Y8400000D01*
X56600000Y8400000D01*
X56600000Y7750000D01*
X56599039Y7740245D01*
X56596194Y7730866D01*
X56591573Y7722221D01*
X56585355Y7714645D01*
X56577779Y7708427D01*
X56569134Y7703806D01*
X56559755Y7700961D01*
X56550000Y7700000D01*
X55450000Y7700000D01*
X55440245Y7700961D01*
X55430866Y7703806D01*
X55422221Y7708427D01*
X55414645Y7714645D01*
X55408427Y7722221D01*
X55403806Y7730866D01*
X55400961Y7740245D01*
X55400000Y7750000D01*
X55400000Y8400000D01*
X55100000Y8400000D01*
X55090245Y8400961D01*
X55080866Y8403806D01*
X55072221Y8408427D01*
X55064645Y8414645D01*
X55058427Y8422221D01*
X55053806Y8430866D01*
X55050961Y8440245D01*
X55050000Y8450000D01*
X55050000Y9950000D01*
X55050961Y9959755D01*
X55053806Y9969134D01*
X55058427Y9977779D01*
X55064645Y9985355D01*
X55072221Y9991573D01*
X55080866Y9996194D01*
X55090245Y9999039D01*
X55100000Y10000000D01*
X56900000Y10000000D01*
X56909755Y9999039D01*
X56919134Y9996194D01*
X56927779Y9991573D01*
X56935355Y9985355D01*
X56941573Y9977779D01*
X56946194Y9969134D01*
X56949039Y9959755D01*
X56950000Y9950000D01*
X56950000Y8450000D01*
X56949039Y8440245D01*
G37*
G04 #@! TD.AperFunction*
G04 #@! TA.AperFunction,SMDPad,CuDef*
G36*
X44324245Y10934961D02*
G01*
X44314866Y10937806D01*
X44306221Y10942427D01*
X44298645Y10948645D01*
X44292427Y10956221D01*
X44287806Y10964866D01*
X44284961Y10974245D01*
X44284000Y10984000D01*
X44284000Y12784000D01*
X44284961Y12793755D01*
X44287806Y12803134D01*
X44292427Y12811779D01*
X44298645Y12819355D01*
X44306221Y12825573D01*
X44314866Y12830194D01*
X44324245Y12833039D01*
X44334000Y12834000D01*
X45834000Y12834000D01*
X45843755Y12833039D01*
X45853134Y12830194D01*
X45861779Y12825573D01*
X45869355Y12819355D01*
X45875573Y12811779D01*
X45880194Y12803134D01*
X45883039Y12793755D01*
X45884000Y12784000D01*
X45884000Y12484000D01*
X46534000Y12484000D01*
X46543755Y12483039D01*
X46553134Y12480194D01*
X46561779Y12475573D01*
X46569355Y12469355D01*
X46575573Y12461779D01*
X46580194Y12453134D01*
X46583039Y12443755D01*
X46584000Y12434000D01*
X46584000Y11334000D01*
X46583039Y11324245D01*
X46580194Y11314866D01*
X46575573Y11306221D01*
X46569355Y11298645D01*
X46561779Y11292427D01*
X46553134Y11287806D01*
X46543755Y11284961D01*
X46534000Y11284000D01*
X45884000Y11284000D01*
X45884000Y10984000D01*
X45883039Y10974245D01*
X45880194Y10964866D01*
X45875573Y10956221D01*
X45869355Y10948645D01*
X45861779Y10942427D01*
X45853134Y10937806D01*
X45843755Y10934961D01*
X45834000Y10934000D01*
X44334000Y10934000D01*
X44324245Y10934961D01*
G37*
G04 #@! TD.AperFunction*
G04 #@! TA.AperFunction,SMDPad,CuDef*
G36*
X47924245Y10934961D02*
G01*
X47914866Y10937806D01*
X47906221Y10942427D01*
X47898645Y10948645D01*
X47892427Y10956221D01*
X47887806Y10964866D01*
X47884961Y10974245D01*
X47884000Y10984000D01*
X47884000Y11284000D01*
X47234000Y11284000D01*
X47224245Y11284961D01*
X47214866Y11287806D01*
X47206221Y11292427D01*
X47198645Y11298645D01*
X47192427Y11306221D01*
X47187806Y11314866D01*
X47184961Y11324245D01*
X47184000Y11334000D01*
X47184000Y12434000D01*
X47184961Y12443755D01*
X47187806Y12453134D01*
X47192427Y12461779D01*
X47198645Y12469355D01*
X47206221Y12475573D01*
X47214866Y12480194D01*
X47224245Y12483039D01*
X47234000Y12484000D01*
X47884000Y12484000D01*
X47884000Y12784000D01*
X47884961Y12793755D01*
X47887806Y12803134D01*
X47892427Y12811779D01*
X47898645Y12819355D01*
X47906221Y12825573D01*
X47914866Y12830194D01*
X47924245Y12833039D01*
X47934000Y12834000D01*
X49434000Y12834000D01*
X49443755Y12833039D01*
X49453134Y12830194D01*
X49461779Y12825573D01*
X49469355Y12819355D01*
X49475573Y12811779D01*
X49480194Y12803134D01*
X49483039Y12793755D01*
X49484000Y12784000D01*
X49484000Y10984000D01*
X49483039Y10974245D01*
X49480194Y10964866D01*
X49475573Y10956221D01*
X49469355Y10948645D01*
X49461779Y10942427D01*
X49453134Y10937806D01*
X49443755Y10934961D01*
X49434000Y10934000D01*
X47934000Y10934000D01*
X47924245Y10934961D01*
G37*
G04 #@! TD.AperFunction*
G04 #@! TA.AperFunction,SMDPad,CuDef*
G36*
X43747039Y7292245D02*
G01*
X43744194Y7282866D01*
X43739573Y7274221D01*
X43733355Y7266645D01*
X43725779Y7260427D01*
X43717134Y7255806D01*
X43707755Y7252961D01*
X43698000Y7252000D01*
X41898000Y7252000D01*
X41888245Y7252961D01*
X41878866Y7255806D01*
X41870221Y7260427D01*
X41862645Y7266645D01*
X41856427Y7274221D01*
X41851806Y7282866D01*
X41848961Y7292245D01*
X41848000Y7302000D01*
X41848000Y8802000D01*
X41848961Y8811755D01*
X41851806Y8821134D01*
X41856427Y8829779D01*
X41862645Y8837355D01*
X41870221Y8843573D01*
X41878866Y8848194D01*
X41888245Y8851039D01*
X41898000Y8852000D01*
X42198000Y8852000D01*
X42198000Y9502000D01*
X42198961Y9511755D01*
X42201806Y9521134D01*
X42206427Y9529779D01*
X42212645Y9537355D01*
X42220221Y9543573D01*
X42228866Y9548194D01*
X42238245Y9551039D01*
X42248000Y9552000D01*
X43348000Y9552000D01*
X43357755Y9551039D01*
X43367134Y9548194D01*
X43375779Y9543573D01*
X43383355Y9537355D01*
X43389573Y9529779D01*
X43394194Y9521134D01*
X43397039Y9511755D01*
X43398000Y9502000D01*
X43398000Y8852000D01*
X43698000Y8852000D01*
X43707755Y8851039D01*
X43717134Y8848194D01*
X43725779Y8843573D01*
X43733355Y8837355D01*
X43739573Y8829779D01*
X43744194Y8821134D01*
X43747039Y8811755D01*
X43748000Y8802000D01*
X43748000Y7302000D01*
X43747039Y7292245D01*
G37*
G04 #@! TD.AperFunction*
G04 #@! TA.AperFunction,SMDPad,CuDef*
G36*
X43747039Y10892245D02*
G01*
X43744194Y10882866D01*
X43739573Y10874221D01*
X43733355Y10866645D01*
X43725779Y10860427D01*
X43717134Y10855806D01*
X43707755Y10852961D01*
X43698000Y10852000D01*
X43398000Y10852000D01*
X43398000Y10202000D01*
X43397039Y10192245D01*
X43394194Y10182866D01*
X43389573Y10174221D01*
X43383355Y10166645D01*
X43375779Y10160427D01*
X43367134Y10155806D01*
X43357755Y10152961D01*
X43348000Y10152000D01*
X42248000Y10152000D01*
X42238245Y10152961D01*
X42228866Y10155806D01*
X42220221Y10160427D01*
X42212645Y10166645D01*
X42206427Y10174221D01*
X42201806Y10182866D01*
X42198961Y10192245D01*
X42198000Y10202000D01*
X42198000Y10852000D01*
X41898000Y10852000D01*
X41888245Y10852961D01*
X41878866Y10855806D01*
X41870221Y10860427D01*
X41862645Y10866645D01*
X41856427Y10874221D01*
X41851806Y10882866D01*
X41848961Y10892245D01*
X41848000Y10902000D01*
X41848000Y12402000D01*
X41848961Y12411755D01*
X41851806Y12421134D01*
X41856427Y12429779D01*
X41862645Y12437355D01*
X41870221Y12443573D01*
X41878866Y12448194D01*
X41888245Y12451039D01*
X41898000Y12452000D01*
X43698000Y12452000D01*
X43707755Y12451039D01*
X43717134Y12448194D01*
X43725779Y12443573D01*
X43733355Y12437355D01*
X43739573Y12429779D01*
X43744194Y12421134D01*
X43747039Y12411755D01*
X43748000Y12402000D01*
X43748000Y10902000D01*
X43747039Y10892245D01*
G37*
G04 #@! TD.AperFunction*
G04 #@! TA.AperFunction,SMDPad,CuDef*
G36*
X30940245Y11150961D02*
G01*
X30930866Y11153806D01*
X30922221Y11158427D01*
X30914645Y11164645D01*
X30908427Y11172221D01*
X30903806Y11180866D01*
X30900961Y11190245D01*
X30900000Y11200000D01*
X30900000Y13000000D01*
X30900961Y13009755D01*
X30903806Y13019134D01*
X30908427Y13027779D01*
X30914645Y13035355D01*
X30922221Y13041573D01*
X30930866Y13046194D01*
X30940245Y13049039D01*
X30950000Y13050000D01*
X32450000Y13050000D01*
X32459755Y13049039D01*
X32469134Y13046194D01*
X32477779Y13041573D01*
X32485355Y13035355D01*
X32491573Y13027779D01*
X32496194Y13019134D01*
X32499039Y13009755D01*
X32500000Y13000000D01*
X32500000Y12700000D01*
X33150000Y12700000D01*
X33159755Y12699039D01*
X33169134Y12696194D01*
X33177779Y12691573D01*
X33185355Y12685355D01*
X33191573Y12677779D01*
X33196194Y12669134D01*
X33199039Y12659755D01*
X33200000Y12650000D01*
X33200000Y11550000D01*
X33199039Y11540245D01*
X33196194Y11530866D01*
X33191573Y11522221D01*
X33185355Y11514645D01*
X33177779Y11508427D01*
X33169134Y11503806D01*
X33159755Y11500961D01*
X33150000Y11500000D01*
X32500000Y11500000D01*
X32500000Y11200000D01*
X32499039Y11190245D01*
X32496194Y11180866D01*
X32491573Y11172221D01*
X32485355Y11164645D01*
X32477779Y11158427D01*
X32469134Y11153806D01*
X32459755Y11150961D01*
X32450000Y11150000D01*
X30950000Y11150000D01*
X30940245Y11150961D01*
G37*
G04 #@! TD.AperFunction*
G04 #@! TA.AperFunction,SMDPad,CuDef*
G36*
X34540245Y11150961D02*
G01*
X34530866Y11153806D01*
X34522221Y11158427D01*
X34514645Y11164645D01*
X34508427Y11172221D01*
X34503806Y11180866D01*
X34500961Y11190245D01*
X34500000Y11200000D01*
X34500000Y11500000D01*
X33850000Y11500000D01*
X33840245Y11500961D01*
X33830866Y11503806D01*
X33822221Y11508427D01*
X33814645Y11514645D01*
X33808427Y11522221D01*
X33803806Y11530866D01*
X33800961Y11540245D01*
X33800000Y11550000D01*
X33800000Y12650000D01*
X33800961Y12659755D01*
X33803806Y12669134D01*
X33808427Y12677779D01*
X33814645Y12685355D01*
X33822221Y12691573D01*
X33830866Y12696194D01*
X33840245Y12699039D01*
X33850000Y12700000D01*
X34500000Y12700000D01*
X34500000Y13000000D01*
X34500961Y13009755D01*
X34503806Y13019134D01*
X34508427Y13027779D01*
X34514645Y13035355D01*
X34522221Y13041573D01*
X34530866Y13046194D01*
X34540245Y13049039D01*
X34550000Y13050000D01*
X36050000Y13050000D01*
X36059755Y13049039D01*
X36069134Y13046194D01*
X36077779Y13041573D01*
X36085355Y13035355D01*
X36091573Y13027779D01*
X36096194Y13019134D01*
X36099039Y13009755D01*
X36100000Y13000000D01*
X36100000Y11200000D01*
X36099039Y11190245D01*
X36096194Y11180866D01*
X36091573Y11172221D01*
X36085355Y11164645D01*
X36077779Y11158427D01*
X36069134Y11153806D01*
X36059755Y11150961D01*
X36050000Y11150000D01*
X34550000Y11150000D01*
X34540245Y11150961D01*
G37*
G04 #@! TD.AperFunction*
D15*
X10540000Y2500000D03*
X13080000Y2500000D03*
X15620000Y2500000D03*
X18160000Y2500000D03*
X20700000Y2500000D03*
X23240000Y2500000D03*
X25780000Y2500000D03*
X28320000Y2500000D03*
X30860000Y2500000D03*
D16*
X33400000Y2500000D03*
G04 #@! TA.AperFunction,SMDPad,CuDef*
D11*
G36*
X19459755Y53249039D02*
G01*
X19469134Y53246194D01*
X19477779Y53241573D01*
X19485355Y53235355D01*
X19491573Y53227779D01*
X19496194Y53219134D01*
X19499039Y53209755D01*
X19500000Y53200000D01*
X19500000Y51400000D01*
X19499039Y51390245D01*
X19496194Y51380866D01*
X19491573Y51372221D01*
X19485355Y51364645D01*
X19477779Y51358427D01*
X19469134Y51353806D01*
X19459755Y51350961D01*
X19450000Y51350000D01*
X17950000Y51350000D01*
X17940245Y51350961D01*
X17930866Y51353806D01*
X17922221Y51358427D01*
X17914645Y51364645D01*
X17908427Y51372221D01*
X17903806Y51380866D01*
X17900961Y51390245D01*
X17900000Y51400000D01*
X17900000Y51700000D01*
X17250000Y51700000D01*
X17240245Y51700961D01*
X17230866Y51703806D01*
X17222221Y51708427D01*
X17214645Y51714645D01*
X17208427Y51722221D01*
X17203806Y51730866D01*
X17200961Y51740245D01*
X17200000Y51750000D01*
X17200000Y52850000D01*
X17200961Y52859755D01*
X17203806Y52869134D01*
X17208427Y52877779D01*
X17214645Y52885355D01*
X17222221Y52891573D01*
X17230866Y52896194D01*
X17240245Y52899039D01*
X17250000Y52900000D01*
X17900000Y52900000D01*
X17900000Y53200000D01*
X17900961Y53209755D01*
X17903806Y53219134D01*
X17908427Y53227779D01*
X17914645Y53235355D01*
X17922221Y53241573D01*
X17930866Y53246194D01*
X17940245Y53249039D01*
X17950000Y53250000D01*
X19450000Y53250000D01*
X19459755Y53249039D01*
G37*
G04 #@! TD.AperFunction*
G04 #@! TA.AperFunction,SMDPad,CuDef*
G36*
X15859755Y53249039D02*
G01*
X15869134Y53246194D01*
X15877779Y53241573D01*
X15885355Y53235355D01*
X15891573Y53227779D01*
X15896194Y53219134D01*
X15899039Y53209755D01*
X15900000Y53200000D01*
X15900000Y52900000D01*
X16550000Y52900000D01*
X16559755Y52899039D01*
X16569134Y52896194D01*
X16577779Y52891573D01*
X16585355Y52885355D01*
X16591573Y52877779D01*
X16596194Y52869134D01*
X16599039Y52859755D01*
X16600000Y52850000D01*
X16600000Y51750000D01*
X16599039Y51740245D01*
X16596194Y51730866D01*
X16591573Y51722221D01*
X16585355Y51714645D01*
X16577779Y51708427D01*
X16569134Y51703806D01*
X16559755Y51700961D01*
X16550000Y51700000D01*
X15900000Y51700000D01*
X15900000Y51400000D01*
X15899039Y51390245D01*
X15896194Y51380866D01*
X15891573Y51372221D01*
X15885355Y51364645D01*
X15877779Y51358427D01*
X15869134Y51353806D01*
X15859755Y51350961D01*
X15850000Y51350000D01*
X14350000Y51350000D01*
X14340245Y51350961D01*
X14330866Y51353806D01*
X14322221Y51358427D01*
X14314645Y51364645D01*
X14308427Y51372221D01*
X14303806Y51380866D01*
X14300961Y51390245D01*
X14300000Y51400000D01*
X14300000Y53200000D01*
X14300961Y53209755D01*
X14303806Y53219134D01*
X14308427Y53227779D01*
X14314645Y53235355D01*
X14322221Y53241573D01*
X14330866Y53246194D01*
X14340245Y53249039D01*
X14350000Y53250000D01*
X15850000Y53250000D01*
X15859755Y53249039D01*
G37*
G04 #@! TD.AperFunction*
G04 #@! TA.AperFunction,SMDPad,CuDef*
G36*
X19963755Y24358039D02*
G01*
X19973134Y24355194D01*
X19981779Y24350573D01*
X19989355Y24344355D01*
X19995573Y24336779D01*
X20000194Y24328134D01*
X20003039Y24318755D01*
X20004000Y24309000D01*
X20004000Y22509000D01*
X20003039Y22499245D01*
X20000194Y22489866D01*
X19995573Y22481221D01*
X19989355Y22473645D01*
X19981779Y22467427D01*
X19973134Y22462806D01*
X19963755Y22459961D01*
X19954000Y22459000D01*
X18454000Y22459000D01*
X18444245Y22459961D01*
X18434866Y22462806D01*
X18426221Y22467427D01*
X18418645Y22473645D01*
X18412427Y22481221D01*
X18407806Y22489866D01*
X18404961Y22499245D01*
X18404000Y22509000D01*
X18404000Y22809000D01*
X17754000Y22809000D01*
X17744245Y22809961D01*
X17734866Y22812806D01*
X17726221Y22817427D01*
X17718645Y22823645D01*
X17712427Y22831221D01*
X17707806Y22839866D01*
X17704961Y22849245D01*
X17704000Y22859000D01*
X17704000Y23959000D01*
X17704961Y23968755D01*
X17707806Y23978134D01*
X17712427Y23986779D01*
X17718645Y23994355D01*
X17726221Y24000573D01*
X17734866Y24005194D01*
X17744245Y24008039D01*
X17754000Y24009000D01*
X18404000Y24009000D01*
X18404000Y24309000D01*
X18404961Y24318755D01*
X18407806Y24328134D01*
X18412427Y24336779D01*
X18418645Y24344355D01*
X18426221Y24350573D01*
X18434866Y24355194D01*
X18444245Y24358039D01*
X18454000Y24359000D01*
X19954000Y24359000D01*
X19963755Y24358039D01*
G37*
G04 #@! TD.AperFunction*
G04 #@! TA.AperFunction,SMDPad,CuDef*
G36*
X16363755Y24358039D02*
G01*
X16373134Y24355194D01*
X16381779Y24350573D01*
X16389355Y24344355D01*
X16395573Y24336779D01*
X16400194Y24328134D01*
X16403039Y24318755D01*
X16404000Y24309000D01*
X16404000Y24009000D01*
X17054000Y24009000D01*
X17063755Y24008039D01*
X17073134Y24005194D01*
X17081779Y24000573D01*
X17089355Y23994355D01*
X17095573Y23986779D01*
X17100194Y23978134D01*
X17103039Y23968755D01*
X17104000Y23959000D01*
X17104000Y22859000D01*
X17103039Y22849245D01*
X17100194Y22839866D01*
X17095573Y22831221D01*
X17089355Y22823645D01*
X17081779Y22817427D01*
X17073134Y22812806D01*
X17063755Y22809961D01*
X17054000Y22809000D01*
X16404000Y22809000D01*
X16404000Y22509000D01*
X16403039Y22499245D01*
X16400194Y22489866D01*
X16395573Y22481221D01*
X16389355Y22473645D01*
X16381779Y22467427D01*
X16373134Y22462806D01*
X16363755Y22459961D01*
X16354000Y22459000D01*
X14854000Y22459000D01*
X14844245Y22459961D01*
X14834866Y22462806D01*
X14826221Y22467427D01*
X14818645Y22473645D01*
X14812427Y22481221D01*
X14807806Y22489866D01*
X14804961Y22499245D01*
X14804000Y22509000D01*
X14804000Y24309000D01*
X14804961Y24318755D01*
X14807806Y24328134D01*
X14812427Y24336779D01*
X14818645Y24344355D01*
X14826221Y24350573D01*
X14834866Y24355194D01*
X14844245Y24358039D01*
X14854000Y24359000D01*
X16354000Y24359000D01*
X16363755Y24358039D01*
G37*
G04 #@! TD.AperFunction*
D17*
X91440000Y61060000D03*
D18*
X50926000Y21790000D03*
X42000000Y6000000D03*
X57545990Y10300000D03*
X63626000Y6550000D03*
X69722000Y6042000D03*
X26010000Y42400000D03*
X19630000Y45740000D03*
X13090000Y46490000D03*
X47640000Y29560000D03*
X16890000Y50960000D03*
X20550000Y22600000D03*
X20550000Y22600000D03*
X53720000Y16456000D03*
X13100000Y52000000D03*
X36064111Y38981252D03*
X13210000Y22880000D03*
X44360000Y18540000D03*
X47790000Y16760000D03*
X73278000Y6042000D03*
X71700000Y4400000D03*
X74040000Y5017998D03*
X79120000Y4264000D03*
X90300000Y9700000D03*
X48408478Y14281076D03*
X53496865Y13698063D03*
X65000000Y10400000D03*
X59600000Y10900000D03*
X85116834Y10183166D03*
X77900000Y10400000D03*
X25040000Y12140000D03*
X25040000Y12140000D03*
X22580000Y19360000D03*
X16640000Y32710000D03*
X51670000Y48280000D03*
X34620000Y19310000D03*
X47563166Y18926834D03*
X44890000Y50460000D03*
X43896039Y21036000D03*
D19*
X10699000Y2581000D02*
X10800000Y2581000D01*
X11990000Y14519000D02*
X11990000Y14096000D01*
X9491999Y3788001D02*
X10699000Y2581000D01*
X9200000Y11306000D02*
X9200000Y8900000D01*
X9200000Y8900000D02*
X9491999Y8608001D01*
X11990000Y14096000D02*
X9200000Y11306000D01*
X9491999Y8608001D02*
X9491999Y3788001D01*
X30000000Y7918000D02*
X32152000Y5766000D01*
X30000000Y12900000D02*
X30000000Y7918000D01*
X32152000Y5766000D02*
X33400000Y5766000D01*
X34000000Y14519000D02*
X31619000Y14519000D01*
X31619000Y14519000D02*
X30000000Y12900000D01*
X42000000Y7254000D02*
X42798000Y8052000D01*
X42000000Y6000000D02*
X42000000Y7254000D01*
X15880000Y2981000D02*
X15880000Y2581000D01*
X13086000Y10201000D02*
X13086000Y5775000D01*
X13086000Y5775000D02*
X15880000Y2981000D01*
X56000000Y5600000D02*
X57545990Y7145990D01*
X57545990Y7145990D02*
X57545990Y10300000D01*
X64576000Y5600000D02*
X63626000Y6550000D01*
X65000000Y5600000D02*
X64576000Y5600000D01*
X18420000Y4089000D02*
X18420000Y2581000D01*
X19600000Y5269000D02*
X18420000Y4089000D01*
X19126202Y8200000D02*
X19600000Y7726202D01*
X15626000Y10201000D02*
X15779000Y10201000D01*
X15779000Y10201000D02*
X17780000Y8200000D01*
X19600000Y7726202D02*
X19600000Y5269000D01*
X17780000Y8200000D02*
X19126202Y8200000D01*
X20960000Y7407000D02*
X18166000Y10201000D01*
X20960000Y2581000D02*
X20960000Y7407000D01*
X68442000Y6042000D02*
X68000000Y5600000D01*
X69722000Y6042000D02*
X68442000Y6042000D01*
X13000000Y14500000D02*
X12000000Y14500000D01*
X14508000Y16008000D02*
X13000000Y14500000D01*
X37395999Y24404001D02*
X25994001Y24404001D01*
X19454001Y16636799D02*
X18825202Y16008000D01*
X21452169Y19747659D02*
X21452169Y16636799D01*
X22162341Y20572341D02*
X22162341Y20457831D01*
X41050000Y23260000D02*
X38540000Y23260000D01*
X38540000Y23260000D02*
X37395999Y24404001D01*
X22162341Y20457831D02*
X21452169Y19747659D01*
X21452169Y16636799D02*
X19454001Y16636799D01*
X25994001Y24404001D02*
X22162341Y20572341D01*
X18825202Y16008000D02*
X14508000Y16008000D01*
X26010000Y43307202D02*
X23577202Y45740000D01*
X26010000Y42400000D02*
X26010000Y43307202D01*
X23577202Y45740000D02*
X19630000Y45740000D01*
X13090000Y44590000D02*
X12000000Y43500000D01*
X13090000Y46490000D02*
X13090000Y44590000D01*
X34000000Y45008000D02*
X34000000Y43500000D01*
X34230000Y51800000D02*
X33112012Y50682012D01*
X41110000Y51800000D02*
X34230000Y51800000D01*
X33112012Y50682012D02*
X33112012Y48467988D01*
X34000000Y47580000D02*
X34000000Y45008000D01*
X33112012Y48467988D02*
X34000000Y47580000D01*
X50501736Y21790000D02*
X50926000Y21790000D01*
X43720000Y21790000D02*
X50501736Y21790000D01*
X43454001Y22055999D02*
X43720000Y21790000D01*
X43012079Y22055999D02*
X43454001Y22055999D01*
X41050000Y23260000D02*
X41050000Y22172341D01*
X41050000Y22172341D02*
X42895737Y22172341D01*
X42895737Y22172341D02*
X43012079Y22055999D01*
X74670445Y15700000D02*
X74217922Y15700000D01*
X67463078Y18019000D02*
X61000000Y18019000D01*
X80492000Y18019000D02*
X79135012Y16662012D01*
X74217922Y15700000D02*
X74113921Y15595999D01*
X74837988Y16156468D02*
X74837988Y15867543D01*
X83000000Y18019000D02*
X80492000Y18019000D01*
X74113921Y15595999D02*
X69886079Y15595999D01*
X74837988Y15867543D02*
X74670445Y15700000D01*
X75343531Y16662011D02*
X74837988Y16156468D01*
X69886079Y15595999D02*
X67463078Y18019000D01*
X79135012Y16662012D02*
X75343531Y16662011D01*
X88317202Y47000000D02*
X90454001Y44863201D01*
X83000000Y47000000D02*
X88317202Y47000000D01*
X85360000Y29560000D02*
X48064264Y29560000D01*
X90454001Y34654001D02*
X85360000Y29560000D01*
X90454001Y44863201D02*
X90454001Y34654001D01*
X48064264Y29560000D02*
X47640000Y29560000D01*
X17360000Y50960000D02*
X18700000Y52300000D01*
X16890000Y50960000D02*
X17360000Y50960000D01*
X20004000Y22609000D02*
X20541000Y22609000D01*
X19204000Y23409000D02*
X20004000Y22609000D01*
X20541000Y22609000D02*
X20550000Y22600000D01*
X14800000Y52000000D02*
X15100000Y52300000D01*
X13100000Y52000000D02*
X14800000Y52000000D01*
X36064111Y39405516D02*
X36064111Y38981252D01*
X39000000Y43500000D02*
X38000000Y43500000D01*
X36064111Y41564111D02*
X36064111Y39405516D01*
X38000000Y43500000D02*
X36064111Y41564111D01*
X61000000Y14500000D02*
X61000000Y15800000D01*
X54176000Y16000000D02*
X53720000Y16456000D01*
X58600000Y16000000D02*
X54176000Y16000000D01*
X61000000Y15800000D02*
X58800000Y15800000D01*
X58800000Y15800000D02*
X58600000Y16000000D01*
X61200000Y16000000D02*
X61000000Y15800000D01*
X68317202Y16000000D02*
X61200000Y16000000D01*
X69200000Y15100000D02*
X69200000Y15117202D01*
X69508011Y14791989D02*
X69200000Y15100000D01*
X74763713Y14791989D02*
X69508011Y14791989D01*
X81564999Y15954001D02*
X75636799Y15954001D01*
X69200000Y15117202D02*
X68317202Y16000000D01*
X75545999Y15863201D02*
X75545999Y15574275D01*
X83000000Y14519000D02*
X81564999Y15954001D01*
X75636799Y15954001D02*
X75545999Y15863201D01*
X75545999Y15574275D02*
X74763713Y14791989D01*
X15075000Y22880000D02*
X15604000Y23409000D01*
X13210000Y22880000D02*
X15075000Y22880000D01*
X44360000Y18115736D02*
X45715736Y16760000D01*
X44360000Y18540000D02*
X44360000Y18115736D01*
X45715736Y16760000D02*
X47790000Y16760000D01*
X39317202Y43500000D02*
X39000000Y43500000D01*
X43720000Y47902798D02*
X39317202Y43500000D01*
X43650000Y51800000D02*
X43720000Y51730000D01*
X43720000Y51730000D02*
X43720000Y47902798D01*
X23500000Y4089000D02*
X23500000Y2581000D01*
X20706000Y8693000D02*
X23500000Y5899000D01*
X20706000Y10201000D02*
X20706000Y8693000D01*
X23500000Y5899000D02*
X23500000Y4089000D01*
X73278000Y6042000D02*
X73278000Y5897242D01*
X71530746Y5607000D02*
X71959253Y5178493D01*
X71959253Y5178493D02*
X72259252Y4878494D01*
X73278000Y5897242D02*
X72259252Y4878494D01*
X71506000Y5607000D02*
X71530746Y5607000D01*
X71700000Y5413000D02*
X71506000Y5607000D01*
X71700000Y4400000D02*
X71700000Y5413000D01*
X74629002Y5607000D02*
X74040000Y5017998D01*
X76000000Y5607000D02*
X74629002Y5607000D01*
X23246000Y8693000D02*
X23246000Y10201000D01*
X26040000Y5899000D02*
X23246000Y8693000D01*
X26040000Y2581000D02*
X26040000Y5899000D01*
X79120000Y4264000D02*
X79120000Y5480000D01*
X25786000Y8693000D02*
X28580000Y5899000D01*
X28580000Y5899000D02*
X28580000Y4089000D01*
X28580000Y4089000D02*
X28580000Y2581000D01*
X25786000Y10201000D02*
X25786000Y8693000D01*
X79000000Y5600000D02*
X79120000Y5480000D01*
X77900000Y5600000D02*
X79000000Y5600000D01*
X31555279Y15954001D02*
X33955280Y15954002D01*
X34028278Y16027000D02*
X41492000Y16027000D01*
X41492000Y16027000D02*
X43000000Y14519000D01*
X33955280Y15954002D02*
X34028278Y16027000D01*
X43000000Y14519000D02*
X44000000Y14519000D01*
X26552277Y10950999D02*
X31555279Y15954001D01*
X26535999Y10950999D02*
X26552277Y10950999D01*
X25786000Y10201000D02*
X26535999Y10950999D01*
X86962000Y6407000D02*
X87762000Y5607000D01*
X85395999Y7973001D02*
X86962000Y6407000D01*
X80636799Y7973001D02*
X85395999Y7973001D01*
X32701000Y600000D02*
X47882078Y600000D01*
X28326000Y8068000D02*
X31120000Y5274000D01*
X31120000Y5274000D02*
X31120000Y2181000D01*
X51680000Y600000D02*
X77243942Y600000D01*
X28326000Y10201000D02*
X28326000Y8068000D01*
X47882078Y600000D02*
X47978068Y504010D01*
X80545999Y3902057D02*
X80545999Y7882201D01*
X47978068Y504010D02*
X51584010Y504010D01*
X80545999Y7882201D02*
X80636799Y7973001D01*
X51584010Y504010D02*
X51680000Y600000D01*
X31120000Y2181000D02*
X32701000Y600000D01*
X77243942Y600000D02*
X80545999Y3902057D01*
X89807000Y9207000D02*
X90300000Y9700000D01*
X87762000Y9207000D02*
X89807000Y9207000D01*
X90400000Y11600000D02*
X90000000Y12000000D01*
X90300000Y9700000D02*
X90400000Y11600000D01*
X34768000Y2581000D02*
X33660000Y2581000D01*
X40981000Y2581000D02*
X34768000Y2581000D01*
X48171979Y9771979D02*
X40981000Y2581000D01*
X53068078Y24360000D02*
X53172079Y24464001D01*
X53172079Y24464001D02*
X54327921Y24464001D01*
X51787921Y24464001D02*
X51891922Y24360000D01*
X51891922Y24360000D02*
X53068078Y24360000D01*
X47230000Y24360000D02*
X47988078Y24360000D01*
X50528078Y24360000D02*
X50632079Y24464001D01*
X49351922Y24360000D02*
X50528078Y24360000D01*
X50632079Y24464001D02*
X51787921Y24464001D01*
X46130000Y23260000D02*
X47230000Y24360000D01*
X49247921Y24464001D02*
X49351922Y24360000D01*
X50646021Y12246021D02*
X50646021Y10481965D01*
X47988078Y24360000D02*
X48092079Y24464001D01*
X48092079Y24464001D02*
X49247921Y24464001D01*
X54327921Y24464001D02*
X54954001Y23837921D01*
X54954001Y23837921D02*
X54954001Y22976675D01*
X54954001Y22976675D02*
X54958807Y22969928D01*
X51299758Y19854163D02*
X51180000Y19734405D01*
X54958807Y22969928D02*
X54861642Y22391497D01*
X50646021Y10481965D02*
X49936035Y9771979D01*
X54861642Y22391497D02*
X51299758Y19854163D01*
X51180000Y19734405D02*
X51180000Y12780000D01*
X51180000Y12780000D02*
X50646021Y12246021D01*
X49936035Y9771979D02*
X48171979Y9771979D01*
X33384000Y9382000D02*
X33400000Y9366000D01*
X31700000Y12100000D02*
X33384000Y9382000D01*
X43030000Y11884000D02*
X42798000Y11652000D01*
X45084000Y11884000D02*
X43030000Y11884000D01*
X35800000Y11600000D02*
X35300000Y12100000D01*
X37545999Y11552079D02*
X37545999Y11600000D01*
X42566000Y11652000D02*
X42314000Y11400000D01*
X37545999Y11600000D02*
X35800000Y11600000D01*
X42314000Y11400000D02*
X40301922Y11400000D01*
X38302079Y10795999D02*
X37545999Y11552079D01*
X40301922Y11400000D02*
X39697921Y10795999D01*
X42798000Y11652000D02*
X42566000Y11652000D01*
X39697921Y10795999D02*
X38302079Y10795999D01*
X48684000Y14005554D02*
X48408478Y14281076D01*
X48684000Y11884000D02*
X48684000Y14005554D01*
X56000000Y9200000D02*
X53496865Y11703135D01*
X53496865Y11703135D02*
X53496865Y13698063D01*
X53693730Y11900000D02*
X54700000Y11900000D01*
X53496865Y11703135D02*
X53693730Y11900000D01*
X58300000Y10300000D02*
X59200000Y9400000D01*
X58300000Y11900000D02*
X58300000Y10300000D01*
X65000000Y9200000D02*
X65000000Y10400000D01*
X59300000Y10900000D02*
X58300000Y11900000D01*
X59600000Y10900000D02*
X59300000Y10900000D01*
X64162000Y11471000D02*
X66404000Y11471000D01*
X68000000Y9875000D02*
X66404000Y11471000D01*
X68000000Y9200000D02*
X68000000Y9875000D01*
X64162000Y10762000D02*
X62800000Y9400000D01*
X64162000Y11471000D02*
X64162000Y10762000D01*
X70004000Y11471000D02*
X71992000Y11471000D01*
X71992000Y9693000D02*
X71506000Y9207000D01*
X71992000Y11471000D02*
X71992000Y9693000D01*
X75592000Y9615000D02*
X76000000Y9207000D01*
X75592000Y11471000D02*
X75592000Y9615000D01*
X78300000Y11500000D02*
X77800000Y11500000D01*
X80600000Y9600000D02*
X78300000Y11500000D01*
X75592000Y11471000D02*
X77800000Y11500000D01*
X77800000Y11500000D02*
X77580000Y11471000D01*
X85971000Y12000000D02*
X84200000Y9600000D01*
X86400000Y12000000D02*
X85971000Y12000000D01*
X84200000Y9900000D02*
X85000000Y9900000D01*
X85000000Y9900000D02*
X85116834Y10016834D01*
X85116834Y10016834D02*
X85116834Y10183166D01*
X77900000Y10400000D02*
X77900000Y9200000D01*
X20530000Y31300000D02*
X20530000Y31700000D01*
X21638000Y30192000D02*
X20530000Y31300000D01*
X33612595Y30192000D02*
X21638000Y30192000D01*
X41656468Y33337988D02*
X36758583Y33337988D01*
X42162011Y33843531D02*
X41656468Y33337988D01*
X42162012Y34151457D02*
X42162011Y33843531D01*
X42410555Y34400000D02*
X42162012Y34151457D01*
X45595999Y34400000D02*
X42410555Y34400000D01*
X45595999Y36113921D02*
X45595999Y34400000D01*
X52113921Y38404001D02*
X47886079Y38404001D01*
X54404001Y36113921D02*
X52113921Y38404001D01*
X47886079Y38404001D02*
X45595999Y36113921D01*
X57837988Y34400000D02*
X54404001Y34400000D01*
X80636799Y34045999D02*
X80545999Y34136799D01*
X64162012Y34400000D02*
X64162011Y33843531D01*
X63656468Y33337988D02*
X58343531Y33337989D01*
X36758583Y33337988D02*
X33612595Y30192000D01*
X85717202Y34400000D02*
X85454001Y34400000D01*
X88000000Y43500000D02*
X88000000Y36682798D01*
X88000000Y36682798D02*
X85717202Y34400000D01*
X85454001Y34400000D02*
X85454001Y34136799D01*
X85454001Y34136799D02*
X85363201Y34045999D01*
X85363201Y34045999D02*
X80636799Y34045999D01*
X80545999Y34136799D02*
X80545999Y34400000D01*
X80545999Y34400000D02*
X64162012Y34400000D01*
X64162011Y33843531D02*
X63656468Y33337988D01*
X58343531Y33337989D02*
X57837988Y33843532D01*
X57837988Y33843532D02*
X57837988Y34400000D01*
X54404001Y34400000D02*
X54404001Y36113921D01*
X58636799Y34045999D02*
X58545999Y34136799D01*
X17990000Y32100000D02*
X17990000Y31700000D01*
X41454001Y34136799D02*
X41363201Y34045999D01*
X46121289Y39112012D02*
X41454001Y34444724D01*
X63492000Y43500000D02*
X63454001Y43462001D01*
X35919317Y33500000D02*
X26701873Y33500000D01*
X26701873Y33500000D02*
X26409873Y33208000D01*
X26409873Y33208000D02*
X19098000Y33208000D01*
X19098000Y33208000D02*
X17990000Y32100000D01*
X55941998Y39112012D02*
X46121289Y39112012D01*
X63363201Y34045999D02*
X58636799Y34045999D01*
X66000000Y43500000D02*
X63492000Y43500000D01*
X41363201Y34045999D02*
X36465316Y34045999D01*
X58545999Y34136799D02*
X58545999Y36508011D01*
X36465316Y34045999D02*
X35919317Y33500000D01*
X63454001Y43462001D02*
X63454001Y34136799D01*
X41454001Y34444724D02*
X41454001Y34136799D01*
X58545999Y36508011D02*
X55941998Y39112012D01*
X63454001Y34136799D02*
X63363201Y34045999D01*
X15450000Y33208000D02*
X15450000Y31700000D01*
X16287999Y34045999D02*
X15450000Y33208000D01*
X19363201Y34045999D02*
X16287999Y34045999D01*
X44000000Y41992000D02*
X38962001Y36954001D01*
X44000000Y43500000D02*
X44000000Y41992000D01*
X38962001Y36954001D02*
X22271203Y36954001D01*
X22271203Y36954001D02*
X19363201Y34045999D01*
X12910000Y37639340D02*
X12910000Y33208000D01*
X13310000Y38039340D02*
X12910000Y37639340D01*
X12910000Y33208000D02*
X12910000Y31700000D01*
X13310000Y39100000D02*
X13310000Y38039340D01*
X14059999Y39849999D02*
X13310000Y39100000D01*
X14454001Y40244001D02*
X14059999Y39849999D01*
X14454001Y44771203D02*
X14454001Y40244001D01*
X14636799Y44954001D02*
X14454001Y44771203D01*
X19545999Y44954001D02*
X14636799Y44954001D01*
X21000000Y43500000D02*
X19545999Y44954001D01*
X22000000Y43500000D02*
X21000000Y43500000D01*
X44985999Y53004001D02*
X45440001Y52549999D01*
X30113921Y44595999D02*
X32404001Y46886079D01*
X17234596Y36954001D02*
X18176594Y37895999D01*
X13964010Y36281212D02*
X14636799Y36954001D01*
X10370000Y31300000D02*
X11478000Y30192000D01*
X19810000Y40130000D02*
X20178078Y40130000D01*
X32404001Y51294001D02*
X34114001Y53004001D01*
X18967921Y37895999D02*
X19594001Y38522079D01*
X13964010Y30863415D02*
X13964010Y36281212D01*
X10370000Y31700000D02*
X10370000Y31300000D01*
X45440001Y52549999D02*
X46190000Y51800000D01*
X19594001Y38522079D02*
X19594001Y39914001D01*
X13292595Y30192000D02*
X13964010Y30863415D01*
X30113921Y43263921D02*
X30113921Y44595999D01*
X34114001Y53004001D02*
X44985999Y53004001D01*
X19594001Y39914001D02*
X19810000Y40130000D01*
X20178078Y40130000D02*
X20352079Y40304001D01*
X11478000Y30192000D02*
X13292595Y30192000D01*
X32404001Y46886079D02*
X32404001Y51294001D01*
X20352079Y40304001D02*
X20704001Y40304001D01*
X14636799Y36954001D02*
X17234596Y36954001D01*
X20704001Y40304001D02*
X21450000Y41050000D01*
X21450000Y41050000D02*
X27900000Y41050000D01*
X18176594Y37895999D02*
X18967921Y37895999D01*
X27900000Y41050000D02*
X30113921Y43263921D01*
X56306000Y75809000D02*
X56306000Y70729000D01*
X53766000Y73006000D02*
X53766000Y75809000D01*
X53766000Y70729000D02*
X53766000Y72874000D01*
X53700000Y72940000D02*
X53766000Y73006000D01*
X53766000Y72874000D02*
X53700000Y72940000D01*
X51226000Y72237000D02*
X51226000Y75809000D01*
X51226000Y70729000D02*
X51226000Y72237000D01*
X48686000Y75809000D02*
X48686000Y70729000D01*
X46146000Y72237000D02*
X46146000Y75809000D01*
X46146000Y70729000D02*
X46146000Y72237000D01*
X43606000Y72237000D02*
X43606000Y75809000D01*
X43606000Y70729000D02*
X43606000Y72237000D01*
X56306000Y68189000D02*
X56306000Y60569000D01*
X53766000Y61629660D02*
X53766000Y68189000D01*
X53766000Y60569000D02*
X53766000Y61629660D01*
X51226000Y66681000D02*
X51226000Y60569000D01*
X51226000Y68189000D02*
X51226000Y66681000D01*
X48686000Y60569000D02*
X48686000Y68189000D01*
X46146000Y66681000D02*
X46146000Y60569000D01*
X46146000Y68189000D02*
X46146000Y66681000D01*
X43606000Y61629660D02*
X43606000Y68189000D01*
X43606000Y60569000D02*
X43606000Y61629660D01*
X25339999Y16142079D02*
X22580000Y18902078D01*
X25040000Y12140000D02*
X25339999Y12439999D01*
X25339999Y12439999D02*
X25339999Y16142079D01*
X22580000Y18902078D02*
X22580000Y19360000D01*
X61000000Y4992000D02*
X61000000Y6500000D01*
X60353990Y4345990D02*
X61000000Y4992000D01*
X54595990Y4641232D02*
X54891232Y4345990D01*
X52742864Y9744358D02*
X54595990Y7891232D01*
X52742864Y17002864D02*
X52742864Y9744358D01*
X55194001Y19454001D02*
X52742864Y17002864D01*
X63786332Y19454001D02*
X55194001Y19454001D01*
X54891232Y4345990D02*
X60353990Y4345990D01*
X64450000Y20117669D02*
X63786332Y19454001D01*
X54595990Y7891232D02*
X54595990Y4641232D01*
X64450000Y20876000D02*
X64450000Y20117669D01*
X10168808Y29483990D02*
X15556565Y29483990D01*
X9315999Y49331921D02*
X9315999Y30336799D01*
X15556565Y29483990D02*
X16640000Y30567425D01*
X9315999Y30336799D02*
X10168808Y29483990D01*
X20290000Y49710000D02*
X20290000Y53072778D01*
X19658768Y53704010D02*
X13688088Y53704010D01*
X20290000Y53072778D02*
X19658768Y53704010D01*
X13688088Y53704010D02*
X9315999Y49331921D01*
X16640000Y30567425D02*
X16640000Y32710000D01*
X58545999Y39462001D02*
X61000000Y37008000D01*
X58545999Y44863201D02*
X58545999Y39462001D01*
X62771203Y44954001D02*
X58636799Y44954001D01*
X58636799Y44954001D02*
X58545999Y44863201D01*
X64610000Y46792798D02*
X62771203Y44954001D01*
X61000000Y37008000D02*
X61000000Y35500000D01*
X64610000Y49280000D02*
X64610000Y46792798D01*
X45014001Y20324001D02*
X44968010Y20278010D01*
X49938011Y17667911D02*
X47281921Y20324001D01*
X47281921Y20324001D02*
X45014001Y20324001D01*
X49938011Y10775233D02*
X49938011Y17667911D01*
X49642768Y10479990D02*
X49938011Y10775233D01*
X39000000Y4992000D02*
X39052000Y4940000D01*
X39000000Y6500000D02*
X39000000Y4992000D01*
X42338724Y4940000D02*
X47878714Y10479990D01*
X39052000Y4940000D02*
X42338724Y4940000D01*
X47878714Y10479990D02*
X49642768Y10479990D01*
X44968010Y20278010D02*
X44340000Y20278010D01*
X44340000Y20278010D02*
X44255990Y20278010D01*
X44255990Y20278010D02*
X44210000Y20324000D01*
X43151990Y20278010D02*
X42560000Y20870000D01*
X44255990Y20278010D02*
X43151990Y20278010D01*
X91312000Y16098000D02*
X86450000Y20960000D01*
X84487222Y6519000D02*
X86653232Y4352990D01*
X83000000Y6519000D02*
X84487222Y6519000D01*
X88870768Y4352990D02*
X91312000Y6794222D01*
X86653232Y4352990D02*
X88870768Y4352990D01*
X91312000Y6794222D02*
X91312000Y16098000D01*
X41508000Y35500000D02*
X39000000Y35500000D01*
X51370001Y45362001D02*
X41508000Y35500000D01*
X51670000Y48280000D02*
X51370001Y47980001D01*
X51370001Y47980001D02*
X51370001Y45362001D01*
X86183779Y49653779D02*
X86720000Y50190000D01*
X74910000Y44227202D02*
X79660457Y48977659D01*
X74910000Y41082000D02*
X74910000Y44227202D01*
X85507659Y48977659D02*
X86183779Y49653779D01*
X80492000Y35500000D02*
X74910000Y41082000D01*
X79660457Y48977659D02*
X85507659Y48977659D01*
X83000000Y35500000D02*
X80492000Y35500000D01*
X56990000Y51160000D02*
X56350000Y51800000D01*
X56990000Y49280000D02*
X56990000Y51160000D01*
X25886079Y53404001D02*
X31945999Y53404001D01*
X20936079Y48454001D02*
X25886079Y53404001D01*
X12670000Y49710000D02*
X13925999Y48454001D01*
X13925999Y48454001D02*
X20936079Y48454001D01*
X31945999Y53404001D02*
X32140000Y53210000D01*
X32642011Y53712011D02*
X32140000Y53210000D01*
X49357989Y53712011D02*
X32642011Y53712011D01*
X51270000Y51800000D02*
X49357989Y53712011D01*
X56290000Y21416000D02*
X56830000Y20876000D01*
X56290000Y23260000D02*
X56290000Y21416000D01*
X34919999Y19010001D02*
X35008725Y19010001D01*
X34620000Y19310000D02*
X34919999Y19010001D01*
X47263167Y19226833D02*
X47563166Y18926834D01*
X34919999Y19010001D02*
X35371831Y19461833D01*
X35371831Y19461833D02*
X47028167Y19461833D01*
X47028167Y19461833D02*
X47263167Y19226833D01*
X59950660Y51800000D02*
X58890000Y51800000D01*
X65822341Y48659737D02*
X65822341Y49782169D01*
X63804510Y51800000D02*
X59950660Y51800000D01*
X70542078Y43940000D02*
X65822341Y48659737D01*
X73457922Y43940000D02*
X70542078Y43940000D01*
X79100000Y49582078D02*
X73457922Y43940000D01*
X65822341Y49782169D02*
X63804510Y51800000D01*
X79100000Y50190000D02*
X79100000Y49582078D01*
X48016080Y50460000D02*
X47390000Y50460000D01*
X48266080Y50210000D02*
X48016080Y50460000D01*
X53810000Y51800000D02*
X52220000Y50210000D01*
X47390000Y50460000D02*
X44890000Y50460000D01*
X52220000Y50210000D02*
X48266080Y50210000D01*
X58390000Y22647000D02*
X58830000Y23260000D01*
X77450000Y24200000D02*
X74317922Y24200000D01*
X59943000Y24200000D02*
X58390000Y22647000D01*
X69886079Y24404001D02*
X69682078Y24200000D01*
X69682078Y24200000D02*
X59943000Y24200000D01*
X77750000Y23900000D02*
X77450000Y24200000D01*
X74113921Y24404001D02*
X69886079Y24404001D01*
X74317922Y24200000D02*
X74113921Y24404001D01*
X77630000Y23780000D02*
X77750000Y23900000D01*
X78830000Y20960000D02*
X77630000Y22160000D01*
X77630000Y22160000D02*
X77630000Y23780000D01*
X45934001Y21035999D02*
X45891999Y21078001D01*
X51525999Y21035999D02*
X45934001Y21035999D01*
X53750000Y23260000D02*
X51525999Y21035999D01*
X45715999Y21035999D02*
X45670008Y21081990D01*
X45934001Y21035999D02*
X45715999Y21035999D01*
X45670008Y21081990D02*
X43890000Y21081990D01*
X43890000Y21081990D02*
X43890000Y21042039D01*
X43890000Y21042039D02*
X43896039Y21036000D01*
M02*
