M48
; DRILL file {KiCad (5.1.5)-3} date 2020-12-12 11:51:03 PM
; FORMAT={-:-/ absolute / inch / decimal}
; #@! TF.CreationDate,2020-12-12T23:51:03-08:00
; #@! TF.GenerationSoftware,Kicad,Pcbnew,(5.1.5)-3
; #@! TF.FileFunction,NonPlated,1,2,NPTH
FMAT,2
INCH
T1C0.0787
T2C0.0866
T3C0.1063
T4C0.1260
T5C0.1693
T6C0.2087
T7C0.2520
%
G90
G05
T1
X1.5354Y1.624
X0.6693Y0.4823
X1.5354Y0.4823
X2.4016Y0.4823
X0.6693Y1.624
X2.4016Y1.624
X3.2677Y0.4823
X3.2677Y1.624
T2
X2.9575Y3.7937
T3
X3.1835Y3.8094
T4
X3.4402Y3.7953
T5
X1.9685Y1.3386
X0.1772Y1.3583
X1.9685Y0.1969
X3.7598Y3.7598
X0.1772Y3.7598
X2.7811Y2.6657
X1.1024Y1.9291
X3.7598Y1.3583
X3.1551Y2.6657
X0.1772Y0.1772
X0.7929Y2.6657
X2.8346Y1.9291
X3.7598Y0.1772
X2.8346Y0.7874
X1.9685Y3.7598
X1.1024Y0.7874
X1.1669Y2.6657
T6
X3.6957Y3.3492
T7
X3.6457Y2.8524
T0
M30
