G04 #@! TF.GenerationSoftware,KiCad,Pcbnew,(5.1.5)-3*
G04 #@! TF.CreationDate,2020-12-12T23:50:59-08:00*
G04 #@! TF.ProjectId,button_pcb_4x_laz16-11_,62757474-6f6e-45f7-9063-625f34785f6c,rev?*
G04 #@! TF.SameCoordinates,Original*
G04 #@! TF.FileFunction,Copper,L2,Bot*
G04 #@! TF.FilePolarity,Positive*
%FSLAX46Y46*%
G04 Gerber Fmt 4.6, Leading zero omitted, Abs format (unit mm)*
G04 Created by KiCad (PCBNEW (5.1.5)-3) date 2020-12-12 23:50:59*
%MOMM*%
%LPD*%
G04 APERTURE LIST*
%ADD10C,0.100000*%
%ADD11R,4.000000X2.000000*%
%ADD12C,1.500000*%
%ADD13R,1.500000X1.500000*%
%ADD14O,1.200000X2.000000*%
%ADD15R,1.200000X2.000000*%
%ADD16C,8.600000*%
%ADD17C,0.600000*%
%ADD18C,0.508000*%
G04 APERTURE END LIST*
G04 #@! TA.AperFunction,ComponentPad*
D10*
G36*
X78988191Y49436247D02*
G01*
X78914849Y49450836D01*
X78843290Y49472543D01*
X78774203Y49501160D01*
X78708254Y49536411D01*
X78646077Y49577956D01*
X78588272Y49625395D01*
X78535395Y49678272D01*
X78487956Y49736077D01*
X78446411Y49798254D01*
X78411160Y49864203D01*
X78382543Y49933290D01*
X78360836Y50004849D01*
X78346247Y50078191D01*
X78338918Y50152610D01*
X78338918Y50227390D01*
X78346247Y50301809D01*
X78360836Y50375151D01*
X78382543Y50446710D01*
X78411160Y50515797D01*
X78446411Y50581746D01*
X78487956Y50643923D01*
X78535395Y50701728D01*
X78588272Y50754605D01*
X78646077Y50802044D01*
X78708254Y50843589D01*
X78774203Y50878840D01*
X78843290Y50907457D01*
X78914849Y50929164D01*
X78988191Y50943753D01*
X79062610Y50951082D01*
X79137390Y50951082D01*
X79211809Y50943753D01*
X79285151Y50929164D01*
X79356710Y50907457D01*
X79425797Y50878840D01*
X79491746Y50843589D01*
X79553923Y50802044D01*
X79611728Y50754605D01*
X79664605Y50701728D01*
X79712044Y50643923D01*
X79753589Y50581746D01*
X79788840Y50515797D01*
X79797869Y50494000D01*
X80193000Y50494000D01*
X80193000Y50825000D01*
X80193961Y50834755D01*
X80196806Y50844134D01*
X80201427Y50852779D01*
X80207645Y50860355D01*
X80215221Y50866573D01*
X80223866Y50871194D01*
X80233245Y50874039D01*
X80243000Y50875000D01*
X82021000Y50875000D01*
X82030755Y50874039D01*
X82040134Y50871194D01*
X82048779Y50866573D01*
X82056355Y50860355D01*
X82062573Y50852779D01*
X82067194Y50844134D01*
X82070039Y50834755D01*
X82071000Y50825000D01*
X82071000Y50494000D01*
X82656000Y50494000D01*
X82665755Y50493039D01*
X82675134Y50490194D01*
X82683779Y50485573D01*
X82691355Y50479355D01*
X82697573Y50471779D01*
X82702194Y50463134D01*
X82705039Y50453755D01*
X82706000Y50444000D01*
X82706000Y49936000D01*
X82705039Y49926245D01*
X82702194Y49916866D01*
X82697573Y49908221D01*
X82691355Y49900645D01*
X82683779Y49894427D01*
X82675134Y49889806D01*
X82665755Y49886961D01*
X82656000Y49886000D01*
X82071000Y49886000D01*
X82071000Y49555000D01*
X82070039Y49545245D01*
X82067194Y49535866D01*
X82062573Y49527221D01*
X82056355Y49519645D01*
X82048779Y49513427D01*
X82040134Y49508806D01*
X82030755Y49505961D01*
X82021000Y49505000D01*
X80243000Y49505000D01*
X80233245Y49505961D01*
X80223866Y49508806D01*
X80215221Y49513427D01*
X80207645Y49519645D01*
X80201427Y49527221D01*
X80196806Y49535866D01*
X80193961Y49545245D01*
X80193000Y49555000D01*
X80193000Y49886000D01*
X79797869Y49886000D01*
X79788840Y49864203D01*
X79753589Y49798254D01*
X79712044Y49736077D01*
X79664605Y49678272D01*
X79611728Y49625395D01*
X79553923Y49577956D01*
X79491746Y49536411D01*
X79425797Y49501160D01*
X79356710Y49472543D01*
X79285151Y49450836D01*
X79211809Y49436247D01*
X79137390Y49428918D01*
X79062610Y49428918D01*
X78988191Y49436247D01*
G37*
G04 #@! TD.AperFunction*
G04 #@! TA.AperFunction,ComponentPad*
G36*
X86608191Y49436247D02*
G01*
X86534849Y49450836D01*
X86463290Y49472543D01*
X86394203Y49501160D01*
X86328254Y49536411D01*
X86266077Y49577956D01*
X86208272Y49625395D01*
X86155395Y49678272D01*
X86107956Y49736077D01*
X86066411Y49798254D01*
X86031160Y49864203D01*
X86022131Y49886000D01*
X85627000Y49886000D01*
X85627000Y49555000D01*
X85626039Y49545245D01*
X85623194Y49535866D01*
X85618573Y49527221D01*
X85612355Y49519645D01*
X85604779Y49513427D01*
X85596134Y49508806D01*
X85586755Y49505961D01*
X85577000Y49505000D01*
X83799000Y49505000D01*
X83789245Y49505961D01*
X83779866Y49508806D01*
X83771221Y49513427D01*
X83763645Y49519645D01*
X83757427Y49527221D01*
X83752806Y49535866D01*
X83749961Y49545245D01*
X83749000Y49555000D01*
X83749000Y49886000D01*
X83164000Y49886000D01*
X83154245Y49886961D01*
X83144866Y49889806D01*
X83136221Y49894427D01*
X83128645Y49900645D01*
X83122427Y49908221D01*
X83117806Y49916866D01*
X83114961Y49926245D01*
X83114000Y49936000D01*
X83114000Y50444000D01*
X83114961Y50453755D01*
X83117806Y50463134D01*
X83122427Y50471779D01*
X83128645Y50479355D01*
X83136221Y50485573D01*
X83144866Y50490194D01*
X83154245Y50493039D01*
X83164000Y50494000D01*
X83749000Y50494000D01*
X83749000Y50825000D01*
X83749961Y50834755D01*
X83752806Y50844134D01*
X83757427Y50852779D01*
X83763645Y50860355D01*
X83771221Y50866573D01*
X83779866Y50871194D01*
X83789245Y50874039D01*
X83799000Y50875000D01*
X85577000Y50875000D01*
X85586755Y50874039D01*
X85596134Y50871194D01*
X85604779Y50866573D01*
X85612355Y50860355D01*
X85618573Y50852779D01*
X85623194Y50844134D01*
X85626039Y50834755D01*
X85627000Y50825000D01*
X85627000Y50494000D01*
X86022131Y50494000D01*
X86031160Y50515797D01*
X86066411Y50581746D01*
X86107956Y50643923D01*
X86155395Y50701728D01*
X86208272Y50754605D01*
X86266077Y50802044D01*
X86328254Y50843589D01*
X86394203Y50878840D01*
X86463290Y50907457D01*
X86534849Y50929164D01*
X86608191Y50943753D01*
X86682610Y50951082D01*
X86757390Y50951082D01*
X86831809Y50943753D01*
X86905151Y50929164D01*
X86976710Y50907457D01*
X87045797Y50878840D01*
X87111746Y50843589D01*
X87173923Y50802044D01*
X87231728Y50754605D01*
X87284605Y50701728D01*
X87332044Y50643923D01*
X87373589Y50581746D01*
X87408840Y50515797D01*
X87437457Y50446710D01*
X87459164Y50375151D01*
X87473753Y50301809D01*
X87481082Y50227390D01*
X87481082Y50152610D01*
X87473753Y50078191D01*
X87459164Y50004849D01*
X87437457Y49933290D01*
X87408840Y49864203D01*
X87373589Y49798254D01*
X87332044Y49736077D01*
X87284605Y49678272D01*
X87231728Y49625395D01*
X87173923Y49577956D01*
X87111746Y49536411D01*
X87045797Y49501160D01*
X86976710Y49472543D01*
X86905151Y49450836D01*
X86831809Y49436247D01*
X86757390Y49428918D01*
X86682610Y49428918D01*
X86608191Y49436247D01*
G37*
G04 #@! TD.AperFunction*
G04 #@! TA.AperFunction,ComponentPad*
G36*
X56878191Y48526247D02*
G01*
X56804849Y48540836D01*
X56733290Y48562543D01*
X56664203Y48591160D01*
X56598254Y48626411D01*
X56536077Y48667956D01*
X56478272Y48715395D01*
X56425395Y48768272D01*
X56377956Y48826077D01*
X56336411Y48888254D01*
X56301160Y48954203D01*
X56272543Y49023290D01*
X56250836Y49094849D01*
X56236247Y49168191D01*
X56228918Y49242610D01*
X56228918Y49317390D01*
X56236247Y49391809D01*
X56250836Y49465151D01*
X56272543Y49536710D01*
X56301160Y49605797D01*
X56336411Y49671746D01*
X56377956Y49733923D01*
X56425395Y49791728D01*
X56478272Y49844605D01*
X56536077Y49892044D01*
X56598254Y49933589D01*
X56664203Y49968840D01*
X56733290Y49997457D01*
X56804849Y50019164D01*
X56878191Y50033753D01*
X56952610Y50041082D01*
X57027390Y50041082D01*
X57101809Y50033753D01*
X57175151Y50019164D01*
X57246710Y49997457D01*
X57315797Y49968840D01*
X57381746Y49933589D01*
X57443923Y49892044D01*
X57501728Y49844605D01*
X57554605Y49791728D01*
X57602044Y49733923D01*
X57643589Y49671746D01*
X57678840Y49605797D01*
X57687869Y49584000D01*
X58083000Y49584000D01*
X58083000Y49915000D01*
X58083961Y49924755D01*
X58086806Y49934134D01*
X58091427Y49942779D01*
X58097645Y49950355D01*
X58105221Y49956573D01*
X58113866Y49961194D01*
X58123245Y49964039D01*
X58133000Y49965000D01*
X59911000Y49965000D01*
X59920755Y49964039D01*
X59930134Y49961194D01*
X59938779Y49956573D01*
X59946355Y49950355D01*
X59952573Y49942779D01*
X59957194Y49934134D01*
X59960039Y49924755D01*
X59961000Y49915000D01*
X59961000Y49584000D01*
X60546000Y49584000D01*
X60555755Y49583039D01*
X60565134Y49580194D01*
X60573779Y49575573D01*
X60581355Y49569355D01*
X60587573Y49561779D01*
X60592194Y49553134D01*
X60595039Y49543755D01*
X60596000Y49534000D01*
X60596000Y49026000D01*
X60595039Y49016245D01*
X60592194Y49006866D01*
X60587573Y48998221D01*
X60581355Y48990645D01*
X60573779Y48984427D01*
X60565134Y48979806D01*
X60555755Y48976961D01*
X60546000Y48976000D01*
X59961000Y48976000D01*
X59961000Y48645000D01*
X59960039Y48635245D01*
X59957194Y48625866D01*
X59952573Y48617221D01*
X59946355Y48609645D01*
X59938779Y48603427D01*
X59930134Y48598806D01*
X59920755Y48595961D01*
X59911000Y48595000D01*
X58133000Y48595000D01*
X58123245Y48595961D01*
X58113866Y48598806D01*
X58105221Y48603427D01*
X58097645Y48609645D01*
X58091427Y48617221D01*
X58086806Y48625866D01*
X58083961Y48635245D01*
X58083000Y48645000D01*
X58083000Y48976000D01*
X57687869Y48976000D01*
X57678840Y48954203D01*
X57643589Y48888254D01*
X57602044Y48826077D01*
X57554605Y48768272D01*
X57501728Y48715395D01*
X57443923Y48667956D01*
X57381746Y48626411D01*
X57315797Y48591160D01*
X57246710Y48562543D01*
X57175151Y48540836D01*
X57101809Y48526247D01*
X57027390Y48518918D01*
X56952610Y48518918D01*
X56878191Y48526247D01*
G37*
G04 #@! TD.AperFunction*
G04 #@! TA.AperFunction,ComponentPad*
G36*
X64498191Y48526247D02*
G01*
X64424849Y48540836D01*
X64353290Y48562543D01*
X64284203Y48591160D01*
X64218254Y48626411D01*
X64156077Y48667956D01*
X64098272Y48715395D01*
X64045395Y48768272D01*
X63997956Y48826077D01*
X63956411Y48888254D01*
X63921160Y48954203D01*
X63912131Y48976000D01*
X63517000Y48976000D01*
X63517000Y48645000D01*
X63516039Y48635245D01*
X63513194Y48625866D01*
X63508573Y48617221D01*
X63502355Y48609645D01*
X63494779Y48603427D01*
X63486134Y48598806D01*
X63476755Y48595961D01*
X63467000Y48595000D01*
X61689000Y48595000D01*
X61679245Y48595961D01*
X61669866Y48598806D01*
X61661221Y48603427D01*
X61653645Y48609645D01*
X61647427Y48617221D01*
X61642806Y48625866D01*
X61639961Y48635245D01*
X61639000Y48645000D01*
X61639000Y48976000D01*
X61054000Y48976000D01*
X61044245Y48976961D01*
X61034866Y48979806D01*
X61026221Y48984427D01*
X61018645Y48990645D01*
X61012427Y48998221D01*
X61007806Y49006866D01*
X61004961Y49016245D01*
X61004000Y49026000D01*
X61004000Y49534000D01*
X61004961Y49543755D01*
X61007806Y49553134D01*
X61012427Y49561779D01*
X61018645Y49569355D01*
X61026221Y49575573D01*
X61034866Y49580194D01*
X61044245Y49583039D01*
X61054000Y49584000D01*
X61639000Y49584000D01*
X61639000Y49915000D01*
X61639961Y49924755D01*
X61642806Y49934134D01*
X61647427Y49942779D01*
X61653645Y49950355D01*
X61661221Y49956573D01*
X61669866Y49961194D01*
X61679245Y49964039D01*
X61689000Y49965000D01*
X63467000Y49965000D01*
X63476755Y49964039D01*
X63486134Y49961194D01*
X63494779Y49956573D01*
X63502355Y49950355D01*
X63508573Y49942779D01*
X63513194Y49934134D01*
X63516039Y49924755D01*
X63517000Y49915000D01*
X63517000Y49584000D01*
X63912131Y49584000D01*
X63921160Y49605797D01*
X63956411Y49671746D01*
X63997956Y49733923D01*
X64045395Y49791728D01*
X64098272Y49844605D01*
X64156077Y49892044D01*
X64218254Y49933589D01*
X64284203Y49968840D01*
X64353290Y49997457D01*
X64424849Y50019164D01*
X64498191Y50033753D01*
X64572610Y50041082D01*
X64647390Y50041082D01*
X64721809Y50033753D01*
X64795151Y50019164D01*
X64866710Y49997457D01*
X64935797Y49968840D01*
X65001746Y49933589D01*
X65063923Y49892044D01*
X65121728Y49844605D01*
X65174605Y49791728D01*
X65222044Y49733923D01*
X65263589Y49671746D01*
X65298840Y49605797D01*
X65327457Y49536710D01*
X65349164Y49465151D01*
X65363753Y49391809D01*
X65371082Y49317390D01*
X65371082Y49242610D01*
X65363753Y49168191D01*
X65349164Y49094849D01*
X65327457Y49023290D01*
X65298840Y48954203D01*
X65263589Y48888254D01*
X65222044Y48826077D01*
X65174605Y48768272D01*
X65121728Y48715395D01*
X65063923Y48667956D01*
X65001746Y48626411D01*
X64935797Y48591160D01*
X64866710Y48562543D01*
X64795151Y48540836D01*
X64721809Y48526247D01*
X64647390Y48518918D01*
X64572610Y48518918D01*
X64498191Y48526247D01*
G37*
G04 #@! TD.AperFunction*
G04 #@! TA.AperFunction,ComponentPad*
G36*
X34718191Y48456247D02*
G01*
X34644849Y48470836D01*
X34573290Y48492543D01*
X34504203Y48521160D01*
X34438254Y48556411D01*
X34376077Y48597956D01*
X34318272Y48645395D01*
X34265395Y48698272D01*
X34217956Y48756077D01*
X34176411Y48818254D01*
X34141160Y48884203D01*
X34112543Y48953290D01*
X34090836Y49024849D01*
X34076247Y49098191D01*
X34068918Y49172610D01*
X34068918Y49247390D01*
X34076247Y49321809D01*
X34090836Y49395151D01*
X34112543Y49466710D01*
X34141160Y49535797D01*
X34176411Y49601746D01*
X34217956Y49663923D01*
X34265395Y49721728D01*
X34318272Y49774605D01*
X34376077Y49822044D01*
X34438254Y49863589D01*
X34504203Y49898840D01*
X34573290Y49927457D01*
X34644849Y49949164D01*
X34718191Y49963753D01*
X34792610Y49971082D01*
X34867390Y49971082D01*
X34941809Y49963753D01*
X35015151Y49949164D01*
X35086710Y49927457D01*
X35155797Y49898840D01*
X35221746Y49863589D01*
X35283923Y49822044D01*
X35341728Y49774605D01*
X35394605Y49721728D01*
X35442044Y49663923D01*
X35483589Y49601746D01*
X35518840Y49535797D01*
X35527869Y49514000D01*
X35923000Y49514000D01*
X35923000Y49845000D01*
X35923961Y49854755D01*
X35926806Y49864134D01*
X35931427Y49872779D01*
X35937645Y49880355D01*
X35945221Y49886573D01*
X35953866Y49891194D01*
X35963245Y49894039D01*
X35973000Y49895000D01*
X37751000Y49895000D01*
X37760755Y49894039D01*
X37770134Y49891194D01*
X37778779Y49886573D01*
X37786355Y49880355D01*
X37792573Y49872779D01*
X37797194Y49864134D01*
X37800039Y49854755D01*
X37801000Y49845000D01*
X37801000Y49514000D01*
X38386000Y49514000D01*
X38395755Y49513039D01*
X38405134Y49510194D01*
X38413779Y49505573D01*
X38421355Y49499355D01*
X38427573Y49491779D01*
X38432194Y49483134D01*
X38435039Y49473755D01*
X38436000Y49464000D01*
X38436000Y48956000D01*
X38435039Y48946245D01*
X38432194Y48936866D01*
X38427573Y48928221D01*
X38421355Y48920645D01*
X38413779Y48914427D01*
X38405134Y48909806D01*
X38395755Y48906961D01*
X38386000Y48906000D01*
X37801000Y48906000D01*
X37801000Y48575000D01*
X37800039Y48565245D01*
X37797194Y48555866D01*
X37792573Y48547221D01*
X37786355Y48539645D01*
X37778779Y48533427D01*
X37770134Y48528806D01*
X37760755Y48525961D01*
X37751000Y48525000D01*
X35973000Y48525000D01*
X35963245Y48525961D01*
X35953866Y48528806D01*
X35945221Y48533427D01*
X35937645Y48539645D01*
X35931427Y48547221D01*
X35926806Y48555866D01*
X35923961Y48565245D01*
X35923000Y48575000D01*
X35923000Y48906000D01*
X35527869Y48906000D01*
X35518840Y48884203D01*
X35483589Y48818254D01*
X35442044Y48756077D01*
X35394605Y48698272D01*
X35341728Y48645395D01*
X35283923Y48597956D01*
X35221746Y48556411D01*
X35155797Y48521160D01*
X35086710Y48492543D01*
X35015151Y48470836D01*
X34941809Y48456247D01*
X34867390Y48448918D01*
X34792610Y48448918D01*
X34718191Y48456247D01*
G37*
G04 #@! TD.AperFunction*
G04 #@! TA.AperFunction,ComponentPad*
G36*
X42338191Y48456247D02*
G01*
X42264849Y48470836D01*
X42193290Y48492543D01*
X42124203Y48521160D01*
X42058254Y48556411D01*
X41996077Y48597956D01*
X41938272Y48645395D01*
X41885395Y48698272D01*
X41837956Y48756077D01*
X41796411Y48818254D01*
X41761160Y48884203D01*
X41752131Y48906000D01*
X41357000Y48906000D01*
X41357000Y48575000D01*
X41356039Y48565245D01*
X41353194Y48555866D01*
X41348573Y48547221D01*
X41342355Y48539645D01*
X41334779Y48533427D01*
X41326134Y48528806D01*
X41316755Y48525961D01*
X41307000Y48525000D01*
X39529000Y48525000D01*
X39519245Y48525961D01*
X39509866Y48528806D01*
X39501221Y48533427D01*
X39493645Y48539645D01*
X39487427Y48547221D01*
X39482806Y48555866D01*
X39479961Y48565245D01*
X39479000Y48575000D01*
X39479000Y48906000D01*
X38894000Y48906000D01*
X38884245Y48906961D01*
X38874866Y48909806D01*
X38866221Y48914427D01*
X38858645Y48920645D01*
X38852427Y48928221D01*
X38847806Y48936866D01*
X38844961Y48946245D01*
X38844000Y48956000D01*
X38844000Y49464000D01*
X38844961Y49473755D01*
X38847806Y49483134D01*
X38852427Y49491779D01*
X38858645Y49499355D01*
X38866221Y49505573D01*
X38874866Y49510194D01*
X38884245Y49513039D01*
X38894000Y49514000D01*
X39479000Y49514000D01*
X39479000Y49845000D01*
X39479961Y49854755D01*
X39482806Y49864134D01*
X39487427Y49872779D01*
X39493645Y49880355D01*
X39501221Y49886573D01*
X39509866Y49891194D01*
X39519245Y49894039D01*
X39529000Y49895000D01*
X41307000Y49895000D01*
X41316755Y49894039D01*
X41326134Y49891194D01*
X41334779Y49886573D01*
X41342355Y49880355D01*
X41348573Y49872779D01*
X41353194Y49864134D01*
X41356039Y49854755D01*
X41357000Y49845000D01*
X41357000Y49514000D01*
X41752131Y49514000D01*
X41761160Y49535797D01*
X41796411Y49601746D01*
X41837956Y49663923D01*
X41885395Y49721728D01*
X41938272Y49774605D01*
X41996077Y49822044D01*
X42058254Y49863589D01*
X42124203Y49898840D01*
X42193290Y49927457D01*
X42264849Y49949164D01*
X42338191Y49963753D01*
X42412610Y49971082D01*
X42487390Y49971082D01*
X42561809Y49963753D01*
X42635151Y49949164D01*
X42706710Y49927457D01*
X42775797Y49898840D01*
X42841746Y49863589D01*
X42903923Y49822044D01*
X42961728Y49774605D01*
X43014605Y49721728D01*
X43062044Y49663923D01*
X43103589Y49601746D01*
X43138840Y49535797D01*
X43167457Y49466710D01*
X43189164Y49395151D01*
X43203753Y49321809D01*
X43211082Y49247390D01*
X43211082Y49172610D01*
X43203753Y49098191D01*
X43189164Y49024849D01*
X43167457Y48953290D01*
X43138840Y48884203D01*
X43103589Y48818254D01*
X43062044Y48756077D01*
X43014605Y48698272D01*
X42961728Y48645395D01*
X42903923Y48597956D01*
X42841746Y48556411D01*
X42775797Y48521160D01*
X42706710Y48492543D01*
X42635151Y48470836D01*
X42561809Y48456247D01*
X42487390Y48448918D01*
X42412610Y48448918D01*
X42338191Y48456247D01*
G37*
G04 #@! TD.AperFunction*
G04 #@! TA.AperFunction,ComponentPad*
G36*
X12558191Y48956247D02*
G01*
X12484849Y48970836D01*
X12413290Y48992543D01*
X12344203Y49021160D01*
X12278254Y49056411D01*
X12216077Y49097956D01*
X12158272Y49145395D01*
X12105395Y49198272D01*
X12057956Y49256077D01*
X12016411Y49318254D01*
X11981160Y49384203D01*
X11952543Y49453290D01*
X11930836Y49524849D01*
X11916247Y49598191D01*
X11908918Y49672610D01*
X11908918Y49747390D01*
X11916247Y49821809D01*
X11930836Y49895151D01*
X11952543Y49966710D01*
X11981160Y50035797D01*
X12016411Y50101746D01*
X12057956Y50163923D01*
X12105395Y50221728D01*
X12158272Y50274605D01*
X12216077Y50322044D01*
X12278254Y50363589D01*
X12344203Y50398840D01*
X12413290Y50427457D01*
X12484849Y50449164D01*
X12558191Y50463753D01*
X12632610Y50471082D01*
X12707390Y50471082D01*
X12781809Y50463753D01*
X12855151Y50449164D01*
X12926710Y50427457D01*
X12995797Y50398840D01*
X13061746Y50363589D01*
X13123923Y50322044D01*
X13181728Y50274605D01*
X13234605Y50221728D01*
X13282044Y50163923D01*
X13323589Y50101746D01*
X13358840Y50035797D01*
X13367869Y50014000D01*
X13763000Y50014000D01*
X13763000Y50345000D01*
X13763961Y50354755D01*
X13766806Y50364134D01*
X13771427Y50372779D01*
X13777645Y50380355D01*
X13785221Y50386573D01*
X13793866Y50391194D01*
X13803245Y50394039D01*
X13813000Y50395000D01*
X15591000Y50395000D01*
X15600755Y50394039D01*
X15610134Y50391194D01*
X15618779Y50386573D01*
X15626355Y50380355D01*
X15632573Y50372779D01*
X15637194Y50364134D01*
X15640039Y50354755D01*
X15641000Y50345000D01*
X15641000Y50014000D01*
X16226000Y50014000D01*
X16235755Y50013039D01*
X16245134Y50010194D01*
X16253779Y50005573D01*
X16261355Y49999355D01*
X16267573Y49991779D01*
X16272194Y49983134D01*
X16275039Y49973755D01*
X16276000Y49964000D01*
X16276000Y49456000D01*
X16275039Y49446245D01*
X16272194Y49436866D01*
X16267573Y49428221D01*
X16261355Y49420645D01*
X16253779Y49414427D01*
X16245134Y49409806D01*
X16235755Y49406961D01*
X16226000Y49406000D01*
X15641000Y49406000D01*
X15641000Y49075000D01*
X15640039Y49065245D01*
X15637194Y49055866D01*
X15632573Y49047221D01*
X15626355Y49039645D01*
X15618779Y49033427D01*
X15610134Y49028806D01*
X15600755Y49025961D01*
X15591000Y49025000D01*
X13813000Y49025000D01*
X13803245Y49025961D01*
X13793866Y49028806D01*
X13785221Y49033427D01*
X13777645Y49039645D01*
X13771427Y49047221D01*
X13766806Y49055866D01*
X13763961Y49065245D01*
X13763000Y49075000D01*
X13763000Y49406000D01*
X13367869Y49406000D01*
X13358840Y49384203D01*
X13323589Y49318254D01*
X13282044Y49256077D01*
X13234605Y49198272D01*
X13181728Y49145395D01*
X13123923Y49097956D01*
X13061746Y49056411D01*
X12995797Y49021160D01*
X12926710Y48992543D01*
X12855151Y48970836D01*
X12781809Y48956247D01*
X12707390Y48948918D01*
X12632610Y48948918D01*
X12558191Y48956247D01*
G37*
G04 #@! TD.AperFunction*
G04 #@! TA.AperFunction,ComponentPad*
G36*
X20178191Y48956247D02*
G01*
X20104849Y48970836D01*
X20033290Y48992543D01*
X19964203Y49021160D01*
X19898254Y49056411D01*
X19836077Y49097956D01*
X19778272Y49145395D01*
X19725395Y49198272D01*
X19677956Y49256077D01*
X19636411Y49318254D01*
X19601160Y49384203D01*
X19592131Y49406000D01*
X19197000Y49406000D01*
X19197000Y49075000D01*
X19196039Y49065245D01*
X19193194Y49055866D01*
X19188573Y49047221D01*
X19182355Y49039645D01*
X19174779Y49033427D01*
X19166134Y49028806D01*
X19156755Y49025961D01*
X19147000Y49025000D01*
X17369000Y49025000D01*
X17359245Y49025961D01*
X17349866Y49028806D01*
X17341221Y49033427D01*
X17333645Y49039645D01*
X17327427Y49047221D01*
X17322806Y49055866D01*
X17319961Y49065245D01*
X17319000Y49075000D01*
X17319000Y49406000D01*
X16734000Y49406000D01*
X16724245Y49406961D01*
X16714866Y49409806D01*
X16706221Y49414427D01*
X16698645Y49420645D01*
X16692427Y49428221D01*
X16687806Y49436866D01*
X16684961Y49446245D01*
X16684000Y49456000D01*
X16684000Y49964000D01*
X16684961Y49973755D01*
X16687806Y49983134D01*
X16692427Y49991779D01*
X16698645Y49999355D01*
X16706221Y50005573D01*
X16714866Y50010194D01*
X16724245Y50013039D01*
X16734000Y50014000D01*
X17319000Y50014000D01*
X17319000Y50345000D01*
X17319961Y50354755D01*
X17322806Y50364134D01*
X17327427Y50372779D01*
X17333645Y50380355D01*
X17341221Y50386573D01*
X17349866Y50391194D01*
X17359245Y50394039D01*
X17369000Y50395000D01*
X19147000Y50395000D01*
X19156755Y50394039D01*
X19166134Y50391194D01*
X19174779Y50386573D01*
X19182355Y50380355D01*
X19188573Y50372779D01*
X19193194Y50364134D01*
X19196039Y50354755D01*
X19197000Y50345000D01*
X19197000Y50014000D01*
X19592131Y50014000D01*
X19601160Y50035797D01*
X19636411Y50101746D01*
X19677956Y50163923D01*
X19725395Y50221728D01*
X19778272Y50274605D01*
X19836077Y50322044D01*
X19898254Y50363589D01*
X19964203Y50398840D01*
X20033290Y50427457D01*
X20104849Y50449164D01*
X20178191Y50463753D01*
X20252610Y50471082D01*
X20327390Y50471082D01*
X20401809Y50463753D01*
X20475151Y50449164D01*
X20546710Y50427457D01*
X20615797Y50398840D01*
X20681746Y50363589D01*
X20743923Y50322044D01*
X20801728Y50274605D01*
X20854605Y50221728D01*
X20902044Y50163923D01*
X20943589Y50101746D01*
X20978840Y50035797D01*
X21007457Y49966710D01*
X21029164Y49895151D01*
X21043753Y49821809D01*
X21051082Y49747390D01*
X21051082Y49672610D01*
X21043753Y49598191D01*
X21029164Y49524849D01*
X21007457Y49453290D01*
X20978840Y49384203D01*
X20943589Y49318254D01*
X20902044Y49256077D01*
X20854605Y49198272D01*
X20801728Y49145395D01*
X20743923Y49097956D01*
X20681746Y49056411D01*
X20615797Y49021160D01*
X20546710Y48992543D01*
X20475151Y48970836D01*
X20401809Y48956247D01*
X20327390Y48948918D01*
X20252610Y48948918D01*
X20178191Y48956247D01*
G37*
G04 #@! TD.AperFunction*
G04 #@! TA.AperFunction,ComponentPad*
G36*
X78718191Y20206247D02*
G01*
X78644849Y20220836D01*
X78573290Y20242543D01*
X78504203Y20271160D01*
X78438254Y20306411D01*
X78376077Y20347956D01*
X78318272Y20395395D01*
X78265395Y20448272D01*
X78217956Y20506077D01*
X78176411Y20568254D01*
X78141160Y20634203D01*
X78112543Y20703290D01*
X78090836Y20774849D01*
X78076247Y20848191D01*
X78068918Y20922610D01*
X78068918Y20997390D01*
X78076247Y21071809D01*
X78090836Y21145151D01*
X78112543Y21216710D01*
X78141160Y21285797D01*
X78176411Y21351746D01*
X78217956Y21413923D01*
X78265395Y21471728D01*
X78318272Y21524605D01*
X78376077Y21572044D01*
X78438254Y21613589D01*
X78504203Y21648840D01*
X78573290Y21677457D01*
X78644849Y21699164D01*
X78718191Y21713753D01*
X78792610Y21721082D01*
X78867390Y21721082D01*
X78941809Y21713753D01*
X79015151Y21699164D01*
X79086710Y21677457D01*
X79155797Y21648840D01*
X79221746Y21613589D01*
X79283923Y21572044D01*
X79341728Y21524605D01*
X79394605Y21471728D01*
X79442044Y21413923D01*
X79483589Y21351746D01*
X79518840Y21285797D01*
X79527869Y21264000D01*
X79923000Y21264000D01*
X79923000Y21595000D01*
X79923961Y21604755D01*
X79926806Y21614134D01*
X79931427Y21622779D01*
X79937645Y21630355D01*
X79945221Y21636573D01*
X79953866Y21641194D01*
X79963245Y21644039D01*
X79973000Y21645000D01*
X81751000Y21645000D01*
X81760755Y21644039D01*
X81770134Y21641194D01*
X81778779Y21636573D01*
X81786355Y21630355D01*
X81792573Y21622779D01*
X81797194Y21614134D01*
X81800039Y21604755D01*
X81801000Y21595000D01*
X81801000Y21264000D01*
X82386000Y21264000D01*
X82395755Y21263039D01*
X82405134Y21260194D01*
X82413779Y21255573D01*
X82421355Y21249355D01*
X82427573Y21241779D01*
X82432194Y21233134D01*
X82435039Y21223755D01*
X82436000Y21214000D01*
X82436000Y20706000D01*
X82435039Y20696245D01*
X82432194Y20686866D01*
X82427573Y20678221D01*
X82421355Y20670645D01*
X82413779Y20664427D01*
X82405134Y20659806D01*
X82395755Y20656961D01*
X82386000Y20656000D01*
X81801000Y20656000D01*
X81801000Y20325000D01*
X81800039Y20315245D01*
X81797194Y20305866D01*
X81792573Y20297221D01*
X81786355Y20289645D01*
X81778779Y20283427D01*
X81770134Y20278806D01*
X81760755Y20275961D01*
X81751000Y20275000D01*
X79973000Y20275000D01*
X79963245Y20275961D01*
X79953866Y20278806D01*
X79945221Y20283427D01*
X79937645Y20289645D01*
X79931427Y20297221D01*
X79926806Y20305866D01*
X79923961Y20315245D01*
X79923000Y20325000D01*
X79923000Y20656000D01*
X79527869Y20656000D01*
X79518840Y20634203D01*
X79483589Y20568254D01*
X79442044Y20506077D01*
X79394605Y20448272D01*
X79341728Y20395395D01*
X79283923Y20347956D01*
X79221746Y20306411D01*
X79155797Y20271160D01*
X79086710Y20242543D01*
X79015151Y20220836D01*
X78941809Y20206247D01*
X78867390Y20198918D01*
X78792610Y20198918D01*
X78718191Y20206247D01*
G37*
G04 #@! TD.AperFunction*
G04 #@! TA.AperFunction,ComponentPad*
G36*
X86338191Y20206247D02*
G01*
X86264849Y20220836D01*
X86193290Y20242543D01*
X86124203Y20271160D01*
X86058254Y20306411D01*
X85996077Y20347956D01*
X85938272Y20395395D01*
X85885395Y20448272D01*
X85837956Y20506077D01*
X85796411Y20568254D01*
X85761160Y20634203D01*
X85752131Y20656000D01*
X85357000Y20656000D01*
X85357000Y20325000D01*
X85356039Y20315245D01*
X85353194Y20305866D01*
X85348573Y20297221D01*
X85342355Y20289645D01*
X85334779Y20283427D01*
X85326134Y20278806D01*
X85316755Y20275961D01*
X85307000Y20275000D01*
X83529000Y20275000D01*
X83519245Y20275961D01*
X83509866Y20278806D01*
X83501221Y20283427D01*
X83493645Y20289645D01*
X83487427Y20297221D01*
X83482806Y20305866D01*
X83479961Y20315245D01*
X83479000Y20325000D01*
X83479000Y20656000D01*
X82894000Y20656000D01*
X82884245Y20656961D01*
X82874866Y20659806D01*
X82866221Y20664427D01*
X82858645Y20670645D01*
X82852427Y20678221D01*
X82847806Y20686866D01*
X82844961Y20696245D01*
X82844000Y20706000D01*
X82844000Y21214000D01*
X82844961Y21223755D01*
X82847806Y21233134D01*
X82852427Y21241779D01*
X82858645Y21249355D01*
X82866221Y21255573D01*
X82874866Y21260194D01*
X82884245Y21263039D01*
X82894000Y21264000D01*
X83479000Y21264000D01*
X83479000Y21595000D01*
X83479961Y21604755D01*
X83482806Y21614134D01*
X83487427Y21622779D01*
X83493645Y21630355D01*
X83501221Y21636573D01*
X83509866Y21641194D01*
X83519245Y21644039D01*
X83529000Y21645000D01*
X85307000Y21645000D01*
X85316755Y21644039D01*
X85326134Y21641194D01*
X85334779Y21636573D01*
X85342355Y21630355D01*
X85348573Y21622779D01*
X85353194Y21614134D01*
X85356039Y21604755D01*
X85357000Y21595000D01*
X85357000Y21264000D01*
X85752131Y21264000D01*
X85761160Y21285797D01*
X85796411Y21351746D01*
X85837956Y21413923D01*
X85885395Y21471728D01*
X85938272Y21524605D01*
X85996077Y21572044D01*
X86058254Y21613589D01*
X86124203Y21648840D01*
X86193290Y21677457D01*
X86264849Y21699164D01*
X86338191Y21713753D01*
X86412610Y21721082D01*
X86487390Y21721082D01*
X86561809Y21713753D01*
X86635151Y21699164D01*
X86706710Y21677457D01*
X86775797Y21648840D01*
X86841746Y21613589D01*
X86903923Y21572044D01*
X86961728Y21524605D01*
X87014605Y21471728D01*
X87062044Y21413923D01*
X87103589Y21351746D01*
X87138840Y21285797D01*
X87167457Y21216710D01*
X87189164Y21145151D01*
X87203753Y21071809D01*
X87211082Y20997390D01*
X87211082Y20922610D01*
X87203753Y20848191D01*
X87189164Y20774849D01*
X87167457Y20703290D01*
X87138840Y20634203D01*
X87103589Y20568254D01*
X87062044Y20506077D01*
X87014605Y20448272D01*
X86961728Y20395395D01*
X86903923Y20347956D01*
X86841746Y20306411D01*
X86775797Y20271160D01*
X86706710Y20242543D01*
X86635151Y20220836D01*
X86561809Y20206247D01*
X86487390Y20198918D01*
X86412610Y20198918D01*
X86338191Y20206247D01*
G37*
G04 #@! TD.AperFunction*
G04 #@! TA.AperFunction,ComponentPad*
G36*
X56718191Y20122247D02*
G01*
X56644849Y20136836D01*
X56573290Y20158543D01*
X56504203Y20187160D01*
X56438254Y20222411D01*
X56376077Y20263956D01*
X56318272Y20311395D01*
X56265395Y20364272D01*
X56217956Y20422077D01*
X56176411Y20484254D01*
X56141160Y20550203D01*
X56112543Y20619290D01*
X56090836Y20690849D01*
X56076247Y20764191D01*
X56068918Y20838610D01*
X56068918Y20913390D01*
X56076247Y20987809D01*
X56090836Y21061151D01*
X56112543Y21132710D01*
X56141160Y21201797D01*
X56176411Y21267746D01*
X56217956Y21329923D01*
X56265395Y21387728D01*
X56318272Y21440605D01*
X56376077Y21488044D01*
X56438254Y21529589D01*
X56504203Y21564840D01*
X56573290Y21593457D01*
X56644849Y21615164D01*
X56718191Y21629753D01*
X56792610Y21637082D01*
X56867390Y21637082D01*
X56941809Y21629753D01*
X57015151Y21615164D01*
X57086710Y21593457D01*
X57155797Y21564840D01*
X57221746Y21529589D01*
X57283923Y21488044D01*
X57341728Y21440605D01*
X57394605Y21387728D01*
X57442044Y21329923D01*
X57483589Y21267746D01*
X57518840Y21201797D01*
X57527869Y21180000D01*
X57923000Y21180000D01*
X57923000Y21511000D01*
X57923961Y21520755D01*
X57926806Y21530134D01*
X57931427Y21538779D01*
X57937645Y21546355D01*
X57945221Y21552573D01*
X57953866Y21557194D01*
X57963245Y21560039D01*
X57973000Y21561000D01*
X59751000Y21561000D01*
X59760755Y21560039D01*
X59770134Y21557194D01*
X59778779Y21552573D01*
X59786355Y21546355D01*
X59792573Y21538779D01*
X59797194Y21530134D01*
X59800039Y21520755D01*
X59801000Y21511000D01*
X59801000Y21180000D01*
X60386000Y21180000D01*
X60395755Y21179039D01*
X60405134Y21176194D01*
X60413779Y21171573D01*
X60421355Y21165355D01*
X60427573Y21157779D01*
X60432194Y21149134D01*
X60435039Y21139755D01*
X60436000Y21130000D01*
X60436000Y20622000D01*
X60435039Y20612245D01*
X60432194Y20602866D01*
X60427573Y20594221D01*
X60421355Y20586645D01*
X60413779Y20580427D01*
X60405134Y20575806D01*
X60395755Y20572961D01*
X60386000Y20572000D01*
X59801000Y20572000D01*
X59801000Y20241000D01*
X59800039Y20231245D01*
X59797194Y20221866D01*
X59792573Y20213221D01*
X59786355Y20205645D01*
X59778779Y20199427D01*
X59770134Y20194806D01*
X59760755Y20191961D01*
X59751000Y20191000D01*
X57973000Y20191000D01*
X57963245Y20191961D01*
X57953866Y20194806D01*
X57945221Y20199427D01*
X57937645Y20205645D01*
X57931427Y20213221D01*
X57926806Y20221866D01*
X57923961Y20231245D01*
X57923000Y20241000D01*
X57923000Y20572000D01*
X57527869Y20572000D01*
X57518840Y20550203D01*
X57483589Y20484254D01*
X57442044Y20422077D01*
X57394605Y20364272D01*
X57341728Y20311395D01*
X57283923Y20263956D01*
X57221746Y20222411D01*
X57155797Y20187160D01*
X57086710Y20158543D01*
X57015151Y20136836D01*
X56941809Y20122247D01*
X56867390Y20114918D01*
X56792610Y20114918D01*
X56718191Y20122247D01*
G37*
G04 #@! TD.AperFunction*
G04 #@! TA.AperFunction,ComponentPad*
G36*
X64338191Y20122247D02*
G01*
X64264849Y20136836D01*
X64193290Y20158543D01*
X64124203Y20187160D01*
X64058254Y20222411D01*
X63996077Y20263956D01*
X63938272Y20311395D01*
X63885395Y20364272D01*
X63837956Y20422077D01*
X63796411Y20484254D01*
X63761160Y20550203D01*
X63752131Y20572000D01*
X63357000Y20572000D01*
X63357000Y20241000D01*
X63356039Y20231245D01*
X63353194Y20221866D01*
X63348573Y20213221D01*
X63342355Y20205645D01*
X63334779Y20199427D01*
X63326134Y20194806D01*
X63316755Y20191961D01*
X63307000Y20191000D01*
X61529000Y20191000D01*
X61519245Y20191961D01*
X61509866Y20194806D01*
X61501221Y20199427D01*
X61493645Y20205645D01*
X61487427Y20213221D01*
X61482806Y20221866D01*
X61479961Y20231245D01*
X61479000Y20241000D01*
X61479000Y20572000D01*
X60894000Y20572000D01*
X60884245Y20572961D01*
X60874866Y20575806D01*
X60866221Y20580427D01*
X60858645Y20586645D01*
X60852427Y20594221D01*
X60847806Y20602866D01*
X60844961Y20612245D01*
X60844000Y20622000D01*
X60844000Y21130000D01*
X60844961Y21139755D01*
X60847806Y21149134D01*
X60852427Y21157779D01*
X60858645Y21165355D01*
X60866221Y21171573D01*
X60874866Y21176194D01*
X60884245Y21179039D01*
X60894000Y21180000D01*
X61479000Y21180000D01*
X61479000Y21511000D01*
X61479961Y21520755D01*
X61482806Y21530134D01*
X61487427Y21538779D01*
X61493645Y21546355D01*
X61501221Y21552573D01*
X61509866Y21557194D01*
X61519245Y21560039D01*
X61529000Y21561000D01*
X63307000Y21561000D01*
X63316755Y21560039D01*
X63326134Y21557194D01*
X63334779Y21552573D01*
X63342355Y21546355D01*
X63348573Y21538779D01*
X63353194Y21530134D01*
X63356039Y21520755D01*
X63357000Y21511000D01*
X63357000Y21180000D01*
X63752131Y21180000D01*
X63761160Y21201797D01*
X63796411Y21267746D01*
X63837956Y21329923D01*
X63885395Y21387728D01*
X63938272Y21440605D01*
X63996077Y21488044D01*
X64058254Y21529589D01*
X64124203Y21564840D01*
X64193290Y21593457D01*
X64264849Y21615164D01*
X64338191Y21629753D01*
X64412610Y21637082D01*
X64487390Y21637082D01*
X64561809Y21629753D01*
X64635151Y21615164D01*
X64706710Y21593457D01*
X64775797Y21564840D01*
X64841746Y21529589D01*
X64903923Y21488044D01*
X64961728Y21440605D01*
X65014605Y21387728D01*
X65062044Y21329923D01*
X65103589Y21267746D01*
X65138840Y21201797D01*
X65167457Y21132710D01*
X65189164Y21061151D01*
X65203753Y20987809D01*
X65211082Y20913390D01*
X65211082Y20838610D01*
X65203753Y20764191D01*
X65189164Y20690849D01*
X65167457Y20619290D01*
X65138840Y20550203D01*
X65103589Y20484254D01*
X65062044Y20422077D01*
X65014605Y20364272D01*
X64961728Y20311395D01*
X64903923Y20263956D01*
X64841746Y20222411D01*
X64775797Y20187160D01*
X64706710Y20158543D01*
X64635151Y20136836D01*
X64561809Y20122247D01*
X64487390Y20114918D01*
X64412610Y20114918D01*
X64338191Y20122247D01*
G37*
G04 #@! TD.AperFunction*
G04 #@! TA.AperFunction,ComponentPad*
G36*
X34828191Y20116247D02*
G01*
X34754849Y20130836D01*
X34683290Y20152543D01*
X34614203Y20181160D01*
X34548254Y20216411D01*
X34486077Y20257956D01*
X34428272Y20305395D01*
X34375395Y20358272D01*
X34327956Y20416077D01*
X34286411Y20478254D01*
X34251160Y20544203D01*
X34222543Y20613290D01*
X34200836Y20684849D01*
X34186247Y20758191D01*
X34178918Y20832610D01*
X34178918Y20907390D01*
X34186247Y20981809D01*
X34200836Y21055151D01*
X34222543Y21126710D01*
X34251160Y21195797D01*
X34286411Y21261746D01*
X34327956Y21323923D01*
X34375395Y21381728D01*
X34428272Y21434605D01*
X34486077Y21482044D01*
X34548254Y21523589D01*
X34614203Y21558840D01*
X34683290Y21587457D01*
X34754849Y21609164D01*
X34828191Y21623753D01*
X34902610Y21631082D01*
X34977390Y21631082D01*
X35051809Y21623753D01*
X35125151Y21609164D01*
X35196710Y21587457D01*
X35265797Y21558840D01*
X35331746Y21523589D01*
X35393923Y21482044D01*
X35451728Y21434605D01*
X35504605Y21381728D01*
X35552044Y21323923D01*
X35593589Y21261746D01*
X35628840Y21195797D01*
X35637869Y21174000D01*
X36033000Y21174000D01*
X36033000Y21505000D01*
X36033961Y21514755D01*
X36036806Y21524134D01*
X36041427Y21532779D01*
X36047645Y21540355D01*
X36055221Y21546573D01*
X36063866Y21551194D01*
X36073245Y21554039D01*
X36083000Y21555000D01*
X37861000Y21555000D01*
X37870755Y21554039D01*
X37880134Y21551194D01*
X37888779Y21546573D01*
X37896355Y21540355D01*
X37902573Y21532779D01*
X37907194Y21524134D01*
X37910039Y21514755D01*
X37911000Y21505000D01*
X37911000Y21174000D01*
X38496000Y21174000D01*
X38505755Y21173039D01*
X38515134Y21170194D01*
X38523779Y21165573D01*
X38531355Y21159355D01*
X38537573Y21151779D01*
X38542194Y21143134D01*
X38545039Y21133755D01*
X38546000Y21124000D01*
X38546000Y20616000D01*
X38545039Y20606245D01*
X38542194Y20596866D01*
X38537573Y20588221D01*
X38531355Y20580645D01*
X38523779Y20574427D01*
X38515134Y20569806D01*
X38505755Y20566961D01*
X38496000Y20566000D01*
X37911000Y20566000D01*
X37911000Y20235000D01*
X37910039Y20225245D01*
X37907194Y20215866D01*
X37902573Y20207221D01*
X37896355Y20199645D01*
X37888779Y20193427D01*
X37880134Y20188806D01*
X37870755Y20185961D01*
X37861000Y20185000D01*
X36083000Y20185000D01*
X36073245Y20185961D01*
X36063866Y20188806D01*
X36055221Y20193427D01*
X36047645Y20199645D01*
X36041427Y20207221D01*
X36036806Y20215866D01*
X36033961Y20225245D01*
X36033000Y20235000D01*
X36033000Y20566000D01*
X35637869Y20566000D01*
X35628840Y20544203D01*
X35593589Y20478254D01*
X35552044Y20416077D01*
X35504605Y20358272D01*
X35451728Y20305395D01*
X35393923Y20257956D01*
X35331746Y20216411D01*
X35265797Y20181160D01*
X35196710Y20152543D01*
X35125151Y20130836D01*
X35051809Y20116247D01*
X34977390Y20108918D01*
X34902610Y20108918D01*
X34828191Y20116247D01*
G37*
G04 #@! TD.AperFunction*
G04 #@! TA.AperFunction,ComponentPad*
G36*
X42448191Y20116247D02*
G01*
X42374849Y20130836D01*
X42303290Y20152543D01*
X42234203Y20181160D01*
X42168254Y20216411D01*
X42106077Y20257956D01*
X42048272Y20305395D01*
X41995395Y20358272D01*
X41947956Y20416077D01*
X41906411Y20478254D01*
X41871160Y20544203D01*
X41862131Y20566000D01*
X41467000Y20566000D01*
X41467000Y20235000D01*
X41466039Y20225245D01*
X41463194Y20215866D01*
X41458573Y20207221D01*
X41452355Y20199645D01*
X41444779Y20193427D01*
X41436134Y20188806D01*
X41426755Y20185961D01*
X41417000Y20185000D01*
X39639000Y20185000D01*
X39629245Y20185961D01*
X39619866Y20188806D01*
X39611221Y20193427D01*
X39603645Y20199645D01*
X39597427Y20207221D01*
X39592806Y20215866D01*
X39589961Y20225245D01*
X39589000Y20235000D01*
X39589000Y20566000D01*
X39004000Y20566000D01*
X38994245Y20566961D01*
X38984866Y20569806D01*
X38976221Y20574427D01*
X38968645Y20580645D01*
X38962427Y20588221D01*
X38957806Y20596866D01*
X38954961Y20606245D01*
X38954000Y20616000D01*
X38954000Y21124000D01*
X38954961Y21133755D01*
X38957806Y21143134D01*
X38962427Y21151779D01*
X38968645Y21159355D01*
X38976221Y21165573D01*
X38984866Y21170194D01*
X38994245Y21173039D01*
X39004000Y21174000D01*
X39589000Y21174000D01*
X39589000Y21505000D01*
X39589961Y21514755D01*
X39592806Y21524134D01*
X39597427Y21532779D01*
X39603645Y21540355D01*
X39611221Y21546573D01*
X39619866Y21551194D01*
X39629245Y21554039D01*
X39639000Y21555000D01*
X41417000Y21555000D01*
X41426755Y21554039D01*
X41436134Y21551194D01*
X41444779Y21546573D01*
X41452355Y21540355D01*
X41458573Y21532779D01*
X41463194Y21524134D01*
X41466039Y21514755D01*
X41467000Y21505000D01*
X41467000Y21174000D01*
X41862131Y21174000D01*
X41871160Y21195797D01*
X41906411Y21261746D01*
X41947956Y21323923D01*
X41995395Y21381728D01*
X42048272Y21434605D01*
X42106077Y21482044D01*
X42168254Y21523589D01*
X42234203Y21558840D01*
X42303290Y21587457D01*
X42374849Y21609164D01*
X42448191Y21623753D01*
X42522610Y21631082D01*
X42597390Y21631082D01*
X42671809Y21623753D01*
X42745151Y21609164D01*
X42816710Y21587457D01*
X42885797Y21558840D01*
X42951746Y21523589D01*
X43013923Y21482044D01*
X43071728Y21434605D01*
X43124605Y21381728D01*
X43172044Y21323923D01*
X43213589Y21261746D01*
X43248840Y21195797D01*
X43277457Y21126710D01*
X43299164Y21055151D01*
X43313753Y20981809D01*
X43321082Y20907390D01*
X43321082Y20832610D01*
X43313753Y20758191D01*
X43299164Y20684849D01*
X43277457Y20613290D01*
X43248840Y20544203D01*
X43213589Y20478254D01*
X43172044Y20416077D01*
X43124605Y20358272D01*
X43071728Y20305395D01*
X43013923Y20257956D01*
X42951746Y20216411D01*
X42885797Y20181160D01*
X42816710Y20152543D01*
X42745151Y20130836D01*
X42671809Y20116247D01*
X42597390Y20108918D01*
X42522610Y20108918D01*
X42448191Y20116247D01*
G37*
G04 #@! TD.AperFunction*
G04 #@! TA.AperFunction,ComponentPad*
G36*
X13218191Y20206247D02*
G01*
X13144849Y20220836D01*
X13073290Y20242543D01*
X13004203Y20271160D01*
X12938254Y20306411D01*
X12876077Y20347956D01*
X12818272Y20395395D01*
X12765395Y20448272D01*
X12717956Y20506077D01*
X12676411Y20568254D01*
X12641160Y20634203D01*
X12612543Y20703290D01*
X12590836Y20774849D01*
X12576247Y20848191D01*
X12568918Y20922610D01*
X12568918Y20997390D01*
X12576247Y21071809D01*
X12590836Y21145151D01*
X12612543Y21216710D01*
X12641160Y21285797D01*
X12676411Y21351746D01*
X12717956Y21413923D01*
X12765395Y21471728D01*
X12818272Y21524605D01*
X12876077Y21572044D01*
X12938254Y21613589D01*
X13004203Y21648840D01*
X13073290Y21677457D01*
X13144849Y21699164D01*
X13218191Y21713753D01*
X13292610Y21721082D01*
X13367390Y21721082D01*
X13441809Y21713753D01*
X13515151Y21699164D01*
X13586710Y21677457D01*
X13655797Y21648840D01*
X13721746Y21613589D01*
X13783923Y21572044D01*
X13841728Y21524605D01*
X13894605Y21471728D01*
X13942044Y21413923D01*
X13983589Y21351746D01*
X14018840Y21285797D01*
X14027869Y21264000D01*
X14423000Y21264000D01*
X14423000Y21595000D01*
X14423961Y21604755D01*
X14426806Y21614134D01*
X14431427Y21622779D01*
X14437645Y21630355D01*
X14445221Y21636573D01*
X14453866Y21641194D01*
X14463245Y21644039D01*
X14473000Y21645000D01*
X16251000Y21645000D01*
X16260755Y21644039D01*
X16270134Y21641194D01*
X16278779Y21636573D01*
X16286355Y21630355D01*
X16292573Y21622779D01*
X16297194Y21614134D01*
X16300039Y21604755D01*
X16301000Y21595000D01*
X16301000Y21264000D01*
X16886000Y21264000D01*
X16895755Y21263039D01*
X16905134Y21260194D01*
X16913779Y21255573D01*
X16921355Y21249355D01*
X16927573Y21241779D01*
X16932194Y21233134D01*
X16935039Y21223755D01*
X16936000Y21214000D01*
X16936000Y20706000D01*
X16935039Y20696245D01*
X16932194Y20686866D01*
X16927573Y20678221D01*
X16921355Y20670645D01*
X16913779Y20664427D01*
X16905134Y20659806D01*
X16895755Y20656961D01*
X16886000Y20656000D01*
X16301000Y20656000D01*
X16301000Y20325000D01*
X16300039Y20315245D01*
X16297194Y20305866D01*
X16292573Y20297221D01*
X16286355Y20289645D01*
X16278779Y20283427D01*
X16270134Y20278806D01*
X16260755Y20275961D01*
X16251000Y20275000D01*
X14473000Y20275000D01*
X14463245Y20275961D01*
X14453866Y20278806D01*
X14445221Y20283427D01*
X14437645Y20289645D01*
X14431427Y20297221D01*
X14426806Y20305866D01*
X14423961Y20315245D01*
X14423000Y20325000D01*
X14423000Y20656000D01*
X14027869Y20656000D01*
X14018840Y20634203D01*
X13983589Y20568254D01*
X13942044Y20506077D01*
X13894605Y20448272D01*
X13841728Y20395395D01*
X13783923Y20347956D01*
X13721746Y20306411D01*
X13655797Y20271160D01*
X13586710Y20242543D01*
X13515151Y20220836D01*
X13441809Y20206247D01*
X13367390Y20198918D01*
X13292610Y20198918D01*
X13218191Y20206247D01*
G37*
G04 #@! TD.AperFunction*
G04 #@! TA.AperFunction,ComponentPad*
G36*
X20838191Y20206247D02*
G01*
X20764849Y20220836D01*
X20693290Y20242543D01*
X20624203Y20271160D01*
X20558254Y20306411D01*
X20496077Y20347956D01*
X20438272Y20395395D01*
X20385395Y20448272D01*
X20337956Y20506077D01*
X20296411Y20568254D01*
X20261160Y20634203D01*
X20252131Y20656000D01*
X19857000Y20656000D01*
X19857000Y20325000D01*
X19856039Y20315245D01*
X19853194Y20305866D01*
X19848573Y20297221D01*
X19842355Y20289645D01*
X19834779Y20283427D01*
X19826134Y20278806D01*
X19816755Y20275961D01*
X19807000Y20275000D01*
X18029000Y20275000D01*
X18019245Y20275961D01*
X18009866Y20278806D01*
X18001221Y20283427D01*
X17993645Y20289645D01*
X17987427Y20297221D01*
X17982806Y20305866D01*
X17979961Y20315245D01*
X17979000Y20325000D01*
X17979000Y20656000D01*
X17394000Y20656000D01*
X17384245Y20656961D01*
X17374866Y20659806D01*
X17366221Y20664427D01*
X17358645Y20670645D01*
X17352427Y20678221D01*
X17347806Y20686866D01*
X17344961Y20696245D01*
X17344000Y20706000D01*
X17344000Y21214000D01*
X17344961Y21223755D01*
X17347806Y21233134D01*
X17352427Y21241779D01*
X17358645Y21249355D01*
X17366221Y21255573D01*
X17374866Y21260194D01*
X17384245Y21263039D01*
X17394000Y21264000D01*
X17979000Y21264000D01*
X17979000Y21595000D01*
X17979961Y21604755D01*
X17982806Y21614134D01*
X17987427Y21622779D01*
X17993645Y21630355D01*
X18001221Y21636573D01*
X18009866Y21641194D01*
X18019245Y21644039D01*
X18029000Y21645000D01*
X19807000Y21645000D01*
X19816755Y21644039D01*
X19826134Y21641194D01*
X19834779Y21636573D01*
X19842355Y21630355D01*
X19848573Y21622779D01*
X19853194Y21614134D01*
X19856039Y21604755D01*
X19857000Y21595000D01*
X19857000Y21264000D01*
X20252131Y21264000D01*
X20261160Y21285797D01*
X20296411Y21351746D01*
X20337956Y21413923D01*
X20385395Y21471728D01*
X20438272Y21524605D01*
X20496077Y21572044D01*
X20558254Y21613589D01*
X20624203Y21648840D01*
X20693290Y21677457D01*
X20764849Y21699164D01*
X20838191Y21713753D01*
X20912610Y21721082D01*
X20987390Y21721082D01*
X21061809Y21713753D01*
X21135151Y21699164D01*
X21206710Y21677457D01*
X21275797Y21648840D01*
X21341746Y21613589D01*
X21403923Y21572044D01*
X21461728Y21524605D01*
X21514605Y21471728D01*
X21562044Y21413923D01*
X21603589Y21351746D01*
X21638840Y21285797D01*
X21667457Y21216710D01*
X21689164Y21145151D01*
X21703753Y21071809D01*
X21711082Y20997390D01*
X21711082Y20922610D01*
X21703753Y20848191D01*
X21689164Y20774849D01*
X21667457Y20703290D01*
X21638840Y20634203D01*
X21603589Y20568254D01*
X21562044Y20506077D01*
X21514605Y20448272D01*
X21461728Y20395395D01*
X21403923Y20347956D01*
X21341746Y20306411D01*
X21275797Y20271160D01*
X21206710Y20242543D01*
X21135151Y20220836D01*
X21061809Y20206247D01*
X20987390Y20198918D01*
X20912610Y20198918D01*
X20838191Y20206247D01*
G37*
G04 #@! TD.AperFunction*
D11*
X17000000Y6500000D03*
X17000000Y18000000D03*
X22000000Y14500000D03*
X17000000Y14500000D03*
X12000000Y14500000D03*
D12*
X43690000Y75740000D03*
X46230000Y75740000D03*
X48770000Y75740000D03*
X51310000Y75740000D03*
X53850000Y75740000D03*
X56390000Y75740000D03*
X56390000Y60500000D03*
X53850000Y60500000D03*
X51310000Y60500000D03*
X48770000Y60500000D03*
X46230000Y60500000D03*
D13*
X43690000Y60500000D03*
D12*
X58930000Y68530000D03*
X56390000Y68530000D03*
X53850000Y68530000D03*
X51310000Y68530000D03*
X48770000Y68530000D03*
X46230000Y68530000D03*
X43690000Y68530000D03*
D13*
X41150000Y68530000D03*
D12*
X58930000Y71070000D03*
X56390000Y71070000D03*
X53850000Y71070000D03*
X51310000Y71070000D03*
X48770000Y71070000D03*
X46230000Y71070000D03*
X43690000Y71070000D03*
D13*
X41150000Y71070000D03*
D12*
X13310000Y39100000D03*
X15850000Y39100000D03*
X18390000Y39100000D03*
X20930000Y39100000D03*
X23470000Y39100000D03*
X26010000Y39100000D03*
X28550000Y39100000D03*
D13*
X31090000Y39100000D03*
D12*
X58890000Y51800000D03*
X56350000Y51800000D03*
X53810000Y51800000D03*
X51270000Y51800000D03*
X48730000Y51800000D03*
X46190000Y51800000D03*
X43650000Y51800000D03*
D13*
X41110000Y51800000D03*
D12*
X28326000Y10201000D03*
X25786000Y10201000D03*
X23246000Y10201000D03*
X20706000Y10201000D03*
X18166000Y10201000D03*
X15626000Y10201000D03*
X13086000Y10201000D03*
D13*
X10546000Y10201000D03*
D12*
X58830000Y23260000D03*
X56290000Y23260000D03*
X53750000Y23260000D03*
X51210000Y23260000D03*
X48670000Y23260000D03*
X46130000Y23260000D03*
X43590000Y23260000D03*
D13*
X41050000Y23260000D03*
D11*
X83000000Y35500000D03*
X83000000Y47000000D03*
X88000000Y43500000D03*
X83000000Y43500000D03*
X78000000Y43500000D03*
X61000000Y35500000D03*
X61000000Y47000000D03*
X66000000Y43500000D03*
X61000000Y43500000D03*
X56000000Y43500000D03*
X39000000Y35500000D03*
X39000000Y47000000D03*
X44000000Y43500000D03*
X39000000Y43500000D03*
X34000000Y43500000D03*
X17000000Y35500000D03*
X17000000Y47000000D03*
X22000000Y43500000D03*
X17000000Y43500000D03*
X12000000Y43500000D03*
X83000000Y6500000D03*
X83000000Y18000000D03*
X88000000Y14500000D03*
X83000000Y14500000D03*
X78000000Y14500000D03*
X61000000Y6500000D03*
X61000000Y18000000D03*
X66000000Y14500000D03*
X61000000Y14500000D03*
X56000000Y14500000D03*
X39000000Y6500000D03*
X39000000Y18000000D03*
X44000000Y14500000D03*
X39000000Y14500000D03*
X34000000Y14500000D03*
D14*
X33230000Y31700000D03*
X30690000Y31700000D03*
X28150000Y31700000D03*
X25610000Y31700000D03*
X23070000Y31700000D03*
X20530000Y31700000D03*
X17990000Y31700000D03*
X15450000Y31700000D03*
X12910000Y31700000D03*
D15*
X10370000Y31700000D03*
D14*
X10540000Y2500000D03*
X13080000Y2500000D03*
X15620000Y2500000D03*
X18160000Y2500000D03*
X20700000Y2500000D03*
X23240000Y2500000D03*
X25780000Y2500000D03*
X28320000Y2500000D03*
X30860000Y2500000D03*
D15*
X33400000Y2500000D03*
D16*
X91440000Y61060000D03*
D17*
X50926000Y21790000D03*
X42000000Y6000000D03*
X57545990Y10300000D03*
X63626000Y6550000D03*
X69722000Y6042000D03*
X26010000Y42400000D03*
X19630000Y45740000D03*
X13090000Y46490000D03*
X47640000Y29560000D03*
X16890000Y50960000D03*
X20550000Y22600000D03*
X20550000Y22600000D03*
X53720000Y16456000D03*
X13100000Y52000000D03*
X36064111Y38981252D03*
X13210000Y22880000D03*
X44360000Y18540000D03*
X47790000Y16760000D03*
X73278000Y6042000D03*
X71700000Y4400000D03*
X74040000Y5017998D03*
X79120000Y4264000D03*
X90300000Y9700000D03*
X48408478Y14281076D03*
X53496865Y13698063D03*
X65000000Y10400000D03*
X59600000Y10900000D03*
X85116834Y10183166D03*
X77900000Y10400000D03*
X25040000Y12140000D03*
X25040000Y12140000D03*
X22580000Y19360000D03*
X16640000Y32710000D03*
X51670000Y48280000D03*
X34620000Y19310000D03*
X47563166Y18926834D03*
X44890000Y50460000D03*
X43896039Y21036000D03*
D18*
X33230000Y42730000D02*
X34000000Y43500000D01*
X34000000Y41992000D02*
X34000000Y43500000D01*
X36292000Y39700000D02*
X34000000Y41992000D01*
X49692000Y39700000D02*
X36292000Y39700000D01*
X56000000Y43500000D02*
X53492000Y43500000D01*
X53492000Y43500000D02*
X49692000Y39700000D01*
X71792000Y39800000D02*
X75492000Y43500000D01*
X61701922Y39800000D02*
X71792000Y39800000D01*
X61697921Y39795999D02*
X61701922Y39800000D01*
X57000000Y43500000D02*
X59545999Y40954001D01*
X60302079Y39795999D02*
X61697921Y39795999D01*
X56000000Y43500000D02*
X57000000Y43500000D01*
X59545999Y40552079D02*
X60302079Y39795999D01*
X75492000Y43500000D02*
X78000000Y43500000D01*
X59545999Y40954001D02*
X59545999Y40552079D01*
X40763999Y53404001D02*
X41110000Y53058000D01*
X20604001Y53404001D02*
X40763999Y53404001D01*
X41110000Y53058000D02*
X41110000Y51800000D01*
X68382078Y17100000D02*
X63700000Y17100000D01*
X78000000Y14500000D02*
X70982078Y14500000D01*
X70982078Y14500000D02*
X68382078Y17100000D01*
X36682798Y5000000D02*
X36545999Y5136799D01*
X13080000Y7667000D02*
X10546000Y10201000D01*
X13080000Y2500000D02*
X13080000Y7667000D01*
X41497444Y5000000D02*
X36682798Y5000000D01*
X42000000Y6000000D02*
X42000000Y5502556D01*
X42000000Y5502556D02*
X41497444Y5000000D01*
X36231777Y5451021D02*
X36682798Y5000000D01*
X26840426Y5451021D02*
X36231777Y5451021D01*
X24725990Y3336585D02*
X26840426Y5451021D01*
X13080000Y2100000D02*
X14180000Y1000000D01*
X24000000Y1000000D02*
X24725990Y1725990D01*
X13080000Y2500000D02*
X13080000Y2100000D01*
X14180000Y1000000D02*
X24000000Y1000000D01*
X24725990Y1725990D02*
X24725990Y3336585D01*
X15880000Y2581000D02*
X17490989Y4191989D01*
X43381601Y10087991D02*
X46237663Y12944053D01*
X46237663Y12944053D02*
X54901937Y12944053D01*
X57245991Y10599999D02*
X57545990Y10300000D01*
X31904675Y8283065D02*
X33709601Y10087991D01*
X23591191Y8283064D02*
X31904675Y8283065D01*
X33709601Y10087991D02*
X43381601Y10087991D01*
X19500116Y4191989D02*
X23591191Y8283064D01*
X17490989Y4191989D02*
X19500116Y4191989D01*
X54901937Y12944053D02*
X57245991Y10599999D01*
X63626000Y6974264D02*
X63626000Y6550000D01*
X34002868Y9379980D02*
X43674868Y9379980D01*
X63626000Y7710202D02*
X63626000Y6974264D01*
X18890405Y2581000D02*
X23884459Y7575054D01*
X63336202Y8000000D02*
X63626000Y7710202D01*
X43674868Y9379980D02*
X46530930Y12236042D01*
X18420000Y2581000D02*
X18890405Y2581000D01*
X32197943Y7575055D02*
X34002868Y9379980D01*
X54475236Y12236042D02*
X58711278Y8000000D01*
X46530930Y12236042D02*
X54475236Y12236042D01*
X23884459Y7575054D02*
X32197943Y7575055D01*
X58711278Y8000000D02*
X63336202Y8000000D01*
X69422001Y5742001D02*
X69722000Y6042000D01*
X58545999Y5136799D02*
X58636799Y5045999D01*
X58636799Y5045999D02*
X68725999Y5045999D01*
X47006279Y11528033D02*
X53375802Y11528032D01*
X53375802Y11528032D02*
X58545999Y6357835D01*
X58545999Y6357835D02*
X58545999Y5136799D01*
X32491209Y6867043D02*
X34296135Y8671969D01*
X25246043Y6867043D02*
X32491209Y6867043D01*
X68725999Y5045999D02*
X69422001Y5742001D01*
X20960000Y2581000D02*
X25246043Y6867043D01*
X34296135Y8671969D02*
X44150215Y8671969D01*
X44150215Y8671969D02*
X47006279Y11528033D01*
X30690000Y31700000D02*
X30690000Y33208000D01*
X28550000Y39100000D02*
X28150000Y31700000D01*
X25610000Y33208000D02*
X26010000Y39100000D01*
X25610000Y31700000D02*
X25610000Y33208000D01*
X23070000Y38092000D02*
X23070000Y31700000D01*
X23470000Y39100000D02*
X23070000Y38092000D01*
X15626000Y8546000D02*
X15626000Y10201000D01*
X18166000Y9140340D02*
X18140000Y9114340D01*
X18166000Y10201000D02*
X18166000Y9140340D01*
X15640000Y8060000D02*
X15626000Y8546000D01*
X18140000Y9114340D02*
X18140000Y8060000D01*
X18140000Y8060000D02*
X15640000Y8060000D01*
X14876001Y12223999D02*
X14876001Y10950999D01*
X13086000Y12406000D02*
X13140000Y12460000D01*
X13086000Y10201000D02*
X13086000Y12406000D01*
X13140000Y12460000D02*
X13040000Y12560000D01*
X14876001Y10950999D02*
X15626000Y10201000D01*
X13040000Y12560000D02*
X14540000Y12560000D01*
X14540000Y12560000D02*
X14876001Y12223999D01*
X13140000Y12560000D02*
X10940000Y12560000D01*
X10546000Y12266000D02*
X10546000Y10201000D01*
X12000000Y14500000D02*
X12000000Y13720000D01*
X12000000Y13720000D02*
X10546000Y12266000D01*
X31090000Y40358000D02*
X31040000Y40408000D01*
X31090000Y39100000D02*
X31090000Y40358000D01*
X31040000Y40408000D02*
X31040000Y41960000D01*
X31040000Y41960000D02*
X30940000Y42060000D01*
X30940000Y42060000D02*
X28540000Y42060000D01*
X28550000Y42050000D02*
X28540000Y42060000D01*
X28550000Y39100000D02*
X28550000Y42050000D01*
X28540000Y42060000D02*
X25840000Y42060000D01*
X26010000Y41890000D02*
X25840000Y42060000D01*
X26010000Y39100000D02*
X26010000Y41890000D01*
X23470000Y40160660D02*
X23640000Y40330660D01*
X23470000Y39100000D02*
X23470000Y40160660D01*
X23640000Y40330660D02*
X23640000Y41760000D01*
X26010000Y41890000D02*
X23470000Y41890000D01*
X33161773Y35738227D02*
X33240000Y35660000D01*
X30861773Y35738227D02*
X33161773Y35738227D01*
X30861773Y35738227D02*
X31090000Y39100000D01*
X33240000Y35660000D02*
X33230000Y42730000D01*
X30690000Y33208000D02*
X30861773Y35738227D01*
X33230000Y31700000D02*
X33240000Y35660000D01*
X41050000Y30150000D02*
X41050000Y23260000D01*
X40210000Y30990000D02*
X41050000Y30150000D01*
X36500000Y31500000D02*
X37010000Y30990000D01*
X33230000Y31700000D02*
X34338000Y31700000D01*
X34338000Y31700000D02*
X34538000Y31500000D01*
X34538000Y31500000D02*
X36500000Y31500000D01*
X37010000Y30990000D02*
X40210000Y30990000D01*
X51225999Y21490001D02*
X50926000Y21790000D01*
X51523010Y21192990D02*
X51225999Y21490001D01*
X63198202Y16400000D02*
X63344201Y16545999D01*
X63344201Y16545999D02*
X63363201Y16545999D01*
X56373000Y16400000D02*
X63198202Y16400000D01*
X63454001Y19363201D02*
X63363201Y19454001D01*
X54529071Y14556071D02*
X56373000Y16400000D01*
X41636799Y15954001D02*
X53131141Y15954001D01*
X53131141Y15954001D02*
X54529071Y14556071D01*
X41545999Y15863201D02*
X41636799Y15954001D01*
X38302079Y10795999D02*
X39697921Y10795999D01*
X41545999Y12644077D02*
X41545999Y15863201D01*
X63363201Y16545999D02*
X63454001Y16636799D01*
X35000000Y14098078D02*
X38302079Y10795999D01*
X35000000Y14519000D02*
X35000000Y14098078D01*
X63363201Y19454001D02*
X62145999Y19454001D01*
X39697921Y10795999D02*
X41545999Y12644077D01*
X63454001Y16636799D02*
X63454001Y19363201D01*
X62145999Y19454001D02*
X61936341Y19663659D01*
X61936341Y19663659D02*
X61139562Y19663659D01*
X61139562Y19663659D02*
X60640000Y20163221D01*
X55617659Y21192990D02*
X51523010Y21192990D01*
X60640000Y20163221D02*
X60140438Y19663659D01*
X60140438Y19663659D02*
X56327831Y19663659D01*
X56327831Y19663659D02*
X55617659Y20373831D01*
X55617659Y20373831D02*
X55617659Y21192990D01*
X26010000Y41890000D02*
X26010000Y42400000D01*
X19630000Y45740000D02*
X19630000Y45700000D01*
X19592011Y45662011D02*
X19343532Y45662011D01*
X19630000Y45700000D02*
X19592011Y45662011D01*
X19343532Y45662011D02*
X18789531Y45108010D01*
X15210469Y45108010D02*
X13828479Y46490000D01*
X18789531Y45108010D02*
X15210469Y45108010D01*
X13828479Y46490000D02*
X13090000Y46490000D01*
X39000000Y47000000D02*
X61000000Y47000000D01*
X41508000Y47000000D02*
X39000000Y47000000D01*
X44330000Y47000000D02*
X41508000Y47000000D01*
X48730000Y51400000D02*
X44330000Y47000000D01*
X48730000Y51800000D02*
X48730000Y51400000D01*
X19498000Y18019000D02*
X16990000Y18019000D01*
X31198934Y16681012D02*
X29617922Y15100000D01*
X39000000Y18019000D02*
X36492000Y18019000D01*
X26382078Y15100000D02*
X23595999Y17886079D01*
X23595999Y18104001D02*
X23510998Y18019000D01*
X29617922Y15100000D02*
X26382078Y15100000D01*
X23510998Y18019000D02*
X19498000Y18019000D01*
X35154012Y16681012D02*
X31198934Y16681012D01*
X36492000Y18019000D02*
X35154012Y16681012D01*
X23595999Y17886079D02*
X23595999Y18104001D01*
X35154012Y45662012D02*
X36492000Y47000000D01*
X31343532Y45662012D02*
X35154012Y45662012D01*
X30837988Y44848543D02*
X30837988Y45156468D01*
X25162012Y43900000D02*
X29889446Y43900000D01*
X25162012Y45156468D02*
X25162012Y43900000D01*
X24656468Y45662012D02*
X25162012Y45156468D01*
X29889446Y43900000D02*
X30837988Y44848543D01*
X19508000Y47000000D02*
X20845988Y45662012D01*
X17000000Y47000000D02*
X19508000Y47000000D01*
X36492000Y47000000D02*
X39000000Y47000000D01*
X20845988Y45662012D02*
X24656468Y45662012D01*
X30837988Y45156468D02*
X31343532Y45662012D01*
X74490722Y44501277D02*
X74837988Y44848543D01*
X74489446Y44500000D02*
X74490722Y44501277D01*
X69162012Y44500000D02*
X74489446Y44500000D01*
X74837988Y45156468D02*
X75343532Y45662012D01*
X69162012Y45156468D02*
X69162012Y44500000D01*
X68656468Y45662012D02*
X69162012Y45156468D01*
X80492000Y47000000D02*
X83000000Y47000000D01*
X74837988Y44848543D02*
X74837988Y45156468D01*
X75343532Y45662012D02*
X79154012Y45662012D01*
X61000000Y47000000D02*
X63508000Y47000000D01*
X79154012Y45662012D02*
X80492000Y47000000D01*
X64845988Y45662012D02*
X68656468Y45662012D01*
X63508000Y47000000D02*
X64845988Y45662012D01*
X48670000Y23260000D02*
X48670000Y28530000D01*
X48670000Y28530000D02*
X47640000Y29560000D01*
X39459000Y17560000D02*
X39000000Y18019000D01*
X61000000Y18019000D02*
X60541000Y17560000D01*
X60541000Y17560000D02*
X39459000Y17560000D01*
X48640000Y21070000D02*
X48640000Y23230000D01*
X39459000Y17560000D02*
X45130000Y17560000D01*
X48640000Y23230000D02*
X48670000Y23260000D01*
X45130000Y17560000D02*
X48640000Y21070000D01*
X21502341Y50212169D02*
X20754510Y50960000D01*
X19508000Y47000000D02*
X21502341Y48994341D01*
X21502341Y48994341D02*
X21502341Y50212169D01*
X20754510Y50960000D02*
X16890000Y50960000D01*
X23510998Y20113512D02*
X23510998Y18019000D01*
X21324509Y22300001D02*
X23510998Y20113512D01*
X20849999Y22300001D02*
X21324509Y22300001D01*
X20550000Y22600000D02*
X20849999Y22300001D01*
X58492000Y45008000D02*
X60000000Y43500000D01*
X41508000Y45008000D02*
X58492000Y45008000D01*
X60000000Y43500000D02*
X61000000Y43500000D01*
X40000000Y43500000D02*
X41508000Y45008000D01*
X39000000Y43500000D02*
X40000000Y43500000D01*
X26088810Y14391990D02*
X24507799Y15973001D01*
X29911189Y14391989D02*
X26088810Y14391990D01*
X15990000Y14519000D02*
X14535999Y15973001D01*
X24507799Y15973001D02*
X18707723Y15973001D01*
X53420001Y16755999D02*
X41437519Y16755999D01*
X53720000Y16456000D02*
X53420001Y16755999D01*
X17253722Y14519000D02*
X15990000Y14519000D01*
X18707723Y15973001D02*
X17253722Y14519000D01*
X41437519Y16755999D02*
X40654521Y15973001D01*
X31492201Y15973001D02*
X29911189Y14391989D01*
X75636799Y44954001D02*
X75545999Y44863201D01*
X68454001Y44863201D02*
X68363201Y44954001D01*
X62454001Y44954001D02*
X61000000Y43500000D01*
X75545999Y44555275D02*
X74782713Y43791989D01*
X68454001Y43791989D02*
X68454001Y44863201D01*
X75545999Y44863201D02*
X75545999Y44555275D01*
X68363201Y44954001D02*
X62454001Y44954001D01*
X74782713Y43791989D02*
X68454001Y43791989D01*
X81545999Y44954001D02*
X75636799Y44954001D01*
X83000000Y43500000D02*
X81545999Y44954001D01*
X39073001Y14573001D02*
X39000000Y14500000D01*
X39073001Y15973001D02*
X39073001Y14573001D01*
X40654521Y15973001D02*
X39073001Y15973001D01*
X39073001Y15973001D02*
X31492201Y15973001D01*
X36064111Y38556988D02*
X36064111Y38981252D01*
X43590000Y23260000D02*
X43590000Y31610000D01*
X36064111Y34618687D02*
X36064111Y38556988D01*
X41154001Y34045999D02*
X36636799Y34045999D01*
X36636799Y34045999D02*
X36064111Y34618687D01*
X43590000Y31610000D02*
X41154001Y34045999D01*
X12117659Y18391341D02*
X12117659Y21787659D01*
X14535999Y15973001D02*
X12117659Y18391341D01*
X12117659Y21787659D02*
X13210000Y22880000D01*
X43280000Y18540000D02*
X44360000Y18540000D01*
X44964001Y21885999D02*
X44964001Y19962079D01*
X44964001Y19962079D02*
X43501922Y18500000D01*
X43590000Y23260000D02*
X44964001Y21885999D01*
X43501922Y18500000D02*
X43240000Y18500000D01*
X43240000Y18500000D02*
X43280000Y18540000D01*
X31545999Y44555275D02*
X30182713Y43191989D01*
X39000000Y43500000D02*
X37545999Y44954001D01*
X24454001Y43191989D02*
X24454001Y44863201D01*
X24454001Y44863201D02*
X24363201Y44954001D01*
X31545999Y44863201D02*
X31545999Y44555275D01*
X37545999Y44954001D02*
X31636799Y44954001D01*
X19636799Y44954001D02*
X19545999Y44863201D01*
X19545999Y44400000D02*
X17900000Y44400000D01*
X31636799Y44954001D02*
X31545999Y44863201D01*
X30182713Y43191989D02*
X24454001Y43191989D01*
X24363201Y44954001D02*
X19636799Y44954001D01*
X17900000Y44400000D02*
X17000000Y43500000D01*
X19545999Y44863201D02*
X19545999Y44400000D01*
X13100000Y51920000D02*
X13100000Y52000000D01*
X11457659Y50277659D02*
X13100000Y51920000D01*
X13325999Y44954001D02*
X11457659Y46822341D01*
X14780000Y43500000D02*
X14454001Y43825999D01*
X17000000Y43500000D02*
X14780000Y43500000D01*
X14454001Y44863201D02*
X14363201Y44954001D01*
X11457659Y46822341D02*
X11457659Y50277659D01*
X14363201Y44954001D02*
X13325999Y44954001D01*
X14454001Y43825999D02*
X14454001Y44863201D01*
X80545999Y7863201D02*
X80545999Y6042000D01*
X80636799Y7954001D02*
X80545999Y7863201D01*
X84454001Y7954001D02*
X80636799Y7954001D01*
X88000000Y11500000D02*
X84454001Y7954001D01*
X80545999Y6042000D02*
X73278000Y6042000D01*
X88000000Y14519000D02*
X88000000Y11500000D01*
X23500000Y3501278D02*
X26157754Y6159032D01*
X52982535Y10820021D02*
X57837990Y5964566D01*
X35645478Y7963958D02*
X44443481Y7963959D01*
X57837990Y5964566D02*
X57837990Y4843531D01*
X33840552Y6159032D02*
X35645478Y7963958D01*
X47299549Y10820022D02*
X52982535Y10820021D01*
X57837990Y4843531D02*
X58343533Y4337988D01*
X71718746Y4337988D02*
X72259252Y4878494D01*
X58343533Y4337988D02*
X71718746Y4337988D01*
X44443481Y7963959D02*
X47299549Y10820022D01*
X23500000Y2581000D02*
X23500000Y3501278D01*
X26157754Y6159032D02*
X33840552Y6159032D01*
X66000000Y14519000D02*
X66000000Y12204078D01*
X73186080Y5017998D02*
X73615736Y5017998D01*
X66000000Y12204078D02*
X73186080Y5017998D01*
X73615736Y5017998D02*
X74040000Y5017998D01*
X58064221Y3616022D02*
X72638024Y3616022D01*
X36389531Y4291989D02*
X41790711Y4291989D01*
X57129979Y5671299D02*
X57129979Y4550264D01*
X41790711Y4291989D02*
X42774067Y5275345D01*
X73740001Y4717999D02*
X74040000Y5017998D01*
X26040000Y2581000D02*
X28202012Y4743012D01*
X52689267Y10112011D02*
X57129979Y5671299D01*
X28202012Y4743012D02*
X35938508Y4743012D01*
X72638024Y3616022D02*
X73740001Y4717999D01*
X57129979Y4550264D02*
X58064221Y3616022D01*
X42774067Y5275345D02*
X42774067Y5293263D01*
X35938508Y4743012D02*
X36389531Y4291989D01*
X42774067Y5293263D02*
X47592816Y10112011D01*
X47592816Y10112011D02*
X52689267Y10112011D01*
X53958961Y7558960D02*
X54000000Y7599999D01*
X52113921Y9404001D02*
X53958961Y7558960D01*
X47886079Y9404001D02*
X52113921Y9404001D01*
X45595999Y7113921D02*
X47886079Y9404001D01*
X45595999Y7095999D02*
X45595999Y7113921D01*
X42083978Y3583978D02*
X45595999Y7095999D01*
X35413466Y3583978D02*
X42083978Y3583978D01*
X28580000Y2581000D02*
X28580000Y2981000D01*
X28580000Y2981000D02*
X29634001Y4035001D01*
X29634001Y4035001D02*
X34962443Y4035001D01*
X34962443Y4035001D02*
X35413466Y3583978D01*
X53958961Y7558960D02*
X56421968Y5095953D01*
X56421968Y5095953D02*
X56421968Y4256996D01*
X77764011Y2908011D02*
X78820001Y3964001D01*
X56421968Y4256996D02*
X57770953Y2908011D01*
X57770953Y2908011D02*
X77764011Y2908011D01*
X78820001Y3964001D02*
X79120000Y4264000D01*
X28326000Y10201000D02*
X28326000Y10601000D01*
X28326000Y10601000D02*
X24408000Y14519000D01*
X24408000Y14519000D02*
X21990000Y14519000D01*
X33971011Y761989D02*
X33660000Y1073000D01*
X47338011Y761989D02*
X33971011Y761989D01*
X82800000Y2200000D02*
X53680000Y2200000D01*
X33660000Y1073000D02*
X33660000Y2581000D01*
X52040000Y560000D02*
X47540000Y560000D01*
X90300000Y9700000D02*
X82800000Y2200000D01*
X53680000Y2200000D02*
X52040000Y560000D01*
X47540000Y560000D02*
X47338011Y761989D01*
X52913852Y14281076D02*
X53196866Y13998062D01*
X48408478Y14281076D02*
X52913852Y14281076D01*
X53196866Y13998062D02*
X53496865Y13698063D01*
X65000000Y10400000D02*
X60100000Y10400000D01*
X60100000Y10400000D02*
X59600000Y10900000D01*
X85116834Y10183166D02*
X78116834Y10183166D01*
X78116834Y10183166D02*
X77900000Y10400000D01*
X20530000Y33208000D02*
X20930000Y39100000D01*
X20530000Y31700000D02*
X20530000Y33208000D01*
X19454001Y32056001D02*
X19098000Y31700000D01*
X19098000Y31700000D02*
X17990000Y31700000D01*
X19454001Y39243999D02*
X19454001Y32056001D01*
X19098000Y39600000D02*
X19454001Y39243999D01*
X18390000Y39100000D02*
X19098000Y39600000D01*
X15450000Y33208000D02*
X15450000Y31700000D01*
X14545999Y34112001D02*
X15450000Y33208000D01*
X15450000Y38092000D02*
X14545999Y37187999D01*
X14545999Y37187999D02*
X14545999Y34112001D01*
X15850000Y39100000D02*
X15450000Y38092000D01*
X22041999Y10778921D02*
X23403078Y12140000D01*
X22041999Y9033999D02*
X22041999Y10778921D01*
X17000000Y6500000D02*
X19508000Y6500000D01*
X19508000Y6500000D02*
X22041999Y9033999D01*
X23403078Y12140000D02*
X25040000Y12140000D01*
X22550000Y19360000D02*
X20950000Y20960000D01*
X22580000Y19360000D02*
X22550000Y19360000D01*
X16640000Y35140000D02*
X17000000Y35500000D01*
X16640000Y32710000D02*
X16640000Y35140000D01*
X51847921Y53004001D02*
X52474001Y52377921D01*
X45641922Y49470000D02*
X47525999Y51354077D01*
X42200000Y49470000D02*
X45641922Y49470000D01*
X47525999Y52377921D02*
X48152079Y53004001D01*
X48152079Y53004001D02*
X51847921Y53004001D01*
X52474001Y52377921D02*
X52474001Y49084001D01*
X47525999Y51354077D02*
X47525999Y52377921D01*
X52474001Y49084001D02*
X51670000Y48280000D01*
X49348011Y20711679D02*
X47863165Y19226833D01*
X51210000Y23260000D02*
X49348011Y21398011D01*
X47863165Y19226833D02*
X47563166Y18926834D01*
X49348011Y21398011D02*
X49348011Y20711679D01*
X33617659Y21232341D02*
X33617659Y20312341D01*
X31350000Y23500000D02*
X33617659Y21232341D01*
X33617659Y20312341D02*
X34620000Y19310000D01*
X31017922Y23500000D02*
X31350000Y23500000D01*
X15870000Y23500000D02*
X24982078Y23500000D01*
X24982078Y23500000D02*
X25886079Y24404001D01*
X25886079Y24404001D02*
X30113921Y24404001D01*
X13330000Y20960000D02*
X15870000Y23500000D01*
X30113921Y24404001D02*
X31017922Y23500000D01*
X36080000Y50460000D02*
X34830000Y49210000D01*
X44890000Y50460000D02*
X36080000Y50460000D01*
X36125999Y22055999D02*
X35476221Y21406221D01*
X42163201Y22055999D02*
X36125999Y22055999D01*
X43012079Y22055999D02*
X42921279Y22146799D01*
X42254001Y22146799D02*
X42163201Y22055999D01*
X43300304Y22055999D02*
X43012079Y22055999D01*
X35476221Y21406221D02*
X34940000Y20870000D01*
X43896039Y21460264D02*
X43300304Y22055999D01*
X42921279Y22146799D02*
X42254001Y22146799D01*
X43896039Y21036000D02*
X43896039Y21460264D01*
M02*
