M48
; DRILL file {KiCad (5.1.5)-3} date 2020-12-12 11:51:03 PM
; FORMAT={-:-/ absolute / inch / decimal}
; #@! TF.CreationDate,2020-12-12T23:51:03-08:00
; #@! TF.GenerationSoftware,Kicad,Pcbnew,(5.1.5)-3
; #@! TF.FileFunction,Plated,1,2,PTH
FMAT,2
INCH
T1C0.0157
T2C0.0250
T3C0.0276
T4C0.0315
T5C0.0394
T6C0.3307
%
G90
G05
T1
X0.5154Y1.8303
X0.5157Y2.0472
X0.5201Y0.9008
X0.6551Y1.2878
X0.665Y2.0063
X0.7728Y1.8008
X0.8091Y0.8898
X0.8091Y0.8898
X0.889Y0.7622
X0.9858Y0.478
X0.9858Y0.478
X1.024Y1.6693
X1.363Y0.7602
X1.4198Y1.5347
X1.6535Y0.2362
X1.7282Y0.8282
X1.7465Y0.7299
X1.7673Y1.9866
X1.8726Y0.7452
X1.8756Y1.1638
X1.8815Y0.6598
X1.9058Y0.5622
X2.005Y0.8579
X2.0343Y1.9008
X2.1062Y0.5393
X2.115Y0.6479
X2.2656Y0.4055
X2.3465Y0.4291
X2.505Y0.2579
X2.5591Y0.4094
X2.745Y0.2379
X2.8228Y0.1732
X2.885Y0.2379
X2.915Y0.1976
X3.0669Y0.4094
X3.115Y0.1679
X3.3511Y0.4009
X3.5551Y0.3819
T2
X3.1142Y1.976
X3.4142Y1.976
X2.2374Y0.8219
X2.5374Y0.8219
X0.4988Y1.9571
X0.7988Y1.9571
X1.3756Y0.8217
X1.6756Y0.8217
X3.1035Y0.8252
X3.4035Y0.8252
X0.5248Y0.8252
X0.8248Y0.8252
X2.2437Y1.9402
X2.5437Y1.9402
X1.3713Y1.9374
X1.6713Y1.9374
T4
X0.4152Y0.4016
X0.5152Y0.4016
X0.6152Y0.4016
X0.7152Y0.4016
X0.8152Y0.4016
X0.9152Y0.4016
X1.0152Y0.4016
X1.1152Y0.4016
X1.6185Y2.0394
X1.7185Y2.0394
X1.8185Y2.0394
X1.9185Y2.0394
X2.0185Y2.0394
X2.1185Y2.0394
X2.2185Y2.0394
X2.3185Y2.0394
X0.524Y1.5394
X0.624Y1.5394
X0.724Y1.5394
X0.824Y1.5394
X0.924Y1.5394
X1.024Y1.5394
X1.124Y1.5394
X1.224Y1.5394
X1.6201Y2.798
X1.7201Y2.798
X1.8201Y2.798
X1.9201Y2.798
X2.0201Y2.798
X2.1201Y2.798
X2.2201Y2.798
X2.3201Y2.798
X1.6201Y2.698
X1.7201Y2.698
X1.8201Y2.698
X1.9201Y2.698
X2.0201Y2.698
X2.1201Y2.698
X2.2201Y2.698
X2.3201Y2.698
X1.6161Y0.9157
X1.7161Y0.9157
X1.8161Y0.9157
X1.9161Y0.9157
X2.0161Y0.9157
X2.1161Y0.9157
X2.2161Y0.9157
X2.3161Y0.9157
T5
X0.415Y0.0984
X0.515Y0.0984
X0.615Y0.0984
X0.715Y0.0984
X0.815Y0.0984
X0.915Y0.0984
X1.015Y0.0984
X1.115Y0.0984
X1.215Y0.0984
X1.315Y0.0984
X1.7201Y2.9819
X1.7201Y2.3819
X1.8201Y2.9819
X1.8201Y2.3819
X1.9201Y2.9819
X1.9201Y2.3819
X2.0201Y2.9819
X2.0201Y2.3819
X2.1201Y2.9819
X2.1201Y2.3819
X2.2201Y2.9819
X2.2201Y2.3819
X0.4083Y1.248
X0.5083Y1.248
X0.6083Y1.248
X0.7083Y1.248
X0.8083Y1.248
X0.9083Y1.248
X1.0083Y1.248
X1.1083Y1.248
X1.2083Y1.248
X1.3083Y1.248
T6
X3.6Y2.4039
T3
G00X2.1594Y1.7126
M15
G01X2.25Y1.7126
M16
G05
G00X2.3563Y1.8504
M15
G01X2.4469Y1.8504
M16
G05
G00X2.3563Y1.7126
M15
G01X2.4469Y1.7126
M16
G05
G00X2.3563Y1.3976
M15
G01X2.4469Y1.3976
M16
G05
G00X2.5531Y1.7126
M15
G01X2.6437Y1.7126
M16
G05
G00X3.0256Y0.5709
M15
G01X3.1161Y0.5709
M16
G05
G00X3.2224Y0.7087
M15
G01X3.313Y0.7087
M16
G05
G00X3.2224Y0.5709
M15
G01X3.313Y0.5709
M16
G05
G00X3.2224Y0.2559
M15
G01X3.313Y0.2559
M16
G05
G00X3.4193Y0.5709
M15
G01X3.5098Y0.5709
M16
G05
G00X1.2933Y1.7126
M15
G01X1.3839Y1.7126
M16
G05
G00X1.4902Y1.8504
M15
G01X1.5807Y1.8504
M16
G05
G00X1.4902Y1.7126
M15
G01X1.5807Y1.7126
M16
G05
G00X1.4902Y1.3976
M15
G01X1.5807Y1.3976
M16
G05
G00X1.687Y1.7126
M15
G01X1.7776Y1.7126
M16
G05
G00X0.4272Y0.5709
M15
G01X0.5177Y0.5709
M16
G05
G00X0.624Y0.7087
M15
G01X0.7146Y0.7087
M16
G05
G00X0.624Y0.5709
M15
G01X0.7146Y0.5709
M16
G05
G00X0.624Y0.2559
M15
G01X0.7146Y0.2559
M16
G05
G00X0.8209Y0.5709
M15
G01X0.9114Y0.5709
M16
G05
G00X3.0256Y1.7126
M15
G01X3.1161Y1.7126
M16
G05
G00X3.2224Y1.8504
M15
G01X3.313Y1.8504
M16
G05
G00X3.2224Y1.7126
M15
G01X3.313Y1.7126
M16
G05
G00X3.2224Y1.3976
M15
G01X3.313Y1.3976
M16
G05
G00X3.4193Y1.7126
M15
G01X3.5098Y1.7126
M16
G05
G00X1.2933Y0.5709
M15
G01X1.3839Y0.5709
M16
G05
G00X1.4902Y0.7087
M15
G01X1.5807Y0.7087
M16
G05
G00X1.4902Y0.5709
M15
G01X1.5807Y0.5709
M16
G05
G00X1.4902Y0.2559
M15
G01X1.5807Y0.2559
M16
G05
G00X1.687Y0.5709
M15
G01X1.7776Y0.5709
M16
G05
G00X2.1594Y0.5709
M15
G01X2.25Y0.5709
M16
G05
G00X2.3563Y0.7087
M15
G01X2.4469Y0.7087
M16
G05
G00X2.3563Y0.5709
M15
G01X2.4469Y0.5709
M16
G05
G00X2.3563Y0.2559
M15
G01X2.4469Y0.2559
M16
G05
G00X2.5531Y0.5709
M15
G01X2.6437Y0.5709
M16
G05
G00X0.4272Y1.7126
M15
G01X0.5177Y1.7126
M16
G05
G00X0.624Y1.8504
M15
G01X0.7146Y1.8504
M16
G05
G00X0.624Y1.7126
M15
G01X0.7146Y1.7126
M16
G05
G00X0.624Y1.3976
M15
G01X0.7146Y1.3976
M16
G05
G00X0.8209Y1.7126
M15
G01X0.9114Y1.7126
M16
G05
T0
M30
