G04 #@! TF.GenerationSoftware,KiCad,Pcbnew,(5.1.5)-3*
G04 #@! TF.CreationDate,2020-12-12T23:50:59-08:00*
G04 #@! TF.ProjectId,button_pcb_4x_laz16-11_,62757474-6f6e-45f7-9063-625f34785f6c,rev?*
G04 #@! TF.SameCoordinates,Original*
G04 #@! TF.FileFunction,Soldermask,Bot*
G04 #@! TF.FilePolarity,Negative*
%FSLAX46Y46*%
G04 Gerber Fmt 4.6, Leading zero omitted, Abs format (unit mm)*
G04 Created by KiCad (PCBNEW (5.1.5)-3) date 2020-12-12 23:50:59*
%MOMM*%
%LPD*%
G04 APERTURE LIST*
%ADD10C,0.100000*%
G04 APERTURE END LIST*
D10*
G36*
X13197621Y3491318D02*
G01*
X13310721Y3457010D01*
X13414955Y3401296D01*
X13506317Y3326317D01*
X13581296Y3234955D01*
X13637010Y3130721D01*
X13671318Y3017621D01*
X13680000Y2929474D01*
X13680000Y2070526D01*
X13671318Y1982379D01*
X13637010Y1869279D01*
X13581296Y1765045D01*
X13506317Y1673683D01*
X13414954Y1598704D01*
X13310720Y1542990D01*
X13197620Y1508682D01*
X13080000Y1497097D01*
X12962379Y1508682D01*
X12849279Y1542990D01*
X12745045Y1598704D01*
X12653683Y1673683D01*
X12578704Y1765046D01*
X12522990Y1869280D01*
X12488682Y1982380D01*
X12480000Y2070527D01*
X12480000Y2929474D01*
X12488682Y3017621D01*
X12522991Y3130721D01*
X12578705Y3234955D01*
X12653684Y3326317D01*
X12745046Y3401296D01*
X12849280Y3457010D01*
X12962380Y3491318D01*
X13080000Y3502903D01*
X13197621Y3491318D01*
G37*
G36*
X10657621Y3491318D02*
G01*
X10770721Y3457010D01*
X10874955Y3401296D01*
X10966317Y3326317D01*
X11041296Y3234955D01*
X11097010Y3130721D01*
X11131318Y3017621D01*
X11140000Y2929474D01*
X11140000Y2070526D01*
X11131318Y1982379D01*
X11097010Y1869279D01*
X11041296Y1765045D01*
X10966317Y1673683D01*
X10874954Y1598704D01*
X10770720Y1542990D01*
X10657620Y1508682D01*
X10540000Y1497097D01*
X10422379Y1508682D01*
X10309279Y1542990D01*
X10205045Y1598704D01*
X10113683Y1673683D01*
X10038704Y1765046D01*
X9982990Y1869280D01*
X9948682Y1982380D01*
X9940000Y2070527D01*
X9940000Y2929474D01*
X9948682Y3017621D01*
X9982991Y3130721D01*
X10038705Y3234955D01*
X10113684Y3326317D01*
X10205046Y3401296D01*
X10309280Y3457010D01*
X10422380Y3491318D01*
X10540000Y3502903D01*
X10657621Y3491318D01*
G37*
G36*
X30977621Y3491318D02*
G01*
X31090721Y3457010D01*
X31194955Y3401296D01*
X31286317Y3326317D01*
X31361296Y3234955D01*
X31417010Y3130721D01*
X31451318Y3017621D01*
X31460000Y2929474D01*
X31460000Y2070526D01*
X31451318Y1982379D01*
X31417010Y1869279D01*
X31361296Y1765045D01*
X31286317Y1673683D01*
X31194954Y1598704D01*
X31090720Y1542990D01*
X30977620Y1508682D01*
X30860000Y1497097D01*
X30742379Y1508682D01*
X30629279Y1542990D01*
X30525045Y1598704D01*
X30433683Y1673683D01*
X30358704Y1765046D01*
X30302990Y1869280D01*
X30268682Y1982380D01*
X30260000Y2070527D01*
X30260000Y2929474D01*
X30268682Y3017621D01*
X30302991Y3130721D01*
X30358705Y3234955D01*
X30433684Y3326317D01*
X30525046Y3401296D01*
X30629280Y3457010D01*
X30742380Y3491318D01*
X30860000Y3502903D01*
X30977621Y3491318D01*
G37*
G36*
X28437621Y3491318D02*
G01*
X28550721Y3457010D01*
X28654955Y3401296D01*
X28746317Y3326317D01*
X28821296Y3234955D01*
X28877010Y3130721D01*
X28911318Y3017621D01*
X28920000Y2929474D01*
X28920000Y2070526D01*
X28911318Y1982379D01*
X28877010Y1869279D01*
X28821296Y1765045D01*
X28746317Y1673683D01*
X28654954Y1598704D01*
X28550720Y1542990D01*
X28437620Y1508682D01*
X28320000Y1497097D01*
X28202379Y1508682D01*
X28089279Y1542990D01*
X27985045Y1598704D01*
X27893683Y1673683D01*
X27818704Y1765046D01*
X27762990Y1869280D01*
X27728682Y1982380D01*
X27720000Y2070527D01*
X27720000Y2929474D01*
X27728682Y3017621D01*
X27762991Y3130721D01*
X27818705Y3234955D01*
X27893684Y3326317D01*
X27985046Y3401296D01*
X28089280Y3457010D01*
X28202380Y3491318D01*
X28320000Y3502903D01*
X28437621Y3491318D01*
G37*
G36*
X25897621Y3491318D02*
G01*
X26010721Y3457010D01*
X26114955Y3401296D01*
X26206317Y3326317D01*
X26281296Y3234955D01*
X26337010Y3130721D01*
X26371318Y3017621D01*
X26380000Y2929474D01*
X26380000Y2070526D01*
X26371318Y1982379D01*
X26337010Y1869279D01*
X26281296Y1765045D01*
X26206317Y1673683D01*
X26114954Y1598704D01*
X26010720Y1542990D01*
X25897620Y1508682D01*
X25780000Y1497097D01*
X25662379Y1508682D01*
X25549279Y1542990D01*
X25445045Y1598704D01*
X25353683Y1673683D01*
X25278704Y1765046D01*
X25222990Y1869280D01*
X25188682Y1982380D01*
X25180000Y2070527D01*
X25180000Y2929474D01*
X25188682Y3017621D01*
X25222991Y3130721D01*
X25278705Y3234955D01*
X25353684Y3326317D01*
X25445046Y3401296D01*
X25549280Y3457010D01*
X25662380Y3491318D01*
X25780000Y3502903D01*
X25897621Y3491318D01*
G37*
G36*
X20817621Y3491318D02*
G01*
X20930721Y3457010D01*
X21034955Y3401296D01*
X21126317Y3326317D01*
X21201296Y3234955D01*
X21257010Y3130721D01*
X21291318Y3017621D01*
X21300000Y2929474D01*
X21300000Y2070526D01*
X21291318Y1982379D01*
X21257010Y1869279D01*
X21201296Y1765045D01*
X21126317Y1673683D01*
X21034954Y1598704D01*
X20930720Y1542990D01*
X20817620Y1508682D01*
X20700000Y1497097D01*
X20582379Y1508682D01*
X20469279Y1542990D01*
X20365045Y1598704D01*
X20273683Y1673683D01*
X20198704Y1765046D01*
X20142990Y1869280D01*
X20108682Y1982380D01*
X20100000Y2070527D01*
X20100000Y2929474D01*
X20108682Y3017621D01*
X20142991Y3130721D01*
X20198705Y3234955D01*
X20273684Y3326317D01*
X20365046Y3401296D01*
X20469280Y3457010D01*
X20582380Y3491318D01*
X20700000Y3502903D01*
X20817621Y3491318D01*
G37*
G36*
X23357621Y3491318D02*
G01*
X23470721Y3457010D01*
X23574955Y3401296D01*
X23666317Y3326317D01*
X23741296Y3234955D01*
X23797010Y3130721D01*
X23831318Y3017621D01*
X23840000Y2929474D01*
X23840000Y2070526D01*
X23831318Y1982379D01*
X23797010Y1869279D01*
X23741296Y1765045D01*
X23666317Y1673683D01*
X23574954Y1598704D01*
X23470720Y1542990D01*
X23357620Y1508682D01*
X23240000Y1497097D01*
X23122379Y1508682D01*
X23009279Y1542990D01*
X22905045Y1598704D01*
X22813683Y1673683D01*
X22738704Y1765046D01*
X22682990Y1869280D01*
X22648682Y1982380D01*
X22640000Y2070527D01*
X22640000Y2929474D01*
X22648682Y3017621D01*
X22682991Y3130721D01*
X22738705Y3234955D01*
X22813684Y3326317D01*
X22905046Y3401296D01*
X23009280Y3457010D01*
X23122380Y3491318D01*
X23240000Y3502903D01*
X23357621Y3491318D01*
G37*
G36*
X15737621Y3491318D02*
G01*
X15850721Y3457010D01*
X15954955Y3401296D01*
X16046317Y3326317D01*
X16121296Y3234955D01*
X16177010Y3130721D01*
X16211318Y3017621D01*
X16220000Y2929474D01*
X16220000Y2070526D01*
X16211318Y1982379D01*
X16177010Y1869279D01*
X16121296Y1765045D01*
X16046317Y1673683D01*
X15954954Y1598704D01*
X15850720Y1542990D01*
X15737620Y1508682D01*
X15620000Y1497097D01*
X15502379Y1508682D01*
X15389279Y1542990D01*
X15285045Y1598704D01*
X15193683Y1673683D01*
X15118704Y1765046D01*
X15062990Y1869280D01*
X15028682Y1982380D01*
X15020000Y2070527D01*
X15020000Y2929474D01*
X15028682Y3017621D01*
X15062991Y3130721D01*
X15118705Y3234955D01*
X15193684Y3326317D01*
X15285046Y3401296D01*
X15389280Y3457010D01*
X15502380Y3491318D01*
X15620000Y3502903D01*
X15737621Y3491318D01*
G37*
G36*
X18277621Y3491318D02*
G01*
X18390721Y3457010D01*
X18494955Y3401296D01*
X18586317Y3326317D01*
X18661296Y3234955D01*
X18717010Y3130721D01*
X18751318Y3017621D01*
X18760000Y2929474D01*
X18760000Y2070526D01*
X18751318Y1982379D01*
X18717010Y1869279D01*
X18661296Y1765045D01*
X18586317Y1673683D01*
X18494954Y1598704D01*
X18390720Y1542990D01*
X18277620Y1508682D01*
X18160000Y1497097D01*
X18042379Y1508682D01*
X17929279Y1542990D01*
X17825045Y1598704D01*
X17733683Y1673683D01*
X17658704Y1765046D01*
X17602990Y1869280D01*
X17568682Y1982380D01*
X17560000Y2070527D01*
X17560000Y2929474D01*
X17568682Y3017621D01*
X17602991Y3130721D01*
X17658705Y3234955D01*
X17733684Y3326317D01*
X17825046Y3401296D01*
X17929280Y3457010D01*
X18042380Y3491318D01*
X18160000Y3502903D01*
X18277621Y3491318D01*
G37*
G36*
X34000000Y1500000D02*
G01*
X32800000Y1500000D01*
X32800000Y3500000D01*
X34000000Y3500000D01*
X34000000Y1500000D01*
G37*
G36*
X95919444Y6608689D02*
G01*
X96127132Y6567377D01*
X96518407Y6405305D01*
X96870545Y6170014D01*
X97170014Y5870545D01*
X97332657Y5627132D01*
X97405306Y5518405D01*
X97452775Y5403805D01*
X97532324Y5211758D01*
X97567377Y5127131D01*
X97650000Y4711758D01*
X97650000Y4288242D01*
X97567377Y3872869D01*
X97412930Y3500000D01*
X97405305Y3481593D01*
X97170014Y3129455D01*
X96870545Y2829986D01*
X96518407Y2594695D01*
X96127132Y2432623D01*
X95919444Y2391311D01*
X95711758Y2350000D01*
X95288242Y2350000D01*
X95080556Y2391311D01*
X94872868Y2432623D01*
X94481593Y2594695D01*
X94129455Y2829986D01*
X93829986Y3129455D01*
X93594695Y3481593D01*
X93587071Y3500000D01*
X93432623Y3872869D01*
X93350000Y4288242D01*
X93350000Y4711758D01*
X93432623Y5127131D01*
X93467677Y5211758D01*
X93547225Y5403805D01*
X93594694Y5518405D01*
X93667343Y5627132D01*
X93829986Y5870545D01*
X94129455Y6170014D01*
X94481593Y6405305D01*
X94872868Y6567377D01*
X95080556Y6608689D01*
X95288242Y6650000D01*
X95711758Y6650000D01*
X95919444Y6608689D01*
G37*
G36*
X4919444Y6608689D02*
G01*
X5127132Y6567377D01*
X5518407Y6405305D01*
X5870545Y6170014D01*
X6170014Y5870545D01*
X6332657Y5627132D01*
X6405306Y5518405D01*
X6452775Y5403805D01*
X6532324Y5211758D01*
X6567377Y5127131D01*
X6650000Y4711758D01*
X6650000Y4288242D01*
X6567377Y3872869D01*
X6412930Y3500000D01*
X6405305Y3481593D01*
X6170014Y3129455D01*
X5870545Y2829986D01*
X5518407Y2594695D01*
X5127132Y2432623D01*
X4919445Y2391312D01*
X4711758Y2350000D01*
X4288242Y2350000D01*
X4080555Y2391312D01*
X3872868Y2432623D01*
X3481593Y2594695D01*
X3129455Y2829986D01*
X2829986Y3129455D01*
X2594695Y3481593D01*
X2587071Y3500000D01*
X2432623Y3872869D01*
X2350000Y4288242D01*
X2350000Y4711758D01*
X2432623Y5127131D01*
X2467677Y5211758D01*
X2547225Y5403805D01*
X2594694Y5518405D01*
X2667343Y5627132D01*
X2829986Y5870545D01*
X3129455Y6170014D01*
X3481593Y6405305D01*
X3872868Y6567377D01*
X4080555Y6608688D01*
X4288242Y6650000D01*
X4711758Y6650000D01*
X4919444Y6608689D01*
G37*
G36*
X50419444Y7108689D02*
G01*
X50627132Y7067377D01*
X51018407Y6905305D01*
X51370545Y6670014D01*
X51670014Y6370545D01*
X51905305Y6018407D01*
X52067377Y5627132D01*
X52150000Y5211757D01*
X52150000Y4788243D01*
X52067377Y4372868D01*
X51905305Y3981593D01*
X51670014Y3629455D01*
X51370545Y3329986D01*
X51018407Y3094695D01*
X50627132Y2932623D01*
X50419444Y2891311D01*
X50211758Y2850000D01*
X49788242Y2850000D01*
X49580556Y2891311D01*
X49372868Y2932623D01*
X48981593Y3094695D01*
X48629455Y3329986D01*
X48329986Y3629455D01*
X48094695Y3981593D01*
X47932623Y4372868D01*
X47850000Y4788243D01*
X47850000Y5211757D01*
X47932623Y5627132D01*
X48094695Y6018407D01*
X48329986Y6370545D01*
X48629455Y6670014D01*
X48981593Y6905305D01*
X49372868Y7067377D01*
X49580556Y7108689D01*
X49788242Y7150000D01*
X50211758Y7150000D01*
X50419444Y7108689D01*
G37*
G36*
X85000000Y5500000D02*
G01*
X81000000Y5500000D01*
X81000000Y7500000D01*
X85000000Y7500000D01*
X85000000Y5500000D01*
G37*
G36*
X63000000Y5500000D02*
G01*
X59000000Y5500000D01*
X59000000Y7500000D01*
X63000000Y7500000D01*
X63000000Y5500000D01*
G37*
G36*
X41000000Y5500000D02*
G01*
X37000000Y5500000D01*
X37000000Y7500000D01*
X41000000Y7500000D01*
X41000000Y5500000D01*
G37*
G36*
X19000000Y5500000D02*
G01*
X15000000Y5500000D01*
X15000000Y7500000D01*
X19000000Y7500000D01*
X19000000Y5500000D01*
G37*
G36*
X20924766Y10922179D02*
G01*
X21061257Y10865642D01*
X21184097Y10783563D01*
X21288563Y10679097D01*
X21370642Y10556257D01*
X21427179Y10419766D01*
X21456000Y10274870D01*
X21456000Y10127130D01*
X21427179Y9982234D01*
X21370642Y9845743D01*
X21288563Y9722903D01*
X21184097Y9618437D01*
X21061257Y9536358D01*
X20924766Y9479821D01*
X20779870Y9451000D01*
X20632130Y9451000D01*
X20487234Y9479821D01*
X20350743Y9536358D01*
X20227903Y9618437D01*
X20123437Y9722903D01*
X20041358Y9845743D01*
X19984821Y9982234D01*
X19956000Y10127130D01*
X19956000Y10274870D01*
X19984821Y10419766D01*
X20041358Y10556257D01*
X20123437Y10679097D01*
X20227903Y10783563D01*
X20350743Y10865642D01*
X20487234Y10922179D01*
X20632130Y10951000D01*
X20779870Y10951000D01*
X20924766Y10922179D01*
G37*
G36*
X11296000Y9451000D02*
G01*
X9796000Y9451000D01*
X9796000Y10951000D01*
X11296000Y10951000D01*
X11296000Y9451000D01*
G37*
G36*
X13304766Y10922179D02*
G01*
X13441257Y10865642D01*
X13564097Y10783563D01*
X13668563Y10679097D01*
X13750642Y10556257D01*
X13807179Y10419766D01*
X13836000Y10274870D01*
X13836000Y10127130D01*
X13807179Y9982234D01*
X13750642Y9845743D01*
X13668563Y9722903D01*
X13564097Y9618437D01*
X13441257Y9536358D01*
X13304766Y9479821D01*
X13159870Y9451000D01*
X13012130Y9451000D01*
X12867234Y9479821D01*
X12730743Y9536358D01*
X12607903Y9618437D01*
X12503437Y9722903D01*
X12421358Y9845743D01*
X12364821Y9982234D01*
X12336000Y10127130D01*
X12336000Y10274870D01*
X12364821Y10419766D01*
X12421358Y10556257D01*
X12503437Y10679097D01*
X12607903Y10783563D01*
X12730743Y10865642D01*
X12867234Y10922179D01*
X13012130Y10951000D01*
X13159870Y10951000D01*
X13304766Y10922179D01*
G37*
G36*
X15844766Y10922179D02*
G01*
X15981257Y10865642D01*
X16104097Y10783563D01*
X16208563Y10679097D01*
X16290642Y10556257D01*
X16347179Y10419766D01*
X16376000Y10274870D01*
X16376000Y10127130D01*
X16347179Y9982234D01*
X16290642Y9845743D01*
X16208563Y9722903D01*
X16104097Y9618437D01*
X15981257Y9536358D01*
X15844766Y9479821D01*
X15699870Y9451000D01*
X15552130Y9451000D01*
X15407234Y9479821D01*
X15270743Y9536358D01*
X15147903Y9618437D01*
X15043437Y9722903D01*
X14961358Y9845743D01*
X14904821Y9982234D01*
X14876000Y10127130D01*
X14876000Y10274870D01*
X14904821Y10419766D01*
X14961358Y10556257D01*
X15043437Y10679097D01*
X15147903Y10783563D01*
X15270743Y10865642D01*
X15407234Y10922179D01*
X15552130Y10951000D01*
X15699870Y10951000D01*
X15844766Y10922179D01*
G37*
G36*
X18384766Y10922179D02*
G01*
X18521257Y10865642D01*
X18644097Y10783563D01*
X18748563Y10679097D01*
X18830642Y10556257D01*
X18887179Y10419766D01*
X18916000Y10274870D01*
X18916000Y10127130D01*
X18887179Y9982234D01*
X18830642Y9845743D01*
X18748563Y9722903D01*
X18644097Y9618437D01*
X18521257Y9536358D01*
X18384766Y9479821D01*
X18239870Y9451000D01*
X18092130Y9451000D01*
X17947234Y9479821D01*
X17810743Y9536358D01*
X17687903Y9618437D01*
X17583437Y9722903D01*
X17501358Y9845743D01*
X17444821Y9982234D01*
X17416000Y10127130D01*
X17416000Y10274870D01*
X17444821Y10419766D01*
X17501358Y10556257D01*
X17583437Y10679097D01*
X17687903Y10783563D01*
X17810743Y10865642D01*
X17947234Y10922179D01*
X18092130Y10951000D01*
X18239870Y10951000D01*
X18384766Y10922179D01*
G37*
G36*
X23464766Y10922179D02*
G01*
X23601257Y10865642D01*
X23724097Y10783563D01*
X23828563Y10679097D01*
X23910642Y10556257D01*
X23967179Y10419766D01*
X23996000Y10274870D01*
X23996000Y10127130D01*
X23967179Y9982234D01*
X23910642Y9845743D01*
X23828563Y9722903D01*
X23724097Y9618437D01*
X23601257Y9536358D01*
X23464766Y9479821D01*
X23319870Y9451000D01*
X23172130Y9451000D01*
X23027234Y9479821D01*
X22890743Y9536358D01*
X22767903Y9618437D01*
X22663437Y9722903D01*
X22581358Y9845743D01*
X22524821Y9982234D01*
X22496000Y10127130D01*
X22496000Y10274870D01*
X22524821Y10419766D01*
X22581358Y10556257D01*
X22663437Y10679097D01*
X22767903Y10783563D01*
X22890743Y10865642D01*
X23027234Y10922179D01*
X23172130Y10951000D01*
X23319870Y10951000D01*
X23464766Y10922179D01*
G37*
G36*
X26004766Y10922179D02*
G01*
X26141257Y10865642D01*
X26264097Y10783563D01*
X26368563Y10679097D01*
X26450642Y10556257D01*
X26507179Y10419766D01*
X26536000Y10274870D01*
X26536000Y10127130D01*
X26507179Y9982234D01*
X26450642Y9845743D01*
X26368563Y9722903D01*
X26264097Y9618437D01*
X26141257Y9536358D01*
X26004766Y9479821D01*
X25859870Y9451000D01*
X25712130Y9451000D01*
X25567234Y9479821D01*
X25430743Y9536358D01*
X25307903Y9618437D01*
X25203437Y9722903D01*
X25121358Y9845743D01*
X25064821Y9982234D01*
X25036000Y10127130D01*
X25036000Y10274870D01*
X25064821Y10419766D01*
X25121358Y10556257D01*
X25203437Y10679097D01*
X25307903Y10783563D01*
X25430743Y10865642D01*
X25567234Y10922179D01*
X25712130Y10951000D01*
X25859870Y10951000D01*
X26004766Y10922179D01*
G37*
G36*
X28544766Y10922179D02*
G01*
X28681257Y10865642D01*
X28804097Y10783563D01*
X28908563Y10679097D01*
X28990642Y10556257D01*
X29047179Y10419766D01*
X29076000Y10274870D01*
X29076000Y10127130D01*
X29047179Y9982234D01*
X28990642Y9845743D01*
X28908563Y9722903D01*
X28804097Y9618437D01*
X28681257Y9536358D01*
X28544766Y9479821D01*
X28399870Y9451000D01*
X28252130Y9451000D01*
X28107234Y9479821D01*
X27970743Y9536358D01*
X27847903Y9618437D01*
X27743437Y9722903D01*
X27661358Y9845743D01*
X27604821Y9982234D01*
X27576000Y10127130D01*
X27576000Y10274870D01*
X27604821Y10419766D01*
X27661358Y10556257D01*
X27743437Y10679097D01*
X27847903Y10783563D01*
X27970743Y10865642D01*
X28107234Y10922179D01*
X28252130Y10951000D01*
X28399870Y10951000D01*
X28544766Y10922179D01*
G37*
G36*
X83227290Y13224381D02*
G01*
X83291689Y13211571D01*
X83473678Y13136189D01*
X83637463Y13026751D01*
X83776751Y12887463D01*
X83886189Y12723678D01*
X83961571Y12541689D01*
X84000000Y12348491D01*
X84000000Y12151509D01*
X83961571Y11958311D01*
X83886189Y11776322D01*
X83776751Y11612537D01*
X83637463Y11473249D01*
X83473678Y11363811D01*
X83291689Y11288429D01*
X83227290Y11275619D01*
X83098493Y11250000D01*
X82901507Y11250000D01*
X82772710Y11275619D01*
X82708311Y11288429D01*
X82526322Y11363811D01*
X82362537Y11473249D01*
X82223249Y11612537D01*
X82113811Y11776322D01*
X82038429Y11958311D01*
X82000000Y12151509D01*
X82000000Y12348491D01*
X82038429Y12541689D01*
X82113811Y12723678D01*
X82223249Y12887463D01*
X82362537Y13026751D01*
X82526322Y13136189D01*
X82708311Y13211571D01*
X82772710Y13224381D01*
X82901507Y13250000D01*
X83098493Y13250000D01*
X83227290Y13224381D01*
G37*
G36*
X61227290Y13224381D02*
G01*
X61291689Y13211571D01*
X61473678Y13136189D01*
X61637463Y13026751D01*
X61776751Y12887463D01*
X61886189Y12723678D01*
X61961571Y12541689D01*
X62000000Y12348491D01*
X62000000Y12151509D01*
X61961571Y11958311D01*
X61886189Y11776322D01*
X61776751Y11612537D01*
X61637463Y11473249D01*
X61473678Y11363811D01*
X61291689Y11288429D01*
X61227290Y11275619D01*
X61098493Y11250000D01*
X60901507Y11250000D01*
X60772710Y11275619D01*
X60708311Y11288429D01*
X60526322Y11363811D01*
X60362537Y11473249D01*
X60223249Y11612537D01*
X60113811Y11776322D01*
X60038429Y11958311D01*
X60000000Y12151509D01*
X60000000Y12348491D01*
X60038429Y12541689D01*
X60113811Y12723678D01*
X60223249Y12887463D01*
X60362537Y13026751D01*
X60526322Y13136189D01*
X60708311Y13211571D01*
X60772710Y13224381D01*
X60901507Y13250000D01*
X61098493Y13250000D01*
X61227290Y13224381D01*
G37*
G36*
X17227290Y13224381D02*
G01*
X17291689Y13211571D01*
X17473678Y13136189D01*
X17637463Y13026751D01*
X17776751Y12887463D01*
X17886189Y12723678D01*
X17961571Y12541689D01*
X18000000Y12348491D01*
X18000000Y12151509D01*
X17961571Y11958311D01*
X17886189Y11776322D01*
X17776751Y11612537D01*
X17637463Y11473249D01*
X17473678Y11363811D01*
X17291689Y11288429D01*
X17227290Y11275619D01*
X17098493Y11250000D01*
X16901507Y11250000D01*
X16772710Y11275619D01*
X16708311Y11288429D01*
X16526322Y11363811D01*
X16362537Y11473249D01*
X16223249Y11612537D01*
X16113811Y11776322D01*
X16038429Y11958311D01*
X16000000Y12151509D01*
X16000000Y12348491D01*
X16038429Y12541689D01*
X16113811Y12723678D01*
X16223249Y12887463D01*
X16362537Y13026751D01*
X16526322Y13136189D01*
X16708311Y13211571D01*
X16772710Y13224381D01*
X16901507Y13250000D01*
X17098493Y13250000D01*
X17227290Y13224381D01*
G37*
G36*
X39227290Y13224381D02*
G01*
X39291689Y13211571D01*
X39473678Y13136189D01*
X39637463Y13026751D01*
X39776751Y12887463D01*
X39886189Y12723678D01*
X39961571Y12541689D01*
X40000000Y12348491D01*
X40000000Y12151509D01*
X39961571Y11958311D01*
X39886189Y11776322D01*
X39776751Y11612537D01*
X39637463Y11473249D01*
X39473678Y11363811D01*
X39291689Y11288429D01*
X39227290Y11275619D01*
X39098493Y11250000D01*
X38901507Y11250000D01*
X38772710Y11275619D01*
X38708311Y11288429D01*
X38526322Y11363811D01*
X38362537Y11473249D01*
X38223249Y11612537D01*
X38113811Y11776322D01*
X38038429Y11958311D01*
X38000000Y12151509D01*
X38000000Y12348491D01*
X38038429Y12541689D01*
X38113811Y12723678D01*
X38223249Y12887463D01*
X38362537Y13026751D01*
X38526322Y13136189D01*
X38708311Y13211571D01*
X38772710Y13224381D01*
X38901507Y13250000D01*
X39098493Y13250000D01*
X39227290Y13224381D01*
G37*
G36*
X19000000Y13500000D02*
G01*
X15000000Y13500000D01*
X15000000Y15500000D01*
X19000000Y15500000D01*
X19000000Y13500000D01*
G37*
G36*
X80000000Y13500000D02*
G01*
X76000000Y13500000D01*
X76000000Y15500000D01*
X80000000Y15500000D01*
X80000000Y13500000D01*
G37*
G36*
X90000000Y13500000D02*
G01*
X86000000Y13500000D01*
X86000000Y15500000D01*
X90000000Y15500000D01*
X90000000Y13500000D01*
G37*
G36*
X14000000Y13500000D02*
G01*
X10000000Y13500000D01*
X10000000Y15500000D01*
X14000000Y15500000D01*
X14000000Y13500000D01*
G37*
G36*
X24000000Y13500000D02*
G01*
X20000000Y13500000D01*
X20000000Y15500000D01*
X24000000Y15500000D01*
X24000000Y13500000D01*
G37*
G36*
X36000000Y13500000D02*
G01*
X32000000Y13500000D01*
X32000000Y15500000D01*
X36000000Y15500000D01*
X36000000Y13500000D01*
G37*
G36*
X41000000Y13500000D02*
G01*
X37000000Y13500000D01*
X37000000Y15500000D01*
X41000000Y15500000D01*
X41000000Y13500000D01*
G37*
G36*
X46000000Y13500000D02*
G01*
X42000000Y13500000D01*
X42000000Y15500000D01*
X46000000Y15500000D01*
X46000000Y13500000D01*
G37*
G36*
X58000000Y13500000D02*
G01*
X54000000Y13500000D01*
X54000000Y15500000D01*
X58000000Y15500000D01*
X58000000Y13500000D01*
G37*
G36*
X63000000Y13500000D02*
G01*
X59000000Y13500000D01*
X59000000Y15500000D01*
X63000000Y15500000D01*
X63000000Y13500000D01*
G37*
G36*
X85000000Y13500000D02*
G01*
X81000000Y13500000D01*
X81000000Y15500000D01*
X85000000Y15500000D01*
X85000000Y13500000D01*
G37*
G36*
X68000000Y13500000D02*
G01*
X64000000Y13500000D01*
X64000000Y15500000D01*
X68000000Y15500000D01*
X68000000Y13500000D01*
G37*
G36*
X19000000Y17000000D02*
G01*
X15000000Y17000000D01*
X15000000Y19000000D01*
X19000000Y19000000D01*
X19000000Y17000000D01*
G37*
G36*
X85000000Y17000000D02*
G01*
X81000000Y17000000D01*
X81000000Y19000000D01*
X85000000Y19000000D01*
X85000000Y17000000D01*
G37*
G36*
X41000000Y17000000D02*
G01*
X37000000Y17000000D01*
X37000000Y19000000D01*
X41000000Y19000000D01*
X41000000Y17000000D01*
G37*
G36*
X63000000Y17000000D02*
G01*
X59000000Y17000000D01*
X59000000Y19000000D01*
X63000000Y19000000D01*
X63000000Y17000000D01*
G37*
G36*
X28419445Y22108688D02*
G01*
X28627132Y22067377D01*
X29018407Y21905305D01*
X29370545Y21670014D01*
X29670014Y21370545D01*
X29905305Y21018407D01*
X30067377Y20627132D01*
X30091600Y20505354D01*
X30150000Y20211758D01*
X30150000Y19788242D01*
X30067377Y19372869D01*
X29912930Y19000000D01*
X29905305Y18981593D01*
X29670014Y18629455D01*
X29370545Y18329986D01*
X29018407Y18094695D01*
X28627132Y17932623D01*
X28419445Y17891312D01*
X28211758Y17850000D01*
X27788242Y17850000D01*
X27580555Y17891312D01*
X27372868Y17932623D01*
X26981593Y18094695D01*
X26629455Y18329986D01*
X26329986Y18629455D01*
X26094695Y18981593D01*
X26087071Y19000000D01*
X25932623Y19372869D01*
X25850000Y19788242D01*
X25850000Y20211758D01*
X25908400Y20505354D01*
X25932623Y20627132D01*
X26094695Y21018407D01*
X26329986Y21370545D01*
X26629455Y21670014D01*
X26981593Y21905305D01*
X27372868Y22067377D01*
X27580555Y22108688D01*
X27788242Y22150000D01*
X28211758Y22150000D01*
X28419445Y22108688D01*
G37*
G36*
X72419445Y22108688D02*
G01*
X72627132Y22067377D01*
X73018407Y21905305D01*
X73370545Y21670014D01*
X73670014Y21370545D01*
X73905305Y21018407D01*
X74067377Y20627132D01*
X74091600Y20505354D01*
X74150000Y20211758D01*
X74150000Y19788242D01*
X74067377Y19372869D01*
X73912930Y19000000D01*
X73905305Y18981593D01*
X73670014Y18629455D01*
X73370545Y18329986D01*
X73018407Y18094695D01*
X72627132Y17932623D01*
X72419445Y17891312D01*
X72211758Y17850000D01*
X71788242Y17850000D01*
X71580555Y17891312D01*
X71372868Y17932623D01*
X70981593Y18094695D01*
X70629455Y18329986D01*
X70329986Y18629455D01*
X70094695Y18981593D01*
X70087071Y19000000D01*
X69932623Y19372869D01*
X69850000Y19788242D01*
X69850000Y20211758D01*
X69908400Y20505354D01*
X69932623Y20627132D01*
X70094695Y21018407D01*
X70329986Y21370545D01*
X70629455Y21670014D01*
X70981593Y21905305D01*
X71372868Y22067377D01*
X71580555Y22108688D01*
X71788242Y22150000D01*
X72211758Y22150000D01*
X72419445Y22108688D01*
G37*
G36*
X35020830Y21627727D02*
G01*
X35155293Y21600981D01*
X35167099Y21597400D01*
X35293765Y21544932D01*
X35304646Y21539116D01*
X35418632Y21462953D01*
X35423404Y21459037D01*
X35423408Y21459034D01*
X35423411Y21459031D01*
X35428174Y21455122D01*
X35525122Y21358174D01*
X35529031Y21353411D01*
X35529034Y21353408D01*
X35529037Y21353404D01*
X35532953Y21348632D01*
X35612114Y21230159D01*
X35627659Y21211217D01*
X35646601Y21195671D01*
X35668212Y21184120D01*
X35691661Y21177007D01*
X35716047Y21174605D01*
X35907396Y21174605D01*
X35931782Y21177007D01*
X35955231Y21184120D01*
X35976842Y21195671D01*
X35995784Y21211216D01*
X36011329Y21230158D01*
X36022880Y21251769D01*
X36029993Y21275218D01*
X36032395Y21299604D01*
X36032395Y21501939D01*
X36032698Y21508102D01*
X36032757Y21508708D01*
X36034920Y21519581D01*
X36038693Y21528688D01*
X36044160Y21536870D01*
X36051130Y21543840D01*
X36059312Y21549307D01*
X36063864Y21551193D01*
X36063866Y21551194D01*
X36063869Y21551195D01*
X36068419Y21553080D01*
X36079292Y21555243D01*
X36079898Y21555302D01*
X36086061Y21555605D01*
X37857939Y21555605D01*
X37864102Y21555302D01*
X37864708Y21555243D01*
X37875581Y21553080D01*
X37880131Y21551195D01*
X37880134Y21551194D01*
X37880136Y21551193D01*
X37884688Y21549307D01*
X37892870Y21543840D01*
X37899840Y21536870D01*
X37905307Y21528688D01*
X37909080Y21519581D01*
X37911243Y21508708D01*
X37911302Y21508102D01*
X37911605Y21501939D01*
X37911605Y21299604D01*
X37914007Y21275218D01*
X37921120Y21251769D01*
X37932671Y21230158D01*
X37948216Y21211216D01*
X37967158Y21195671D01*
X37988769Y21184120D01*
X38012218Y21177007D01*
X38036604Y21174605D01*
X38492939Y21174605D01*
X38499102Y21174302D01*
X38499708Y21174243D01*
X38510581Y21172080D01*
X38515131Y21170195D01*
X38515134Y21170194D01*
X38515136Y21170193D01*
X38519688Y21168307D01*
X38527870Y21162840D01*
X38534840Y21155870D01*
X38540307Y21147688D01*
X38544080Y21138581D01*
X38546243Y21127708D01*
X38546302Y21127102D01*
X38546605Y21120939D01*
X38546605Y20619061D01*
X38546302Y20612898D01*
X38546243Y20612292D01*
X38544080Y20601419D01*
X38540307Y20592312D01*
X38534840Y20584130D01*
X38527870Y20577160D01*
X38519688Y20571693D01*
X38515136Y20569807D01*
X38515134Y20569806D01*
X38515131Y20569805D01*
X38510581Y20567920D01*
X38499708Y20565757D01*
X38499102Y20565698D01*
X38492939Y20565395D01*
X38036604Y20565395D01*
X38012218Y20562993D01*
X37988769Y20555880D01*
X37967158Y20544329D01*
X37948216Y20528784D01*
X37932671Y20509842D01*
X37921120Y20488231D01*
X37914007Y20464782D01*
X37911605Y20440396D01*
X37911605Y20238061D01*
X37911302Y20231898D01*
X37911243Y20231292D01*
X37909080Y20220419D01*
X37905307Y20211312D01*
X37899840Y20203130D01*
X37892870Y20196160D01*
X37884688Y20190693D01*
X37880136Y20188807D01*
X37880134Y20188806D01*
X37880131Y20188805D01*
X37875581Y20186920D01*
X37864708Y20184757D01*
X37864102Y20184698D01*
X37857939Y20184395D01*
X36086061Y20184395D01*
X36079898Y20184698D01*
X36079292Y20184757D01*
X36068419Y20186920D01*
X36063869Y20188805D01*
X36063866Y20188806D01*
X36063864Y20188807D01*
X36059312Y20190693D01*
X36051130Y20196160D01*
X36044160Y20203130D01*
X36038693Y20211312D01*
X36034920Y20220419D01*
X36032757Y20231292D01*
X36032698Y20231898D01*
X36032395Y20238061D01*
X36032395Y20440396D01*
X36029993Y20464782D01*
X36022880Y20488231D01*
X36011329Y20509842D01*
X35995784Y20528784D01*
X35976842Y20544329D01*
X35955231Y20555880D01*
X35931782Y20562993D01*
X35907396Y20565395D01*
X35716047Y20565395D01*
X35691661Y20562993D01*
X35668212Y20555880D01*
X35646601Y20544329D01*
X35627659Y20528784D01*
X35612114Y20509841D01*
X35532953Y20391368D01*
X35529037Y20386596D01*
X35529034Y20386592D01*
X35529031Y20386589D01*
X35525122Y20381826D01*
X35428174Y20284878D01*
X35423411Y20280969D01*
X35423408Y20280966D01*
X35423404Y20280963D01*
X35418632Y20277047D01*
X35304646Y20200884D01*
X35293765Y20195068D01*
X35167099Y20142600D01*
X35155293Y20139019D01*
X35020830Y20112273D01*
X35008552Y20111064D01*
X34871448Y20111064D01*
X34859170Y20112273D01*
X34724707Y20139019D01*
X34712901Y20142600D01*
X34586235Y20195068D01*
X34575354Y20200884D01*
X34461368Y20277047D01*
X34456596Y20280963D01*
X34456592Y20280966D01*
X34456589Y20280969D01*
X34451826Y20284878D01*
X34354878Y20381826D01*
X34350969Y20386589D01*
X34350966Y20386592D01*
X34350963Y20386596D01*
X34347047Y20391368D01*
X34270884Y20505354D01*
X34265068Y20516235D01*
X34212600Y20642901D01*
X34209019Y20654707D01*
X34182273Y20789170D01*
X34181064Y20801448D01*
X34181064Y20938552D01*
X34182273Y20950830D01*
X34209019Y21085293D01*
X34212600Y21097099D01*
X34265068Y21223765D01*
X34270884Y21234646D01*
X34347047Y21348632D01*
X34350963Y21353404D01*
X34350966Y21353408D01*
X34350969Y21353411D01*
X34354878Y21358174D01*
X34451826Y21455122D01*
X34456589Y21459031D01*
X34456592Y21459034D01*
X34456596Y21459037D01*
X34461368Y21462953D01*
X34575354Y21539116D01*
X34586235Y21544932D01*
X34712901Y21597400D01*
X34724707Y21600981D01*
X34859170Y21627727D01*
X34871448Y21628936D01*
X35008552Y21628936D01*
X35020830Y21627727D01*
G37*
G36*
X42640830Y21627727D02*
G01*
X42775293Y21600981D01*
X42787099Y21597400D01*
X42913765Y21544932D01*
X42924646Y21539116D01*
X43038632Y21462953D01*
X43043404Y21459037D01*
X43043408Y21459034D01*
X43043411Y21459031D01*
X43048174Y21455122D01*
X43145122Y21358174D01*
X43149031Y21353411D01*
X43149034Y21353408D01*
X43149037Y21353404D01*
X43152953Y21348632D01*
X43229116Y21234646D01*
X43234932Y21223765D01*
X43287400Y21097099D01*
X43290981Y21085293D01*
X43317727Y20950830D01*
X43318936Y20938552D01*
X43318936Y20801448D01*
X43317727Y20789170D01*
X43290981Y20654707D01*
X43287400Y20642901D01*
X43234932Y20516235D01*
X43229116Y20505354D01*
X43152953Y20391368D01*
X43149037Y20386596D01*
X43149034Y20386592D01*
X43149031Y20386589D01*
X43145122Y20381826D01*
X43048174Y20284878D01*
X43043411Y20280969D01*
X43043408Y20280966D01*
X43043404Y20280963D01*
X43038632Y20277047D01*
X42924646Y20200884D01*
X42913765Y20195068D01*
X42787099Y20142600D01*
X42775293Y20139019D01*
X42640830Y20112273D01*
X42628552Y20111064D01*
X42491448Y20111064D01*
X42479170Y20112273D01*
X42344707Y20139019D01*
X42332901Y20142600D01*
X42206235Y20195068D01*
X42195354Y20200884D01*
X42081368Y20277047D01*
X42076596Y20280963D01*
X42076592Y20280966D01*
X42076589Y20280969D01*
X42071826Y20284878D01*
X41974878Y20381826D01*
X41970969Y20386589D01*
X41970966Y20386592D01*
X41970963Y20386596D01*
X41967047Y20391368D01*
X41887886Y20509841D01*
X41872341Y20528783D01*
X41853399Y20544329D01*
X41831788Y20555880D01*
X41808339Y20562993D01*
X41783953Y20565395D01*
X41592604Y20565395D01*
X41568218Y20562993D01*
X41544769Y20555880D01*
X41523158Y20544329D01*
X41504216Y20528784D01*
X41488671Y20509842D01*
X41477120Y20488231D01*
X41470007Y20464782D01*
X41467605Y20440396D01*
X41467605Y20238061D01*
X41467302Y20231898D01*
X41467243Y20231292D01*
X41465080Y20220419D01*
X41461307Y20211312D01*
X41455840Y20203130D01*
X41448870Y20196160D01*
X41440688Y20190693D01*
X41436136Y20188807D01*
X41436134Y20188806D01*
X41436131Y20188805D01*
X41431581Y20186920D01*
X41420708Y20184757D01*
X41420102Y20184698D01*
X41413939Y20184395D01*
X39642061Y20184395D01*
X39635898Y20184698D01*
X39635292Y20184757D01*
X39624419Y20186920D01*
X39619869Y20188805D01*
X39619866Y20188806D01*
X39619864Y20188807D01*
X39615312Y20190693D01*
X39607130Y20196160D01*
X39600160Y20203130D01*
X39594693Y20211312D01*
X39590920Y20220419D01*
X39588757Y20231292D01*
X39588698Y20231898D01*
X39588395Y20238061D01*
X39588395Y20440396D01*
X39585993Y20464782D01*
X39578880Y20488231D01*
X39567329Y20509842D01*
X39551784Y20528784D01*
X39532842Y20544329D01*
X39511231Y20555880D01*
X39487782Y20562993D01*
X39463396Y20565395D01*
X39007061Y20565395D01*
X39000898Y20565698D01*
X39000292Y20565757D01*
X38989419Y20567920D01*
X38984869Y20569805D01*
X38984866Y20569806D01*
X38984864Y20569807D01*
X38980312Y20571693D01*
X38972130Y20577160D01*
X38965160Y20584130D01*
X38959693Y20592312D01*
X38955920Y20601419D01*
X38953757Y20612292D01*
X38953698Y20612898D01*
X38953395Y20619061D01*
X38953395Y21120939D01*
X38953698Y21127102D01*
X38953757Y21127708D01*
X38955920Y21138581D01*
X38959693Y21147688D01*
X38965160Y21155870D01*
X38972130Y21162840D01*
X38980312Y21168307D01*
X38984864Y21170193D01*
X38984866Y21170194D01*
X38984869Y21170195D01*
X38989419Y21172080D01*
X39000292Y21174243D01*
X39000898Y21174302D01*
X39007061Y21174605D01*
X39463396Y21174605D01*
X39487782Y21177007D01*
X39511231Y21184120D01*
X39532842Y21195671D01*
X39551784Y21211216D01*
X39567329Y21230158D01*
X39578880Y21251769D01*
X39585993Y21275218D01*
X39588395Y21299604D01*
X39588395Y21501939D01*
X39588698Y21508102D01*
X39588757Y21508708D01*
X39590920Y21519581D01*
X39594693Y21528688D01*
X39600160Y21536870D01*
X39607130Y21543840D01*
X39615312Y21549307D01*
X39619864Y21551193D01*
X39619866Y21551194D01*
X39619869Y21551195D01*
X39624419Y21553080D01*
X39635292Y21555243D01*
X39635898Y21555302D01*
X39642061Y21555605D01*
X41413939Y21555605D01*
X41420102Y21555302D01*
X41420708Y21555243D01*
X41431581Y21553080D01*
X41436131Y21551195D01*
X41436134Y21551194D01*
X41436136Y21551193D01*
X41440688Y21549307D01*
X41448870Y21543840D01*
X41455840Y21536870D01*
X41461307Y21528688D01*
X41465080Y21519581D01*
X41467243Y21508708D01*
X41467302Y21508102D01*
X41467605Y21501939D01*
X41467605Y21299604D01*
X41470007Y21275218D01*
X41477120Y21251769D01*
X41488671Y21230158D01*
X41504216Y21211216D01*
X41523158Y21195671D01*
X41544769Y21184120D01*
X41568218Y21177007D01*
X41592604Y21174605D01*
X41783953Y21174605D01*
X41808339Y21177007D01*
X41831788Y21184120D01*
X41853399Y21195671D01*
X41872341Y21211216D01*
X41887886Y21230159D01*
X41967047Y21348632D01*
X41970963Y21353404D01*
X41970966Y21353408D01*
X41970969Y21353411D01*
X41974878Y21358174D01*
X42071826Y21455122D01*
X42076589Y21459031D01*
X42076592Y21459034D01*
X42076596Y21459037D01*
X42081368Y21462953D01*
X42195354Y21539116D01*
X42206235Y21544932D01*
X42332901Y21597400D01*
X42344707Y21600981D01*
X42479170Y21627727D01*
X42491448Y21628936D01*
X42628552Y21628936D01*
X42640830Y21627727D01*
G37*
G36*
X56910830Y21633727D02*
G01*
X57045293Y21606981D01*
X57057099Y21603400D01*
X57183765Y21550932D01*
X57194646Y21545116D01*
X57308632Y21468953D01*
X57313404Y21465037D01*
X57313408Y21465034D01*
X57313411Y21465031D01*
X57318174Y21461122D01*
X57415122Y21364174D01*
X57419031Y21359411D01*
X57419034Y21359408D01*
X57419037Y21359404D01*
X57422953Y21354632D01*
X57502114Y21236159D01*
X57517659Y21217217D01*
X57536601Y21201671D01*
X57558212Y21190120D01*
X57581661Y21183007D01*
X57606047Y21180605D01*
X57797396Y21180605D01*
X57821782Y21183007D01*
X57845231Y21190120D01*
X57866842Y21201671D01*
X57885784Y21217216D01*
X57901329Y21236158D01*
X57912880Y21257769D01*
X57919993Y21281218D01*
X57922395Y21305604D01*
X57922395Y21507939D01*
X57922698Y21514102D01*
X57922757Y21514708D01*
X57924920Y21525581D01*
X57928693Y21534688D01*
X57934160Y21542870D01*
X57941130Y21549840D01*
X57949312Y21555307D01*
X57953864Y21557193D01*
X57953866Y21557194D01*
X57953869Y21557195D01*
X57958419Y21559080D01*
X57969292Y21561243D01*
X57969898Y21561302D01*
X57976061Y21561605D01*
X59747939Y21561605D01*
X59754102Y21561302D01*
X59754708Y21561243D01*
X59765581Y21559080D01*
X59770131Y21557195D01*
X59770134Y21557194D01*
X59770136Y21557193D01*
X59774688Y21555307D01*
X59782870Y21549840D01*
X59789840Y21542870D01*
X59795307Y21534688D01*
X59799080Y21525581D01*
X59801243Y21514708D01*
X59801302Y21514102D01*
X59801605Y21507939D01*
X59801605Y21305604D01*
X59804007Y21281218D01*
X59811120Y21257769D01*
X59822671Y21236158D01*
X59838216Y21217216D01*
X59857158Y21201671D01*
X59878769Y21190120D01*
X59902218Y21183007D01*
X59926604Y21180605D01*
X60382939Y21180605D01*
X60389102Y21180302D01*
X60389708Y21180243D01*
X60400581Y21178080D01*
X60405131Y21176195D01*
X60405134Y21176194D01*
X60405136Y21176193D01*
X60409688Y21174307D01*
X60417870Y21168840D01*
X60424840Y21161870D01*
X60430307Y21153688D01*
X60434080Y21144581D01*
X60436243Y21133708D01*
X60436302Y21133102D01*
X60436605Y21126939D01*
X60436605Y20625061D01*
X60436302Y20618898D01*
X60436243Y20618292D01*
X60434080Y20607419D01*
X60430307Y20598312D01*
X60424840Y20590130D01*
X60417870Y20583160D01*
X60409688Y20577693D01*
X60405136Y20575807D01*
X60405134Y20575806D01*
X60405131Y20575805D01*
X60400581Y20573920D01*
X60389708Y20571757D01*
X60389102Y20571698D01*
X60382939Y20571395D01*
X59926604Y20571395D01*
X59902218Y20568993D01*
X59878769Y20561880D01*
X59857158Y20550329D01*
X59838216Y20534784D01*
X59822671Y20515842D01*
X59811120Y20494231D01*
X59804007Y20470782D01*
X59801605Y20446396D01*
X59801605Y20244061D01*
X59801302Y20237898D01*
X59801243Y20237292D01*
X59799080Y20226419D01*
X59795307Y20217312D01*
X59789840Y20209130D01*
X59782870Y20202160D01*
X59774688Y20196693D01*
X59770136Y20194807D01*
X59770134Y20194806D01*
X59770131Y20194805D01*
X59765581Y20192920D01*
X59754708Y20190757D01*
X59754102Y20190698D01*
X59747939Y20190395D01*
X57976061Y20190395D01*
X57969898Y20190698D01*
X57969292Y20190757D01*
X57958419Y20192920D01*
X57953869Y20194805D01*
X57953866Y20194806D01*
X57953864Y20194807D01*
X57949312Y20196693D01*
X57941130Y20202160D01*
X57934160Y20209130D01*
X57928693Y20217312D01*
X57924920Y20226419D01*
X57922757Y20237292D01*
X57922698Y20237898D01*
X57922395Y20244061D01*
X57922395Y20446396D01*
X57919993Y20470782D01*
X57912880Y20494231D01*
X57901329Y20515842D01*
X57885784Y20534784D01*
X57866842Y20550329D01*
X57845231Y20561880D01*
X57821782Y20568993D01*
X57797396Y20571395D01*
X57606047Y20571395D01*
X57581661Y20568993D01*
X57558212Y20561880D01*
X57536601Y20550329D01*
X57517659Y20534784D01*
X57502114Y20515841D01*
X57422953Y20397368D01*
X57419037Y20392596D01*
X57419034Y20392592D01*
X57419031Y20392589D01*
X57415122Y20387826D01*
X57318174Y20290878D01*
X57313411Y20286969D01*
X57313408Y20286966D01*
X57313404Y20286963D01*
X57308632Y20283047D01*
X57194646Y20206884D01*
X57183765Y20201068D01*
X57057099Y20148600D01*
X57045293Y20145019D01*
X56910830Y20118273D01*
X56898552Y20117064D01*
X56761448Y20117064D01*
X56749170Y20118273D01*
X56614707Y20145019D01*
X56602901Y20148600D01*
X56476235Y20201068D01*
X56465354Y20206884D01*
X56351368Y20283047D01*
X56346596Y20286963D01*
X56346592Y20286966D01*
X56346589Y20286969D01*
X56341826Y20290878D01*
X56244878Y20387826D01*
X56240969Y20392589D01*
X56240966Y20392592D01*
X56240963Y20392596D01*
X56237047Y20397368D01*
X56160884Y20511354D01*
X56155068Y20522235D01*
X56102600Y20648901D01*
X56099019Y20660707D01*
X56072273Y20795170D01*
X56071064Y20807448D01*
X56071064Y20944552D01*
X56072273Y20956830D01*
X56099019Y21091293D01*
X56102600Y21103099D01*
X56155068Y21229765D01*
X56160884Y21240646D01*
X56237047Y21354632D01*
X56240963Y21359404D01*
X56240966Y21359408D01*
X56240969Y21359411D01*
X56244878Y21364174D01*
X56341826Y21461122D01*
X56346589Y21465031D01*
X56346592Y21465034D01*
X56346596Y21465037D01*
X56351368Y21468953D01*
X56465354Y21545116D01*
X56476235Y21550932D01*
X56602901Y21603400D01*
X56614707Y21606981D01*
X56749170Y21633727D01*
X56761448Y21634936D01*
X56898552Y21634936D01*
X56910830Y21633727D01*
G37*
G36*
X64530830Y21633727D02*
G01*
X64665293Y21606981D01*
X64677099Y21603400D01*
X64803765Y21550932D01*
X64814646Y21545116D01*
X64928632Y21468953D01*
X64933404Y21465037D01*
X64933408Y21465034D01*
X64933411Y21465031D01*
X64938174Y21461122D01*
X65035122Y21364174D01*
X65039031Y21359411D01*
X65039034Y21359408D01*
X65039037Y21359404D01*
X65042953Y21354632D01*
X65119116Y21240646D01*
X65124932Y21229765D01*
X65177400Y21103099D01*
X65180981Y21091293D01*
X65207727Y20956830D01*
X65208936Y20944552D01*
X65208936Y20807448D01*
X65207727Y20795170D01*
X65180981Y20660707D01*
X65177400Y20648901D01*
X65124932Y20522235D01*
X65119116Y20511354D01*
X65042953Y20397368D01*
X65039037Y20392596D01*
X65039034Y20392592D01*
X65039031Y20392589D01*
X65035122Y20387826D01*
X64938174Y20290878D01*
X64933411Y20286969D01*
X64933408Y20286966D01*
X64933404Y20286963D01*
X64928632Y20283047D01*
X64814646Y20206884D01*
X64803765Y20201068D01*
X64677099Y20148600D01*
X64665293Y20145019D01*
X64530830Y20118273D01*
X64518552Y20117064D01*
X64381448Y20117064D01*
X64369170Y20118273D01*
X64234707Y20145019D01*
X64222901Y20148600D01*
X64096235Y20201068D01*
X64085354Y20206884D01*
X63971368Y20283047D01*
X63966596Y20286963D01*
X63966592Y20286966D01*
X63966589Y20286969D01*
X63961826Y20290878D01*
X63864878Y20387826D01*
X63860969Y20392589D01*
X63860966Y20392592D01*
X63860963Y20392596D01*
X63857047Y20397368D01*
X63777886Y20515841D01*
X63762341Y20534783D01*
X63743399Y20550329D01*
X63721788Y20561880D01*
X63698339Y20568993D01*
X63673953Y20571395D01*
X63482604Y20571395D01*
X63458218Y20568993D01*
X63434769Y20561880D01*
X63413158Y20550329D01*
X63394216Y20534784D01*
X63378671Y20515842D01*
X63367120Y20494231D01*
X63360007Y20470782D01*
X63357605Y20446396D01*
X63357605Y20244061D01*
X63357302Y20237898D01*
X63357243Y20237292D01*
X63355080Y20226419D01*
X63351307Y20217312D01*
X63345840Y20209130D01*
X63338870Y20202160D01*
X63330688Y20196693D01*
X63326136Y20194807D01*
X63326134Y20194806D01*
X63326131Y20194805D01*
X63321581Y20192920D01*
X63310708Y20190757D01*
X63310102Y20190698D01*
X63303939Y20190395D01*
X61532061Y20190395D01*
X61525898Y20190698D01*
X61525292Y20190757D01*
X61514419Y20192920D01*
X61509869Y20194805D01*
X61509866Y20194806D01*
X61509864Y20194807D01*
X61505312Y20196693D01*
X61497130Y20202160D01*
X61490160Y20209130D01*
X61484693Y20217312D01*
X61480920Y20226419D01*
X61478757Y20237292D01*
X61478698Y20237898D01*
X61478395Y20244061D01*
X61478395Y20446396D01*
X61475993Y20470782D01*
X61468880Y20494231D01*
X61457329Y20515842D01*
X61441784Y20534784D01*
X61422842Y20550329D01*
X61401231Y20561880D01*
X61377782Y20568993D01*
X61353396Y20571395D01*
X60897061Y20571395D01*
X60890898Y20571698D01*
X60890292Y20571757D01*
X60879419Y20573920D01*
X60874869Y20575805D01*
X60874866Y20575806D01*
X60874864Y20575807D01*
X60870312Y20577693D01*
X60862130Y20583160D01*
X60855160Y20590130D01*
X60849693Y20598312D01*
X60845920Y20607419D01*
X60843757Y20618292D01*
X60843698Y20618898D01*
X60843395Y20625061D01*
X60843395Y21126939D01*
X60843698Y21133102D01*
X60843757Y21133708D01*
X60845920Y21144581D01*
X60849693Y21153688D01*
X60855160Y21161870D01*
X60862130Y21168840D01*
X60870312Y21174307D01*
X60874864Y21176193D01*
X60874866Y21176194D01*
X60874869Y21176195D01*
X60879419Y21178080D01*
X60890292Y21180243D01*
X60890898Y21180302D01*
X60897061Y21180605D01*
X61353396Y21180605D01*
X61377782Y21183007D01*
X61401231Y21190120D01*
X61422842Y21201671D01*
X61441784Y21217216D01*
X61457329Y21236158D01*
X61468880Y21257769D01*
X61475993Y21281218D01*
X61478395Y21305604D01*
X61478395Y21507939D01*
X61478698Y21514102D01*
X61478757Y21514708D01*
X61480920Y21525581D01*
X61484693Y21534688D01*
X61490160Y21542870D01*
X61497130Y21549840D01*
X61505312Y21555307D01*
X61509864Y21557193D01*
X61509866Y21557194D01*
X61509869Y21557195D01*
X61514419Y21559080D01*
X61525292Y21561243D01*
X61525898Y21561302D01*
X61532061Y21561605D01*
X63303939Y21561605D01*
X63310102Y21561302D01*
X63310708Y21561243D01*
X63321581Y21559080D01*
X63326131Y21557195D01*
X63326134Y21557194D01*
X63326136Y21557193D01*
X63330688Y21555307D01*
X63338870Y21549840D01*
X63345840Y21542870D01*
X63351307Y21534688D01*
X63355080Y21525581D01*
X63357243Y21514708D01*
X63357302Y21514102D01*
X63357605Y21507939D01*
X63357605Y21305604D01*
X63360007Y21281218D01*
X63367120Y21257769D01*
X63378671Y21236158D01*
X63394216Y21217216D01*
X63413158Y21201671D01*
X63434769Y21190120D01*
X63458218Y21183007D01*
X63482604Y21180605D01*
X63673953Y21180605D01*
X63698339Y21183007D01*
X63721788Y21190120D01*
X63743399Y21201671D01*
X63762341Y21217216D01*
X63777886Y21236159D01*
X63857047Y21354632D01*
X63860963Y21359404D01*
X63860966Y21359408D01*
X63860969Y21359411D01*
X63864878Y21364174D01*
X63961826Y21461122D01*
X63966589Y21465031D01*
X63966592Y21465034D01*
X63966596Y21465037D01*
X63971368Y21468953D01*
X64085354Y21545116D01*
X64096235Y21550932D01*
X64222901Y21603400D01*
X64234707Y21606981D01*
X64369170Y21633727D01*
X64381448Y21634936D01*
X64518552Y21634936D01*
X64530830Y21633727D01*
G37*
G36*
X13410830Y21717727D02*
G01*
X13545293Y21690981D01*
X13557099Y21687400D01*
X13683765Y21634932D01*
X13694646Y21629116D01*
X13808632Y21552953D01*
X13813404Y21549037D01*
X13813408Y21549034D01*
X13813411Y21549031D01*
X13818174Y21545122D01*
X13915122Y21448174D01*
X13919031Y21443411D01*
X13919034Y21443408D01*
X13919037Y21443404D01*
X13922953Y21438632D01*
X14002114Y21320159D01*
X14017659Y21301217D01*
X14036601Y21285671D01*
X14058212Y21274120D01*
X14081661Y21267007D01*
X14106047Y21264605D01*
X14297396Y21264605D01*
X14321782Y21267007D01*
X14345231Y21274120D01*
X14366842Y21285671D01*
X14385784Y21301216D01*
X14401329Y21320158D01*
X14412880Y21341769D01*
X14419993Y21365218D01*
X14422395Y21389604D01*
X14422395Y21591939D01*
X14422698Y21598102D01*
X14422757Y21598708D01*
X14424920Y21609581D01*
X14428693Y21618688D01*
X14434160Y21626870D01*
X14441130Y21633840D01*
X14449312Y21639307D01*
X14453864Y21641193D01*
X14453866Y21641194D01*
X14453869Y21641195D01*
X14458419Y21643080D01*
X14469292Y21645243D01*
X14469898Y21645302D01*
X14476061Y21645605D01*
X16247939Y21645605D01*
X16254102Y21645302D01*
X16254708Y21645243D01*
X16265581Y21643080D01*
X16270131Y21641195D01*
X16270134Y21641194D01*
X16270136Y21641193D01*
X16274688Y21639307D01*
X16282870Y21633840D01*
X16289840Y21626870D01*
X16295307Y21618688D01*
X16299080Y21609581D01*
X16301243Y21598708D01*
X16301302Y21598102D01*
X16301605Y21591939D01*
X16301605Y21389604D01*
X16304007Y21365218D01*
X16311120Y21341769D01*
X16322671Y21320158D01*
X16338216Y21301216D01*
X16357158Y21285671D01*
X16378769Y21274120D01*
X16402218Y21267007D01*
X16426604Y21264605D01*
X16882939Y21264605D01*
X16889102Y21264302D01*
X16889708Y21264243D01*
X16900581Y21262080D01*
X16905131Y21260195D01*
X16905134Y21260194D01*
X16905136Y21260193D01*
X16909688Y21258307D01*
X16917870Y21252840D01*
X16924840Y21245870D01*
X16930307Y21237688D01*
X16934080Y21228581D01*
X16936243Y21217708D01*
X16936302Y21217102D01*
X16936605Y21210939D01*
X16936605Y20709061D01*
X16936302Y20702898D01*
X16936243Y20702292D01*
X16934080Y20691419D01*
X16930307Y20682312D01*
X16924840Y20674130D01*
X16917870Y20667160D01*
X16909688Y20661693D01*
X16905136Y20659807D01*
X16905134Y20659806D01*
X16905131Y20659805D01*
X16900581Y20657920D01*
X16889708Y20655757D01*
X16889102Y20655698D01*
X16882939Y20655395D01*
X16426604Y20655395D01*
X16402218Y20652993D01*
X16378769Y20645880D01*
X16357158Y20634329D01*
X16338216Y20618784D01*
X16322671Y20599842D01*
X16311120Y20578231D01*
X16304007Y20554782D01*
X16301605Y20530396D01*
X16301605Y20328061D01*
X16301302Y20321898D01*
X16301243Y20321292D01*
X16299080Y20310419D01*
X16295307Y20301312D01*
X16289840Y20293130D01*
X16282870Y20286160D01*
X16274688Y20280693D01*
X16270136Y20278807D01*
X16270134Y20278806D01*
X16270131Y20278805D01*
X16265581Y20276920D01*
X16254708Y20274757D01*
X16254102Y20274698D01*
X16247939Y20274395D01*
X14476061Y20274395D01*
X14469898Y20274698D01*
X14469292Y20274757D01*
X14458419Y20276920D01*
X14453869Y20278805D01*
X14453866Y20278806D01*
X14453864Y20278807D01*
X14449312Y20280693D01*
X14441130Y20286160D01*
X14434160Y20293130D01*
X14428693Y20301312D01*
X14424920Y20310419D01*
X14422757Y20321292D01*
X14422698Y20321898D01*
X14422395Y20328061D01*
X14422395Y20530396D01*
X14419993Y20554782D01*
X14412880Y20578231D01*
X14401329Y20599842D01*
X14385784Y20618784D01*
X14366842Y20634329D01*
X14345231Y20645880D01*
X14321782Y20652993D01*
X14297396Y20655395D01*
X14106047Y20655395D01*
X14081661Y20652993D01*
X14058212Y20645880D01*
X14036601Y20634329D01*
X14017659Y20618784D01*
X14002114Y20599841D01*
X13922953Y20481368D01*
X13919037Y20476596D01*
X13919034Y20476592D01*
X13919031Y20476589D01*
X13915122Y20471826D01*
X13818174Y20374878D01*
X13813411Y20370969D01*
X13813408Y20370966D01*
X13813404Y20370963D01*
X13808632Y20367047D01*
X13694646Y20290884D01*
X13683765Y20285068D01*
X13557099Y20232600D01*
X13545293Y20229019D01*
X13410830Y20202273D01*
X13398552Y20201064D01*
X13261448Y20201064D01*
X13249170Y20202273D01*
X13114707Y20229019D01*
X13102901Y20232600D01*
X12976235Y20285068D01*
X12965354Y20290884D01*
X12851368Y20367047D01*
X12846596Y20370963D01*
X12846592Y20370966D01*
X12846589Y20370969D01*
X12841826Y20374878D01*
X12744878Y20471826D01*
X12740969Y20476589D01*
X12740966Y20476592D01*
X12740963Y20476596D01*
X12737047Y20481368D01*
X12660884Y20595354D01*
X12655068Y20606235D01*
X12602600Y20732901D01*
X12599019Y20744707D01*
X12572273Y20879170D01*
X12571064Y20891448D01*
X12571064Y21028552D01*
X12572273Y21040830D01*
X12599019Y21175293D01*
X12602600Y21187099D01*
X12655068Y21313765D01*
X12660884Y21324646D01*
X12737047Y21438632D01*
X12740963Y21443404D01*
X12740966Y21443408D01*
X12740969Y21443411D01*
X12744878Y21448174D01*
X12841826Y21545122D01*
X12846589Y21549031D01*
X12846592Y21549034D01*
X12846596Y21549037D01*
X12851368Y21552953D01*
X12965354Y21629116D01*
X12976235Y21634932D01*
X13102901Y21687400D01*
X13114707Y21690981D01*
X13249170Y21717727D01*
X13261448Y21718936D01*
X13398552Y21718936D01*
X13410830Y21717727D01*
G37*
G36*
X86530830Y21717727D02*
G01*
X86665293Y21690981D01*
X86677099Y21687400D01*
X86803765Y21634932D01*
X86814646Y21629116D01*
X86928632Y21552953D01*
X86933404Y21549037D01*
X86933408Y21549034D01*
X86933411Y21549031D01*
X86938174Y21545122D01*
X87035122Y21448174D01*
X87039031Y21443411D01*
X87039034Y21443408D01*
X87039037Y21443404D01*
X87042953Y21438632D01*
X87119116Y21324646D01*
X87124932Y21313765D01*
X87177400Y21187099D01*
X87180981Y21175293D01*
X87207727Y21040830D01*
X87208936Y21028552D01*
X87208936Y20891448D01*
X87207727Y20879170D01*
X87180981Y20744707D01*
X87177400Y20732901D01*
X87124932Y20606235D01*
X87119116Y20595354D01*
X87042953Y20481368D01*
X87039037Y20476596D01*
X87039034Y20476592D01*
X87039031Y20476589D01*
X87035122Y20471826D01*
X86938174Y20374878D01*
X86933411Y20370969D01*
X86933408Y20370966D01*
X86933404Y20370963D01*
X86928632Y20367047D01*
X86814646Y20290884D01*
X86803765Y20285068D01*
X86677099Y20232600D01*
X86665293Y20229019D01*
X86530830Y20202273D01*
X86518552Y20201064D01*
X86381448Y20201064D01*
X86369170Y20202273D01*
X86234707Y20229019D01*
X86222901Y20232600D01*
X86096235Y20285068D01*
X86085354Y20290884D01*
X85971368Y20367047D01*
X85966596Y20370963D01*
X85966592Y20370966D01*
X85966589Y20370969D01*
X85961826Y20374878D01*
X85864878Y20471826D01*
X85860969Y20476589D01*
X85860966Y20476592D01*
X85860963Y20476596D01*
X85857047Y20481368D01*
X85777886Y20599841D01*
X85762341Y20618783D01*
X85743399Y20634329D01*
X85721788Y20645880D01*
X85698339Y20652993D01*
X85673953Y20655395D01*
X85482604Y20655395D01*
X85458218Y20652993D01*
X85434769Y20645880D01*
X85413158Y20634329D01*
X85394216Y20618784D01*
X85378671Y20599842D01*
X85367120Y20578231D01*
X85360007Y20554782D01*
X85357605Y20530396D01*
X85357605Y20328061D01*
X85357302Y20321898D01*
X85357243Y20321292D01*
X85355080Y20310419D01*
X85351307Y20301312D01*
X85345840Y20293130D01*
X85338870Y20286160D01*
X85330688Y20280693D01*
X85326136Y20278807D01*
X85326134Y20278806D01*
X85326131Y20278805D01*
X85321581Y20276920D01*
X85310708Y20274757D01*
X85310102Y20274698D01*
X85303939Y20274395D01*
X83532061Y20274395D01*
X83525898Y20274698D01*
X83525292Y20274757D01*
X83514419Y20276920D01*
X83509869Y20278805D01*
X83509866Y20278806D01*
X83509864Y20278807D01*
X83505312Y20280693D01*
X83497130Y20286160D01*
X83490160Y20293130D01*
X83484693Y20301312D01*
X83480920Y20310419D01*
X83478757Y20321292D01*
X83478698Y20321898D01*
X83478395Y20328061D01*
X83478395Y20530396D01*
X83475993Y20554782D01*
X83468880Y20578231D01*
X83457329Y20599842D01*
X83441784Y20618784D01*
X83422842Y20634329D01*
X83401231Y20645880D01*
X83377782Y20652993D01*
X83353396Y20655395D01*
X82897061Y20655395D01*
X82890898Y20655698D01*
X82890292Y20655757D01*
X82879419Y20657920D01*
X82874869Y20659805D01*
X82874866Y20659806D01*
X82874864Y20659807D01*
X82870312Y20661693D01*
X82862130Y20667160D01*
X82855160Y20674130D01*
X82849693Y20682312D01*
X82845920Y20691419D01*
X82843757Y20702292D01*
X82843698Y20702898D01*
X82843395Y20709061D01*
X82843395Y21210939D01*
X82843698Y21217102D01*
X82843757Y21217708D01*
X82845920Y21228581D01*
X82849693Y21237688D01*
X82855160Y21245870D01*
X82862130Y21252840D01*
X82870312Y21258307D01*
X82874864Y21260193D01*
X82874866Y21260194D01*
X82874869Y21260195D01*
X82879419Y21262080D01*
X82890292Y21264243D01*
X82890898Y21264302D01*
X82897061Y21264605D01*
X83353396Y21264605D01*
X83377782Y21267007D01*
X83401231Y21274120D01*
X83422842Y21285671D01*
X83441784Y21301216D01*
X83457329Y21320158D01*
X83468880Y21341769D01*
X83475993Y21365218D01*
X83478395Y21389604D01*
X83478395Y21591939D01*
X83478698Y21598102D01*
X83478757Y21598708D01*
X83480920Y21609581D01*
X83484693Y21618688D01*
X83490160Y21626870D01*
X83497130Y21633840D01*
X83505312Y21639307D01*
X83509864Y21641193D01*
X83509866Y21641194D01*
X83509869Y21641195D01*
X83514419Y21643080D01*
X83525292Y21645243D01*
X83525898Y21645302D01*
X83532061Y21645605D01*
X85303939Y21645605D01*
X85310102Y21645302D01*
X85310708Y21645243D01*
X85321581Y21643080D01*
X85326131Y21641195D01*
X85326134Y21641194D01*
X85326136Y21641193D01*
X85330688Y21639307D01*
X85338870Y21633840D01*
X85345840Y21626870D01*
X85351307Y21618688D01*
X85355080Y21609581D01*
X85357243Y21598708D01*
X85357302Y21598102D01*
X85357605Y21591939D01*
X85357605Y21389604D01*
X85360007Y21365218D01*
X85367120Y21341769D01*
X85378671Y21320158D01*
X85394216Y21301216D01*
X85413158Y21285671D01*
X85434769Y21274120D01*
X85458218Y21267007D01*
X85482604Y21264605D01*
X85673953Y21264605D01*
X85698339Y21267007D01*
X85721788Y21274120D01*
X85743399Y21285671D01*
X85762341Y21301216D01*
X85777886Y21320159D01*
X85857047Y21438632D01*
X85860963Y21443404D01*
X85860966Y21443408D01*
X85860969Y21443411D01*
X85864878Y21448174D01*
X85961826Y21545122D01*
X85966589Y21549031D01*
X85966592Y21549034D01*
X85966596Y21549037D01*
X85971368Y21552953D01*
X86085354Y21629116D01*
X86096235Y21634932D01*
X86222901Y21687400D01*
X86234707Y21690981D01*
X86369170Y21717727D01*
X86381448Y21718936D01*
X86518552Y21718936D01*
X86530830Y21717727D01*
G37*
G36*
X78910830Y21717727D02*
G01*
X79045293Y21690981D01*
X79057099Y21687400D01*
X79183765Y21634932D01*
X79194646Y21629116D01*
X79308632Y21552953D01*
X79313404Y21549037D01*
X79313408Y21549034D01*
X79313411Y21549031D01*
X79318174Y21545122D01*
X79415122Y21448174D01*
X79419031Y21443411D01*
X79419034Y21443408D01*
X79419037Y21443404D01*
X79422953Y21438632D01*
X79502114Y21320159D01*
X79517659Y21301217D01*
X79536601Y21285671D01*
X79558212Y21274120D01*
X79581661Y21267007D01*
X79606047Y21264605D01*
X79797396Y21264605D01*
X79821782Y21267007D01*
X79845231Y21274120D01*
X79866842Y21285671D01*
X79885784Y21301216D01*
X79901329Y21320158D01*
X79912880Y21341769D01*
X79919993Y21365218D01*
X79922395Y21389604D01*
X79922395Y21591939D01*
X79922698Y21598102D01*
X79922757Y21598708D01*
X79924920Y21609581D01*
X79928693Y21618688D01*
X79934160Y21626870D01*
X79941130Y21633840D01*
X79949312Y21639307D01*
X79953864Y21641193D01*
X79953866Y21641194D01*
X79953869Y21641195D01*
X79958419Y21643080D01*
X79969292Y21645243D01*
X79969898Y21645302D01*
X79976061Y21645605D01*
X81747939Y21645605D01*
X81754102Y21645302D01*
X81754708Y21645243D01*
X81765581Y21643080D01*
X81770131Y21641195D01*
X81770134Y21641194D01*
X81770136Y21641193D01*
X81774688Y21639307D01*
X81782870Y21633840D01*
X81789840Y21626870D01*
X81795307Y21618688D01*
X81799080Y21609581D01*
X81801243Y21598708D01*
X81801302Y21598102D01*
X81801605Y21591939D01*
X81801605Y21389604D01*
X81804007Y21365218D01*
X81811120Y21341769D01*
X81822671Y21320158D01*
X81838216Y21301216D01*
X81857158Y21285671D01*
X81878769Y21274120D01*
X81902218Y21267007D01*
X81926604Y21264605D01*
X82382939Y21264605D01*
X82389102Y21264302D01*
X82389708Y21264243D01*
X82400581Y21262080D01*
X82405131Y21260195D01*
X82405134Y21260194D01*
X82405136Y21260193D01*
X82409688Y21258307D01*
X82417870Y21252840D01*
X82424840Y21245870D01*
X82430307Y21237688D01*
X82434080Y21228581D01*
X82436243Y21217708D01*
X82436302Y21217102D01*
X82436605Y21210939D01*
X82436605Y20709061D01*
X82436302Y20702898D01*
X82436243Y20702292D01*
X82434080Y20691419D01*
X82430307Y20682312D01*
X82424840Y20674130D01*
X82417870Y20667160D01*
X82409688Y20661693D01*
X82405136Y20659807D01*
X82405134Y20659806D01*
X82405131Y20659805D01*
X82400581Y20657920D01*
X82389708Y20655757D01*
X82389102Y20655698D01*
X82382939Y20655395D01*
X81926604Y20655395D01*
X81902218Y20652993D01*
X81878769Y20645880D01*
X81857158Y20634329D01*
X81838216Y20618784D01*
X81822671Y20599842D01*
X81811120Y20578231D01*
X81804007Y20554782D01*
X81801605Y20530396D01*
X81801605Y20328061D01*
X81801302Y20321898D01*
X81801243Y20321292D01*
X81799080Y20310419D01*
X81795307Y20301312D01*
X81789840Y20293130D01*
X81782870Y20286160D01*
X81774688Y20280693D01*
X81770136Y20278807D01*
X81770134Y20278806D01*
X81770131Y20278805D01*
X81765581Y20276920D01*
X81754708Y20274757D01*
X81754102Y20274698D01*
X81747939Y20274395D01*
X79976061Y20274395D01*
X79969898Y20274698D01*
X79969292Y20274757D01*
X79958419Y20276920D01*
X79953869Y20278805D01*
X79953866Y20278806D01*
X79953864Y20278807D01*
X79949312Y20280693D01*
X79941130Y20286160D01*
X79934160Y20293130D01*
X79928693Y20301312D01*
X79924920Y20310419D01*
X79922757Y20321292D01*
X79922698Y20321898D01*
X79922395Y20328061D01*
X79922395Y20530396D01*
X79919993Y20554782D01*
X79912880Y20578231D01*
X79901329Y20599842D01*
X79885784Y20618784D01*
X79866842Y20634329D01*
X79845231Y20645880D01*
X79821782Y20652993D01*
X79797396Y20655395D01*
X79606047Y20655395D01*
X79581661Y20652993D01*
X79558212Y20645880D01*
X79536601Y20634329D01*
X79517659Y20618784D01*
X79502114Y20599841D01*
X79422953Y20481368D01*
X79419037Y20476596D01*
X79419034Y20476592D01*
X79419031Y20476589D01*
X79415122Y20471826D01*
X79318174Y20374878D01*
X79313411Y20370969D01*
X79313408Y20370966D01*
X79313404Y20370963D01*
X79308632Y20367047D01*
X79194646Y20290884D01*
X79183765Y20285068D01*
X79057099Y20232600D01*
X79045293Y20229019D01*
X78910830Y20202273D01*
X78898552Y20201064D01*
X78761448Y20201064D01*
X78749170Y20202273D01*
X78614707Y20229019D01*
X78602901Y20232600D01*
X78476235Y20285068D01*
X78465354Y20290884D01*
X78351368Y20367047D01*
X78346596Y20370963D01*
X78346592Y20370966D01*
X78346589Y20370969D01*
X78341826Y20374878D01*
X78244878Y20471826D01*
X78240969Y20476589D01*
X78240966Y20476592D01*
X78240963Y20476596D01*
X78237047Y20481368D01*
X78160884Y20595354D01*
X78155068Y20606235D01*
X78102600Y20732901D01*
X78099019Y20744707D01*
X78072273Y20879170D01*
X78071064Y20891448D01*
X78071064Y21028552D01*
X78072273Y21040830D01*
X78099019Y21175293D01*
X78102600Y21187099D01*
X78155068Y21313765D01*
X78160884Y21324646D01*
X78237047Y21438632D01*
X78240963Y21443404D01*
X78240966Y21443408D01*
X78240969Y21443411D01*
X78244878Y21448174D01*
X78341826Y21545122D01*
X78346589Y21549031D01*
X78346592Y21549034D01*
X78346596Y21549037D01*
X78351368Y21552953D01*
X78465354Y21629116D01*
X78476235Y21634932D01*
X78602901Y21687400D01*
X78614707Y21690981D01*
X78749170Y21717727D01*
X78761448Y21718936D01*
X78898552Y21718936D01*
X78910830Y21717727D01*
G37*
G36*
X21030830Y21717727D02*
G01*
X21165293Y21690981D01*
X21177099Y21687400D01*
X21303765Y21634932D01*
X21314646Y21629116D01*
X21428632Y21552953D01*
X21433404Y21549037D01*
X21433408Y21549034D01*
X21433411Y21549031D01*
X21438174Y21545122D01*
X21535122Y21448174D01*
X21539031Y21443411D01*
X21539034Y21443408D01*
X21539037Y21443404D01*
X21542953Y21438632D01*
X21619116Y21324646D01*
X21624932Y21313765D01*
X21677400Y21187099D01*
X21680981Y21175293D01*
X21707727Y21040830D01*
X21708936Y21028552D01*
X21708936Y20891448D01*
X21707727Y20879170D01*
X21680981Y20744707D01*
X21677400Y20732901D01*
X21624932Y20606235D01*
X21619116Y20595354D01*
X21542953Y20481368D01*
X21539037Y20476596D01*
X21539034Y20476592D01*
X21539031Y20476589D01*
X21535122Y20471826D01*
X21438174Y20374878D01*
X21433411Y20370969D01*
X21433408Y20370966D01*
X21433404Y20370963D01*
X21428632Y20367047D01*
X21314646Y20290884D01*
X21303765Y20285068D01*
X21177099Y20232600D01*
X21165293Y20229019D01*
X21030830Y20202273D01*
X21018552Y20201064D01*
X20881448Y20201064D01*
X20869170Y20202273D01*
X20734707Y20229019D01*
X20722901Y20232600D01*
X20596235Y20285068D01*
X20585354Y20290884D01*
X20471368Y20367047D01*
X20466596Y20370963D01*
X20466592Y20370966D01*
X20466589Y20370969D01*
X20461826Y20374878D01*
X20364878Y20471826D01*
X20360969Y20476589D01*
X20360966Y20476592D01*
X20360963Y20476596D01*
X20357047Y20481368D01*
X20277886Y20599841D01*
X20262341Y20618783D01*
X20243399Y20634329D01*
X20221788Y20645880D01*
X20198339Y20652993D01*
X20173953Y20655395D01*
X19982604Y20655395D01*
X19958218Y20652993D01*
X19934769Y20645880D01*
X19913158Y20634329D01*
X19894216Y20618784D01*
X19878671Y20599842D01*
X19867120Y20578231D01*
X19860007Y20554782D01*
X19857605Y20530396D01*
X19857605Y20328061D01*
X19857302Y20321898D01*
X19857243Y20321292D01*
X19855080Y20310419D01*
X19851307Y20301312D01*
X19845840Y20293130D01*
X19838870Y20286160D01*
X19830688Y20280693D01*
X19826136Y20278807D01*
X19826134Y20278806D01*
X19826131Y20278805D01*
X19821581Y20276920D01*
X19810708Y20274757D01*
X19810102Y20274698D01*
X19803939Y20274395D01*
X18032061Y20274395D01*
X18025898Y20274698D01*
X18025292Y20274757D01*
X18014419Y20276920D01*
X18009869Y20278805D01*
X18009866Y20278806D01*
X18009864Y20278807D01*
X18005312Y20280693D01*
X17997130Y20286160D01*
X17990160Y20293130D01*
X17984693Y20301312D01*
X17980920Y20310419D01*
X17978757Y20321292D01*
X17978698Y20321898D01*
X17978395Y20328061D01*
X17978395Y20530396D01*
X17975993Y20554782D01*
X17968880Y20578231D01*
X17957329Y20599842D01*
X17941784Y20618784D01*
X17922842Y20634329D01*
X17901231Y20645880D01*
X17877782Y20652993D01*
X17853396Y20655395D01*
X17397061Y20655395D01*
X17390898Y20655698D01*
X17390292Y20655757D01*
X17379419Y20657920D01*
X17374869Y20659805D01*
X17374866Y20659806D01*
X17374864Y20659807D01*
X17370312Y20661693D01*
X17362130Y20667160D01*
X17355160Y20674130D01*
X17349693Y20682312D01*
X17345920Y20691419D01*
X17343757Y20702292D01*
X17343698Y20702898D01*
X17343395Y20709061D01*
X17343395Y21210939D01*
X17343698Y21217102D01*
X17343757Y21217708D01*
X17345920Y21228581D01*
X17349693Y21237688D01*
X17355160Y21245870D01*
X17362130Y21252840D01*
X17370312Y21258307D01*
X17374864Y21260193D01*
X17374866Y21260194D01*
X17374869Y21260195D01*
X17379419Y21262080D01*
X17390292Y21264243D01*
X17390898Y21264302D01*
X17397061Y21264605D01*
X17853396Y21264605D01*
X17877782Y21267007D01*
X17901231Y21274120D01*
X17922842Y21285671D01*
X17941784Y21301216D01*
X17957329Y21320158D01*
X17968880Y21341769D01*
X17975993Y21365218D01*
X17978395Y21389604D01*
X17978395Y21591939D01*
X17978698Y21598102D01*
X17978757Y21598708D01*
X17980920Y21609581D01*
X17984693Y21618688D01*
X17990160Y21626870D01*
X17997130Y21633840D01*
X18005312Y21639307D01*
X18009864Y21641193D01*
X18009866Y21641194D01*
X18009869Y21641195D01*
X18014419Y21643080D01*
X18025292Y21645243D01*
X18025898Y21645302D01*
X18032061Y21645605D01*
X19803939Y21645605D01*
X19810102Y21645302D01*
X19810708Y21645243D01*
X19821581Y21643080D01*
X19826131Y21641195D01*
X19826134Y21641194D01*
X19826136Y21641193D01*
X19830688Y21639307D01*
X19838870Y21633840D01*
X19845840Y21626870D01*
X19851307Y21618688D01*
X19855080Y21609581D01*
X19857243Y21598708D01*
X19857302Y21598102D01*
X19857605Y21591939D01*
X19857605Y21389604D01*
X19860007Y21365218D01*
X19867120Y21341769D01*
X19878671Y21320158D01*
X19894216Y21301216D01*
X19913158Y21285671D01*
X19934769Y21274120D01*
X19958218Y21267007D01*
X19982604Y21264605D01*
X20173953Y21264605D01*
X20198339Y21267007D01*
X20221788Y21274120D01*
X20243399Y21285671D01*
X20262341Y21301216D01*
X20277886Y21320159D01*
X20357047Y21438632D01*
X20360963Y21443404D01*
X20360966Y21443408D01*
X20360969Y21443411D01*
X20364878Y21448174D01*
X20461826Y21545122D01*
X20466589Y21549031D01*
X20466592Y21549034D01*
X20466596Y21549037D01*
X20471368Y21552953D01*
X20585354Y21629116D01*
X20596235Y21634932D01*
X20722901Y21687400D01*
X20734707Y21690981D01*
X20869170Y21717727D01*
X20881448Y21718936D01*
X21018552Y21718936D01*
X21030830Y21717727D01*
G37*
G36*
X48888766Y23981179D02*
G01*
X49025257Y23924642D01*
X49148097Y23842563D01*
X49252563Y23738097D01*
X49334642Y23615257D01*
X49391179Y23478766D01*
X49420000Y23333870D01*
X49420000Y23186130D01*
X49391179Y23041234D01*
X49334642Y22904743D01*
X49252563Y22781903D01*
X49148097Y22677437D01*
X49025257Y22595358D01*
X48888766Y22538821D01*
X48743870Y22510000D01*
X48596130Y22510000D01*
X48451234Y22538821D01*
X48314743Y22595358D01*
X48191903Y22677437D01*
X48087437Y22781903D01*
X48005358Y22904743D01*
X47948821Y23041234D01*
X47920000Y23186130D01*
X47920000Y23333870D01*
X47948821Y23478766D01*
X48005358Y23615257D01*
X48087437Y23738097D01*
X48191903Y23842563D01*
X48314743Y23924642D01*
X48451234Y23981179D01*
X48596130Y24010000D01*
X48743870Y24010000D01*
X48888766Y23981179D01*
G37*
G36*
X59048766Y23981179D02*
G01*
X59185257Y23924642D01*
X59308097Y23842563D01*
X59412563Y23738097D01*
X59494642Y23615257D01*
X59551179Y23478766D01*
X59580000Y23333870D01*
X59580000Y23186130D01*
X59551179Y23041234D01*
X59494642Y22904743D01*
X59412563Y22781903D01*
X59308097Y22677437D01*
X59185257Y22595358D01*
X59048766Y22538821D01*
X58903870Y22510000D01*
X58756130Y22510000D01*
X58611234Y22538821D01*
X58474743Y22595358D01*
X58351903Y22677437D01*
X58247437Y22781903D01*
X58165358Y22904743D01*
X58108821Y23041234D01*
X58080000Y23186130D01*
X58080000Y23333870D01*
X58108821Y23478766D01*
X58165358Y23615257D01*
X58247437Y23738097D01*
X58351903Y23842563D01*
X58474743Y23924642D01*
X58611234Y23981179D01*
X58756130Y24010000D01*
X58903870Y24010000D01*
X59048766Y23981179D01*
G37*
G36*
X53968766Y23981179D02*
G01*
X54105257Y23924642D01*
X54228097Y23842563D01*
X54332563Y23738097D01*
X54414642Y23615257D01*
X54471179Y23478766D01*
X54500000Y23333870D01*
X54500000Y23186130D01*
X54471179Y23041234D01*
X54414642Y22904743D01*
X54332563Y22781903D01*
X54228097Y22677437D01*
X54105257Y22595358D01*
X53968766Y22538821D01*
X53823870Y22510000D01*
X53676130Y22510000D01*
X53531234Y22538821D01*
X53394743Y22595358D01*
X53271903Y22677437D01*
X53167437Y22781903D01*
X53085358Y22904743D01*
X53028821Y23041234D01*
X53000000Y23186130D01*
X53000000Y23333870D01*
X53028821Y23478766D01*
X53085358Y23615257D01*
X53167437Y23738097D01*
X53271903Y23842563D01*
X53394743Y23924642D01*
X53531234Y23981179D01*
X53676130Y24010000D01*
X53823870Y24010000D01*
X53968766Y23981179D01*
G37*
G36*
X43808766Y23981179D02*
G01*
X43945257Y23924642D01*
X44068097Y23842563D01*
X44172563Y23738097D01*
X44254642Y23615257D01*
X44311179Y23478766D01*
X44340000Y23333870D01*
X44340000Y23186130D01*
X44311179Y23041234D01*
X44254642Y22904743D01*
X44172563Y22781903D01*
X44068097Y22677437D01*
X43945257Y22595358D01*
X43808766Y22538821D01*
X43663870Y22510000D01*
X43516130Y22510000D01*
X43371234Y22538821D01*
X43234743Y22595358D01*
X43111903Y22677437D01*
X43007437Y22781903D01*
X42925358Y22904743D01*
X42868821Y23041234D01*
X42840000Y23186130D01*
X42840000Y23333870D01*
X42868821Y23478766D01*
X42925358Y23615257D01*
X43007437Y23738097D01*
X43111903Y23842563D01*
X43234743Y23924642D01*
X43371234Y23981179D01*
X43516130Y24010000D01*
X43663870Y24010000D01*
X43808766Y23981179D01*
G37*
G36*
X51428766Y23981179D02*
G01*
X51565257Y23924642D01*
X51688097Y23842563D01*
X51792563Y23738097D01*
X51874642Y23615257D01*
X51931179Y23478766D01*
X51960000Y23333870D01*
X51960000Y23186130D01*
X51931179Y23041234D01*
X51874642Y22904743D01*
X51792563Y22781903D01*
X51688097Y22677437D01*
X51565257Y22595358D01*
X51428766Y22538821D01*
X51283870Y22510000D01*
X51136130Y22510000D01*
X50991234Y22538821D01*
X50854743Y22595358D01*
X50731903Y22677437D01*
X50627437Y22781903D01*
X50545358Y22904743D01*
X50488821Y23041234D01*
X50460000Y23186130D01*
X50460000Y23333870D01*
X50488821Y23478766D01*
X50545358Y23615257D01*
X50627437Y23738097D01*
X50731903Y23842563D01*
X50854743Y23924642D01*
X50991234Y23981179D01*
X51136130Y24010000D01*
X51283870Y24010000D01*
X51428766Y23981179D01*
G37*
G36*
X41800000Y22510000D02*
G01*
X40300000Y22510000D01*
X40300000Y24010000D01*
X41800000Y24010000D01*
X41800000Y22510000D01*
G37*
G36*
X56508766Y23981179D02*
G01*
X56645257Y23924642D01*
X56768097Y23842563D01*
X56872563Y23738097D01*
X56954642Y23615257D01*
X57011179Y23478766D01*
X57040000Y23333870D01*
X57040000Y23186130D01*
X57011179Y23041234D01*
X56954642Y22904743D01*
X56872563Y22781903D01*
X56768097Y22677437D01*
X56645257Y22595358D01*
X56508766Y22538821D01*
X56363870Y22510000D01*
X56216130Y22510000D01*
X56071234Y22538821D01*
X55934743Y22595358D01*
X55811903Y22677437D01*
X55707437Y22781903D01*
X55625358Y22904743D01*
X55568821Y23041234D01*
X55540000Y23186130D01*
X55540000Y23333870D01*
X55568821Y23478766D01*
X55625358Y23615257D01*
X55707437Y23738097D01*
X55811903Y23842563D01*
X55934743Y23924642D01*
X56071234Y23981179D01*
X56216130Y24010000D01*
X56363870Y24010000D01*
X56508766Y23981179D01*
G37*
G36*
X46348766Y23981179D02*
G01*
X46485257Y23924642D01*
X46608097Y23842563D01*
X46712563Y23738097D01*
X46794642Y23615257D01*
X46851179Y23478766D01*
X46880000Y23333870D01*
X46880000Y23186130D01*
X46851179Y23041234D01*
X46794642Y22904743D01*
X46712563Y22781903D01*
X46608097Y22677437D01*
X46485257Y22595358D01*
X46348766Y22538821D01*
X46203870Y22510000D01*
X46056130Y22510000D01*
X45911234Y22538821D01*
X45774743Y22595358D01*
X45651903Y22677437D01*
X45547437Y22781903D01*
X45465358Y22904743D01*
X45408821Y23041234D01*
X45380000Y23186130D01*
X45380000Y23333870D01*
X45408821Y23478766D01*
X45465358Y23615257D01*
X45547437Y23738097D01*
X45651903Y23842563D01*
X45774743Y23924642D01*
X45911234Y23981179D01*
X46056130Y24010000D01*
X46203870Y24010000D01*
X46348766Y23981179D01*
G37*
G36*
X20647620Y32691318D02*
G01*
X20760720Y32657010D01*
X20864954Y32601296D01*
X20956317Y32526317D01*
X21031296Y32434955D01*
X21087010Y32330721D01*
X21121318Y32217621D01*
X21130000Y32129474D01*
X21130000Y31270526D01*
X21121318Y31182379D01*
X21087010Y31069279D01*
X21031296Y30965045D01*
X20956317Y30873683D01*
X20864955Y30798704D01*
X20760721Y30742990D01*
X20647621Y30708682D01*
X20530000Y30697097D01*
X20412380Y30708682D01*
X20299280Y30742990D01*
X20195046Y30798704D01*
X20103684Y30873683D01*
X20028705Y30965045D01*
X19972991Y31069279D01*
X19938682Y31182379D01*
X19930000Y31270526D01*
X19930000Y32129473D01*
X19938682Y32217620D01*
X19972990Y32330720D01*
X20028704Y32434954D01*
X20103683Y32526317D01*
X20195045Y32601296D01*
X20299279Y32657010D01*
X20412379Y32691318D01*
X20530000Y32702903D01*
X20647620Y32691318D01*
G37*
G36*
X13027620Y32691318D02*
G01*
X13140720Y32657010D01*
X13244954Y32601296D01*
X13336317Y32526317D01*
X13411296Y32434955D01*
X13467010Y32330721D01*
X13501318Y32217621D01*
X13510000Y32129474D01*
X13510000Y31270526D01*
X13501318Y31182379D01*
X13467010Y31069279D01*
X13411296Y30965045D01*
X13336317Y30873683D01*
X13244955Y30798704D01*
X13140721Y30742990D01*
X13027621Y30708682D01*
X12910000Y30697097D01*
X12792380Y30708682D01*
X12679280Y30742990D01*
X12575046Y30798704D01*
X12483684Y30873683D01*
X12408705Y30965045D01*
X12352991Y31069279D01*
X12318682Y31182379D01*
X12310000Y31270526D01*
X12310000Y32129473D01*
X12318682Y32217620D01*
X12352990Y32330720D01*
X12408704Y32434954D01*
X12483683Y32526317D01*
X12575045Y32601296D01*
X12679279Y32657010D01*
X12792379Y32691318D01*
X12910000Y32702903D01*
X13027620Y32691318D01*
G37*
G36*
X15567620Y32691318D02*
G01*
X15680720Y32657010D01*
X15784954Y32601296D01*
X15876317Y32526317D01*
X15951296Y32434955D01*
X16007010Y32330721D01*
X16041318Y32217621D01*
X16050000Y32129474D01*
X16050000Y31270526D01*
X16041318Y31182379D01*
X16007010Y31069279D01*
X15951296Y30965045D01*
X15876317Y30873683D01*
X15784955Y30798704D01*
X15680721Y30742990D01*
X15567621Y30708682D01*
X15450000Y30697097D01*
X15332380Y30708682D01*
X15219280Y30742990D01*
X15115046Y30798704D01*
X15023684Y30873683D01*
X14948705Y30965045D01*
X14892991Y31069279D01*
X14858682Y31182379D01*
X14850000Y31270526D01*
X14850000Y32129473D01*
X14858682Y32217620D01*
X14892990Y32330720D01*
X14948704Y32434954D01*
X15023683Y32526317D01*
X15115045Y32601296D01*
X15219279Y32657010D01*
X15332379Y32691318D01*
X15450000Y32702903D01*
X15567620Y32691318D01*
G37*
G36*
X33347620Y32691318D02*
G01*
X33460720Y32657010D01*
X33564954Y32601296D01*
X33656317Y32526317D01*
X33731296Y32434955D01*
X33787010Y32330721D01*
X33821318Y32217621D01*
X33830000Y32129474D01*
X33830000Y31270526D01*
X33821318Y31182379D01*
X33787010Y31069279D01*
X33731296Y30965045D01*
X33656317Y30873683D01*
X33564955Y30798704D01*
X33460721Y30742990D01*
X33347621Y30708682D01*
X33230000Y30697097D01*
X33112380Y30708682D01*
X32999280Y30742990D01*
X32895046Y30798704D01*
X32803684Y30873683D01*
X32728705Y30965045D01*
X32672991Y31069279D01*
X32638682Y31182379D01*
X32630000Y31270526D01*
X32630000Y32129473D01*
X32638682Y32217620D01*
X32672990Y32330720D01*
X32728704Y32434954D01*
X32803683Y32526317D01*
X32895045Y32601296D01*
X32999279Y32657010D01*
X33112379Y32691318D01*
X33230000Y32702903D01*
X33347620Y32691318D01*
G37*
G36*
X28267620Y32691318D02*
G01*
X28380720Y32657010D01*
X28484954Y32601296D01*
X28576317Y32526317D01*
X28651296Y32434955D01*
X28707010Y32330721D01*
X28741318Y32217621D01*
X28750000Y32129474D01*
X28750000Y31270526D01*
X28741318Y31182379D01*
X28707010Y31069279D01*
X28651296Y30965045D01*
X28576317Y30873683D01*
X28484955Y30798704D01*
X28380721Y30742990D01*
X28267621Y30708682D01*
X28150000Y30697097D01*
X28032380Y30708682D01*
X27919280Y30742990D01*
X27815046Y30798704D01*
X27723684Y30873683D01*
X27648705Y30965045D01*
X27592991Y31069279D01*
X27558682Y31182379D01*
X27550000Y31270526D01*
X27550000Y32129473D01*
X27558682Y32217620D01*
X27592990Y32330720D01*
X27648704Y32434954D01*
X27723683Y32526317D01*
X27815045Y32601296D01*
X27919279Y32657010D01*
X28032379Y32691318D01*
X28150000Y32702903D01*
X28267620Y32691318D01*
G37*
G36*
X25727620Y32691318D02*
G01*
X25840720Y32657010D01*
X25944954Y32601296D01*
X26036317Y32526317D01*
X26111296Y32434955D01*
X26167010Y32330721D01*
X26201318Y32217621D01*
X26210000Y32129474D01*
X26210000Y31270526D01*
X26201318Y31182379D01*
X26167010Y31069279D01*
X26111296Y30965045D01*
X26036317Y30873683D01*
X25944955Y30798704D01*
X25840721Y30742990D01*
X25727621Y30708682D01*
X25610000Y30697097D01*
X25492380Y30708682D01*
X25379280Y30742990D01*
X25275046Y30798704D01*
X25183684Y30873683D01*
X25108705Y30965045D01*
X25052991Y31069279D01*
X25018682Y31182379D01*
X25010000Y31270526D01*
X25010000Y32129473D01*
X25018682Y32217620D01*
X25052990Y32330720D01*
X25108704Y32434954D01*
X25183683Y32526317D01*
X25275045Y32601296D01*
X25379279Y32657010D01*
X25492379Y32691318D01*
X25610000Y32702903D01*
X25727620Y32691318D01*
G37*
G36*
X23187620Y32691318D02*
G01*
X23300720Y32657010D01*
X23404954Y32601296D01*
X23496317Y32526317D01*
X23571296Y32434955D01*
X23627010Y32330721D01*
X23661318Y32217621D01*
X23670000Y32129474D01*
X23670000Y31270526D01*
X23661318Y31182379D01*
X23627010Y31069279D01*
X23571296Y30965045D01*
X23496317Y30873683D01*
X23404955Y30798704D01*
X23300721Y30742990D01*
X23187621Y30708682D01*
X23070000Y30697097D01*
X22952380Y30708682D01*
X22839280Y30742990D01*
X22735046Y30798704D01*
X22643684Y30873683D01*
X22568705Y30965045D01*
X22512991Y31069279D01*
X22478682Y31182379D01*
X22470000Y31270526D01*
X22470000Y32129473D01*
X22478682Y32217620D01*
X22512990Y32330720D01*
X22568704Y32434954D01*
X22643683Y32526317D01*
X22735045Y32601296D01*
X22839279Y32657010D01*
X22952379Y32691318D01*
X23070000Y32702903D01*
X23187620Y32691318D01*
G37*
G36*
X18107620Y32691318D02*
G01*
X18220720Y32657010D01*
X18324954Y32601296D01*
X18416317Y32526317D01*
X18491296Y32434955D01*
X18547010Y32330721D01*
X18581318Y32217621D01*
X18590000Y32129474D01*
X18590000Y31270526D01*
X18581318Y31182379D01*
X18547010Y31069279D01*
X18491296Y30965045D01*
X18416317Y30873683D01*
X18324955Y30798704D01*
X18220721Y30742990D01*
X18107621Y30708682D01*
X17990000Y30697097D01*
X17872380Y30708682D01*
X17759280Y30742990D01*
X17655046Y30798704D01*
X17563684Y30873683D01*
X17488705Y30965045D01*
X17432991Y31069279D01*
X17398682Y31182379D01*
X17390000Y31270526D01*
X17390000Y32129473D01*
X17398682Y32217620D01*
X17432990Y32330720D01*
X17488704Y32434954D01*
X17563683Y32526317D01*
X17655045Y32601296D01*
X17759279Y32657010D01*
X17872379Y32691318D01*
X17990000Y32702903D01*
X18107620Y32691318D01*
G37*
G36*
X30807620Y32691318D02*
G01*
X30920720Y32657010D01*
X31024954Y32601296D01*
X31116317Y32526317D01*
X31191296Y32434955D01*
X31247010Y32330721D01*
X31281318Y32217621D01*
X31290000Y32129474D01*
X31290000Y31270526D01*
X31281318Y31182379D01*
X31247010Y31069279D01*
X31191296Y30965045D01*
X31116317Y30873683D01*
X31024955Y30798704D01*
X30920721Y30742990D01*
X30807621Y30708682D01*
X30690000Y30697097D01*
X30572380Y30708682D01*
X30459280Y30742990D01*
X30355046Y30798704D01*
X30263684Y30873683D01*
X30188705Y30965045D01*
X30132991Y31069279D01*
X30098682Y31182379D01*
X30090000Y31270526D01*
X30090000Y32129473D01*
X30098682Y32217620D01*
X30132990Y32330720D01*
X30188704Y32434954D01*
X30263683Y32526317D01*
X30355045Y32601296D01*
X30459279Y32657010D01*
X30572379Y32691318D01*
X30690000Y32702903D01*
X30807620Y32691318D01*
G37*
G36*
X10970000Y30700000D02*
G01*
X9770000Y30700000D01*
X9770000Y32700000D01*
X10970000Y32700000D01*
X10970000Y30700000D01*
G37*
G36*
X50419445Y36108688D02*
G01*
X50627132Y36067377D01*
X51018407Y35905305D01*
X51370545Y35670014D01*
X51670014Y35370545D01*
X51905305Y35018407D01*
X52067377Y34627132D01*
X52150000Y34211757D01*
X52150000Y33788243D01*
X52067377Y33372868D01*
X51905305Y32981593D01*
X51670014Y32629455D01*
X51370545Y32329986D01*
X51018407Y32094695D01*
X50627132Y31932623D01*
X50419444Y31891311D01*
X50211758Y31850000D01*
X49788242Y31850000D01*
X49580556Y31891311D01*
X49372868Y31932623D01*
X48981593Y32094695D01*
X48629455Y32329986D01*
X48329986Y32629455D01*
X48094695Y32981593D01*
X47932623Y33372868D01*
X47850000Y33788243D01*
X47850000Y34211757D01*
X47932623Y34627132D01*
X48094695Y35018407D01*
X48329986Y35370545D01*
X48629455Y35670014D01*
X48981593Y35905305D01*
X49372868Y36067377D01*
X49580555Y36108688D01*
X49788242Y36150000D01*
X50211758Y36150000D01*
X50419445Y36108688D01*
G37*
G36*
X4919444Y36608689D02*
G01*
X5127132Y36567377D01*
X5518407Y36405305D01*
X5870545Y36170014D01*
X6170014Y35870545D01*
X6405305Y35518407D01*
X6567377Y35127132D01*
X6650000Y34711757D01*
X6650000Y34288243D01*
X6567377Y33872868D01*
X6405305Y33481593D01*
X6170014Y33129455D01*
X5870545Y32829986D01*
X5518407Y32594695D01*
X5127132Y32432623D01*
X4919445Y32391312D01*
X4711758Y32350000D01*
X4288242Y32350000D01*
X4080555Y32391312D01*
X3872868Y32432623D01*
X3481593Y32594695D01*
X3129455Y32829986D01*
X2829986Y33129455D01*
X2594695Y33481593D01*
X2432623Y33872868D01*
X2350000Y34288243D01*
X2350000Y34711757D01*
X2432623Y35127132D01*
X2594695Y35518407D01*
X2829986Y35870545D01*
X3129455Y36170014D01*
X3481593Y36405305D01*
X3872868Y36567377D01*
X4080556Y36608689D01*
X4288242Y36650000D01*
X4711758Y36650000D01*
X4919444Y36608689D01*
G37*
G36*
X95919444Y36608689D02*
G01*
X96127132Y36567377D01*
X96518407Y36405305D01*
X96870545Y36170014D01*
X97170014Y35870545D01*
X97405305Y35518407D01*
X97567377Y35127132D01*
X97650000Y34711757D01*
X97650000Y34288243D01*
X97567377Y33872868D01*
X97405305Y33481593D01*
X97170014Y33129455D01*
X96870545Y32829986D01*
X96518407Y32594695D01*
X96127132Y32432623D01*
X95919445Y32391312D01*
X95711758Y32350000D01*
X95288242Y32350000D01*
X95080555Y32391312D01*
X94872868Y32432623D01*
X94481593Y32594695D01*
X94129455Y32829986D01*
X93829986Y33129455D01*
X93594695Y33481593D01*
X93432623Y33872868D01*
X93350000Y34288243D01*
X93350000Y34711757D01*
X93432623Y35127132D01*
X93594695Y35518407D01*
X93829986Y35870545D01*
X94129455Y36170014D01*
X94481593Y36405305D01*
X94872868Y36567377D01*
X95080556Y36608689D01*
X95288242Y36650000D01*
X95711758Y36650000D01*
X95919444Y36608689D01*
G37*
G36*
X19000000Y34500000D02*
G01*
X15000000Y34500000D01*
X15000000Y36500000D01*
X19000000Y36500000D01*
X19000000Y34500000D01*
G37*
G36*
X63000000Y34500000D02*
G01*
X59000000Y34500000D01*
X59000000Y36500000D01*
X63000000Y36500000D01*
X63000000Y34500000D01*
G37*
G36*
X85000000Y34500000D02*
G01*
X81000000Y34500000D01*
X81000000Y36500000D01*
X85000000Y36500000D01*
X85000000Y34500000D01*
G37*
G36*
X41000000Y34500000D02*
G01*
X37000000Y34500000D01*
X37000000Y36500000D01*
X41000000Y36500000D01*
X41000000Y34500000D01*
G37*
G36*
X13528766Y39821179D02*
G01*
X13665257Y39764642D01*
X13788097Y39682563D01*
X13892563Y39578097D01*
X13974642Y39455257D01*
X14031179Y39318766D01*
X14060000Y39173870D01*
X14060000Y39026130D01*
X14031179Y38881234D01*
X13974642Y38744743D01*
X13892563Y38621903D01*
X13788097Y38517437D01*
X13665257Y38435358D01*
X13528766Y38378821D01*
X13383870Y38350000D01*
X13236130Y38350000D01*
X13091234Y38378821D01*
X12954743Y38435358D01*
X12831903Y38517437D01*
X12727437Y38621903D01*
X12645358Y38744743D01*
X12588821Y38881234D01*
X12560000Y39026130D01*
X12560000Y39173870D01*
X12588821Y39318766D01*
X12645358Y39455257D01*
X12727437Y39578097D01*
X12831903Y39682563D01*
X12954743Y39764642D01*
X13091234Y39821179D01*
X13236130Y39850000D01*
X13383870Y39850000D01*
X13528766Y39821179D01*
G37*
G36*
X16068766Y39821179D02*
G01*
X16205257Y39764642D01*
X16328097Y39682563D01*
X16432563Y39578097D01*
X16514642Y39455257D01*
X16571179Y39318766D01*
X16600000Y39173870D01*
X16600000Y39026130D01*
X16571179Y38881234D01*
X16514642Y38744743D01*
X16432563Y38621903D01*
X16328097Y38517437D01*
X16205257Y38435358D01*
X16068766Y38378821D01*
X15923870Y38350000D01*
X15776130Y38350000D01*
X15631234Y38378821D01*
X15494743Y38435358D01*
X15371903Y38517437D01*
X15267437Y38621903D01*
X15185358Y38744743D01*
X15128821Y38881234D01*
X15100000Y39026130D01*
X15100000Y39173870D01*
X15128821Y39318766D01*
X15185358Y39455257D01*
X15267437Y39578097D01*
X15371903Y39682563D01*
X15494743Y39764642D01*
X15631234Y39821179D01*
X15776130Y39850000D01*
X15923870Y39850000D01*
X16068766Y39821179D01*
G37*
G36*
X31840000Y38350000D02*
G01*
X30340000Y38350000D01*
X30340000Y39850000D01*
X31840000Y39850000D01*
X31840000Y38350000D01*
G37*
G36*
X26228766Y39821179D02*
G01*
X26365257Y39764642D01*
X26488097Y39682563D01*
X26592563Y39578097D01*
X26674642Y39455257D01*
X26731179Y39318766D01*
X26760000Y39173870D01*
X26760000Y39026130D01*
X26731179Y38881234D01*
X26674642Y38744743D01*
X26592563Y38621903D01*
X26488097Y38517437D01*
X26365257Y38435358D01*
X26228766Y38378821D01*
X26083870Y38350000D01*
X25936130Y38350000D01*
X25791234Y38378821D01*
X25654743Y38435358D01*
X25531903Y38517437D01*
X25427437Y38621903D01*
X25345358Y38744743D01*
X25288821Y38881234D01*
X25260000Y39026130D01*
X25260000Y39173870D01*
X25288821Y39318766D01*
X25345358Y39455257D01*
X25427437Y39578097D01*
X25531903Y39682563D01*
X25654743Y39764642D01*
X25791234Y39821179D01*
X25936130Y39850000D01*
X26083870Y39850000D01*
X26228766Y39821179D01*
G37*
G36*
X18608766Y39821179D02*
G01*
X18745257Y39764642D01*
X18868097Y39682563D01*
X18972563Y39578097D01*
X19054642Y39455257D01*
X19111179Y39318766D01*
X19140000Y39173870D01*
X19140000Y39026130D01*
X19111179Y38881234D01*
X19054642Y38744743D01*
X18972563Y38621903D01*
X18868097Y38517437D01*
X18745257Y38435358D01*
X18608766Y38378821D01*
X18463870Y38350000D01*
X18316130Y38350000D01*
X18171234Y38378821D01*
X18034743Y38435358D01*
X17911903Y38517437D01*
X17807437Y38621903D01*
X17725358Y38744743D01*
X17668821Y38881234D01*
X17640000Y39026130D01*
X17640000Y39173870D01*
X17668821Y39318766D01*
X17725358Y39455257D01*
X17807437Y39578097D01*
X17911903Y39682563D01*
X18034743Y39764642D01*
X18171234Y39821179D01*
X18316130Y39850000D01*
X18463870Y39850000D01*
X18608766Y39821179D01*
G37*
G36*
X28768766Y39821179D02*
G01*
X28905257Y39764642D01*
X29028097Y39682563D01*
X29132563Y39578097D01*
X29214642Y39455257D01*
X29271179Y39318766D01*
X29300000Y39173870D01*
X29300000Y39026130D01*
X29271179Y38881234D01*
X29214642Y38744743D01*
X29132563Y38621903D01*
X29028097Y38517437D01*
X28905257Y38435358D01*
X28768766Y38378821D01*
X28623870Y38350000D01*
X28476130Y38350000D01*
X28331234Y38378821D01*
X28194743Y38435358D01*
X28071903Y38517437D01*
X27967437Y38621903D01*
X27885358Y38744743D01*
X27828821Y38881234D01*
X27800000Y39026130D01*
X27800000Y39173870D01*
X27828821Y39318766D01*
X27885358Y39455257D01*
X27967437Y39578097D01*
X28071903Y39682563D01*
X28194743Y39764642D01*
X28331234Y39821179D01*
X28476130Y39850000D01*
X28623870Y39850000D01*
X28768766Y39821179D01*
G37*
G36*
X21148766Y39821179D02*
G01*
X21285257Y39764642D01*
X21408097Y39682563D01*
X21512563Y39578097D01*
X21594642Y39455257D01*
X21651179Y39318766D01*
X21680000Y39173870D01*
X21680000Y39026130D01*
X21651179Y38881234D01*
X21594642Y38744743D01*
X21512563Y38621903D01*
X21408097Y38517437D01*
X21285257Y38435358D01*
X21148766Y38378821D01*
X21003870Y38350000D01*
X20856130Y38350000D01*
X20711234Y38378821D01*
X20574743Y38435358D01*
X20451903Y38517437D01*
X20347437Y38621903D01*
X20265358Y38744743D01*
X20208821Y38881234D01*
X20180000Y39026130D01*
X20180000Y39173870D01*
X20208821Y39318766D01*
X20265358Y39455257D01*
X20347437Y39578097D01*
X20451903Y39682563D01*
X20574743Y39764642D01*
X20711234Y39821179D01*
X20856130Y39850000D01*
X21003870Y39850000D01*
X21148766Y39821179D01*
G37*
G36*
X23688766Y39821179D02*
G01*
X23825257Y39764642D01*
X23948097Y39682563D01*
X24052563Y39578097D01*
X24134642Y39455257D01*
X24191179Y39318766D01*
X24220000Y39173870D01*
X24220000Y39026130D01*
X24191179Y38881234D01*
X24134642Y38744743D01*
X24052563Y38621903D01*
X23948097Y38517437D01*
X23825257Y38435358D01*
X23688766Y38378821D01*
X23543870Y38350000D01*
X23396130Y38350000D01*
X23251234Y38378821D01*
X23114743Y38435358D01*
X22991903Y38517437D01*
X22887437Y38621903D01*
X22805358Y38744743D01*
X22748821Y38881234D01*
X22720000Y39026130D01*
X22720000Y39173870D01*
X22748821Y39318766D01*
X22805358Y39455257D01*
X22887437Y39578097D01*
X22991903Y39682563D01*
X23114743Y39764642D01*
X23251234Y39821179D01*
X23396130Y39850000D01*
X23543870Y39850000D01*
X23688766Y39821179D01*
G37*
G36*
X39227290Y42224381D02*
G01*
X39291689Y42211571D01*
X39473678Y42136189D01*
X39637463Y42026751D01*
X39776751Y41887463D01*
X39886189Y41723678D01*
X39961571Y41541689D01*
X40000000Y41348491D01*
X40000000Y41151509D01*
X39961571Y40958311D01*
X39886189Y40776322D01*
X39776751Y40612537D01*
X39637463Y40473249D01*
X39473678Y40363811D01*
X39291689Y40288429D01*
X39227290Y40275619D01*
X39098493Y40250000D01*
X38901507Y40250000D01*
X38772710Y40275619D01*
X38708311Y40288429D01*
X38526322Y40363811D01*
X38362537Y40473249D01*
X38223249Y40612537D01*
X38113811Y40776322D01*
X38038429Y40958311D01*
X38000000Y41151509D01*
X38000000Y41348491D01*
X38038429Y41541689D01*
X38113811Y41723678D01*
X38223249Y41887463D01*
X38362537Y42026751D01*
X38526322Y42136189D01*
X38708311Y42211571D01*
X38772710Y42224381D01*
X38901507Y42250000D01*
X39098493Y42250000D01*
X39227290Y42224381D01*
G37*
G36*
X83227290Y42224381D02*
G01*
X83291689Y42211571D01*
X83473678Y42136189D01*
X83637463Y42026751D01*
X83776751Y41887463D01*
X83886189Y41723678D01*
X83961571Y41541689D01*
X84000000Y41348491D01*
X84000000Y41151509D01*
X83961571Y40958311D01*
X83886189Y40776322D01*
X83776751Y40612537D01*
X83637463Y40473249D01*
X83473678Y40363811D01*
X83291689Y40288429D01*
X83227290Y40275619D01*
X83098493Y40250000D01*
X82901507Y40250000D01*
X82772710Y40275619D01*
X82708311Y40288429D01*
X82526322Y40363811D01*
X82362537Y40473249D01*
X82223249Y40612537D01*
X82113811Y40776322D01*
X82038429Y40958311D01*
X82000000Y41151509D01*
X82000000Y41348491D01*
X82038429Y41541689D01*
X82113811Y41723678D01*
X82223249Y41887463D01*
X82362537Y42026751D01*
X82526322Y42136189D01*
X82708311Y42211571D01*
X82772710Y42224381D01*
X82901507Y42250000D01*
X83098493Y42250000D01*
X83227290Y42224381D01*
G37*
G36*
X61227290Y42224381D02*
G01*
X61291689Y42211571D01*
X61473678Y42136189D01*
X61637463Y42026751D01*
X61776751Y41887463D01*
X61886189Y41723678D01*
X61961571Y41541689D01*
X62000000Y41348491D01*
X62000000Y41151509D01*
X61961571Y40958311D01*
X61886189Y40776322D01*
X61776751Y40612537D01*
X61637463Y40473249D01*
X61473678Y40363811D01*
X61291689Y40288429D01*
X61227290Y40275619D01*
X61098493Y40250000D01*
X60901507Y40250000D01*
X60772710Y40275619D01*
X60708311Y40288429D01*
X60526322Y40363811D01*
X60362537Y40473249D01*
X60223249Y40612537D01*
X60113811Y40776322D01*
X60038429Y40958311D01*
X60000000Y41151509D01*
X60000000Y41348491D01*
X60038429Y41541689D01*
X60113811Y41723678D01*
X60223249Y41887463D01*
X60362537Y42026751D01*
X60526322Y42136189D01*
X60708311Y42211571D01*
X60772710Y42224381D01*
X60901507Y42250000D01*
X61098493Y42250000D01*
X61227290Y42224381D01*
G37*
G36*
X17227290Y42224381D02*
G01*
X17291689Y42211571D01*
X17473678Y42136189D01*
X17637463Y42026751D01*
X17776751Y41887463D01*
X17886189Y41723678D01*
X17961571Y41541689D01*
X18000000Y41348491D01*
X18000000Y41151509D01*
X17961571Y40958311D01*
X17886189Y40776322D01*
X17776751Y40612537D01*
X17637463Y40473249D01*
X17473678Y40363811D01*
X17291689Y40288429D01*
X17227290Y40275619D01*
X17098493Y40250000D01*
X16901507Y40250000D01*
X16772710Y40275619D01*
X16708311Y40288429D01*
X16526322Y40363811D01*
X16362537Y40473249D01*
X16223249Y40612537D01*
X16113811Y40776322D01*
X16038429Y40958311D01*
X16000000Y41151509D01*
X16000000Y41348491D01*
X16038429Y41541689D01*
X16113811Y41723678D01*
X16223249Y41887463D01*
X16362537Y42026751D01*
X16526322Y42136189D01*
X16708311Y42211571D01*
X16772710Y42224381D01*
X16901507Y42250000D01*
X17098493Y42250000D01*
X17227290Y42224381D01*
G37*
G36*
X36000000Y42500000D02*
G01*
X32000000Y42500000D01*
X32000000Y44500000D01*
X36000000Y44500000D01*
X36000000Y42500000D01*
G37*
G36*
X90000000Y42500000D02*
G01*
X86000000Y42500000D01*
X86000000Y44500000D01*
X90000000Y44500000D01*
X90000000Y42500000D01*
G37*
G36*
X85000000Y42500000D02*
G01*
X81000000Y42500000D01*
X81000000Y44500000D01*
X85000000Y44500000D01*
X85000000Y42500000D01*
G37*
G36*
X80000000Y42500000D02*
G01*
X76000000Y42500000D01*
X76000000Y44500000D01*
X80000000Y44500000D01*
X80000000Y42500000D01*
G37*
G36*
X14000000Y42500000D02*
G01*
X10000000Y42500000D01*
X10000000Y44500000D01*
X14000000Y44500000D01*
X14000000Y42500000D01*
G37*
G36*
X24000000Y42500000D02*
G01*
X20000000Y42500000D01*
X20000000Y44500000D01*
X24000000Y44500000D01*
X24000000Y42500000D01*
G37*
G36*
X41000000Y42500000D02*
G01*
X37000000Y42500000D01*
X37000000Y44500000D01*
X41000000Y44500000D01*
X41000000Y42500000D01*
G37*
G36*
X68000000Y42500000D02*
G01*
X64000000Y42500000D01*
X64000000Y44500000D01*
X68000000Y44500000D01*
X68000000Y42500000D01*
G37*
G36*
X63000000Y42500000D02*
G01*
X59000000Y42500000D01*
X59000000Y44500000D01*
X63000000Y44500000D01*
X63000000Y42500000D01*
G37*
G36*
X46000000Y42500000D02*
G01*
X42000000Y42500000D01*
X42000000Y44500000D01*
X46000000Y44500000D01*
X46000000Y42500000D01*
G37*
G36*
X58000000Y42500000D02*
G01*
X54000000Y42500000D01*
X54000000Y44500000D01*
X58000000Y44500000D01*
X58000000Y42500000D01*
G37*
G36*
X19000000Y42500000D02*
G01*
X15000000Y42500000D01*
X15000000Y44500000D01*
X19000000Y44500000D01*
X19000000Y42500000D01*
G37*
G36*
X41000000Y46000000D02*
G01*
X37000000Y46000000D01*
X37000000Y48000000D01*
X41000000Y48000000D01*
X41000000Y46000000D01*
G37*
G36*
X19000000Y46000000D02*
G01*
X15000000Y46000000D01*
X15000000Y48000000D01*
X19000000Y48000000D01*
X19000000Y46000000D01*
G37*
G36*
X85000000Y46000000D02*
G01*
X81000000Y46000000D01*
X81000000Y48000000D01*
X85000000Y48000000D01*
X85000000Y46000000D01*
G37*
G36*
X63000000Y46000000D02*
G01*
X59000000Y46000000D01*
X59000000Y48000000D01*
X63000000Y48000000D01*
X63000000Y46000000D01*
G37*
G36*
X28285368Y51135358D02*
G01*
X28627132Y51067377D01*
X28903805Y50952775D01*
X28989208Y50917400D01*
X29018407Y50905305D01*
X29370545Y50670014D01*
X29670014Y50370545D01*
X29905305Y50018407D01*
X29905306Y50018405D01*
X29929109Y49960939D01*
X30067377Y49627132D01*
X30105177Y49437099D01*
X30150000Y49211758D01*
X30150000Y48788242D01*
X30129871Y48687047D01*
X30083172Y48452273D01*
X30067377Y48372869D01*
X29912930Y48000000D01*
X29905305Y47981593D01*
X29670014Y47629455D01*
X29370545Y47329986D01*
X29018407Y47094695D01*
X28627132Y46932623D01*
X28419444Y46891311D01*
X28211758Y46850000D01*
X27788242Y46850000D01*
X27580556Y46891311D01*
X27372868Y46932623D01*
X26981593Y47094695D01*
X26629455Y47329986D01*
X26329986Y47629455D01*
X26094695Y47981593D01*
X26087071Y48000000D01*
X25932623Y48372869D01*
X25916829Y48452273D01*
X25870129Y48687047D01*
X25850000Y48788242D01*
X25850000Y49211758D01*
X25894823Y49437099D01*
X25932623Y49627132D01*
X26070891Y49960939D01*
X26094694Y50018405D01*
X26094695Y50018407D01*
X26329986Y50370545D01*
X26629455Y50670014D01*
X26981593Y50905305D01*
X27010793Y50917400D01*
X27096195Y50952775D01*
X27372868Y51067377D01*
X27714632Y51135358D01*
X27788242Y51150000D01*
X28211758Y51150000D01*
X28285368Y51135358D01*
G37*
G36*
X72285368Y51135358D02*
G01*
X72627132Y51067377D01*
X72903805Y50952775D01*
X72989208Y50917400D01*
X73018407Y50905305D01*
X73370545Y50670014D01*
X73670014Y50370545D01*
X73905305Y50018407D01*
X73905306Y50018405D01*
X73929109Y49960939D01*
X74067377Y49627132D01*
X74105177Y49437099D01*
X74150000Y49211758D01*
X74150000Y48788242D01*
X74129871Y48687047D01*
X74083172Y48452273D01*
X74067377Y48372869D01*
X73912930Y48000000D01*
X73905305Y47981593D01*
X73670014Y47629455D01*
X73370545Y47329986D01*
X73018407Y47094695D01*
X72627132Y46932623D01*
X72419444Y46891311D01*
X72211758Y46850000D01*
X71788242Y46850000D01*
X71580555Y46891312D01*
X71372868Y46932623D01*
X70981593Y47094695D01*
X70629455Y47329986D01*
X70329986Y47629455D01*
X70094695Y47981593D01*
X70087071Y48000000D01*
X69932623Y48372869D01*
X69916829Y48452273D01*
X69870129Y48687047D01*
X69850000Y48788242D01*
X69850000Y49211758D01*
X69894823Y49437099D01*
X69932623Y49627132D01*
X70070891Y49960939D01*
X70094694Y50018405D01*
X70094695Y50018407D01*
X70329986Y50370545D01*
X70629455Y50670014D01*
X70981593Y50905305D01*
X71010793Y50917400D01*
X71096195Y50952775D01*
X71372868Y51067377D01*
X71714632Y51135358D01*
X71788242Y51150000D01*
X72211758Y51150000D01*
X72285368Y51135358D01*
G37*
G36*
X42530830Y49967727D02*
G01*
X42665293Y49940981D01*
X42677099Y49937400D01*
X42803765Y49884932D01*
X42814646Y49879116D01*
X42928632Y49802953D01*
X42933404Y49799037D01*
X42933408Y49799034D01*
X42933411Y49799031D01*
X42938174Y49795122D01*
X43035122Y49698174D01*
X43039031Y49693411D01*
X43039034Y49693408D01*
X43039037Y49693404D01*
X43042953Y49688632D01*
X43119116Y49574646D01*
X43124932Y49563765D01*
X43177400Y49437099D01*
X43180981Y49425293D01*
X43207727Y49290830D01*
X43208936Y49278552D01*
X43208936Y49141448D01*
X43207727Y49129170D01*
X43180981Y48994707D01*
X43177400Y48982901D01*
X43124932Y48856235D01*
X43119116Y48845354D01*
X43042953Y48731368D01*
X43039037Y48726596D01*
X43039034Y48726592D01*
X43039031Y48726589D01*
X43035122Y48721826D01*
X42938174Y48624878D01*
X42933411Y48620969D01*
X42933408Y48620966D01*
X42933404Y48620963D01*
X42928632Y48617047D01*
X42814646Y48540884D01*
X42803765Y48535068D01*
X42677099Y48482600D01*
X42665293Y48479019D01*
X42530830Y48452273D01*
X42518552Y48451064D01*
X42381448Y48451064D01*
X42369170Y48452273D01*
X42234707Y48479019D01*
X42222901Y48482600D01*
X42096235Y48535068D01*
X42085354Y48540884D01*
X41971368Y48617047D01*
X41966596Y48620963D01*
X41966592Y48620966D01*
X41966589Y48620969D01*
X41961826Y48624878D01*
X41864878Y48721826D01*
X41860969Y48726589D01*
X41860966Y48726592D01*
X41860963Y48726596D01*
X41857047Y48731368D01*
X41777886Y48849841D01*
X41762341Y48868783D01*
X41743399Y48884329D01*
X41721788Y48895880D01*
X41698339Y48902993D01*
X41673953Y48905395D01*
X41482604Y48905395D01*
X41458218Y48902993D01*
X41434769Y48895880D01*
X41413158Y48884329D01*
X41394216Y48868784D01*
X41378671Y48849842D01*
X41367120Y48828231D01*
X41360007Y48804782D01*
X41357605Y48780396D01*
X41357605Y48578061D01*
X41357302Y48571898D01*
X41357243Y48571292D01*
X41355080Y48560419D01*
X41351307Y48551312D01*
X41345840Y48543130D01*
X41338870Y48536160D01*
X41330688Y48530693D01*
X41326136Y48528807D01*
X41326134Y48528806D01*
X41326131Y48528805D01*
X41321581Y48526920D01*
X41310708Y48524757D01*
X41310102Y48524698D01*
X41303939Y48524395D01*
X39532061Y48524395D01*
X39525898Y48524698D01*
X39525292Y48524757D01*
X39514419Y48526920D01*
X39509869Y48528805D01*
X39509866Y48528806D01*
X39509864Y48528807D01*
X39505312Y48530693D01*
X39497130Y48536160D01*
X39490160Y48543130D01*
X39484693Y48551312D01*
X39480920Y48560419D01*
X39478757Y48571292D01*
X39478698Y48571898D01*
X39478395Y48578061D01*
X39478395Y48780396D01*
X39475993Y48804782D01*
X39468880Y48828231D01*
X39457329Y48849842D01*
X39441784Y48868784D01*
X39422842Y48884329D01*
X39401231Y48895880D01*
X39377782Y48902993D01*
X39353396Y48905395D01*
X38897061Y48905395D01*
X38890898Y48905698D01*
X38890292Y48905757D01*
X38879419Y48907920D01*
X38874869Y48909805D01*
X38874866Y48909806D01*
X38874864Y48909807D01*
X38870312Y48911693D01*
X38862130Y48917160D01*
X38855160Y48924130D01*
X38849693Y48932312D01*
X38845920Y48941419D01*
X38843757Y48952292D01*
X38843698Y48952898D01*
X38843395Y48959061D01*
X38843395Y49460939D01*
X38843698Y49467102D01*
X38843757Y49467708D01*
X38845920Y49478581D01*
X38849693Y49487688D01*
X38855160Y49495870D01*
X38862130Y49502840D01*
X38870312Y49508307D01*
X38874864Y49510193D01*
X38874866Y49510194D01*
X38874869Y49510195D01*
X38879419Y49512080D01*
X38890292Y49514243D01*
X38890898Y49514302D01*
X38897061Y49514605D01*
X39353396Y49514605D01*
X39377782Y49517007D01*
X39401231Y49524120D01*
X39422842Y49535671D01*
X39441784Y49551216D01*
X39457329Y49570158D01*
X39468880Y49591769D01*
X39475993Y49615218D01*
X39478395Y49639604D01*
X39478395Y49841939D01*
X39478698Y49848102D01*
X39478757Y49848708D01*
X39480920Y49859581D01*
X39484693Y49868688D01*
X39490160Y49876870D01*
X39497130Y49883840D01*
X39505312Y49889307D01*
X39509864Y49891193D01*
X39509866Y49891194D01*
X39509869Y49891195D01*
X39514419Y49893080D01*
X39525292Y49895243D01*
X39525898Y49895302D01*
X39532061Y49895605D01*
X41303939Y49895605D01*
X41310102Y49895302D01*
X41310708Y49895243D01*
X41321581Y49893080D01*
X41326131Y49891195D01*
X41326134Y49891194D01*
X41326136Y49891193D01*
X41330688Y49889307D01*
X41338870Y49883840D01*
X41345840Y49876870D01*
X41351307Y49868688D01*
X41355080Y49859581D01*
X41357243Y49848708D01*
X41357302Y49848102D01*
X41357605Y49841939D01*
X41357605Y49639604D01*
X41360007Y49615218D01*
X41367120Y49591769D01*
X41378671Y49570158D01*
X41394216Y49551216D01*
X41413158Y49535671D01*
X41434769Y49524120D01*
X41458218Y49517007D01*
X41482604Y49514605D01*
X41673953Y49514605D01*
X41698339Y49517007D01*
X41721788Y49524120D01*
X41743399Y49535671D01*
X41762341Y49551216D01*
X41777886Y49570159D01*
X41857047Y49688632D01*
X41860963Y49693404D01*
X41860966Y49693408D01*
X41860969Y49693411D01*
X41864878Y49698174D01*
X41961826Y49795122D01*
X41966589Y49799031D01*
X41966592Y49799034D01*
X41966596Y49799037D01*
X41971368Y49802953D01*
X42085354Y49879116D01*
X42096235Y49884932D01*
X42222901Y49937400D01*
X42234707Y49940981D01*
X42369170Y49967727D01*
X42381448Y49968936D01*
X42518552Y49968936D01*
X42530830Y49967727D01*
G37*
G36*
X34910830Y49967727D02*
G01*
X35045293Y49940981D01*
X35057099Y49937400D01*
X35183765Y49884932D01*
X35194646Y49879116D01*
X35308632Y49802953D01*
X35313404Y49799037D01*
X35313408Y49799034D01*
X35313411Y49799031D01*
X35318174Y49795122D01*
X35415122Y49698174D01*
X35419031Y49693411D01*
X35419034Y49693408D01*
X35419037Y49693404D01*
X35422953Y49688632D01*
X35502114Y49570159D01*
X35517659Y49551217D01*
X35536601Y49535671D01*
X35558212Y49524120D01*
X35581661Y49517007D01*
X35606047Y49514605D01*
X35797396Y49514605D01*
X35821782Y49517007D01*
X35845231Y49524120D01*
X35866842Y49535671D01*
X35885784Y49551216D01*
X35901329Y49570158D01*
X35912880Y49591769D01*
X35919993Y49615218D01*
X35922395Y49639604D01*
X35922395Y49841939D01*
X35922698Y49848102D01*
X35922757Y49848708D01*
X35924920Y49859581D01*
X35928693Y49868688D01*
X35934160Y49876870D01*
X35941130Y49883840D01*
X35949312Y49889307D01*
X35953864Y49891193D01*
X35953866Y49891194D01*
X35953869Y49891195D01*
X35958419Y49893080D01*
X35969292Y49895243D01*
X35969898Y49895302D01*
X35976061Y49895605D01*
X37747939Y49895605D01*
X37754102Y49895302D01*
X37754708Y49895243D01*
X37765581Y49893080D01*
X37770131Y49891195D01*
X37770134Y49891194D01*
X37770136Y49891193D01*
X37774688Y49889307D01*
X37782870Y49883840D01*
X37789840Y49876870D01*
X37795307Y49868688D01*
X37799080Y49859581D01*
X37801243Y49848708D01*
X37801302Y49848102D01*
X37801605Y49841939D01*
X37801605Y49639604D01*
X37804007Y49615218D01*
X37811120Y49591769D01*
X37822671Y49570158D01*
X37838216Y49551216D01*
X37857158Y49535671D01*
X37878769Y49524120D01*
X37902218Y49517007D01*
X37926604Y49514605D01*
X38382939Y49514605D01*
X38389102Y49514302D01*
X38389708Y49514243D01*
X38400581Y49512080D01*
X38405131Y49510195D01*
X38405134Y49510194D01*
X38405136Y49510193D01*
X38409688Y49508307D01*
X38417870Y49502840D01*
X38424840Y49495870D01*
X38430307Y49487688D01*
X38434080Y49478581D01*
X38436243Y49467708D01*
X38436302Y49467102D01*
X38436605Y49460939D01*
X38436605Y48959061D01*
X38436302Y48952898D01*
X38436243Y48952292D01*
X38434080Y48941419D01*
X38430307Y48932312D01*
X38424840Y48924130D01*
X38417870Y48917160D01*
X38409688Y48911693D01*
X38405136Y48909807D01*
X38405134Y48909806D01*
X38405131Y48909805D01*
X38400581Y48907920D01*
X38389708Y48905757D01*
X38389102Y48905698D01*
X38382939Y48905395D01*
X37926604Y48905395D01*
X37902218Y48902993D01*
X37878769Y48895880D01*
X37857158Y48884329D01*
X37838216Y48868784D01*
X37822671Y48849842D01*
X37811120Y48828231D01*
X37804007Y48804782D01*
X37801605Y48780396D01*
X37801605Y48578061D01*
X37801302Y48571898D01*
X37801243Y48571292D01*
X37799080Y48560419D01*
X37795307Y48551312D01*
X37789840Y48543130D01*
X37782870Y48536160D01*
X37774688Y48530693D01*
X37770136Y48528807D01*
X37770134Y48528806D01*
X37770131Y48528805D01*
X37765581Y48526920D01*
X37754708Y48524757D01*
X37754102Y48524698D01*
X37747939Y48524395D01*
X35976061Y48524395D01*
X35969898Y48524698D01*
X35969292Y48524757D01*
X35958419Y48526920D01*
X35953869Y48528805D01*
X35953866Y48528806D01*
X35953864Y48528807D01*
X35949312Y48530693D01*
X35941130Y48536160D01*
X35934160Y48543130D01*
X35928693Y48551312D01*
X35924920Y48560419D01*
X35922757Y48571292D01*
X35922698Y48571898D01*
X35922395Y48578061D01*
X35922395Y48780396D01*
X35919993Y48804782D01*
X35912880Y48828231D01*
X35901329Y48849842D01*
X35885784Y48868784D01*
X35866842Y48884329D01*
X35845231Y48895880D01*
X35821782Y48902993D01*
X35797396Y48905395D01*
X35606047Y48905395D01*
X35581661Y48902993D01*
X35558212Y48895880D01*
X35536601Y48884329D01*
X35517659Y48868784D01*
X35502114Y48849841D01*
X35422953Y48731368D01*
X35419037Y48726596D01*
X35419034Y48726592D01*
X35419031Y48726589D01*
X35415122Y48721826D01*
X35318174Y48624878D01*
X35313411Y48620969D01*
X35313408Y48620966D01*
X35313404Y48620963D01*
X35308632Y48617047D01*
X35194646Y48540884D01*
X35183765Y48535068D01*
X35057099Y48482600D01*
X35045293Y48479019D01*
X34910830Y48452273D01*
X34898552Y48451064D01*
X34761448Y48451064D01*
X34749170Y48452273D01*
X34614707Y48479019D01*
X34602901Y48482600D01*
X34476235Y48535068D01*
X34465354Y48540884D01*
X34351368Y48617047D01*
X34346596Y48620963D01*
X34346592Y48620966D01*
X34346589Y48620969D01*
X34341826Y48624878D01*
X34244878Y48721826D01*
X34240969Y48726589D01*
X34240966Y48726592D01*
X34240963Y48726596D01*
X34237047Y48731368D01*
X34160884Y48845354D01*
X34155068Y48856235D01*
X34102600Y48982901D01*
X34099019Y48994707D01*
X34072273Y49129170D01*
X34071064Y49141448D01*
X34071064Y49278552D01*
X34072273Y49290830D01*
X34099019Y49425293D01*
X34102600Y49437099D01*
X34155068Y49563765D01*
X34160884Y49574646D01*
X34237047Y49688632D01*
X34240963Y49693404D01*
X34240966Y49693408D01*
X34240969Y49693411D01*
X34244878Y49698174D01*
X34341826Y49795122D01*
X34346589Y49799031D01*
X34346592Y49799034D01*
X34346596Y49799037D01*
X34351368Y49802953D01*
X34465354Y49879116D01*
X34476235Y49884932D01*
X34602901Y49937400D01*
X34614707Y49940981D01*
X34749170Y49967727D01*
X34761448Y49968936D01*
X34898552Y49968936D01*
X34910830Y49967727D01*
G37*
G36*
X64690830Y50037727D02*
G01*
X64825293Y50010981D01*
X64837099Y50007400D01*
X64963765Y49954932D01*
X64974646Y49949116D01*
X65088632Y49872953D01*
X65093404Y49869037D01*
X65093408Y49869034D01*
X65093411Y49869031D01*
X65098174Y49865122D01*
X65195122Y49768174D01*
X65199031Y49763411D01*
X65199034Y49763408D01*
X65199037Y49763404D01*
X65202953Y49758632D01*
X65279116Y49644646D01*
X65284932Y49633765D01*
X65337400Y49507099D01*
X65340981Y49495293D01*
X65367727Y49360830D01*
X65368936Y49348552D01*
X65368936Y49211448D01*
X65367727Y49199170D01*
X65340981Y49064707D01*
X65337400Y49052901D01*
X65284932Y48926235D01*
X65279116Y48915354D01*
X65202953Y48801368D01*
X65199037Y48796596D01*
X65199034Y48796592D01*
X65199031Y48796589D01*
X65195122Y48791826D01*
X65098174Y48694878D01*
X65093411Y48690969D01*
X65093408Y48690966D01*
X65093404Y48690963D01*
X65088632Y48687047D01*
X64974646Y48610884D01*
X64963765Y48605068D01*
X64837099Y48552600D01*
X64825293Y48549019D01*
X64690830Y48522273D01*
X64678552Y48521064D01*
X64541448Y48521064D01*
X64529170Y48522273D01*
X64394707Y48549019D01*
X64382901Y48552600D01*
X64256235Y48605068D01*
X64245354Y48610884D01*
X64131368Y48687047D01*
X64126596Y48690963D01*
X64126592Y48690966D01*
X64126589Y48690969D01*
X64121826Y48694878D01*
X64024878Y48791826D01*
X64020969Y48796589D01*
X64020966Y48796592D01*
X64020963Y48796596D01*
X64017047Y48801368D01*
X63937886Y48919841D01*
X63922341Y48938783D01*
X63903399Y48954329D01*
X63881788Y48965880D01*
X63858339Y48972993D01*
X63833953Y48975395D01*
X63642604Y48975395D01*
X63618218Y48972993D01*
X63594769Y48965880D01*
X63573158Y48954329D01*
X63554216Y48938784D01*
X63538671Y48919842D01*
X63527120Y48898231D01*
X63520007Y48874782D01*
X63517605Y48850396D01*
X63517605Y48648061D01*
X63517302Y48641898D01*
X63517243Y48641292D01*
X63515080Y48630419D01*
X63511307Y48621312D01*
X63505840Y48613130D01*
X63498870Y48606160D01*
X63490688Y48600693D01*
X63486136Y48598807D01*
X63486134Y48598806D01*
X63486131Y48598805D01*
X63481581Y48596920D01*
X63470708Y48594757D01*
X63470102Y48594698D01*
X63463939Y48594395D01*
X61692061Y48594395D01*
X61685898Y48594698D01*
X61685292Y48594757D01*
X61674419Y48596920D01*
X61669869Y48598805D01*
X61669866Y48598806D01*
X61669864Y48598807D01*
X61665312Y48600693D01*
X61657130Y48606160D01*
X61650160Y48613130D01*
X61644693Y48621312D01*
X61640920Y48630419D01*
X61638757Y48641292D01*
X61638698Y48641898D01*
X61638395Y48648061D01*
X61638395Y48850396D01*
X61635993Y48874782D01*
X61628880Y48898231D01*
X61617329Y48919842D01*
X61601784Y48938784D01*
X61582842Y48954329D01*
X61561231Y48965880D01*
X61537782Y48972993D01*
X61513396Y48975395D01*
X61057061Y48975395D01*
X61050898Y48975698D01*
X61050292Y48975757D01*
X61039419Y48977920D01*
X61034869Y48979805D01*
X61034866Y48979806D01*
X61034864Y48979807D01*
X61030312Y48981693D01*
X61022130Y48987160D01*
X61015160Y48994130D01*
X61009693Y49002312D01*
X61005920Y49011419D01*
X61003757Y49022292D01*
X61003698Y49022898D01*
X61003395Y49029061D01*
X61003395Y49530939D01*
X61003698Y49537102D01*
X61003757Y49537708D01*
X61005920Y49548581D01*
X61009693Y49557688D01*
X61015160Y49565870D01*
X61022130Y49572840D01*
X61030312Y49578307D01*
X61034864Y49580193D01*
X61034866Y49580194D01*
X61034869Y49580195D01*
X61039419Y49582080D01*
X61050292Y49584243D01*
X61050898Y49584302D01*
X61057061Y49584605D01*
X61513396Y49584605D01*
X61537782Y49587007D01*
X61561231Y49594120D01*
X61582842Y49605671D01*
X61601784Y49621216D01*
X61617329Y49640158D01*
X61628880Y49661769D01*
X61635993Y49685218D01*
X61638395Y49709604D01*
X61638395Y49911939D01*
X61638698Y49918102D01*
X61638757Y49918708D01*
X61640920Y49929581D01*
X61644693Y49938688D01*
X61650160Y49946870D01*
X61657130Y49953840D01*
X61665312Y49959307D01*
X61669864Y49961193D01*
X61669866Y49961194D01*
X61669869Y49961195D01*
X61674419Y49963080D01*
X61685292Y49965243D01*
X61685898Y49965302D01*
X61692061Y49965605D01*
X63463939Y49965605D01*
X63470102Y49965302D01*
X63470708Y49965243D01*
X63481581Y49963080D01*
X63486131Y49961195D01*
X63486134Y49961194D01*
X63486136Y49961193D01*
X63490688Y49959307D01*
X63498870Y49953840D01*
X63505840Y49946870D01*
X63511307Y49938688D01*
X63515080Y49929581D01*
X63517243Y49918708D01*
X63517302Y49918102D01*
X63517605Y49911939D01*
X63517605Y49709604D01*
X63520007Y49685218D01*
X63527120Y49661769D01*
X63538671Y49640158D01*
X63554216Y49621216D01*
X63573158Y49605671D01*
X63594769Y49594120D01*
X63618218Y49587007D01*
X63642604Y49584605D01*
X63833953Y49584605D01*
X63858339Y49587007D01*
X63881788Y49594120D01*
X63903399Y49605671D01*
X63922341Y49621216D01*
X63937886Y49640159D01*
X64017047Y49758632D01*
X64020963Y49763404D01*
X64020966Y49763408D01*
X64020969Y49763411D01*
X64024878Y49768174D01*
X64121826Y49865122D01*
X64126589Y49869031D01*
X64126592Y49869034D01*
X64126596Y49869037D01*
X64131368Y49872953D01*
X64245354Y49949116D01*
X64256235Y49954932D01*
X64382901Y50007400D01*
X64394707Y50010981D01*
X64529170Y50037727D01*
X64541448Y50038936D01*
X64678552Y50038936D01*
X64690830Y50037727D01*
G37*
G36*
X57070830Y50037727D02*
G01*
X57205293Y50010981D01*
X57217099Y50007400D01*
X57343765Y49954932D01*
X57354646Y49949116D01*
X57468632Y49872953D01*
X57473404Y49869037D01*
X57473408Y49869034D01*
X57473411Y49869031D01*
X57478174Y49865122D01*
X57575122Y49768174D01*
X57579031Y49763411D01*
X57579034Y49763408D01*
X57579037Y49763404D01*
X57582953Y49758632D01*
X57662114Y49640159D01*
X57677659Y49621217D01*
X57696601Y49605671D01*
X57718212Y49594120D01*
X57741661Y49587007D01*
X57766047Y49584605D01*
X57957396Y49584605D01*
X57981782Y49587007D01*
X58005231Y49594120D01*
X58026842Y49605671D01*
X58045784Y49621216D01*
X58061329Y49640158D01*
X58072880Y49661769D01*
X58079993Y49685218D01*
X58082395Y49709604D01*
X58082395Y49911939D01*
X58082698Y49918102D01*
X58082757Y49918708D01*
X58084920Y49929581D01*
X58088693Y49938688D01*
X58094160Y49946870D01*
X58101130Y49953840D01*
X58109312Y49959307D01*
X58113864Y49961193D01*
X58113866Y49961194D01*
X58113869Y49961195D01*
X58118419Y49963080D01*
X58129292Y49965243D01*
X58129898Y49965302D01*
X58136061Y49965605D01*
X59907939Y49965605D01*
X59914102Y49965302D01*
X59914708Y49965243D01*
X59925581Y49963080D01*
X59930131Y49961195D01*
X59930134Y49961194D01*
X59930136Y49961193D01*
X59934688Y49959307D01*
X59942870Y49953840D01*
X59949840Y49946870D01*
X59955307Y49938688D01*
X59959080Y49929581D01*
X59961243Y49918708D01*
X59961302Y49918102D01*
X59961605Y49911939D01*
X59961605Y49709604D01*
X59964007Y49685218D01*
X59971120Y49661769D01*
X59982671Y49640158D01*
X59998216Y49621216D01*
X60017158Y49605671D01*
X60038769Y49594120D01*
X60062218Y49587007D01*
X60086604Y49584605D01*
X60542939Y49584605D01*
X60549102Y49584302D01*
X60549708Y49584243D01*
X60560581Y49582080D01*
X60565131Y49580195D01*
X60565134Y49580194D01*
X60565136Y49580193D01*
X60569688Y49578307D01*
X60577870Y49572840D01*
X60584840Y49565870D01*
X60590307Y49557688D01*
X60594080Y49548581D01*
X60596243Y49537708D01*
X60596302Y49537102D01*
X60596605Y49530939D01*
X60596605Y49029061D01*
X60596302Y49022898D01*
X60596243Y49022292D01*
X60594080Y49011419D01*
X60590307Y49002312D01*
X60584840Y48994130D01*
X60577870Y48987160D01*
X60569688Y48981693D01*
X60565136Y48979807D01*
X60565134Y48979806D01*
X60565131Y48979805D01*
X60560581Y48977920D01*
X60549708Y48975757D01*
X60549102Y48975698D01*
X60542939Y48975395D01*
X60086604Y48975395D01*
X60062218Y48972993D01*
X60038769Y48965880D01*
X60017158Y48954329D01*
X59998216Y48938784D01*
X59982671Y48919842D01*
X59971120Y48898231D01*
X59964007Y48874782D01*
X59961605Y48850396D01*
X59961605Y48648061D01*
X59961302Y48641898D01*
X59961243Y48641292D01*
X59959080Y48630419D01*
X59955307Y48621312D01*
X59949840Y48613130D01*
X59942870Y48606160D01*
X59934688Y48600693D01*
X59930136Y48598807D01*
X59930134Y48598806D01*
X59930131Y48598805D01*
X59925581Y48596920D01*
X59914708Y48594757D01*
X59914102Y48594698D01*
X59907939Y48594395D01*
X58136061Y48594395D01*
X58129898Y48594698D01*
X58129292Y48594757D01*
X58118419Y48596920D01*
X58113869Y48598805D01*
X58113866Y48598806D01*
X58113864Y48598807D01*
X58109312Y48600693D01*
X58101130Y48606160D01*
X58094160Y48613130D01*
X58088693Y48621312D01*
X58084920Y48630419D01*
X58082757Y48641292D01*
X58082698Y48641898D01*
X58082395Y48648061D01*
X58082395Y48850396D01*
X58079993Y48874782D01*
X58072880Y48898231D01*
X58061329Y48919842D01*
X58045784Y48938784D01*
X58026842Y48954329D01*
X58005231Y48965880D01*
X57981782Y48972993D01*
X57957396Y48975395D01*
X57766047Y48975395D01*
X57741661Y48972993D01*
X57718212Y48965880D01*
X57696601Y48954329D01*
X57677659Y48938784D01*
X57662114Y48919841D01*
X57582953Y48801368D01*
X57579037Y48796596D01*
X57579034Y48796592D01*
X57579031Y48796589D01*
X57575122Y48791826D01*
X57478174Y48694878D01*
X57473411Y48690969D01*
X57473408Y48690966D01*
X57473404Y48690963D01*
X57468632Y48687047D01*
X57354646Y48610884D01*
X57343765Y48605068D01*
X57217099Y48552600D01*
X57205293Y48549019D01*
X57070830Y48522273D01*
X57058552Y48521064D01*
X56921448Y48521064D01*
X56909170Y48522273D01*
X56774707Y48549019D01*
X56762901Y48552600D01*
X56636235Y48605068D01*
X56625354Y48610884D01*
X56511368Y48687047D01*
X56506596Y48690963D01*
X56506592Y48690966D01*
X56506589Y48690969D01*
X56501826Y48694878D01*
X56404878Y48791826D01*
X56400969Y48796589D01*
X56400966Y48796592D01*
X56400963Y48796596D01*
X56397047Y48801368D01*
X56320884Y48915354D01*
X56315068Y48926235D01*
X56262600Y49052901D01*
X56259019Y49064707D01*
X56232273Y49199170D01*
X56231064Y49211448D01*
X56231064Y49348552D01*
X56232273Y49360830D01*
X56259019Y49495293D01*
X56262600Y49507099D01*
X56315068Y49633765D01*
X56320884Y49644646D01*
X56397047Y49758632D01*
X56400963Y49763404D01*
X56400966Y49763408D01*
X56400969Y49763411D01*
X56404878Y49768174D01*
X56501826Y49865122D01*
X56506589Y49869031D01*
X56506592Y49869034D01*
X56506596Y49869037D01*
X56511368Y49872953D01*
X56625354Y49949116D01*
X56636235Y49954932D01*
X56762901Y50007400D01*
X56774707Y50010981D01*
X56909170Y50037727D01*
X56921448Y50038936D01*
X57058552Y50038936D01*
X57070830Y50037727D01*
G37*
G36*
X12750830Y50467727D02*
G01*
X12885293Y50440981D01*
X12897099Y50437400D01*
X13023765Y50384932D01*
X13034646Y50379116D01*
X13148632Y50302953D01*
X13153404Y50299037D01*
X13153408Y50299034D01*
X13153411Y50299031D01*
X13158174Y50295122D01*
X13255122Y50198174D01*
X13259031Y50193411D01*
X13259034Y50193408D01*
X13259037Y50193404D01*
X13262953Y50188632D01*
X13342114Y50070159D01*
X13357659Y50051217D01*
X13376601Y50035671D01*
X13398212Y50024120D01*
X13421661Y50017007D01*
X13446047Y50014605D01*
X13637396Y50014605D01*
X13661782Y50017007D01*
X13685231Y50024120D01*
X13706842Y50035671D01*
X13725784Y50051216D01*
X13741329Y50070158D01*
X13752880Y50091769D01*
X13759993Y50115218D01*
X13762395Y50139604D01*
X13762395Y50341939D01*
X13762698Y50348102D01*
X13762757Y50348708D01*
X13764920Y50359581D01*
X13768693Y50368688D01*
X13774160Y50376870D01*
X13781130Y50383840D01*
X13789312Y50389307D01*
X13793864Y50391193D01*
X13793866Y50391194D01*
X13793869Y50391195D01*
X13798419Y50393080D01*
X13809292Y50395243D01*
X13809898Y50395302D01*
X13816061Y50395605D01*
X15587939Y50395605D01*
X15594102Y50395302D01*
X15594708Y50395243D01*
X15605581Y50393080D01*
X15610131Y50391195D01*
X15610134Y50391194D01*
X15610136Y50391193D01*
X15614688Y50389307D01*
X15622870Y50383840D01*
X15629840Y50376870D01*
X15635307Y50368688D01*
X15639080Y50359581D01*
X15641243Y50348708D01*
X15641302Y50348102D01*
X15641605Y50341939D01*
X15641605Y50139604D01*
X15644007Y50115218D01*
X15651120Y50091769D01*
X15662671Y50070158D01*
X15678216Y50051216D01*
X15697158Y50035671D01*
X15718769Y50024120D01*
X15742218Y50017007D01*
X15766604Y50014605D01*
X16222939Y50014605D01*
X16229102Y50014302D01*
X16229708Y50014243D01*
X16240581Y50012080D01*
X16245131Y50010195D01*
X16245134Y50010194D01*
X16245136Y50010193D01*
X16249688Y50008307D01*
X16257870Y50002840D01*
X16264840Y49995870D01*
X16270307Y49987688D01*
X16274080Y49978581D01*
X16276243Y49967708D01*
X16276302Y49967102D01*
X16276605Y49960939D01*
X16276605Y49459061D01*
X16276302Y49452898D01*
X16276243Y49452292D01*
X16274080Y49441419D01*
X16270307Y49432312D01*
X16264840Y49424130D01*
X16257870Y49417160D01*
X16249688Y49411693D01*
X16245136Y49409807D01*
X16245134Y49409806D01*
X16245131Y49409805D01*
X16240581Y49407920D01*
X16229708Y49405757D01*
X16229102Y49405698D01*
X16222939Y49405395D01*
X15766604Y49405395D01*
X15742218Y49402993D01*
X15718769Y49395880D01*
X15697158Y49384329D01*
X15678216Y49368784D01*
X15662671Y49349842D01*
X15651120Y49328231D01*
X15644007Y49304782D01*
X15641605Y49280396D01*
X15641605Y49078061D01*
X15641302Y49071898D01*
X15641243Y49071292D01*
X15639080Y49060419D01*
X15635307Y49051312D01*
X15629840Y49043130D01*
X15622870Y49036160D01*
X15614688Y49030693D01*
X15610136Y49028807D01*
X15610134Y49028806D01*
X15610131Y49028805D01*
X15605581Y49026920D01*
X15594708Y49024757D01*
X15594102Y49024698D01*
X15587939Y49024395D01*
X13816061Y49024395D01*
X13809898Y49024698D01*
X13809292Y49024757D01*
X13798419Y49026920D01*
X13793869Y49028805D01*
X13793866Y49028806D01*
X13793864Y49028807D01*
X13789312Y49030693D01*
X13781130Y49036160D01*
X13774160Y49043130D01*
X13768693Y49051312D01*
X13764920Y49060419D01*
X13762757Y49071292D01*
X13762698Y49071898D01*
X13762395Y49078061D01*
X13762395Y49280396D01*
X13759993Y49304782D01*
X13752880Y49328231D01*
X13741329Y49349842D01*
X13725784Y49368784D01*
X13706842Y49384329D01*
X13685231Y49395880D01*
X13661782Y49402993D01*
X13637396Y49405395D01*
X13446047Y49405395D01*
X13421661Y49402993D01*
X13398212Y49395880D01*
X13376601Y49384329D01*
X13357659Y49368784D01*
X13342114Y49349841D01*
X13262953Y49231368D01*
X13259037Y49226596D01*
X13259034Y49226592D01*
X13259031Y49226589D01*
X13255122Y49221826D01*
X13158174Y49124878D01*
X13153411Y49120969D01*
X13153408Y49120966D01*
X13153404Y49120963D01*
X13148632Y49117047D01*
X13034646Y49040884D01*
X13023765Y49035068D01*
X12897099Y48982600D01*
X12885293Y48979019D01*
X12750830Y48952273D01*
X12738552Y48951064D01*
X12601448Y48951064D01*
X12589170Y48952273D01*
X12454707Y48979019D01*
X12442901Y48982600D01*
X12316235Y49035068D01*
X12305354Y49040884D01*
X12191368Y49117047D01*
X12186596Y49120963D01*
X12186592Y49120966D01*
X12186589Y49120969D01*
X12181826Y49124878D01*
X12084878Y49221826D01*
X12080969Y49226589D01*
X12080966Y49226592D01*
X12080963Y49226596D01*
X12077047Y49231368D01*
X12000884Y49345354D01*
X11995068Y49356235D01*
X11942600Y49482901D01*
X11939019Y49494707D01*
X11912273Y49629170D01*
X11911064Y49641448D01*
X11911064Y49778552D01*
X11912273Y49790830D01*
X11939019Y49925293D01*
X11942600Y49937099D01*
X11995068Y50063765D01*
X12000884Y50074646D01*
X12077047Y50188632D01*
X12080963Y50193404D01*
X12080966Y50193408D01*
X12080969Y50193411D01*
X12084878Y50198174D01*
X12181826Y50295122D01*
X12186589Y50299031D01*
X12186592Y50299034D01*
X12186596Y50299037D01*
X12191368Y50302953D01*
X12305354Y50379116D01*
X12316235Y50384932D01*
X12442901Y50437400D01*
X12454707Y50440981D01*
X12589170Y50467727D01*
X12601448Y50468936D01*
X12738552Y50468936D01*
X12750830Y50467727D01*
G37*
G36*
X20370830Y50467727D02*
G01*
X20505293Y50440981D01*
X20517099Y50437400D01*
X20643765Y50384932D01*
X20654646Y50379116D01*
X20768632Y50302953D01*
X20773404Y50299037D01*
X20773408Y50299034D01*
X20773411Y50299031D01*
X20778174Y50295122D01*
X20875122Y50198174D01*
X20879031Y50193411D01*
X20879034Y50193408D01*
X20879037Y50193404D01*
X20882953Y50188632D01*
X20959116Y50074646D01*
X20964932Y50063765D01*
X21017400Y49937099D01*
X21020981Y49925293D01*
X21047727Y49790830D01*
X21048936Y49778552D01*
X21048936Y49641448D01*
X21047727Y49629170D01*
X21020981Y49494707D01*
X21017400Y49482901D01*
X20964932Y49356235D01*
X20959116Y49345354D01*
X20882953Y49231368D01*
X20879037Y49226596D01*
X20879034Y49226592D01*
X20879031Y49226589D01*
X20875122Y49221826D01*
X20778174Y49124878D01*
X20773411Y49120969D01*
X20773408Y49120966D01*
X20773404Y49120963D01*
X20768632Y49117047D01*
X20654646Y49040884D01*
X20643765Y49035068D01*
X20517099Y48982600D01*
X20505293Y48979019D01*
X20370830Y48952273D01*
X20358552Y48951064D01*
X20221448Y48951064D01*
X20209170Y48952273D01*
X20074707Y48979019D01*
X20062901Y48982600D01*
X19936235Y49035068D01*
X19925354Y49040884D01*
X19811368Y49117047D01*
X19806596Y49120963D01*
X19806592Y49120966D01*
X19806589Y49120969D01*
X19801826Y49124878D01*
X19704878Y49221826D01*
X19700969Y49226589D01*
X19700966Y49226592D01*
X19700963Y49226596D01*
X19697047Y49231368D01*
X19617886Y49349841D01*
X19602341Y49368783D01*
X19583399Y49384329D01*
X19561788Y49395880D01*
X19538339Y49402993D01*
X19513953Y49405395D01*
X19322604Y49405395D01*
X19298218Y49402993D01*
X19274769Y49395880D01*
X19253158Y49384329D01*
X19234216Y49368784D01*
X19218671Y49349842D01*
X19207120Y49328231D01*
X19200007Y49304782D01*
X19197605Y49280396D01*
X19197605Y49078061D01*
X19197302Y49071898D01*
X19197243Y49071292D01*
X19195080Y49060419D01*
X19191307Y49051312D01*
X19185840Y49043130D01*
X19178870Y49036160D01*
X19170688Y49030693D01*
X19166136Y49028807D01*
X19166134Y49028806D01*
X19166131Y49028805D01*
X19161581Y49026920D01*
X19150708Y49024757D01*
X19150102Y49024698D01*
X19143939Y49024395D01*
X17372061Y49024395D01*
X17365898Y49024698D01*
X17365292Y49024757D01*
X17354419Y49026920D01*
X17349869Y49028805D01*
X17349866Y49028806D01*
X17349864Y49028807D01*
X17345312Y49030693D01*
X17337130Y49036160D01*
X17330160Y49043130D01*
X17324693Y49051312D01*
X17320920Y49060419D01*
X17318757Y49071292D01*
X17318698Y49071898D01*
X17318395Y49078061D01*
X17318395Y49280396D01*
X17315993Y49304782D01*
X17308880Y49328231D01*
X17297329Y49349842D01*
X17281784Y49368784D01*
X17262842Y49384329D01*
X17241231Y49395880D01*
X17217782Y49402993D01*
X17193396Y49405395D01*
X16737061Y49405395D01*
X16730898Y49405698D01*
X16730292Y49405757D01*
X16719419Y49407920D01*
X16714869Y49409805D01*
X16714866Y49409806D01*
X16714864Y49409807D01*
X16710312Y49411693D01*
X16702130Y49417160D01*
X16695160Y49424130D01*
X16689693Y49432312D01*
X16685920Y49441419D01*
X16683757Y49452292D01*
X16683698Y49452898D01*
X16683395Y49459061D01*
X16683395Y49960939D01*
X16683698Y49967102D01*
X16683757Y49967708D01*
X16685920Y49978581D01*
X16689693Y49987688D01*
X16695160Y49995870D01*
X16702130Y50002840D01*
X16710312Y50008307D01*
X16714864Y50010193D01*
X16714866Y50010194D01*
X16714869Y50010195D01*
X16719419Y50012080D01*
X16730292Y50014243D01*
X16730898Y50014302D01*
X16737061Y50014605D01*
X17193396Y50014605D01*
X17217782Y50017007D01*
X17241231Y50024120D01*
X17262842Y50035671D01*
X17281784Y50051216D01*
X17297329Y50070158D01*
X17308880Y50091769D01*
X17315993Y50115218D01*
X17318395Y50139604D01*
X17318395Y50341939D01*
X17318698Y50348102D01*
X17318757Y50348708D01*
X17320920Y50359581D01*
X17324693Y50368688D01*
X17330160Y50376870D01*
X17337130Y50383840D01*
X17345312Y50389307D01*
X17349864Y50391193D01*
X17349866Y50391194D01*
X17349869Y50391195D01*
X17354419Y50393080D01*
X17365292Y50395243D01*
X17365898Y50395302D01*
X17372061Y50395605D01*
X19143939Y50395605D01*
X19150102Y50395302D01*
X19150708Y50395243D01*
X19161581Y50393080D01*
X19166131Y50391195D01*
X19166134Y50391194D01*
X19166136Y50391193D01*
X19170688Y50389307D01*
X19178870Y50383840D01*
X19185840Y50376870D01*
X19191307Y50368688D01*
X19195080Y50359581D01*
X19197243Y50348708D01*
X19197302Y50348102D01*
X19197605Y50341939D01*
X19197605Y50139604D01*
X19200007Y50115218D01*
X19207120Y50091769D01*
X19218671Y50070158D01*
X19234216Y50051216D01*
X19253158Y50035671D01*
X19274769Y50024120D01*
X19298218Y50017007D01*
X19322604Y50014605D01*
X19513953Y50014605D01*
X19538339Y50017007D01*
X19561788Y50024120D01*
X19583399Y50035671D01*
X19602341Y50051216D01*
X19617886Y50070159D01*
X19697047Y50188632D01*
X19700963Y50193404D01*
X19700966Y50193408D01*
X19700969Y50193411D01*
X19704878Y50198174D01*
X19801826Y50295122D01*
X19806589Y50299031D01*
X19806592Y50299034D01*
X19806596Y50299037D01*
X19811368Y50302953D01*
X19925354Y50379116D01*
X19936235Y50384932D01*
X20062901Y50437400D01*
X20074707Y50440981D01*
X20209170Y50467727D01*
X20221448Y50468936D01*
X20358552Y50468936D01*
X20370830Y50467727D01*
G37*
G36*
X79180830Y50947727D02*
G01*
X79315293Y50920981D01*
X79327099Y50917400D01*
X79453765Y50864932D01*
X79464646Y50859116D01*
X79578632Y50782953D01*
X79583404Y50779037D01*
X79583408Y50779034D01*
X79583411Y50779031D01*
X79588174Y50775122D01*
X79685122Y50678174D01*
X79689031Y50673411D01*
X79689034Y50673408D01*
X79689037Y50673404D01*
X79692953Y50668632D01*
X79772114Y50550159D01*
X79787659Y50531217D01*
X79806601Y50515671D01*
X79828212Y50504120D01*
X79851661Y50497007D01*
X79876047Y50494605D01*
X80067396Y50494605D01*
X80091782Y50497007D01*
X80115231Y50504120D01*
X80136842Y50515671D01*
X80155784Y50531216D01*
X80171329Y50550158D01*
X80182880Y50571769D01*
X80189993Y50595218D01*
X80192395Y50619604D01*
X80192395Y50821939D01*
X80192698Y50828102D01*
X80192757Y50828708D01*
X80194920Y50839581D01*
X80198693Y50848688D01*
X80204160Y50856870D01*
X80211130Y50863840D01*
X80219312Y50869307D01*
X80223864Y50871193D01*
X80223866Y50871194D01*
X80223869Y50871195D01*
X80228419Y50873080D01*
X80239292Y50875243D01*
X80239898Y50875302D01*
X80246061Y50875605D01*
X82017939Y50875605D01*
X82024102Y50875302D01*
X82024708Y50875243D01*
X82035581Y50873080D01*
X82040131Y50871195D01*
X82040134Y50871194D01*
X82040136Y50871193D01*
X82044688Y50869307D01*
X82052870Y50863840D01*
X82059840Y50856870D01*
X82065307Y50848688D01*
X82069080Y50839581D01*
X82071243Y50828708D01*
X82071302Y50828102D01*
X82071605Y50821939D01*
X82071605Y50619604D01*
X82074007Y50595218D01*
X82081120Y50571769D01*
X82092671Y50550158D01*
X82108216Y50531216D01*
X82127158Y50515671D01*
X82148769Y50504120D01*
X82172218Y50497007D01*
X82196604Y50494605D01*
X82652939Y50494605D01*
X82659102Y50494302D01*
X82659708Y50494243D01*
X82670581Y50492080D01*
X82675131Y50490195D01*
X82675134Y50490194D01*
X82675136Y50490193D01*
X82679688Y50488307D01*
X82687870Y50482840D01*
X82694840Y50475870D01*
X82700307Y50467688D01*
X82704080Y50458581D01*
X82706243Y50447708D01*
X82706302Y50447102D01*
X82706605Y50440939D01*
X82706605Y49939061D01*
X82706302Y49932898D01*
X82706243Y49932292D01*
X82704080Y49921419D01*
X82700307Y49912312D01*
X82694840Y49904130D01*
X82687870Y49897160D01*
X82679688Y49891693D01*
X82675136Y49889807D01*
X82675134Y49889806D01*
X82675131Y49889805D01*
X82670581Y49887920D01*
X82659708Y49885757D01*
X82659102Y49885698D01*
X82652939Y49885395D01*
X82196604Y49885395D01*
X82172218Y49882993D01*
X82148769Y49875880D01*
X82127158Y49864329D01*
X82108216Y49848784D01*
X82092671Y49829842D01*
X82081120Y49808231D01*
X82074007Y49784782D01*
X82071605Y49760396D01*
X82071605Y49558061D01*
X82071302Y49551898D01*
X82071243Y49551292D01*
X82069080Y49540419D01*
X82065307Y49531312D01*
X82059840Y49523130D01*
X82052870Y49516160D01*
X82044688Y49510693D01*
X82040136Y49508807D01*
X82040134Y49508806D01*
X82040131Y49508805D01*
X82035581Y49506920D01*
X82024708Y49504757D01*
X82024102Y49504698D01*
X82017939Y49504395D01*
X80246061Y49504395D01*
X80239898Y49504698D01*
X80239292Y49504757D01*
X80228419Y49506920D01*
X80223869Y49508805D01*
X80223866Y49508806D01*
X80223864Y49508807D01*
X80219312Y49510693D01*
X80211130Y49516160D01*
X80204160Y49523130D01*
X80198693Y49531312D01*
X80194920Y49540419D01*
X80192757Y49551292D01*
X80192698Y49551898D01*
X80192395Y49558061D01*
X80192395Y49760396D01*
X80189993Y49784782D01*
X80182880Y49808231D01*
X80171329Y49829842D01*
X80155784Y49848784D01*
X80136842Y49864329D01*
X80115231Y49875880D01*
X80091782Y49882993D01*
X80067396Y49885395D01*
X79876047Y49885395D01*
X79851661Y49882993D01*
X79828212Y49875880D01*
X79806601Y49864329D01*
X79787659Y49848784D01*
X79772114Y49829841D01*
X79692953Y49711368D01*
X79689037Y49706596D01*
X79689034Y49706592D01*
X79689031Y49706589D01*
X79685122Y49701826D01*
X79588174Y49604878D01*
X79583411Y49600969D01*
X79583408Y49600966D01*
X79583404Y49600963D01*
X79578632Y49597047D01*
X79464646Y49520884D01*
X79453765Y49515068D01*
X79327099Y49462600D01*
X79315293Y49459019D01*
X79180830Y49432273D01*
X79168552Y49431064D01*
X79031448Y49431064D01*
X79019170Y49432273D01*
X78884707Y49459019D01*
X78872901Y49462600D01*
X78746235Y49515068D01*
X78735354Y49520884D01*
X78621368Y49597047D01*
X78616596Y49600963D01*
X78616592Y49600966D01*
X78616589Y49600969D01*
X78611826Y49604878D01*
X78514878Y49701826D01*
X78510969Y49706589D01*
X78510966Y49706592D01*
X78510963Y49706596D01*
X78507047Y49711368D01*
X78430884Y49825354D01*
X78425068Y49836235D01*
X78372600Y49962901D01*
X78369019Y49974707D01*
X78342273Y50109170D01*
X78341064Y50121448D01*
X78341064Y50258552D01*
X78342273Y50270830D01*
X78369019Y50405293D01*
X78372600Y50417099D01*
X78425068Y50543765D01*
X78430884Y50554646D01*
X78507047Y50668632D01*
X78510963Y50673404D01*
X78510966Y50673408D01*
X78510969Y50673411D01*
X78514878Y50678174D01*
X78611826Y50775122D01*
X78616589Y50779031D01*
X78616592Y50779034D01*
X78616596Y50779037D01*
X78621368Y50782953D01*
X78735354Y50859116D01*
X78746235Y50864932D01*
X78872901Y50917400D01*
X78884707Y50920981D01*
X79019170Y50947727D01*
X79031448Y50948936D01*
X79168552Y50948936D01*
X79180830Y50947727D01*
G37*
G36*
X86800830Y50947727D02*
G01*
X86935293Y50920981D01*
X86947099Y50917400D01*
X87073765Y50864932D01*
X87084646Y50859116D01*
X87198632Y50782953D01*
X87203404Y50779037D01*
X87203408Y50779034D01*
X87203411Y50779031D01*
X87208174Y50775122D01*
X87305122Y50678174D01*
X87309031Y50673411D01*
X87309034Y50673408D01*
X87309037Y50673404D01*
X87312953Y50668632D01*
X87389116Y50554646D01*
X87394932Y50543765D01*
X87447400Y50417099D01*
X87450981Y50405293D01*
X87477727Y50270830D01*
X87478936Y50258552D01*
X87478936Y50121448D01*
X87477727Y50109170D01*
X87450981Y49974707D01*
X87447400Y49962901D01*
X87394932Y49836235D01*
X87389116Y49825354D01*
X87312953Y49711368D01*
X87309037Y49706596D01*
X87309034Y49706592D01*
X87309031Y49706589D01*
X87305122Y49701826D01*
X87208174Y49604878D01*
X87203411Y49600969D01*
X87203408Y49600966D01*
X87203404Y49600963D01*
X87198632Y49597047D01*
X87084646Y49520884D01*
X87073765Y49515068D01*
X86947099Y49462600D01*
X86935293Y49459019D01*
X86800830Y49432273D01*
X86788552Y49431064D01*
X86651448Y49431064D01*
X86639170Y49432273D01*
X86504707Y49459019D01*
X86492901Y49462600D01*
X86366235Y49515068D01*
X86355354Y49520884D01*
X86241368Y49597047D01*
X86236596Y49600963D01*
X86236592Y49600966D01*
X86236589Y49600969D01*
X86231826Y49604878D01*
X86134878Y49701826D01*
X86130969Y49706589D01*
X86130966Y49706592D01*
X86130963Y49706596D01*
X86127047Y49711368D01*
X86047886Y49829841D01*
X86032341Y49848783D01*
X86013399Y49864329D01*
X85991788Y49875880D01*
X85968339Y49882993D01*
X85943953Y49885395D01*
X85752604Y49885395D01*
X85728218Y49882993D01*
X85704769Y49875880D01*
X85683158Y49864329D01*
X85664216Y49848784D01*
X85648671Y49829842D01*
X85637120Y49808231D01*
X85630007Y49784782D01*
X85627605Y49760396D01*
X85627605Y49558061D01*
X85627302Y49551898D01*
X85627243Y49551292D01*
X85625080Y49540419D01*
X85621307Y49531312D01*
X85615840Y49523130D01*
X85608870Y49516160D01*
X85600688Y49510693D01*
X85596136Y49508807D01*
X85596134Y49508806D01*
X85596131Y49508805D01*
X85591581Y49506920D01*
X85580708Y49504757D01*
X85580102Y49504698D01*
X85573939Y49504395D01*
X83802061Y49504395D01*
X83795898Y49504698D01*
X83795292Y49504757D01*
X83784419Y49506920D01*
X83779869Y49508805D01*
X83779866Y49508806D01*
X83779864Y49508807D01*
X83775312Y49510693D01*
X83767130Y49516160D01*
X83760160Y49523130D01*
X83754693Y49531312D01*
X83750920Y49540419D01*
X83748757Y49551292D01*
X83748698Y49551898D01*
X83748395Y49558061D01*
X83748395Y49760396D01*
X83745993Y49784782D01*
X83738880Y49808231D01*
X83727329Y49829842D01*
X83711784Y49848784D01*
X83692842Y49864329D01*
X83671231Y49875880D01*
X83647782Y49882993D01*
X83623396Y49885395D01*
X83167061Y49885395D01*
X83160898Y49885698D01*
X83160292Y49885757D01*
X83149419Y49887920D01*
X83144869Y49889805D01*
X83144866Y49889806D01*
X83144864Y49889807D01*
X83140312Y49891693D01*
X83132130Y49897160D01*
X83125160Y49904130D01*
X83119693Y49912312D01*
X83115920Y49921419D01*
X83113757Y49932292D01*
X83113698Y49932898D01*
X83113395Y49939061D01*
X83113395Y50440939D01*
X83113698Y50447102D01*
X83113757Y50447708D01*
X83115920Y50458581D01*
X83119693Y50467688D01*
X83125160Y50475870D01*
X83132130Y50482840D01*
X83140312Y50488307D01*
X83144864Y50490193D01*
X83144866Y50490194D01*
X83144869Y50490195D01*
X83149419Y50492080D01*
X83160292Y50494243D01*
X83160898Y50494302D01*
X83167061Y50494605D01*
X83623396Y50494605D01*
X83647782Y50497007D01*
X83671231Y50504120D01*
X83692842Y50515671D01*
X83711784Y50531216D01*
X83727329Y50550158D01*
X83738880Y50571769D01*
X83745993Y50595218D01*
X83748395Y50619604D01*
X83748395Y50821939D01*
X83748698Y50828102D01*
X83748757Y50828708D01*
X83750920Y50839581D01*
X83754693Y50848688D01*
X83760160Y50856870D01*
X83767130Y50863840D01*
X83775312Y50869307D01*
X83779864Y50871193D01*
X83779866Y50871194D01*
X83779869Y50871195D01*
X83784419Y50873080D01*
X83795292Y50875243D01*
X83795898Y50875302D01*
X83802061Y50875605D01*
X85573939Y50875605D01*
X85580102Y50875302D01*
X85580708Y50875243D01*
X85591581Y50873080D01*
X85596131Y50871195D01*
X85596134Y50871194D01*
X85596136Y50871193D01*
X85600688Y50869307D01*
X85608870Y50863840D01*
X85615840Y50856870D01*
X85621307Y50848688D01*
X85625080Y50839581D01*
X85627243Y50828708D01*
X85627302Y50828102D01*
X85627605Y50821939D01*
X85627605Y50619604D01*
X85630007Y50595218D01*
X85637120Y50571769D01*
X85648671Y50550158D01*
X85664216Y50531216D01*
X85683158Y50515671D01*
X85704769Y50504120D01*
X85728218Y50497007D01*
X85752604Y50494605D01*
X85943953Y50494605D01*
X85968339Y50497007D01*
X85991788Y50504120D01*
X86013399Y50515671D01*
X86032341Y50531216D01*
X86047886Y50550159D01*
X86127047Y50668632D01*
X86130963Y50673404D01*
X86130966Y50673408D01*
X86130969Y50673411D01*
X86134878Y50678174D01*
X86231826Y50775122D01*
X86236589Y50779031D01*
X86236592Y50779034D01*
X86236596Y50779037D01*
X86241368Y50782953D01*
X86355354Y50859116D01*
X86366235Y50864932D01*
X86492901Y50917400D01*
X86504707Y50920981D01*
X86639170Y50947727D01*
X86651448Y50948936D01*
X86788552Y50948936D01*
X86800830Y50947727D01*
G37*
G36*
X46408766Y52521179D02*
G01*
X46545257Y52464642D01*
X46668097Y52382563D01*
X46772563Y52278097D01*
X46854642Y52155257D01*
X46911179Y52018766D01*
X46940000Y51873870D01*
X46940000Y51726130D01*
X46911179Y51581234D01*
X46854642Y51444743D01*
X46772563Y51321903D01*
X46668097Y51217437D01*
X46545257Y51135358D01*
X46408766Y51078821D01*
X46263870Y51050000D01*
X46116130Y51050000D01*
X45971234Y51078821D01*
X45834743Y51135358D01*
X45711903Y51217437D01*
X45607437Y51321903D01*
X45525358Y51444743D01*
X45468821Y51581234D01*
X45440000Y51726130D01*
X45440000Y51873870D01*
X45468821Y52018766D01*
X45525358Y52155257D01*
X45607437Y52278097D01*
X45711903Y52382563D01*
X45834743Y52464642D01*
X45971234Y52521179D01*
X46116130Y52550000D01*
X46263870Y52550000D01*
X46408766Y52521179D01*
G37*
G36*
X51488766Y52521179D02*
G01*
X51625257Y52464642D01*
X51748097Y52382563D01*
X51852563Y52278097D01*
X51934642Y52155257D01*
X51991179Y52018766D01*
X52020000Y51873870D01*
X52020000Y51726130D01*
X51991179Y51581234D01*
X51934642Y51444743D01*
X51852563Y51321903D01*
X51748097Y51217437D01*
X51625257Y51135358D01*
X51488766Y51078821D01*
X51343870Y51050000D01*
X51196130Y51050000D01*
X51051234Y51078821D01*
X50914743Y51135358D01*
X50791903Y51217437D01*
X50687437Y51321903D01*
X50605358Y51444743D01*
X50548821Y51581234D01*
X50520000Y51726130D01*
X50520000Y51873870D01*
X50548821Y52018766D01*
X50605358Y52155257D01*
X50687437Y52278097D01*
X50791903Y52382563D01*
X50914743Y52464642D01*
X51051234Y52521179D01*
X51196130Y52550000D01*
X51343870Y52550000D01*
X51488766Y52521179D01*
G37*
G36*
X48948766Y52521179D02*
G01*
X49085257Y52464642D01*
X49208097Y52382563D01*
X49312563Y52278097D01*
X49394642Y52155257D01*
X49451179Y52018766D01*
X49480000Y51873870D01*
X49480000Y51726130D01*
X49451179Y51581234D01*
X49394642Y51444743D01*
X49312563Y51321903D01*
X49208097Y51217437D01*
X49085257Y51135358D01*
X48948766Y51078821D01*
X48803870Y51050000D01*
X48656130Y51050000D01*
X48511234Y51078821D01*
X48374743Y51135358D01*
X48251903Y51217437D01*
X48147437Y51321903D01*
X48065358Y51444743D01*
X48008821Y51581234D01*
X47980000Y51726130D01*
X47980000Y51873870D01*
X48008821Y52018766D01*
X48065358Y52155257D01*
X48147437Y52278097D01*
X48251903Y52382563D01*
X48374743Y52464642D01*
X48511234Y52521179D01*
X48656130Y52550000D01*
X48803870Y52550000D01*
X48948766Y52521179D01*
G37*
G36*
X54028766Y52521179D02*
G01*
X54165257Y52464642D01*
X54288097Y52382563D01*
X54392563Y52278097D01*
X54474642Y52155257D01*
X54531179Y52018766D01*
X54560000Y51873870D01*
X54560000Y51726130D01*
X54531179Y51581234D01*
X54474642Y51444743D01*
X54392563Y51321903D01*
X54288097Y51217437D01*
X54165257Y51135358D01*
X54028766Y51078821D01*
X53883870Y51050000D01*
X53736130Y51050000D01*
X53591234Y51078821D01*
X53454743Y51135358D01*
X53331903Y51217437D01*
X53227437Y51321903D01*
X53145358Y51444743D01*
X53088821Y51581234D01*
X53060000Y51726130D01*
X53060000Y51873870D01*
X53088821Y52018766D01*
X53145358Y52155257D01*
X53227437Y52278097D01*
X53331903Y52382563D01*
X53454743Y52464642D01*
X53591234Y52521179D01*
X53736130Y52550000D01*
X53883870Y52550000D01*
X54028766Y52521179D01*
G37*
G36*
X43868766Y52521179D02*
G01*
X44005257Y52464642D01*
X44128097Y52382563D01*
X44232563Y52278097D01*
X44314642Y52155257D01*
X44371179Y52018766D01*
X44400000Y51873870D01*
X44400000Y51726130D01*
X44371179Y51581234D01*
X44314642Y51444743D01*
X44232563Y51321903D01*
X44128097Y51217437D01*
X44005257Y51135358D01*
X43868766Y51078821D01*
X43723870Y51050000D01*
X43576130Y51050000D01*
X43431234Y51078821D01*
X43294743Y51135358D01*
X43171903Y51217437D01*
X43067437Y51321903D01*
X42985358Y51444743D01*
X42928821Y51581234D01*
X42900000Y51726130D01*
X42900000Y51873870D01*
X42928821Y52018766D01*
X42985358Y52155257D01*
X43067437Y52278097D01*
X43171903Y52382563D01*
X43294743Y52464642D01*
X43431234Y52521179D01*
X43576130Y52550000D01*
X43723870Y52550000D01*
X43868766Y52521179D01*
G37*
G36*
X41860000Y51050000D02*
G01*
X40360000Y51050000D01*
X40360000Y52550000D01*
X41860000Y52550000D01*
X41860000Y51050000D01*
G37*
G36*
X56568766Y52521179D02*
G01*
X56705257Y52464642D01*
X56828097Y52382563D01*
X56932563Y52278097D01*
X57014642Y52155257D01*
X57071179Y52018766D01*
X57100000Y51873870D01*
X57100000Y51726130D01*
X57071179Y51581234D01*
X57014642Y51444743D01*
X56932563Y51321903D01*
X56828097Y51217437D01*
X56705257Y51135358D01*
X56568766Y51078821D01*
X56423870Y51050000D01*
X56276130Y51050000D01*
X56131234Y51078821D01*
X55994743Y51135358D01*
X55871903Y51217437D01*
X55767437Y51321903D01*
X55685358Y51444743D01*
X55628821Y51581234D01*
X55600000Y51726130D01*
X55600000Y51873870D01*
X55628821Y52018766D01*
X55685358Y52155257D01*
X55767437Y52278097D01*
X55871903Y52382563D01*
X55994743Y52464642D01*
X56131234Y52521179D01*
X56276130Y52550000D01*
X56423870Y52550000D01*
X56568766Y52521179D01*
G37*
G36*
X59108766Y52521179D02*
G01*
X59245257Y52464642D01*
X59368097Y52382563D01*
X59472563Y52278097D01*
X59554642Y52155257D01*
X59611179Y52018766D01*
X59640000Y51873870D01*
X59640000Y51726130D01*
X59611179Y51581234D01*
X59554642Y51444743D01*
X59472563Y51321903D01*
X59368097Y51217437D01*
X59245257Y51135358D01*
X59108766Y51078821D01*
X58963870Y51050000D01*
X58816130Y51050000D01*
X58671234Y51078821D01*
X58534743Y51135358D01*
X58411903Y51217437D01*
X58307437Y51321903D01*
X58225358Y51444743D01*
X58168821Y51581234D01*
X58140000Y51726130D01*
X58140000Y51873870D01*
X58168821Y52018766D01*
X58225358Y52155257D01*
X58307437Y52278097D01*
X58411903Y52382563D01*
X58534743Y52464642D01*
X58671234Y52521179D01*
X58816130Y52550000D01*
X58963870Y52550000D01*
X59108766Y52521179D01*
G37*
G36*
X51528766Y61221179D02*
G01*
X51665257Y61164642D01*
X51788097Y61082563D01*
X51892563Y60978097D01*
X51974642Y60855257D01*
X52031179Y60718766D01*
X52060000Y60573870D01*
X52060000Y60426130D01*
X52031179Y60281234D01*
X51974642Y60144743D01*
X51892563Y60021903D01*
X51788097Y59917437D01*
X51665257Y59835358D01*
X51528766Y59778821D01*
X51383870Y59750000D01*
X51236130Y59750000D01*
X51091234Y59778821D01*
X50954743Y59835358D01*
X50831903Y59917437D01*
X50727437Y60021903D01*
X50645358Y60144743D01*
X50588821Y60281234D01*
X50560000Y60426130D01*
X50560000Y60573870D01*
X50588821Y60718766D01*
X50645358Y60855257D01*
X50727437Y60978097D01*
X50831903Y61082563D01*
X50954743Y61164642D01*
X51091234Y61221179D01*
X51236130Y61250000D01*
X51383870Y61250000D01*
X51528766Y61221179D01*
G37*
G36*
X46448766Y61221179D02*
G01*
X46585257Y61164642D01*
X46708097Y61082563D01*
X46812563Y60978097D01*
X46894642Y60855257D01*
X46951179Y60718766D01*
X46980000Y60573870D01*
X46980000Y60426130D01*
X46951179Y60281234D01*
X46894642Y60144743D01*
X46812563Y60021903D01*
X46708097Y59917437D01*
X46585257Y59835358D01*
X46448766Y59778821D01*
X46303870Y59750000D01*
X46156130Y59750000D01*
X46011234Y59778821D01*
X45874743Y59835358D01*
X45751903Y59917437D01*
X45647437Y60021903D01*
X45565358Y60144743D01*
X45508821Y60281234D01*
X45480000Y60426130D01*
X45480000Y60573870D01*
X45508821Y60718766D01*
X45565358Y60855257D01*
X45647437Y60978097D01*
X45751903Y61082563D01*
X45874743Y61164642D01*
X46011234Y61221179D01*
X46156130Y61250000D01*
X46303870Y61250000D01*
X46448766Y61221179D01*
G37*
G36*
X44440000Y59750000D02*
G01*
X42940000Y59750000D01*
X42940000Y61250000D01*
X44440000Y61250000D01*
X44440000Y59750000D01*
G37*
G36*
X48988766Y61221179D02*
G01*
X49125257Y61164642D01*
X49248097Y61082563D01*
X49352563Y60978097D01*
X49434642Y60855257D01*
X49491179Y60718766D01*
X49520000Y60573870D01*
X49520000Y60426130D01*
X49491179Y60281234D01*
X49434642Y60144743D01*
X49352563Y60021903D01*
X49248097Y59917437D01*
X49125257Y59835358D01*
X48988766Y59778821D01*
X48843870Y59750000D01*
X48696130Y59750000D01*
X48551234Y59778821D01*
X48414743Y59835358D01*
X48291903Y59917437D01*
X48187437Y60021903D01*
X48105358Y60144743D01*
X48048821Y60281234D01*
X48020000Y60426130D01*
X48020000Y60573870D01*
X48048821Y60718766D01*
X48105358Y60855257D01*
X48187437Y60978097D01*
X48291903Y61082563D01*
X48414743Y61164642D01*
X48551234Y61221179D01*
X48696130Y61250000D01*
X48843870Y61250000D01*
X48988766Y61221179D01*
G37*
G36*
X54068766Y61221179D02*
G01*
X54205257Y61164642D01*
X54328097Y61082563D01*
X54432563Y60978097D01*
X54514642Y60855257D01*
X54571179Y60718766D01*
X54600000Y60573870D01*
X54600000Y60426130D01*
X54571179Y60281234D01*
X54514642Y60144743D01*
X54432563Y60021903D01*
X54328097Y59917437D01*
X54205257Y59835358D01*
X54068766Y59778821D01*
X53923870Y59750000D01*
X53776130Y59750000D01*
X53631234Y59778821D01*
X53494743Y59835358D01*
X53371903Y59917437D01*
X53267437Y60021903D01*
X53185358Y60144743D01*
X53128821Y60281234D01*
X53100000Y60426130D01*
X53100000Y60573870D01*
X53128821Y60718766D01*
X53185358Y60855257D01*
X53267437Y60978097D01*
X53371903Y61082563D01*
X53494743Y61164642D01*
X53631234Y61221179D01*
X53776130Y61250000D01*
X53923870Y61250000D01*
X54068766Y61221179D01*
G37*
G36*
X56608766Y61221179D02*
G01*
X56745257Y61164642D01*
X56868097Y61082563D01*
X56972563Y60978097D01*
X57054642Y60855257D01*
X57111179Y60718766D01*
X57140000Y60573870D01*
X57140000Y60426130D01*
X57111179Y60281234D01*
X57054642Y60144743D01*
X56972563Y60021903D01*
X56868097Y59917437D01*
X56745257Y59835358D01*
X56608766Y59778821D01*
X56463870Y59750000D01*
X56316130Y59750000D01*
X56171234Y59778821D01*
X56034743Y59835358D01*
X55911903Y59917437D01*
X55807437Y60021903D01*
X55725358Y60144743D01*
X55668821Y60281234D01*
X55640000Y60426130D01*
X55640000Y60573870D01*
X55668821Y60718766D01*
X55725358Y60855257D01*
X55807437Y60978097D01*
X55911903Y61082563D01*
X56034743Y61164642D01*
X56171234Y61221179D01*
X56316130Y61250000D01*
X56463870Y61250000D01*
X56608766Y61221179D01*
G37*
G36*
X30059445Y69818688D02*
G01*
X30267132Y69777377D01*
X30658407Y69615305D01*
X31010545Y69380014D01*
X31310014Y69080545D01*
X31545305Y68728407D01*
X31707377Y68337132D01*
X31790000Y67921757D01*
X31790000Y67498243D01*
X31707377Y67082868D01*
X31545305Y66691593D01*
X31310014Y66339455D01*
X31010545Y66039986D01*
X30658407Y65804695D01*
X30267132Y65642623D01*
X30059444Y65601311D01*
X29851758Y65560000D01*
X29428242Y65560000D01*
X29220556Y65601311D01*
X29012868Y65642623D01*
X28621593Y65804695D01*
X28269455Y66039986D01*
X27969986Y66339455D01*
X27734695Y66691593D01*
X27572623Y67082868D01*
X27490000Y67498243D01*
X27490000Y67921757D01*
X27572623Y68337132D01*
X27734695Y68728407D01*
X27969986Y69080545D01*
X28269455Y69380014D01*
X28621593Y69615305D01*
X29012868Y69777377D01*
X29220555Y69818688D01*
X29428242Y69860000D01*
X29851758Y69860000D01*
X30059445Y69818688D01*
G37*
G36*
X71059445Y69818688D02*
G01*
X71267132Y69777377D01*
X71658407Y69615305D01*
X72010545Y69380014D01*
X72310014Y69080545D01*
X72545305Y68728407D01*
X72707377Y68337132D01*
X72790000Y67921757D01*
X72790000Y67498243D01*
X72707377Y67082868D01*
X72545305Y66691593D01*
X72310014Y66339455D01*
X72010545Y66039986D01*
X71658407Y65804695D01*
X71267132Y65642623D01*
X71059444Y65601311D01*
X70851758Y65560000D01*
X70428242Y65560000D01*
X70220556Y65601311D01*
X70012868Y65642623D01*
X69621593Y65804695D01*
X69269455Y66039986D01*
X68969986Y66339455D01*
X68734695Y66691593D01*
X68572623Y67082868D01*
X68490000Y67498243D01*
X68490000Y67921757D01*
X68572623Y68337132D01*
X68734695Y68728407D01*
X68969986Y69080545D01*
X69269455Y69380014D01*
X69621593Y69615305D01*
X70012868Y69777377D01*
X70220555Y69818688D01*
X70428242Y69860000D01*
X70851758Y69860000D01*
X71059445Y69818688D01*
G37*
G36*
X80559445Y69818688D02*
G01*
X80767132Y69777377D01*
X81158407Y69615305D01*
X81510545Y69380014D01*
X81810014Y69080545D01*
X82045305Y68728407D01*
X82207377Y68337132D01*
X82290000Y67921757D01*
X82290000Y67498243D01*
X82207377Y67082868D01*
X82045305Y66691593D01*
X81810014Y66339455D01*
X81510545Y66039986D01*
X81158407Y65804695D01*
X80767132Y65642623D01*
X80559444Y65601311D01*
X80351758Y65560000D01*
X79928242Y65560000D01*
X79720556Y65601311D01*
X79512868Y65642623D01*
X79121593Y65804695D01*
X78769455Y66039986D01*
X78469986Y66339455D01*
X78234695Y66691593D01*
X78072623Y67082868D01*
X77990000Y67498243D01*
X77990000Y67921757D01*
X78072623Y68337132D01*
X78234695Y68728407D01*
X78469986Y69080545D01*
X78769455Y69380014D01*
X79121593Y69615305D01*
X79512868Y69777377D01*
X79720555Y69818688D01*
X79928242Y69860000D01*
X80351758Y69860000D01*
X80559445Y69818688D01*
G37*
G36*
X20559445Y69818688D02*
G01*
X20767132Y69777377D01*
X21158407Y69615305D01*
X21510545Y69380014D01*
X21810014Y69080545D01*
X22045305Y68728407D01*
X22207377Y68337132D01*
X22290000Y67921757D01*
X22290000Y67498243D01*
X22207377Y67082868D01*
X22045305Y66691593D01*
X21810014Y66339455D01*
X21510545Y66039986D01*
X21158407Y65804695D01*
X20767132Y65642623D01*
X20559444Y65601311D01*
X20351758Y65560000D01*
X19928242Y65560000D01*
X19720556Y65601311D01*
X19512868Y65642623D01*
X19121593Y65804695D01*
X18769455Y66039986D01*
X18469986Y66339455D01*
X18234695Y66691593D01*
X18072623Y67082868D01*
X17990000Y67498243D01*
X17990000Y67921757D01*
X18072623Y68337132D01*
X18234695Y68728407D01*
X18469986Y69080545D01*
X18769455Y69380014D01*
X19121593Y69615305D01*
X19512868Y69777377D01*
X19720555Y69818688D01*
X19928242Y69860000D01*
X20351758Y69860000D01*
X20559445Y69818688D01*
G37*
G36*
X46448766Y69251179D02*
G01*
X46585257Y69194642D01*
X46708097Y69112563D01*
X46812563Y69008097D01*
X46894642Y68885257D01*
X46951179Y68748766D01*
X46980000Y68603870D01*
X46980000Y68456130D01*
X46951179Y68311234D01*
X46894642Y68174743D01*
X46812563Y68051903D01*
X46708097Y67947437D01*
X46585257Y67865358D01*
X46448766Y67808821D01*
X46303870Y67780000D01*
X46156130Y67780000D01*
X46011234Y67808821D01*
X45874743Y67865358D01*
X45751903Y67947437D01*
X45647437Y68051903D01*
X45565358Y68174743D01*
X45508821Y68311234D01*
X45480000Y68456130D01*
X45480000Y68603870D01*
X45508821Y68748766D01*
X45565358Y68885257D01*
X45647437Y69008097D01*
X45751903Y69112563D01*
X45874743Y69194642D01*
X46011234Y69251179D01*
X46156130Y69280000D01*
X46303870Y69280000D01*
X46448766Y69251179D01*
G37*
G36*
X51528766Y69251179D02*
G01*
X51665257Y69194642D01*
X51788097Y69112563D01*
X51892563Y69008097D01*
X51974642Y68885257D01*
X52031179Y68748766D01*
X52060000Y68603870D01*
X52060000Y68456130D01*
X52031179Y68311234D01*
X51974642Y68174743D01*
X51892563Y68051903D01*
X51788097Y67947437D01*
X51665257Y67865358D01*
X51528766Y67808821D01*
X51383870Y67780000D01*
X51236130Y67780000D01*
X51091234Y67808821D01*
X50954743Y67865358D01*
X50831903Y67947437D01*
X50727437Y68051903D01*
X50645358Y68174743D01*
X50588821Y68311234D01*
X50560000Y68456130D01*
X50560000Y68603870D01*
X50588821Y68748766D01*
X50645358Y68885257D01*
X50727437Y69008097D01*
X50831903Y69112563D01*
X50954743Y69194642D01*
X51091234Y69251179D01*
X51236130Y69280000D01*
X51383870Y69280000D01*
X51528766Y69251179D01*
G37*
G36*
X48988766Y69251179D02*
G01*
X49125257Y69194642D01*
X49248097Y69112563D01*
X49352563Y69008097D01*
X49434642Y68885257D01*
X49491179Y68748766D01*
X49520000Y68603870D01*
X49520000Y68456130D01*
X49491179Y68311234D01*
X49434642Y68174743D01*
X49352563Y68051903D01*
X49248097Y67947437D01*
X49125257Y67865358D01*
X48988766Y67808821D01*
X48843870Y67780000D01*
X48696130Y67780000D01*
X48551234Y67808821D01*
X48414743Y67865358D01*
X48291903Y67947437D01*
X48187437Y68051903D01*
X48105358Y68174743D01*
X48048821Y68311234D01*
X48020000Y68456130D01*
X48020000Y68603870D01*
X48048821Y68748766D01*
X48105358Y68885257D01*
X48187437Y69008097D01*
X48291903Y69112563D01*
X48414743Y69194642D01*
X48551234Y69251179D01*
X48696130Y69280000D01*
X48843870Y69280000D01*
X48988766Y69251179D01*
G37*
G36*
X43908766Y69251179D02*
G01*
X44045257Y69194642D01*
X44168097Y69112563D01*
X44272563Y69008097D01*
X44354642Y68885257D01*
X44411179Y68748766D01*
X44440000Y68603870D01*
X44440000Y68456130D01*
X44411179Y68311234D01*
X44354642Y68174743D01*
X44272563Y68051903D01*
X44168097Y67947437D01*
X44045257Y67865358D01*
X43908766Y67808821D01*
X43763870Y67780000D01*
X43616130Y67780000D01*
X43471234Y67808821D01*
X43334743Y67865358D01*
X43211903Y67947437D01*
X43107437Y68051903D01*
X43025358Y68174743D01*
X42968821Y68311234D01*
X42940000Y68456130D01*
X42940000Y68603870D01*
X42968821Y68748766D01*
X43025358Y68885257D01*
X43107437Y69008097D01*
X43211903Y69112563D01*
X43334743Y69194642D01*
X43471234Y69251179D01*
X43616130Y69280000D01*
X43763870Y69280000D01*
X43908766Y69251179D01*
G37*
G36*
X59148766Y69251179D02*
G01*
X59285257Y69194642D01*
X59408097Y69112563D01*
X59512563Y69008097D01*
X59594642Y68885257D01*
X59651179Y68748766D01*
X59680000Y68603870D01*
X59680000Y68456130D01*
X59651179Y68311234D01*
X59594642Y68174743D01*
X59512563Y68051903D01*
X59408097Y67947437D01*
X59285257Y67865358D01*
X59148766Y67808821D01*
X59003870Y67780000D01*
X58856130Y67780000D01*
X58711234Y67808821D01*
X58574743Y67865358D01*
X58451903Y67947437D01*
X58347437Y68051903D01*
X58265358Y68174743D01*
X58208821Y68311234D01*
X58180000Y68456130D01*
X58180000Y68603870D01*
X58208821Y68748766D01*
X58265358Y68885257D01*
X58347437Y69008097D01*
X58451903Y69112563D01*
X58574743Y69194642D01*
X58711234Y69251179D01*
X58856130Y69280000D01*
X59003870Y69280000D01*
X59148766Y69251179D01*
G37*
G36*
X41900000Y67780000D02*
G01*
X40400000Y67780000D01*
X40400000Y69280000D01*
X41900000Y69280000D01*
X41900000Y67780000D01*
G37*
G36*
X54068766Y69251179D02*
G01*
X54205257Y69194642D01*
X54328097Y69112563D01*
X54432563Y69008097D01*
X54514642Y68885257D01*
X54571179Y68748766D01*
X54600000Y68603870D01*
X54600000Y68456130D01*
X54571179Y68311234D01*
X54514642Y68174743D01*
X54432563Y68051903D01*
X54328097Y67947437D01*
X54205257Y67865358D01*
X54068766Y67808821D01*
X53923870Y67780000D01*
X53776130Y67780000D01*
X53631234Y67808821D01*
X53494743Y67865358D01*
X53371903Y67947437D01*
X53267437Y68051903D01*
X53185358Y68174743D01*
X53128821Y68311234D01*
X53100000Y68456130D01*
X53100000Y68603870D01*
X53128821Y68748766D01*
X53185358Y68885257D01*
X53267437Y69008097D01*
X53371903Y69112563D01*
X53494743Y69194642D01*
X53631234Y69251179D01*
X53776130Y69280000D01*
X53923870Y69280000D01*
X54068766Y69251179D01*
G37*
G36*
X56608766Y69251179D02*
G01*
X56745257Y69194642D01*
X56868097Y69112563D01*
X56972563Y69008097D01*
X57054642Y68885257D01*
X57111179Y68748766D01*
X57140000Y68603870D01*
X57140000Y68456130D01*
X57111179Y68311234D01*
X57054642Y68174743D01*
X56972563Y68051903D01*
X56868097Y67947437D01*
X56745257Y67865358D01*
X56608766Y67808821D01*
X56463870Y67780000D01*
X56316130Y67780000D01*
X56171234Y67808821D01*
X56034743Y67865358D01*
X55911903Y67947437D01*
X55807437Y68051903D01*
X55725358Y68174743D01*
X55668821Y68311234D01*
X55640000Y68456130D01*
X55640000Y68603870D01*
X55668821Y68748766D01*
X55725358Y68885257D01*
X55807437Y69008097D01*
X55911903Y69112563D01*
X56034743Y69194642D01*
X56171234Y69251179D01*
X56316130Y69280000D01*
X56463870Y69280000D01*
X56608766Y69251179D01*
G37*
G36*
X93533404Y75527026D02*
G01*
X94115767Y75285804D01*
X94115768Y75285803D01*
X94639881Y74935602D01*
X95085602Y74489881D01*
X95319599Y74139679D01*
X95435804Y73965767D01*
X95677026Y73383404D01*
X95800000Y72765174D01*
X95800000Y72134826D01*
X95677026Y71516596D01*
X95435804Y70934233D01*
X95435803Y70934232D01*
X95085602Y70410119D01*
X94639881Y69964398D01*
X94483638Y69860000D01*
X94115767Y69614196D01*
X93533404Y69372974D01*
X92915174Y69250000D01*
X92284826Y69250000D01*
X91666596Y69372974D01*
X91084233Y69614196D01*
X90716362Y69860000D01*
X90560119Y69964398D01*
X90114398Y70410119D01*
X89764197Y70934232D01*
X89764196Y70934233D01*
X89522974Y71516596D01*
X89400000Y72134826D01*
X89400000Y72765174D01*
X89522974Y73383404D01*
X89764196Y73965767D01*
X89880401Y74139679D01*
X90114398Y74489881D01*
X90560119Y74935602D01*
X91084232Y75285803D01*
X91084233Y75285804D01*
X91666596Y75527026D01*
X92284826Y75650000D01*
X92915174Y75650000D01*
X93533404Y75527026D01*
G37*
G36*
X59148766Y71791179D02*
G01*
X59285257Y71734642D01*
X59408097Y71652563D01*
X59512563Y71548097D01*
X59594642Y71425257D01*
X59651179Y71288766D01*
X59680000Y71143870D01*
X59680000Y70996130D01*
X59651179Y70851234D01*
X59594642Y70714743D01*
X59512563Y70591903D01*
X59408097Y70487437D01*
X59285257Y70405358D01*
X59148766Y70348821D01*
X59003870Y70320000D01*
X58856130Y70320000D01*
X58711234Y70348821D01*
X58574743Y70405358D01*
X58451903Y70487437D01*
X58347437Y70591903D01*
X58265358Y70714743D01*
X58208821Y70851234D01*
X58180000Y70996130D01*
X58180000Y71143870D01*
X58208821Y71288766D01*
X58265358Y71425257D01*
X58347437Y71548097D01*
X58451903Y71652563D01*
X58574743Y71734642D01*
X58711234Y71791179D01*
X58856130Y71820000D01*
X59003870Y71820000D01*
X59148766Y71791179D01*
G37*
G36*
X43908766Y71791179D02*
G01*
X44045257Y71734642D01*
X44168097Y71652563D01*
X44272563Y71548097D01*
X44354642Y71425257D01*
X44411179Y71288766D01*
X44440000Y71143870D01*
X44440000Y70996130D01*
X44411179Y70851234D01*
X44354642Y70714743D01*
X44272563Y70591903D01*
X44168097Y70487437D01*
X44045257Y70405358D01*
X43908766Y70348821D01*
X43763870Y70320000D01*
X43616130Y70320000D01*
X43471234Y70348821D01*
X43334743Y70405358D01*
X43211903Y70487437D01*
X43107437Y70591903D01*
X43025358Y70714743D01*
X42968821Y70851234D01*
X42940000Y70996130D01*
X42940000Y71143870D01*
X42968821Y71288766D01*
X43025358Y71425257D01*
X43107437Y71548097D01*
X43211903Y71652563D01*
X43334743Y71734642D01*
X43471234Y71791179D01*
X43616130Y71820000D01*
X43763870Y71820000D01*
X43908766Y71791179D01*
G37*
G36*
X41900000Y70320000D02*
G01*
X40400000Y70320000D01*
X40400000Y71820000D01*
X41900000Y71820000D01*
X41900000Y70320000D01*
G37*
G36*
X46448766Y71791179D02*
G01*
X46585257Y71734642D01*
X46708097Y71652563D01*
X46812563Y71548097D01*
X46894642Y71425257D01*
X46951179Y71288766D01*
X46980000Y71143870D01*
X46980000Y70996130D01*
X46951179Y70851234D01*
X46894642Y70714743D01*
X46812563Y70591903D01*
X46708097Y70487437D01*
X46585257Y70405358D01*
X46448766Y70348821D01*
X46303870Y70320000D01*
X46156130Y70320000D01*
X46011234Y70348821D01*
X45874743Y70405358D01*
X45751903Y70487437D01*
X45647437Y70591903D01*
X45565358Y70714743D01*
X45508821Y70851234D01*
X45480000Y70996130D01*
X45480000Y71143870D01*
X45508821Y71288766D01*
X45565358Y71425257D01*
X45647437Y71548097D01*
X45751903Y71652563D01*
X45874743Y71734642D01*
X46011234Y71791179D01*
X46156130Y71820000D01*
X46303870Y71820000D01*
X46448766Y71791179D01*
G37*
G36*
X48988766Y71791179D02*
G01*
X49125257Y71734642D01*
X49248097Y71652563D01*
X49352563Y71548097D01*
X49434642Y71425257D01*
X49491179Y71288766D01*
X49520000Y71143870D01*
X49520000Y70996130D01*
X49491179Y70851234D01*
X49434642Y70714743D01*
X49352563Y70591903D01*
X49248097Y70487437D01*
X49125257Y70405358D01*
X48988766Y70348821D01*
X48843870Y70320000D01*
X48696130Y70320000D01*
X48551234Y70348821D01*
X48414743Y70405358D01*
X48291903Y70487437D01*
X48187437Y70591903D01*
X48105358Y70714743D01*
X48048821Y70851234D01*
X48020000Y70996130D01*
X48020000Y71143870D01*
X48048821Y71288766D01*
X48105358Y71425257D01*
X48187437Y71548097D01*
X48291903Y71652563D01*
X48414743Y71734642D01*
X48551234Y71791179D01*
X48696130Y71820000D01*
X48843870Y71820000D01*
X48988766Y71791179D01*
G37*
G36*
X51528766Y71791179D02*
G01*
X51665257Y71734642D01*
X51788097Y71652563D01*
X51892563Y71548097D01*
X51974642Y71425257D01*
X52031179Y71288766D01*
X52060000Y71143870D01*
X52060000Y70996130D01*
X52031179Y70851234D01*
X51974642Y70714743D01*
X51892563Y70591903D01*
X51788097Y70487437D01*
X51665257Y70405358D01*
X51528766Y70348821D01*
X51383870Y70320000D01*
X51236130Y70320000D01*
X51091234Y70348821D01*
X50954743Y70405358D01*
X50831903Y70487437D01*
X50727437Y70591903D01*
X50645358Y70714743D01*
X50588821Y70851234D01*
X50560000Y70996130D01*
X50560000Y71143870D01*
X50588821Y71288766D01*
X50645358Y71425257D01*
X50727437Y71548097D01*
X50831903Y71652563D01*
X50954743Y71734642D01*
X51091234Y71791179D01*
X51236130Y71820000D01*
X51383870Y71820000D01*
X51528766Y71791179D01*
G37*
G36*
X54068766Y71791179D02*
G01*
X54205257Y71734642D01*
X54328097Y71652563D01*
X54432563Y71548097D01*
X54514642Y71425257D01*
X54571179Y71288766D01*
X54600000Y71143870D01*
X54600000Y70996130D01*
X54571179Y70851234D01*
X54514642Y70714743D01*
X54432563Y70591903D01*
X54328097Y70487437D01*
X54205257Y70405358D01*
X54068766Y70348821D01*
X53923870Y70320000D01*
X53776130Y70320000D01*
X53631234Y70348821D01*
X53494743Y70405358D01*
X53371903Y70487437D01*
X53267437Y70591903D01*
X53185358Y70714743D01*
X53128821Y70851234D01*
X53100000Y70996130D01*
X53100000Y71143870D01*
X53128821Y71288766D01*
X53185358Y71425257D01*
X53267437Y71548097D01*
X53371903Y71652563D01*
X53494743Y71734642D01*
X53631234Y71791179D01*
X53776130Y71820000D01*
X53923870Y71820000D01*
X54068766Y71791179D01*
G37*
G36*
X56608766Y71791179D02*
G01*
X56745257Y71734642D01*
X56868097Y71652563D01*
X56972563Y71548097D01*
X57054642Y71425257D01*
X57111179Y71288766D01*
X57140000Y71143870D01*
X57140000Y70996130D01*
X57111179Y70851234D01*
X57054642Y70714743D01*
X56972563Y70591903D01*
X56868097Y70487437D01*
X56745257Y70405358D01*
X56608766Y70348821D01*
X56463870Y70320000D01*
X56316130Y70320000D01*
X56171234Y70348821D01*
X56034743Y70405358D01*
X55911903Y70487437D01*
X55807437Y70591903D01*
X55725358Y70714743D01*
X55668821Y70851234D01*
X55640000Y70996130D01*
X55640000Y71143870D01*
X55668821Y71288766D01*
X55725358Y71425257D01*
X55807437Y71548097D01*
X55911903Y71652563D01*
X56034743Y71734642D01*
X56171234Y71791179D01*
X56316130Y71820000D01*
X56463870Y71820000D01*
X56608766Y71791179D01*
G37*
G36*
X51528766Y76461179D02*
G01*
X51665257Y76404642D01*
X51788097Y76322563D01*
X51892563Y76218097D01*
X51974642Y76095257D01*
X52031179Y75958766D01*
X52060000Y75813870D01*
X52060000Y75666130D01*
X52031179Y75521234D01*
X51974642Y75384743D01*
X51892563Y75261903D01*
X51788097Y75157437D01*
X51665257Y75075358D01*
X51528766Y75018821D01*
X51383870Y74990000D01*
X51236130Y74990000D01*
X51091234Y75018821D01*
X50954743Y75075358D01*
X50831903Y75157437D01*
X50727437Y75261903D01*
X50645358Y75384743D01*
X50588821Y75521234D01*
X50560000Y75666130D01*
X50560000Y75813870D01*
X50588821Y75958766D01*
X50645358Y76095257D01*
X50727437Y76218097D01*
X50831903Y76322563D01*
X50954743Y76404642D01*
X51091234Y76461179D01*
X51236130Y76490000D01*
X51383870Y76490000D01*
X51528766Y76461179D01*
G37*
G36*
X56608766Y76461179D02*
G01*
X56745257Y76404642D01*
X56868097Y76322563D01*
X56972563Y76218097D01*
X57054642Y76095257D01*
X57111179Y75958766D01*
X57140000Y75813870D01*
X57140000Y75666130D01*
X57111179Y75521234D01*
X57054642Y75384743D01*
X56972563Y75261903D01*
X56868097Y75157437D01*
X56745257Y75075358D01*
X56608766Y75018821D01*
X56463870Y74990000D01*
X56316130Y74990000D01*
X56171234Y75018821D01*
X56034743Y75075358D01*
X55911903Y75157437D01*
X55807437Y75261903D01*
X55725358Y75384743D01*
X55668821Y75521234D01*
X55640000Y75666130D01*
X55640000Y75813870D01*
X55668821Y75958766D01*
X55725358Y76095257D01*
X55807437Y76218097D01*
X55911903Y76322563D01*
X56034743Y76404642D01*
X56171234Y76461179D01*
X56316130Y76490000D01*
X56463870Y76490000D01*
X56608766Y76461179D01*
G37*
G36*
X54068766Y76461179D02*
G01*
X54205257Y76404642D01*
X54328097Y76322563D01*
X54432563Y76218097D01*
X54514642Y76095257D01*
X54571179Y75958766D01*
X54600000Y75813870D01*
X54600000Y75666130D01*
X54571179Y75521234D01*
X54514642Y75384743D01*
X54432563Y75261903D01*
X54328097Y75157437D01*
X54205257Y75075358D01*
X54068766Y75018821D01*
X53923870Y74990000D01*
X53776130Y74990000D01*
X53631234Y75018821D01*
X53494743Y75075358D01*
X53371903Y75157437D01*
X53267437Y75261903D01*
X53185358Y75384743D01*
X53128821Y75521234D01*
X53100000Y75666130D01*
X53100000Y75813870D01*
X53128821Y75958766D01*
X53185358Y76095257D01*
X53267437Y76218097D01*
X53371903Y76322563D01*
X53494743Y76404642D01*
X53631234Y76461179D01*
X53776130Y76490000D01*
X53923870Y76490000D01*
X54068766Y76461179D01*
G37*
G36*
X48988766Y76461179D02*
G01*
X49125257Y76404642D01*
X49248097Y76322563D01*
X49352563Y76218097D01*
X49434642Y76095257D01*
X49491179Y75958766D01*
X49520000Y75813870D01*
X49520000Y75666130D01*
X49491179Y75521234D01*
X49434642Y75384743D01*
X49352563Y75261903D01*
X49248097Y75157437D01*
X49125257Y75075358D01*
X48988766Y75018821D01*
X48843870Y74990000D01*
X48696130Y74990000D01*
X48551234Y75018821D01*
X48414743Y75075358D01*
X48291903Y75157437D01*
X48187437Y75261903D01*
X48105358Y75384743D01*
X48048821Y75521234D01*
X48020000Y75666130D01*
X48020000Y75813870D01*
X48048821Y75958766D01*
X48105358Y76095257D01*
X48187437Y76218097D01*
X48291903Y76322563D01*
X48414743Y76404642D01*
X48551234Y76461179D01*
X48696130Y76490000D01*
X48843870Y76490000D01*
X48988766Y76461179D01*
G37*
G36*
X46448766Y76461179D02*
G01*
X46585257Y76404642D01*
X46708097Y76322563D01*
X46812563Y76218097D01*
X46894642Y76095257D01*
X46951179Y75958766D01*
X46980000Y75813870D01*
X46980000Y75666130D01*
X46951179Y75521234D01*
X46894642Y75384743D01*
X46812563Y75261903D01*
X46708097Y75157437D01*
X46585257Y75075358D01*
X46448766Y75018821D01*
X46303870Y74990000D01*
X46156130Y74990000D01*
X46011234Y75018821D01*
X45874743Y75075358D01*
X45751903Y75157437D01*
X45647437Y75261903D01*
X45565358Y75384743D01*
X45508821Y75521234D01*
X45480000Y75666130D01*
X45480000Y75813870D01*
X45508821Y75958766D01*
X45565358Y76095257D01*
X45647437Y76218097D01*
X45751903Y76322563D01*
X45874743Y76404642D01*
X46011234Y76461179D01*
X46156130Y76490000D01*
X46303870Y76490000D01*
X46448766Y76461179D01*
G37*
G36*
X43908766Y76461179D02*
G01*
X44045257Y76404642D01*
X44168097Y76322563D01*
X44272563Y76218097D01*
X44354642Y76095257D01*
X44411179Y75958766D01*
X44440000Y75813870D01*
X44440000Y75666130D01*
X44411179Y75521234D01*
X44354642Y75384743D01*
X44272563Y75261903D01*
X44168097Y75157437D01*
X44045257Y75075358D01*
X43908766Y75018821D01*
X43763870Y74990000D01*
X43616130Y74990000D01*
X43471234Y75018821D01*
X43334743Y75075358D01*
X43211903Y75157437D01*
X43107437Y75261903D01*
X43025358Y75384743D01*
X42968821Y75521234D01*
X42940000Y75666130D01*
X42940000Y75813870D01*
X42968821Y75958766D01*
X43025358Y76095257D01*
X43107437Y76218097D01*
X43211903Y76322563D01*
X43334743Y76404642D01*
X43471234Y76461179D01*
X43616130Y76490000D01*
X43763870Y76490000D01*
X43908766Y76461179D01*
G37*
G36*
X94472318Y87652108D02*
G01*
X94642976Y87618162D01*
X95125246Y87418399D01*
X95559276Y87128389D01*
X95928389Y86759276D01*
X96218399Y86325246D01*
X96418162Y85842976D01*
X96520000Y85331002D01*
X96520000Y84808998D01*
X96418162Y84297024D01*
X96218399Y83814754D01*
X95928389Y83380724D01*
X95559276Y83011611D01*
X95125246Y82721601D01*
X94642976Y82521838D01*
X94472318Y82487892D01*
X94131004Y82420000D01*
X93608996Y82420000D01*
X93267682Y82487892D01*
X93097024Y82521838D01*
X92614754Y82721601D01*
X92180724Y83011611D01*
X91811611Y83380724D01*
X91521601Y83814754D01*
X91321838Y84297024D01*
X91220000Y84808998D01*
X91220000Y85331002D01*
X91321838Y85842976D01*
X91521601Y86325246D01*
X91811611Y86759276D01*
X92180724Y87128389D01*
X92614754Y87418399D01*
X93097024Y87618162D01*
X93267682Y87652108D01*
X93608996Y87720000D01*
X94131004Y87720000D01*
X94472318Y87652108D01*
G37*
G36*
X50359687Y97620575D02*
G01*
X50627132Y97567377D01*
X50886362Y97460000D01*
X50988416Y97417728D01*
X51018407Y97405305D01*
X51370545Y97170014D01*
X51670014Y96870545D01*
X51905305Y96518407D01*
X52067377Y96127132D01*
X52150000Y95711757D01*
X52150000Y95288243D01*
X52067377Y94872868D01*
X51905305Y94481593D01*
X51670014Y94129455D01*
X51370545Y93829986D01*
X51018407Y93594695D01*
X50627132Y93432623D01*
X50419445Y93391312D01*
X50211758Y93350000D01*
X49788242Y93350000D01*
X49580555Y93391312D01*
X49372868Y93432623D01*
X48981593Y93594695D01*
X48629455Y93829986D01*
X48329986Y94129455D01*
X48094695Y94481593D01*
X47932623Y94872868D01*
X47850000Y95288243D01*
X47850000Y95711757D01*
X47932623Y96127132D01*
X48094695Y96518407D01*
X48329986Y96870545D01*
X48629455Y97170014D01*
X48981593Y97405305D01*
X49011585Y97417728D01*
X49113638Y97460000D01*
X49372868Y97567377D01*
X49640313Y97620575D01*
X49788242Y97650000D01*
X50211758Y97650000D01*
X50359687Y97620575D01*
G37*
G36*
X4859687Y97620575D02*
G01*
X5127132Y97567377D01*
X5386362Y97460000D01*
X5488416Y97417728D01*
X5518407Y97405305D01*
X5870545Y97170014D01*
X6170014Y96870545D01*
X6405305Y96518407D01*
X6567377Y96127132D01*
X6650000Y95711757D01*
X6650000Y95288243D01*
X6567377Y94872868D01*
X6405305Y94481593D01*
X6170014Y94129455D01*
X5870545Y93829986D01*
X5518407Y93594695D01*
X5127132Y93432623D01*
X4919445Y93391312D01*
X4711758Y93350000D01*
X4288242Y93350000D01*
X4080555Y93391312D01*
X3872868Y93432623D01*
X3481593Y93594695D01*
X3129455Y93829986D01*
X2829986Y94129455D01*
X2594695Y94481593D01*
X2432623Y94872868D01*
X2350000Y95288243D01*
X2350000Y95711757D01*
X2432623Y96127132D01*
X2594695Y96518407D01*
X2829986Y96870545D01*
X3129455Y97170014D01*
X3481593Y97405305D01*
X3511585Y97417728D01*
X3613638Y97460000D01*
X3872868Y97567377D01*
X4140313Y97620575D01*
X4288242Y97650000D01*
X4711758Y97650000D01*
X4859687Y97620575D01*
G37*
G36*
X95859687Y97620575D02*
G01*
X96127132Y97567377D01*
X96386362Y97460000D01*
X96488416Y97417728D01*
X96518407Y97405305D01*
X96870545Y97170014D01*
X97170014Y96870545D01*
X97405305Y96518407D01*
X97567377Y96127132D01*
X97650000Y95711757D01*
X97650000Y95288243D01*
X97567377Y94872868D01*
X97405305Y94481593D01*
X97170014Y94129455D01*
X96870545Y93829986D01*
X96518407Y93594695D01*
X96127132Y93432623D01*
X95919445Y93391312D01*
X95711758Y93350000D01*
X95288242Y93350000D01*
X95080555Y93391312D01*
X94872868Y93432623D01*
X94481593Y93594695D01*
X94129455Y93829986D01*
X93829986Y94129455D01*
X93594695Y94481593D01*
X93432623Y94872868D01*
X93350000Y95288243D01*
X93350000Y95711757D01*
X93432623Y96127132D01*
X93594695Y96518407D01*
X93829986Y96870545D01*
X94129455Y97170014D01*
X94481593Y97405305D01*
X94511585Y97417728D01*
X94613638Y97460000D01*
X94872868Y97567377D01*
X95140313Y97620575D01*
X95288242Y97650000D01*
X95711758Y97650000D01*
X95859687Y97620575D01*
G37*
G36*
X87846703Y97938514D02*
G01*
X88137883Y97817903D01*
X88399940Y97642802D01*
X88622802Y97419940D01*
X88797903Y97157883D01*
X88918514Y96866703D01*
X88980000Y96557588D01*
X88980000Y96242412D01*
X88918514Y95933297D01*
X88797903Y95642117D01*
X88622802Y95380060D01*
X88399940Y95157198D01*
X88137883Y94982097D01*
X87846703Y94861486D01*
X87537588Y94800000D01*
X87222412Y94800000D01*
X86913297Y94861486D01*
X86622117Y94982097D01*
X86360060Y95157198D01*
X86137198Y95380060D01*
X85962097Y95642117D01*
X85841486Y95933297D01*
X85780000Y96242412D01*
X85780000Y96557588D01*
X85841486Y96866703D01*
X85962097Y97157883D01*
X86137198Y97419940D01*
X86360060Y97642802D01*
X86622117Y97817903D01*
X86913297Y97938514D01*
X87222412Y98000000D01*
X87537588Y98000000D01*
X87846703Y97938514D01*
G37*
G36*
X75440857Y97417728D02*
G01*
X75641043Y97334808D01*
X75641045Y97334807D01*
X75821209Y97214425D01*
X75974425Y97061209D01*
X76086844Y96892963D01*
X76094808Y96881043D01*
X76177728Y96680857D01*
X76220000Y96468342D01*
X76220000Y96251658D01*
X76177728Y96039143D01*
X76094808Y95838957D01*
X75974426Y95658792D01*
X75821208Y95505574D01*
X75731738Y95445792D01*
X75641045Y95385193D01*
X75641044Y95385192D01*
X75641043Y95385192D01*
X75440857Y95302272D01*
X75228342Y95260000D01*
X75011658Y95260000D01*
X74799143Y95302272D01*
X74598957Y95385192D01*
X74598956Y95385192D01*
X74598955Y95385193D01*
X74508262Y95445792D01*
X74418792Y95505574D01*
X74265574Y95658792D01*
X74145192Y95838957D01*
X74062272Y96039143D01*
X74020000Y96251658D01*
X74020000Y96468342D01*
X74062272Y96680857D01*
X74145192Y96881043D01*
X74153157Y96892963D01*
X74265575Y97061209D01*
X74418791Y97214425D01*
X74598955Y97334807D01*
X74598957Y97334808D01*
X74799143Y97417728D01*
X75011658Y97460000D01*
X75228342Y97460000D01*
X75440857Y97417728D01*
G37*
G36*
X81253779Y98058121D02*
G01*
X81499463Y97956355D01*
X81499465Y97956354D01*
X81720575Y97808613D01*
X81908613Y97620575D01*
X82044152Y97417727D01*
X82056355Y97399463D01*
X82158121Y97153779D01*
X82210000Y96892965D01*
X82210000Y96627035D01*
X82158121Y96366221D01*
X82110667Y96251658D01*
X82056354Y96120535D01*
X81908613Y95899425D01*
X81720575Y95711387D01*
X81499465Y95563646D01*
X81499464Y95563645D01*
X81499463Y95563645D01*
X81253779Y95461879D01*
X80992965Y95410000D01*
X80727035Y95410000D01*
X80466221Y95461879D01*
X80220537Y95563645D01*
X80220536Y95563645D01*
X80220535Y95563646D01*
X79999425Y95711387D01*
X79811387Y95899425D01*
X79663646Y96120535D01*
X79609333Y96251658D01*
X79561879Y96366221D01*
X79510000Y96627035D01*
X79510000Y96892965D01*
X79561879Y97153779D01*
X79663645Y97399463D01*
X79675849Y97417727D01*
X79811387Y97620575D01*
X79999425Y97808613D01*
X80220535Y97956354D01*
X80220537Y97956355D01*
X80466221Y98058121D01*
X80727035Y98110000D01*
X80992965Y98110000D01*
X81253779Y98058121D01*
G37*
M02*
