M48
; DRILL file {KiCad 5.1.4-e60b266~84~ubuntu19.04.1} date Wed 13 Nov 2019 10:21:38 PM PST
; FORMAT={-:-/ absolute / inch / decimal}
; #@! TF.CreationDate,2019-11-13T22:21:38-08:00
; #@! TF.GenerationSoftware,Kicad,Pcbnew,5.1.4-e60b266~84~ubuntu19.04.1
; #@! TF.FileFunction,Plated,1,2,PTH
FMAT,2
INCH
T1C0.0157
T2C0.0197
T3C0.0217
T4C0.0315
T5C0.0394
T6C0.0400
T7C0.0520
T8C0.0591
T9C0.1200
%
G90
G05
T1
X0.3296Y-3.4855
X1.085Y-2.7855
X1.1096Y-0.8555
X1.1795Y-2.3954
X1.2282Y-1.0641
X1.2696Y-1.0855
X1.3496Y-1.2655
X1.3496Y-1.2655
X1.4438Y-1.9989
X1.4586Y-1.9665
X1.4896Y-2.3855
X1.7896Y-1.9255
X1.7926Y-1.1755
X1.8329Y-1.6411
X1.8596Y-1.7855
X1.8696Y-1.0655
X1.8996Y-2.3655
X1.9296Y-1.9255
X1.9896Y-2.9055
X2.0296Y-2.9255
X2.0678Y-3.0458
X2.0679Y-2.7451
X2.0696Y-2.9255
X2.0696Y-3.0055
X2.1506Y-1.8631
X2.1527Y-2.3942
X2.1896Y-2.6455
X2.2592Y-1.4959
X2.2892Y-1.8759
X2.3196Y-2.1952
X2.3406Y-0.2945
X2.3496Y-2.6655
X2.3654Y-2.1455
X2.4196Y-2.5755
X2.4196Y-2.7455
X2.5296Y-2.0401
X2.6396Y-2.6555
X2.6896Y-0.9655
X2.7164Y-2.3023
X2.8596Y-2.2855
X2.8654Y-2.0098
X2.9296Y-2.0855
X3.4096Y-1.2255
T2
X2.9996Y-2.3955
X2.9996Y-2.5955
T3
X1.4596Y-0.1455
X1.4596Y-0.1955
X1.4596Y-0.2455
T4
X0.1055Y-2.2007
X0.1055Y-2.3007
X0.1055Y-2.4007
X0.1055Y-2.5007
X0.1055Y-2.6007
X0.1055Y-2.7007
X0.1055Y-2.8007
X0.1055Y-2.9007
X0.1055Y-3.0007
X0.1055Y-3.1007
X0.1055Y-3.2007
X0.1055Y-3.3007
X0.1055Y-3.4007
X2.8146Y-3.8605
X2.9146Y-3.8605
X3.0146Y-3.8605
X3.1146Y-3.8605
X3.2146Y-3.8605
X3.3146Y-3.8605
X3.4146Y-3.8605
X3.5146Y-3.8605
X2.8396Y-0.1555
X2.9396Y-0.1555
X3.0396Y-0.1555
X3.1396Y-0.1555
X3.2396Y-0.1555
X3.3396Y-0.1555
X3.4396Y-0.1555
X0.4395Y-0.0991
X0.5395Y-0.0991
X0.6395Y-0.0991
X0.7395Y-0.0991
X0.8395Y-0.0991
X0.9395Y-0.0991
X1.0395Y-0.0991
X1.7896Y-3.7605
X1.8896Y-3.7605
X1.9896Y-3.7605
X2.0896Y-3.7605
X2.1896Y-3.7605
X2.2896Y-3.7605
X2.3896Y-3.7605
X2.4896Y-3.7605
X0.7569Y-3.8611
X0.8569Y-3.8611
X0.9569Y-3.8611
X1.0569Y-3.8611
X1.1569Y-3.8611
X1.2569Y-3.8611
X1.3569Y-3.8611
X1.4569Y-3.8611
X0.4395Y-0.1991
X0.5395Y-0.1991
X0.6395Y-0.1991
X0.7395Y-0.1991
X0.8395Y-0.1991
X0.9395Y-0.1991
X1.0395Y-0.1991
X0.7571Y-3.6611
X0.8571Y-3.6611
X0.9571Y-3.6611
X1.0571Y-3.6611
X1.1571Y-3.6611
X1.2571Y-3.6611
X1.3571Y-3.6611
X1.4571Y-3.6611
X1.7896Y-3.6605
X1.8896Y-3.6605
X1.9896Y-3.6605
X2.0896Y-3.6605
X2.1896Y-3.6605
X2.2896Y-3.6605
X2.3896Y-3.6605
X2.4896Y-3.6605
X2.8146Y-3.7605
X2.9146Y-3.7605
X3.0146Y-3.7605
X3.1146Y-3.7605
X3.2146Y-3.7605
X3.3146Y-3.7605
X3.4146Y-3.7605
X3.5146Y-3.7605
X1.7896Y-3.8605
X1.8896Y-3.8605
X1.9896Y-3.8605
X2.0896Y-3.8605
X2.1896Y-3.8605
X2.2896Y-3.8605
X2.3896Y-3.8605
X2.4896Y-3.8605
X2.8146Y-3.6605
X2.9146Y-3.6605
X3.0146Y-3.6605
X3.1146Y-3.6605
X3.2146Y-3.6605
X3.3146Y-3.6605
X3.4146Y-3.6605
X3.5146Y-3.6605
X3.1291Y-1.3655
X3.1291Y-1.5655
X3.1291Y-1.9655
X3.1296Y-1.4655
X3.1296Y-1.6655
X3.1296Y-1.8655
X3.1296Y-2.0655
X3.1301Y-1.7655
X3.2291Y-1.3655
X3.2291Y-1.5655
X3.2291Y-1.9655
X3.2296Y-1.4655
X3.2296Y-1.6655
X3.2296Y-1.8655
X3.2296Y-2.0655
X3.2301Y-1.7655
X3.3291Y-1.3655
X3.3291Y-1.5655
X3.3291Y-1.9655
X3.3296Y-1.4655
X3.3296Y-1.6655
X3.3296Y-1.8655
X3.3296Y-2.0655
X3.3301Y-1.7655
X3.4291Y-1.3655
X3.4291Y-1.5655
X3.4291Y-1.9655
X3.4296Y-1.4655
X3.4296Y-1.6655
X3.4296Y-1.8655
X3.4296Y-2.0655
X3.4301Y-1.7655
X3.5291Y-1.3655
X3.5291Y-1.5655
X3.5291Y-1.9655
X3.5296Y-1.4655
X3.5296Y-1.6655
X3.5296Y-1.8655
X3.5296Y-2.0655
X3.5301Y-1.7655
X3.6291Y-1.3655
X3.6291Y-1.5655
X3.6291Y-1.9655
X3.6296Y-1.4655
X3.6296Y-1.6655
X3.6296Y-1.8655
X3.6296Y-2.0655
X3.6301Y-1.7655
X3.7291Y-1.3655
X3.7291Y-1.5655
X3.7291Y-1.9655
X3.7296Y-1.4655
X3.7296Y-1.6655
X3.7296Y-1.8655
X3.7296Y-2.0655
X3.7301Y-1.7655
X3.8291Y-1.3655
X3.8291Y-1.5655
X3.8291Y-1.9655
X3.8296Y-1.4655
X3.8296Y-1.6655
X3.8296Y-1.8655
X3.8296Y-2.0655
X3.8301Y-1.7655
X0.7569Y-3.7616
X0.8569Y-3.7616
X0.9569Y-3.7616
X1.0569Y-3.7616
X1.1569Y-3.7616
X1.2569Y-3.7616
X1.3569Y-3.7616
X1.4569Y-3.7616
X0.4296Y-0.8255
X0.5296Y-0.8255
X0.6296Y-0.8255
X0.7296Y-0.8255
X0.8296Y-0.8255
X0.9296Y-0.8255
X1.0296Y-0.8255
X0.0896Y-1.7155
X0.0896Y-1.8155
X0.0896Y-1.9155
X2.1406Y-0.1545
X2.2406Y-0.1545
X2.3406Y-0.1545
X2.4406Y-0.1545
X2.5406Y-0.1545
X2.6406Y-0.1545
X2.7406Y-0.1545
T5
X1.6626Y-1.4485
X1.6626Y-2.0485
X1.7626Y-1.4485
X1.7626Y-2.0485
X1.8626Y-1.4485
X1.8626Y-2.0485
X1.9626Y-1.4485
X1.9626Y-2.0485
X2.0626Y-1.4485
X2.0626Y-2.0485
X2.1626Y-1.4485
X2.1626Y-2.0485
X2.7178Y-3.4855
X2.8178Y-3.4855
X2.9178Y-3.4855
X3.0178Y-3.4855
X3.1178Y-3.4855
X3.2178Y-3.4855
X3.3178Y-3.4855
X3.4178Y-3.4855
X3.5178Y-3.4855
X3.6178Y-3.4855
X1.3736Y-2.2265
X1.3736Y-2.5265
X1.4736Y-2.2265
X1.4736Y-2.5265
X1.5736Y-2.2265
X1.5736Y-2.5265
X1.6736Y-2.2265
X1.6736Y-2.5265
X1.7736Y-2.2265
X1.7736Y-2.5265
X1.8736Y-2.2265
X1.8736Y-2.5265
X1.9736Y-2.2265
X1.9736Y-2.5265
X2.0736Y-2.2265
X2.0736Y-2.5265
X2.1736Y-2.2265
X2.1736Y-2.5265
X2.2736Y-2.2265
X2.2736Y-2.5265
X2.3736Y-2.2265
X2.3736Y-2.5265
X2.4736Y-2.2265
X2.4736Y-2.5265
X2.5736Y-2.2265
X2.5736Y-2.5265
X2.6736Y-2.2265
X2.6736Y-2.5265
X0.6571Y-3.4855
X0.7571Y-3.4855
X0.8571Y-3.4855
X0.9571Y-3.4855
X1.0571Y-3.4855
X1.1571Y-3.4855
X1.2571Y-3.4855
X1.3571Y-3.4855
X1.4571Y-3.4855
X1.5571Y-3.4855
X1.2596Y-0.7155
X1.3596Y-0.7155
X1.4596Y-0.7155
X0.3395Y-0.3955
X0.3395Y-0.6955
X0.4395Y-0.3955
X0.4395Y-0.6955
X0.5395Y-0.3955
X0.5395Y-0.6955
X0.6395Y-0.3955
X0.6395Y-0.6955
X0.7395Y-0.3955
X0.7395Y-0.6955
X0.8395Y-0.3955
X0.8395Y-0.6955
X0.9395Y-0.3955
X0.9395Y-0.6955
X1.0395Y-0.3955
X1.0395Y-0.6955
X1.6883Y-3.4855
X1.7883Y-3.4855
X1.8883Y-3.4855
X1.9883Y-3.4855
X2.0883Y-3.4855
X2.1883Y-3.4855
X2.2883Y-3.4855
X2.3883Y-3.4855
X2.4883Y-3.4855
X2.5883Y-3.4855
T6
X2.0481Y-2.8438
X2.1481Y-2.8438
X2.2481Y-2.8438
X2.3481Y-2.8438
X2.4481Y-2.8438
X2.5481Y-2.8438
X2.6481Y-2.8438
X2.7481Y-2.8438
X2.8481Y-2.8438
X2.9481Y-2.8438
X1.1881Y-0.9438
X1.2881Y-0.9438
X1.3881Y-0.9438
X1.4881Y-0.9438
X1.5881Y-0.9438
X1.6881Y-0.9438
X1.8881Y-0.9438
X1.9881Y-0.9438
X2.0881Y-0.9438
X2.1881Y-0.9438
X2.2881Y-0.9438
X2.3881Y-0.9438
X2.4881Y-0.9438
X2.5881Y-0.9438
X1.1881Y-2.8438
X1.2881Y-2.8438
X1.3881Y-2.8438
X1.4881Y-2.8438
X1.5881Y-2.8438
X1.6881Y-2.8438
X1.7881Y-2.8438
X1.8881Y-2.8438
T7
X0.6096Y-1.2655
X0.6096Y-1.5655
T8
X0.2936Y-1.6115
X0.2936Y-1.8115
X0.2936Y-2.0115
T9
X3.0881Y-2.8438
X3.1381Y-0.9438
X1.0881Y-1.1438
X1.0881Y-2.2438
T0
M30
