G04 #@! TF.GenerationSoftware,KiCad,Pcbnew,5.1.4-e60b266~84~ubuntu19.04.1*
G04 #@! TF.CreationDate,2019-11-12T22:35:20-08:00*
G04 #@! TF.ProjectId,Luciebox,4c756369-6562-46f7-982e-6b696361645f,rev?*
G04 #@! TF.SameCoordinates,Original*
G04 #@! TF.FileFunction,Legend,Bot*
G04 #@! TF.FilePolarity,Positive*
%FSLAX46Y46*%
G04 Gerber Fmt 4.6, Leading zero omitted, Abs format (unit mm)*
G04 Created by KiCad (PCBNEW 5.1.4-e60b266~84~ubuntu19.04.1) date 2019-11-12 22:35:20*
%MOMM*%
%LPD*%
G04 APERTURE LIST*
%ADD10C,0.010000*%
%ADD11C,0.150000*%
G04 APERTURE END LIST*
D10*
G36*
X100320000Y-9776799D02*
G01*
X99579167Y-9828377D01*
X99193164Y-9856074D01*
X98828333Y-9883655D01*
X98550024Y-9906147D01*
X98499667Y-9910568D01*
X98217718Y-9905761D01*
X97875604Y-9859463D01*
X97695333Y-9819670D01*
X97442378Y-9749223D01*
X97072776Y-9640604D01*
X96631179Y-9507185D01*
X96162237Y-9362336D01*
X96034609Y-9322336D01*
X95285590Y-9062530D01*
X94692422Y-8798025D01*
X94241778Y-8516827D01*
X93920332Y-8206940D01*
X93714758Y-7856368D01*
X93611731Y-7453117D01*
X93593551Y-7125000D01*
X93630761Y-6704482D01*
X93744888Y-6336173D01*
X93951849Y-6001947D01*
X94267560Y-5683675D01*
X94707935Y-5363232D01*
X95288892Y-5022490D01*
X95570864Y-4872995D01*
X96275235Y-4463673D01*
X96861188Y-4031346D01*
X97000642Y-3907968D01*
X97549354Y-3433988D01*
X98047863Y-3086507D01*
X98533832Y-2847272D01*
X99044922Y-2698028D01*
X99618796Y-2620523D01*
X99663833Y-2617204D01*
X100320000Y-2571137D01*
X100320000Y-9776799D01*
X100320000Y-9776799D01*
G37*
X100320000Y-9776799D02*
X99579167Y-9828377D01*
X99193164Y-9856074D01*
X98828333Y-9883655D01*
X98550024Y-9906147D01*
X98499667Y-9910568D01*
X98217718Y-9905761D01*
X97875604Y-9859463D01*
X97695333Y-9819670D01*
X97442378Y-9749223D01*
X97072776Y-9640604D01*
X96631179Y-9507185D01*
X96162237Y-9362336D01*
X96034609Y-9322336D01*
X95285590Y-9062530D01*
X94692422Y-8798025D01*
X94241778Y-8516827D01*
X93920332Y-8206940D01*
X93714758Y-7856368D01*
X93611731Y-7453117D01*
X93593551Y-7125000D01*
X93630761Y-6704482D01*
X93744888Y-6336173D01*
X93951849Y-6001947D01*
X94267560Y-5683675D01*
X94707935Y-5363232D01*
X95288892Y-5022490D01*
X95570864Y-4872995D01*
X96275235Y-4463673D01*
X96861188Y-4031346D01*
X97000642Y-3907968D01*
X97549354Y-3433988D01*
X98047863Y-3086507D01*
X98533832Y-2847272D01*
X99044922Y-2698028D01*
X99618796Y-2620523D01*
X99663833Y-2617204D01*
X100320000Y-2571137D01*
X100320000Y-9776799D01*
G36*
X24285661Y-838500D02*
G01*
X24237311Y-1377077D01*
X24102007Y-1786658D01*
X23883593Y-2059533D01*
X23615843Y-2182545D01*
X23407628Y-2247760D01*
X23281682Y-2328464D01*
X23277914Y-2333921D01*
X23164647Y-2397224D01*
X22916214Y-2471275D01*
X22565956Y-2550098D01*
X22147210Y-2627717D01*
X21693318Y-2698157D01*
X21237619Y-2755442D01*
X20813452Y-2793596D01*
X20667381Y-2801839D01*
X20337436Y-2822849D01*
X20021764Y-2859311D01*
X19685793Y-2918320D01*
X19294948Y-3006967D01*
X18814658Y-3132344D01*
X18210349Y-3301546D01*
X18156379Y-3316968D01*
X17840282Y-3383426D01*
X17656601Y-3365777D01*
X17639746Y-3354633D01*
X17474661Y-3315452D01*
X17295700Y-3348599D01*
X17079459Y-3413762D01*
X16777125Y-3502863D01*
X16542333Y-3571101D01*
X16206169Y-3682125D01*
X15883132Y-3811343D01*
X15716833Y-3891794D01*
X15511692Y-4024022D01*
X15420475Y-4162479D01*
X15399343Y-4374909D01*
X15399333Y-4382428D01*
X15479369Y-4751020D01*
X15599001Y-4938337D01*
X15769150Y-5195648D01*
X15895519Y-5474000D01*
X16187841Y-6402897D01*
X16408345Y-7181580D01*
X16557677Y-7812881D01*
X16636482Y-8299634D01*
X16645403Y-8644669D01*
X16634792Y-8719740D01*
X16567904Y-8951144D01*
X16458806Y-9225805D01*
X16329690Y-9498625D01*
X16202750Y-9724506D01*
X16100179Y-9858347D01*
X16065475Y-9876667D01*
X15953883Y-9925151D01*
X15767347Y-10047857D01*
X15669535Y-10121424D01*
X15505415Y-10237539D01*
X15339112Y-10314932D01*
X15125604Y-10365455D01*
X14819864Y-10400962D01*
X14521817Y-10423577D01*
X14041869Y-10463756D01*
X13512114Y-10519264D01*
X13029440Y-10579712D01*
X12923712Y-10594940D01*
X12519599Y-10642732D01*
X12120175Y-10668978D01*
X11796163Y-10669571D01*
X11726895Y-10664409D01*
X11323422Y-10661913D01*
X10830601Y-10715649D01*
X10311271Y-10813505D01*
X9828271Y-10943372D01*
X9444442Y-11093136D01*
X9409614Y-11111027D01*
X9256253Y-11189346D01*
X9117018Y-11244605D01*
X8960760Y-11279717D01*
X8756332Y-11297594D01*
X8472584Y-11301147D01*
X8078368Y-11293288D01*
X7611458Y-11279120D01*
X6870150Y-11253491D01*
X6279374Y-11228049D01*
X5820331Y-11201540D01*
X5474226Y-11172709D01*
X5222263Y-11140302D01*
X5070000Y-11109496D01*
X4906834Y-11103812D01*
X4620564Y-11126549D01*
X4253748Y-11171080D01*
X3848950Y-11230778D01*
X3448729Y-11299017D01*
X3095647Y-11369169D01*
X2832265Y-11434608D01*
X2722089Y-11475073D01*
X2498773Y-11556779D01*
X2159729Y-11641825D01*
X1758055Y-11720466D01*
X1346852Y-11782952D01*
X979217Y-11819535D01*
X815500Y-11825085D01*
X328667Y-11824000D01*
X328667Y-5249478D01*
X1180820Y-5100330D01*
X1863004Y-4946284D01*
X2432861Y-4731036D01*
X2943847Y-4427882D01*
X3449418Y-4010116D01*
X3546000Y-3918733D01*
X4006590Y-3488361D01*
X4390265Y-3163825D01*
X4730269Y-2922358D01*
X5059844Y-2741194D01*
X5412233Y-2597564D01*
X5536708Y-2555334D01*
X6340859Y-2379887D01*
X7161690Y-2371020D01*
X7993500Y-2527462D01*
X8830592Y-2847945D01*
X9667266Y-3331199D01*
X9962018Y-3540849D01*
X10310129Y-3770012D01*
X10672994Y-3958299D01*
X10999794Y-4082200D01*
X11212482Y-4119333D01*
X11343374Y-4068315D01*
X11531553Y-3941621D01*
X11582837Y-3900140D01*
X11777747Y-3672454D01*
X11841184Y-3416440D01*
X11769623Y-3117677D01*
X11559539Y-2761743D01*
X11207406Y-2334217D01*
X11197304Y-2323094D01*
X10826238Y-1832630D01*
X10561093Y-1307717D01*
X10421098Y-791091D01*
X10404000Y-560157D01*
X10404000Y-224667D01*
X24289333Y-224667D01*
X24285661Y-838500D01*
X24285661Y-838500D01*
G37*
X24285661Y-838500D02*
X24237311Y-1377077D01*
X24102007Y-1786658D01*
X23883593Y-2059533D01*
X23615843Y-2182545D01*
X23407628Y-2247760D01*
X23281682Y-2328464D01*
X23277914Y-2333921D01*
X23164647Y-2397224D01*
X22916214Y-2471275D01*
X22565956Y-2550098D01*
X22147210Y-2627717D01*
X21693318Y-2698157D01*
X21237619Y-2755442D01*
X20813452Y-2793596D01*
X20667381Y-2801839D01*
X20337436Y-2822849D01*
X20021764Y-2859311D01*
X19685793Y-2918320D01*
X19294948Y-3006967D01*
X18814658Y-3132344D01*
X18210349Y-3301546D01*
X18156379Y-3316968D01*
X17840282Y-3383426D01*
X17656601Y-3365777D01*
X17639746Y-3354633D01*
X17474661Y-3315452D01*
X17295700Y-3348599D01*
X17079459Y-3413762D01*
X16777125Y-3502863D01*
X16542333Y-3571101D01*
X16206169Y-3682125D01*
X15883132Y-3811343D01*
X15716833Y-3891794D01*
X15511692Y-4024022D01*
X15420475Y-4162479D01*
X15399343Y-4374909D01*
X15399333Y-4382428D01*
X15479369Y-4751020D01*
X15599001Y-4938337D01*
X15769150Y-5195648D01*
X15895519Y-5474000D01*
X16187841Y-6402897D01*
X16408345Y-7181580D01*
X16557677Y-7812881D01*
X16636482Y-8299634D01*
X16645403Y-8644669D01*
X16634792Y-8719740D01*
X16567904Y-8951144D01*
X16458806Y-9225805D01*
X16329690Y-9498625D01*
X16202750Y-9724506D01*
X16100179Y-9858347D01*
X16065475Y-9876667D01*
X15953883Y-9925151D01*
X15767347Y-10047857D01*
X15669535Y-10121424D01*
X15505415Y-10237539D01*
X15339112Y-10314932D01*
X15125604Y-10365455D01*
X14819864Y-10400962D01*
X14521817Y-10423577D01*
X14041869Y-10463756D01*
X13512114Y-10519264D01*
X13029440Y-10579712D01*
X12923712Y-10594940D01*
X12519599Y-10642732D01*
X12120175Y-10668978D01*
X11796163Y-10669571D01*
X11726895Y-10664409D01*
X11323422Y-10661913D01*
X10830601Y-10715649D01*
X10311271Y-10813505D01*
X9828271Y-10943372D01*
X9444442Y-11093136D01*
X9409614Y-11111027D01*
X9256253Y-11189346D01*
X9117018Y-11244605D01*
X8960760Y-11279717D01*
X8756332Y-11297594D01*
X8472584Y-11301147D01*
X8078368Y-11293288D01*
X7611458Y-11279120D01*
X6870150Y-11253491D01*
X6279374Y-11228049D01*
X5820331Y-11201540D01*
X5474226Y-11172709D01*
X5222263Y-11140302D01*
X5070000Y-11109496D01*
X4906834Y-11103812D01*
X4620564Y-11126549D01*
X4253748Y-11171080D01*
X3848950Y-11230778D01*
X3448729Y-11299017D01*
X3095647Y-11369169D01*
X2832265Y-11434608D01*
X2722089Y-11475073D01*
X2498773Y-11556779D01*
X2159729Y-11641825D01*
X1758055Y-11720466D01*
X1346852Y-11782952D01*
X979217Y-11819535D01*
X815500Y-11825085D01*
X328667Y-11824000D01*
X328667Y-5249478D01*
X1180820Y-5100330D01*
X1863004Y-4946284D01*
X2432861Y-4731036D01*
X2943847Y-4427882D01*
X3449418Y-4010116D01*
X3546000Y-3918733D01*
X4006590Y-3488361D01*
X4390265Y-3163825D01*
X4730269Y-2922358D01*
X5059844Y-2741194D01*
X5412233Y-2597564D01*
X5536708Y-2555334D01*
X6340859Y-2379887D01*
X7161690Y-2371020D01*
X7993500Y-2527462D01*
X8830592Y-2847945D01*
X9667266Y-3331199D01*
X9962018Y-3540849D01*
X10310129Y-3770012D01*
X10672994Y-3958299D01*
X10999794Y-4082200D01*
X11212482Y-4119333D01*
X11343374Y-4068315D01*
X11531553Y-3941621D01*
X11582837Y-3900140D01*
X11777747Y-3672454D01*
X11841184Y-3416440D01*
X11769623Y-3117677D01*
X11559539Y-2761743D01*
X11207406Y-2334217D01*
X11197304Y-2323094D01*
X10826238Y-1832630D01*
X10561093Y-1307717D01*
X10421098Y-791091D01*
X10404000Y-560157D01*
X10404000Y-224667D01*
X24289333Y-224667D01*
X24285661Y-838500D01*
G36*
X89621743Y-613339D02*
G01*
X89549545Y-948071D01*
X89436600Y-1295254D01*
X89404556Y-1372564D01*
X89207312Y-1709522D01*
X88914635Y-2081566D01*
X88575114Y-2434717D01*
X88237332Y-2714996D01*
X88137015Y-2780799D01*
X87861453Y-2962464D01*
X87593772Y-3161562D01*
X87568209Y-3182361D01*
X87064289Y-3589509D01*
X86656458Y-3896051D01*
X86317746Y-4117701D01*
X86021180Y-4270172D01*
X85739791Y-4369175D01*
X85446605Y-4430424D01*
X85418667Y-4434630D01*
X85195360Y-4481320D01*
X85045893Y-4537278D01*
X85037667Y-4542923D01*
X84900227Y-4605044D01*
X84686382Y-4664761D01*
X84681462Y-4665820D01*
X84421053Y-4742887D01*
X84132798Y-4857123D01*
X84088795Y-4877578D01*
X83737966Y-5004286D01*
X83251568Y-5120344D01*
X82663296Y-5219986D01*
X82006845Y-5297447D01*
X81358068Y-5344864D01*
X80969838Y-5370707D01*
X80647061Y-5403471D01*
X80425358Y-5438787D01*
X80341405Y-5469570D01*
X80241578Y-5516993D01*
X80012963Y-5581340D01*
X79694320Y-5655008D01*
X79324409Y-5730393D01*
X78941988Y-5799892D01*
X78585818Y-5855901D01*
X78294658Y-5890817D01*
X78154202Y-5898630D01*
X77872764Y-5921523D01*
X77710392Y-6010969D01*
X77619673Y-6202546D01*
X77591813Y-6320667D01*
X77547041Y-6842654D01*
X77596341Y-7433991D01*
X77727456Y-8032242D01*
X77928131Y-8574966D01*
X78092677Y-8872342D01*
X78238962Y-9063653D01*
X78415855Y-9222004D01*
X78655341Y-9366145D01*
X78989409Y-9514824D01*
X79450047Y-9686791D01*
X79531002Y-9715390D01*
X80224671Y-9963290D01*
X80808245Y-10180279D01*
X81257716Y-10357398D01*
X81312333Y-10380077D01*
X81653135Y-10488041D01*
X82024725Y-10527607D01*
X82473221Y-10500514D01*
X82878667Y-10439115D01*
X83679061Y-10306810D01*
X84349312Y-10218848D01*
X84922201Y-10173430D01*
X85430509Y-10168756D01*
X85907018Y-10203025D01*
X86263544Y-10253250D01*
X87276189Y-10471013D01*
X88171501Y-10763695D01*
X88940476Y-11126288D01*
X89574114Y-11553785D01*
X90063412Y-12041178D01*
X90380960Y-12543667D01*
X90531592Y-13017887D01*
X90569868Y-13530214D01*
X90505018Y-14043154D01*
X90346272Y-14519215D01*
X90102862Y-14920903D01*
X89784018Y-15210727D01*
X89714507Y-15250664D01*
X89490390Y-15367937D01*
X89355667Y-15438301D01*
X88796996Y-15661992D01*
X88215634Y-15783095D01*
X87941069Y-15831798D01*
X87714049Y-15904704D01*
X87665300Y-15929830D01*
X87465824Y-16005114D01*
X87122588Y-16081014D01*
X86661101Y-16153544D01*
X86106873Y-16218717D01*
X85485416Y-16272547D01*
X85461000Y-16274303D01*
X85019022Y-16314521D01*
X84549114Y-16370991D01*
X84142432Y-16432556D01*
X84088683Y-16442253D01*
X83739981Y-16493163D01*
X83415379Y-16516941D01*
X83187861Y-16508686D01*
X82953576Y-16504050D01*
X82617258Y-16537248D01*
X82232345Y-16598383D01*
X81852276Y-16677563D01*
X81530489Y-16764893D01*
X81320424Y-16850480D01*
X81311322Y-16856126D01*
X81131748Y-16925033D01*
X80819703Y-16997755D01*
X80411819Y-17069257D01*
X79944727Y-17134504D01*
X79455058Y-17188463D01*
X78979444Y-17226099D01*
X78554516Y-17242378D01*
X78498700Y-17242667D01*
X78152740Y-17251875D01*
X77869537Y-17276475D01*
X77693175Y-17311930D01*
X77661723Y-17328810D01*
X77548010Y-17364407D01*
X77300725Y-17398661D01*
X76955612Y-17427802D01*
X76548414Y-17448061D01*
X76522956Y-17448906D01*
X76051083Y-17459992D01*
X75697275Y-17454551D01*
X75410653Y-17427553D01*
X75140340Y-17373964D01*
X74835456Y-17288752D01*
X74802600Y-17278755D01*
X74472966Y-17193736D01*
X74026138Y-17100375D01*
X73513301Y-17008311D01*
X72985635Y-16927187D01*
X72812933Y-16903938D01*
X72144959Y-16813023D01*
X71613891Y-16727920D01*
X71187864Y-16640672D01*
X70835010Y-16543326D01*
X70523465Y-16427926D01*
X70221361Y-16286517D01*
X70112834Y-16229874D01*
X69585229Y-15898099D01*
X69153376Y-15501416D01*
X68796821Y-15044163D01*
X68626503Y-14752330D01*
X68535770Y-14456725D01*
X68499583Y-14135591D01*
X68499507Y-13799552D01*
X68554873Y-13489601D01*
X68680239Y-13172009D01*
X68890162Y-12813049D01*
X69199202Y-12378993D01*
X69334044Y-12202355D01*
X69578035Y-11861675D01*
X69798824Y-11509422D01*
X69960224Y-11204863D01*
X69998307Y-11114368D01*
X70157476Y-10607006D01*
X70290508Y-10023463D01*
X70393967Y-9399710D01*
X70464415Y-8771720D01*
X70498414Y-8175465D01*
X70492526Y-7646917D01*
X70443314Y-7222047D01*
X70389076Y-7025258D01*
X70284563Y-6807582D01*
X70180389Y-6676550D01*
X70141062Y-6659333D01*
X69998685Y-6609086D01*
X69761758Y-6474863D01*
X69465523Y-6281443D01*
X69145224Y-6053605D01*
X68836102Y-5816127D01*
X68573401Y-5593790D01*
X68436265Y-5460710D01*
X68228558Y-5224344D01*
X68004401Y-4945339D01*
X67790274Y-4659922D01*
X67612659Y-4404321D01*
X67498034Y-4214762D01*
X67469333Y-4137858D01*
X67405803Y-4024917D01*
X67233712Y-3835844D01*
X66980811Y-3594972D01*
X66674854Y-3326632D01*
X66343589Y-3055156D01*
X66014770Y-2804877D01*
X65716147Y-2600126D01*
X65713836Y-2598663D01*
X65377814Y-2369460D01*
X65070252Y-2130603D01*
X64839500Y-1920768D01*
X64774450Y-1847205D01*
X64472089Y-1420476D01*
X64245415Y-1019469D01*
X64111703Y-678012D01*
X64082667Y-492395D01*
X64082667Y-224667D01*
X89675016Y-224667D01*
X89621743Y-613339D01*
X89621743Y-613339D01*
G37*
X89621743Y-613339D02*
X89549545Y-948071D01*
X89436600Y-1295254D01*
X89404556Y-1372564D01*
X89207312Y-1709522D01*
X88914635Y-2081566D01*
X88575114Y-2434717D01*
X88237332Y-2714996D01*
X88137015Y-2780799D01*
X87861453Y-2962464D01*
X87593772Y-3161562D01*
X87568209Y-3182361D01*
X87064289Y-3589509D01*
X86656458Y-3896051D01*
X86317746Y-4117701D01*
X86021180Y-4270172D01*
X85739791Y-4369175D01*
X85446605Y-4430424D01*
X85418667Y-4434630D01*
X85195360Y-4481320D01*
X85045893Y-4537278D01*
X85037667Y-4542923D01*
X84900227Y-4605044D01*
X84686382Y-4664761D01*
X84681462Y-4665820D01*
X84421053Y-4742887D01*
X84132798Y-4857123D01*
X84088795Y-4877578D01*
X83737966Y-5004286D01*
X83251568Y-5120344D01*
X82663296Y-5219986D01*
X82006845Y-5297447D01*
X81358068Y-5344864D01*
X80969838Y-5370707D01*
X80647061Y-5403471D01*
X80425358Y-5438787D01*
X80341405Y-5469570D01*
X80241578Y-5516993D01*
X80012963Y-5581340D01*
X79694320Y-5655008D01*
X79324409Y-5730393D01*
X78941988Y-5799892D01*
X78585818Y-5855901D01*
X78294658Y-5890817D01*
X78154202Y-5898630D01*
X77872764Y-5921523D01*
X77710392Y-6010969D01*
X77619673Y-6202546D01*
X77591813Y-6320667D01*
X77547041Y-6842654D01*
X77596341Y-7433991D01*
X77727456Y-8032242D01*
X77928131Y-8574966D01*
X78092677Y-8872342D01*
X78238962Y-9063653D01*
X78415855Y-9222004D01*
X78655341Y-9366145D01*
X78989409Y-9514824D01*
X79450047Y-9686791D01*
X79531002Y-9715390D01*
X80224671Y-9963290D01*
X80808245Y-10180279D01*
X81257716Y-10357398D01*
X81312333Y-10380077D01*
X81653135Y-10488041D01*
X82024725Y-10527607D01*
X82473221Y-10500514D01*
X82878667Y-10439115D01*
X83679061Y-10306810D01*
X84349312Y-10218848D01*
X84922201Y-10173430D01*
X85430509Y-10168756D01*
X85907018Y-10203025D01*
X86263544Y-10253250D01*
X87276189Y-10471013D01*
X88171501Y-10763695D01*
X88940476Y-11126288D01*
X89574114Y-11553785D01*
X90063412Y-12041178D01*
X90380960Y-12543667D01*
X90531592Y-13017887D01*
X90569868Y-13530214D01*
X90505018Y-14043154D01*
X90346272Y-14519215D01*
X90102862Y-14920903D01*
X89784018Y-15210727D01*
X89714507Y-15250664D01*
X89490390Y-15367937D01*
X89355667Y-15438301D01*
X88796996Y-15661992D01*
X88215634Y-15783095D01*
X87941069Y-15831798D01*
X87714049Y-15904704D01*
X87665300Y-15929830D01*
X87465824Y-16005114D01*
X87122588Y-16081014D01*
X86661101Y-16153544D01*
X86106873Y-16218717D01*
X85485416Y-16272547D01*
X85461000Y-16274303D01*
X85019022Y-16314521D01*
X84549114Y-16370991D01*
X84142432Y-16432556D01*
X84088683Y-16442253D01*
X83739981Y-16493163D01*
X83415379Y-16516941D01*
X83187861Y-16508686D01*
X82953576Y-16504050D01*
X82617258Y-16537248D01*
X82232345Y-16598383D01*
X81852276Y-16677563D01*
X81530489Y-16764893D01*
X81320424Y-16850480D01*
X81311322Y-16856126D01*
X81131748Y-16925033D01*
X80819703Y-16997755D01*
X80411819Y-17069257D01*
X79944727Y-17134504D01*
X79455058Y-17188463D01*
X78979444Y-17226099D01*
X78554516Y-17242378D01*
X78498700Y-17242667D01*
X78152740Y-17251875D01*
X77869537Y-17276475D01*
X77693175Y-17311930D01*
X77661723Y-17328810D01*
X77548010Y-17364407D01*
X77300725Y-17398661D01*
X76955612Y-17427802D01*
X76548414Y-17448061D01*
X76522956Y-17448906D01*
X76051083Y-17459992D01*
X75697275Y-17454551D01*
X75410653Y-17427553D01*
X75140340Y-17373964D01*
X74835456Y-17288752D01*
X74802600Y-17278755D01*
X74472966Y-17193736D01*
X74026138Y-17100375D01*
X73513301Y-17008311D01*
X72985635Y-16927187D01*
X72812933Y-16903938D01*
X72144959Y-16813023D01*
X71613891Y-16727920D01*
X71187864Y-16640672D01*
X70835010Y-16543326D01*
X70523465Y-16427926D01*
X70221361Y-16286517D01*
X70112834Y-16229874D01*
X69585229Y-15898099D01*
X69153376Y-15501416D01*
X68796821Y-15044163D01*
X68626503Y-14752330D01*
X68535770Y-14456725D01*
X68499583Y-14135591D01*
X68499507Y-13799552D01*
X68554873Y-13489601D01*
X68680239Y-13172009D01*
X68890162Y-12813049D01*
X69199202Y-12378993D01*
X69334044Y-12202355D01*
X69578035Y-11861675D01*
X69798824Y-11509422D01*
X69960224Y-11204863D01*
X69998307Y-11114368D01*
X70157476Y-10607006D01*
X70290508Y-10023463D01*
X70393967Y-9399710D01*
X70464415Y-8771720D01*
X70498414Y-8175465D01*
X70492526Y-7646917D01*
X70443314Y-7222047D01*
X70389076Y-7025258D01*
X70284563Y-6807582D01*
X70180389Y-6676550D01*
X70141062Y-6659333D01*
X69998685Y-6609086D01*
X69761758Y-6474863D01*
X69465523Y-6281443D01*
X69145224Y-6053605D01*
X68836102Y-5816127D01*
X68573401Y-5593790D01*
X68436265Y-5460710D01*
X68228558Y-5224344D01*
X68004401Y-4945339D01*
X67790274Y-4659922D01*
X67612659Y-4404321D01*
X67498034Y-4214762D01*
X67469333Y-4137858D01*
X67405803Y-4024917D01*
X67233712Y-3835844D01*
X66980811Y-3594972D01*
X66674854Y-3326632D01*
X66343589Y-3055156D01*
X66014770Y-2804877D01*
X65716147Y-2600126D01*
X65713836Y-2598663D01*
X65377814Y-2369460D01*
X65070252Y-2130603D01*
X64839500Y-1920768D01*
X64774450Y-1847205D01*
X64472089Y-1420476D01*
X64245415Y-1019469D01*
X64111703Y-678012D01*
X64082667Y-492395D01*
X64082667Y-224667D01*
X89675016Y-224667D01*
X89621743Y-613339D01*
G36*
X43317370Y-909903D02*
G01*
X43588638Y-934346D01*
X43872363Y-983811D01*
X44198853Y-1065704D01*
X44598414Y-1187429D01*
X45101357Y-1356389D01*
X45602576Y-1531981D01*
X46176098Y-1687433D01*
X46769409Y-1746044D01*
X47419947Y-1707888D01*
X48165153Y-1573039D01*
X48317218Y-1537296D01*
X49168501Y-1352184D01*
X49900173Y-1244491D01*
X50544020Y-1215790D01*
X51131828Y-1267655D01*
X51695382Y-1401660D01*
X52266470Y-1619377D01*
X52536595Y-1746169D01*
X53032026Y-2010810D01*
X53429699Y-2279812D01*
X53760851Y-2585999D01*
X54056721Y-2962197D01*
X54348547Y-3441232D01*
X54593662Y-3907789D01*
X54815115Y-4341811D01*
X54989370Y-4659229D01*
X55142992Y-4895866D01*
X55302544Y-5087543D01*
X55494588Y-5270080D01*
X55745688Y-5479300D01*
X55778995Y-5506241D01*
X56241797Y-5890830D01*
X56589216Y-6208515D01*
X56846416Y-6486842D01*
X57038563Y-6753354D01*
X57190819Y-7035596D01*
X57205922Y-7068153D01*
X57349728Y-7502213D01*
X57346755Y-7863580D01*
X57205284Y-8153678D01*
X57021502Y-8362613D01*
X56807141Y-8572819D01*
X56603745Y-8747203D01*
X56452856Y-8848674D01*
X56413466Y-8860667D01*
X56272161Y-8897413D01*
X56072553Y-8985909D01*
X56070178Y-8987145D01*
X55822504Y-9063747D01*
X55462665Y-9107323D01*
X55239089Y-9114145D01*
X54734362Y-9146382D01*
X54194061Y-9234974D01*
X53649601Y-9369012D01*
X53132397Y-9537583D01*
X52673863Y-9729779D01*
X52305416Y-9934687D01*
X52058469Y-10141398D01*
X51990132Y-10242527D01*
X51925130Y-10418827D01*
X51960240Y-10547621D01*
X52076684Y-10678441D01*
X52309063Y-10851786D01*
X52670587Y-11048547D01*
X53125916Y-11251894D01*
X53639714Y-11445001D01*
X53795667Y-11497027D01*
X54093519Y-11596415D01*
X54346244Y-11685842D01*
X54473000Y-11735152D01*
X55239518Y-12073992D01*
X55873858Y-12368472D01*
X56402726Y-12632788D01*
X56852832Y-12881134D01*
X57250884Y-13127705D01*
X57623590Y-13386696D01*
X57732667Y-13467596D01*
X58133291Y-13756080D01*
X58568356Y-14049155D01*
X58975152Y-14305442D01*
X59198018Y-14434518D01*
X59748175Y-14770414D01*
X60153938Y-15102543D01*
X60438099Y-15454007D01*
X60623452Y-15847911D01*
X60638812Y-15894900D01*
X60720770Y-16240238D01*
X60717902Y-16544164D01*
X60623103Y-16872203D01*
X60503859Y-17139675D01*
X60343427Y-17327302D01*
X60056476Y-17528185D01*
X59682238Y-17720931D01*
X59259946Y-17884145D01*
X59002667Y-17958294D01*
X58692085Y-18040375D01*
X58428493Y-18118546D01*
X58283000Y-18170331D01*
X58094066Y-18228908D01*
X57827173Y-18284159D01*
X57736867Y-18298130D01*
X57487704Y-18344625D01*
X57307518Y-18399185D01*
X57271201Y-18418777D01*
X57133937Y-18464048D01*
X56835816Y-18516462D01*
X56385119Y-18575080D01*
X55790128Y-18638959D01*
X55059126Y-18707161D01*
X54200395Y-18778745D01*
X53880333Y-18803723D01*
X52949213Y-18872201D01*
X52165561Y-18922495D01*
X51508537Y-18955040D01*
X50957302Y-18970270D01*
X50491017Y-18968621D01*
X50088842Y-18950527D01*
X49729940Y-18916423D01*
X49562333Y-18893818D01*
X49142944Y-18839961D01*
X48713978Y-18798089D01*
X48354297Y-18775619D01*
X48287606Y-18773945D01*
X47679019Y-18706380D01*
X47109178Y-18532304D01*
X46623819Y-18268547D01*
X46395531Y-18077609D01*
X46101318Y-17719988D01*
X45933003Y-17349295D01*
X45892429Y-16949148D01*
X45981439Y-16503159D01*
X46201875Y-15994944D01*
X46555581Y-15408118D01*
X46723192Y-15164112D01*
X46935791Y-14850702D01*
X47069319Y-14605616D01*
X47149218Y-14363948D01*
X47200929Y-14060788D01*
X47220976Y-13894112D01*
X47353687Y-13259277D01*
X47598123Y-12595044D01*
X47927357Y-11969220D01*
X48071599Y-11752068D01*
X48195454Y-11504073D01*
X48249885Y-11248477D01*
X48250000Y-11238870D01*
X48203513Y-11002284D01*
X48054758Y-10808101D01*
X47789794Y-10649846D01*
X47394681Y-10521045D01*
X46855478Y-10415223D01*
X46323681Y-10344213D01*
X46042266Y-10303311D01*
X45836001Y-10257344D01*
X45755822Y-10220977D01*
X45656720Y-10191772D01*
X45425236Y-10170966D01*
X45098109Y-10158465D01*
X44712078Y-10154175D01*
X44303880Y-10158002D01*
X43910254Y-10169852D01*
X43567938Y-10189632D01*
X43313672Y-10217246D01*
X43258539Y-10227368D01*
X42958490Y-10305750D01*
X42680888Y-10399891D01*
X42623539Y-10423882D01*
X42355028Y-10508072D01*
X41977763Y-10581186D01*
X41544637Y-10637880D01*
X41108545Y-10672811D01*
X40722380Y-10680634D01*
X40439036Y-10656006D01*
X40404399Y-10648076D01*
X40209410Y-10619871D01*
X39882369Y-10597752D01*
X39460497Y-10583204D01*
X38981012Y-10577713D01*
X38682667Y-10579365D01*
X37285667Y-10596333D01*
X36566000Y-10953659D01*
X36143612Y-11165969D01*
X35812399Y-11340632D01*
X35510329Y-11512122D01*
X35175370Y-11714914D01*
X34999667Y-11824140D01*
X34749418Y-11973378D01*
X34519213Y-12087706D01*
X34278368Y-12173897D01*
X33996199Y-12238723D01*
X33642022Y-12288956D01*
X33185153Y-12331367D01*
X32594908Y-12372729D01*
X32480952Y-12380026D01*
X32123932Y-12409809D01*
X31834225Y-12447328D01*
X31650916Y-12486797D01*
X31608122Y-12509226D01*
X31505930Y-12547168D01*
X31281211Y-12575238D01*
X30980717Y-12587824D01*
X30951836Y-12588005D01*
X30610010Y-12595847D01*
X30164318Y-12615466D01*
X29679565Y-12643651D01*
X29331870Y-12668283D01*
X28666874Y-12699148D01*
X28101622Y-12670635D01*
X27586438Y-12570943D01*
X27071646Y-12388274D01*
X26507571Y-12110826D01*
X26160844Y-11915025D01*
X25682739Y-11563905D01*
X25353668Y-11165539D01*
X25176061Y-10737203D01*
X25152345Y-10296173D01*
X25284950Y-9859727D01*
X25576305Y-9445141D01*
X25785963Y-9248383D01*
X26011253Y-9073796D01*
X26327282Y-8844610D01*
X26700468Y-8583490D01*
X27097227Y-8313100D01*
X27483979Y-8056105D01*
X27827140Y-7835170D01*
X28093130Y-7672960D01*
X28226333Y-7601366D01*
X28456294Y-7542190D01*
X28854255Y-7497848D01*
X29419529Y-7468403D01*
X29750333Y-7459575D01*
X30425142Y-7453601D01*
X30986427Y-7469089D01*
X31489143Y-7510521D01*
X31988247Y-7582376D01*
X32521596Y-7685528D01*
X32817191Y-7737401D01*
X33073308Y-7748979D01*
X33310455Y-7707787D01*
X33549138Y-7601349D01*
X33809866Y-7417191D01*
X34113145Y-7142837D01*
X34479483Y-6765812D01*
X34929387Y-6273641D01*
X35034019Y-6157147D01*
X35569535Y-5639493D01*
X36168273Y-5224304D01*
X36875249Y-4881866D01*
X37096144Y-4795935D01*
X37623736Y-4514221D01*
X38115164Y-4082762D01*
X38550672Y-3520352D01*
X38701276Y-3269251D01*
X39026812Y-2784457D01*
X39437851Y-2320421D01*
X39887009Y-1924900D01*
X40297546Y-1660346D01*
X40543274Y-1548852D01*
X40893133Y-1407988D01*
X41290048Y-1260220D01*
X41504250Y-1185330D01*
X41956039Y-1041668D01*
X42320700Y-955062D01*
X42665511Y-913050D01*
X43028250Y-903081D01*
X43317370Y-909903D01*
X43317370Y-909903D01*
G37*
X43317370Y-909903D02*
X43588638Y-934346D01*
X43872363Y-983811D01*
X44198853Y-1065704D01*
X44598414Y-1187429D01*
X45101357Y-1356389D01*
X45602576Y-1531981D01*
X46176098Y-1687433D01*
X46769409Y-1746044D01*
X47419947Y-1707888D01*
X48165153Y-1573039D01*
X48317218Y-1537296D01*
X49168501Y-1352184D01*
X49900173Y-1244491D01*
X50544020Y-1215790D01*
X51131828Y-1267655D01*
X51695382Y-1401660D01*
X52266470Y-1619377D01*
X52536595Y-1746169D01*
X53032026Y-2010810D01*
X53429699Y-2279812D01*
X53760851Y-2585999D01*
X54056721Y-2962197D01*
X54348547Y-3441232D01*
X54593662Y-3907789D01*
X54815115Y-4341811D01*
X54989370Y-4659229D01*
X55142992Y-4895866D01*
X55302544Y-5087543D01*
X55494588Y-5270080D01*
X55745688Y-5479300D01*
X55778995Y-5506241D01*
X56241797Y-5890830D01*
X56589216Y-6208515D01*
X56846416Y-6486842D01*
X57038563Y-6753354D01*
X57190819Y-7035596D01*
X57205922Y-7068153D01*
X57349728Y-7502213D01*
X57346755Y-7863580D01*
X57205284Y-8153678D01*
X57021502Y-8362613D01*
X56807141Y-8572819D01*
X56603745Y-8747203D01*
X56452856Y-8848674D01*
X56413466Y-8860667D01*
X56272161Y-8897413D01*
X56072553Y-8985909D01*
X56070178Y-8987145D01*
X55822504Y-9063747D01*
X55462665Y-9107323D01*
X55239089Y-9114145D01*
X54734362Y-9146382D01*
X54194061Y-9234974D01*
X53649601Y-9369012D01*
X53132397Y-9537583D01*
X52673863Y-9729779D01*
X52305416Y-9934687D01*
X52058469Y-10141398D01*
X51990132Y-10242527D01*
X51925130Y-10418827D01*
X51960240Y-10547621D01*
X52076684Y-10678441D01*
X52309063Y-10851786D01*
X52670587Y-11048547D01*
X53125916Y-11251894D01*
X53639714Y-11445001D01*
X53795667Y-11497027D01*
X54093519Y-11596415D01*
X54346244Y-11685842D01*
X54473000Y-11735152D01*
X55239518Y-12073992D01*
X55873858Y-12368472D01*
X56402726Y-12632788D01*
X56852832Y-12881134D01*
X57250884Y-13127705D01*
X57623590Y-13386696D01*
X57732667Y-13467596D01*
X58133291Y-13756080D01*
X58568356Y-14049155D01*
X58975152Y-14305442D01*
X59198018Y-14434518D01*
X59748175Y-14770414D01*
X60153938Y-15102543D01*
X60438099Y-15454007D01*
X60623452Y-15847911D01*
X60638812Y-15894900D01*
X60720770Y-16240238D01*
X60717902Y-16544164D01*
X60623103Y-16872203D01*
X60503859Y-17139675D01*
X60343427Y-17327302D01*
X60056476Y-17528185D01*
X59682238Y-17720931D01*
X59259946Y-17884145D01*
X59002667Y-17958294D01*
X58692085Y-18040375D01*
X58428493Y-18118546D01*
X58283000Y-18170331D01*
X58094066Y-18228908D01*
X57827173Y-18284159D01*
X57736867Y-18298130D01*
X57487704Y-18344625D01*
X57307518Y-18399185D01*
X57271201Y-18418777D01*
X57133937Y-18464048D01*
X56835816Y-18516462D01*
X56385119Y-18575080D01*
X55790128Y-18638959D01*
X55059126Y-18707161D01*
X54200395Y-18778745D01*
X53880333Y-18803723D01*
X52949213Y-18872201D01*
X52165561Y-18922495D01*
X51508537Y-18955040D01*
X50957302Y-18970270D01*
X50491017Y-18968621D01*
X50088842Y-18950527D01*
X49729940Y-18916423D01*
X49562333Y-18893818D01*
X49142944Y-18839961D01*
X48713978Y-18798089D01*
X48354297Y-18775619D01*
X48287606Y-18773945D01*
X47679019Y-18706380D01*
X47109178Y-18532304D01*
X46623819Y-18268547D01*
X46395531Y-18077609D01*
X46101318Y-17719988D01*
X45933003Y-17349295D01*
X45892429Y-16949148D01*
X45981439Y-16503159D01*
X46201875Y-15994944D01*
X46555581Y-15408118D01*
X46723192Y-15164112D01*
X46935791Y-14850702D01*
X47069319Y-14605616D01*
X47149218Y-14363948D01*
X47200929Y-14060788D01*
X47220976Y-13894112D01*
X47353687Y-13259277D01*
X47598123Y-12595044D01*
X47927357Y-11969220D01*
X48071599Y-11752068D01*
X48195454Y-11504073D01*
X48249885Y-11248477D01*
X48250000Y-11238870D01*
X48203513Y-11002284D01*
X48054758Y-10808101D01*
X47789794Y-10649846D01*
X47394681Y-10521045D01*
X46855478Y-10415223D01*
X46323681Y-10344213D01*
X46042266Y-10303311D01*
X45836001Y-10257344D01*
X45755822Y-10220977D01*
X45656720Y-10191772D01*
X45425236Y-10170966D01*
X45098109Y-10158465D01*
X44712078Y-10154175D01*
X44303880Y-10158002D01*
X43910254Y-10169852D01*
X43567938Y-10189632D01*
X43313672Y-10217246D01*
X43258539Y-10227368D01*
X42958490Y-10305750D01*
X42680888Y-10399891D01*
X42623539Y-10423882D01*
X42355028Y-10508072D01*
X41977763Y-10581186D01*
X41544637Y-10637880D01*
X41108545Y-10672811D01*
X40722380Y-10680634D01*
X40439036Y-10656006D01*
X40404399Y-10648076D01*
X40209410Y-10619871D01*
X39882369Y-10597752D01*
X39460497Y-10583204D01*
X38981012Y-10577713D01*
X38682667Y-10579365D01*
X37285667Y-10596333D01*
X36566000Y-10953659D01*
X36143612Y-11165969D01*
X35812399Y-11340632D01*
X35510329Y-11512122D01*
X35175370Y-11714914D01*
X34999667Y-11824140D01*
X34749418Y-11973378D01*
X34519213Y-12087706D01*
X34278368Y-12173897D01*
X33996199Y-12238723D01*
X33642022Y-12288956D01*
X33185153Y-12331367D01*
X32594908Y-12372729D01*
X32480952Y-12380026D01*
X32123932Y-12409809D01*
X31834225Y-12447328D01*
X31650916Y-12486797D01*
X31608122Y-12509226D01*
X31505930Y-12547168D01*
X31281211Y-12575238D01*
X30980717Y-12587824D01*
X30951836Y-12588005D01*
X30610010Y-12595847D01*
X30164318Y-12615466D01*
X29679565Y-12643651D01*
X29331870Y-12668283D01*
X28666874Y-12699148D01*
X28101622Y-12670635D01*
X27586438Y-12570943D01*
X27071646Y-12388274D01*
X26507571Y-12110826D01*
X26160844Y-11915025D01*
X25682739Y-11563905D01*
X25353668Y-11165539D01*
X25176061Y-10737203D01*
X25152345Y-10296173D01*
X25284950Y-9859727D01*
X25576305Y-9445141D01*
X25785963Y-9248383D01*
X26011253Y-9073796D01*
X26327282Y-8844610D01*
X26700468Y-8583490D01*
X27097227Y-8313100D01*
X27483979Y-8056105D01*
X27827140Y-7835170D01*
X28093130Y-7672960D01*
X28226333Y-7601366D01*
X28456294Y-7542190D01*
X28854255Y-7497848D01*
X29419529Y-7468403D01*
X29750333Y-7459575D01*
X30425142Y-7453601D01*
X30986427Y-7469089D01*
X31489143Y-7510521D01*
X31988247Y-7582376D01*
X32521596Y-7685528D01*
X32817191Y-7737401D01*
X33073308Y-7748979D01*
X33310455Y-7707787D01*
X33549138Y-7601349D01*
X33809866Y-7417191D01*
X34113145Y-7142837D01*
X34479483Y-6765812D01*
X34929387Y-6273641D01*
X35034019Y-6157147D01*
X35569535Y-5639493D01*
X36168273Y-5224304D01*
X36875249Y-4881866D01*
X37096144Y-4795935D01*
X37623736Y-4514221D01*
X38115164Y-4082762D01*
X38550672Y-3520352D01*
X38701276Y-3269251D01*
X39026812Y-2784457D01*
X39437851Y-2320421D01*
X39887009Y-1924900D01*
X40297546Y-1660346D01*
X40543274Y-1548852D01*
X40893133Y-1407988D01*
X41290048Y-1260220D01*
X41504250Y-1185330D01*
X41956039Y-1041668D01*
X42320700Y-955062D01*
X42665511Y-913050D01*
X43028250Y-903081D01*
X43317370Y-909903D01*
G36*
X66261217Y-20520794D02*
G01*
X66578122Y-20533886D01*
X66840822Y-20574496D01*
X67108344Y-20658508D01*
X67439715Y-20801804D01*
X67615884Y-20885291D01*
X68007325Y-21070520D01*
X68319415Y-21205705D01*
X68596835Y-21302960D01*
X68884268Y-21374396D01*
X69226398Y-21432123D01*
X69667906Y-21488254D01*
X69967000Y-21522576D01*
X70599235Y-21603396D01*
X71093166Y-21691126D01*
X71479805Y-21795257D01*
X71790160Y-21925281D01*
X72055243Y-22090689D01*
X72199772Y-22205983D01*
X72581322Y-22614558D01*
X72796562Y-23040228D01*
X72847003Y-23477514D01*
X72734156Y-23920940D01*
X72459534Y-24365027D01*
X72024647Y-24804299D01*
X71431008Y-25233279D01*
X71350635Y-25282917D01*
X70729000Y-25660834D01*
X69713000Y-25642986D01*
X69062674Y-25650170D01*
X68454329Y-25691665D01*
X68003639Y-25753669D01*
X67036925Y-25918449D01*
X66222371Y-26025625D01*
X65553067Y-26075653D01*
X65022106Y-26068991D01*
X64622578Y-26006093D01*
X64544260Y-25982265D01*
X64146106Y-25811043D01*
X63696788Y-25561117D01*
X63232854Y-25258947D01*
X62790850Y-24930995D01*
X62407323Y-24603720D01*
X62118822Y-24303584D01*
X62003834Y-24142961D01*
X61835393Y-23758837D01*
X61814161Y-23403103D01*
X61933146Y-23034315D01*
X62057762Y-22851851D01*
X62254722Y-22640653D01*
X62478855Y-22441063D01*
X62684991Y-22293421D01*
X62824810Y-22238000D01*
X62942963Y-22194629D01*
X63158522Y-22081655D01*
X63428930Y-21924785D01*
X63711628Y-21749726D01*
X63964060Y-21582184D01*
X64143669Y-21447867D01*
X64167333Y-21427044D01*
X64340431Y-21293792D01*
X64611480Y-21113925D01*
X64929272Y-20920988D01*
X65014000Y-20872390D01*
X65338780Y-20694910D01*
X65580763Y-20588609D01*
X65801497Y-20536136D01*
X66062533Y-20520139D01*
X66261217Y-20520794D01*
X66261217Y-20520794D01*
G37*
X66261217Y-20520794D02*
X66578122Y-20533886D01*
X66840822Y-20574496D01*
X67108344Y-20658508D01*
X67439715Y-20801804D01*
X67615884Y-20885291D01*
X68007325Y-21070520D01*
X68319415Y-21205705D01*
X68596835Y-21302960D01*
X68884268Y-21374396D01*
X69226398Y-21432123D01*
X69667906Y-21488254D01*
X69967000Y-21522576D01*
X70599235Y-21603396D01*
X71093166Y-21691126D01*
X71479805Y-21795257D01*
X71790160Y-21925281D01*
X72055243Y-22090689D01*
X72199772Y-22205983D01*
X72581322Y-22614558D01*
X72796562Y-23040228D01*
X72847003Y-23477514D01*
X72734156Y-23920940D01*
X72459534Y-24365027D01*
X72024647Y-24804299D01*
X71431008Y-25233279D01*
X71350635Y-25282917D01*
X70729000Y-25660834D01*
X69713000Y-25642986D01*
X69062674Y-25650170D01*
X68454329Y-25691665D01*
X68003639Y-25753669D01*
X67036925Y-25918449D01*
X66222371Y-26025625D01*
X65553067Y-26075653D01*
X65022106Y-26068991D01*
X64622578Y-26006093D01*
X64544260Y-25982265D01*
X64146106Y-25811043D01*
X63696788Y-25561117D01*
X63232854Y-25258947D01*
X62790850Y-24930995D01*
X62407323Y-24603720D01*
X62118822Y-24303584D01*
X62003834Y-24142961D01*
X61835393Y-23758837D01*
X61814161Y-23403103D01*
X61933146Y-23034315D01*
X62057762Y-22851851D01*
X62254722Y-22640653D01*
X62478855Y-22441063D01*
X62684991Y-22293421D01*
X62824810Y-22238000D01*
X62942963Y-22194629D01*
X63158522Y-22081655D01*
X63428930Y-21924785D01*
X63711628Y-21749726D01*
X63964060Y-21582184D01*
X64143669Y-21447867D01*
X64167333Y-21427044D01*
X64340431Y-21293792D01*
X64611480Y-21113925D01*
X64929272Y-20920988D01*
X65014000Y-20872390D01*
X65338780Y-20694910D01*
X65580763Y-20588609D01*
X65801497Y-20536136D01*
X66062533Y-20520139D01*
X66261217Y-20520794D01*
G36*
X20046665Y-16999618D02*
G01*
X20517494Y-17011093D01*
X21198162Y-17035789D01*
X21747974Y-17074576D01*
X22205263Y-17134575D01*
X22608360Y-17222905D01*
X22995601Y-17346686D01*
X23405317Y-17513037D01*
X23537765Y-17572045D01*
X23891825Y-17746663D01*
X24302072Y-17970812D01*
X24712813Y-18212056D01*
X25068354Y-18437962D01*
X25266917Y-18579076D01*
X25741732Y-18944966D01*
X26113867Y-19221612D01*
X26415045Y-19422768D01*
X26676990Y-19562190D01*
X26931426Y-19653633D01*
X27210079Y-19710853D01*
X27544672Y-19747603D01*
X27966929Y-19777641D01*
X28042680Y-19782607D01*
X28812617Y-19845713D01*
X29456198Y-19930730D01*
X30016009Y-20048038D01*
X30534636Y-20208018D01*
X31054662Y-20421049D01*
X31457495Y-20614944D01*
X31926966Y-20904084D01*
X32416377Y-21292956D01*
X32868531Y-21730729D01*
X33226231Y-22166571D01*
X33261015Y-22217722D01*
X33551606Y-22782144D01*
X33751102Y-23434190D01*
X33853546Y-24125463D01*
X33852982Y-24807564D01*
X33743452Y-25432097D01*
X33680174Y-25623136D01*
X33366047Y-26248695D01*
X32945279Y-26775500D01*
X32440263Y-27178417D01*
X32163333Y-27325487D01*
X31778094Y-27496115D01*
X31512077Y-27607091D01*
X31331602Y-27671527D01*
X31202989Y-27702539D01*
X31189667Y-27704604D01*
X30992044Y-27732969D01*
X30733508Y-27769496D01*
X30702555Y-27773834D01*
X30426304Y-27837332D01*
X30107428Y-27944397D01*
X29993292Y-27991494D01*
X29713328Y-28094801D01*
X29455854Y-28156744D01*
X29368248Y-28164667D01*
X29119836Y-28205124D01*
X28892178Y-28291145D01*
X28632164Y-28380467D01*
X28346424Y-28418142D01*
X28345289Y-28418145D01*
X28047910Y-28474964D01*
X27893789Y-28581234D01*
X27724084Y-28698425D01*
X27466306Y-28805654D01*
X27344234Y-28840344D01*
X26950210Y-28922693D01*
X26513015Y-28994622D01*
X26074949Y-29051349D01*
X25678312Y-29088094D01*
X25365405Y-29100073D01*
X25185185Y-29084419D01*
X24999136Y-29073314D01*
X24692349Y-29094605D01*
X24308729Y-29141109D01*
X23892180Y-29205639D01*
X23486608Y-29281010D01*
X23135917Y-29360039D01*
X22884011Y-29435540D01*
X22800899Y-29474603D01*
X22640864Y-29530729D01*
X22360188Y-29584935D01*
X22007438Y-29628789D01*
X21827232Y-29643654D01*
X21083511Y-29715990D01*
X20494865Y-29820094D01*
X20066442Y-29954985D01*
X19980224Y-29995868D01*
X19768611Y-30062271D01*
X19471892Y-30104720D01*
X19294000Y-30112730D01*
X18951300Y-30134373D01*
X18565370Y-30189828D01*
X18186040Y-30268366D01*
X17863143Y-30359254D01*
X17646508Y-30451760D01*
X17614019Y-30474520D01*
X17515136Y-30510258D01*
X17306614Y-30537725D01*
X16975490Y-30557538D01*
X16508799Y-30570315D01*
X15893575Y-30576674D01*
X15449581Y-30577667D01*
X14793429Y-30578929D01*
X14281607Y-30583832D01*
X13889126Y-30594050D01*
X13590994Y-30611257D01*
X13362220Y-30637127D01*
X13177814Y-30673335D01*
X13012785Y-30721554D01*
X12944000Y-30745517D01*
X12382422Y-30877711D01*
X12012667Y-30893332D01*
X11569857Y-30879456D01*
X11084815Y-30872844D01*
X10588329Y-30872917D01*
X10111184Y-30879095D01*
X9684167Y-30890796D01*
X9338065Y-30907440D01*
X9103662Y-30928448D01*
X9014521Y-30949848D01*
X8792014Y-31048863D01*
X8461467Y-31101169D01*
X8079488Y-31099625D01*
X7943439Y-31084948D01*
X7782489Y-31057877D01*
X7633915Y-31015161D01*
X7473987Y-30942313D01*
X7278974Y-30824847D01*
X7025146Y-30648277D01*
X6688770Y-30398120D01*
X6246118Y-30059887D01*
X6176651Y-30006479D01*
X5699837Y-29695117D01*
X5276570Y-29539713D01*
X4897395Y-29539046D01*
X4552860Y-29691897D01*
X4437946Y-29782104D01*
X4246446Y-29975337D01*
X4159440Y-30158879D01*
X4138669Y-30414117D01*
X4138667Y-30418786D01*
X4180170Y-30730350D01*
X4314079Y-31058408D01*
X4554495Y-31427770D01*
X4915517Y-31863250D01*
X5033216Y-31992905D01*
X5405392Y-32482481D01*
X5663346Y-33003235D01*
X5806886Y-33531072D01*
X5835820Y-34041895D01*
X5749956Y-34511607D01*
X5549101Y-34916110D01*
X5233063Y-35231310D01*
X5059877Y-35334299D01*
X4802443Y-35426209D01*
X4438019Y-35495427D01*
X3954671Y-35542708D01*
X3340465Y-35568805D01*
X2583466Y-35574473D01*
X1671739Y-35560467D01*
X1535167Y-35557084D01*
X328667Y-35526017D01*
X328667Y-22185654D01*
X730833Y-22047998D01*
X964085Y-21967977D01*
X1312623Y-21848177D01*
X1731642Y-21704009D01*
X2176342Y-21550881D01*
X2233667Y-21531133D01*
X2723410Y-21372582D01*
X3239307Y-21222544D01*
X3719428Y-21098103D01*
X4096333Y-21017310D01*
X4656260Y-20911850D01*
X5091251Y-20806321D01*
X5444381Y-20679538D01*
X5758724Y-20510318D01*
X6077357Y-20277477D01*
X6443355Y-19959831D01*
X6668659Y-19752277D01*
X7258768Y-19236340D01*
X7797233Y-18844224D01*
X8321178Y-18555547D01*
X8867726Y-18349929D01*
X9473999Y-18206988D01*
X9487933Y-18204458D01*
X10003709Y-18132065D01*
X10483061Y-18116213D01*
X10967789Y-18162035D01*
X11499696Y-18274666D01*
X12120583Y-18459240D01*
X12439777Y-18567008D01*
X12881816Y-18712030D01*
X13296802Y-18833282D01*
X13644243Y-18919943D01*
X13883645Y-18961194D01*
X13922149Y-18963144D01*
X14190755Y-18925524D01*
X14539147Y-18804900D01*
X14994151Y-18591867D01*
X15022815Y-18577276D01*
X15466245Y-18350770D01*
X15968393Y-18094272D01*
X16437178Y-17854817D01*
X16542333Y-17801105D01*
X16993249Y-17594850D01*
X17516745Y-17391508D01*
X18019246Y-17226639D01*
X18146827Y-17191326D01*
X18460075Y-17112030D01*
X18724878Y-17055458D01*
X18978588Y-17018771D01*
X19258554Y-16999128D01*
X19602129Y-16993690D01*
X20046665Y-16999618D01*
X20046665Y-16999618D01*
G37*
X20046665Y-16999618D02*
X20517494Y-17011093D01*
X21198162Y-17035789D01*
X21747974Y-17074576D01*
X22205263Y-17134575D01*
X22608360Y-17222905D01*
X22995601Y-17346686D01*
X23405317Y-17513037D01*
X23537765Y-17572045D01*
X23891825Y-17746663D01*
X24302072Y-17970812D01*
X24712813Y-18212056D01*
X25068354Y-18437962D01*
X25266917Y-18579076D01*
X25741732Y-18944966D01*
X26113867Y-19221612D01*
X26415045Y-19422768D01*
X26676990Y-19562190D01*
X26931426Y-19653633D01*
X27210079Y-19710853D01*
X27544672Y-19747603D01*
X27966929Y-19777641D01*
X28042680Y-19782607D01*
X28812617Y-19845713D01*
X29456198Y-19930730D01*
X30016009Y-20048038D01*
X30534636Y-20208018D01*
X31054662Y-20421049D01*
X31457495Y-20614944D01*
X31926966Y-20904084D01*
X32416377Y-21292956D01*
X32868531Y-21730729D01*
X33226231Y-22166571D01*
X33261015Y-22217722D01*
X33551606Y-22782144D01*
X33751102Y-23434190D01*
X33853546Y-24125463D01*
X33852982Y-24807564D01*
X33743452Y-25432097D01*
X33680174Y-25623136D01*
X33366047Y-26248695D01*
X32945279Y-26775500D01*
X32440263Y-27178417D01*
X32163333Y-27325487D01*
X31778094Y-27496115D01*
X31512077Y-27607091D01*
X31331602Y-27671527D01*
X31202989Y-27702539D01*
X31189667Y-27704604D01*
X30992044Y-27732969D01*
X30733508Y-27769496D01*
X30702555Y-27773834D01*
X30426304Y-27837332D01*
X30107428Y-27944397D01*
X29993292Y-27991494D01*
X29713328Y-28094801D01*
X29455854Y-28156744D01*
X29368248Y-28164667D01*
X29119836Y-28205124D01*
X28892178Y-28291145D01*
X28632164Y-28380467D01*
X28346424Y-28418142D01*
X28345289Y-28418145D01*
X28047910Y-28474964D01*
X27893789Y-28581234D01*
X27724084Y-28698425D01*
X27466306Y-28805654D01*
X27344234Y-28840344D01*
X26950210Y-28922693D01*
X26513015Y-28994622D01*
X26074949Y-29051349D01*
X25678312Y-29088094D01*
X25365405Y-29100073D01*
X25185185Y-29084419D01*
X24999136Y-29073314D01*
X24692349Y-29094605D01*
X24308729Y-29141109D01*
X23892180Y-29205639D01*
X23486608Y-29281010D01*
X23135917Y-29360039D01*
X22884011Y-29435540D01*
X22800899Y-29474603D01*
X22640864Y-29530729D01*
X22360188Y-29584935D01*
X22007438Y-29628789D01*
X21827232Y-29643654D01*
X21083511Y-29715990D01*
X20494865Y-29820094D01*
X20066442Y-29954985D01*
X19980224Y-29995868D01*
X19768611Y-30062271D01*
X19471892Y-30104720D01*
X19294000Y-30112730D01*
X18951300Y-30134373D01*
X18565370Y-30189828D01*
X18186040Y-30268366D01*
X17863143Y-30359254D01*
X17646508Y-30451760D01*
X17614019Y-30474520D01*
X17515136Y-30510258D01*
X17306614Y-30537725D01*
X16975490Y-30557538D01*
X16508799Y-30570315D01*
X15893575Y-30576674D01*
X15449581Y-30577667D01*
X14793429Y-30578929D01*
X14281607Y-30583832D01*
X13889126Y-30594050D01*
X13590994Y-30611257D01*
X13362220Y-30637127D01*
X13177814Y-30673335D01*
X13012785Y-30721554D01*
X12944000Y-30745517D01*
X12382422Y-30877711D01*
X12012667Y-30893332D01*
X11569857Y-30879456D01*
X11084815Y-30872844D01*
X10588329Y-30872917D01*
X10111184Y-30879095D01*
X9684167Y-30890796D01*
X9338065Y-30907440D01*
X9103662Y-30928448D01*
X9014521Y-30949848D01*
X8792014Y-31048863D01*
X8461467Y-31101169D01*
X8079488Y-31099625D01*
X7943439Y-31084948D01*
X7782489Y-31057877D01*
X7633915Y-31015161D01*
X7473987Y-30942313D01*
X7278974Y-30824847D01*
X7025146Y-30648277D01*
X6688770Y-30398120D01*
X6246118Y-30059887D01*
X6176651Y-30006479D01*
X5699837Y-29695117D01*
X5276570Y-29539713D01*
X4897395Y-29539046D01*
X4552860Y-29691897D01*
X4437946Y-29782104D01*
X4246446Y-29975337D01*
X4159440Y-30158879D01*
X4138669Y-30414117D01*
X4138667Y-30418786D01*
X4180170Y-30730350D01*
X4314079Y-31058408D01*
X4554495Y-31427770D01*
X4915517Y-31863250D01*
X5033216Y-31992905D01*
X5405392Y-32482481D01*
X5663346Y-33003235D01*
X5806886Y-33531072D01*
X5835820Y-34041895D01*
X5749956Y-34511607D01*
X5549101Y-34916110D01*
X5233063Y-35231310D01*
X5059877Y-35334299D01*
X4802443Y-35426209D01*
X4438019Y-35495427D01*
X3954671Y-35542708D01*
X3340465Y-35568805D01*
X2583466Y-35574473D01*
X1671739Y-35560467D01*
X1535167Y-35557084D01*
X328667Y-35526017D01*
X328667Y-22185654D01*
X730833Y-22047998D01*
X964085Y-21967977D01*
X1312623Y-21848177D01*
X1731642Y-21704009D01*
X2176342Y-21550881D01*
X2233667Y-21531133D01*
X2723410Y-21372582D01*
X3239307Y-21222544D01*
X3719428Y-21098103D01*
X4096333Y-21017310D01*
X4656260Y-20911850D01*
X5091251Y-20806321D01*
X5444381Y-20679538D01*
X5758724Y-20510318D01*
X6077357Y-20277477D01*
X6443355Y-19959831D01*
X6668659Y-19752277D01*
X7258768Y-19236340D01*
X7797233Y-18844224D01*
X8321178Y-18555547D01*
X8867726Y-18349929D01*
X9473999Y-18206988D01*
X9487933Y-18204458D01*
X10003709Y-18132065D01*
X10483061Y-18116213D01*
X10967789Y-18162035D01*
X11499696Y-18274666D01*
X12120583Y-18459240D01*
X12439777Y-18567008D01*
X12881816Y-18712030D01*
X13296802Y-18833282D01*
X13644243Y-18919943D01*
X13883645Y-18961194D01*
X13922149Y-18963144D01*
X14190755Y-18925524D01*
X14539147Y-18804900D01*
X14994151Y-18591867D01*
X15022815Y-18577276D01*
X15466245Y-18350770D01*
X15968393Y-18094272D01*
X16437178Y-17854817D01*
X16542333Y-17801105D01*
X16993249Y-17594850D01*
X17516745Y-17391508D01*
X18019246Y-17226639D01*
X18146827Y-17191326D01*
X18460075Y-17112030D01*
X18724878Y-17055458D01*
X18978588Y-17018771D01*
X19258554Y-16999128D01*
X19602129Y-16993690D01*
X20046665Y-16999618D01*
G36*
X43118338Y-27077043D02*
G01*
X43509790Y-27098569D01*
X43901959Y-27144270D01*
X44351325Y-27217411D01*
X44397667Y-27225659D01*
X44878635Y-27320747D01*
X45378763Y-27434647D01*
X45829881Y-27551119D01*
X46091000Y-27629064D01*
X46385134Y-27729076D01*
X46648920Y-27830062D01*
X46916797Y-27948351D01*
X47223203Y-28100273D01*
X47602577Y-28302158D01*
X48089355Y-28570334D01*
X48165987Y-28612958D01*
X48585432Y-28829155D01*
X48954346Y-28969688D01*
X49316582Y-29039498D01*
X49715993Y-29043527D01*
X50196428Y-28986717D01*
X50687243Y-28897079D01*
X51339377Y-28771979D01*
X51859381Y-28685389D01*
X52279479Y-28635060D01*
X52631896Y-28618747D01*
X52948858Y-28634204D01*
X53262589Y-28679183D01*
X53406702Y-28707496D01*
X53981285Y-28852440D01*
X54474876Y-29040645D01*
X54928224Y-29295885D01*
X55382079Y-29641934D01*
X55877189Y-30102566D01*
X55987245Y-30213067D01*
X56334900Y-30561068D01*
X56609817Y-30817492D01*
X56855766Y-31013648D01*
X57116515Y-31180843D01*
X57435830Y-31350384D01*
X57857481Y-31553581D01*
X57868677Y-31558873D01*
X58471641Y-31849532D01*
X58942233Y-32094037D01*
X59304413Y-32311304D01*
X59582141Y-32520250D01*
X59799378Y-32739789D01*
X59980082Y-32988840D01*
X60148215Y-33286317D01*
X60209167Y-33406666D01*
X60404446Y-33933192D01*
X60454910Y-34419865D01*
X60363470Y-34849731D01*
X60133039Y-35205838D01*
X59863615Y-35418582D01*
X59537895Y-35602840D01*
X59242833Y-35742344D01*
X58945159Y-35844182D01*
X58611601Y-35915441D01*
X58208888Y-35963209D01*
X57703747Y-35994575D01*
X57062908Y-36016626D01*
X57055333Y-36016833D01*
X56431536Y-36038053D01*
X55961070Y-36064089D01*
X55627962Y-36096409D01*
X55416243Y-36136482D01*
X55321994Y-36176167D01*
X55129712Y-36245501D01*
X54818462Y-36285758D01*
X54600000Y-36292667D01*
X54249250Y-36311497D01*
X53981312Y-36362437D01*
X53878005Y-36407654D01*
X53685275Y-36497882D01*
X53424052Y-36573019D01*
X53372333Y-36583195D01*
X53066462Y-36668467D01*
X52774445Y-36795207D01*
X52751129Y-36808368D01*
X52611977Y-36871126D01*
X52414558Y-36926797D01*
X52145563Y-36976537D01*
X51791678Y-37021501D01*
X51339592Y-37062847D01*
X50775992Y-37101730D01*
X50087568Y-37139307D01*
X49261006Y-37176734D01*
X48282996Y-37215167D01*
X47911333Y-37228750D01*
X47042774Y-37262993D01*
X46320703Y-37299705D01*
X45722280Y-37342342D01*
X45224662Y-37394362D01*
X44805008Y-37459220D01*
X44440475Y-37540373D01*
X44108224Y-37641277D01*
X43785410Y-37765389D01*
X43487560Y-37898158D01*
X43098328Y-38069926D01*
X42754352Y-38192241D01*
X42407867Y-38275187D01*
X42011107Y-38328846D01*
X41516305Y-38363301D01*
X41222667Y-38376266D01*
X40763468Y-38391125D01*
X40428247Y-38390735D01*
X40171991Y-38370635D01*
X39949687Y-38326364D01*
X39716323Y-38253459D01*
X39614000Y-38216815D01*
X39259111Y-38073398D01*
X38904437Y-37907996D01*
X38682667Y-37788483D01*
X38006421Y-37421292D01*
X37349941Y-37133938D01*
X36753849Y-36943236D01*
X36523667Y-36894704D01*
X35959194Y-36797511D01*
X35531778Y-36719966D01*
X35211261Y-36655016D01*
X34967485Y-36595611D01*
X34770290Y-36534699D01*
X34589520Y-36465228D01*
X34474047Y-36415466D01*
X34171039Y-36266940D01*
X33891812Y-36106256D01*
X33765993Y-36020119D01*
X33519402Y-35829557D01*
X33279874Y-35643503D01*
X33106410Y-35464373D01*
X32914537Y-35202152D01*
X32805018Y-35019934D01*
X32598381Y-34478178D01*
X32553673Y-33926062D01*
X32665272Y-33377729D01*
X32927554Y-32847321D01*
X33334898Y-32348983D01*
X33881680Y-31896857D01*
X34103780Y-31752863D01*
X34649564Y-31417520D01*
X35075634Y-31145395D01*
X35408722Y-30914691D01*
X35675559Y-30703611D01*
X35902878Y-30490359D01*
X36117411Y-30253138D01*
X36345888Y-29970152D01*
X36441298Y-29846902D01*
X36952197Y-29214669D01*
X37417931Y-28713349D01*
X37865006Y-28320438D01*
X38319928Y-28013431D01*
X38809205Y-27769823D01*
X38960393Y-27708179D01*
X39541561Y-27494693D01*
X40063858Y-27337945D01*
X40578760Y-27227894D01*
X41137741Y-27154498D01*
X41792277Y-27107716D01*
X42111667Y-27093448D01*
X42671123Y-27076425D01*
X43118338Y-27077043D01*
X43118338Y-27077043D01*
G37*
X43118338Y-27077043D02*
X43509790Y-27098569D01*
X43901959Y-27144270D01*
X44351325Y-27217411D01*
X44397667Y-27225659D01*
X44878635Y-27320747D01*
X45378763Y-27434647D01*
X45829881Y-27551119D01*
X46091000Y-27629064D01*
X46385134Y-27729076D01*
X46648920Y-27830062D01*
X46916797Y-27948351D01*
X47223203Y-28100273D01*
X47602577Y-28302158D01*
X48089355Y-28570334D01*
X48165987Y-28612958D01*
X48585432Y-28829155D01*
X48954346Y-28969688D01*
X49316582Y-29039498D01*
X49715993Y-29043527D01*
X50196428Y-28986717D01*
X50687243Y-28897079D01*
X51339377Y-28771979D01*
X51859381Y-28685389D01*
X52279479Y-28635060D01*
X52631896Y-28618747D01*
X52948858Y-28634204D01*
X53262589Y-28679183D01*
X53406702Y-28707496D01*
X53981285Y-28852440D01*
X54474876Y-29040645D01*
X54928224Y-29295885D01*
X55382079Y-29641934D01*
X55877189Y-30102566D01*
X55987245Y-30213067D01*
X56334900Y-30561068D01*
X56609817Y-30817492D01*
X56855766Y-31013648D01*
X57116515Y-31180843D01*
X57435830Y-31350384D01*
X57857481Y-31553581D01*
X57868677Y-31558873D01*
X58471641Y-31849532D01*
X58942233Y-32094037D01*
X59304413Y-32311304D01*
X59582141Y-32520250D01*
X59799378Y-32739789D01*
X59980082Y-32988840D01*
X60148215Y-33286317D01*
X60209167Y-33406666D01*
X60404446Y-33933192D01*
X60454910Y-34419865D01*
X60363470Y-34849731D01*
X60133039Y-35205838D01*
X59863615Y-35418582D01*
X59537895Y-35602840D01*
X59242833Y-35742344D01*
X58945159Y-35844182D01*
X58611601Y-35915441D01*
X58208888Y-35963209D01*
X57703747Y-35994575D01*
X57062908Y-36016626D01*
X57055333Y-36016833D01*
X56431536Y-36038053D01*
X55961070Y-36064089D01*
X55627962Y-36096409D01*
X55416243Y-36136482D01*
X55321994Y-36176167D01*
X55129712Y-36245501D01*
X54818462Y-36285758D01*
X54600000Y-36292667D01*
X54249250Y-36311497D01*
X53981312Y-36362437D01*
X53878005Y-36407654D01*
X53685275Y-36497882D01*
X53424052Y-36573019D01*
X53372333Y-36583195D01*
X53066462Y-36668467D01*
X52774445Y-36795207D01*
X52751129Y-36808368D01*
X52611977Y-36871126D01*
X52414558Y-36926797D01*
X52145563Y-36976537D01*
X51791678Y-37021501D01*
X51339592Y-37062847D01*
X50775992Y-37101730D01*
X50087568Y-37139307D01*
X49261006Y-37176734D01*
X48282996Y-37215167D01*
X47911333Y-37228750D01*
X47042774Y-37262993D01*
X46320703Y-37299705D01*
X45722280Y-37342342D01*
X45224662Y-37394362D01*
X44805008Y-37459220D01*
X44440475Y-37540373D01*
X44108224Y-37641277D01*
X43785410Y-37765389D01*
X43487560Y-37898158D01*
X43098328Y-38069926D01*
X42754352Y-38192241D01*
X42407867Y-38275187D01*
X42011107Y-38328846D01*
X41516305Y-38363301D01*
X41222667Y-38376266D01*
X40763468Y-38391125D01*
X40428247Y-38390735D01*
X40171991Y-38370635D01*
X39949687Y-38326364D01*
X39716323Y-38253459D01*
X39614000Y-38216815D01*
X39259111Y-38073398D01*
X38904437Y-37907996D01*
X38682667Y-37788483D01*
X38006421Y-37421292D01*
X37349941Y-37133938D01*
X36753849Y-36943236D01*
X36523667Y-36894704D01*
X35959194Y-36797511D01*
X35531778Y-36719966D01*
X35211261Y-36655016D01*
X34967485Y-36595611D01*
X34770290Y-36534699D01*
X34589520Y-36465228D01*
X34474047Y-36415466D01*
X34171039Y-36266940D01*
X33891812Y-36106256D01*
X33765993Y-36020119D01*
X33519402Y-35829557D01*
X33279874Y-35643503D01*
X33106410Y-35464373D01*
X32914537Y-35202152D01*
X32805018Y-35019934D01*
X32598381Y-34478178D01*
X32553673Y-33926062D01*
X32665272Y-33377729D01*
X32927554Y-32847321D01*
X33334898Y-32348983D01*
X33881680Y-31896857D01*
X34103780Y-31752863D01*
X34649564Y-31417520D01*
X35075634Y-31145395D01*
X35408722Y-30914691D01*
X35675559Y-30703611D01*
X35902878Y-30490359D01*
X36117411Y-30253138D01*
X36345888Y-29970152D01*
X36441298Y-29846902D01*
X36952197Y-29214669D01*
X37417931Y-28713349D01*
X37865006Y-28320438D01*
X38319928Y-28013431D01*
X38809205Y-27769823D01*
X38960393Y-27708179D01*
X39541561Y-27494693D01*
X40063858Y-27337945D01*
X40578760Y-27227894D01*
X41137741Y-27154498D01*
X41792277Y-27107716D01*
X42111667Y-27093448D01*
X42671123Y-27076425D01*
X43118338Y-27077043D01*
G36*
X93741225Y-21731889D02*
G01*
X94246960Y-21802790D01*
X94754020Y-21926831D01*
X95291223Y-22113652D01*
X95887385Y-22372890D01*
X96571325Y-22714182D01*
X97141285Y-23019964D01*
X97645570Y-23296333D01*
X100320000Y-23273989D01*
X100320000Y-31447821D01*
X100044833Y-31498470D01*
X99886141Y-31512243D01*
X99584509Y-31524346D01*
X99166326Y-31534266D01*
X98657980Y-31541486D01*
X98085862Y-31545493D01*
X97606609Y-31546048D01*
X95443551Y-31542978D01*
X94938388Y-31793615D01*
X94574472Y-31985341D01*
X94341550Y-32153021D01*
X94214100Y-32337235D01*
X94166600Y-32578562D01*
X94173527Y-32917581D01*
X94179198Y-33000694D01*
X94248761Y-33619279D01*
X94375996Y-34292691D01*
X94569229Y-35062696D01*
X94641378Y-35319000D01*
X94790956Y-36052934D01*
X94801418Y-36719254D01*
X94674421Y-37307591D01*
X94411624Y-37807574D01*
X94205592Y-38045268D01*
X93950599Y-38250452D01*
X93573113Y-38498186D01*
X93108458Y-38769638D01*
X92591958Y-39045976D01*
X92058936Y-39308367D01*
X91544717Y-39537979D01*
X91084624Y-39715979D01*
X91049000Y-39728174D01*
X90726940Y-39830185D01*
X90449008Y-39895955D01*
X90161299Y-39932447D01*
X89809908Y-39946624D01*
X89364880Y-39945731D01*
X88963238Y-39935030D01*
X88620981Y-39914496D01*
X88375190Y-39887119D01*
X88264213Y-39857013D01*
X88148489Y-39824563D01*
X87897251Y-39789513D01*
X87544232Y-39754698D01*
X87123164Y-39722955D01*
X86667780Y-39697122D01*
X86211811Y-39680034D01*
X86138333Y-39678240D01*
X85392310Y-39698383D01*
X84580065Y-39782255D01*
X83787485Y-39919170D01*
X83344333Y-40025817D01*
X82957225Y-40135187D01*
X82620734Y-40236522D01*
X82374554Y-40317483D01*
X82265982Y-40361048D01*
X82059701Y-40427340D01*
X81924988Y-40441333D01*
X81696431Y-40489782D01*
X81564005Y-40556115D01*
X81382541Y-40634586D01*
X81112416Y-40702938D01*
X80970325Y-40726000D01*
X80659986Y-40783540D01*
X80238168Y-40885237D01*
X79752465Y-41017195D01*
X79250471Y-41165522D01*
X78779780Y-41316325D01*
X78387985Y-41455708D01*
X78187943Y-41538229D01*
X77797726Y-41660151D01*
X77307203Y-41732500D01*
X76779149Y-41751306D01*
X76276335Y-41712601D01*
X76063000Y-41672575D01*
X75744047Y-41583451D01*
X75439082Y-41476068D01*
X75343333Y-41435112D01*
X74953459Y-41284832D01*
X74436666Y-41132655D01*
X73834840Y-40990010D01*
X73396000Y-40903853D01*
X72866519Y-40807093D01*
X72478100Y-40731592D01*
X72204786Y-40670693D01*
X72020623Y-40617735D01*
X71899657Y-40566058D01*
X71815933Y-40509003D01*
X71798782Y-40494027D01*
X71607463Y-40384072D01*
X71473506Y-40356667D01*
X71277298Y-40325184D01*
X71034052Y-40248615D01*
X71014506Y-40240843D01*
X70734019Y-40148371D01*
X70439860Y-40084184D01*
X70181982Y-40055350D01*
X70010334Y-40068936D01*
X69972701Y-40093441D01*
X69863124Y-40124059D01*
X69634763Y-40101680D01*
X69325863Y-40036680D01*
X68974667Y-39939438D01*
X68619418Y-39820330D01*
X68298360Y-39689735D01*
X68089028Y-39582302D01*
X67647015Y-39237750D01*
X67358266Y-38825925D01*
X67226242Y-38358504D01*
X67254404Y-37847162D01*
X67425965Y-37345434D01*
X67693559Y-36921520D01*
X68087454Y-36525834D01*
X68621152Y-36147449D01*
X69308150Y-35775437D01*
X69447780Y-35708941D01*
X70140318Y-35345346D01*
X70707073Y-34949833D01*
X71191489Y-34484531D01*
X71637012Y-33911570D01*
X71810505Y-33649345D01*
X72032282Y-33392572D01*
X72364891Y-33115767D01*
X72758907Y-32853586D01*
X73164902Y-32640684D01*
X73361177Y-32562061D01*
X73680570Y-32474863D01*
X74043680Y-32427604D01*
X74477739Y-32420370D01*
X75009976Y-32453251D01*
X75667622Y-32526334D01*
X75999037Y-32570598D01*
X76592143Y-32625999D01*
X77089453Y-32601367D01*
X77549958Y-32485339D01*
X78032646Y-32266549D01*
X78270213Y-32133064D01*
X78987530Y-31724819D01*
X79599731Y-31407827D01*
X80136627Y-31171026D01*
X80628029Y-31003354D01*
X81103748Y-30893748D01*
X81593595Y-30831147D01*
X81820333Y-30815694D01*
X82774927Y-30840495D01*
X83713177Y-31009778D01*
X84600822Y-31314252D01*
X85403603Y-31744628D01*
X85509643Y-31816042D01*
X85939566Y-32109055D01*
X86267979Y-32316131D01*
X86529306Y-32452305D01*
X86757973Y-32532611D01*
X86988404Y-32572086D01*
X87255023Y-32585764D01*
X87272736Y-32586090D01*
X87800360Y-32548417D01*
X88234536Y-32422104D01*
X88552895Y-32216532D01*
X88718462Y-31979988D01*
X88777485Y-31660433D01*
X88675712Y-31367366D01*
X88410342Y-31096177D01*
X88048317Y-30876516D01*
X87772873Y-30745507D01*
X87548112Y-30653059D01*
X87427436Y-30620000D01*
X87269826Y-30579006D01*
X87012364Y-30471260D01*
X86698880Y-30319614D01*
X86373204Y-30146920D01*
X86079167Y-29976031D01*
X85860599Y-29829798D01*
X85783392Y-29762831D01*
X85648012Y-29576507D01*
X85488075Y-29301116D01*
X85370697Y-29065144D01*
X85246300Y-28765480D01*
X85184138Y-28512701D01*
X85170707Y-28227560D01*
X85183170Y-27964726D01*
X85224286Y-27581736D01*
X85304360Y-27286535D01*
X85447601Y-26998222D01*
X85496798Y-26916639D01*
X85711231Y-26614536D01*
X85961720Y-26324347D01*
X86103563Y-26188169D01*
X86394235Y-25985633D01*
X86784379Y-25774105D01*
X87208946Y-25584679D01*
X87602888Y-25448452D01*
X87704667Y-25422765D01*
X87988568Y-25309177D01*
X88324002Y-25101960D01*
X88657448Y-24840289D01*
X88935384Y-24563342D01*
X89013487Y-24464770D01*
X89375391Y-23969891D01*
X89664501Y-23588894D01*
X89903613Y-23295889D01*
X90115522Y-23064988D01*
X90323027Y-22870299D01*
X90548923Y-22685935D01*
X90642911Y-22614264D01*
X91379513Y-22150215D01*
X92137555Y-21848589D01*
X92908883Y-21712278D01*
X93208000Y-21704492D01*
X93741225Y-21731889D01*
X93741225Y-21731889D01*
G37*
X93741225Y-21731889D02*
X94246960Y-21802790D01*
X94754020Y-21926831D01*
X95291223Y-22113652D01*
X95887385Y-22372890D01*
X96571325Y-22714182D01*
X97141285Y-23019964D01*
X97645570Y-23296333D01*
X100320000Y-23273989D01*
X100320000Y-31447821D01*
X100044833Y-31498470D01*
X99886141Y-31512243D01*
X99584509Y-31524346D01*
X99166326Y-31534266D01*
X98657980Y-31541486D01*
X98085862Y-31545493D01*
X97606609Y-31546048D01*
X95443551Y-31542978D01*
X94938388Y-31793615D01*
X94574472Y-31985341D01*
X94341550Y-32153021D01*
X94214100Y-32337235D01*
X94166600Y-32578562D01*
X94173527Y-32917581D01*
X94179198Y-33000694D01*
X94248761Y-33619279D01*
X94375996Y-34292691D01*
X94569229Y-35062696D01*
X94641378Y-35319000D01*
X94790956Y-36052934D01*
X94801418Y-36719254D01*
X94674421Y-37307591D01*
X94411624Y-37807574D01*
X94205592Y-38045268D01*
X93950599Y-38250452D01*
X93573113Y-38498186D01*
X93108458Y-38769638D01*
X92591958Y-39045976D01*
X92058936Y-39308367D01*
X91544717Y-39537979D01*
X91084624Y-39715979D01*
X91049000Y-39728174D01*
X90726940Y-39830185D01*
X90449008Y-39895955D01*
X90161299Y-39932447D01*
X89809908Y-39946624D01*
X89364880Y-39945731D01*
X88963238Y-39935030D01*
X88620981Y-39914496D01*
X88375190Y-39887119D01*
X88264213Y-39857013D01*
X88148489Y-39824563D01*
X87897251Y-39789513D01*
X87544232Y-39754698D01*
X87123164Y-39722955D01*
X86667780Y-39697122D01*
X86211811Y-39680034D01*
X86138333Y-39678240D01*
X85392310Y-39698383D01*
X84580065Y-39782255D01*
X83787485Y-39919170D01*
X83344333Y-40025817D01*
X82957225Y-40135187D01*
X82620734Y-40236522D01*
X82374554Y-40317483D01*
X82265982Y-40361048D01*
X82059701Y-40427340D01*
X81924988Y-40441333D01*
X81696431Y-40489782D01*
X81564005Y-40556115D01*
X81382541Y-40634586D01*
X81112416Y-40702938D01*
X80970325Y-40726000D01*
X80659986Y-40783540D01*
X80238168Y-40885237D01*
X79752465Y-41017195D01*
X79250471Y-41165522D01*
X78779780Y-41316325D01*
X78387985Y-41455708D01*
X78187943Y-41538229D01*
X77797726Y-41660151D01*
X77307203Y-41732500D01*
X76779149Y-41751306D01*
X76276335Y-41712601D01*
X76063000Y-41672575D01*
X75744047Y-41583451D01*
X75439082Y-41476068D01*
X75343333Y-41435112D01*
X74953459Y-41284832D01*
X74436666Y-41132655D01*
X73834840Y-40990010D01*
X73396000Y-40903853D01*
X72866519Y-40807093D01*
X72478100Y-40731592D01*
X72204786Y-40670693D01*
X72020623Y-40617735D01*
X71899657Y-40566058D01*
X71815933Y-40509003D01*
X71798782Y-40494027D01*
X71607463Y-40384072D01*
X71473506Y-40356667D01*
X71277298Y-40325184D01*
X71034052Y-40248615D01*
X71014506Y-40240843D01*
X70734019Y-40148371D01*
X70439860Y-40084184D01*
X70181982Y-40055350D01*
X70010334Y-40068936D01*
X69972701Y-40093441D01*
X69863124Y-40124059D01*
X69634763Y-40101680D01*
X69325863Y-40036680D01*
X68974667Y-39939438D01*
X68619418Y-39820330D01*
X68298360Y-39689735D01*
X68089028Y-39582302D01*
X67647015Y-39237750D01*
X67358266Y-38825925D01*
X67226242Y-38358504D01*
X67254404Y-37847162D01*
X67425965Y-37345434D01*
X67693559Y-36921520D01*
X68087454Y-36525834D01*
X68621152Y-36147449D01*
X69308150Y-35775437D01*
X69447780Y-35708941D01*
X70140318Y-35345346D01*
X70707073Y-34949833D01*
X71191489Y-34484531D01*
X71637012Y-33911570D01*
X71810505Y-33649345D01*
X72032282Y-33392572D01*
X72364891Y-33115767D01*
X72758907Y-32853586D01*
X73164902Y-32640684D01*
X73361177Y-32562061D01*
X73680570Y-32474863D01*
X74043680Y-32427604D01*
X74477739Y-32420370D01*
X75009976Y-32453251D01*
X75667622Y-32526334D01*
X75999037Y-32570598D01*
X76592143Y-32625999D01*
X77089453Y-32601367D01*
X77549958Y-32485339D01*
X78032646Y-32266549D01*
X78270213Y-32133064D01*
X78987530Y-31724819D01*
X79599731Y-31407827D01*
X80136627Y-31171026D01*
X80628029Y-31003354D01*
X81103748Y-30893748D01*
X81593595Y-30831147D01*
X81820333Y-30815694D01*
X82774927Y-30840495D01*
X83713177Y-31009778D01*
X84600822Y-31314252D01*
X85403603Y-31744628D01*
X85509643Y-31816042D01*
X85939566Y-32109055D01*
X86267979Y-32316131D01*
X86529306Y-32452305D01*
X86757973Y-32532611D01*
X86988404Y-32572086D01*
X87255023Y-32585764D01*
X87272736Y-32586090D01*
X87800360Y-32548417D01*
X88234536Y-32422104D01*
X88552895Y-32216532D01*
X88718462Y-31979988D01*
X88777485Y-31660433D01*
X88675712Y-31367366D01*
X88410342Y-31096177D01*
X88048317Y-30876516D01*
X87772873Y-30745507D01*
X87548112Y-30653059D01*
X87427436Y-30620000D01*
X87269826Y-30579006D01*
X87012364Y-30471260D01*
X86698880Y-30319614D01*
X86373204Y-30146920D01*
X86079167Y-29976031D01*
X85860599Y-29829798D01*
X85783392Y-29762831D01*
X85648012Y-29576507D01*
X85488075Y-29301116D01*
X85370697Y-29065144D01*
X85246300Y-28765480D01*
X85184138Y-28512701D01*
X85170707Y-28227560D01*
X85183170Y-27964726D01*
X85224286Y-27581736D01*
X85304360Y-27286535D01*
X85447601Y-26998222D01*
X85496798Y-26916639D01*
X85711231Y-26614536D01*
X85961720Y-26324347D01*
X86103563Y-26188169D01*
X86394235Y-25985633D01*
X86784379Y-25774105D01*
X87208946Y-25584679D01*
X87602888Y-25448452D01*
X87704667Y-25422765D01*
X87988568Y-25309177D01*
X88324002Y-25101960D01*
X88657448Y-24840289D01*
X88935384Y-24563342D01*
X89013487Y-24464770D01*
X89375391Y-23969891D01*
X89664501Y-23588894D01*
X89903613Y-23295889D01*
X90115522Y-23064988D01*
X90323027Y-22870299D01*
X90548923Y-22685935D01*
X90642911Y-22614264D01*
X91379513Y-22150215D01*
X92137555Y-21848589D01*
X92908883Y-21712278D01*
X93208000Y-21704492D01*
X93741225Y-21731889D01*
G36*
X48429733Y-42337293D02*
G01*
X48605849Y-42381816D01*
X48772849Y-42441076D01*
X49052440Y-42532757D01*
X49394990Y-42640734D01*
X49541409Y-42685758D01*
X49905282Y-42792666D01*
X50168325Y-42851972D01*
X50390531Y-42869089D01*
X50631891Y-42849428D01*
X50896076Y-42807986D01*
X51641454Y-42713363D01*
X52312385Y-42691143D01*
X52883320Y-42740585D01*
X53328709Y-42860945D01*
X53372333Y-42880039D01*
X53912000Y-43215986D01*
X54373471Y-43675073D01*
X54721641Y-44217944D01*
X54852634Y-44539552D01*
X54937217Y-44750277D01*
X55082036Y-45062731D01*
X55264992Y-45430673D01*
X55419121Y-45724885D01*
X55676963Y-46223892D01*
X55850406Y-46614442D01*
X55947808Y-46929749D01*
X55977523Y-47203028D01*
X55947909Y-47467491D01*
X55902308Y-47645347D01*
X55825045Y-47871873D01*
X55729786Y-48023866D01*
X55573095Y-48145815D01*
X55311541Y-48282204D01*
X55253230Y-48310167D01*
X54938198Y-48440772D01*
X54583886Y-48543582D01*
X54144730Y-48629762D01*
X53668667Y-48698548D01*
X53155002Y-48771100D01*
X52599770Y-48859161D01*
X52079644Y-48950128D01*
X51763667Y-49011649D01*
X51396751Y-49077595D01*
X50961485Y-49135738D01*
X50441757Y-49187227D01*
X49821459Y-49233213D01*
X49084480Y-49274845D01*
X48214711Y-49313274D01*
X47196042Y-49349650D01*
X46895333Y-49359208D01*
X46421396Y-49370470D01*
X45975915Y-49374809D01*
X45601863Y-49372232D01*
X45342215Y-49362747D01*
X45296586Y-49358929D01*
X45021407Y-49309261D01*
X44791882Y-49232745D01*
X44746252Y-49208508D01*
X44565798Y-49120108D01*
X44294801Y-49013308D01*
X44101333Y-48946929D01*
X43812475Y-48845162D01*
X43568904Y-48743857D01*
X43466333Y-48690554D01*
X43287367Y-48605042D01*
X43020892Y-48506643D01*
X42865834Y-48458073D01*
X42205504Y-48205566D01*
X41690975Y-47876554D01*
X41325254Y-47473420D01*
X41137907Y-47087385D01*
X41070329Y-46678424D01*
X41094010Y-46206439D01*
X41198828Y-45744036D01*
X41374661Y-45363824D01*
X41379121Y-45357127D01*
X41572757Y-45096682D01*
X41782839Y-44884631D01*
X42035120Y-44708342D01*
X42355353Y-44555184D01*
X42769290Y-44412523D01*
X43302684Y-44267727D01*
X43877278Y-44131704D01*
X44318501Y-44002353D01*
X44753797Y-43808857D01*
X45218679Y-43531875D01*
X45748663Y-43152065D01*
X45921667Y-43018311D01*
X46283281Y-42761460D01*
X46640161Y-42553410D01*
X46931867Y-42428978D01*
X47278252Y-42355723D01*
X47683361Y-42314897D01*
X48087189Y-42308190D01*
X48429733Y-42337293D01*
X48429733Y-42337293D01*
G37*
X48429733Y-42337293D02*
X48605849Y-42381816D01*
X48772849Y-42441076D01*
X49052440Y-42532757D01*
X49394990Y-42640734D01*
X49541409Y-42685758D01*
X49905282Y-42792666D01*
X50168325Y-42851972D01*
X50390531Y-42869089D01*
X50631891Y-42849428D01*
X50896076Y-42807986D01*
X51641454Y-42713363D01*
X52312385Y-42691143D01*
X52883320Y-42740585D01*
X53328709Y-42860945D01*
X53372333Y-42880039D01*
X53912000Y-43215986D01*
X54373471Y-43675073D01*
X54721641Y-44217944D01*
X54852634Y-44539552D01*
X54937217Y-44750277D01*
X55082036Y-45062731D01*
X55264992Y-45430673D01*
X55419121Y-45724885D01*
X55676963Y-46223892D01*
X55850406Y-46614442D01*
X55947808Y-46929749D01*
X55977523Y-47203028D01*
X55947909Y-47467491D01*
X55902308Y-47645347D01*
X55825045Y-47871873D01*
X55729786Y-48023866D01*
X55573095Y-48145815D01*
X55311541Y-48282204D01*
X55253230Y-48310167D01*
X54938198Y-48440772D01*
X54583886Y-48543582D01*
X54144730Y-48629762D01*
X53668667Y-48698548D01*
X53155002Y-48771100D01*
X52599770Y-48859161D01*
X52079644Y-48950128D01*
X51763667Y-49011649D01*
X51396751Y-49077595D01*
X50961485Y-49135738D01*
X50441757Y-49187227D01*
X49821459Y-49233213D01*
X49084480Y-49274845D01*
X48214711Y-49313274D01*
X47196042Y-49349650D01*
X46895333Y-49359208D01*
X46421396Y-49370470D01*
X45975915Y-49374809D01*
X45601863Y-49372232D01*
X45342215Y-49362747D01*
X45296586Y-49358929D01*
X45021407Y-49309261D01*
X44791882Y-49232745D01*
X44746252Y-49208508D01*
X44565798Y-49120108D01*
X44294801Y-49013308D01*
X44101333Y-48946929D01*
X43812475Y-48845162D01*
X43568904Y-48743857D01*
X43466333Y-48690554D01*
X43287367Y-48605042D01*
X43020892Y-48506643D01*
X42865834Y-48458073D01*
X42205504Y-48205566D01*
X41690975Y-47876554D01*
X41325254Y-47473420D01*
X41137907Y-47087385D01*
X41070329Y-46678424D01*
X41094010Y-46206439D01*
X41198828Y-45744036D01*
X41374661Y-45363824D01*
X41379121Y-45357127D01*
X41572757Y-45096682D01*
X41782839Y-44884631D01*
X42035120Y-44708342D01*
X42355353Y-44555184D01*
X42769290Y-44412523D01*
X43302684Y-44267727D01*
X43877278Y-44131704D01*
X44318501Y-44002353D01*
X44753797Y-43808857D01*
X45218679Y-43531875D01*
X45748663Y-43152065D01*
X45921667Y-43018311D01*
X46283281Y-42761460D01*
X46640161Y-42553410D01*
X46931867Y-42428978D01*
X47278252Y-42355723D01*
X47683361Y-42314897D01*
X48087189Y-42308190D01*
X48429733Y-42337293D01*
G36*
X73897195Y-46947446D02*
G01*
X73954327Y-46956494D01*
X74302998Y-46996076D01*
X74756099Y-47024084D01*
X75248942Y-47037440D01*
X75619994Y-47035695D01*
X76224905Y-47034973D01*
X76693014Y-47067130D01*
X77054872Y-47139243D01*
X77341036Y-47258390D01*
X77582056Y-47431651D01*
X77664320Y-47509298D01*
X77936730Y-47894656D01*
X78064972Y-48347767D01*
X78049213Y-48847836D01*
X77889622Y-49374069D01*
X77645610Y-49819492D01*
X77455310Y-50075884D01*
X77254421Y-50264193D01*
X77010474Y-50397931D01*
X76691002Y-50490608D01*
X76263537Y-50555737D01*
X75766667Y-50601425D01*
X75321339Y-50640121D01*
X74885899Y-50685293D01*
X74518645Y-50730522D01*
X74327333Y-50759849D01*
X74062310Y-50791590D01*
X73678031Y-50817720D01*
X73224545Y-50835657D01*
X72751901Y-50842819D01*
X72718667Y-50842850D01*
X72218174Y-50838561D01*
X71843343Y-50822512D01*
X71550635Y-50789742D01*
X71296514Y-50735294D01*
X71037445Y-50654209D01*
X71025333Y-50649981D01*
X70464283Y-50437282D01*
X70051326Y-50238095D01*
X69767730Y-50036920D01*
X69594758Y-49818256D01*
X69513675Y-49566603D01*
X69501333Y-49389064D01*
X69560615Y-49044378D01*
X69748930Y-48740766D01*
X70081977Y-48457670D01*
X70329096Y-48305206D01*
X70609910Y-48138337D01*
X70974097Y-47910622D01*
X71365694Y-47657444D01*
X71600018Y-47501647D01*
X72089551Y-47196454D01*
X72512380Y-47000398D01*
X72920161Y-46901519D01*
X73364547Y-46887856D01*
X73897195Y-46947446D01*
X73897195Y-46947446D01*
G37*
X73897195Y-46947446D02*
X73954327Y-46956494D01*
X74302998Y-46996076D01*
X74756099Y-47024084D01*
X75248942Y-47037440D01*
X75619994Y-47035695D01*
X76224905Y-47034973D01*
X76693014Y-47067130D01*
X77054872Y-47139243D01*
X77341036Y-47258390D01*
X77582056Y-47431651D01*
X77664320Y-47509298D01*
X77936730Y-47894656D01*
X78064972Y-48347767D01*
X78049213Y-48847836D01*
X77889622Y-49374069D01*
X77645610Y-49819492D01*
X77455310Y-50075884D01*
X77254421Y-50264193D01*
X77010474Y-50397931D01*
X76691002Y-50490608D01*
X76263537Y-50555737D01*
X75766667Y-50601425D01*
X75321339Y-50640121D01*
X74885899Y-50685293D01*
X74518645Y-50730522D01*
X74327333Y-50759849D01*
X74062310Y-50791590D01*
X73678031Y-50817720D01*
X73224545Y-50835657D01*
X72751901Y-50842819D01*
X72718667Y-50842850D01*
X72218174Y-50838561D01*
X71843343Y-50822512D01*
X71550635Y-50789742D01*
X71296514Y-50735294D01*
X71037445Y-50654209D01*
X71025333Y-50649981D01*
X70464283Y-50437282D01*
X70051326Y-50238095D01*
X69767730Y-50036920D01*
X69594758Y-49818256D01*
X69513675Y-49566603D01*
X69501333Y-49389064D01*
X69560615Y-49044378D01*
X69748930Y-48740766D01*
X70081977Y-48457670D01*
X70329096Y-48305206D01*
X70609910Y-48138337D01*
X70974097Y-47910622D01*
X71365694Y-47657444D01*
X71600018Y-47501647D01*
X72089551Y-47196454D01*
X72512380Y-47000398D01*
X72920161Y-46901519D01*
X73364547Y-46887856D01*
X73897195Y-46947446D01*
G36*
X23715320Y-38965252D02*
G01*
X24139830Y-39054245D01*
X24289333Y-39093313D01*
X24566754Y-39162944D01*
X24829405Y-39214106D01*
X25111540Y-39249680D01*
X25447412Y-39272550D01*
X25871274Y-39285597D01*
X26417379Y-39291704D01*
X26660000Y-39292791D01*
X28311000Y-39298333D01*
X28861333Y-39562013D01*
X29412316Y-39891014D01*
X29815906Y-40287238D01*
X30082202Y-40767257D01*
X30221300Y-41347643D01*
X30248353Y-41838333D01*
X30225045Y-42346692D01*
X30164586Y-42891043D01*
X30075198Y-43426581D01*
X29965105Y-43908501D01*
X29842530Y-44291999D01*
X29768621Y-44452277D01*
X29556650Y-44734817D01*
X29256830Y-44962863D01*
X28852115Y-45142756D01*
X28325457Y-45280842D01*
X27659807Y-45383462D01*
X27125667Y-45435690D01*
X26437353Y-45498693D01*
X25870083Y-45568879D01*
X25375567Y-45654002D01*
X24905519Y-45761819D01*
X24629019Y-45836688D01*
X24261716Y-45952951D01*
X24023112Y-46065004D01*
X23874752Y-46195714D01*
X23793056Y-46333748D01*
X23749321Y-46522735D01*
X23760657Y-46718336D01*
X23817969Y-46852737D01*
X23865780Y-46876000D01*
X23934446Y-46945650D01*
X24049708Y-47127379D01*
X24173405Y-47356432D01*
X24276059Y-47569012D01*
X24344147Y-47752209D01*
X24384024Y-47948359D01*
X24402046Y-48199803D01*
X24404567Y-48548877D01*
X24400576Y-48869826D01*
X24384116Y-49323705D01*
X24351536Y-49764326D01*
X24307799Y-50136999D01*
X24265368Y-50360215D01*
X24176911Y-50627254D01*
X24053654Y-50911880D01*
X23916223Y-51176689D01*
X23785245Y-51384275D01*
X23681345Y-51497233D01*
X23636471Y-51500693D01*
X23547967Y-51517934D01*
X23389680Y-51621258D01*
X23348999Y-51654248D01*
X23191320Y-51767666D01*
X23028949Y-51820190D01*
X22799553Y-51824781D01*
X22601460Y-51809707D01*
X22260810Y-51795165D01*
X22028457Y-51831225D01*
X21882022Y-51902153D01*
X21694538Y-51974385D01*
X21424374Y-52021762D01*
X21125692Y-52042095D01*
X20852652Y-52033196D01*
X20659413Y-51992875D01*
X20604955Y-51953769D01*
X20495078Y-51903704D01*
X20278398Y-51876545D01*
X20155458Y-51874832D01*
X19840645Y-51877358D01*
X19542062Y-51873878D01*
X19472899Y-51871730D01*
X19250846Y-51888939D01*
X19101511Y-51945737D01*
X19096133Y-51950667D01*
X18939948Y-52027606D01*
X18841990Y-52040667D01*
X18694487Y-52075953D01*
X18440982Y-52170192D01*
X18126599Y-52305953D01*
X17991090Y-52369328D01*
X17574418Y-52545869D01*
X17109066Y-52708224D01*
X16687282Y-52824618D01*
X16639110Y-52834995D01*
X16209757Y-52906185D01*
X15763317Y-52951201D01*
X15337336Y-52969478D01*
X14969361Y-52960453D01*
X14696939Y-52923560D01*
X14564591Y-52866167D01*
X14461156Y-52821124D01*
X14246654Y-52791884D01*
X13903643Y-52777305D01*
X13414682Y-52776244D01*
X13226931Y-52778537D01*
X12741919Y-52787202D01*
X12388272Y-52800634D01*
X12128031Y-52824974D01*
X11923234Y-52866367D01*
X11735919Y-52930955D01*
X11528126Y-53024882D01*
X11439489Y-53067795D01*
X11133835Y-53195658D01*
X10759447Y-53321528D01*
X10357615Y-53435203D01*
X9969629Y-53526479D01*
X9636778Y-53585155D01*
X9400353Y-53601025D01*
X9329681Y-53589150D01*
X9168602Y-53582707D01*
X8916243Y-53624342D01*
X8637907Y-53697665D01*
X8398895Y-53786286D01*
X8287333Y-53850760D01*
X8104129Y-53950856D01*
X7790599Y-54070110D01*
X7383019Y-54197371D01*
X6917662Y-54321487D01*
X6430802Y-54431308D01*
X6340000Y-54449415D01*
X5947706Y-54525950D01*
X5562249Y-54601248D01*
X5256197Y-54661133D01*
X5211707Y-54669855D01*
X4458682Y-54743762D01*
X3739784Y-54669079D01*
X3324078Y-54548531D01*
X2691133Y-54227837D01*
X2136656Y-53776760D01*
X1810333Y-53389974D01*
X1544179Y-53040965D01*
X1256207Y-52705830D01*
X975246Y-52414162D01*
X730128Y-52195553D01*
X549683Y-52079598D01*
X526229Y-52071895D01*
X328667Y-52022309D01*
X328667Y-46153349D01*
X1518287Y-45964793D01*
X2164645Y-45850531D01*
X2681369Y-45725520D01*
X3108015Y-45571986D01*
X3484136Y-45372158D01*
X3849288Y-45108262D01*
X4243025Y-44762526D01*
X4288221Y-44720201D01*
X4829841Y-44244690D01*
X5327560Y-43887760D01*
X5824515Y-43622741D01*
X6363842Y-43422964D01*
X6407870Y-43409669D01*
X7110539Y-43263811D01*
X7837673Y-43244633D01*
X8622850Y-43352862D01*
X9095491Y-43468032D01*
X9692783Y-43611933D01*
X10193668Y-43676386D01*
X10651992Y-43660026D01*
X11121605Y-43561488D01*
X11589333Y-43404826D01*
X11982962Y-43257540D01*
X12382041Y-43108789D01*
X12713379Y-42985842D01*
X12774667Y-42963212D01*
X13172664Y-42840813D01*
X13640843Y-42745264D01*
X14204964Y-42673129D01*
X14890788Y-42620970D01*
X15568667Y-42590465D01*
X16131633Y-42563074D01*
X16561538Y-42522388D01*
X16894435Y-42463726D01*
X17163761Y-42383377D01*
X17516226Y-42223484D01*
X17964159Y-41975963D01*
X18474146Y-41663015D01*
X19012771Y-41306844D01*
X19546620Y-40929651D01*
X20042278Y-40553639D01*
X20466330Y-40201009D01*
X20518670Y-40154239D01*
X21037564Y-39710638D01*
X21490265Y-39385978D01*
X21911046Y-39162892D01*
X22334179Y-39024011D01*
X22793939Y-38951968D01*
X22908914Y-38942997D01*
X23333799Y-38931304D01*
X23715320Y-38965252D01*
X23715320Y-38965252D01*
G37*
X23715320Y-38965252D02*
X24139830Y-39054245D01*
X24289333Y-39093313D01*
X24566754Y-39162944D01*
X24829405Y-39214106D01*
X25111540Y-39249680D01*
X25447412Y-39272550D01*
X25871274Y-39285597D01*
X26417379Y-39291704D01*
X26660000Y-39292791D01*
X28311000Y-39298333D01*
X28861333Y-39562013D01*
X29412316Y-39891014D01*
X29815906Y-40287238D01*
X30082202Y-40767257D01*
X30221300Y-41347643D01*
X30248353Y-41838333D01*
X30225045Y-42346692D01*
X30164586Y-42891043D01*
X30075198Y-43426581D01*
X29965105Y-43908501D01*
X29842530Y-44291999D01*
X29768621Y-44452277D01*
X29556650Y-44734817D01*
X29256830Y-44962863D01*
X28852115Y-45142756D01*
X28325457Y-45280842D01*
X27659807Y-45383462D01*
X27125667Y-45435690D01*
X26437353Y-45498693D01*
X25870083Y-45568879D01*
X25375567Y-45654002D01*
X24905519Y-45761819D01*
X24629019Y-45836688D01*
X24261716Y-45952951D01*
X24023112Y-46065004D01*
X23874752Y-46195714D01*
X23793056Y-46333748D01*
X23749321Y-46522735D01*
X23760657Y-46718336D01*
X23817969Y-46852737D01*
X23865780Y-46876000D01*
X23934446Y-46945650D01*
X24049708Y-47127379D01*
X24173405Y-47356432D01*
X24276059Y-47569012D01*
X24344147Y-47752209D01*
X24384024Y-47948359D01*
X24402046Y-48199803D01*
X24404567Y-48548877D01*
X24400576Y-48869826D01*
X24384116Y-49323705D01*
X24351536Y-49764326D01*
X24307799Y-50136999D01*
X24265368Y-50360215D01*
X24176911Y-50627254D01*
X24053654Y-50911880D01*
X23916223Y-51176689D01*
X23785245Y-51384275D01*
X23681345Y-51497233D01*
X23636471Y-51500693D01*
X23547967Y-51517934D01*
X23389680Y-51621258D01*
X23348999Y-51654248D01*
X23191320Y-51767666D01*
X23028949Y-51820190D01*
X22799553Y-51824781D01*
X22601460Y-51809707D01*
X22260810Y-51795165D01*
X22028457Y-51831225D01*
X21882022Y-51902153D01*
X21694538Y-51974385D01*
X21424374Y-52021762D01*
X21125692Y-52042095D01*
X20852652Y-52033196D01*
X20659413Y-51992875D01*
X20604955Y-51953769D01*
X20495078Y-51903704D01*
X20278398Y-51876545D01*
X20155458Y-51874832D01*
X19840645Y-51877358D01*
X19542062Y-51873878D01*
X19472899Y-51871730D01*
X19250846Y-51888939D01*
X19101511Y-51945737D01*
X19096133Y-51950667D01*
X18939948Y-52027606D01*
X18841990Y-52040667D01*
X18694487Y-52075953D01*
X18440982Y-52170192D01*
X18126599Y-52305953D01*
X17991090Y-52369328D01*
X17574418Y-52545869D01*
X17109066Y-52708224D01*
X16687282Y-52824618D01*
X16639110Y-52834995D01*
X16209757Y-52906185D01*
X15763317Y-52951201D01*
X15337336Y-52969478D01*
X14969361Y-52960453D01*
X14696939Y-52923560D01*
X14564591Y-52866167D01*
X14461156Y-52821124D01*
X14246654Y-52791884D01*
X13903643Y-52777305D01*
X13414682Y-52776244D01*
X13226931Y-52778537D01*
X12741919Y-52787202D01*
X12388272Y-52800634D01*
X12128031Y-52824974D01*
X11923234Y-52866367D01*
X11735919Y-52930955D01*
X11528126Y-53024882D01*
X11439489Y-53067795D01*
X11133835Y-53195658D01*
X10759447Y-53321528D01*
X10357615Y-53435203D01*
X9969629Y-53526479D01*
X9636778Y-53585155D01*
X9400353Y-53601025D01*
X9329681Y-53589150D01*
X9168602Y-53582707D01*
X8916243Y-53624342D01*
X8637907Y-53697665D01*
X8398895Y-53786286D01*
X8287333Y-53850760D01*
X8104129Y-53950856D01*
X7790599Y-54070110D01*
X7383019Y-54197371D01*
X6917662Y-54321487D01*
X6430802Y-54431308D01*
X6340000Y-54449415D01*
X5947706Y-54525950D01*
X5562249Y-54601248D01*
X5256197Y-54661133D01*
X5211707Y-54669855D01*
X4458682Y-54743762D01*
X3739784Y-54669079D01*
X3324078Y-54548531D01*
X2691133Y-54227837D01*
X2136656Y-53776760D01*
X1810333Y-53389974D01*
X1544179Y-53040965D01*
X1256207Y-52705830D01*
X975246Y-52414162D01*
X730128Y-52195553D01*
X549683Y-52079598D01*
X526229Y-52071895D01*
X328667Y-52022309D01*
X328667Y-46153349D01*
X1518287Y-45964793D01*
X2164645Y-45850531D01*
X2681369Y-45725520D01*
X3108015Y-45571986D01*
X3484136Y-45372158D01*
X3849288Y-45108262D01*
X4243025Y-44762526D01*
X4288221Y-44720201D01*
X4829841Y-44244690D01*
X5327560Y-43887760D01*
X5824515Y-43622741D01*
X6363842Y-43422964D01*
X6407870Y-43409669D01*
X7110539Y-43263811D01*
X7837673Y-43244633D01*
X8622850Y-43352862D01*
X9095491Y-43468032D01*
X9692783Y-43611933D01*
X10193668Y-43676386D01*
X10651992Y-43660026D01*
X11121605Y-43561488D01*
X11589333Y-43404826D01*
X11982962Y-43257540D01*
X12382041Y-43108789D01*
X12713379Y-42985842D01*
X12774667Y-42963212D01*
X13172664Y-42840813D01*
X13640843Y-42745264D01*
X14204964Y-42673129D01*
X14890788Y-42620970D01*
X15568667Y-42590465D01*
X16131633Y-42563074D01*
X16561538Y-42522388D01*
X16894435Y-42463726D01*
X17163761Y-42383377D01*
X17516226Y-42223484D01*
X17964159Y-41975963D01*
X18474146Y-41663015D01*
X19012771Y-41306844D01*
X19546620Y-40929651D01*
X20042278Y-40553639D01*
X20466330Y-40201009D01*
X20518670Y-40154239D01*
X21037564Y-39710638D01*
X21490265Y-39385978D01*
X21911046Y-39162892D01*
X22334179Y-39024011D01*
X22793939Y-38951968D01*
X22908914Y-38942997D01*
X23333799Y-38931304D01*
X23715320Y-38965252D01*
G36*
X62727426Y-53322037D02*
G01*
X63465354Y-53432751D01*
X64145577Y-53631868D01*
X64818554Y-53933957D01*
X65495841Y-54328771D01*
X65884798Y-54551452D01*
X66253076Y-54698973D01*
X66643337Y-54778792D01*
X67098246Y-54798366D01*
X67660465Y-54765154D01*
X67872876Y-54744294D01*
X68390314Y-54696490D01*
X68791143Y-54677210D01*
X69125625Y-54686218D01*
X69444023Y-54723278D01*
X69524855Y-54736530D01*
X70200469Y-54932798D01*
X70786921Y-55271913D01*
X71277170Y-55748636D01*
X71640780Y-56311254D01*
X71791161Y-56635140D01*
X71869778Y-56911702D01*
X71896820Y-57227923D01*
X71897433Y-57417000D01*
X71874268Y-57781551D01*
X71820046Y-58113211D01*
X71761308Y-58306000D01*
X71574800Y-58654688D01*
X71305372Y-59063522D01*
X70992357Y-59480281D01*
X70675087Y-59852743D01*
X70392893Y-60128689D01*
X70381157Y-60138404D01*
X70241681Y-60249658D01*
X70111995Y-60337195D01*
X69968620Y-60405848D01*
X69788075Y-60460451D01*
X69546882Y-60505835D01*
X69221561Y-60546833D01*
X68788632Y-60588278D01*
X68224618Y-60635002D01*
X67808000Y-60668016D01*
X66942831Y-60756425D01*
X66215746Y-60873493D01*
X65634883Y-61017343D01*
X65208385Y-61186102D01*
X65014000Y-61311382D01*
X64781205Y-61441237D01*
X64416864Y-61569720D01*
X63958606Y-61688197D01*
X63444062Y-61788035D01*
X62910864Y-61860602D01*
X62473043Y-61894306D01*
X62026437Y-61923629D01*
X61589159Y-61968123D01*
X61219913Y-62021025D01*
X61028077Y-62060799D01*
X60532343Y-62159199D01*
X59977122Y-62220558D01*
X59430942Y-62240389D01*
X58962329Y-62214207D01*
X58875667Y-62201696D01*
X58278934Y-62028346D01*
X57670848Y-61713917D01*
X57162338Y-61340043D01*
X56914247Y-61152739D01*
X56563406Y-60918668D01*
X56157646Y-60668514D01*
X55768704Y-60446017D01*
X55173806Y-60100208D01*
X54722657Y-59785405D01*
X54397981Y-59480220D01*
X54182503Y-59163262D01*
X54058947Y-58813143D01*
X54010040Y-58408473D01*
X54007333Y-58265152D01*
X54057703Y-57685303D01*
X54216448Y-57201165D01*
X54495021Y-56800608D01*
X54904875Y-56471502D01*
X55457463Y-56201718D01*
X56164238Y-55979126D01*
X56166333Y-55978586D01*
X56603329Y-55852613D01*
X56968043Y-55709021D01*
X57303747Y-55522659D01*
X57653716Y-55268373D01*
X58061223Y-54921009D01*
X58198333Y-54797462D01*
X58615493Y-54426042D01*
X58953126Y-54149465D01*
X59251127Y-53942519D01*
X59549388Y-53779996D01*
X59887805Y-53636684D01*
X60230333Y-53513381D01*
X60561333Y-53406977D01*
X60848041Y-53338861D01*
X61147044Y-53301210D01*
X61514930Y-53286203D01*
X61881333Y-53285158D01*
X62727426Y-53322037D01*
X62727426Y-53322037D01*
G37*
X62727426Y-53322037D02*
X63465354Y-53432751D01*
X64145577Y-53631868D01*
X64818554Y-53933957D01*
X65495841Y-54328771D01*
X65884798Y-54551452D01*
X66253076Y-54698973D01*
X66643337Y-54778792D01*
X67098246Y-54798366D01*
X67660465Y-54765154D01*
X67872876Y-54744294D01*
X68390314Y-54696490D01*
X68791143Y-54677210D01*
X69125625Y-54686218D01*
X69444023Y-54723278D01*
X69524855Y-54736530D01*
X70200469Y-54932798D01*
X70786921Y-55271913D01*
X71277170Y-55748636D01*
X71640780Y-56311254D01*
X71791161Y-56635140D01*
X71869778Y-56911702D01*
X71896820Y-57227923D01*
X71897433Y-57417000D01*
X71874268Y-57781551D01*
X71820046Y-58113211D01*
X71761308Y-58306000D01*
X71574800Y-58654688D01*
X71305372Y-59063522D01*
X70992357Y-59480281D01*
X70675087Y-59852743D01*
X70392893Y-60128689D01*
X70381157Y-60138404D01*
X70241681Y-60249658D01*
X70111995Y-60337195D01*
X69968620Y-60405848D01*
X69788075Y-60460451D01*
X69546882Y-60505835D01*
X69221561Y-60546833D01*
X68788632Y-60588278D01*
X68224618Y-60635002D01*
X67808000Y-60668016D01*
X66942831Y-60756425D01*
X66215746Y-60873493D01*
X65634883Y-61017343D01*
X65208385Y-61186102D01*
X65014000Y-61311382D01*
X64781205Y-61441237D01*
X64416864Y-61569720D01*
X63958606Y-61688197D01*
X63444062Y-61788035D01*
X62910864Y-61860602D01*
X62473043Y-61894306D01*
X62026437Y-61923629D01*
X61589159Y-61968123D01*
X61219913Y-62021025D01*
X61028077Y-62060799D01*
X60532343Y-62159199D01*
X59977122Y-62220558D01*
X59430942Y-62240389D01*
X58962329Y-62214207D01*
X58875667Y-62201696D01*
X58278934Y-62028346D01*
X57670848Y-61713917D01*
X57162338Y-61340043D01*
X56914247Y-61152739D01*
X56563406Y-60918668D01*
X56157646Y-60668514D01*
X55768704Y-60446017D01*
X55173806Y-60100208D01*
X54722657Y-59785405D01*
X54397981Y-59480220D01*
X54182503Y-59163262D01*
X54058947Y-58813143D01*
X54010040Y-58408473D01*
X54007333Y-58265152D01*
X54057703Y-57685303D01*
X54216448Y-57201165D01*
X54495021Y-56800608D01*
X54904875Y-56471502D01*
X55457463Y-56201718D01*
X56164238Y-55979126D01*
X56166333Y-55978586D01*
X56603329Y-55852613D01*
X56968043Y-55709021D01*
X57303747Y-55522659D01*
X57653716Y-55268373D01*
X58061223Y-54921009D01*
X58198333Y-54797462D01*
X58615493Y-54426042D01*
X58953126Y-54149465D01*
X59251127Y-53942519D01*
X59549388Y-53779996D01*
X59887805Y-53636684D01*
X60230333Y-53513381D01*
X60561333Y-53406977D01*
X60848041Y-53338861D01*
X61147044Y-53301210D01*
X61514930Y-53286203D01*
X61881333Y-53285158D01*
X62727426Y-53322037D01*
G36*
X91012912Y-50802000D02*
G01*
X91513443Y-50888879D01*
X91817129Y-51008809D01*
X92023461Y-51146128D01*
X92298798Y-51370326D01*
X92597854Y-51643339D01*
X92742333Y-51786469D01*
X93025003Y-52062924D01*
X93293959Y-52304678D01*
X93509151Y-52476643D01*
X93589000Y-52528188D01*
X93775934Y-52585165D01*
X94107761Y-52640690D01*
X94560040Y-52692868D01*
X95108333Y-52739806D01*
X95728199Y-52779609D01*
X96395198Y-52810383D01*
X97084891Y-52830234D01*
X97568333Y-52836617D01*
X97985121Y-52836499D01*
X98286686Y-52822973D01*
X98527110Y-52785582D01*
X98760478Y-52713870D01*
X99040874Y-52597378D01*
X99219333Y-52517389D01*
X99559696Y-52364936D01*
X99860270Y-52232629D01*
X100074311Y-52140950D01*
X100129500Y-52118578D01*
X100320000Y-52044858D01*
X100320000Y-65079333D01*
X100110908Y-65079333D01*
X99904192Y-65038102D01*
X99649943Y-64935618D01*
X99584147Y-64900908D01*
X99148339Y-64692871D01*
X98625258Y-64497754D01*
X98089233Y-64339996D01*
X97614592Y-64244033D01*
X97568333Y-64238183D01*
X97301157Y-64216565D01*
X97065932Y-64228152D01*
X96807469Y-64282057D01*
X96470579Y-64387397D01*
X96293801Y-64448685D01*
X95941303Y-64576280D01*
X95635373Y-64693432D01*
X95421362Y-64782486D01*
X95362467Y-64811258D01*
X94809316Y-65088426D01*
X94208517Y-65318036D01*
X93529120Y-65508902D01*
X92740174Y-65669837D01*
X91895667Y-65798411D01*
X91683175Y-65799201D01*
X91374132Y-65768215D01*
X91049000Y-65714641D01*
X90390630Y-65555550D01*
X89873606Y-65365753D01*
X89678733Y-65267317D01*
X89492040Y-65186504D01*
X89382399Y-65163872D01*
X89233973Y-65121637D01*
X88977900Y-65007897D01*
X88649550Y-64841815D01*
X88284291Y-64642552D01*
X87917492Y-64429271D01*
X87584521Y-64221134D01*
X87368160Y-64072586D01*
X86802087Y-63562532D01*
X86368059Y-62966162D01*
X86072854Y-62305550D01*
X85923248Y-61602769D01*
X85926020Y-60879895D01*
X86087948Y-60158999D01*
X86130473Y-60041667D01*
X86276631Y-59695762D01*
X86438651Y-59366190D01*
X86576561Y-59132004D01*
X86699237Y-58938837D01*
X86879386Y-58635304D01*
X87094446Y-58260260D01*
X87321855Y-57852564D01*
X87363110Y-57777337D01*
X87624534Y-57283706D01*
X87792104Y-56906737D01*
X87861190Y-56619169D01*
X87827161Y-56393743D01*
X87685384Y-56203200D01*
X87431229Y-56020279D01*
X87060064Y-55817720D01*
X87027333Y-55800952D01*
X86773674Y-55664266D01*
X86585231Y-55549650D01*
X86511892Y-55491189D01*
X86394661Y-55396165D01*
X86151390Y-55250475D01*
X85811351Y-55070916D01*
X85588000Y-54961074D01*
X85292892Y-54849435D01*
X84986644Y-54775087D01*
X84975421Y-54773416D01*
X84741694Y-54714094D01*
X84577767Y-54627205D01*
X84562887Y-54612020D01*
X84411952Y-54510425D01*
X84338133Y-54496000D01*
X84162044Y-54422295D01*
X84043509Y-54229351D01*
X83989157Y-53959421D01*
X84005618Y-53654759D01*
X84099518Y-53357620D01*
X84146176Y-53272362D01*
X84304457Y-53080344D01*
X84572414Y-52821189D01*
X84917856Y-52520213D01*
X85308592Y-52202732D01*
X85712430Y-51894062D01*
X86097180Y-51619519D01*
X86430650Y-51404418D01*
X86680648Y-51274074D01*
X86693648Y-51268985D01*
X87074594Y-51164805D01*
X87573006Y-51089935D01*
X87945815Y-51060449D01*
X88414245Y-51026060D01*
X88955834Y-50971813D01*
X89477019Y-50907466D01*
X89643931Y-50883359D01*
X90394663Y-50800444D01*
X91012912Y-50802000D01*
X91012912Y-50802000D01*
G37*
X91012912Y-50802000D02*
X91513443Y-50888879D01*
X91817129Y-51008809D01*
X92023461Y-51146128D01*
X92298798Y-51370326D01*
X92597854Y-51643339D01*
X92742333Y-51786469D01*
X93025003Y-52062924D01*
X93293959Y-52304678D01*
X93509151Y-52476643D01*
X93589000Y-52528188D01*
X93775934Y-52585165D01*
X94107761Y-52640690D01*
X94560040Y-52692868D01*
X95108333Y-52739806D01*
X95728199Y-52779609D01*
X96395198Y-52810383D01*
X97084891Y-52830234D01*
X97568333Y-52836617D01*
X97985121Y-52836499D01*
X98286686Y-52822973D01*
X98527110Y-52785582D01*
X98760478Y-52713870D01*
X99040874Y-52597378D01*
X99219333Y-52517389D01*
X99559696Y-52364936D01*
X99860270Y-52232629D01*
X100074311Y-52140950D01*
X100129500Y-52118578D01*
X100320000Y-52044858D01*
X100320000Y-65079333D01*
X100110908Y-65079333D01*
X99904192Y-65038102D01*
X99649943Y-64935618D01*
X99584147Y-64900908D01*
X99148339Y-64692871D01*
X98625258Y-64497754D01*
X98089233Y-64339996D01*
X97614592Y-64244033D01*
X97568333Y-64238183D01*
X97301157Y-64216565D01*
X97065932Y-64228152D01*
X96807469Y-64282057D01*
X96470579Y-64387397D01*
X96293801Y-64448685D01*
X95941303Y-64576280D01*
X95635373Y-64693432D01*
X95421362Y-64782486D01*
X95362467Y-64811258D01*
X94809316Y-65088426D01*
X94208517Y-65318036D01*
X93529120Y-65508902D01*
X92740174Y-65669837D01*
X91895667Y-65798411D01*
X91683175Y-65799201D01*
X91374132Y-65768215D01*
X91049000Y-65714641D01*
X90390630Y-65555550D01*
X89873606Y-65365753D01*
X89678733Y-65267317D01*
X89492040Y-65186504D01*
X89382399Y-65163872D01*
X89233973Y-65121637D01*
X88977900Y-65007897D01*
X88649550Y-64841815D01*
X88284291Y-64642552D01*
X87917492Y-64429271D01*
X87584521Y-64221134D01*
X87368160Y-64072586D01*
X86802087Y-63562532D01*
X86368059Y-62966162D01*
X86072854Y-62305550D01*
X85923248Y-61602769D01*
X85926020Y-60879895D01*
X86087948Y-60158999D01*
X86130473Y-60041667D01*
X86276631Y-59695762D01*
X86438651Y-59366190D01*
X86576561Y-59132004D01*
X86699237Y-58938837D01*
X86879386Y-58635304D01*
X87094446Y-58260260D01*
X87321855Y-57852564D01*
X87363110Y-57777337D01*
X87624534Y-57283706D01*
X87792104Y-56906737D01*
X87861190Y-56619169D01*
X87827161Y-56393743D01*
X87685384Y-56203200D01*
X87431229Y-56020279D01*
X87060064Y-55817720D01*
X87027333Y-55800952D01*
X86773674Y-55664266D01*
X86585231Y-55549650D01*
X86511892Y-55491189D01*
X86394661Y-55396165D01*
X86151390Y-55250475D01*
X85811351Y-55070916D01*
X85588000Y-54961074D01*
X85292892Y-54849435D01*
X84986644Y-54775087D01*
X84975421Y-54773416D01*
X84741694Y-54714094D01*
X84577767Y-54627205D01*
X84562887Y-54612020D01*
X84411952Y-54510425D01*
X84338133Y-54496000D01*
X84162044Y-54422295D01*
X84043509Y-54229351D01*
X83989157Y-53959421D01*
X84005618Y-53654759D01*
X84099518Y-53357620D01*
X84146176Y-53272362D01*
X84304457Y-53080344D01*
X84572414Y-52821189D01*
X84917856Y-52520213D01*
X85308592Y-52202732D01*
X85712430Y-51894062D01*
X86097180Y-51619519D01*
X86430650Y-51404418D01*
X86680648Y-51274074D01*
X86693648Y-51268985D01*
X87074594Y-51164805D01*
X87573006Y-51089935D01*
X87945815Y-51060449D01*
X88414245Y-51026060D01*
X88955834Y-50971813D01*
X89477019Y-50907466D01*
X89643931Y-50883359D01*
X90394663Y-50800444D01*
X91012912Y-50802000D01*
G36*
X35121319Y-54970353D02*
G01*
X35941342Y-55127646D01*
X36737520Y-55405236D01*
X37549638Y-55815441D01*
X37985406Y-56081366D01*
X38430719Y-56352579D01*
X38815983Y-56544166D01*
X39189601Y-56669399D01*
X39599977Y-56741552D01*
X40095514Y-56773897D01*
X40533112Y-56779990D01*
X41303257Y-56800067D01*
X41943995Y-56867362D01*
X42492179Y-56996990D01*
X42984663Y-57204064D01*
X43458302Y-57503698D01*
X43949949Y-57911007D01*
X44437242Y-58381080D01*
X44882423Y-58816014D01*
X45259478Y-59148284D01*
X45605481Y-59407916D01*
X45957503Y-59624937D01*
X46006333Y-59651965D01*
X46681661Y-60039534D01*
X47214355Y-60390099D01*
X47622190Y-60720897D01*
X47922943Y-61049165D01*
X48134390Y-61392141D01*
X48274306Y-61767064D01*
X48302806Y-61878918D01*
X48363175Y-62241532D01*
X48373745Y-62565059D01*
X48337611Y-62812828D01*
X48257865Y-62948168D01*
X48211366Y-62962667D01*
X48080956Y-63020391D01*
X47952583Y-63133197D01*
X47761886Y-63256658D01*
X47637129Y-63252587D01*
X47494707Y-63267130D01*
X47247910Y-63345969D01*
X46939491Y-63469577D01*
X46612202Y-63618424D01*
X46308798Y-63772980D01*
X46072031Y-63913717D01*
X45944656Y-64021106D01*
X45940531Y-64027569D01*
X45818388Y-64118819D01*
X45607357Y-64190916D01*
X45579763Y-64196527D01*
X45370190Y-64253033D01*
X45245032Y-64318606D01*
X45238401Y-64326931D01*
X45123915Y-64391229D01*
X45038037Y-64402000D01*
X44855564Y-64463288D01*
X44778667Y-64529000D01*
X44657844Y-64601883D01*
X44426589Y-64643249D01*
X44057056Y-64657880D01*
X44027466Y-64658020D01*
X43657848Y-64669951D01*
X43305634Y-64699326D01*
X43046124Y-64739830D01*
X43043000Y-64740567D01*
X42762532Y-64795536D01*
X42410905Y-64849109D01*
X42196333Y-64875204D01*
X41901567Y-64921669D01*
X41664668Y-64985880D01*
X41561333Y-65037234D01*
X41393147Y-65128070D01*
X41156387Y-65202717D01*
X41138000Y-65206687D01*
X40910581Y-65269605D01*
X40752127Y-65340777D01*
X40743101Y-65347445D01*
X40604506Y-65394845D01*
X40344521Y-65434498D01*
X40007799Y-65464533D01*
X39638991Y-65483081D01*
X39282749Y-65488273D01*
X38983726Y-65478240D01*
X38786572Y-65451113D01*
X38740975Y-65431258D01*
X38601949Y-65394077D01*
X38351097Y-65387404D01*
X38042157Y-65406210D01*
X37728865Y-65445466D01*
X37464958Y-65500142D01*
X37304173Y-65565208D01*
X37303369Y-65565816D01*
X37162202Y-65633506D01*
X36882061Y-65734572D01*
X36488143Y-65860901D01*
X36005647Y-66004382D01*
X35507667Y-66143883D01*
X35167804Y-66215840D01*
X34744279Y-66276769D01*
X34322756Y-66314601D01*
X34280000Y-66316843D01*
X33899908Y-66334689D01*
X33416350Y-66356852D01*
X32895035Y-66380344D01*
X32459667Y-66399636D01*
X32035975Y-66421187D01*
X31667263Y-66445453D01*
X31389956Y-66469650D01*
X31240477Y-66490991D01*
X31232000Y-66493529D01*
X31091297Y-66514487D01*
X30814324Y-66532479D01*
X30431943Y-66547267D01*
X29975013Y-66558614D01*
X29474396Y-66566281D01*
X28960951Y-66570033D01*
X28465540Y-66569630D01*
X28019022Y-66564836D01*
X27652257Y-66555413D01*
X27396108Y-66541124D01*
X27285654Y-66523905D01*
X27078978Y-66458690D01*
X26817687Y-66402327D01*
X26797069Y-66398950D01*
X26409618Y-66287747D01*
X25954176Y-66079405D01*
X25478029Y-65800819D01*
X25028466Y-65478883D01*
X24742756Y-65230526D01*
X24343393Y-64808569D01*
X24073888Y-64417460D01*
X23913061Y-64011492D01*
X23839729Y-63544959D01*
X23829108Y-63259000D01*
X23835474Y-62879784D01*
X23872727Y-62592532D01*
X23957240Y-62320498D01*
X24096430Y-62005797D01*
X24403509Y-61466620D01*
X24789757Y-60998209D01*
X25279499Y-60578642D01*
X25897061Y-60186002D01*
X26413575Y-59917789D01*
X26976419Y-59630493D01*
X27411578Y-59366935D01*
X27752002Y-59097291D01*
X28030645Y-58791733D01*
X28280458Y-58420435D01*
X28491651Y-58036844D01*
X28987740Y-57259273D01*
X29612932Y-56580242D01*
X30353635Y-56007123D01*
X31196259Y-55547283D01*
X32127212Y-55208094D01*
X33132902Y-54996926D01*
X34199739Y-54921148D01*
X34237667Y-54921039D01*
X35121319Y-54970353D01*
X35121319Y-54970353D01*
G37*
X35121319Y-54970353D02*
X35941342Y-55127646D01*
X36737520Y-55405236D01*
X37549638Y-55815441D01*
X37985406Y-56081366D01*
X38430719Y-56352579D01*
X38815983Y-56544166D01*
X39189601Y-56669399D01*
X39599977Y-56741552D01*
X40095514Y-56773897D01*
X40533112Y-56779990D01*
X41303257Y-56800067D01*
X41943995Y-56867362D01*
X42492179Y-56996990D01*
X42984663Y-57204064D01*
X43458302Y-57503698D01*
X43949949Y-57911007D01*
X44437242Y-58381080D01*
X44882423Y-58816014D01*
X45259478Y-59148284D01*
X45605481Y-59407916D01*
X45957503Y-59624937D01*
X46006333Y-59651965D01*
X46681661Y-60039534D01*
X47214355Y-60390099D01*
X47622190Y-60720897D01*
X47922943Y-61049165D01*
X48134390Y-61392141D01*
X48274306Y-61767064D01*
X48302806Y-61878918D01*
X48363175Y-62241532D01*
X48373745Y-62565059D01*
X48337611Y-62812828D01*
X48257865Y-62948168D01*
X48211366Y-62962667D01*
X48080956Y-63020391D01*
X47952583Y-63133197D01*
X47761886Y-63256658D01*
X47637129Y-63252587D01*
X47494707Y-63267130D01*
X47247910Y-63345969D01*
X46939491Y-63469577D01*
X46612202Y-63618424D01*
X46308798Y-63772980D01*
X46072031Y-63913717D01*
X45944656Y-64021106D01*
X45940531Y-64027569D01*
X45818388Y-64118819D01*
X45607357Y-64190916D01*
X45579763Y-64196527D01*
X45370190Y-64253033D01*
X45245032Y-64318606D01*
X45238401Y-64326931D01*
X45123915Y-64391229D01*
X45038037Y-64402000D01*
X44855564Y-64463288D01*
X44778667Y-64529000D01*
X44657844Y-64601883D01*
X44426589Y-64643249D01*
X44057056Y-64657880D01*
X44027466Y-64658020D01*
X43657848Y-64669951D01*
X43305634Y-64699326D01*
X43046124Y-64739830D01*
X43043000Y-64740567D01*
X42762532Y-64795536D01*
X42410905Y-64849109D01*
X42196333Y-64875204D01*
X41901567Y-64921669D01*
X41664668Y-64985880D01*
X41561333Y-65037234D01*
X41393147Y-65128070D01*
X41156387Y-65202717D01*
X41138000Y-65206687D01*
X40910581Y-65269605D01*
X40752127Y-65340777D01*
X40743101Y-65347445D01*
X40604506Y-65394845D01*
X40344521Y-65434498D01*
X40007799Y-65464533D01*
X39638991Y-65483081D01*
X39282749Y-65488273D01*
X38983726Y-65478240D01*
X38786572Y-65451113D01*
X38740975Y-65431258D01*
X38601949Y-65394077D01*
X38351097Y-65387404D01*
X38042157Y-65406210D01*
X37728865Y-65445466D01*
X37464958Y-65500142D01*
X37304173Y-65565208D01*
X37303369Y-65565816D01*
X37162202Y-65633506D01*
X36882061Y-65734572D01*
X36488143Y-65860901D01*
X36005647Y-66004382D01*
X35507667Y-66143883D01*
X35167804Y-66215840D01*
X34744279Y-66276769D01*
X34322756Y-66314601D01*
X34280000Y-66316843D01*
X33899908Y-66334689D01*
X33416350Y-66356852D01*
X32895035Y-66380344D01*
X32459667Y-66399636D01*
X32035975Y-66421187D01*
X31667263Y-66445453D01*
X31389956Y-66469650D01*
X31240477Y-66490991D01*
X31232000Y-66493529D01*
X31091297Y-66514487D01*
X30814324Y-66532479D01*
X30431943Y-66547267D01*
X29975013Y-66558614D01*
X29474396Y-66566281D01*
X28960951Y-66570033D01*
X28465540Y-66569630D01*
X28019022Y-66564836D01*
X27652257Y-66555413D01*
X27396108Y-66541124D01*
X27285654Y-66523905D01*
X27078978Y-66458690D01*
X26817687Y-66402327D01*
X26797069Y-66398950D01*
X26409618Y-66287747D01*
X25954176Y-66079405D01*
X25478029Y-65800819D01*
X25028466Y-65478883D01*
X24742756Y-65230526D01*
X24343393Y-64808569D01*
X24073888Y-64417460D01*
X23913061Y-64011492D01*
X23839729Y-63544959D01*
X23829108Y-63259000D01*
X23835474Y-62879784D01*
X23872727Y-62592532D01*
X23957240Y-62320498D01*
X24096430Y-62005797D01*
X24403509Y-61466620D01*
X24789757Y-60998209D01*
X25279499Y-60578642D01*
X25897061Y-60186002D01*
X26413575Y-59917789D01*
X26976419Y-59630493D01*
X27411578Y-59366935D01*
X27752002Y-59097291D01*
X28030645Y-58791733D01*
X28280458Y-58420435D01*
X28491651Y-58036844D01*
X28987740Y-57259273D01*
X29612932Y-56580242D01*
X30353635Y-56007123D01*
X31196259Y-55547283D01*
X32127212Y-55208094D01*
X33132902Y-54996926D01*
X34199739Y-54921148D01*
X34237667Y-54921039D01*
X35121319Y-54970353D01*
G36*
X18609575Y-66783052D02*
G01*
X19018360Y-66853673D01*
X19482773Y-66987951D01*
X19585049Y-67022299D01*
X19930934Y-67135532D01*
X20226864Y-67223537D01*
X20429091Y-67273708D01*
X20481692Y-67280667D01*
X20624844Y-67316935D01*
X20865366Y-67411997D01*
X21149814Y-67544608D01*
X21628100Y-67852090D01*
X21973514Y-68221532D01*
X22176168Y-68635086D01*
X22226176Y-69074906D01*
X22167449Y-69381440D01*
X22011638Y-69696947D01*
X21768960Y-70007765D01*
X21491698Y-70253878D01*
X21326000Y-70347385D01*
X20822700Y-70548057D01*
X20419285Y-70692420D01*
X20063090Y-70797665D01*
X19701452Y-70880985D01*
X19675000Y-70886354D01*
X19298752Y-70941031D01*
X18838914Y-70976683D01*
X18347012Y-70992577D01*
X17874572Y-70987979D01*
X17473122Y-70962154D01*
X17219667Y-70921333D01*
X16953992Y-70873767D01*
X16658728Y-70847150D01*
X16645352Y-70846684D01*
X16297585Y-70780711D01*
X15918032Y-70624717D01*
X15572806Y-70412523D01*
X15328020Y-70177950D01*
X15322098Y-70169769D01*
X15167847Y-69831319D01*
X15157611Y-69445654D01*
X15293472Y-69006985D01*
X15577518Y-68509522D01*
X16011832Y-67947475D01*
X16198766Y-67735491D01*
X16589433Y-67333077D01*
X16934119Y-67055010D01*
X17274527Y-66880773D01*
X17652359Y-66789849D01*
X18109319Y-66761723D01*
X18178321Y-66761615D01*
X18609575Y-66783052D01*
X18609575Y-66783052D01*
G37*
X18609575Y-66783052D02*
X19018360Y-66853673D01*
X19482773Y-66987951D01*
X19585049Y-67022299D01*
X19930934Y-67135532D01*
X20226864Y-67223537D01*
X20429091Y-67273708D01*
X20481692Y-67280667D01*
X20624844Y-67316935D01*
X20865366Y-67411997D01*
X21149814Y-67544608D01*
X21628100Y-67852090D01*
X21973514Y-68221532D01*
X22176168Y-68635086D01*
X22226176Y-69074906D01*
X22167449Y-69381440D01*
X22011638Y-69696947D01*
X21768960Y-70007765D01*
X21491698Y-70253878D01*
X21326000Y-70347385D01*
X20822700Y-70548057D01*
X20419285Y-70692420D01*
X20063090Y-70797665D01*
X19701452Y-70880985D01*
X19675000Y-70886354D01*
X19298752Y-70941031D01*
X18838914Y-70976683D01*
X18347012Y-70992577D01*
X17874572Y-70987979D01*
X17473122Y-70962154D01*
X17219667Y-70921333D01*
X16953992Y-70873767D01*
X16658728Y-70847150D01*
X16645352Y-70846684D01*
X16297585Y-70780711D01*
X15918032Y-70624717D01*
X15572806Y-70412523D01*
X15328020Y-70177950D01*
X15322098Y-70169769D01*
X15167847Y-69831319D01*
X15157611Y-69445654D01*
X15293472Y-69006985D01*
X15577518Y-68509522D01*
X16011832Y-67947475D01*
X16198766Y-67735491D01*
X16589433Y-67333077D01*
X16934119Y-67055010D01*
X17274527Y-66880773D01*
X17652359Y-66789849D01*
X18109319Y-66761723D01*
X18178321Y-66761615D01*
X18609575Y-66783052D01*
G36*
X773167Y-64529265D02*
G01*
X1110270Y-64567133D01*
X1442604Y-64606216D01*
X1556333Y-64620186D01*
X1846188Y-64679143D01*
X2233816Y-64787784D01*
X2662128Y-64927302D01*
X3074033Y-65078890D01*
X3412443Y-65223742D01*
X3461333Y-65247743D01*
X3653485Y-65336390D01*
X3852065Y-65405000D01*
X4081914Y-65456247D01*
X4367871Y-65492804D01*
X4734777Y-65517345D01*
X5207471Y-65532544D01*
X5810794Y-65541074D01*
X6213000Y-65543924D01*
X6836509Y-65548789D01*
X7317423Y-65556982D01*
X7682476Y-65570662D01*
X7958404Y-65591990D01*
X8171940Y-65623123D01*
X8349818Y-65666222D01*
X8518773Y-65723445D01*
X8541333Y-65731980D01*
X8995269Y-65917100D01*
X9344073Y-66095752D01*
X9646262Y-66304980D01*
X9960351Y-66581829D01*
X10103701Y-66721059D01*
X10535136Y-67201913D01*
X10826496Y-67667411D01*
X10997608Y-68157921D01*
X11066750Y-68682142D01*
X11074207Y-69033060D01*
X11042122Y-69305769D01*
X10954665Y-69582299D01*
X10842858Y-69842331D01*
X10643990Y-70209658D01*
X10388719Y-70587810D01*
X10183280Y-70837586D01*
X9928148Y-71075736D01*
X9612976Y-71320333D01*
X9278161Y-71545393D01*
X8964100Y-71724933D01*
X8711193Y-71832972D01*
X8605037Y-71852667D01*
X8478755Y-71883337D01*
X8231832Y-71966878D01*
X7899747Y-72090581D01*
X7517978Y-72241740D01*
X7512507Y-72243967D01*
X6928118Y-72473084D01*
X6460280Y-72633617D01*
X6074933Y-72734386D01*
X5738018Y-72784206D01*
X5415476Y-72791895D01*
X5398295Y-72791301D01*
X5086752Y-72810097D01*
X4850954Y-72910692D01*
X4763295Y-72975859D01*
X4357047Y-73267214D01*
X3963009Y-73450053D01*
X3537678Y-73534015D01*
X3037553Y-73528740D01*
X2550645Y-73466141D01*
X2274293Y-73383745D01*
X2051112Y-73253814D01*
X2018180Y-73222739D01*
X1851571Y-73088626D01*
X1713387Y-73038000D01*
X1571183Y-72976114D01*
X1414904Y-72827218D01*
X1414207Y-72826333D01*
X1254167Y-72676815D01*
X1103338Y-72614667D01*
X941457Y-72554361D01*
X813978Y-72445333D01*
X641179Y-72315304D01*
X498829Y-72276000D01*
X458977Y-72272481D01*
X425890Y-72252323D01*
X398937Y-72201118D01*
X377491Y-72104462D01*
X360922Y-71947950D01*
X348601Y-71717175D01*
X339899Y-71397732D01*
X334188Y-70975216D01*
X330838Y-70435222D01*
X329220Y-69763343D01*
X328707Y-68945175D01*
X328667Y-68378417D01*
X328667Y-64480834D01*
X773167Y-64529265D01*
X773167Y-64529265D01*
G37*
X773167Y-64529265D02*
X1110270Y-64567133D01*
X1442604Y-64606216D01*
X1556333Y-64620186D01*
X1846188Y-64679143D01*
X2233816Y-64787784D01*
X2662128Y-64927302D01*
X3074033Y-65078890D01*
X3412443Y-65223742D01*
X3461333Y-65247743D01*
X3653485Y-65336390D01*
X3852065Y-65405000D01*
X4081914Y-65456247D01*
X4367871Y-65492804D01*
X4734777Y-65517345D01*
X5207471Y-65532544D01*
X5810794Y-65541074D01*
X6213000Y-65543924D01*
X6836509Y-65548789D01*
X7317423Y-65556982D01*
X7682476Y-65570662D01*
X7958404Y-65591990D01*
X8171940Y-65623123D01*
X8349818Y-65666222D01*
X8518773Y-65723445D01*
X8541333Y-65731980D01*
X8995269Y-65917100D01*
X9344073Y-66095752D01*
X9646262Y-66304980D01*
X9960351Y-66581829D01*
X10103701Y-66721059D01*
X10535136Y-67201913D01*
X10826496Y-67667411D01*
X10997608Y-68157921D01*
X11066750Y-68682142D01*
X11074207Y-69033060D01*
X11042122Y-69305769D01*
X10954665Y-69582299D01*
X10842858Y-69842331D01*
X10643990Y-70209658D01*
X10388719Y-70587810D01*
X10183280Y-70837586D01*
X9928148Y-71075736D01*
X9612976Y-71320333D01*
X9278161Y-71545393D01*
X8964100Y-71724933D01*
X8711193Y-71832972D01*
X8605037Y-71852667D01*
X8478755Y-71883337D01*
X8231832Y-71966878D01*
X7899747Y-72090581D01*
X7517978Y-72241740D01*
X7512507Y-72243967D01*
X6928118Y-72473084D01*
X6460280Y-72633617D01*
X6074933Y-72734386D01*
X5738018Y-72784206D01*
X5415476Y-72791895D01*
X5398295Y-72791301D01*
X5086752Y-72810097D01*
X4850954Y-72910692D01*
X4763295Y-72975859D01*
X4357047Y-73267214D01*
X3963009Y-73450053D01*
X3537678Y-73534015D01*
X3037553Y-73528740D01*
X2550645Y-73466141D01*
X2274293Y-73383745D01*
X2051112Y-73253814D01*
X2018180Y-73222739D01*
X1851571Y-73088626D01*
X1713387Y-73038000D01*
X1571183Y-72976114D01*
X1414904Y-72827218D01*
X1414207Y-72826333D01*
X1254167Y-72676815D01*
X1103338Y-72614667D01*
X941457Y-72554361D01*
X813978Y-72445333D01*
X641179Y-72315304D01*
X498829Y-72276000D01*
X458977Y-72272481D01*
X425890Y-72252323D01*
X398937Y-72201118D01*
X377491Y-72104462D01*
X360922Y-71947950D01*
X348601Y-71717175D01*
X339899Y-71397732D01*
X334188Y-70975216D01*
X330838Y-70435222D01*
X329220Y-69763343D01*
X328707Y-68945175D01*
X328667Y-68378417D01*
X328667Y-64480834D01*
X773167Y-64529265D01*
G36*
X40629381Y-72791841D02*
G01*
X40907454Y-72824140D01*
X41185575Y-72894060D01*
X41521731Y-73014766D01*
X41793790Y-73124619D01*
X42350442Y-73328685D01*
X42889991Y-73480436D01*
X43254667Y-73549375D01*
X44043201Y-73664501D01*
X44683602Y-73785697D01*
X45197038Y-73922370D01*
X45604676Y-74083929D01*
X45927683Y-74279781D01*
X46187228Y-74519334D01*
X46404477Y-74811998D01*
X46512773Y-74997481D01*
X46706616Y-75475135D01*
X46752164Y-75945201D01*
X46648876Y-76439514D01*
X46481805Y-76828787D01*
X46348092Y-77069029D01*
X46168717Y-77358957D01*
X45967139Y-77664636D01*
X45766815Y-77952132D01*
X45591204Y-78187507D01*
X45463764Y-78336827D01*
X45415058Y-78372000D01*
X45324144Y-78386760D01*
X45109860Y-78425810D01*
X44815091Y-78481301D01*
X44755068Y-78492761D01*
X44325475Y-78565838D01*
X43848788Y-78633364D01*
X43498786Y-78673410D01*
X43139896Y-78728452D01*
X42693619Y-78826652D01*
X42231004Y-78951401D01*
X42000125Y-79023720D01*
X41140620Y-79261681D01*
X40383016Y-79369356D01*
X39721787Y-79347355D01*
X39480410Y-79301752D01*
X39184834Y-79242804D01*
X39007583Y-79242015D01*
X38916982Y-79289151D01*
X38781469Y-79370158D01*
X38729233Y-79375708D01*
X38602829Y-79356566D01*
X38365845Y-79319484D01*
X38132333Y-79282470D01*
X37795716Y-79217074D01*
X37507618Y-79126272D01*
X37236070Y-78990535D01*
X36949105Y-78790337D01*
X36614753Y-78506151D01*
X36201046Y-78118451D01*
X36156601Y-78075667D01*
X35717570Y-77639004D01*
X35395600Y-77282164D01*
X35174678Y-76980262D01*
X35038786Y-76708411D01*
X34971909Y-76441725D01*
X34957333Y-76212168D01*
X35001855Y-75814481D01*
X35146113Y-75474586D01*
X35406147Y-75175535D01*
X35797995Y-74900381D01*
X36337695Y-74632174D01*
X36529183Y-74551210D01*
X36988397Y-74356370D01*
X37340902Y-74185907D01*
X37639908Y-74008523D01*
X37938627Y-73792922D01*
X38259333Y-73533580D01*
X38845423Y-73131177D01*
X39458569Y-72886339D01*
X40130525Y-72787364D01*
X40293371Y-72784000D01*
X40629381Y-72791841D01*
X40629381Y-72791841D01*
G37*
X40629381Y-72791841D02*
X40907454Y-72824140D01*
X41185575Y-72894060D01*
X41521731Y-73014766D01*
X41793790Y-73124619D01*
X42350442Y-73328685D01*
X42889991Y-73480436D01*
X43254667Y-73549375D01*
X44043201Y-73664501D01*
X44683602Y-73785697D01*
X45197038Y-73922370D01*
X45604676Y-74083929D01*
X45927683Y-74279781D01*
X46187228Y-74519334D01*
X46404477Y-74811998D01*
X46512773Y-74997481D01*
X46706616Y-75475135D01*
X46752164Y-75945201D01*
X46648876Y-76439514D01*
X46481805Y-76828787D01*
X46348092Y-77069029D01*
X46168717Y-77358957D01*
X45967139Y-77664636D01*
X45766815Y-77952132D01*
X45591204Y-78187507D01*
X45463764Y-78336827D01*
X45415058Y-78372000D01*
X45324144Y-78386760D01*
X45109860Y-78425810D01*
X44815091Y-78481301D01*
X44755068Y-78492761D01*
X44325475Y-78565838D01*
X43848788Y-78633364D01*
X43498786Y-78673410D01*
X43139896Y-78728452D01*
X42693619Y-78826652D01*
X42231004Y-78951401D01*
X42000125Y-79023720D01*
X41140620Y-79261681D01*
X40383016Y-79369356D01*
X39721787Y-79347355D01*
X39480410Y-79301752D01*
X39184834Y-79242804D01*
X39007583Y-79242015D01*
X38916982Y-79289151D01*
X38781469Y-79370158D01*
X38729233Y-79375708D01*
X38602829Y-79356566D01*
X38365845Y-79319484D01*
X38132333Y-79282470D01*
X37795716Y-79217074D01*
X37507618Y-79126272D01*
X37236070Y-78990535D01*
X36949105Y-78790337D01*
X36614753Y-78506151D01*
X36201046Y-78118451D01*
X36156601Y-78075667D01*
X35717570Y-77639004D01*
X35395600Y-77282164D01*
X35174678Y-76980262D01*
X35038786Y-76708411D01*
X34971909Y-76441725D01*
X34957333Y-76212168D01*
X35001855Y-75814481D01*
X35146113Y-75474586D01*
X35406147Y-75175535D01*
X35797995Y-74900381D01*
X36337695Y-74632174D01*
X36529183Y-74551210D01*
X36988397Y-74356370D01*
X37340902Y-74185907D01*
X37639908Y-74008523D01*
X37938627Y-73792922D01*
X38259333Y-73533580D01*
X38845423Y-73131177D01*
X39458569Y-72886339D01*
X40130525Y-72787364D01*
X40293371Y-72784000D01*
X40629381Y-72791841D01*
G36*
X58648699Y-67642384D02*
G01*
X59283219Y-67807896D01*
X59987020Y-68096295D01*
X60018667Y-68111201D01*
X60573260Y-68350363D01*
X61041435Y-68490706D01*
X61470370Y-68537458D01*
X61907242Y-68495846D01*
X62389921Y-68373953D01*
X62757123Y-68276219D01*
X63123063Y-68215316D01*
X63547356Y-68183862D01*
X63998000Y-68174765D01*
X64613203Y-68186484D01*
X65133598Y-68237945D01*
X65595252Y-68343007D01*
X66034229Y-68515529D01*
X66486597Y-68769369D01*
X66988419Y-69118385D01*
X67511635Y-69524915D01*
X67833397Y-69751794D01*
X68212581Y-69975959D01*
X68456116Y-70097550D01*
X68808324Y-70225984D01*
X69275363Y-70355890D01*
X69803207Y-70476055D01*
X70337831Y-70575264D01*
X70825209Y-70642303D01*
X71194667Y-70665978D01*
X71519000Y-70643343D01*
X71946139Y-70580951D01*
X72417248Y-70489497D01*
X72873489Y-70379675D01*
X73057333Y-70327395D01*
X73237617Y-70293917D01*
X73553040Y-70256763D01*
X73969545Y-70219079D01*
X74453075Y-70184009D01*
X74877667Y-70159307D01*
X75413973Y-70130444D01*
X75933525Y-70100347D01*
X76395521Y-70071535D01*
X76759162Y-70046525D01*
X76939980Y-70032034D01*
X77671126Y-70026396D01*
X78459429Y-70125230D01*
X79262404Y-70315617D01*
X80037565Y-70584637D01*
X80742429Y-70919370D01*
X81334509Y-71306895D01*
X81453017Y-71404510D01*
X82010393Y-71844774D01*
X82526639Y-72150285D01*
X83042945Y-72334264D01*
X83600507Y-72409933D01*
X84240515Y-72390513D01*
X84455134Y-72368076D01*
X85543833Y-72290968D01*
X86675888Y-72304560D01*
X87801858Y-72404537D01*
X88872303Y-72586581D01*
X89803125Y-72834979D01*
X90318405Y-72934450D01*
X90952635Y-72933806D01*
X91712634Y-72832778D01*
X92151211Y-72742434D01*
X92804896Y-72624024D01*
X93496639Y-72550675D01*
X94182157Y-72523386D01*
X94817166Y-72543154D01*
X95357384Y-72610976D01*
X95584466Y-72665075D01*
X96285464Y-72938826D01*
X96918398Y-73318859D01*
X97457352Y-73783427D01*
X97876413Y-74310784D01*
X98118896Y-74791905D01*
X98227045Y-75138792D01*
X98274855Y-75478547D01*
X98273883Y-75895559D01*
X98272917Y-75916667D01*
X98231183Y-76339577D01*
X98137470Y-76712645D01*
X97974153Y-77069709D01*
X97723610Y-77444609D01*
X97368217Y-77871186D01*
X97106657Y-78156086D01*
X96693077Y-78627593D01*
X96309736Y-79122333D01*
X96002937Y-79579913D01*
X95962072Y-79649059D01*
X95668581Y-80122503D01*
X95398946Y-80462221D01*
X95119331Y-80693693D01*
X94795896Y-80842396D01*
X94394806Y-80933807D01*
X94224000Y-80957706D01*
X93950438Y-81000836D01*
X93744306Y-81049877D01*
X93673667Y-81079610D01*
X93550816Y-81138918D01*
X93322715Y-81224794D01*
X93123333Y-81291389D01*
X92832592Y-81392978D01*
X92585654Y-81495267D01*
X92481367Y-81549239D01*
X92334519Y-81597000D01*
X92065309Y-81647473D01*
X91714066Y-81696703D01*
X91321121Y-81740735D01*
X90926801Y-81775615D01*
X90571437Y-81797388D01*
X90295357Y-81802099D01*
X90138892Y-81785794D01*
X90126319Y-81780184D01*
X90005830Y-81736374D01*
X89767663Y-81685316D01*
X89397849Y-81624634D01*
X88882419Y-81551948D01*
X88466667Y-81497648D01*
X88088940Y-81455682D01*
X87830998Y-81446624D01*
X87646208Y-81472079D01*
X87493000Y-81531138D01*
X87196925Y-81660244D01*
X86842090Y-81789611D01*
X86466591Y-81908564D01*
X86108523Y-82006427D01*
X85805981Y-82072525D01*
X85597059Y-82096181D01*
X85527218Y-82082022D01*
X85369104Y-82036428D01*
X85074299Y-82034428D01*
X84877695Y-82050873D01*
X84569149Y-82065855D01*
X84151850Y-82061631D01*
X83685098Y-82039749D01*
X83309020Y-82009905D01*
X82866232Y-81969888D01*
X82557706Y-81951043D01*
X82349574Y-81954373D01*
X82207971Y-81980881D01*
X82099030Y-82031572D01*
X82075507Y-82046445D01*
X81878364Y-82146578D01*
X81733387Y-82182000D01*
X81465523Y-82226006D01*
X81118860Y-82341539D01*
X80753913Y-82503874D01*
X80431200Y-82688283D01*
X80344843Y-82749347D01*
X80092253Y-82920012D01*
X79856593Y-83045994D01*
X79752177Y-83083697D01*
X79532912Y-83182723D01*
X79347953Y-83327410D01*
X79139848Y-83469324D01*
X78869531Y-83568341D01*
X78823660Y-83577480D01*
X78582577Y-83642656D01*
X78409089Y-83732558D01*
X78385840Y-83754952D01*
X78253908Y-83819886D01*
X78024382Y-83861614D01*
X77758304Y-83877485D01*
X77516721Y-83864844D01*
X77360676Y-83821041D01*
X77339038Y-83800436D01*
X77234401Y-83744920D01*
X77021101Y-83688749D01*
X76889541Y-83665592D01*
X76614067Y-83596137D01*
X76392543Y-83491223D01*
X76334868Y-83444156D01*
X76159471Y-83319753D01*
X76022169Y-83282667D01*
X75844346Y-83218685D01*
X75750301Y-83130672D01*
X75609424Y-83014966D01*
X75372014Y-82887504D01*
X75216333Y-82823206D01*
X74961719Y-82721869D01*
X74771696Y-82632046D01*
X74712567Y-82594200D01*
X74575579Y-82544069D01*
X74352840Y-82523262D01*
X74113079Y-82530881D01*
X73925026Y-82566026D01*
X73861667Y-82605333D01*
X73741312Y-82678439D01*
X73658125Y-82690000D01*
X73489773Y-82749288D01*
X73353667Y-82859333D01*
X73190948Y-82987604D01*
X73065378Y-83029441D01*
X72917225Y-83065640D01*
X72681441Y-83157796D01*
X72507000Y-83238460D01*
X72215038Y-83358371D01*
X71936319Y-83434931D01*
X71813497Y-83449352D01*
X71610121Y-83475341D01*
X71492462Y-83534448D01*
X71491000Y-83536667D01*
X71380232Y-83580824D01*
X71138250Y-83607688D01*
X70802220Y-83617933D01*
X70409305Y-83612233D01*
X69996670Y-83591263D01*
X69601478Y-83555696D01*
X69260895Y-83506207D01*
X69205000Y-83495197D01*
X68308555Y-83240048D01*
X67473512Y-82866948D01*
X66728247Y-82392149D01*
X66101135Y-81831902D01*
X65903000Y-81604062D01*
X65671529Y-81286677D01*
X65422052Y-80894199D01*
X65171961Y-80460218D01*
X64938646Y-80018320D01*
X64739499Y-79602093D01*
X64591909Y-79245125D01*
X64513269Y-78981003D01*
X64504984Y-78904039D01*
X64574685Y-78477057D01*
X64776621Y-78151074D01*
X65105376Y-77928463D01*
X65555534Y-77811603D01*
X66121681Y-77802867D01*
X66788049Y-77902405D01*
X67243441Y-77958405D01*
X67781862Y-77961107D01*
X68342505Y-77915688D01*
X68864562Y-77827324D01*
X69287224Y-77701191D01*
X69321596Y-77686737D01*
X69575515Y-77589613D01*
X69785640Y-77532087D01*
X69844734Y-77525333D01*
X70018656Y-77461083D01*
X70230055Y-77301031D01*
X70429600Y-77094226D01*
X70567959Y-76889717D01*
X70602000Y-76772407D01*
X70531060Y-76603543D01*
X70363824Y-76491860D01*
X70168663Y-76466729D01*
X70037244Y-76529803D01*
X69901904Y-76575026D01*
X69643772Y-76594205D01*
X69306869Y-76590424D01*
X68935212Y-76566766D01*
X68572820Y-76526314D01*
X68263713Y-76472152D01*
X68051908Y-76407362D01*
X68016876Y-76388291D01*
X67855200Y-76330159D01*
X67574801Y-76273991D01*
X67226133Y-76229064D01*
X67083868Y-76216693D01*
X66719869Y-76180790D01*
X66402157Y-76133846D01*
X66182370Y-76084057D01*
X66135377Y-76066151D01*
X65955919Y-76018878D01*
X65693217Y-76027020D01*
X65405949Y-76071449D01*
X65087555Y-76124101D01*
X64807562Y-76160078D01*
X64654772Y-76170667D01*
X64452439Y-76214895D01*
X64344017Y-76288810D01*
X64199017Y-76382545D01*
X63971837Y-76457726D01*
X63935685Y-76465162D01*
X63706682Y-76533026D01*
X63549418Y-76623645D01*
X63536534Y-76637775D01*
X63413625Y-76707736D01*
X63157959Y-76796633D01*
X62804031Y-76896911D01*
X62386332Y-77001013D01*
X61939355Y-77101384D01*
X61497593Y-77190469D01*
X61095539Y-77260711D01*
X60767684Y-77304555D01*
X60548522Y-77314446D01*
X60491656Y-77304761D01*
X60357202Y-77294767D01*
X60104829Y-77308129D01*
X59783899Y-77341891D01*
X59710812Y-77351514D01*
X58919541Y-77398787D01*
X58371961Y-77356810D01*
X57953234Y-77316702D01*
X57696860Y-77323565D01*
X57614194Y-77355939D01*
X57483444Y-77407616D01*
X57253321Y-77438498D01*
X57144233Y-77442185D01*
X56885494Y-77457749D01*
X56523143Y-77498032D01*
X56119825Y-77555621D01*
X55954667Y-77582946D01*
X55505405Y-77646163D01*
X55049283Y-77685346D01*
X54622273Y-77700106D01*
X54260347Y-77690057D01*
X53999475Y-77654811D01*
X53884567Y-77605261D01*
X53738824Y-77537218D01*
X53630567Y-77522569D01*
X53432989Y-77490530D01*
X53157458Y-77412836D01*
X52864017Y-77310506D01*
X52612708Y-77204554D01*
X52463573Y-77115998D01*
X52460469Y-77113003D01*
X52320642Y-77026797D01*
X52270330Y-77017333D01*
X52129964Y-76951094D01*
X51928507Y-76774541D01*
X51694668Y-76520919D01*
X51457155Y-76223475D01*
X51244679Y-75915455D01*
X51102826Y-75665344D01*
X50976659Y-75395309D01*
X50897180Y-75170332D01*
X50853738Y-74935369D01*
X50835682Y-74635375D01*
X50832333Y-74267447D01*
X50837183Y-73858556D01*
X50858324Y-73564825D01*
X50905647Y-73332200D01*
X50989041Y-73106628D01*
X51080504Y-72911000D01*
X51433216Y-72354258D01*
X51924596Y-71821855D01*
X52524046Y-71342949D01*
X53074549Y-71010737D01*
X53733076Y-70619039D01*
X54255833Y-70197360D01*
X54676381Y-69716566D01*
X54835662Y-69482000D01*
X55338664Y-68810530D01*
X55908033Y-68291632D01*
X56553976Y-67918128D01*
X57286700Y-67682839D01*
X57436333Y-67653210D01*
X58045668Y-67593056D01*
X58648699Y-67642384D01*
X58648699Y-67642384D01*
G37*
X58648699Y-67642384D02*
X59283219Y-67807896D01*
X59987020Y-68096295D01*
X60018667Y-68111201D01*
X60573260Y-68350363D01*
X61041435Y-68490706D01*
X61470370Y-68537458D01*
X61907242Y-68495846D01*
X62389921Y-68373953D01*
X62757123Y-68276219D01*
X63123063Y-68215316D01*
X63547356Y-68183862D01*
X63998000Y-68174765D01*
X64613203Y-68186484D01*
X65133598Y-68237945D01*
X65595252Y-68343007D01*
X66034229Y-68515529D01*
X66486597Y-68769369D01*
X66988419Y-69118385D01*
X67511635Y-69524915D01*
X67833397Y-69751794D01*
X68212581Y-69975959D01*
X68456116Y-70097550D01*
X68808324Y-70225984D01*
X69275363Y-70355890D01*
X69803207Y-70476055D01*
X70337831Y-70575264D01*
X70825209Y-70642303D01*
X71194667Y-70665978D01*
X71519000Y-70643343D01*
X71946139Y-70580951D01*
X72417248Y-70489497D01*
X72873489Y-70379675D01*
X73057333Y-70327395D01*
X73237617Y-70293917D01*
X73553040Y-70256763D01*
X73969545Y-70219079D01*
X74453075Y-70184009D01*
X74877667Y-70159307D01*
X75413973Y-70130444D01*
X75933525Y-70100347D01*
X76395521Y-70071535D01*
X76759162Y-70046525D01*
X76939980Y-70032034D01*
X77671126Y-70026396D01*
X78459429Y-70125230D01*
X79262404Y-70315617D01*
X80037565Y-70584637D01*
X80742429Y-70919370D01*
X81334509Y-71306895D01*
X81453017Y-71404510D01*
X82010393Y-71844774D01*
X82526639Y-72150285D01*
X83042945Y-72334264D01*
X83600507Y-72409933D01*
X84240515Y-72390513D01*
X84455134Y-72368076D01*
X85543833Y-72290968D01*
X86675888Y-72304560D01*
X87801858Y-72404537D01*
X88872303Y-72586581D01*
X89803125Y-72834979D01*
X90318405Y-72934450D01*
X90952635Y-72933806D01*
X91712634Y-72832778D01*
X92151211Y-72742434D01*
X92804896Y-72624024D01*
X93496639Y-72550675D01*
X94182157Y-72523386D01*
X94817166Y-72543154D01*
X95357384Y-72610976D01*
X95584466Y-72665075D01*
X96285464Y-72938826D01*
X96918398Y-73318859D01*
X97457352Y-73783427D01*
X97876413Y-74310784D01*
X98118896Y-74791905D01*
X98227045Y-75138792D01*
X98274855Y-75478547D01*
X98273883Y-75895559D01*
X98272917Y-75916667D01*
X98231183Y-76339577D01*
X98137470Y-76712645D01*
X97974153Y-77069709D01*
X97723610Y-77444609D01*
X97368217Y-77871186D01*
X97106657Y-78156086D01*
X96693077Y-78627593D01*
X96309736Y-79122333D01*
X96002937Y-79579913D01*
X95962072Y-79649059D01*
X95668581Y-80122503D01*
X95398946Y-80462221D01*
X95119331Y-80693693D01*
X94795896Y-80842396D01*
X94394806Y-80933807D01*
X94224000Y-80957706D01*
X93950438Y-81000836D01*
X93744306Y-81049877D01*
X93673667Y-81079610D01*
X93550816Y-81138918D01*
X93322715Y-81224794D01*
X93123333Y-81291389D01*
X92832592Y-81392978D01*
X92585654Y-81495267D01*
X92481367Y-81549239D01*
X92334519Y-81597000D01*
X92065309Y-81647473D01*
X91714066Y-81696703D01*
X91321121Y-81740735D01*
X90926801Y-81775615D01*
X90571437Y-81797388D01*
X90295357Y-81802099D01*
X90138892Y-81785794D01*
X90126319Y-81780184D01*
X90005830Y-81736374D01*
X89767663Y-81685316D01*
X89397849Y-81624634D01*
X88882419Y-81551948D01*
X88466667Y-81497648D01*
X88088940Y-81455682D01*
X87830998Y-81446624D01*
X87646208Y-81472079D01*
X87493000Y-81531138D01*
X87196925Y-81660244D01*
X86842090Y-81789611D01*
X86466591Y-81908564D01*
X86108523Y-82006427D01*
X85805981Y-82072525D01*
X85597059Y-82096181D01*
X85527218Y-82082022D01*
X85369104Y-82036428D01*
X85074299Y-82034428D01*
X84877695Y-82050873D01*
X84569149Y-82065855D01*
X84151850Y-82061631D01*
X83685098Y-82039749D01*
X83309020Y-82009905D01*
X82866232Y-81969888D01*
X82557706Y-81951043D01*
X82349574Y-81954373D01*
X82207971Y-81980881D01*
X82099030Y-82031572D01*
X82075507Y-82046445D01*
X81878364Y-82146578D01*
X81733387Y-82182000D01*
X81465523Y-82226006D01*
X81118860Y-82341539D01*
X80753913Y-82503874D01*
X80431200Y-82688283D01*
X80344843Y-82749347D01*
X80092253Y-82920012D01*
X79856593Y-83045994D01*
X79752177Y-83083697D01*
X79532912Y-83182723D01*
X79347953Y-83327410D01*
X79139848Y-83469324D01*
X78869531Y-83568341D01*
X78823660Y-83577480D01*
X78582577Y-83642656D01*
X78409089Y-83732558D01*
X78385840Y-83754952D01*
X78253908Y-83819886D01*
X78024382Y-83861614D01*
X77758304Y-83877485D01*
X77516721Y-83864844D01*
X77360676Y-83821041D01*
X77339038Y-83800436D01*
X77234401Y-83744920D01*
X77021101Y-83688749D01*
X76889541Y-83665592D01*
X76614067Y-83596137D01*
X76392543Y-83491223D01*
X76334868Y-83444156D01*
X76159471Y-83319753D01*
X76022169Y-83282667D01*
X75844346Y-83218685D01*
X75750301Y-83130672D01*
X75609424Y-83014966D01*
X75372014Y-82887504D01*
X75216333Y-82823206D01*
X74961719Y-82721869D01*
X74771696Y-82632046D01*
X74712567Y-82594200D01*
X74575579Y-82544069D01*
X74352840Y-82523262D01*
X74113079Y-82530881D01*
X73925026Y-82566026D01*
X73861667Y-82605333D01*
X73741312Y-82678439D01*
X73658125Y-82690000D01*
X73489773Y-82749288D01*
X73353667Y-82859333D01*
X73190948Y-82987604D01*
X73065378Y-83029441D01*
X72917225Y-83065640D01*
X72681441Y-83157796D01*
X72507000Y-83238460D01*
X72215038Y-83358371D01*
X71936319Y-83434931D01*
X71813497Y-83449352D01*
X71610121Y-83475341D01*
X71492462Y-83534448D01*
X71491000Y-83536667D01*
X71380232Y-83580824D01*
X71138250Y-83607688D01*
X70802220Y-83617933D01*
X70409305Y-83612233D01*
X69996670Y-83591263D01*
X69601478Y-83555696D01*
X69260895Y-83506207D01*
X69205000Y-83495197D01*
X68308555Y-83240048D01*
X67473512Y-82866948D01*
X66728247Y-82392149D01*
X66101135Y-81831902D01*
X65903000Y-81604062D01*
X65671529Y-81286677D01*
X65422052Y-80894199D01*
X65171961Y-80460218D01*
X64938646Y-80018320D01*
X64739499Y-79602093D01*
X64591909Y-79245125D01*
X64513269Y-78981003D01*
X64504984Y-78904039D01*
X64574685Y-78477057D01*
X64776621Y-78151074D01*
X65105376Y-77928463D01*
X65555534Y-77811603D01*
X66121681Y-77802867D01*
X66788049Y-77902405D01*
X67243441Y-77958405D01*
X67781862Y-77961107D01*
X68342505Y-77915688D01*
X68864562Y-77827324D01*
X69287224Y-77701191D01*
X69321596Y-77686737D01*
X69575515Y-77589613D01*
X69785640Y-77532087D01*
X69844734Y-77525333D01*
X70018656Y-77461083D01*
X70230055Y-77301031D01*
X70429600Y-77094226D01*
X70567959Y-76889717D01*
X70602000Y-76772407D01*
X70531060Y-76603543D01*
X70363824Y-76491860D01*
X70168663Y-76466729D01*
X70037244Y-76529803D01*
X69901904Y-76575026D01*
X69643772Y-76594205D01*
X69306869Y-76590424D01*
X68935212Y-76566766D01*
X68572820Y-76526314D01*
X68263713Y-76472152D01*
X68051908Y-76407362D01*
X68016876Y-76388291D01*
X67855200Y-76330159D01*
X67574801Y-76273991D01*
X67226133Y-76229064D01*
X67083868Y-76216693D01*
X66719869Y-76180790D01*
X66402157Y-76133846D01*
X66182370Y-76084057D01*
X66135377Y-76066151D01*
X65955919Y-76018878D01*
X65693217Y-76027020D01*
X65405949Y-76071449D01*
X65087555Y-76124101D01*
X64807562Y-76160078D01*
X64654772Y-76170667D01*
X64452439Y-76214895D01*
X64344017Y-76288810D01*
X64199017Y-76382545D01*
X63971837Y-76457726D01*
X63935685Y-76465162D01*
X63706682Y-76533026D01*
X63549418Y-76623645D01*
X63536534Y-76637775D01*
X63413625Y-76707736D01*
X63157959Y-76796633D01*
X62804031Y-76896911D01*
X62386332Y-77001013D01*
X61939355Y-77101384D01*
X61497593Y-77190469D01*
X61095539Y-77260711D01*
X60767684Y-77304555D01*
X60548522Y-77314446D01*
X60491656Y-77304761D01*
X60357202Y-77294767D01*
X60104829Y-77308129D01*
X59783899Y-77341891D01*
X59710812Y-77351514D01*
X58919541Y-77398787D01*
X58371961Y-77356810D01*
X57953234Y-77316702D01*
X57696860Y-77323565D01*
X57614194Y-77355939D01*
X57483444Y-77407616D01*
X57253321Y-77438498D01*
X57144233Y-77442185D01*
X56885494Y-77457749D01*
X56523143Y-77498032D01*
X56119825Y-77555621D01*
X55954667Y-77582946D01*
X55505405Y-77646163D01*
X55049283Y-77685346D01*
X54622273Y-77700106D01*
X54260347Y-77690057D01*
X53999475Y-77654811D01*
X53884567Y-77605261D01*
X53738824Y-77537218D01*
X53630567Y-77522569D01*
X53432989Y-77490530D01*
X53157458Y-77412836D01*
X52864017Y-77310506D01*
X52612708Y-77204554D01*
X52463573Y-77115998D01*
X52460469Y-77113003D01*
X52320642Y-77026797D01*
X52270330Y-77017333D01*
X52129964Y-76951094D01*
X51928507Y-76774541D01*
X51694668Y-76520919D01*
X51457155Y-76223475D01*
X51244679Y-75915455D01*
X51102826Y-75665344D01*
X50976659Y-75395309D01*
X50897180Y-75170332D01*
X50853738Y-74935369D01*
X50835682Y-74635375D01*
X50832333Y-74267447D01*
X50837183Y-73858556D01*
X50858324Y-73564825D01*
X50905647Y-73332200D01*
X50989041Y-73106628D01*
X51080504Y-72911000D01*
X51433216Y-72354258D01*
X51924596Y-71821855D01*
X52524046Y-71342949D01*
X53074549Y-71010737D01*
X53733076Y-70619039D01*
X54255833Y-70197360D01*
X54676381Y-69716566D01*
X54835662Y-69482000D01*
X55338664Y-68810530D01*
X55908033Y-68291632D01*
X56553976Y-67918128D01*
X57286700Y-67682839D01*
X57436333Y-67653210D01*
X58045668Y-67593056D01*
X58648699Y-67642384D01*
G36*
X24820829Y-75709830D02*
G01*
X25763569Y-75859349D01*
X26623497Y-76140639D01*
X27407933Y-76554915D01*
X28124200Y-77103390D01*
X28187793Y-77161433D01*
X28406462Y-77384553D01*
X28654121Y-77669228D01*
X28905611Y-77982233D01*
X29135777Y-78290340D01*
X29319460Y-78560324D01*
X29431504Y-78758956D01*
X29454000Y-78833798D01*
X29511326Y-78979286D01*
X29667580Y-79212731D01*
X29899179Y-79505197D01*
X30182539Y-79827747D01*
X30494076Y-80151443D01*
X30651947Y-80303653D01*
X30940357Y-80584091D01*
X31191555Y-80846803D01*
X31372477Y-81056204D01*
X31438674Y-81150320D01*
X31665069Y-81578926D01*
X31809050Y-81907573D01*
X31885048Y-82175210D01*
X31907474Y-82415756D01*
X31873633Y-82689950D01*
X31784515Y-83005568D01*
X31662347Y-83304374D01*
X31529357Y-83528132D01*
X31455002Y-83601246D01*
X31329521Y-83636780D01*
X31082875Y-83675027D01*
X30762952Y-83708911D01*
X30681667Y-83715525D01*
X29805601Y-83783574D01*
X29084090Y-83841932D01*
X28502721Y-83891991D01*
X28047077Y-83935141D01*
X27702744Y-83972775D01*
X27455307Y-84006285D01*
X27290351Y-84037061D01*
X27252667Y-84046549D01*
X26782626Y-84181487D01*
X26370702Y-84310903D01*
X26045005Y-84425087D01*
X25833646Y-84514331D01*
X25766577Y-84559823D01*
X25653285Y-84620497D01*
X25518959Y-84637333D01*
X25329900Y-84674614D01*
X25067412Y-84769816D01*
X24910123Y-84842063D01*
X24561674Y-84987198D01*
X24152243Y-85098172D01*
X23653263Y-85179964D01*
X23036164Y-85237555D01*
X22464016Y-85268480D01*
X21980310Y-85298613D01*
X21478695Y-85346225D01*
X21027800Y-85404028D01*
X20770682Y-85448353D01*
X20400178Y-85523782D01*
X20047181Y-85595507D01*
X19781790Y-85649289D01*
X19759667Y-85653758D01*
X19491179Y-85718009D01*
X19149183Y-85813015D01*
X18894949Y-85890695D01*
X18463965Y-85993036D01*
X17892157Y-86072235D01*
X17286282Y-86120132D01*
X16868701Y-86149449D01*
X16508750Y-86185627D01*
X16242283Y-86224293D01*
X16105154Y-86261075D01*
X16099434Y-86264876D01*
X15950453Y-86316124D01*
X15676173Y-86353798D01*
X15320141Y-86377144D01*
X14925905Y-86385407D01*
X14537013Y-86377834D01*
X14197014Y-86353670D01*
X13949454Y-86312161D01*
X13917667Y-86302655D01*
X13474091Y-86127640D01*
X13111383Y-85912675D01*
X12799689Y-85629042D01*
X12509153Y-85248018D01*
X12209922Y-84740885D01*
X12121958Y-84575145D01*
X11577819Y-83704445D01*
X11058921Y-83068718D01*
X10614909Y-82548203D01*
X10298659Y-82099972D01*
X10100189Y-81697813D01*
X10009522Y-81315514D01*
X10016676Y-80926866D01*
X10099112Y-80547896D01*
X10202252Y-80264864D01*
X10351154Y-80012503D01*
X10580371Y-79738816D01*
X10759597Y-79553950D01*
X11184297Y-79183172D01*
X11672371Y-78867240D01*
X12258304Y-78587223D01*
X12976580Y-78324193D01*
X13034062Y-78305490D01*
X13539878Y-78133316D01*
X13930387Y-77971381D01*
X14254735Y-77789574D01*
X14562073Y-77557785D01*
X14901546Y-77245903D01*
X15123954Y-77025094D01*
X15598873Y-76571824D01*
X16015495Y-76240078D01*
X16410520Y-76011203D01*
X16820650Y-75866548D01*
X17282586Y-75787460D01*
X17606531Y-75763394D01*
X18096821Y-75757818D01*
X18529762Y-75802146D01*
X19006884Y-75907250D01*
X19045865Y-75917510D01*
X19543412Y-76048913D01*
X19916416Y-76140364D01*
X20204383Y-76193895D01*
X20446816Y-76211537D01*
X20683219Y-76195323D01*
X20953095Y-76147285D01*
X21295949Y-76069456D01*
X21422516Y-76039763D01*
X22657624Y-75801251D01*
X23787954Y-75690869D01*
X24820829Y-75709830D01*
X24820829Y-75709830D01*
G37*
X24820829Y-75709830D02*
X25763569Y-75859349D01*
X26623497Y-76140639D01*
X27407933Y-76554915D01*
X28124200Y-77103390D01*
X28187793Y-77161433D01*
X28406462Y-77384553D01*
X28654121Y-77669228D01*
X28905611Y-77982233D01*
X29135777Y-78290340D01*
X29319460Y-78560324D01*
X29431504Y-78758956D01*
X29454000Y-78833798D01*
X29511326Y-78979286D01*
X29667580Y-79212731D01*
X29899179Y-79505197D01*
X30182539Y-79827747D01*
X30494076Y-80151443D01*
X30651947Y-80303653D01*
X30940357Y-80584091D01*
X31191555Y-80846803D01*
X31372477Y-81056204D01*
X31438674Y-81150320D01*
X31665069Y-81578926D01*
X31809050Y-81907573D01*
X31885048Y-82175210D01*
X31907474Y-82415756D01*
X31873633Y-82689950D01*
X31784515Y-83005568D01*
X31662347Y-83304374D01*
X31529357Y-83528132D01*
X31455002Y-83601246D01*
X31329521Y-83636780D01*
X31082875Y-83675027D01*
X30762952Y-83708911D01*
X30681667Y-83715525D01*
X29805601Y-83783574D01*
X29084090Y-83841932D01*
X28502721Y-83891991D01*
X28047077Y-83935141D01*
X27702744Y-83972775D01*
X27455307Y-84006285D01*
X27290351Y-84037061D01*
X27252667Y-84046549D01*
X26782626Y-84181487D01*
X26370702Y-84310903D01*
X26045005Y-84425087D01*
X25833646Y-84514331D01*
X25766577Y-84559823D01*
X25653285Y-84620497D01*
X25518959Y-84637333D01*
X25329900Y-84674614D01*
X25067412Y-84769816D01*
X24910123Y-84842063D01*
X24561674Y-84987198D01*
X24152243Y-85098172D01*
X23653263Y-85179964D01*
X23036164Y-85237555D01*
X22464016Y-85268480D01*
X21980310Y-85298613D01*
X21478695Y-85346225D01*
X21027800Y-85404028D01*
X20770682Y-85448353D01*
X20400178Y-85523782D01*
X20047181Y-85595507D01*
X19781790Y-85649289D01*
X19759667Y-85653758D01*
X19491179Y-85718009D01*
X19149183Y-85813015D01*
X18894949Y-85890695D01*
X18463965Y-85993036D01*
X17892157Y-86072235D01*
X17286282Y-86120132D01*
X16868701Y-86149449D01*
X16508750Y-86185627D01*
X16242283Y-86224293D01*
X16105154Y-86261075D01*
X16099434Y-86264876D01*
X15950453Y-86316124D01*
X15676173Y-86353798D01*
X15320141Y-86377144D01*
X14925905Y-86385407D01*
X14537013Y-86377834D01*
X14197014Y-86353670D01*
X13949454Y-86312161D01*
X13917667Y-86302655D01*
X13474091Y-86127640D01*
X13111383Y-85912675D01*
X12799689Y-85629042D01*
X12509153Y-85248018D01*
X12209922Y-84740885D01*
X12121958Y-84575145D01*
X11577819Y-83704445D01*
X11058921Y-83068718D01*
X10614909Y-82548203D01*
X10298659Y-82099972D01*
X10100189Y-81697813D01*
X10009522Y-81315514D01*
X10016676Y-80926866D01*
X10099112Y-80547896D01*
X10202252Y-80264864D01*
X10351154Y-80012503D01*
X10580371Y-79738816D01*
X10759597Y-79553950D01*
X11184297Y-79183172D01*
X11672371Y-78867240D01*
X12258304Y-78587223D01*
X12976580Y-78324193D01*
X13034062Y-78305490D01*
X13539878Y-78133316D01*
X13930387Y-77971381D01*
X14254735Y-77789574D01*
X14562073Y-77557785D01*
X14901546Y-77245903D01*
X15123954Y-77025094D01*
X15598873Y-76571824D01*
X16015495Y-76240078D01*
X16410520Y-76011203D01*
X16820650Y-75866548D01*
X17282586Y-75787460D01*
X17606531Y-75763394D01*
X18096821Y-75757818D01*
X18529762Y-75802146D01*
X19006884Y-75907250D01*
X19045865Y-75917510D01*
X19543412Y-76048913D01*
X19916416Y-76140364D01*
X20204383Y-76193895D01*
X20446816Y-76211537D01*
X20683219Y-76195323D01*
X20953095Y-76147285D01*
X21295949Y-76069456D01*
X21422516Y-76039763D01*
X22657624Y-75801251D01*
X23787954Y-75690869D01*
X24820829Y-75709830D01*
G36*
X100251364Y-88417727D02*
G01*
X100272875Y-88588669D01*
X100290024Y-88884129D01*
X100303057Y-89312746D01*
X100312224Y-89883157D01*
X100317771Y-90604001D01*
X100319947Y-91483916D01*
X100320000Y-91664667D01*
X100318430Y-92393598D01*
X100313953Y-93066673D01*
X100306918Y-93665754D01*
X100297675Y-94172703D01*
X100286571Y-94569385D01*
X100273956Y-94837661D01*
X100260179Y-94959395D01*
X100256500Y-94964807D01*
X100147873Y-94931314D01*
X99943528Y-94848306D01*
X99818825Y-94793192D01*
X99475234Y-94582035D01*
X99098293Y-94262022D01*
X98728406Y-93876723D01*
X98405974Y-93469709D01*
X98171402Y-93084552D01*
X98114594Y-92955328D01*
X97930472Y-92269379D01*
X97880251Y-91561058D01*
X97967085Y-90884949D01*
X97989942Y-90797456D01*
X98128649Y-90352499D01*
X98278429Y-90012016D01*
X98473939Y-89712798D01*
X98749835Y-89391637D01*
X98776276Y-89363254D01*
X99011387Y-89140402D01*
X99302830Y-88904490D01*
X99611632Y-88682431D01*
X99898818Y-88501139D01*
X100125415Y-88387529D01*
X100225242Y-88362667D01*
X100251364Y-88417727D01*
X100251364Y-88417727D01*
G37*
X100251364Y-88417727D02*
X100272875Y-88588669D01*
X100290024Y-88884129D01*
X100303057Y-89312746D01*
X100312224Y-89883157D01*
X100317771Y-90604001D01*
X100319947Y-91483916D01*
X100320000Y-91664667D01*
X100318430Y-92393598D01*
X100313953Y-93066673D01*
X100306918Y-93665754D01*
X100297675Y-94172703D01*
X100286571Y-94569385D01*
X100273956Y-94837661D01*
X100260179Y-94959395D01*
X100256500Y-94964807D01*
X100147873Y-94931314D01*
X99943528Y-94848306D01*
X99818825Y-94793192D01*
X99475234Y-94582035D01*
X99098293Y-94262022D01*
X98728406Y-93876723D01*
X98405974Y-93469709D01*
X98171402Y-93084552D01*
X98114594Y-92955328D01*
X97930472Y-92269379D01*
X97880251Y-91561058D01*
X97967085Y-90884949D01*
X97989942Y-90797456D01*
X98128649Y-90352499D01*
X98278429Y-90012016D01*
X98473939Y-89712798D01*
X98749835Y-89391637D01*
X98776276Y-89363254D01*
X99011387Y-89140402D01*
X99302830Y-88904490D01*
X99611632Y-88682431D01*
X99898818Y-88501139D01*
X100125415Y-88387529D01*
X100225242Y-88362667D01*
X100251364Y-88417727D01*
G36*
X81460186Y-89567937D02*
G01*
X81855713Y-89625397D01*
X82353009Y-89739831D01*
X82482323Y-89773175D01*
X82902465Y-89874596D01*
X83277373Y-89941845D01*
X83665923Y-89981761D01*
X84126993Y-90001180D01*
X84487333Y-90006009D01*
X84953602Y-90011005D01*
X85287190Y-90022492D01*
X85524751Y-90046169D01*
X85702935Y-90087732D01*
X85858394Y-90152880D01*
X86023576Y-90244839D01*
X86357920Y-90474630D01*
X86642911Y-90752533D01*
X86895161Y-91104277D01*
X87131286Y-91555588D01*
X87367898Y-92132195D01*
X87523274Y-92567234D01*
X87686292Y-93083073D01*
X87772483Y-93476521D01*
X87781289Y-93776369D01*
X87712152Y-94011410D01*
X87564513Y-94210438D01*
X87490054Y-94280562D01*
X87285754Y-94437907D01*
X87115436Y-94531758D01*
X87065572Y-94543333D01*
X86887434Y-94583526D01*
X86793351Y-94626487D01*
X86617074Y-94698079D01*
X86304829Y-94796164D01*
X85886402Y-94912611D01*
X85391582Y-95039292D01*
X84850155Y-95168076D01*
X84614333Y-95221211D01*
X84257147Y-95304860D01*
X83876520Y-95400523D01*
X83767667Y-95429390D01*
X83155433Y-95581571D01*
X82655558Y-95673725D01*
X82224940Y-95712947D01*
X82032000Y-95715081D01*
X81678618Y-95721973D01*
X81320572Y-95747225D01*
X81185333Y-95763376D01*
X80946121Y-95788449D01*
X80588868Y-95814308D01*
X80164817Y-95837659D01*
X79788333Y-95853139D01*
X79262465Y-95880759D01*
X78677184Y-95926738D01*
X78120751Y-95983551D01*
X77841000Y-96019206D01*
X77390538Y-96080690D01*
X77065284Y-96117900D01*
X76823197Y-96133044D01*
X76622234Y-96128333D01*
X76420354Y-96105976D01*
X76359333Y-96097064D01*
X75688002Y-95928547D01*
X75135763Y-95644187D01*
X74706554Y-95246176D01*
X74618020Y-95127852D01*
X74491073Y-94918762D01*
X74419648Y-94711163D01*
X74387946Y-94442036D01*
X74380918Y-94182059D01*
X74381124Y-93959085D01*
X74393648Y-93772155D01*
X74428904Y-93591150D01*
X74497302Y-93385952D01*
X74609257Y-93126442D01*
X74775181Y-92782501D01*
X75005486Y-92324011D01*
X75061663Y-92213006D01*
X75390981Y-91583794D01*
X75677381Y-91092090D01*
X75938912Y-90717424D01*
X76193622Y-90439328D01*
X76459561Y-90237332D01*
X76754778Y-90090967D01*
X77008989Y-90004588D01*
X77294411Y-89932518D01*
X77554247Y-89901914D01*
X77854167Y-89909722D01*
X78222000Y-89948216D01*
X78929274Y-89993796D01*
X79583498Y-89938861D01*
X80263633Y-89775449D01*
X80416150Y-89726933D01*
X80787210Y-89619753D01*
X81119620Y-89566405D01*
X81460186Y-89567937D01*
X81460186Y-89567937D01*
G37*
X81460186Y-89567937D02*
X81855713Y-89625397D01*
X82353009Y-89739831D01*
X82482323Y-89773175D01*
X82902465Y-89874596D01*
X83277373Y-89941845D01*
X83665923Y-89981761D01*
X84126993Y-90001180D01*
X84487333Y-90006009D01*
X84953602Y-90011005D01*
X85287190Y-90022492D01*
X85524751Y-90046169D01*
X85702935Y-90087732D01*
X85858394Y-90152880D01*
X86023576Y-90244839D01*
X86357920Y-90474630D01*
X86642911Y-90752533D01*
X86895161Y-91104277D01*
X87131286Y-91555588D01*
X87367898Y-92132195D01*
X87523274Y-92567234D01*
X87686292Y-93083073D01*
X87772483Y-93476521D01*
X87781289Y-93776369D01*
X87712152Y-94011410D01*
X87564513Y-94210438D01*
X87490054Y-94280562D01*
X87285754Y-94437907D01*
X87115436Y-94531758D01*
X87065572Y-94543333D01*
X86887434Y-94583526D01*
X86793351Y-94626487D01*
X86617074Y-94698079D01*
X86304829Y-94796164D01*
X85886402Y-94912611D01*
X85391582Y-95039292D01*
X84850155Y-95168076D01*
X84614333Y-95221211D01*
X84257147Y-95304860D01*
X83876520Y-95400523D01*
X83767667Y-95429390D01*
X83155433Y-95581571D01*
X82655558Y-95673725D01*
X82224940Y-95712947D01*
X82032000Y-95715081D01*
X81678618Y-95721973D01*
X81320572Y-95747225D01*
X81185333Y-95763376D01*
X80946121Y-95788449D01*
X80588868Y-95814308D01*
X80164817Y-95837659D01*
X79788333Y-95853139D01*
X79262465Y-95880759D01*
X78677184Y-95926738D01*
X78120751Y-95983551D01*
X77841000Y-96019206D01*
X77390538Y-96080690D01*
X77065284Y-96117900D01*
X76823197Y-96133044D01*
X76622234Y-96128333D01*
X76420354Y-96105976D01*
X76359333Y-96097064D01*
X75688002Y-95928547D01*
X75135763Y-95644187D01*
X74706554Y-95246176D01*
X74618020Y-95127852D01*
X74491073Y-94918762D01*
X74419648Y-94711163D01*
X74387946Y-94442036D01*
X74380918Y-94182059D01*
X74381124Y-93959085D01*
X74393648Y-93772155D01*
X74428904Y-93591150D01*
X74497302Y-93385952D01*
X74609257Y-93126442D01*
X74775181Y-92782501D01*
X75005486Y-92324011D01*
X75061663Y-92213006D01*
X75390981Y-91583794D01*
X75677381Y-91092090D01*
X75938912Y-90717424D01*
X76193622Y-90439328D01*
X76459561Y-90237332D01*
X76754778Y-90090967D01*
X77008989Y-90004588D01*
X77294411Y-89932518D01*
X77554247Y-89901914D01*
X77854167Y-89909722D01*
X78222000Y-89948216D01*
X78929274Y-89993796D01*
X79583498Y-89938861D01*
X80263633Y-89775449D01*
X80416150Y-89726933D01*
X80787210Y-89619753D01*
X81119620Y-89566405D01*
X81460186Y-89567937D01*
G36*
X49636118Y-83366401D02*
G01*
X50429874Y-83481028D01*
X51164327Y-83662070D01*
X51793281Y-83904595D01*
X51890667Y-83953839D01*
X52560292Y-84304847D01*
X53106465Y-84580511D01*
X53554126Y-84787047D01*
X53928218Y-84930675D01*
X54253684Y-85017612D01*
X54555465Y-85054077D01*
X54858505Y-85046286D01*
X55187744Y-85000459D01*
X55568127Y-84922813D01*
X55678603Y-84898153D01*
X56610126Y-84747072D01*
X57456530Y-84735320D01*
X58230761Y-84864176D01*
X58945765Y-85134921D01*
X59145684Y-85241180D01*
X59545902Y-85513072D01*
X59941162Y-85858362D01*
X60283000Y-86229618D01*
X60522948Y-86579407D01*
X60533328Y-86599224D01*
X60669266Y-86812957D01*
X60881882Y-87091818D01*
X61128698Y-87380620D01*
X61166406Y-87421776D01*
X61389455Y-87649093D01*
X61611696Y-87837896D01*
X61871223Y-88013676D01*
X62206131Y-88201922D01*
X62654513Y-88428127D01*
X62713224Y-88456824D01*
X63189265Y-88696053D01*
X63549457Y-88897612D01*
X63834473Y-89088433D01*
X64084989Y-89295451D01*
X64312679Y-89515948D01*
X64684558Y-89924648D01*
X64944374Y-90294853D01*
X65122256Y-90680021D01*
X65248331Y-91133612D01*
X65262790Y-91201865D01*
X65317666Y-91529876D01*
X65318243Y-91791950D01*
X65260889Y-92081961D01*
X65223480Y-92217865D01*
X65123641Y-92514999D01*
X65014365Y-92762938D01*
X64940628Y-92880176D01*
X64646403Y-93108183D01*
X64186613Y-93311110D01*
X63574667Y-93486021D01*
X63244686Y-93567364D01*
X62962262Y-93643268D01*
X62782756Y-93698764D01*
X62770333Y-93703511D01*
X62605847Y-93749414D01*
X62330302Y-93807207D01*
X62000317Y-93865130D01*
X61966000Y-93870555D01*
X61614445Y-93935632D01*
X61293495Y-94012359D01*
X61070425Y-94084570D01*
X61064204Y-94087262D01*
X60821535Y-94155746D01*
X60503984Y-94198052D01*
X60336914Y-94204667D01*
X59825522Y-94251800D01*
X59185754Y-94391248D01*
X58429241Y-94620082D01*
X57818099Y-94838809D01*
X57355398Y-95003048D01*
X56910130Y-95134863D01*
X56452415Y-95238858D01*
X55952377Y-95319638D01*
X55380135Y-95381807D01*
X54705813Y-95429972D01*
X53899532Y-95468737D01*
X53674245Y-95477484D01*
X53099380Y-95502199D01*
X52571012Y-95530967D01*
X52116083Y-95561838D01*
X51761533Y-95592862D01*
X51534304Y-95622088D01*
X51472912Y-95636863D01*
X51290514Y-95695676D01*
X50997603Y-95776776D01*
X50648859Y-95865238D01*
X50544676Y-95890235D01*
X50210908Y-95976719D01*
X49938038Y-96061315D01*
X49770463Y-96129744D01*
X49744576Y-96147557D01*
X49626436Y-96179079D01*
X49346098Y-96204047D01*
X48910580Y-96222164D01*
X48326903Y-96233134D01*
X47632029Y-96236667D01*
X46946679Y-96238935D01*
X46410671Y-96246449D01*
X46004064Y-96260269D01*
X45706917Y-96281456D01*
X45499291Y-96311070D01*
X45361244Y-96350172D01*
X45341795Y-96358505D01*
X45099794Y-96436452D01*
X44781726Y-96498767D01*
X44609333Y-96518885D01*
X44253550Y-96559578D01*
X43890986Y-96618027D01*
X43754910Y-96645984D01*
X43449503Y-96686117D01*
X43036116Y-96687895D01*
X42488126Y-96651261D01*
X42400243Y-96643167D01*
X41966193Y-96610731D01*
X41477684Y-96588339D01*
X40964969Y-96575766D01*
X40458300Y-96572791D01*
X39987930Y-96579191D01*
X39584111Y-96594743D01*
X39277096Y-96619224D01*
X39097137Y-96652413D01*
X39067900Y-96667692D01*
X38942774Y-96705210D01*
X38686775Y-96728151D01*
X38337661Y-96737329D01*
X37933192Y-96733558D01*
X37511128Y-96717651D01*
X37109226Y-96690421D01*
X36765247Y-96652681D01*
X36548525Y-96613414D01*
X36073960Y-96462979D01*
X35571710Y-96244743D01*
X35091236Y-95985171D01*
X34682001Y-95710732D01*
X34413948Y-95471208D01*
X34080113Y-95042980D01*
X33868002Y-94611049D01*
X33758115Y-94122322D01*
X33730494Y-93610220D01*
X33737419Y-93228039D01*
X33769081Y-92946351D01*
X33840246Y-92696608D01*
X33965679Y-92410265D01*
X34007422Y-92324571D01*
X34332390Y-91798616D01*
X34764477Y-91340715D01*
X35327627Y-90928245D01*
X35728861Y-90698199D01*
X36188218Y-90445041D01*
X36533980Y-90220622D01*
X36801972Y-89987933D01*
X37028021Y-89709963D01*
X37247954Y-89349702D01*
X37496673Y-88871984D01*
X37756190Y-88377033D01*
X37989839Y-87990876D01*
X38231330Y-87663801D01*
X38514372Y-87346095D01*
X38571340Y-87287085D01*
X38859883Y-87001082D01*
X39099011Y-86800230D01*
X39345276Y-86647875D01*
X39655226Y-86507365D01*
X39952667Y-86391789D01*
X40431896Y-86225638D01*
X40849443Y-86121097D01*
X41292613Y-86059305D01*
X41603667Y-86035121D01*
X42098474Y-85997991D01*
X42484138Y-85946478D01*
X42804650Y-85863532D01*
X43104005Y-85732102D01*
X43426194Y-85535137D01*
X43815210Y-85255587D01*
X44026962Y-85095895D01*
X44625386Y-84656597D01*
X45147327Y-84313675D01*
X45637552Y-84045300D01*
X46140831Y-83829646D01*
X46701929Y-83644886D01*
X47361000Y-83470320D01*
X48055484Y-83356116D01*
X48829256Y-83323120D01*
X49636118Y-83366401D01*
X49636118Y-83366401D01*
G37*
X49636118Y-83366401D02*
X50429874Y-83481028D01*
X51164327Y-83662070D01*
X51793281Y-83904595D01*
X51890667Y-83953839D01*
X52560292Y-84304847D01*
X53106465Y-84580511D01*
X53554126Y-84787047D01*
X53928218Y-84930675D01*
X54253684Y-85017612D01*
X54555465Y-85054077D01*
X54858505Y-85046286D01*
X55187744Y-85000459D01*
X55568127Y-84922813D01*
X55678603Y-84898153D01*
X56610126Y-84747072D01*
X57456530Y-84735320D01*
X58230761Y-84864176D01*
X58945765Y-85134921D01*
X59145684Y-85241180D01*
X59545902Y-85513072D01*
X59941162Y-85858362D01*
X60283000Y-86229618D01*
X60522948Y-86579407D01*
X60533328Y-86599224D01*
X60669266Y-86812957D01*
X60881882Y-87091818D01*
X61128698Y-87380620D01*
X61166406Y-87421776D01*
X61389455Y-87649093D01*
X61611696Y-87837896D01*
X61871223Y-88013676D01*
X62206131Y-88201922D01*
X62654513Y-88428127D01*
X62713224Y-88456824D01*
X63189265Y-88696053D01*
X63549457Y-88897612D01*
X63834473Y-89088433D01*
X64084989Y-89295451D01*
X64312679Y-89515948D01*
X64684558Y-89924648D01*
X64944374Y-90294853D01*
X65122256Y-90680021D01*
X65248331Y-91133612D01*
X65262790Y-91201865D01*
X65317666Y-91529876D01*
X65318243Y-91791950D01*
X65260889Y-92081961D01*
X65223480Y-92217865D01*
X65123641Y-92514999D01*
X65014365Y-92762938D01*
X64940628Y-92880176D01*
X64646403Y-93108183D01*
X64186613Y-93311110D01*
X63574667Y-93486021D01*
X63244686Y-93567364D01*
X62962262Y-93643268D01*
X62782756Y-93698764D01*
X62770333Y-93703511D01*
X62605847Y-93749414D01*
X62330302Y-93807207D01*
X62000317Y-93865130D01*
X61966000Y-93870555D01*
X61614445Y-93935632D01*
X61293495Y-94012359D01*
X61070425Y-94084570D01*
X61064204Y-94087262D01*
X60821535Y-94155746D01*
X60503984Y-94198052D01*
X60336914Y-94204667D01*
X59825522Y-94251800D01*
X59185754Y-94391248D01*
X58429241Y-94620082D01*
X57818099Y-94838809D01*
X57355398Y-95003048D01*
X56910130Y-95134863D01*
X56452415Y-95238858D01*
X55952377Y-95319638D01*
X55380135Y-95381807D01*
X54705813Y-95429972D01*
X53899532Y-95468737D01*
X53674245Y-95477484D01*
X53099380Y-95502199D01*
X52571012Y-95530967D01*
X52116083Y-95561838D01*
X51761533Y-95592862D01*
X51534304Y-95622088D01*
X51472912Y-95636863D01*
X51290514Y-95695676D01*
X50997603Y-95776776D01*
X50648859Y-95865238D01*
X50544676Y-95890235D01*
X50210908Y-95976719D01*
X49938038Y-96061315D01*
X49770463Y-96129744D01*
X49744576Y-96147557D01*
X49626436Y-96179079D01*
X49346098Y-96204047D01*
X48910580Y-96222164D01*
X48326903Y-96233134D01*
X47632029Y-96236667D01*
X46946679Y-96238935D01*
X46410671Y-96246449D01*
X46004064Y-96260269D01*
X45706917Y-96281456D01*
X45499291Y-96311070D01*
X45361244Y-96350172D01*
X45341795Y-96358505D01*
X45099794Y-96436452D01*
X44781726Y-96498767D01*
X44609333Y-96518885D01*
X44253550Y-96559578D01*
X43890986Y-96618027D01*
X43754910Y-96645984D01*
X43449503Y-96686117D01*
X43036116Y-96687895D01*
X42488126Y-96651261D01*
X42400243Y-96643167D01*
X41966193Y-96610731D01*
X41477684Y-96588339D01*
X40964969Y-96575766D01*
X40458300Y-96572791D01*
X39987930Y-96579191D01*
X39584111Y-96594743D01*
X39277096Y-96619224D01*
X39097137Y-96652413D01*
X39067900Y-96667692D01*
X38942774Y-96705210D01*
X38686775Y-96728151D01*
X38337661Y-96737329D01*
X37933192Y-96733558D01*
X37511128Y-96717651D01*
X37109226Y-96690421D01*
X36765247Y-96652681D01*
X36548525Y-96613414D01*
X36073960Y-96462979D01*
X35571710Y-96244743D01*
X35091236Y-95985171D01*
X34682001Y-95710732D01*
X34413948Y-95471208D01*
X34080113Y-95042980D01*
X33868002Y-94611049D01*
X33758115Y-94122322D01*
X33730494Y-93610220D01*
X33737419Y-93228039D01*
X33769081Y-92946351D01*
X33840246Y-92696608D01*
X33965679Y-92410265D01*
X34007422Y-92324571D01*
X34332390Y-91798616D01*
X34764477Y-91340715D01*
X35327627Y-90928245D01*
X35728861Y-90698199D01*
X36188218Y-90445041D01*
X36533980Y-90220622D01*
X36801972Y-89987933D01*
X37028021Y-89709963D01*
X37247954Y-89349702D01*
X37496673Y-88871984D01*
X37756190Y-88377033D01*
X37989839Y-87990876D01*
X38231330Y-87663801D01*
X38514372Y-87346095D01*
X38571340Y-87287085D01*
X38859883Y-87001082D01*
X39099011Y-86800230D01*
X39345276Y-86647875D01*
X39655226Y-86507365D01*
X39952667Y-86391789D01*
X40431896Y-86225638D01*
X40849443Y-86121097D01*
X41292613Y-86059305D01*
X41603667Y-86035121D01*
X42098474Y-85997991D01*
X42484138Y-85946478D01*
X42804650Y-85863532D01*
X43104005Y-85732102D01*
X43426194Y-85535137D01*
X43815210Y-85255587D01*
X44026962Y-85095895D01*
X44625386Y-84656597D01*
X45147327Y-84313675D01*
X45637552Y-84045300D01*
X46140831Y-83829646D01*
X46701929Y-83644886D01*
X47361000Y-83470320D01*
X48055484Y-83356116D01*
X48829256Y-83323120D01*
X49636118Y-83366401D01*
G36*
X600114Y-84052575D02*
G01*
X685492Y-84110365D01*
X786866Y-84196564D01*
X905537Y-84300330D01*
X969885Y-84353890D01*
X1214778Y-84604933D01*
X1476306Y-84980549D01*
X1758759Y-85482236D01*
X2036489Y-85993297D01*
X2271180Y-86372802D01*
X2483344Y-86646149D01*
X2693496Y-86838738D01*
X2922146Y-86975968D01*
X2990232Y-87007048D01*
X3612420Y-87282408D01*
X4107494Y-87518784D01*
X4507325Y-87735480D01*
X4843786Y-87951801D01*
X5148747Y-88187052D01*
X5454079Y-88460535D01*
X5563878Y-88565891D01*
X5897293Y-88908816D01*
X6228784Y-89281813D01*
X6511620Y-89630815D01*
X6647521Y-89819617D01*
X6888057Y-90148920D01*
X7158775Y-90471532D01*
X7402035Y-90718882D01*
X7407270Y-90723512D01*
X7770249Y-90975550D01*
X8266745Y-91221582D01*
X8861141Y-91447365D01*
X9517820Y-91638658D01*
X9926436Y-91730859D01*
X10215716Y-91786472D01*
X10439626Y-91815826D01*
X10645486Y-91815971D01*
X10880618Y-91783958D01*
X11192343Y-91716838D01*
X11555583Y-91629319D01*
X12051442Y-91516717D01*
X12451401Y-91449657D01*
X12820338Y-91420538D01*
X13223131Y-91421760D01*
X13303146Y-91424573D01*
X13763599Y-91457693D01*
X14156164Y-91528902D01*
X14512855Y-91654547D01*
X14865681Y-91850972D01*
X15246654Y-92134524D01*
X15687786Y-92521548D01*
X15969165Y-92785885D01*
X16261486Y-93065702D01*
X16493185Y-93282595D01*
X16691622Y-93452106D01*
X16884156Y-93589781D01*
X17098148Y-93711163D01*
X17360958Y-93831798D01*
X17699945Y-93967230D01*
X18142471Y-94133003D01*
X18706983Y-94341365D01*
X19351232Y-94666901D01*
X19918016Y-95126819D01*
X20376131Y-95692611D01*
X20575001Y-96048051D01*
X20704761Y-96333184D01*
X20779947Y-96557187D01*
X20811398Y-96782860D01*
X20809953Y-97073000D01*
X20796257Y-97330052D01*
X20748810Y-97802198D01*
X20657119Y-98229657D01*
X20505267Y-98659512D01*
X20277334Y-99138842D01*
X20036310Y-99577669D01*
X19675000Y-100210564D01*
X19150830Y-100213282D01*
X18867920Y-100202349D01*
X18658219Y-100171179D01*
X18575733Y-100133599D01*
X18471254Y-100046271D01*
X18277266Y-99934541D01*
X18227129Y-99909940D01*
X18002500Y-99825424D01*
X17867470Y-99838443D01*
X17832792Y-99865341D01*
X17692900Y-99925382D01*
X17459125Y-99959237D01*
X17369409Y-99962000D01*
X17087764Y-99991325D01*
X16957426Y-100080896D01*
X16953951Y-100089000D01*
X16928362Y-100114068D01*
X16864565Y-100135668D01*
X16751063Y-100154051D01*
X16576360Y-100169466D01*
X16328961Y-100182164D01*
X15997368Y-100192393D01*
X15570087Y-100200406D01*
X15035621Y-100206450D01*
X14382474Y-100210776D01*
X13599150Y-100213634D01*
X12674153Y-100215274D01*
X11595987Y-100215946D01*
X11111951Y-100216000D01*
X9968651Y-100215652D01*
X8983204Y-100214442D01*
X8144128Y-100212120D01*
X7439946Y-100208437D01*
X6859175Y-100203141D01*
X6390338Y-100195983D01*
X6021953Y-100186714D01*
X5742540Y-100175083D01*
X5540621Y-100160840D01*
X5404714Y-100143735D01*
X5323340Y-100123519D01*
X5285020Y-100099941D01*
X5279009Y-100089000D01*
X5216045Y-99887390D01*
X5199829Y-99835448D01*
X5115043Y-99741278D01*
X4916210Y-99584584D01*
X4635075Y-99388971D01*
X4374329Y-99221614D01*
X3718065Y-98773581D01*
X3193950Y-98315574D01*
X2766825Y-97811490D01*
X2401534Y-97225223D01*
X2366553Y-97159739D01*
X2077020Y-96644877D01*
X1777011Y-96171612D01*
X1490885Y-95775618D01*
X1243003Y-95492572D01*
X1202178Y-95454452D01*
X1013690Y-95330511D01*
X758359Y-95211855D01*
X704052Y-95191939D01*
X371000Y-95076641D01*
X370735Y-95009000D01*
X752000Y-95009000D01*
X794333Y-95051333D01*
X836667Y-95009000D01*
X794333Y-94966667D01*
X752000Y-95009000D01*
X370735Y-95009000D01*
X349225Y-89520744D01*
X344228Y-88392103D01*
X339600Y-87421952D01*
X336643Y-86599452D01*
X336661Y-85913761D01*
X340954Y-85354041D01*
X350825Y-84909450D01*
X367577Y-84569148D01*
X392511Y-84322296D01*
X426929Y-84158053D01*
X472134Y-84065578D01*
X529429Y-84034032D01*
X600114Y-84052575D01*
X600114Y-84052575D01*
G37*
X600114Y-84052575D02*
X685492Y-84110365D01*
X786866Y-84196564D01*
X905537Y-84300330D01*
X969885Y-84353890D01*
X1214778Y-84604933D01*
X1476306Y-84980549D01*
X1758759Y-85482236D01*
X2036489Y-85993297D01*
X2271180Y-86372802D01*
X2483344Y-86646149D01*
X2693496Y-86838738D01*
X2922146Y-86975968D01*
X2990232Y-87007048D01*
X3612420Y-87282408D01*
X4107494Y-87518784D01*
X4507325Y-87735480D01*
X4843786Y-87951801D01*
X5148747Y-88187052D01*
X5454079Y-88460535D01*
X5563878Y-88565891D01*
X5897293Y-88908816D01*
X6228784Y-89281813D01*
X6511620Y-89630815D01*
X6647521Y-89819617D01*
X6888057Y-90148920D01*
X7158775Y-90471532D01*
X7402035Y-90718882D01*
X7407270Y-90723512D01*
X7770249Y-90975550D01*
X8266745Y-91221582D01*
X8861141Y-91447365D01*
X9517820Y-91638658D01*
X9926436Y-91730859D01*
X10215716Y-91786472D01*
X10439626Y-91815826D01*
X10645486Y-91815971D01*
X10880618Y-91783958D01*
X11192343Y-91716838D01*
X11555583Y-91629319D01*
X12051442Y-91516717D01*
X12451401Y-91449657D01*
X12820338Y-91420538D01*
X13223131Y-91421760D01*
X13303146Y-91424573D01*
X13763599Y-91457693D01*
X14156164Y-91528902D01*
X14512855Y-91654547D01*
X14865681Y-91850972D01*
X15246654Y-92134524D01*
X15687786Y-92521548D01*
X15969165Y-92785885D01*
X16261486Y-93065702D01*
X16493185Y-93282595D01*
X16691622Y-93452106D01*
X16884156Y-93589781D01*
X17098148Y-93711163D01*
X17360958Y-93831798D01*
X17699945Y-93967230D01*
X18142471Y-94133003D01*
X18706983Y-94341365D01*
X19351232Y-94666901D01*
X19918016Y-95126819D01*
X20376131Y-95692611D01*
X20575001Y-96048051D01*
X20704761Y-96333184D01*
X20779947Y-96557187D01*
X20811398Y-96782860D01*
X20809953Y-97073000D01*
X20796257Y-97330052D01*
X20748810Y-97802198D01*
X20657119Y-98229657D01*
X20505267Y-98659512D01*
X20277334Y-99138842D01*
X20036310Y-99577669D01*
X19675000Y-100210564D01*
X19150830Y-100213282D01*
X18867920Y-100202349D01*
X18658219Y-100171179D01*
X18575733Y-100133599D01*
X18471254Y-100046271D01*
X18277266Y-99934541D01*
X18227129Y-99909940D01*
X18002500Y-99825424D01*
X17867470Y-99838443D01*
X17832792Y-99865341D01*
X17692900Y-99925382D01*
X17459125Y-99959237D01*
X17369409Y-99962000D01*
X17087764Y-99991325D01*
X16957426Y-100080896D01*
X16953951Y-100089000D01*
X16928362Y-100114068D01*
X16864565Y-100135668D01*
X16751063Y-100154051D01*
X16576360Y-100169466D01*
X16328961Y-100182164D01*
X15997368Y-100192393D01*
X15570087Y-100200406D01*
X15035621Y-100206450D01*
X14382474Y-100210776D01*
X13599150Y-100213634D01*
X12674153Y-100215274D01*
X11595987Y-100215946D01*
X11111951Y-100216000D01*
X9968651Y-100215652D01*
X8983204Y-100214442D01*
X8144128Y-100212120D01*
X7439946Y-100208437D01*
X6859175Y-100203141D01*
X6390338Y-100195983D01*
X6021953Y-100186714D01*
X5742540Y-100175083D01*
X5540621Y-100160840D01*
X5404714Y-100143735D01*
X5323340Y-100123519D01*
X5285020Y-100099941D01*
X5279009Y-100089000D01*
X5216045Y-99887390D01*
X5199829Y-99835448D01*
X5115043Y-99741278D01*
X4916210Y-99584584D01*
X4635075Y-99388971D01*
X4374329Y-99221614D01*
X3718065Y-98773581D01*
X3193950Y-98315574D01*
X2766825Y-97811490D01*
X2401534Y-97225223D01*
X2366553Y-97159739D01*
X2077020Y-96644877D01*
X1777011Y-96171612D01*
X1490885Y-95775618D01*
X1243003Y-95492572D01*
X1202178Y-95454452D01*
X1013690Y-95330511D01*
X758359Y-95211855D01*
X704052Y-95191939D01*
X371000Y-95076641D01*
X370735Y-95009000D01*
X752000Y-95009000D01*
X794333Y-95051333D01*
X836667Y-95009000D01*
X794333Y-94966667D01*
X752000Y-95009000D01*
X370735Y-95009000D01*
X349225Y-89520744D01*
X344228Y-88392103D01*
X339600Y-87421952D01*
X336643Y-86599452D01*
X336661Y-85913761D01*
X340954Y-85354041D01*
X350825Y-84909450D01*
X367577Y-84569148D01*
X392511Y-84322296D01*
X426929Y-84158053D01*
X472134Y-84065578D01*
X529429Y-84034032D01*
X600114Y-84052575D01*
D11*
X21478400Y-35954000D02*
G75*
G03X21478400Y-35954000I-5994400J0D01*
G01*
M02*
