G04 #@! TF.GenerationSoftware,KiCad,Pcbnew,(5.1.5)-3*
G04 #@! TF.CreationDate,2020-12-08T17:30:16-08:00*
G04 #@! TF.ProjectId,button_pcb_4x_laz16-11_,62757474-6f6e-45f7-9063-625f34785f6c,rev?*
G04 #@! TF.SameCoordinates,Original*
G04 #@! TF.FileFunction,Copper,L1,Top*
G04 #@! TF.FilePolarity,Positive*
%FSLAX46Y46*%
G04 Gerber Fmt 4.6, Leading zero omitted, Abs format (unit mm)*
G04 Created by KiCad (PCBNEW (5.1.5)-3) date 2020-12-08 17:30:16*
%MOMM*%
%LPD*%
G04 APERTURE LIST*
%ADD10C,1.000000*%
%ADD11R,4.000000X2.000000*%
%ADD12C,0.100000*%
%ADD13C,1.500000*%
%ADD14R,1.500000X1.500000*%
%ADD15O,1.200000X2.000000*%
%ADD16R,1.200000X2.000000*%
%ADD17C,8.600000*%
%ADD18C,0.600000*%
%ADD19C,0.508000*%
G04 APERTURE END LIST*
D10*
X30882857Y93598095D02*
X30882857Y98598095D01*
X30882857Y96693333D02*
X31359047Y96931428D01*
X32311428Y96931428D01*
X32787619Y96693333D01*
X33025714Y96455238D01*
X33263809Y95979047D01*
X33263809Y94550476D01*
X33025714Y94074285D01*
X32787619Y93836190D01*
X32311428Y93598095D01*
X31359047Y93598095D01*
X30882857Y93836190D01*
X36120952Y93598095D02*
X35644761Y93836190D01*
X35406666Y94074285D01*
X35168571Y94550476D01*
X35168571Y95979047D01*
X35406666Y96455238D01*
X35644761Y96693333D01*
X36120952Y96931428D01*
X36835238Y96931428D01*
X37311428Y96693333D01*
X37549523Y96455238D01*
X37787619Y95979047D01*
X37787619Y94550476D01*
X37549523Y94074285D01*
X37311428Y93836190D01*
X36835238Y93598095D01*
X36120952Y93598095D01*
X39454285Y93598095D02*
X42073333Y96931428D01*
X39454285Y96931428D02*
X42073333Y93598095D01*
D11*
X17000000Y6500000D03*
X17000000Y18000000D03*
X22000000Y14500000D03*
X17000000Y14500000D03*
X12000000Y14500000D03*
G04 #@! TA.AperFunction,SMDPad,CuDef*
D12*
G36*
X34349039Y5006245D02*
G01*
X34346194Y4996866D01*
X34341573Y4988221D01*
X34335355Y4980645D01*
X34327779Y4974427D01*
X34319134Y4969806D01*
X34309755Y4966961D01*
X34300000Y4966000D01*
X32500000Y4966000D01*
X32490245Y4966961D01*
X32480866Y4969806D01*
X32472221Y4974427D01*
X32464645Y4980645D01*
X32458427Y4988221D01*
X32453806Y4996866D01*
X32450961Y5006245D01*
X32450000Y5016000D01*
X32450000Y6516000D01*
X32450961Y6525755D01*
X32453806Y6535134D01*
X32458427Y6543779D01*
X32464645Y6551355D01*
X32472221Y6557573D01*
X32480866Y6562194D01*
X32490245Y6565039D01*
X32500000Y6566000D01*
X32800000Y6566000D01*
X32800000Y7216000D01*
X32800961Y7225755D01*
X32803806Y7235134D01*
X32808427Y7243779D01*
X32814645Y7251355D01*
X32822221Y7257573D01*
X32830866Y7262194D01*
X32840245Y7265039D01*
X32850000Y7266000D01*
X33950000Y7266000D01*
X33959755Y7265039D01*
X33969134Y7262194D01*
X33977779Y7257573D01*
X33985355Y7251355D01*
X33991573Y7243779D01*
X33996194Y7235134D01*
X33999039Y7225755D01*
X34000000Y7216000D01*
X34000000Y6566000D01*
X34300000Y6566000D01*
X34309755Y6565039D01*
X34319134Y6562194D01*
X34327779Y6557573D01*
X34335355Y6551355D01*
X34341573Y6543779D01*
X34346194Y6535134D01*
X34349039Y6525755D01*
X34350000Y6516000D01*
X34350000Y5016000D01*
X34349039Y5006245D01*
G37*
G04 #@! TD.AperFunction*
G04 #@! TA.AperFunction,SMDPad,CuDef*
G36*
X34349039Y8606245D02*
G01*
X34346194Y8596866D01*
X34341573Y8588221D01*
X34335355Y8580645D01*
X34327779Y8574427D01*
X34319134Y8569806D01*
X34309755Y8566961D01*
X34300000Y8566000D01*
X34000000Y8566000D01*
X34000000Y7916000D01*
X33999039Y7906245D01*
X33996194Y7896866D01*
X33991573Y7888221D01*
X33985355Y7880645D01*
X33977779Y7874427D01*
X33969134Y7869806D01*
X33959755Y7866961D01*
X33950000Y7866000D01*
X32850000Y7866000D01*
X32840245Y7866961D01*
X32830866Y7869806D01*
X32822221Y7874427D01*
X32814645Y7880645D01*
X32808427Y7888221D01*
X32803806Y7896866D01*
X32800961Y7906245D01*
X32800000Y7916000D01*
X32800000Y8566000D01*
X32500000Y8566000D01*
X32490245Y8566961D01*
X32480866Y8569806D01*
X32472221Y8574427D01*
X32464645Y8580645D01*
X32458427Y8588221D01*
X32453806Y8596866D01*
X32450961Y8606245D01*
X32450000Y8616000D01*
X32450000Y10116000D01*
X32450961Y10125755D01*
X32453806Y10135134D01*
X32458427Y10143779D01*
X32464645Y10151355D01*
X32472221Y10157573D01*
X32480866Y10162194D01*
X32490245Y10165039D01*
X32500000Y10166000D01*
X34300000Y10166000D01*
X34309755Y10165039D01*
X34319134Y10162194D01*
X34327779Y10157573D01*
X34335355Y10151355D01*
X34341573Y10143779D01*
X34346194Y10135134D01*
X34349039Y10125755D01*
X34350000Y10116000D01*
X34350000Y8616000D01*
X34349039Y8606245D01*
G37*
G04 #@! TD.AperFunction*
D13*
X43690000Y75740000D03*
X46230000Y75740000D03*
X48770000Y75740000D03*
X51310000Y75740000D03*
X53850000Y75740000D03*
X56390000Y75740000D03*
X56390000Y60500000D03*
X53850000Y60500000D03*
X51310000Y60500000D03*
X48770000Y60500000D03*
X46230000Y60500000D03*
D14*
X43690000Y60500000D03*
D13*
X58930000Y68530000D03*
X56390000Y68530000D03*
X53850000Y68530000D03*
X51310000Y68530000D03*
X48770000Y68530000D03*
X46230000Y68530000D03*
X43690000Y68530000D03*
D14*
X41150000Y68530000D03*
D13*
X58930000Y71070000D03*
X56390000Y71070000D03*
X53850000Y71070000D03*
X51310000Y71070000D03*
X48770000Y71070000D03*
X46230000Y71070000D03*
X43690000Y71070000D03*
D14*
X41150000Y71070000D03*
D13*
X13310000Y39100000D03*
X15850000Y39100000D03*
X18390000Y39100000D03*
X20930000Y39100000D03*
X23470000Y39100000D03*
X26010000Y39100000D03*
X28550000Y39100000D03*
D14*
X31090000Y39100000D03*
D13*
X58890000Y51800000D03*
X56350000Y51800000D03*
X53810000Y51800000D03*
X51270000Y51800000D03*
X48730000Y51800000D03*
X46190000Y51800000D03*
X43650000Y51800000D03*
D14*
X41110000Y51800000D03*
D13*
X28326000Y10201000D03*
X25786000Y10201000D03*
X23246000Y10201000D03*
X20706000Y10201000D03*
X18166000Y10201000D03*
X15626000Y10201000D03*
X13086000Y10201000D03*
D14*
X10546000Y10201000D03*
D13*
X58830000Y23260000D03*
X56290000Y23260000D03*
X53750000Y23260000D03*
X51210000Y23260000D03*
X48670000Y23260000D03*
X46130000Y23260000D03*
X43590000Y23260000D03*
D14*
X41050000Y23260000D03*
D11*
X83000000Y35500000D03*
X83000000Y47000000D03*
X88000000Y43500000D03*
X83000000Y43500000D03*
X78000000Y43500000D03*
X61000000Y35500000D03*
X61000000Y47000000D03*
X66000000Y43500000D03*
X61000000Y43500000D03*
X56000000Y43500000D03*
X39000000Y35500000D03*
X39000000Y47000000D03*
X44000000Y43500000D03*
X39000000Y43500000D03*
X34000000Y43500000D03*
X17000000Y35500000D03*
X17000000Y47000000D03*
X22000000Y43500000D03*
X17000000Y43500000D03*
X12000000Y43500000D03*
X83000000Y6500000D03*
X83000000Y18000000D03*
X88000000Y14500000D03*
X83000000Y14500000D03*
X78000000Y14500000D03*
X61000000Y6500000D03*
X61000000Y18000000D03*
X66000000Y14500000D03*
X61000000Y14500000D03*
X56000000Y14500000D03*
X39000000Y6500000D03*
X39000000Y18000000D03*
X44000000Y14500000D03*
X39000000Y14500000D03*
X34000000Y14500000D03*
D15*
X33230000Y31700000D03*
X30690000Y31700000D03*
X28150000Y31700000D03*
X25610000Y31700000D03*
X23070000Y31700000D03*
X20530000Y31700000D03*
X17990000Y31700000D03*
X15450000Y31700000D03*
X12910000Y31700000D03*
D16*
X10370000Y31700000D03*
G04 #@! TA.AperFunction,SMDPad,CuDef*
D12*
G36*
X88711039Y4847245D02*
G01*
X88708194Y4837866D01*
X88703573Y4829221D01*
X88697355Y4821645D01*
X88689779Y4815427D01*
X88681134Y4810806D01*
X88671755Y4807961D01*
X88662000Y4807000D01*
X86862000Y4807000D01*
X86852245Y4807961D01*
X86842866Y4810806D01*
X86834221Y4815427D01*
X86826645Y4821645D01*
X86820427Y4829221D01*
X86815806Y4837866D01*
X86812961Y4847245D01*
X86812000Y4857000D01*
X86812000Y6357000D01*
X86812961Y6366755D01*
X86815806Y6376134D01*
X86820427Y6384779D01*
X86826645Y6392355D01*
X86834221Y6398573D01*
X86842866Y6403194D01*
X86852245Y6406039D01*
X86862000Y6407000D01*
X87162000Y6407000D01*
X87162000Y7057000D01*
X87162961Y7066755D01*
X87165806Y7076134D01*
X87170427Y7084779D01*
X87176645Y7092355D01*
X87184221Y7098573D01*
X87192866Y7103194D01*
X87202245Y7106039D01*
X87212000Y7107000D01*
X88312000Y7107000D01*
X88321755Y7106039D01*
X88331134Y7103194D01*
X88339779Y7098573D01*
X88347355Y7092355D01*
X88353573Y7084779D01*
X88358194Y7076134D01*
X88361039Y7066755D01*
X88362000Y7057000D01*
X88362000Y6407000D01*
X88662000Y6407000D01*
X88671755Y6406039D01*
X88681134Y6403194D01*
X88689779Y6398573D01*
X88697355Y6392355D01*
X88703573Y6384779D01*
X88708194Y6376134D01*
X88711039Y6366755D01*
X88712000Y6357000D01*
X88712000Y4857000D01*
X88711039Y4847245D01*
G37*
G04 #@! TD.AperFunction*
G04 #@! TA.AperFunction,SMDPad,CuDef*
G36*
X88711039Y8447245D02*
G01*
X88708194Y8437866D01*
X88703573Y8429221D01*
X88697355Y8421645D01*
X88689779Y8415427D01*
X88681134Y8410806D01*
X88671755Y8407961D01*
X88662000Y8407000D01*
X88362000Y8407000D01*
X88362000Y7757000D01*
X88361039Y7747245D01*
X88358194Y7737866D01*
X88353573Y7729221D01*
X88347355Y7721645D01*
X88339779Y7715427D01*
X88331134Y7710806D01*
X88321755Y7707961D01*
X88312000Y7707000D01*
X87212000Y7707000D01*
X87202245Y7707961D01*
X87192866Y7710806D01*
X87184221Y7715427D01*
X87176645Y7721645D01*
X87170427Y7729221D01*
X87165806Y7737866D01*
X87162961Y7747245D01*
X87162000Y7757000D01*
X87162000Y8407000D01*
X86862000Y8407000D01*
X86852245Y8407961D01*
X86842866Y8410806D01*
X86834221Y8415427D01*
X86826645Y8421645D01*
X86820427Y8429221D01*
X86815806Y8437866D01*
X86812961Y8447245D01*
X86812000Y8457000D01*
X86812000Y9957000D01*
X86812961Y9966755D01*
X86815806Y9976134D01*
X86820427Y9984779D01*
X86826645Y9992355D01*
X86834221Y9998573D01*
X86842866Y10003194D01*
X86852245Y10006039D01*
X86862000Y10007000D01*
X88662000Y10007000D01*
X88671755Y10006039D01*
X88681134Y10003194D01*
X88689779Y9998573D01*
X88697355Y9992355D01*
X88703573Y9984779D01*
X88708194Y9976134D01*
X88711039Y9966755D01*
X88712000Y9957000D01*
X88712000Y8457000D01*
X88711039Y8447245D01*
G37*
G04 #@! TD.AperFunction*
G04 #@! TA.AperFunction,SMDPad,CuDef*
G36*
X85640245Y11050961D02*
G01*
X85630866Y11053806D01*
X85622221Y11058427D01*
X85614645Y11064645D01*
X85608427Y11072221D01*
X85603806Y11080866D01*
X85600961Y11090245D01*
X85600000Y11100000D01*
X85600000Y12900000D01*
X85600961Y12909755D01*
X85603806Y12919134D01*
X85608427Y12927779D01*
X85614645Y12935355D01*
X85622221Y12941573D01*
X85630866Y12946194D01*
X85640245Y12949039D01*
X85650000Y12950000D01*
X87150000Y12950000D01*
X87159755Y12949039D01*
X87169134Y12946194D01*
X87177779Y12941573D01*
X87185355Y12935355D01*
X87191573Y12927779D01*
X87196194Y12919134D01*
X87199039Y12909755D01*
X87200000Y12900000D01*
X87200000Y12600000D01*
X87850000Y12600000D01*
X87859755Y12599039D01*
X87869134Y12596194D01*
X87877779Y12591573D01*
X87885355Y12585355D01*
X87891573Y12577779D01*
X87896194Y12569134D01*
X87899039Y12559755D01*
X87900000Y12550000D01*
X87900000Y11450000D01*
X87899039Y11440245D01*
X87896194Y11430866D01*
X87891573Y11422221D01*
X87885355Y11414645D01*
X87877779Y11408427D01*
X87869134Y11403806D01*
X87859755Y11400961D01*
X87850000Y11400000D01*
X87200000Y11400000D01*
X87200000Y11100000D01*
X87199039Y11090245D01*
X87196194Y11080866D01*
X87191573Y11072221D01*
X87185355Y11064645D01*
X87177779Y11058427D01*
X87169134Y11053806D01*
X87159755Y11050961D01*
X87150000Y11050000D01*
X85650000Y11050000D01*
X85640245Y11050961D01*
G37*
G04 #@! TD.AperFunction*
G04 #@! TA.AperFunction,SMDPad,CuDef*
G36*
X89240245Y11050961D02*
G01*
X89230866Y11053806D01*
X89222221Y11058427D01*
X89214645Y11064645D01*
X89208427Y11072221D01*
X89203806Y11080866D01*
X89200961Y11090245D01*
X89200000Y11100000D01*
X89200000Y11400000D01*
X88550000Y11400000D01*
X88540245Y11400961D01*
X88530866Y11403806D01*
X88522221Y11408427D01*
X88514645Y11414645D01*
X88508427Y11422221D01*
X88503806Y11430866D01*
X88500961Y11440245D01*
X88500000Y11450000D01*
X88500000Y12550000D01*
X88500961Y12559755D01*
X88503806Y12569134D01*
X88508427Y12577779D01*
X88514645Y12585355D01*
X88522221Y12591573D01*
X88530866Y12596194D01*
X88540245Y12599039D01*
X88550000Y12600000D01*
X89200000Y12600000D01*
X89200000Y12900000D01*
X89200961Y12909755D01*
X89203806Y12919134D01*
X89208427Y12927779D01*
X89214645Y12935355D01*
X89222221Y12941573D01*
X89230866Y12946194D01*
X89240245Y12949039D01*
X89250000Y12950000D01*
X90750000Y12950000D01*
X90759755Y12949039D01*
X90769134Y12946194D01*
X90777779Y12941573D01*
X90785355Y12935355D01*
X90791573Y12927779D01*
X90796194Y12919134D01*
X90799039Y12909755D01*
X90800000Y12900000D01*
X90800000Y11100000D01*
X90799039Y11090245D01*
X90796194Y11080866D01*
X90791573Y11072221D01*
X90785355Y11064645D01*
X90777779Y11058427D01*
X90769134Y11053806D01*
X90759755Y11050961D01*
X90750000Y11050000D01*
X89250000Y11050000D01*
X89240245Y11050961D01*
G37*
G04 #@! TD.AperFunction*
G04 #@! TA.AperFunction,SMDPad,CuDef*
G36*
X78849039Y4840245D02*
G01*
X78846194Y4830866D01*
X78841573Y4822221D01*
X78835355Y4814645D01*
X78827779Y4808427D01*
X78819134Y4803806D01*
X78809755Y4800961D01*
X78800000Y4800000D01*
X77000000Y4800000D01*
X76990245Y4800961D01*
X76980866Y4803806D01*
X76972221Y4808427D01*
X76964645Y4814645D01*
X76958427Y4822221D01*
X76953806Y4830866D01*
X76950961Y4840245D01*
X76950000Y4850000D01*
X76950000Y6350000D01*
X76950961Y6359755D01*
X76953806Y6369134D01*
X76958427Y6377779D01*
X76964645Y6385355D01*
X76972221Y6391573D01*
X76980866Y6396194D01*
X76990245Y6399039D01*
X77000000Y6400000D01*
X77300000Y6400000D01*
X77300000Y7050000D01*
X77300961Y7059755D01*
X77303806Y7069134D01*
X77308427Y7077779D01*
X77314645Y7085355D01*
X77322221Y7091573D01*
X77330866Y7096194D01*
X77340245Y7099039D01*
X77350000Y7100000D01*
X78450000Y7100000D01*
X78459755Y7099039D01*
X78469134Y7096194D01*
X78477779Y7091573D01*
X78485355Y7085355D01*
X78491573Y7077779D01*
X78496194Y7069134D01*
X78499039Y7059755D01*
X78500000Y7050000D01*
X78500000Y6400000D01*
X78800000Y6400000D01*
X78809755Y6399039D01*
X78819134Y6396194D01*
X78827779Y6391573D01*
X78835355Y6385355D01*
X78841573Y6377779D01*
X78846194Y6369134D01*
X78849039Y6359755D01*
X78850000Y6350000D01*
X78850000Y4850000D01*
X78849039Y4840245D01*
G37*
G04 #@! TD.AperFunction*
G04 #@! TA.AperFunction,SMDPad,CuDef*
G36*
X78849039Y8440245D02*
G01*
X78846194Y8430866D01*
X78841573Y8422221D01*
X78835355Y8414645D01*
X78827779Y8408427D01*
X78819134Y8403806D01*
X78809755Y8400961D01*
X78800000Y8400000D01*
X78500000Y8400000D01*
X78500000Y7750000D01*
X78499039Y7740245D01*
X78496194Y7730866D01*
X78491573Y7722221D01*
X78485355Y7714645D01*
X78477779Y7708427D01*
X78469134Y7703806D01*
X78459755Y7700961D01*
X78450000Y7700000D01*
X77350000Y7700000D01*
X77340245Y7700961D01*
X77330866Y7703806D01*
X77322221Y7708427D01*
X77314645Y7714645D01*
X77308427Y7722221D01*
X77303806Y7730866D01*
X77300961Y7740245D01*
X77300000Y7750000D01*
X77300000Y8400000D01*
X77000000Y8400000D01*
X76990245Y8400961D01*
X76980866Y8403806D01*
X76972221Y8408427D01*
X76964645Y8414645D01*
X76958427Y8422221D01*
X76953806Y8430866D01*
X76950961Y8440245D01*
X76950000Y8450000D01*
X76950000Y9950000D01*
X76950961Y9959755D01*
X76953806Y9969134D01*
X76958427Y9977779D01*
X76964645Y9985355D01*
X76972221Y9991573D01*
X76980866Y9996194D01*
X76990245Y9999039D01*
X77000000Y10000000D01*
X78800000Y10000000D01*
X78809755Y9999039D01*
X78819134Y9996194D01*
X78827779Y9991573D01*
X78835355Y9985355D01*
X78841573Y9977779D01*
X78846194Y9969134D01*
X78849039Y9959755D01*
X78850000Y9950000D01*
X78850000Y8450000D01*
X78849039Y8440245D01*
G37*
G04 #@! TD.AperFunction*
G04 #@! TA.AperFunction,SMDPad,CuDef*
G36*
X79840245Y8950961D02*
G01*
X79830866Y8953806D01*
X79822221Y8958427D01*
X79814645Y8964645D01*
X79808427Y8972221D01*
X79803806Y8980866D01*
X79800961Y8990245D01*
X79800000Y9000000D01*
X79800000Y10800000D01*
X79800961Y10809755D01*
X79803806Y10819134D01*
X79808427Y10827779D01*
X79814645Y10835355D01*
X79822221Y10841573D01*
X79830866Y10846194D01*
X79840245Y10849039D01*
X79850000Y10850000D01*
X81350000Y10850000D01*
X81359755Y10849039D01*
X81369134Y10846194D01*
X81377779Y10841573D01*
X81385355Y10835355D01*
X81391573Y10827779D01*
X81396194Y10819134D01*
X81399039Y10809755D01*
X81400000Y10800000D01*
X81400000Y10500000D01*
X82050000Y10500000D01*
X82059755Y10499039D01*
X82069134Y10496194D01*
X82077779Y10491573D01*
X82085355Y10485355D01*
X82091573Y10477779D01*
X82096194Y10469134D01*
X82099039Y10459755D01*
X82100000Y10450000D01*
X82100000Y9350000D01*
X82099039Y9340245D01*
X82096194Y9330866D01*
X82091573Y9322221D01*
X82085355Y9314645D01*
X82077779Y9308427D01*
X82069134Y9303806D01*
X82059755Y9300961D01*
X82050000Y9300000D01*
X81400000Y9300000D01*
X81400000Y9000000D01*
X81399039Y8990245D01*
X81396194Y8980866D01*
X81391573Y8972221D01*
X81385355Y8964645D01*
X81377779Y8958427D01*
X81369134Y8953806D01*
X81359755Y8950961D01*
X81350000Y8950000D01*
X79850000Y8950000D01*
X79840245Y8950961D01*
G37*
G04 #@! TD.AperFunction*
G04 #@! TA.AperFunction,SMDPad,CuDef*
G36*
X83440245Y8950961D02*
G01*
X83430866Y8953806D01*
X83422221Y8958427D01*
X83414645Y8964645D01*
X83408427Y8972221D01*
X83403806Y8980866D01*
X83400961Y8990245D01*
X83400000Y9000000D01*
X83400000Y9300000D01*
X82750000Y9300000D01*
X82740245Y9300961D01*
X82730866Y9303806D01*
X82722221Y9308427D01*
X82714645Y9314645D01*
X82708427Y9322221D01*
X82703806Y9330866D01*
X82700961Y9340245D01*
X82700000Y9350000D01*
X82700000Y10450000D01*
X82700961Y10459755D01*
X82703806Y10469134D01*
X82708427Y10477779D01*
X82714645Y10485355D01*
X82722221Y10491573D01*
X82730866Y10496194D01*
X82740245Y10499039D01*
X82750000Y10500000D01*
X83400000Y10500000D01*
X83400000Y10800000D01*
X83400961Y10809755D01*
X83403806Y10819134D01*
X83408427Y10827779D01*
X83414645Y10835355D01*
X83422221Y10841573D01*
X83430866Y10846194D01*
X83440245Y10849039D01*
X83450000Y10850000D01*
X84950000Y10850000D01*
X84959755Y10849039D01*
X84969134Y10846194D01*
X84977779Y10841573D01*
X84985355Y10835355D01*
X84991573Y10827779D01*
X84996194Y10819134D01*
X84999039Y10809755D01*
X85000000Y10800000D01*
X85000000Y9000000D01*
X84999039Y8990245D01*
X84996194Y8980866D01*
X84991573Y8972221D01*
X84985355Y8964645D01*
X84977779Y8958427D01*
X84969134Y8953806D01*
X84959755Y8950961D01*
X84950000Y8950000D01*
X83450000Y8950000D01*
X83440245Y8950961D01*
G37*
G04 #@! TD.AperFunction*
G04 #@! TA.AperFunction,SMDPad,CuDef*
G36*
X76349039Y4847245D02*
G01*
X76346194Y4837866D01*
X76341573Y4829221D01*
X76335355Y4821645D01*
X76327779Y4815427D01*
X76319134Y4810806D01*
X76309755Y4807961D01*
X76300000Y4807000D01*
X74500000Y4807000D01*
X74490245Y4807961D01*
X74480866Y4810806D01*
X74472221Y4815427D01*
X74464645Y4821645D01*
X74458427Y4829221D01*
X74453806Y4837866D01*
X74450961Y4847245D01*
X74450000Y4857000D01*
X74450000Y6357000D01*
X74450961Y6366755D01*
X74453806Y6376134D01*
X74458427Y6384779D01*
X74464645Y6392355D01*
X74472221Y6398573D01*
X74480866Y6403194D01*
X74490245Y6406039D01*
X74500000Y6407000D01*
X74800000Y6407000D01*
X74800000Y7057000D01*
X74800961Y7066755D01*
X74803806Y7076134D01*
X74808427Y7084779D01*
X74814645Y7092355D01*
X74822221Y7098573D01*
X74830866Y7103194D01*
X74840245Y7106039D01*
X74850000Y7107000D01*
X75950000Y7107000D01*
X75959755Y7106039D01*
X75969134Y7103194D01*
X75977779Y7098573D01*
X75985355Y7092355D01*
X75991573Y7084779D01*
X75996194Y7076134D01*
X75999039Y7066755D01*
X76000000Y7057000D01*
X76000000Y6407000D01*
X76300000Y6407000D01*
X76309755Y6406039D01*
X76319134Y6403194D01*
X76327779Y6398573D01*
X76335355Y6392355D01*
X76341573Y6384779D01*
X76346194Y6376134D01*
X76349039Y6366755D01*
X76350000Y6357000D01*
X76350000Y4857000D01*
X76349039Y4847245D01*
G37*
G04 #@! TD.AperFunction*
G04 #@! TA.AperFunction,SMDPad,CuDef*
G36*
X76349039Y8447245D02*
G01*
X76346194Y8437866D01*
X76341573Y8429221D01*
X76335355Y8421645D01*
X76327779Y8415427D01*
X76319134Y8410806D01*
X76309755Y8407961D01*
X76300000Y8407000D01*
X76000000Y8407000D01*
X76000000Y7757000D01*
X75999039Y7747245D01*
X75996194Y7737866D01*
X75991573Y7729221D01*
X75985355Y7721645D01*
X75977779Y7715427D01*
X75969134Y7710806D01*
X75959755Y7707961D01*
X75950000Y7707000D01*
X74850000Y7707000D01*
X74840245Y7707961D01*
X74830866Y7710806D01*
X74822221Y7715427D01*
X74814645Y7721645D01*
X74808427Y7729221D01*
X74803806Y7737866D01*
X74800961Y7747245D01*
X74800000Y7757000D01*
X74800000Y8407000D01*
X74500000Y8407000D01*
X74490245Y8407961D01*
X74480866Y8410806D01*
X74472221Y8415427D01*
X74464645Y8421645D01*
X74458427Y8429221D01*
X74453806Y8437866D01*
X74450961Y8447245D01*
X74450000Y8457000D01*
X74450000Y9957000D01*
X74450961Y9966755D01*
X74453806Y9976134D01*
X74458427Y9984779D01*
X74464645Y9992355D01*
X74472221Y9998573D01*
X74480866Y10003194D01*
X74490245Y10006039D01*
X74500000Y10007000D01*
X76300000Y10007000D01*
X76309755Y10006039D01*
X76319134Y10003194D01*
X76327779Y9998573D01*
X76335355Y9992355D01*
X76341573Y9984779D01*
X76346194Y9976134D01*
X76349039Y9966755D01*
X76350000Y9957000D01*
X76350000Y8457000D01*
X76349039Y8447245D01*
G37*
G04 #@! TD.AperFunction*
G04 #@! TA.AperFunction,SMDPad,CuDef*
G36*
X71340245Y10521961D02*
G01*
X71330866Y10524806D01*
X71322221Y10529427D01*
X71314645Y10535645D01*
X71308427Y10543221D01*
X71303806Y10551866D01*
X71300961Y10561245D01*
X71300000Y10571000D01*
X71300000Y12371000D01*
X71300961Y12380755D01*
X71303806Y12390134D01*
X71308427Y12398779D01*
X71314645Y12406355D01*
X71322221Y12412573D01*
X71330866Y12417194D01*
X71340245Y12420039D01*
X71350000Y12421000D01*
X72850000Y12421000D01*
X72859755Y12420039D01*
X72869134Y12417194D01*
X72877779Y12412573D01*
X72885355Y12406355D01*
X72891573Y12398779D01*
X72896194Y12390134D01*
X72899039Y12380755D01*
X72900000Y12371000D01*
X72900000Y12071000D01*
X73550000Y12071000D01*
X73559755Y12070039D01*
X73569134Y12067194D01*
X73577779Y12062573D01*
X73585355Y12056355D01*
X73591573Y12048779D01*
X73596194Y12040134D01*
X73599039Y12030755D01*
X73600000Y12021000D01*
X73600000Y10921000D01*
X73599039Y10911245D01*
X73596194Y10901866D01*
X73591573Y10893221D01*
X73585355Y10885645D01*
X73577779Y10879427D01*
X73569134Y10874806D01*
X73559755Y10871961D01*
X73550000Y10871000D01*
X72900000Y10871000D01*
X72900000Y10571000D01*
X72899039Y10561245D01*
X72896194Y10551866D01*
X72891573Y10543221D01*
X72885355Y10535645D01*
X72877779Y10529427D01*
X72869134Y10524806D01*
X72859755Y10521961D01*
X72850000Y10521000D01*
X71350000Y10521000D01*
X71340245Y10521961D01*
G37*
G04 #@! TD.AperFunction*
G04 #@! TA.AperFunction,SMDPad,CuDef*
G36*
X74940245Y10521961D02*
G01*
X74930866Y10524806D01*
X74922221Y10529427D01*
X74914645Y10535645D01*
X74908427Y10543221D01*
X74903806Y10551866D01*
X74900961Y10561245D01*
X74900000Y10571000D01*
X74900000Y10871000D01*
X74250000Y10871000D01*
X74240245Y10871961D01*
X74230866Y10874806D01*
X74222221Y10879427D01*
X74214645Y10885645D01*
X74208427Y10893221D01*
X74203806Y10901866D01*
X74200961Y10911245D01*
X74200000Y10921000D01*
X74200000Y12021000D01*
X74200961Y12030755D01*
X74203806Y12040134D01*
X74208427Y12048779D01*
X74214645Y12056355D01*
X74222221Y12062573D01*
X74230866Y12067194D01*
X74240245Y12070039D01*
X74250000Y12071000D01*
X74900000Y12071000D01*
X74900000Y12371000D01*
X74900961Y12380755D01*
X74903806Y12390134D01*
X74908427Y12398779D01*
X74914645Y12406355D01*
X74922221Y12412573D01*
X74930866Y12417194D01*
X74940245Y12420039D01*
X74950000Y12421000D01*
X76450000Y12421000D01*
X76459755Y12420039D01*
X76469134Y12417194D01*
X76477779Y12412573D01*
X76485355Y12406355D01*
X76491573Y12398779D01*
X76496194Y12390134D01*
X76499039Y12380755D01*
X76500000Y12371000D01*
X76500000Y10571000D01*
X76499039Y10561245D01*
X76496194Y10551866D01*
X76491573Y10543221D01*
X76485355Y10535645D01*
X76477779Y10529427D01*
X76469134Y10524806D01*
X76459755Y10521961D01*
X76450000Y10521000D01*
X74950000Y10521000D01*
X74940245Y10521961D01*
G37*
G04 #@! TD.AperFunction*
G04 #@! TA.AperFunction,SMDPad,CuDef*
G36*
X72455039Y4847245D02*
G01*
X72452194Y4837866D01*
X72447573Y4829221D01*
X72441355Y4821645D01*
X72433779Y4815427D01*
X72425134Y4810806D01*
X72415755Y4807961D01*
X72406000Y4807000D01*
X70606000Y4807000D01*
X70596245Y4807961D01*
X70586866Y4810806D01*
X70578221Y4815427D01*
X70570645Y4821645D01*
X70564427Y4829221D01*
X70559806Y4837866D01*
X70556961Y4847245D01*
X70556000Y4857000D01*
X70556000Y6357000D01*
X70556961Y6366755D01*
X70559806Y6376134D01*
X70564427Y6384779D01*
X70570645Y6392355D01*
X70578221Y6398573D01*
X70586866Y6403194D01*
X70596245Y6406039D01*
X70606000Y6407000D01*
X70906000Y6407000D01*
X70906000Y7057000D01*
X70906961Y7066755D01*
X70909806Y7076134D01*
X70914427Y7084779D01*
X70920645Y7092355D01*
X70928221Y7098573D01*
X70936866Y7103194D01*
X70946245Y7106039D01*
X70956000Y7107000D01*
X72056000Y7107000D01*
X72065755Y7106039D01*
X72075134Y7103194D01*
X72083779Y7098573D01*
X72091355Y7092355D01*
X72097573Y7084779D01*
X72102194Y7076134D01*
X72105039Y7066755D01*
X72106000Y7057000D01*
X72106000Y6407000D01*
X72406000Y6407000D01*
X72415755Y6406039D01*
X72425134Y6403194D01*
X72433779Y6398573D01*
X72441355Y6392355D01*
X72447573Y6384779D01*
X72452194Y6376134D01*
X72455039Y6366755D01*
X72456000Y6357000D01*
X72456000Y4857000D01*
X72455039Y4847245D01*
G37*
G04 #@! TD.AperFunction*
G04 #@! TA.AperFunction,SMDPad,CuDef*
G36*
X72455039Y8447245D02*
G01*
X72452194Y8437866D01*
X72447573Y8429221D01*
X72441355Y8421645D01*
X72433779Y8415427D01*
X72425134Y8410806D01*
X72415755Y8407961D01*
X72406000Y8407000D01*
X72106000Y8407000D01*
X72106000Y7757000D01*
X72105039Y7747245D01*
X72102194Y7737866D01*
X72097573Y7729221D01*
X72091355Y7721645D01*
X72083779Y7715427D01*
X72075134Y7710806D01*
X72065755Y7707961D01*
X72056000Y7707000D01*
X70956000Y7707000D01*
X70946245Y7707961D01*
X70936866Y7710806D01*
X70928221Y7715427D01*
X70920645Y7721645D01*
X70914427Y7729221D01*
X70909806Y7737866D01*
X70906961Y7747245D01*
X70906000Y7757000D01*
X70906000Y8407000D01*
X70606000Y8407000D01*
X70596245Y8407961D01*
X70586866Y8410806D01*
X70578221Y8415427D01*
X70570645Y8421645D01*
X70564427Y8429221D01*
X70559806Y8437866D01*
X70556961Y8447245D01*
X70556000Y8457000D01*
X70556000Y9957000D01*
X70556961Y9966755D01*
X70559806Y9976134D01*
X70564427Y9984779D01*
X70570645Y9992355D01*
X70578221Y9998573D01*
X70586866Y10003194D01*
X70596245Y10006039D01*
X70606000Y10007000D01*
X72406000Y10007000D01*
X72415755Y10006039D01*
X72425134Y10003194D01*
X72433779Y9998573D01*
X72441355Y9992355D01*
X72447573Y9984779D01*
X72452194Y9976134D01*
X72455039Y9966755D01*
X72456000Y9957000D01*
X72456000Y8457000D01*
X72455039Y8447245D01*
G37*
G04 #@! TD.AperFunction*
G04 #@! TA.AperFunction,SMDPad,CuDef*
G36*
X65644245Y10521961D02*
G01*
X65634866Y10524806D01*
X65626221Y10529427D01*
X65618645Y10535645D01*
X65612427Y10543221D01*
X65607806Y10551866D01*
X65604961Y10561245D01*
X65604000Y10571000D01*
X65604000Y12371000D01*
X65604961Y12380755D01*
X65607806Y12390134D01*
X65612427Y12398779D01*
X65618645Y12406355D01*
X65626221Y12412573D01*
X65634866Y12417194D01*
X65644245Y12420039D01*
X65654000Y12421000D01*
X67154000Y12421000D01*
X67163755Y12420039D01*
X67173134Y12417194D01*
X67181779Y12412573D01*
X67189355Y12406355D01*
X67195573Y12398779D01*
X67200194Y12390134D01*
X67203039Y12380755D01*
X67204000Y12371000D01*
X67204000Y12071000D01*
X67854000Y12071000D01*
X67863755Y12070039D01*
X67873134Y12067194D01*
X67881779Y12062573D01*
X67889355Y12056355D01*
X67895573Y12048779D01*
X67900194Y12040134D01*
X67903039Y12030755D01*
X67904000Y12021000D01*
X67904000Y10921000D01*
X67903039Y10911245D01*
X67900194Y10901866D01*
X67895573Y10893221D01*
X67889355Y10885645D01*
X67881779Y10879427D01*
X67873134Y10874806D01*
X67863755Y10871961D01*
X67854000Y10871000D01*
X67204000Y10871000D01*
X67204000Y10571000D01*
X67203039Y10561245D01*
X67200194Y10551866D01*
X67195573Y10543221D01*
X67189355Y10535645D01*
X67181779Y10529427D01*
X67173134Y10524806D01*
X67163755Y10521961D01*
X67154000Y10521000D01*
X65654000Y10521000D01*
X65644245Y10521961D01*
G37*
G04 #@! TD.AperFunction*
G04 #@! TA.AperFunction,SMDPad,CuDef*
G36*
X69244245Y10521961D02*
G01*
X69234866Y10524806D01*
X69226221Y10529427D01*
X69218645Y10535645D01*
X69212427Y10543221D01*
X69207806Y10551866D01*
X69204961Y10561245D01*
X69204000Y10571000D01*
X69204000Y10871000D01*
X68554000Y10871000D01*
X68544245Y10871961D01*
X68534866Y10874806D01*
X68526221Y10879427D01*
X68518645Y10885645D01*
X68512427Y10893221D01*
X68507806Y10901866D01*
X68504961Y10911245D01*
X68504000Y10921000D01*
X68504000Y12021000D01*
X68504961Y12030755D01*
X68507806Y12040134D01*
X68512427Y12048779D01*
X68518645Y12056355D01*
X68526221Y12062573D01*
X68534866Y12067194D01*
X68544245Y12070039D01*
X68554000Y12071000D01*
X69204000Y12071000D01*
X69204000Y12371000D01*
X69204961Y12380755D01*
X69207806Y12390134D01*
X69212427Y12398779D01*
X69218645Y12406355D01*
X69226221Y12412573D01*
X69234866Y12417194D01*
X69244245Y12420039D01*
X69254000Y12421000D01*
X70754000Y12421000D01*
X70763755Y12420039D01*
X70773134Y12417194D01*
X70781779Y12412573D01*
X70789355Y12406355D01*
X70795573Y12398779D01*
X70800194Y12390134D01*
X70803039Y12380755D01*
X70804000Y12371000D01*
X70804000Y10571000D01*
X70803039Y10561245D01*
X70800194Y10551866D01*
X70795573Y10543221D01*
X70789355Y10535645D01*
X70781779Y10529427D01*
X70773134Y10524806D01*
X70763755Y10521961D01*
X70754000Y10521000D01*
X69254000Y10521000D01*
X69244245Y10521961D01*
G37*
G04 #@! TD.AperFunction*
G04 #@! TA.AperFunction,SMDPad,CuDef*
G36*
X68949039Y4840245D02*
G01*
X68946194Y4830866D01*
X68941573Y4822221D01*
X68935355Y4814645D01*
X68927779Y4808427D01*
X68919134Y4803806D01*
X68909755Y4800961D01*
X68900000Y4800000D01*
X67100000Y4800000D01*
X67090245Y4800961D01*
X67080866Y4803806D01*
X67072221Y4808427D01*
X67064645Y4814645D01*
X67058427Y4822221D01*
X67053806Y4830866D01*
X67050961Y4840245D01*
X67050000Y4850000D01*
X67050000Y6350000D01*
X67050961Y6359755D01*
X67053806Y6369134D01*
X67058427Y6377779D01*
X67064645Y6385355D01*
X67072221Y6391573D01*
X67080866Y6396194D01*
X67090245Y6399039D01*
X67100000Y6400000D01*
X67400000Y6400000D01*
X67400000Y7050000D01*
X67400961Y7059755D01*
X67403806Y7069134D01*
X67408427Y7077779D01*
X67414645Y7085355D01*
X67422221Y7091573D01*
X67430866Y7096194D01*
X67440245Y7099039D01*
X67450000Y7100000D01*
X68550000Y7100000D01*
X68559755Y7099039D01*
X68569134Y7096194D01*
X68577779Y7091573D01*
X68585355Y7085355D01*
X68591573Y7077779D01*
X68596194Y7069134D01*
X68599039Y7059755D01*
X68600000Y7050000D01*
X68600000Y6400000D01*
X68900000Y6400000D01*
X68909755Y6399039D01*
X68919134Y6396194D01*
X68927779Y6391573D01*
X68935355Y6385355D01*
X68941573Y6377779D01*
X68946194Y6369134D01*
X68949039Y6359755D01*
X68950000Y6350000D01*
X68950000Y4850000D01*
X68949039Y4840245D01*
G37*
G04 #@! TD.AperFunction*
G04 #@! TA.AperFunction,SMDPad,CuDef*
G36*
X68949039Y8440245D02*
G01*
X68946194Y8430866D01*
X68941573Y8422221D01*
X68935355Y8414645D01*
X68927779Y8408427D01*
X68919134Y8403806D01*
X68909755Y8400961D01*
X68900000Y8400000D01*
X68600000Y8400000D01*
X68600000Y7750000D01*
X68599039Y7740245D01*
X68596194Y7730866D01*
X68591573Y7722221D01*
X68585355Y7714645D01*
X68577779Y7708427D01*
X68569134Y7703806D01*
X68559755Y7700961D01*
X68550000Y7700000D01*
X67450000Y7700000D01*
X67440245Y7700961D01*
X67430866Y7703806D01*
X67422221Y7708427D01*
X67414645Y7714645D01*
X67408427Y7722221D01*
X67403806Y7730866D01*
X67400961Y7740245D01*
X67400000Y7750000D01*
X67400000Y8400000D01*
X67100000Y8400000D01*
X67090245Y8400961D01*
X67080866Y8403806D01*
X67072221Y8408427D01*
X67064645Y8414645D01*
X67058427Y8422221D01*
X67053806Y8430866D01*
X67050961Y8440245D01*
X67050000Y8450000D01*
X67050000Y9950000D01*
X67050961Y9959755D01*
X67053806Y9969134D01*
X67058427Y9977779D01*
X67064645Y9985355D01*
X67072221Y9991573D01*
X67080866Y9996194D01*
X67090245Y9999039D01*
X67100000Y10000000D01*
X68900000Y10000000D01*
X68909755Y9999039D01*
X68919134Y9996194D01*
X68927779Y9991573D01*
X68935355Y9985355D01*
X68941573Y9977779D01*
X68946194Y9969134D01*
X68949039Y9959755D01*
X68950000Y9950000D01*
X68950000Y8450000D01*
X68949039Y8440245D01*
G37*
G04 #@! TD.AperFunction*
G04 #@! TA.AperFunction,SMDPad,CuDef*
G36*
X58440245Y8450961D02*
G01*
X58430866Y8453806D01*
X58422221Y8458427D01*
X58414645Y8464645D01*
X58408427Y8472221D01*
X58403806Y8480866D01*
X58400961Y8490245D01*
X58400000Y8500000D01*
X58400000Y10300000D01*
X58400961Y10309755D01*
X58403806Y10319134D01*
X58408427Y10327779D01*
X58414645Y10335355D01*
X58422221Y10341573D01*
X58430866Y10346194D01*
X58440245Y10349039D01*
X58450000Y10350000D01*
X59950000Y10350000D01*
X59959755Y10349039D01*
X59969134Y10346194D01*
X59977779Y10341573D01*
X59985355Y10335355D01*
X59991573Y10327779D01*
X59996194Y10319134D01*
X59999039Y10309755D01*
X60000000Y10300000D01*
X60000000Y10000000D01*
X60650000Y10000000D01*
X60659755Y9999039D01*
X60669134Y9996194D01*
X60677779Y9991573D01*
X60685355Y9985355D01*
X60691573Y9977779D01*
X60696194Y9969134D01*
X60699039Y9959755D01*
X60700000Y9950000D01*
X60700000Y8850000D01*
X60699039Y8840245D01*
X60696194Y8830866D01*
X60691573Y8822221D01*
X60685355Y8814645D01*
X60677779Y8808427D01*
X60669134Y8803806D01*
X60659755Y8800961D01*
X60650000Y8800000D01*
X60000000Y8800000D01*
X60000000Y8500000D01*
X59999039Y8490245D01*
X59996194Y8480866D01*
X59991573Y8472221D01*
X59985355Y8464645D01*
X59977779Y8458427D01*
X59969134Y8453806D01*
X59959755Y8450961D01*
X59950000Y8450000D01*
X58450000Y8450000D01*
X58440245Y8450961D01*
G37*
G04 #@! TD.AperFunction*
G04 #@! TA.AperFunction,SMDPad,CuDef*
G36*
X62040245Y8450961D02*
G01*
X62030866Y8453806D01*
X62022221Y8458427D01*
X62014645Y8464645D01*
X62008427Y8472221D01*
X62003806Y8480866D01*
X62000961Y8490245D01*
X62000000Y8500000D01*
X62000000Y8800000D01*
X61350000Y8800000D01*
X61340245Y8800961D01*
X61330866Y8803806D01*
X61322221Y8808427D01*
X61314645Y8814645D01*
X61308427Y8822221D01*
X61303806Y8830866D01*
X61300961Y8840245D01*
X61300000Y8850000D01*
X61300000Y9950000D01*
X61300961Y9959755D01*
X61303806Y9969134D01*
X61308427Y9977779D01*
X61314645Y9985355D01*
X61322221Y9991573D01*
X61330866Y9996194D01*
X61340245Y9999039D01*
X61350000Y10000000D01*
X62000000Y10000000D01*
X62000000Y10300000D01*
X62000961Y10309755D01*
X62003806Y10319134D01*
X62008427Y10327779D01*
X62014645Y10335355D01*
X62022221Y10341573D01*
X62030866Y10346194D01*
X62040245Y10349039D01*
X62050000Y10350000D01*
X63550000Y10350000D01*
X63559755Y10349039D01*
X63569134Y10346194D01*
X63577779Y10341573D01*
X63585355Y10335355D01*
X63591573Y10327779D01*
X63596194Y10319134D01*
X63599039Y10309755D01*
X63600000Y10300000D01*
X63600000Y8500000D01*
X63599039Y8490245D01*
X63596194Y8480866D01*
X63591573Y8472221D01*
X63585355Y8464645D01*
X63577779Y8458427D01*
X63569134Y8453806D01*
X63559755Y8450961D01*
X63550000Y8450000D01*
X62050000Y8450000D01*
X62040245Y8450961D01*
G37*
G04 #@! TD.AperFunction*
G04 #@! TA.AperFunction,SMDPad,CuDef*
G36*
X65949039Y4840245D02*
G01*
X65946194Y4830866D01*
X65941573Y4822221D01*
X65935355Y4814645D01*
X65927779Y4808427D01*
X65919134Y4803806D01*
X65909755Y4800961D01*
X65900000Y4800000D01*
X64100000Y4800000D01*
X64090245Y4800961D01*
X64080866Y4803806D01*
X64072221Y4808427D01*
X64064645Y4814645D01*
X64058427Y4822221D01*
X64053806Y4830866D01*
X64050961Y4840245D01*
X64050000Y4850000D01*
X64050000Y6350000D01*
X64050961Y6359755D01*
X64053806Y6369134D01*
X64058427Y6377779D01*
X64064645Y6385355D01*
X64072221Y6391573D01*
X64080866Y6396194D01*
X64090245Y6399039D01*
X64100000Y6400000D01*
X64400000Y6400000D01*
X64400000Y7050000D01*
X64400961Y7059755D01*
X64403806Y7069134D01*
X64408427Y7077779D01*
X64414645Y7085355D01*
X64422221Y7091573D01*
X64430866Y7096194D01*
X64440245Y7099039D01*
X64450000Y7100000D01*
X65550000Y7100000D01*
X65559755Y7099039D01*
X65569134Y7096194D01*
X65577779Y7091573D01*
X65585355Y7085355D01*
X65591573Y7077779D01*
X65596194Y7069134D01*
X65599039Y7059755D01*
X65600000Y7050000D01*
X65600000Y6400000D01*
X65900000Y6400000D01*
X65909755Y6399039D01*
X65919134Y6396194D01*
X65927779Y6391573D01*
X65935355Y6385355D01*
X65941573Y6377779D01*
X65946194Y6369134D01*
X65949039Y6359755D01*
X65950000Y6350000D01*
X65950000Y4850000D01*
X65949039Y4840245D01*
G37*
G04 #@! TD.AperFunction*
G04 #@! TA.AperFunction,SMDPad,CuDef*
G36*
X65949039Y8440245D02*
G01*
X65946194Y8430866D01*
X65941573Y8422221D01*
X65935355Y8414645D01*
X65927779Y8408427D01*
X65919134Y8403806D01*
X65909755Y8400961D01*
X65900000Y8400000D01*
X65600000Y8400000D01*
X65600000Y7750000D01*
X65599039Y7740245D01*
X65596194Y7730866D01*
X65591573Y7722221D01*
X65585355Y7714645D01*
X65577779Y7708427D01*
X65569134Y7703806D01*
X65559755Y7700961D01*
X65550000Y7700000D01*
X64450000Y7700000D01*
X64440245Y7700961D01*
X64430866Y7703806D01*
X64422221Y7708427D01*
X64414645Y7714645D01*
X64408427Y7722221D01*
X64403806Y7730866D01*
X64400961Y7740245D01*
X64400000Y7750000D01*
X64400000Y8400000D01*
X64100000Y8400000D01*
X64090245Y8400961D01*
X64080866Y8403806D01*
X64072221Y8408427D01*
X64064645Y8414645D01*
X64058427Y8422221D01*
X64053806Y8430866D01*
X64050961Y8440245D01*
X64050000Y8450000D01*
X64050000Y9950000D01*
X64050961Y9959755D01*
X64053806Y9969134D01*
X64058427Y9977779D01*
X64064645Y9985355D01*
X64072221Y9991573D01*
X64080866Y9996194D01*
X64090245Y9999039D01*
X64100000Y10000000D01*
X65900000Y10000000D01*
X65909755Y9999039D01*
X65919134Y9996194D01*
X65927779Y9991573D01*
X65935355Y9985355D01*
X65941573Y9977779D01*
X65946194Y9969134D01*
X65949039Y9959755D01*
X65950000Y9950000D01*
X65950000Y8450000D01*
X65949039Y8440245D01*
G37*
G04 #@! TD.AperFunction*
G04 #@! TA.AperFunction,SMDPad,CuDef*
G36*
X53940245Y10950961D02*
G01*
X53930866Y10953806D01*
X53922221Y10958427D01*
X53914645Y10964645D01*
X53908427Y10972221D01*
X53903806Y10980866D01*
X53900961Y10990245D01*
X53900000Y11000000D01*
X53900000Y12800000D01*
X53900961Y12809755D01*
X53903806Y12819134D01*
X53908427Y12827779D01*
X53914645Y12835355D01*
X53922221Y12841573D01*
X53930866Y12846194D01*
X53940245Y12849039D01*
X53950000Y12850000D01*
X55450000Y12850000D01*
X55459755Y12849039D01*
X55469134Y12846194D01*
X55477779Y12841573D01*
X55485355Y12835355D01*
X55491573Y12827779D01*
X55496194Y12819134D01*
X55499039Y12809755D01*
X55500000Y12800000D01*
X55500000Y12500000D01*
X56150000Y12500000D01*
X56159755Y12499039D01*
X56169134Y12496194D01*
X56177779Y12491573D01*
X56185355Y12485355D01*
X56191573Y12477779D01*
X56196194Y12469134D01*
X56199039Y12459755D01*
X56200000Y12450000D01*
X56200000Y11350000D01*
X56199039Y11340245D01*
X56196194Y11330866D01*
X56191573Y11322221D01*
X56185355Y11314645D01*
X56177779Y11308427D01*
X56169134Y11303806D01*
X56159755Y11300961D01*
X56150000Y11300000D01*
X55500000Y11300000D01*
X55500000Y11000000D01*
X55499039Y10990245D01*
X55496194Y10980866D01*
X55491573Y10972221D01*
X55485355Y10964645D01*
X55477779Y10958427D01*
X55469134Y10953806D01*
X55459755Y10950961D01*
X55450000Y10950000D01*
X53950000Y10950000D01*
X53940245Y10950961D01*
G37*
G04 #@! TD.AperFunction*
G04 #@! TA.AperFunction,SMDPad,CuDef*
G36*
X57540245Y10950961D02*
G01*
X57530866Y10953806D01*
X57522221Y10958427D01*
X57514645Y10964645D01*
X57508427Y10972221D01*
X57503806Y10980866D01*
X57500961Y10990245D01*
X57500000Y11000000D01*
X57500000Y11300000D01*
X56850000Y11300000D01*
X56840245Y11300961D01*
X56830866Y11303806D01*
X56822221Y11308427D01*
X56814645Y11314645D01*
X56808427Y11322221D01*
X56803806Y11330866D01*
X56800961Y11340245D01*
X56800000Y11350000D01*
X56800000Y12450000D01*
X56800961Y12459755D01*
X56803806Y12469134D01*
X56808427Y12477779D01*
X56814645Y12485355D01*
X56822221Y12491573D01*
X56830866Y12496194D01*
X56840245Y12499039D01*
X56850000Y12500000D01*
X57500000Y12500000D01*
X57500000Y12800000D01*
X57500961Y12809755D01*
X57503806Y12819134D01*
X57508427Y12827779D01*
X57514645Y12835355D01*
X57522221Y12841573D01*
X57530866Y12846194D01*
X57540245Y12849039D01*
X57550000Y12850000D01*
X59050000Y12850000D01*
X59059755Y12849039D01*
X59069134Y12846194D01*
X59077779Y12841573D01*
X59085355Y12835355D01*
X59091573Y12827779D01*
X59096194Y12819134D01*
X59099039Y12809755D01*
X59100000Y12800000D01*
X59100000Y11000000D01*
X59099039Y10990245D01*
X59096194Y10980866D01*
X59091573Y10972221D01*
X59085355Y10964645D01*
X59077779Y10958427D01*
X59069134Y10953806D01*
X59059755Y10950961D01*
X59050000Y10950000D01*
X57550000Y10950000D01*
X57540245Y10950961D01*
G37*
G04 #@! TD.AperFunction*
G04 #@! TA.AperFunction,SMDPad,CuDef*
G36*
X56949039Y4840245D02*
G01*
X56946194Y4830866D01*
X56941573Y4822221D01*
X56935355Y4814645D01*
X56927779Y4808427D01*
X56919134Y4803806D01*
X56909755Y4800961D01*
X56900000Y4800000D01*
X55100000Y4800000D01*
X55090245Y4800961D01*
X55080866Y4803806D01*
X55072221Y4808427D01*
X55064645Y4814645D01*
X55058427Y4822221D01*
X55053806Y4830866D01*
X55050961Y4840245D01*
X55050000Y4850000D01*
X55050000Y6350000D01*
X55050961Y6359755D01*
X55053806Y6369134D01*
X55058427Y6377779D01*
X55064645Y6385355D01*
X55072221Y6391573D01*
X55080866Y6396194D01*
X55090245Y6399039D01*
X55100000Y6400000D01*
X55400000Y6400000D01*
X55400000Y7050000D01*
X55400961Y7059755D01*
X55403806Y7069134D01*
X55408427Y7077779D01*
X55414645Y7085355D01*
X55422221Y7091573D01*
X55430866Y7096194D01*
X55440245Y7099039D01*
X55450000Y7100000D01*
X56550000Y7100000D01*
X56559755Y7099039D01*
X56569134Y7096194D01*
X56577779Y7091573D01*
X56585355Y7085355D01*
X56591573Y7077779D01*
X56596194Y7069134D01*
X56599039Y7059755D01*
X56600000Y7050000D01*
X56600000Y6400000D01*
X56900000Y6400000D01*
X56909755Y6399039D01*
X56919134Y6396194D01*
X56927779Y6391573D01*
X56935355Y6385355D01*
X56941573Y6377779D01*
X56946194Y6369134D01*
X56949039Y6359755D01*
X56950000Y6350000D01*
X56950000Y4850000D01*
X56949039Y4840245D01*
G37*
G04 #@! TD.AperFunction*
G04 #@! TA.AperFunction,SMDPad,CuDef*
G36*
X56949039Y8440245D02*
G01*
X56946194Y8430866D01*
X56941573Y8422221D01*
X56935355Y8414645D01*
X56927779Y8408427D01*
X56919134Y8403806D01*
X56909755Y8400961D01*
X56900000Y8400000D01*
X56600000Y8400000D01*
X56600000Y7750000D01*
X56599039Y7740245D01*
X56596194Y7730866D01*
X56591573Y7722221D01*
X56585355Y7714645D01*
X56577779Y7708427D01*
X56569134Y7703806D01*
X56559755Y7700961D01*
X56550000Y7700000D01*
X55450000Y7700000D01*
X55440245Y7700961D01*
X55430866Y7703806D01*
X55422221Y7708427D01*
X55414645Y7714645D01*
X55408427Y7722221D01*
X55403806Y7730866D01*
X55400961Y7740245D01*
X55400000Y7750000D01*
X55400000Y8400000D01*
X55100000Y8400000D01*
X55090245Y8400961D01*
X55080866Y8403806D01*
X55072221Y8408427D01*
X55064645Y8414645D01*
X55058427Y8422221D01*
X55053806Y8430866D01*
X55050961Y8440245D01*
X55050000Y8450000D01*
X55050000Y9950000D01*
X55050961Y9959755D01*
X55053806Y9969134D01*
X55058427Y9977779D01*
X55064645Y9985355D01*
X55072221Y9991573D01*
X55080866Y9996194D01*
X55090245Y9999039D01*
X55100000Y10000000D01*
X56900000Y10000000D01*
X56909755Y9999039D01*
X56919134Y9996194D01*
X56927779Y9991573D01*
X56935355Y9985355D01*
X56941573Y9977779D01*
X56946194Y9969134D01*
X56949039Y9959755D01*
X56950000Y9950000D01*
X56950000Y8450000D01*
X56949039Y8440245D01*
G37*
G04 #@! TD.AperFunction*
G04 #@! TA.AperFunction,SMDPad,CuDef*
G36*
X44324245Y10934961D02*
G01*
X44314866Y10937806D01*
X44306221Y10942427D01*
X44298645Y10948645D01*
X44292427Y10956221D01*
X44287806Y10964866D01*
X44284961Y10974245D01*
X44284000Y10984000D01*
X44284000Y12784000D01*
X44284961Y12793755D01*
X44287806Y12803134D01*
X44292427Y12811779D01*
X44298645Y12819355D01*
X44306221Y12825573D01*
X44314866Y12830194D01*
X44324245Y12833039D01*
X44334000Y12834000D01*
X45834000Y12834000D01*
X45843755Y12833039D01*
X45853134Y12830194D01*
X45861779Y12825573D01*
X45869355Y12819355D01*
X45875573Y12811779D01*
X45880194Y12803134D01*
X45883039Y12793755D01*
X45884000Y12784000D01*
X45884000Y12484000D01*
X46534000Y12484000D01*
X46543755Y12483039D01*
X46553134Y12480194D01*
X46561779Y12475573D01*
X46569355Y12469355D01*
X46575573Y12461779D01*
X46580194Y12453134D01*
X46583039Y12443755D01*
X46584000Y12434000D01*
X46584000Y11334000D01*
X46583039Y11324245D01*
X46580194Y11314866D01*
X46575573Y11306221D01*
X46569355Y11298645D01*
X46561779Y11292427D01*
X46553134Y11287806D01*
X46543755Y11284961D01*
X46534000Y11284000D01*
X45884000Y11284000D01*
X45884000Y10984000D01*
X45883039Y10974245D01*
X45880194Y10964866D01*
X45875573Y10956221D01*
X45869355Y10948645D01*
X45861779Y10942427D01*
X45853134Y10937806D01*
X45843755Y10934961D01*
X45834000Y10934000D01*
X44334000Y10934000D01*
X44324245Y10934961D01*
G37*
G04 #@! TD.AperFunction*
G04 #@! TA.AperFunction,SMDPad,CuDef*
G36*
X47924245Y10934961D02*
G01*
X47914866Y10937806D01*
X47906221Y10942427D01*
X47898645Y10948645D01*
X47892427Y10956221D01*
X47887806Y10964866D01*
X47884961Y10974245D01*
X47884000Y10984000D01*
X47884000Y11284000D01*
X47234000Y11284000D01*
X47224245Y11284961D01*
X47214866Y11287806D01*
X47206221Y11292427D01*
X47198645Y11298645D01*
X47192427Y11306221D01*
X47187806Y11314866D01*
X47184961Y11324245D01*
X47184000Y11334000D01*
X47184000Y12434000D01*
X47184961Y12443755D01*
X47187806Y12453134D01*
X47192427Y12461779D01*
X47198645Y12469355D01*
X47206221Y12475573D01*
X47214866Y12480194D01*
X47224245Y12483039D01*
X47234000Y12484000D01*
X47884000Y12484000D01*
X47884000Y12784000D01*
X47884961Y12793755D01*
X47887806Y12803134D01*
X47892427Y12811779D01*
X47898645Y12819355D01*
X47906221Y12825573D01*
X47914866Y12830194D01*
X47924245Y12833039D01*
X47934000Y12834000D01*
X49434000Y12834000D01*
X49443755Y12833039D01*
X49453134Y12830194D01*
X49461779Y12825573D01*
X49469355Y12819355D01*
X49475573Y12811779D01*
X49480194Y12803134D01*
X49483039Y12793755D01*
X49484000Y12784000D01*
X49484000Y10984000D01*
X49483039Y10974245D01*
X49480194Y10964866D01*
X49475573Y10956221D01*
X49469355Y10948645D01*
X49461779Y10942427D01*
X49453134Y10937806D01*
X49443755Y10934961D01*
X49434000Y10934000D01*
X47934000Y10934000D01*
X47924245Y10934961D01*
G37*
G04 #@! TD.AperFunction*
G04 #@! TA.AperFunction,SMDPad,CuDef*
G36*
X43747039Y7292245D02*
G01*
X43744194Y7282866D01*
X43739573Y7274221D01*
X43733355Y7266645D01*
X43725779Y7260427D01*
X43717134Y7255806D01*
X43707755Y7252961D01*
X43698000Y7252000D01*
X41898000Y7252000D01*
X41888245Y7252961D01*
X41878866Y7255806D01*
X41870221Y7260427D01*
X41862645Y7266645D01*
X41856427Y7274221D01*
X41851806Y7282866D01*
X41848961Y7292245D01*
X41848000Y7302000D01*
X41848000Y8802000D01*
X41848961Y8811755D01*
X41851806Y8821134D01*
X41856427Y8829779D01*
X41862645Y8837355D01*
X41870221Y8843573D01*
X41878866Y8848194D01*
X41888245Y8851039D01*
X41898000Y8852000D01*
X42198000Y8852000D01*
X42198000Y9502000D01*
X42198961Y9511755D01*
X42201806Y9521134D01*
X42206427Y9529779D01*
X42212645Y9537355D01*
X42220221Y9543573D01*
X42228866Y9548194D01*
X42238245Y9551039D01*
X42248000Y9552000D01*
X43348000Y9552000D01*
X43357755Y9551039D01*
X43367134Y9548194D01*
X43375779Y9543573D01*
X43383355Y9537355D01*
X43389573Y9529779D01*
X43394194Y9521134D01*
X43397039Y9511755D01*
X43398000Y9502000D01*
X43398000Y8852000D01*
X43698000Y8852000D01*
X43707755Y8851039D01*
X43717134Y8848194D01*
X43725779Y8843573D01*
X43733355Y8837355D01*
X43739573Y8829779D01*
X43744194Y8821134D01*
X43747039Y8811755D01*
X43748000Y8802000D01*
X43748000Y7302000D01*
X43747039Y7292245D01*
G37*
G04 #@! TD.AperFunction*
G04 #@! TA.AperFunction,SMDPad,CuDef*
G36*
X43747039Y10892245D02*
G01*
X43744194Y10882866D01*
X43739573Y10874221D01*
X43733355Y10866645D01*
X43725779Y10860427D01*
X43717134Y10855806D01*
X43707755Y10852961D01*
X43698000Y10852000D01*
X43398000Y10852000D01*
X43398000Y10202000D01*
X43397039Y10192245D01*
X43394194Y10182866D01*
X43389573Y10174221D01*
X43383355Y10166645D01*
X43375779Y10160427D01*
X43367134Y10155806D01*
X43357755Y10152961D01*
X43348000Y10152000D01*
X42248000Y10152000D01*
X42238245Y10152961D01*
X42228866Y10155806D01*
X42220221Y10160427D01*
X42212645Y10166645D01*
X42206427Y10174221D01*
X42201806Y10182866D01*
X42198961Y10192245D01*
X42198000Y10202000D01*
X42198000Y10852000D01*
X41898000Y10852000D01*
X41888245Y10852961D01*
X41878866Y10855806D01*
X41870221Y10860427D01*
X41862645Y10866645D01*
X41856427Y10874221D01*
X41851806Y10882866D01*
X41848961Y10892245D01*
X41848000Y10902000D01*
X41848000Y12402000D01*
X41848961Y12411755D01*
X41851806Y12421134D01*
X41856427Y12429779D01*
X41862645Y12437355D01*
X41870221Y12443573D01*
X41878866Y12448194D01*
X41888245Y12451039D01*
X41898000Y12452000D01*
X43698000Y12452000D01*
X43707755Y12451039D01*
X43717134Y12448194D01*
X43725779Y12443573D01*
X43733355Y12437355D01*
X43739573Y12429779D01*
X43744194Y12421134D01*
X43747039Y12411755D01*
X43748000Y12402000D01*
X43748000Y10902000D01*
X43747039Y10892245D01*
G37*
G04 #@! TD.AperFunction*
G04 #@! TA.AperFunction,SMDPad,CuDef*
G36*
X30940245Y11150961D02*
G01*
X30930866Y11153806D01*
X30922221Y11158427D01*
X30914645Y11164645D01*
X30908427Y11172221D01*
X30903806Y11180866D01*
X30900961Y11190245D01*
X30900000Y11200000D01*
X30900000Y13000000D01*
X30900961Y13009755D01*
X30903806Y13019134D01*
X30908427Y13027779D01*
X30914645Y13035355D01*
X30922221Y13041573D01*
X30930866Y13046194D01*
X30940245Y13049039D01*
X30950000Y13050000D01*
X32450000Y13050000D01*
X32459755Y13049039D01*
X32469134Y13046194D01*
X32477779Y13041573D01*
X32485355Y13035355D01*
X32491573Y13027779D01*
X32496194Y13019134D01*
X32499039Y13009755D01*
X32500000Y13000000D01*
X32500000Y12700000D01*
X33150000Y12700000D01*
X33159755Y12699039D01*
X33169134Y12696194D01*
X33177779Y12691573D01*
X33185355Y12685355D01*
X33191573Y12677779D01*
X33196194Y12669134D01*
X33199039Y12659755D01*
X33200000Y12650000D01*
X33200000Y11550000D01*
X33199039Y11540245D01*
X33196194Y11530866D01*
X33191573Y11522221D01*
X33185355Y11514645D01*
X33177779Y11508427D01*
X33169134Y11503806D01*
X33159755Y11500961D01*
X33150000Y11500000D01*
X32500000Y11500000D01*
X32500000Y11200000D01*
X32499039Y11190245D01*
X32496194Y11180866D01*
X32491573Y11172221D01*
X32485355Y11164645D01*
X32477779Y11158427D01*
X32469134Y11153806D01*
X32459755Y11150961D01*
X32450000Y11150000D01*
X30950000Y11150000D01*
X30940245Y11150961D01*
G37*
G04 #@! TD.AperFunction*
G04 #@! TA.AperFunction,SMDPad,CuDef*
G36*
X34540245Y11150961D02*
G01*
X34530866Y11153806D01*
X34522221Y11158427D01*
X34514645Y11164645D01*
X34508427Y11172221D01*
X34503806Y11180866D01*
X34500961Y11190245D01*
X34500000Y11200000D01*
X34500000Y11500000D01*
X33850000Y11500000D01*
X33840245Y11500961D01*
X33830866Y11503806D01*
X33822221Y11508427D01*
X33814645Y11514645D01*
X33808427Y11522221D01*
X33803806Y11530866D01*
X33800961Y11540245D01*
X33800000Y11550000D01*
X33800000Y12650000D01*
X33800961Y12659755D01*
X33803806Y12669134D01*
X33808427Y12677779D01*
X33814645Y12685355D01*
X33822221Y12691573D01*
X33830866Y12696194D01*
X33840245Y12699039D01*
X33850000Y12700000D01*
X34500000Y12700000D01*
X34500000Y13000000D01*
X34500961Y13009755D01*
X34503806Y13019134D01*
X34508427Y13027779D01*
X34514645Y13035355D01*
X34522221Y13041573D01*
X34530866Y13046194D01*
X34540245Y13049039D01*
X34550000Y13050000D01*
X36050000Y13050000D01*
X36059755Y13049039D01*
X36069134Y13046194D01*
X36077779Y13041573D01*
X36085355Y13035355D01*
X36091573Y13027779D01*
X36096194Y13019134D01*
X36099039Y13009755D01*
X36100000Y13000000D01*
X36100000Y11200000D01*
X36099039Y11190245D01*
X36096194Y11180866D01*
X36091573Y11172221D01*
X36085355Y11164645D01*
X36077779Y11158427D01*
X36069134Y11153806D01*
X36059755Y11150961D01*
X36050000Y11150000D01*
X34550000Y11150000D01*
X34540245Y11150961D01*
G37*
G04 #@! TD.AperFunction*
D15*
X10540000Y2500000D03*
X13080000Y2500000D03*
X15620000Y2500000D03*
X18160000Y2500000D03*
X20700000Y2500000D03*
X23240000Y2500000D03*
X25780000Y2500000D03*
X28320000Y2500000D03*
X30860000Y2500000D03*
D16*
X33400000Y2500000D03*
G04 #@! TA.AperFunction,SMDPad,CuDef*
D12*
G36*
X19459755Y53249039D02*
G01*
X19469134Y53246194D01*
X19477779Y53241573D01*
X19485355Y53235355D01*
X19491573Y53227779D01*
X19496194Y53219134D01*
X19499039Y53209755D01*
X19500000Y53200000D01*
X19500000Y51400000D01*
X19499039Y51390245D01*
X19496194Y51380866D01*
X19491573Y51372221D01*
X19485355Y51364645D01*
X19477779Y51358427D01*
X19469134Y51353806D01*
X19459755Y51350961D01*
X19450000Y51350000D01*
X17950000Y51350000D01*
X17940245Y51350961D01*
X17930866Y51353806D01*
X17922221Y51358427D01*
X17914645Y51364645D01*
X17908427Y51372221D01*
X17903806Y51380866D01*
X17900961Y51390245D01*
X17900000Y51400000D01*
X17900000Y51700000D01*
X17250000Y51700000D01*
X17240245Y51700961D01*
X17230866Y51703806D01*
X17222221Y51708427D01*
X17214645Y51714645D01*
X17208427Y51722221D01*
X17203806Y51730866D01*
X17200961Y51740245D01*
X17200000Y51750000D01*
X17200000Y52850000D01*
X17200961Y52859755D01*
X17203806Y52869134D01*
X17208427Y52877779D01*
X17214645Y52885355D01*
X17222221Y52891573D01*
X17230866Y52896194D01*
X17240245Y52899039D01*
X17250000Y52900000D01*
X17900000Y52900000D01*
X17900000Y53200000D01*
X17900961Y53209755D01*
X17903806Y53219134D01*
X17908427Y53227779D01*
X17914645Y53235355D01*
X17922221Y53241573D01*
X17930866Y53246194D01*
X17940245Y53249039D01*
X17950000Y53250000D01*
X19450000Y53250000D01*
X19459755Y53249039D01*
G37*
G04 #@! TD.AperFunction*
G04 #@! TA.AperFunction,SMDPad,CuDef*
G36*
X15859755Y53249039D02*
G01*
X15869134Y53246194D01*
X15877779Y53241573D01*
X15885355Y53235355D01*
X15891573Y53227779D01*
X15896194Y53219134D01*
X15899039Y53209755D01*
X15900000Y53200000D01*
X15900000Y52900000D01*
X16550000Y52900000D01*
X16559755Y52899039D01*
X16569134Y52896194D01*
X16577779Y52891573D01*
X16585355Y52885355D01*
X16591573Y52877779D01*
X16596194Y52869134D01*
X16599039Y52859755D01*
X16600000Y52850000D01*
X16600000Y51750000D01*
X16599039Y51740245D01*
X16596194Y51730866D01*
X16591573Y51722221D01*
X16585355Y51714645D01*
X16577779Y51708427D01*
X16569134Y51703806D01*
X16559755Y51700961D01*
X16550000Y51700000D01*
X15900000Y51700000D01*
X15900000Y51400000D01*
X15899039Y51390245D01*
X15896194Y51380866D01*
X15891573Y51372221D01*
X15885355Y51364645D01*
X15877779Y51358427D01*
X15869134Y51353806D01*
X15859755Y51350961D01*
X15850000Y51350000D01*
X14350000Y51350000D01*
X14340245Y51350961D01*
X14330866Y51353806D01*
X14322221Y51358427D01*
X14314645Y51364645D01*
X14308427Y51372221D01*
X14303806Y51380866D01*
X14300961Y51390245D01*
X14300000Y51400000D01*
X14300000Y53200000D01*
X14300961Y53209755D01*
X14303806Y53219134D01*
X14308427Y53227779D01*
X14314645Y53235355D01*
X14322221Y53241573D01*
X14330866Y53246194D01*
X14340245Y53249039D01*
X14350000Y53250000D01*
X15850000Y53250000D01*
X15859755Y53249039D01*
G37*
G04 #@! TD.AperFunction*
G04 #@! TA.AperFunction,SMDPad,CuDef*
G36*
X19963755Y24358039D02*
G01*
X19973134Y24355194D01*
X19981779Y24350573D01*
X19989355Y24344355D01*
X19995573Y24336779D01*
X20000194Y24328134D01*
X20003039Y24318755D01*
X20004000Y24309000D01*
X20004000Y22509000D01*
X20003039Y22499245D01*
X20000194Y22489866D01*
X19995573Y22481221D01*
X19989355Y22473645D01*
X19981779Y22467427D01*
X19973134Y22462806D01*
X19963755Y22459961D01*
X19954000Y22459000D01*
X18454000Y22459000D01*
X18444245Y22459961D01*
X18434866Y22462806D01*
X18426221Y22467427D01*
X18418645Y22473645D01*
X18412427Y22481221D01*
X18407806Y22489866D01*
X18404961Y22499245D01*
X18404000Y22509000D01*
X18404000Y22809000D01*
X17754000Y22809000D01*
X17744245Y22809961D01*
X17734866Y22812806D01*
X17726221Y22817427D01*
X17718645Y22823645D01*
X17712427Y22831221D01*
X17707806Y22839866D01*
X17704961Y22849245D01*
X17704000Y22859000D01*
X17704000Y23959000D01*
X17704961Y23968755D01*
X17707806Y23978134D01*
X17712427Y23986779D01*
X17718645Y23994355D01*
X17726221Y24000573D01*
X17734866Y24005194D01*
X17744245Y24008039D01*
X17754000Y24009000D01*
X18404000Y24009000D01*
X18404000Y24309000D01*
X18404961Y24318755D01*
X18407806Y24328134D01*
X18412427Y24336779D01*
X18418645Y24344355D01*
X18426221Y24350573D01*
X18434866Y24355194D01*
X18444245Y24358039D01*
X18454000Y24359000D01*
X19954000Y24359000D01*
X19963755Y24358039D01*
G37*
G04 #@! TD.AperFunction*
G04 #@! TA.AperFunction,SMDPad,CuDef*
G36*
X16363755Y24358039D02*
G01*
X16373134Y24355194D01*
X16381779Y24350573D01*
X16389355Y24344355D01*
X16395573Y24336779D01*
X16400194Y24328134D01*
X16403039Y24318755D01*
X16404000Y24309000D01*
X16404000Y24009000D01*
X17054000Y24009000D01*
X17063755Y24008039D01*
X17073134Y24005194D01*
X17081779Y24000573D01*
X17089355Y23994355D01*
X17095573Y23986779D01*
X17100194Y23978134D01*
X17103039Y23968755D01*
X17104000Y23959000D01*
X17104000Y22859000D01*
X17103039Y22849245D01*
X17100194Y22839866D01*
X17095573Y22831221D01*
X17089355Y22823645D01*
X17081779Y22817427D01*
X17073134Y22812806D01*
X17063755Y22809961D01*
X17054000Y22809000D01*
X16404000Y22809000D01*
X16404000Y22509000D01*
X16403039Y22499245D01*
X16400194Y22489866D01*
X16395573Y22481221D01*
X16389355Y22473645D01*
X16381779Y22467427D01*
X16373134Y22462806D01*
X16363755Y22459961D01*
X16354000Y22459000D01*
X14854000Y22459000D01*
X14844245Y22459961D01*
X14834866Y22462806D01*
X14826221Y22467427D01*
X14818645Y22473645D01*
X14812427Y22481221D01*
X14807806Y22489866D01*
X14804961Y22499245D01*
X14804000Y22509000D01*
X14804000Y24309000D01*
X14804961Y24318755D01*
X14807806Y24328134D01*
X14812427Y24336779D01*
X14818645Y24344355D01*
X14826221Y24350573D01*
X14834866Y24355194D01*
X14844245Y24358039D01*
X14854000Y24359000D01*
X16354000Y24359000D01*
X16363755Y24358039D01*
G37*
G04 #@! TD.AperFunction*
D17*
X91440000Y61060000D03*
D18*
X50926000Y21790000D03*
X16900000Y49700000D03*
X53720000Y16456000D03*
X14858000Y21536000D03*
X13100000Y52000000D03*
X36064111Y38981252D03*
X42000000Y6000000D03*
X57545990Y10300000D03*
X63626000Y6550000D03*
X69722000Y6042000D03*
X73278000Y6042000D03*
X71700000Y4400000D03*
X74040000Y5017998D03*
X79120000Y4264000D03*
X90300000Y9700000D03*
X48408478Y14281076D03*
X53496865Y13698063D03*
X65000000Y10400000D03*
X59600000Y10900000D03*
X85116834Y10183166D03*
X77900000Y10400000D03*
X47640000Y29560000D03*
X25000000Y11800000D03*
X48765015Y20734985D03*
D19*
X34000000Y45008000D02*
X34000000Y43500000D01*
X34000000Y45798000D02*
X34000000Y45008000D01*
X40002000Y51800000D02*
X34000000Y45798000D01*
X41110000Y51800000D02*
X40002000Y51800000D01*
X10699000Y2581000D02*
X10800000Y2581000D01*
X11990000Y14519000D02*
X11990000Y14096000D01*
X9491999Y3788001D02*
X10699000Y2581000D01*
X9200000Y11306000D02*
X9200000Y8900000D01*
X9200000Y8900000D02*
X9491999Y8608001D01*
X11990000Y14096000D02*
X9200000Y11306000D01*
X9491999Y8608001D02*
X9491999Y3788001D01*
X30000000Y7918000D02*
X32152000Y5766000D01*
X30000000Y12900000D02*
X30000000Y7918000D01*
X32152000Y5766000D02*
X33400000Y5766000D01*
X34000000Y14519000D02*
X31619000Y14519000D01*
X31619000Y14519000D02*
X30000000Y12900000D01*
X12000000Y45817202D02*
X15882798Y49700000D01*
X12000000Y43500000D02*
X12000000Y45817202D01*
X15882798Y49700000D02*
X16900000Y49700000D01*
X17990000Y18019000D02*
X16990000Y18019000D01*
X19204000Y23409000D02*
X19176000Y23381000D01*
X19176000Y19205000D02*
X17990000Y18019000D01*
X19176000Y23381000D02*
X19176000Y19205000D01*
X14858000Y22663000D02*
X15604000Y23409000D01*
X14858000Y21536000D02*
X14858000Y22663000D01*
X43650000Y51800000D02*
X43650000Y47832798D01*
X43650000Y47832798D02*
X39317202Y43500000D01*
X39317202Y43500000D02*
X39000000Y43500000D01*
X14800000Y52000000D02*
X15100000Y52300000D01*
X13100000Y52000000D02*
X14800000Y52000000D01*
X18700000Y48700000D02*
X17000000Y47000000D01*
X18700000Y52300000D02*
X18700000Y48700000D01*
X74670445Y15700000D02*
X74217922Y15700000D01*
X67463078Y18019000D02*
X61000000Y18019000D01*
X80492000Y18019000D02*
X79135012Y16662012D01*
X74217922Y15700000D02*
X74113921Y15595999D01*
X74837988Y16156468D02*
X74837988Y15867543D01*
X83000000Y18019000D02*
X80492000Y18019000D01*
X74113921Y15595999D02*
X69886079Y15595999D01*
X74837988Y15867543D02*
X74670445Y15700000D01*
X75343531Y16662011D02*
X74837988Y16156468D01*
X69886079Y15595999D02*
X67463078Y18019000D01*
X79135012Y16662012D02*
X75343531Y16662011D01*
X36064111Y39405516D02*
X36064111Y38981252D01*
X39000000Y43500000D02*
X38000000Y43500000D01*
X36064111Y41564111D02*
X36064111Y39405516D01*
X38000000Y43500000D02*
X36064111Y41564111D01*
X61000000Y14500000D02*
X61000000Y15800000D01*
X54176000Y16000000D02*
X53720000Y16456000D01*
X58600000Y16000000D02*
X54176000Y16000000D01*
X61000000Y15800000D02*
X58800000Y15800000D01*
X58800000Y15800000D02*
X58600000Y16000000D01*
X61200000Y16000000D02*
X61000000Y15800000D01*
X68317202Y16000000D02*
X61200000Y16000000D01*
X69200000Y15100000D02*
X69200000Y15117202D01*
X69508011Y14791989D02*
X69200000Y15100000D01*
X74763713Y14791989D02*
X69508011Y14791989D01*
X81564999Y15954001D02*
X75636799Y15954001D01*
X69200000Y15117202D02*
X68317202Y16000000D01*
X75545999Y15863201D02*
X75545999Y15574275D01*
X83000000Y14519000D02*
X81564999Y15954001D01*
X75636799Y15954001D02*
X75545999Y15863201D01*
X75545999Y15574275D02*
X74763713Y14791989D01*
X42000000Y7254000D02*
X42798000Y8052000D01*
X42000000Y6000000D02*
X42000000Y7254000D01*
X15880000Y2981000D02*
X15880000Y2581000D01*
X13086000Y10201000D02*
X13086000Y5775000D01*
X13086000Y5775000D02*
X15880000Y2981000D01*
X56000000Y5600000D02*
X57545990Y7145990D01*
X57545990Y7145990D02*
X57545990Y10300000D01*
X64576000Y5600000D02*
X63626000Y6550000D01*
X65000000Y5600000D02*
X64576000Y5600000D01*
X18420000Y4089000D02*
X18420000Y2581000D01*
X19600000Y5269000D02*
X18420000Y4089000D01*
X19126202Y8200000D02*
X19600000Y7726202D01*
X15626000Y10201000D02*
X15779000Y10201000D01*
X15779000Y10201000D02*
X17780000Y8200000D01*
X19600000Y7726202D02*
X19600000Y5269000D01*
X17780000Y8200000D02*
X19126202Y8200000D01*
X20960000Y7407000D02*
X18166000Y10201000D01*
X20960000Y2581000D02*
X20960000Y7407000D01*
X68442000Y6042000D02*
X68000000Y5600000D01*
X69722000Y6042000D02*
X68442000Y6042000D01*
X23500000Y4089000D02*
X23500000Y2581000D01*
X20706000Y8693000D02*
X23500000Y5899000D01*
X20706000Y10201000D02*
X20706000Y8693000D01*
X23500000Y5899000D02*
X23500000Y4089000D01*
X73278000Y6042000D02*
X73278000Y5897242D01*
X71530746Y5607000D02*
X71959253Y5178493D01*
X71959253Y5178493D02*
X72259252Y4878494D01*
X73278000Y5897242D02*
X72259252Y4878494D01*
X71506000Y5607000D02*
X71530746Y5607000D01*
X71700000Y5413000D02*
X71506000Y5607000D01*
X71700000Y4400000D02*
X71700000Y5413000D01*
X74629002Y5607000D02*
X74040000Y5017998D01*
X76000000Y5607000D02*
X74629002Y5607000D01*
X23246000Y8693000D02*
X23246000Y10201000D01*
X26040000Y5899000D02*
X23246000Y8693000D01*
X26040000Y2581000D02*
X26040000Y5899000D01*
X79120000Y4264000D02*
X79120000Y5480000D01*
X25786000Y8693000D02*
X28580000Y5899000D01*
X28580000Y5899000D02*
X28580000Y4089000D01*
X28580000Y4089000D02*
X28580000Y2581000D01*
X25786000Y10201000D02*
X25786000Y8693000D01*
X79000000Y5600000D02*
X79120000Y5480000D01*
X77900000Y5600000D02*
X79000000Y5600000D01*
X31555279Y15954001D02*
X33955280Y15954002D01*
X34028278Y16027000D02*
X41492000Y16027000D01*
X41492000Y16027000D02*
X43000000Y14519000D01*
X33955280Y15954002D02*
X34028278Y16027000D01*
X43000000Y14519000D02*
X44000000Y14519000D01*
X26552277Y10950999D02*
X31555279Y15954001D01*
X26535999Y10950999D02*
X26552277Y10950999D01*
X25786000Y10201000D02*
X26535999Y10950999D01*
X89807000Y9207000D02*
X90300000Y9700000D01*
X87762000Y9207000D02*
X89807000Y9207000D01*
X90400000Y11600000D02*
X90000000Y12000000D01*
X90300000Y9700000D02*
X90400000Y11600000D01*
X33384000Y9382000D02*
X33400000Y9366000D01*
X31700000Y12100000D02*
X33384000Y9382000D01*
X43030000Y11884000D02*
X42798000Y11652000D01*
X45084000Y11884000D02*
X43030000Y11884000D01*
X35800000Y11600000D02*
X35300000Y12100000D01*
X37545999Y11552079D02*
X37545999Y11600000D01*
X42566000Y11652000D02*
X42314000Y11400000D01*
X37545999Y11600000D02*
X35800000Y11600000D01*
X42314000Y11400000D02*
X40301922Y11400000D01*
X38302079Y10795999D02*
X37545999Y11552079D01*
X40301922Y11400000D02*
X39697921Y10795999D01*
X42798000Y11652000D02*
X42566000Y11652000D01*
X39697921Y10795999D02*
X38302079Y10795999D01*
X48684000Y14005554D02*
X48408478Y14281076D01*
X48684000Y11884000D02*
X48684000Y14005554D01*
X56000000Y9200000D02*
X53496865Y11703135D01*
X53496865Y11703135D02*
X53496865Y13698063D01*
X53693730Y11900000D02*
X54700000Y11900000D01*
X53496865Y11703135D02*
X53693730Y11900000D01*
X58300000Y10300000D02*
X59200000Y9400000D01*
X58300000Y11900000D02*
X58300000Y10300000D01*
X65000000Y9200000D02*
X65000000Y10400000D01*
X59300000Y10900000D02*
X58300000Y11900000D01*
X59600000Y10900000D02*
X59300000Y10900000D01*
X64162000Y11471000D02*
X66404000Y11471000D01*
X68000000Y9875000D02*
X66404000Y11471000D01*
X68000000Y9200000D02*
X68000000Y9875000D01*
X64162000Y10762000D02*
X62800000Y9400000D01*
X64162000Y11471000D02*
X64162000Y10762000D01*
X70004000Y11471000D02*
X71992000Y11471000D01*
X71992000Y9693000D02*
X71506000Y9207000D01*
X71992000Y11471000D02*
X71992000Y9693000D01*
X75592000Y9615000D02*
X76000000Y9207000D01*
X75592000Y11471000D02*
X75592000Y9615000D01*
X78300000Y11500000D02*
X77800000Y11500000D01*
X80600000Y9600000D02*
X78300000Y11500000D01*
X75592000Y11471000D02*
X77800000Y11500000D01*
X77800000Y11500000D02*
X77580000Y11471000D01*
X85971000Y12000000D02*
X84200000Y9600000D01*
X86400000Y12000000D02*
X85971000Y12000000D01*
X84200000Y9900000D02*
X85000000Y9900000D01*
X85000000Y9900000D02*
X85116834Y10016834D01*
X85116834Y10016834D02*
X85116834Y10183166D01*
X77900000Y10400000D02*
X77900000Y9200000D01*
X13000000Y14500000D02*
X12000000Y14500000D01*
X14508000Y16008000D02*
X13000000Y14500000D01*
X19454001Y16636799D02*
X18825202Y16008000D01*
X18825202Y16008000D02*
X14508000Y16008000D01*
X38540000Y23260000D02*
X37395999Y24404001D01*
X41050000Y23260000D02*
X38540000Y23260000D01*
X37395999Y24404001D02*
X25886079Y24404001D01*
X25886079Y24404001D02*
X19454001Y17971923D01*
X19454001Y17971923D02*
X19454001Y16636799D01*
X41050000Y22002000D02*
X41609004Y21442996D01*
X50501736Y21790000D02*
X50926000Y21790000D01*
X41609004Y21442996D02*
X47822996Y21442996D01*
X48170000Y21790000D02*
X50501736Y21790000D01*
X41050000Y23260000D02*
X41050000Y22002000D01*
X47822996Y21442996D02*
X48170000Y21790000D01*
X88317202Y47000000D02*
X90454001Y44863201D01*
X83000000Y47000000D02*
X88317202Y47000000D01*
X85360000Y29560000D02*
X48064264Y29560000D01*
X90454001Y34654001D02*
X85360000Y29560000D01*
X90454001Y44863201D02*
X90454001Y34654001D01*
X48064264Y29560000D02*
X47640000Y29560000D01*
X86962000Y6407000D02*
X87762000Y5607000D01*
X85395999Y7973001D02*
X86962000Y6407000D01*
X80636799Y7973001D02*
X85395999Y7973001D01*
X32701000Y600000D02*
X47882078Y600000D01*
X28326000Y8068000D02*
X31120000Y5274000D01*
X31120000Y5274000D02*
X31120000Y2181000D01*
X51680000Y600000D02*
X77243942Y600000D01*
X28326000Y10201000D02*
X28326000Y8068000D01*
X47882078Y600000D02*
X47978068Y504010D01*
X80545999Y3902057D02*
X80545999Y7882201D01*
X47978068Y504010D02*
X51584010Y504010D01*
X80545999Y7882201D02*
X80636799Y7973001D01*
X51584010Y504010D02*
X51680000Y600000D01*
X31120000Y2181000D02*
X32701000Y600000D01*
X77243942Y600000D02*
X80545999Y3902057D01*
X34768000Y2581000D02*
X33660000Y2581000D01*
X40981000Y2581000D02*
X34768000Y2581000D01*
X48171979Y9771979D02*
X40981000Y2581000D01*
X53068078Y24360000D02*
X53172079Y24464001D01*
X53172079Y24464001D02*
X54327921Y24464001D01*
X51787921Y24464001D02*
X51891922Y24360000D01*
X51891922Y24360000D02*
X53068078Y24360000D01*
X47230000Y24360000D02*
X47988078Y24360000D01*
X50528078Y24360000D02*
X50632079Y24464001D01*
X49351922Y24360000D02*
X50528078Y24360000D01*
X50632079Y24464001D02*
X51787921Y24464001D01*
X46130000Y23260000D02*
X47230000Y24360000D01*
X49247921Y24464001D02*
X49351922Y24360000D01*
X50646021Y12246021D02*
X50646021Y10481965D01*
X47988078Y24360000D02*
X48092079Y24464001D01*
X48092079Y24464001D02*
X49247921Y24464001D01*
X54327921Y24464001D02*
X54954001Y23837921D01*
X54954001Y23837921D02*
X54954001Y22976675D01*
X54954001Y22976675D02*
X54958807Y22969928D01*
X51299758Y19854163D02*
X51180000Y19734405D01*
X54958807Y22969928D02*
X54861642Y22391497D01*
X50646021Y10481965D02*
X49936035Y9771979D01*
X54861642Y22391497D02*
X51299758Y19854163D01*
X51180000Y19734405D02*
X51180000Y12780000D01*
X51180000Y12780000D02*
X50646021Y12246021D01*
X49936035Y9771979D02*
X48171979Y9771979D01*
X20530000Y31300000D02*
X20530000Y31700000D01*
X21638000Y30192000D02*
X20530000Y31300000D01*
X33612595Y30192000D02*
X21638000Y30192000D01*
X41656468Y33337988D02*
X36758583Y33337988D01*
X42162011Y33843531D02*
X41656468Y33337988D01*
X42162012Y34151457D02*
X42162011Y33843531D01*
X42410555Y34400000D02*
X42162012Y34151457D01*
X45595999Y34400000D02*
X42410555Y34400000D01*
X45595999Y36113921D02*
X45595999Y34400000D01*
X52113921Y38404001D02*
X47886079Y38404001D01*
X54404001Y36113921D02*
X52113921Y38404001D01*
X47886079Y38404001D02*
X45595999Y36113921D01*
X57837988Y34400000D02*
X54404001Y34400000D01*
X80636799Y34045999D02*
X80545999Y34136799D01*
X64162012Y34400000D02*
X64162011Y33843531D01*
X63656468Y33337988D02*
X58343531Y33337989D01*
X36758583Y33337988D02*
X33612595Y30192000D01*
X85717202Y34400000D02*
X85454001Y34400000D01*
X88000000Y43500000D02*
X88000000Y36682798D01*
X88000000Y36682798D02*
X85717202Y34400000D01*
X85454001Y34400000D02*
X85454001Y34136799D01*
X85454001Y34136799D02*
X85363201Y34045999D01*
X85363201Y34045999D02*
X80636799Y34045999D01*
X80545999Y34136799D02*
X80545999Y34400000D01*
X80545999Y34400000D02*
X64162012Y34400000D01*
X64162011Y33843531D02*
X63656468Y33337988D01*
X58343531Y33337989D02*
X57837988Y33843532D01*
X57837988Y33843532D02*
X57837988Y34400000D01*
X54404001Y34400000D02*
X54404001Y36113921D01*
X58636799Y34045999D02*
X58545999Y34136799D01*
X17990000Y32100000D02*
X17990000Y31700000D01*
X41454001Y34136799D02*
X41363201Y34045999D01*
X46121289Y39112012D02*
X41454001Y34444724D01*
X63492000Y43500000D02*
X63454001Y43462001D01*
X35919317Y33500000D02*
X26701873Y33500000D01*
X26701873Y33500000D02*
X26409873Y33208000D01*
X26409873Y33208000D02*
X19098000Y33208000D01*
X19098000Y33208000D02*
X17990000Y32100000D01*
X55941998Y39112012D02*
X46121289Y39112012D01*
X63363201Y34045999D02*
X58636799Y34045999D01*
X66000000Y43500000D02*
X63492000Y43500000D01*
X41363201Y34045999D02*
X36465316Y34045999D01*
X58545999Y34136799D02*
X58545999Y36508011D01*
X36465316Y34045999D02*
X35919317Y33500000D01*
X63454001Y43462001D02*
X63454001Y34136799D01*
X41454001Y34444724D02*
X41454001Y34136799D01*
X58545999Y36508011D02*
X55941998Y39112012D01*
X63454001Y34136799D02*
X63363201Y34045999D01*
X15450000Y33208000D02*
X15450000Y31700000D01*
X16287999Y34045999D02*
X15450000Y33208000D01*
X19363201Y34045999D02*
X16287999Y34045999D01*
X44000000Y41992000D02*
X38962001Y36954001D01*
X44000000Y43500000D02*
X44000000Y41992000D01*
X38962001Y36954001D02*
X22271203Y36954001D01*
X22271203Y36954001D02*
X19363201Y34045999D01*
X12910000Y37639340D02*
X12910000Y33208000D01*
X13310000Y38039340D02*
X12910000Y37639340D01*
X12910000Y33208000D02*
X12910000Y31700000D01*
X13310000Y39100000D02*
X13310000Y38039340D01*
X14059999Y39849999D02*
X13310000Y39100000D01*
X14454001Y40244001D02*
X14059999Y39849999D01*
X14454001Y44771203D02*
X14454001Y40244001D01*
X14636799Y44954001D02*
X14454001Y44771203D01*
X19545999Y44954001D02*
X14636799Y44954001D01*
X21000000Y43500000D02*
X19545999Y44954001D01*
X22000000Y43500000D02*
X21000000Y43500000D01*
X10370000Y31300000D02*
X10370000Y31700000D01*
X24454001Y42136799D02*
X24363201Y42045999D01*
X13964010Y36281212D02*
X13964010Y30863415D01*
X11478000Y30192000D02*
X10370000Y31300000D01*
X24363201Y42045999D02*
X20715999Y42045999D01*
X17234596Y36954001D02*
X14636799Y36954001D01*
X20715999Y42045999D02*
X19044010Y40374010D01*
X18176594Y37895999D02*
X17234596Y36954001D01*
X19044010Y40374010D02*
X19044010Y40227912D01*
X19044010Y40227912D02*
X19594001Y39677921D01*
X19594001Y39677921D02*
X19594001Y38522079D01*
X19594001Y38522079D02*
X18967921Y37895999D01*
X18967921Y37895999D02*
X18176594Y37895999D01*
X14636799Y36954001D02*
X13964010Y36281212D01*
X13964010Y30863415D02*
X13292595Y30192000D01*
X13292595Y30192000D02*
X11478000Y30192000D01*
X45440001Y52549999D02*
X46190000Y51800000D01*
X44985999Y53004001D02*
X45440001Y52549999D01*
X39686799Y53004001D02*
X44985999Y53004001D01*
X28728797Y42045999D02*
X39686799Y53004001D01*
X24363201Y42045999D02*
X28728797Y42045999D01*
X26400000Y11800000D02*
X31262012Y16662012D01*
X25000000Y11800000D02*
X26400000Y11800000D01*
X33662012Y16662012D02*
X37434986Y20434986D01*
X37434986Y20434986D02*
X48465016Y20434986D01*
X31262012Y16662012D02*
X33662012Y16662012D01*
X48465016Y20434986D02*
X48765015Y20734985D01*
X42354777Y5245999D02*
X47588768Y10479990D01*
X40273001Y5245999D02*
X42354777Y5245999D01*
X50171999Y19920077D02*
X54211999Y22798001D01*
X54211999Y22798001D02*
X53750000Y23260000D01*
X39000000Y6519000D02*
X40273001Y5245999D01*
X47588768Y10479990D02*
X49642768Y10479990D01*
X49938010Y19686088D02*
X50171999Y19920077D01*
X49938010Y10775232D02*
X49938010Y19686088D01*
X49642768Y10479990D02*
X49938010Y10775232D01*
X61000000Y5011000D02*
X61000000Y6519000D01*
X52249990Y9250010D02*
X54595990Y6904010D01*
X52249990Y16101912D02*
X52249990Y9250010D01*
X54595990Y6904010D02*
X54595990Y4641232D01*
X56290000Y23260000D02*
X54742000Y18593922D01*
X54891232Y4345990D02*
X57108768Y4345990D01*
X54742000Y18593922D02*
X52249990Y16101912D01*
X54595990Y4641232D02*
X54891232Y4345990D01*
X57131389Y4368611D02*
X57154010Y4345990D01*
X57108768Y4345990D02*
X57131389Y4368611D01*
X57154010Y4345990D02*
X60334990Y4345990D01*
X60334990Y4345990D02*
X61000000Y5011000D01*
X58390000Y22647000D02*
X58830000Y23260000D01*
X91312000Y6794222D02*
X91312000Y15024202D01*
X91312000Y15024202D02*
X82136202Y24200000D01*
X86653232Y4352990D02*
X88870768Y4352990D01*
X69886079Y24404001D02*
X69682078Y24200000D01*
X88870768Y4352990D02*
X91312000Y6794222D01*
X74113921Y24404001D02*
X69886079Y24404001D01*
X83000000Y6519000D02*
X84487222Y6519000D01*
X82136202Y24200000D02*
X74317922Y24200000D01*
X84487222Y6519000D02*
X86653232Y4352990D01*
X74317922Y24200000D02*
X74113921Y24404001D01*
X59943000Y24200000D02*
X58390000Y22647000D01*
X69682078Y24200000D02*
X59943000Y24200000D01*
X19508000Y35500000D02*
X17000000Y35500000D01*
X21670012Y37662012D02*
X19508000Y35500000D01*
X41545999Y41345999D02*
X37862012Y37662012D01*
X51270000Y51800000D02*
X51270000Y50292000D01*
X45932001Y44954001D02*
X41772481Y44954001D01*
X41772481Y44954001D02*
X41545999Y44727519D01*
X37862012Y37662012D02*
X21670012Y37662012D01*
X51270000Y50292000D02*
X45932001Y44954001D01*
X41545999Y44727519D02*
X41545999Y41345999D01*
X41508000Y35500000D02*
X39000000Y35500000D01*
X53810000Y47802000D02*
X41508000Y35500000D01*
X53810000Y51800000D02*
X53810000Y47802000D01*
X61000000Y37008000D02*
X61000000Y35500000D01*
X58545999Y48096001D02*
X58545999Y39462001D01*
X58545999Y39462001D02*
X61000000Y37008000D01*
X56350000Y50292000D02*
X58545999Y48096001D01*
X56350000Y51800000D02*
X56350000Y50292000D01*
X61517202Y51800000D02*
X77817202Y35500000D01*
X80492000Y35500000D02*
X83000000Y35500000D01*
X77817202Y35500000D02*
X80492000Y35500000D01*
X58890000Y51800000D02*
X61517202Y51800000D01*
X56306000Y68189000D02*
X56306000Y60569000D01*
X53766000Y61629660D02*
X53766000Y68189000D01*
X53766000Y60569000D02*
X53766000Y61629660D01*
X51226000Y66681000D02*
X51226000Y60569000D01*
X51226000Y68189000D02*
X51226000Y66681000D01*
X48686000Y60569000D02*
X48686000Y68189000D01*
X46146000Y66681000D02*
X46146000Y60569000D01*
X46146000Y68189000D02*
X46146000Y66681000D01*
X43606000Y61629660D02*
X43606000Y68189000D01*
X43606000Y60569000D02*
X43606000Y61629660D01*
X56306000Y75809000D02*
X56306000Y70729000D01*
X53766000Y73006000D02*
X53766000Y75809000D01*
X53766000Y70729000D02*
X53766000Y72874000D01*
X53700000Y72940000D02*
X53766000Y73006000D01*
X53766000Y72874000D02*
X53700000Y72940000D01*
X51226000Y72237000D02*
X51226000Y75809000D01*
X51226000Y70729000D02*
X51226000Y72237000D01*
X48686000Y75809000D02*
X48686000Y70729000D01*
X46146000Y72237000D02*
X46146000Y75809000D01*
X46146000Y70729000D02*
X46146000Y72237000D01*
X43606000Y72237000D02*
X43606000Y75809000D01*
X43606000Y70729000D02*
X43606000Y72237000D01*
M02*
