G04 #@! TF.GenerationSoftware,KiCad,Pcbnew,(5.1.5)-3*
G04 #@! TF.CreationDate,2020-12-08T17:30:17-08:00*
G04 #@! TF.ProjectId,button_pcb_4x_laz16-11_,62757474-6f6e-45f7-9063-625f34785f6c,rev?*
G04 #@! TF.SameCoordinates,Original*
G04 #@! TF.FileFunction,Legend,Bot*
G04 #@! TF.FilePolarity,Positive*
%FSLAX46Y46*%
G04 Gerber Fmt 4.6, Leading zero omitted, Abs format (unit mm)*
G04 Created by KiCad (PCBNEW (5.1.5)-3) date 2020-12-08 17:30:17*
%MOMM*%
%LPD*%
G04 APERTURE LIST*
%ADD10C,0.150000*%
%ADD11C,0.200000*%
%ADD12C,0.120000*%
%ADD13C,4.300000*%
%ADD14C,6.400000*%
%ADD15C,5.300000*%
%ADD16C,2.700000*%
%ADD17C,2.200000*%
%ADD18C,3.200000*%
%ADD19C,2.000000*%
%ADD20R,4.000000X2.000000*%
%ADD21C,1.500000*%
%ADD22R,1.500000X1.500000*%
%ADD23O,1.200000X2.000000*%
%ADD24R,1.200000X2.000000*%
G04 APERTURE END LIST*
D10*
X10640000Y33960000D02*
X10140000Y33460000D01*
X9640000Y33960000D02*
X10140000Y33460000D01*
X10140000Y33460000D02*
X9640000Y33960000D01*
X9640000Y35960000D02*
X10140000Y33460000D01*
X31640000Y3960000D02*
X32140000Y3960000D01*
X32140000Y4460000D02*
X32140000Y3960000D01*
X32140000Y3960000D02*
X32140000Y4460000D01*
X31140000Y4960000D02*
X32140000Y3960000D01*
X57319047Y66711428D02*
X56985714Y66711428D01*
X56842857Y66187619D02*
X57319047Y66187619D01*
X57319047Y67187619D01*
X56842857Y67187619D01*
X54890476Y66187619D02*
X54890476Y67187619D01*
X54652380Y67187619D01*
X54509523Y67140000D01*
X54414285Y67044761D01*
X54366666Y66949523D01*
X54319047Y66759047D01*
X54319047Y66616190D01*
X54366666Y66425714D01*
X54414285Y66330476D01*
X54509523Y66235238D01*
X54652380Y66187619D01*
X54890476Y66187619D01*
X52366666Y66187619D02*
X52366666Y67187619D01*
X52128571Y67187619D01*
X51985714Y67140000D01*
X51890476Y67044761D01*
X51842857Y66949523D01*
X51795238Y66759047D01*
X51795238Y66616190D01*
X51842857Y66425714D01*
X51890476Y66330476D01*
X51985714Y66235238D01*
X52128571Y66187619D01*
X52366666Y66187619D01*
X51366666Y66187619D02*
X51366666Y67187619D01*
X50985714Y67187619D01*
X50890476Y67140000D01*
X50842857Y67092380D01*
X50795238Y66997142D01*
X50795238Y66854285D01*
X50842857Y66759047D01*
X50890476Y66711428D01*
X50985714Y66663809D01*
X51366666Y66663809D01*
X49033333Y66282857D02*
X49080952Y66235238D01*
X49223809Y66187619D01*
X49319047Y66187619D01*
X49461904Y66235238D01*
X49557142Y66330476D01*
X49604761Y66425714D01*
X49652380Y66616190D01*
X49652380Y66759047D01*
X49604761Y66949523D01*
X49557142Y67044761D01*
X49461904Y67140000D01*
X49319047Y67187619D01*
X49223809Y67187619D01*
X49080952Y67140000D01*
X49033333Y67092380D01*
X46557142Y67140000D02*
X46652380Y67187619D01*
X46795238Y67187619D01*
X46938095Y67140000D01*
X47033333Y67044761D01*
X47080952Y66949523D01*
X47128571Y66759047D01*
X47128571Y66616190D01*
X47080952Y66425714D01*
X47033333Y66330476D01*
X46938095Y66235238D01*
X46795238Y66187619D01*
X46700000Y66187619D01*
X46557142Y66235238D01*
X46509523Y66282857D01*
X46509523Y66616190D01*
X46700000Y66616190D01*
X45319047Y66187619D02*
X45319047Y67187619D01*
X45080952Y67187619D01*
X44938095Y67140000D01*
X44842857Y67044761D01*
X44795238Y66949523D01*
X44747619Y66759047D01*
X44747619Y66616190D01*
X44795238Y66425714D01*
X44842857Y66330476D01*
X44938095Y66235238D01*
X45080952Y66187619D01*
X45319047Y66187619D01*
X43890476Y66854285D02*
X43890476Y66187619D01*
X44128571Y67235238D02*
X44366666Y66520952D01*
X43747619Y66520952D01*
D11*
X57095238Y72387619D02*
X57095238Y73387619D01*
X56857142Y73387619D01*
X56714285Y73340000D01*
X56619047Y73244761D01*
X56571428Y73149523D01*
X56523809Y72959047D01*
X56523809Y72816190D01*
X56571428Y72625714D01*
X56619047Y72530476D01*
X56714285Y72435238D01*
X56857142Y72387619D01*
X57095238Y72387619D01*
X55571428Y72387619D02*
X56142857Y72387619D01*
X55857142Y72387619D02*
X55857142Y73387619D01*
X55952380Y73244761D01*
X56047619Y73149523D01*
X56142857Y73101904D01*
X54428571Y72673333D02*
X53952380Y72673333D01*
X54523809Y72387619D02*
X54190476Y73387619D01*
X53857142Y72387619D01*
X50904761Y72911428D02*
X51238095Y72911428D01*
X51238095Y72387619D02*
X51238095Y73387619D01*
X50761904Y73387619D01*
X48857142Y72387619D02*
X48857142Y73387619D01*
X48619047Y73387619D01*
X48476190Y73340000D01*
X48380952Y73244761D01*
X48333333Y73149523D01*
X48285714Y72959047D01*
X48285714Y72816190D01*
X48333333Y72625714D01*
X48380952Y72530476D01*
X48476190Y72435238D01*
X48619047Y72387619D01*
X48857142Y72387619D01*
X47904761Y73292380D02*
X47857142Y73340000D01*
X47761904Y73387619D01*
X47523809Y73387619D01*
X47428571Y73340000D01*
X47380952Y73292380D01*
X47333333Y73197142D01*
X47333333Y73101904D01*
X47380952Y72959047D01*
X47952380Y72387619D01*
X47333333Y72387619D01*
X46142857Y72387619D02*
X46142857Y73387619D01*
X45904761Y73387619D01*
X45761904Y73340000D01*
X45666666Y73244761D01*
X45619047Y73149523D01*
X45571428Y72959047D01*
X45571428Y72816190D01*
X45619047Y72625714D01*
X45666666Y72530476D01*
X45761904Y72435238D01*
X45904761Y72387619D01*
X46142857Y72387619D01*
X45238095Y73387619D02*
X44619047Y73387619D01*
X44952380Y73006666D01*
X44809523Y73006666D01*
X44714285Y72959047D01*
X44666666Y72911428D01*
X44619047Y72816190D01*
X44619047Y72578095D01*
X44666666Y72482857D01*
X44714285Y72435238D01*
X44809523Y72387619D01*
X45095238Y72387619D01*
X45190476Y72435238D01*
X45238095Y72482857D01*
X43095238Y72911428D02*
X42952380Y72863809D01*
X42904761Y72816190D01*
X42857142Y72720952D01*
X42857142Y72578095D01*
X42904761Y72482857D01*
X42952380Y72435238D01*
X43047619Y72387619D01*
X43428571Y72387619D01*
X43428571Y73387619D01*
X43095238Y73387619D01*
X43000000Y73340000D01*
X42952380Y73292380D01*
X42904761Y73197142D01*
X42904761Y73101904D01*
X42952380Y73006666D01*
X43000000Y72959047D01*
X43095238Y72911428D01*
X43428571Y72911428D01*
D12*
X42420000Y67030000D02*
X42420000Y70030000D01*
X40050000Y70030000D02*
X40050000Y67030000D01*
X60030000Y70030000D02*
X40050000Y70030000D01*
X60030000Y67030000D02*
X60030000Y70030000D01*
X40050000Y67030000D02*
X60030000Y67030000D01*
X42420000Y69570000D02*
X42420000Y72570000D01*
X40050000Y72570000D02*
X40050000Y69570000D01*
X60030000Y72570000D02*
X40050000Y72570000D01*
X60030000Y69570000D02*
X60030000Y72570000D01*
X40050000Y69570000D02*
X60030000Y69570000D01*
D10*
X30401904Y61957619D02*
X30401904Y62957619D01*
X30401904Y62481428D02*
X29830476Y62481428D01*
X29830476Y61957619D02*
X29830476Y62957619D01*
X29306666Y61957619D02*
X29116190Y61957619D01*
X29020952Y62005238D01*
X28973333Y62052857D01*
X28878095Y62195714D01*
X28830476Y62386190D01*
X28830476Y62767142D01*
X28878095Y62862380D01*
X28925714Y62910000D01*
X29020952Y62957619D01*
X29211428Y62957619D01*
X29306666Y62910000D01*
X29354285Y62862380D01*
X29401904Y62767142D01*
X29401904Y62529047D01*
X29354285Y62433809D01*
X29306666Y62386190D01*
X29211428Y62338571D01*
X29020952Y62338571D01*
X28925714Y62386190D01*
X28878095Y62433809D01*
X28830476Y62529047D01*
X50801904Y71577619D02*
X50230476Y71577619D01*
X50516190Y70577619D02*
X50516190Y71577619D01*
X49468571Y71577619D02*
X49659047Y71577619D01*
X49754285Y71530000D01*
X49801904Y71482380D01*
X49897142Y71339523D01*
X49944761Y71149047D01*
X49944761Y70768095D01*
X49897142Y70672857D01*
X49849523Y70625238D01*
X49754285Y70577619D01*
X49563809Y70577619D01*
X49468571Y70625238D01*
X49420952Y70672857D01*
X49373333Y70768095D01*
X49373333Y71006190D01*
X49420952Y71101428D01*
X49468571Y71149047D01*
X49563809Y71196666D01*
X49754285Y71196666D01*
X49849523Y71149047D01*
X49897142Y71101428D01*
X49944761Y71006190D01*
X50801904Y74117619D02*
X50230476Y74117619D01*
X50516190Y73117619D02*
X50516190Y74117619D01*
X49420952Y74117619D02*
X49897142Y74117619D01*
X49944761Y73641428D01*
X49897142Y73689047D01*
X49801904Y73736666D01*
X49563809Y73736666D01*
X49468571Y73689047D01*
X49420952Y73641428D01*
X49373333Y73546190D01*
X49373333Y73308095D01*
X49420952Y73212857D01*
X49468571Y73165238D01*
X49563809Y73117619D01*
X49801904Y73117619D01*
X49897142Y73165238D01*
X49944761Y73212857D01*
%LPC*%
D13*
X95500000Y34500000D03*
X4500000Y34500000D03*
D14*
X93240000Y72060000D03*
D15*
X94240000Y84860000D03*
D16*
X80640000Y96860000D03*
D17*
X75140000Y97260000D03*
D18*
X87240000Y96360000D03*
D13*
X50000000Y95500000D03*
X95500000Y95500000D03*
X4500000Y95500000D03*
X95500000Y4500000D03*
X4500000Y4500000D03*
D19*
X17000000Y12250000D03*
D20*
X17000000Y6500000D03*
X17000000Y18000000D03*
X22000000Y14500000D03*
X17000000Y14500000D03*
X12000000Y14500000D03*
D13*
X70640000Y67710000D03*
X29640000Y67710000D03*
X80140000Y67710000D03*
X20140000Y67710000D03*
X72000000Y49000000D03*
X50000000Y34000000D03*
X28000000Y49000000D03*
X50000000Y5000000D03*
X28000000Y20000000D03*
X72000000Y20000000D03*
D21*
X43690000Y75740000D03*
X46230000Y75740000D03*
X48770000Y75740000D03*
X51310000Y75740000D03*
X53850000Y75740000D03*
X56390000Y75740000D03*
X56390000Y60500000D03*
X53850000Y60500000D03*
X51310000Y60500000D03*
X48770000Y60500000D03*
X46230000Y60500000D03*
D22*
X43690000Y60500000D03*
D21*
X58930000Y68530000D03*
X56390000Y68530000D03*
X53850000Y68530000D03*
X51310000Y68530000D03*
X48770000Y68530000D03*
X46230000Y68530000D03*
X43690000Y68530000D03*
D22*
X41150000Y68530000D03*
D21*
X58930000Y71070000D03*
X56390000Y71070000D03*
X53850000Y71070000D03*
X51310000Y71070000D03*
X48770000Y71070000D03*
X46230000Y71070000D03*
X43690000Y71070000D03*
D22*
X41150000Y71070000D03*
D21*
X13310000Y39100000D03*
X15850000Y39100000D03*
X18390000Y39100000D03*
X20930000Y39100000D03*
X23470000Y39100000D03*
X26010000Y39100000D03*
X28550000Y39100000D03*
D22*
X31090000Y39100000D03*
D21*
X58890000Y51800000D03*
X56350000Y51800000D03*
X53810000Y51800000D03*
X51270000Y51800000D03*
X48730000Y51800000D03*
X46190000Y51800000D03*
X43650000Y51800000D03*
D22*
X41110000Y51800000D03*
D21*
X28326000Y10201000D03*
X25786000Y10201000D03*
X23246000Y10201000D03*
X20706000Y10201000D03*
X18166000Y10201000D03*
X15626000Y10201000D03*
X13086000Y10201000D03*
D22*
X10546000Y10201000D03*
D21*
X58830000Y23260000D03*
X56290000Y23260000D03*
X53750000Y23260000D03*
X51210000Y23260000D03*
X48670000Y23260000D03*
X46130000Y23260000D03*
X43590000Y23260000D03*
D22*
X41050000Y23260000D03*
D19*
X83000000Y41250000D03*
D20*
X83000000Y35500000D03*
X83000000Y47000000D03*
X88000000Y43500000D03*
X83000000Y43500000D03*
X78000000Y43500000D03*
D19*
X61000000Y41250000D03*
D20*
X61000000Y35500000D03*
X61000000Y47000000D03*
X66000000Y43500000D03*
X61000000Y43500000D03*
X56000000Y43500000D03*
D19*
X39000000Y41250000D03*
D20*
X39000000Y35500000D03*
X39000000Y47000000D03*
X44000000Y43500000D03*
X39000000Y43500000D03*
X34000000Y43500000D03*
D19*
X17000000Y41250000D03*
D20*
X17000000Y35500000D03*
X17000000Y47000000D03*
X22000000Y43500000D03*
X17000000Y43500000D03*
X12000000Y43500000D03*
D19*
X83000000Y12250000D03*
D20*
X83000000Y6500000D03*
X83000000Y18000000D03*
X88000000Y14500000D03*
X83000000Y14500000D03*
X78000000Y14500000D03*
D19*
X61000000Y12250000D03*
D20*
X61000000Y6500000D03*
X61000000Y18000000D03*
X66000000Y14500000D03*
X61000000Y14500000D03*
X56000000Y14500000D03*
D19*
X39000000Y12250000D03*
D20*
X39000000Y6500000D03*
X39000000Y18000000D03*
X44000000Y14500000D03*
X39000000Y14500000D03*
X34000000Y14500000D03*
D23*
X33230000Y31700000D03*
X30690000Y31700000D03*
X28150000Y31700000D03*
X25610000Y31700000D03*
X23070000Y31700000D03*
X20530000Y31700000D03*
X17990000Y31700000D03*
X15450000Y31700000D03*
X12910000Y31700000D03*
D24*
X10370000Y31700000D03*
D23*
X10540000Y2500000D03*
X13080000Y2500000D03*
X15620000Y2500000D03*
X18160000Y2500000D03*
X20700000Y2500000D03*
X23240000Y2500000D03*
X25780000Y2500000D03*
X28320000Y2500000D03*
X30860000Y2500000D03*
D24*
X33400000Y2500000D03*
M02*
