G04 #@! TF.GenerationSoftware,KiCad,Pcbnew,(5.1.5)-3*
G04 #@! TF.CreationDate,2020-12-08T17:30:16-08:00*
G04 #@! TF.ProjectId,button_pcb_4x_laz16-11_,62757474-6f6e-45f7-9063-625f34785f6c,rev?*
G04 #@! TF.SameCoordinates,Original*
G04 #@! TF.FileFunction,Copper,L2,Bot*
G04 #@! TF.FilePolarity,Positive*
%FSLAX46Y46*%
G04 Gerber Fmt 4.6, Leading zero omitted, Abs format (unit mm)*
G04 Created by KiCad (PCBNEW (5.1.5)-3) date 2020-12-08 17:30:16*
%MOMM*%
%LPD*%
G04 APERTURE LIST*
%ADD10R,4.000000X2.000000*%
%ADD11C,1.500000*%
%ADD12R,1.500000X1.500000*%
%ADD13O,1.200000X2.000000*%
%ADD14R,1.200000X2.000000*%
%ADD15C,8.600000*%
%ADD16C,0.600000*%
%ADD17C,0.508000*%
G04 APERTURE END LIST*
D10*
X17000000Y6500000D03*
X17000000Y18000000D03*
X22000000Y14500000D03*
X17000000Y14500000D03*
X12000000Y14500000D03*
D11*
X43690000Y75740000D03*
X46230000Y75740000D03*
X48770000Y75740000D03*
X51310000Y75740000D03*
X53850000Y75740000D03*
X56390000Y75740000D03*
X56390000Y60500000D03*
X53850000Y60500000D03*
X51310000Y60500000D03*
X48770000Y60500000D03*
X46230000Y60500000D03*
D12*
X43690000Y60500000D03*
D11*
X58930000Y68530000D03*
X56390000Y68530000D03*
X53850000Y68530000D03*
X51310000Y68530000D03*
X48770000Y68530000D03*
X46230000Y68530000D03*
X43690000Y68530000D03*
D12*
X41150000Y68530000D03*
D11*
X58930000Y71070000D03*
X56390000Y71070000D03*
X53850000Y71070000D03*
X51310000Y71070000D03*
X48770000Y71070000D03*
X46230000Y71070000D03*
X43690000Y71070000D03*
D12*
X41150000Y71070000D03*
D11*
X13310000Y39100000D03*
X15850000Y39100000D03*
X18390000Y39100000D03*
X20930000Y39100000D03*
X23470000Y39100000D03*
X26010000Y39100000D03*
X28550000Y39100000D03*
D12*
X31090000Y39100000D03*
D11*
X58890000Y51800000D03*
X56350000Y51800000D03*
X53810000Y51800000D03*
X51270000Y51800000D03*
X48730000Y51800000D03*
X46190000Y51800000D03*
X43650000Y51800000D03*
D12*
X41110000Y51800000D03*
D11*
X28326000Y10201000D03*
X25786000Y10201000D03*
X23246000Y10201000D03*
X20706000Y10201000D03*
X18166000Y10201000D03*
X15626000Y10201000D03*
X13086000Y10201000D03*
D12*
X10546000Y10201000D03*
D11*
X58830000Y23260000D03*
X56290000Y23260000D03*
X53750000Y23260000D03*
X51210000Y23260000D03*
X48670000Y23260000D03*
X46130000Y23260000D03*
X43590000Y23260000D03*
D12*
X41050000Y23260000D03*
D10*
X83000000Y35500000D03*
X83000000Y47000000D03*
X88000000Y43500000D03*
X83000000Y43500000D03*
X78000000Y43500000D03*
X61000000Y35500000D03*
X61000000Y47000000D03*
X66000000Y43500000D03*
X61000000Y43500000D03*
X56000000Y43500000D03*
X39000000Y35500000D03*
X39000000Y47000000D03*
X44000000Y43500000D03*
X39000000Y43500000D03*
X34000000Y43500000D03*
X17000000Y35500000D03*
X17000000Y47000000D03*
X22000000Y43500000D03*
X17000000Y43500000D03*
X12000000Y43500000D03*
X83000000Y6500000D03*
X83000000Y18000000D03*
X88000000Y14500000D03*
X83000000Y14500000D03*
X78000000Y14500000D03*
X61000000Y6500000D03*
X61000000Y18000000D03*
X66000000Y14500000D03*
X61000000Y14500000D03*
X56000000Y14500000D03*
X39000000Y6500000D03*
X39000000Y18000000D03*
X44000000Y14500000D03*
X39000000Y14500000D03*
X34000000Y14500000D03*
D13*
X33230000Y31700000D03*
X30690000Y31700000D03*
X28150000Y31700000D03*
X25610000Y31700000D03*
X23070000Y31700000D03*
X20530000Y31700000D03*
X17990000Y31700000D03*
X15450000Y31700000D03*
X12910000Y31700000D03*
D14*
X10370000Y31700000D03*
D13*
X10540000Y2500000D03*
X13080000Y2500000D03*
X15620000Y2500000D03*
X18160000Y2500000D03*
X20700000Y2500000D03*
X23240000Y2500000D03*
X25780000Y2500000D03*
X28320000Y2500000D03*
X30860000Y2500000D03*
D14*
X33400000Y2500000D03*
D15*
X91440000Y61060000D03*
D16*
X50926000Y21790000D03*
X16900000Y49700000D03*
X53720000Y16456000D03*
X14858000Y21536000D03*
X13100000Y52000000D03*
X36064111Y38981252D03*
X42000000Y6000000D03*
X57545990Y10300000D03*
X63626000Y6550000D03*
X69722000Y6042000D03*
X73278000Y6042000D03*
X71700000Y4400000D03*
X74040000Y5017998D03*
X79120000Y4264000D03*
X90300000Y9700000D03*
X48408478Y14281076D03*
X53496865Y13698063D03*
X65000000Y10400000D03*
X59600000Y10900000D03*
X85116834Y10183166D03*
X77900000Y10400000D03*
X47640000Y29560000D03*
X25000000Y11800000D03*
X48765015Y20734985D03*
D17*
X33230000Y42730000D02*
X34000000Y43500000D01*
X41636799Y15954001D02*
X53131141Y15954001D01*
X41545999Y12644077D02*
X41545999Y15863201D01*
X41545999Y15863201D02*
X41636799Y15954001D01*
X51225999Y21490001D02*
X50926000Y21790000D01*
X63600000Y16801798D02*
X63600000Y19236202D01*
X54529071Y14556071D02*
X56373000Y16400000D01*
X51523010Y21192990D02*
X51225999Y21490001D01*
X38302079Y10795999D02*
X39697921Y10795999D01*
X53131141Y15954001D02*
X54529071Y14556071D01*
X39697921Y10795999D02*
X41545999Y12644077D01*
X63600000Y19236202D02*
X61643212Y21192990D01*
X35000000Y14098078D02*
X38302079Y10795999D01*
X35000000Y14519000D02*
X35000000Y14098078D01*
X56373000Y16400000D02*
X63198202Y16400000D01*
X61643212Y21192990D02*
X51523010Y21192990D01*
X63198202Y16400000D02*
X63600000Y16801798D01*
X34000000Y41992000D02*
X34000000Y43500000D01*
X36292000Y39700000D02*
X34000000Y41992000D01*
X49692000Y39700000D02*
X36292000Y39700000D01*
X56000000Y43500000D02*
X53492000Y43500000D01*
X53492000Y43500000D02*
X49692000Y39700000D01*
X71792000Y39800000D02*
X75492000Y43500000D01*
X61701922Y39800000D02*
X71792000Y39800000D01*
X61697921Y39795999D02*
X61701922Y39800000D01*
X57000000Y43500000D02*
X59545999Y40954001D01*
X60302079Y39795999D02*
X61697921Y39795999D01*
X56000000Y43500000D02*
X57000000Y43500000D01*
X59545999Y40552079D02*
X60302079Y39795999D01*
X75492000Y43500000D02*
X78000000Y43500000D01*
X59545999Y40954001D02*
X59545999Y40552079D01*
X40763999Y53404001D02*
X41110000Y53058000D01*
X20604001Y53404001D02*
X40763999Y53404001D01*
X41110000Y53058000D02*
X41110000Y51800000D01*
X16900000Y49700000D02*
X20604001Y53404001D01*
X68382078Y17100000D02*
X63700000Y17100000D01*
X78000000Y14500000D02*
X70982078Y14500000D01*
X70982078Y14500000D02*
X68382078Y17100000D01*
X61000000Y18019000D02*
X39000000Y18019000D01*
X58492000Y45008000D02*
X60000000Y43500000D01*
X41508000Y45008000D02*
X58492000Y45008000D01*
X60000000Y43500000D02*
X61000000Y43500000D01*
X40000000Y43500000D02*
X41508000Y45008000D01*
X39000000Y43500000D02*
X40000000Y43500000D01*
X16000000Y43500000D02*
X13200000Y46300000D01*
X17000000Y43500000D02*
X16000000Y43500000D01*
X13200000Y46300000D02*
X13200000Y50300000D01*
X13200000Y50300000D02*
X13100000Y50400000D01*
X13100000Y50400000D02*
X13100000Y52000000D01*
X39000000Y47000000D02*
X61000000Y47000000D01*
X41508000Y47000000D02*
X39000000Y47000000D01*
X44330000Y47000000D02*
X41508000Y47000000D01*
X48730000Y51400000D02*
X44330000Y47000000D01*
X48730000Y51800000D02*
X48730000Y51400000D01*
X19498000Y18019000D02*
X16990000Y18019000D01*
X31198934Y16681012D02*
X29617922Y15100000D01*
X39000000Y18019000D02*
X36492000Y18019000D01*
X26382078Y15100000D02*
X23595999Y17886079D01*
X23595999Y18104001D02*
X23510998Y18019000D01*
X29617922Y15100000D02*
X26382078Y15100000D01*
X23510998Y18019000D02*
X19498000Y18019000D01*
X35154012Y16681012D02*
X31198934Y16681012D01*
X36492000Y18019000D02*
X35154012Y16681012D01*
X23595999Y17886079D02*
X23595999Y18104001D01*
X35154012Y45662012D02*
X36492000Y47000000D01*
X31343532Y45662012D02*
X35154012Y45662012D01*
X30837988Y44848543D02*
X30837988Y45156468D01*
X25162012Y43900000D02*
X29889446Y43900000D01*
X25162012Y45156468D02*
X25162012Y43900000D01*
X24656468Y45662012D02*
X25162012Y45156468D01*
X29889446Y43900000D02*
X30837988Y44848543D01*
X19508000Y47000000D02*
X20845988Y45662012D01*
X17000000Y47000000D02*
X19508000Y47000000D01*
X36492000Y47000000D02*
X39000000Y47000000D01*
X20845988Y45662012D02*
X24656468Y45662012D01*
X30837988Y45156468D02*
X31343532Y45662012D01*
X74490722Y44501277D02*
X74837988Y44848543D01*
X74489446Y44500000D02*
X74490722Y44501277D01*
X69162012Y44500000D02*
X74489446Y44500000D01*
X74837988Y45156468D02*
X75343532Y45662012D01*
X69162012Y45156468D02*
X69162012Y44500000D01*
X68656468Y45662012D02*
X69162012Y45156468D01*
X80492000Y47000000D02*
X83000000Y47000000D01*
X74837988Y44848543D02*
X74837988Y45156468D01*
X75343532Y45662012D02*
X79154012Y45662012D01*
X61000000Y47000000D02*
X63508000Y47000000D01*
X79154012Y45662012D02*
X80492000Y47000000D01*
X64845988Y45662012D02*
X68656468Y45662012D01*
X63508000Y47000000D02*
X64845988Y45662012D01*
X48640000Y23230000D02*
X48670000Y23260000D01*
X44600000Y18617000D02*
X48640000Y23230000D01*
X39000000Y18019000D02*
X44002000Y18019000D01*
X44002000Y18019000D02*
X44600000Y18617000D01*
X26088810Y14391990D02*
X24507799Y15973001D01*
X29911189Y14391989D02*
X26088810Y14391990D01*
X15990000Y14519000D02*
X14535999Y15973001D01*
X24507799Y15973001D02*
X18707723Y15973001D01*
X53420001Y16755999D02*
X41437519Y16755999D01*
X53720000Y16456000D02*
X53420001Y16755999D01*
X14535999Y15973001D02*
X14535999Y21213999D01*
X17253722Y14519000D02*
X15990000Y14519000D01*
X14535999Y21213999D02*
X14558001Y21236001D01*
X18707723Y15973001D02*
X17253722Y14519000D01*
X41437519Y16755999D02*
X40654521Y15973001D01*
X14558001Y21236001D02*
X14858000Y21536000D01*
X31492201Y15973001D02*
X29911189Y14391989D01*
X24454001Y43191989D02*
X24454001Y44863201D01*
X24363201Y44954001D02*
X18454001Y44954001D01*
X30182713Y43191989D02*
X24454001Y43191989D01*
X39000000Y43500000D02*
X37545999Y44954001D01*
X31545999Y44555275D02*
X30182713Y43191989D01*
X24454001Y44863201D02*
X24363201Y44954001D01*
X31636799Y44954001D02*
X31545999Y44863201D01*
X31545999Y44863201D02*
X31545999Y44555275D01*
X37545999Y44954001D02*
X31636799Y44954001D01*
X18454001Y44954001D02*
X17000000Y43500000D01*
X75636799Y44954001D02*
X75545999Y44863201D01*
X68454001Y44863201D02*
X68363201Y44954001D01*
X62454001Y44954001D02*
X61000000Y43500000D01*
X75545999Y44555275D02*
X74782713Y43791989D01*
X68454001Y43791989D02*
X68454001Y44863201D01*
X75545999Y44863201D02*
X75545999Y44555275D01*
X68363201Y44954001D02*
X62454001Y44954001D01*
X74782713Y43791989D02*
X68454001Y43791989D01*
X81545999Y44954001D02*
X75636799Y44954001D01*
X83000000Y43500000D02*
X81545999Y44954001D01*
X39073001Y14573001D02*
X39000000Y14500000D01*
X39073001Y15973001D02*
X39073001Y14573001D01*
X40654521Y15973001D02*
X39073001Y15973001D01*
X39073001Y15973001D02*
X31492201Y15973001D01*
X36682798Y5000000D02*
X36545999Y5136799D01*
X13080000Y7667000D02*
X10546000Y10201000D01*
X13080000Y2500000D02*
X13080000Y7667000D01*
X41497444Y5000000D02*
X36682798Y5000000D01*
X42000000Y6000000D02*
X42000000Y5502556D01*
X42000000Y5502556D02*
X41497444Y5000000D01*
X36231777Y5451021D02*
X36682798Y5000000D01*
X26840426Y5451021D02*
X36231777Y5451021D01*
X24725990Y3336585D02*
X26840426Y5451021D01*
X13080000Y2100000D02*
X14180000Y1000000D01*
X24000000Y1000000D02*
X24725990Y1725990D01*
X13080000Y2500000D02*
X13080000Y2100000D01*
X14180000Y1000000D02*
X24000000Y1000000D01*
X24725990Y1725990D02*
X24725990Y3336585D01*
X15880000Y2581000D02*
X17490989Y4191989D01*
X43381601Y10087991D02*
X46237663Y12944053D01*
X46237663Y12944053D02*
X54901937Y12944053D01*
X57245991Y10599999D02*
X57545990Y10300000D01*
X31904675Y8283065D02*
X33709601Y10087991D01*
X23591191Y8283064D02*
X31904675Y8283065D01*
X33709601Y10087991D02*
X43381601Y10087991D01*
X19500116Y4191989D02*
X23591191Y8283064D01*
X17490989Y4191989D02*
X19500116Y4191989D01*
X54901937Y12944053D02*
X57245991Y10599999D01*
X63626000Y6974264D02*
X63626000Y6550000D01*
X34002868Y9379980D02*
X43674868Y9379980D01*
X63626000Y7710202D02*
X63626000Y6974264D01*
X18890405Y2581000D02*
X23884459Y7575054D01*
X63336202Y8000000D02*
X63626000Y7710202D01*
X43674868Y9379980D02*
X46530930Y12236042D01*
X18420000Y2581000D02*
X18890405Y2581000D01*
X32197943Y7575055D02*
X34002868Y9379980D01*
X54475236Y12236042D02*
X58711278Y8000000D01*
X46530930Y12236042D02*
X54475236Y12236042D01*
X23884459Y7575054D02*
X32197943Y7575055D01*
X58711278Y8000000D02*
X63336202Y8000000D01*
X69422001Y5742001D02*
X69722000Y6042000D01*
X58545999Y5136799D02*
X58636799Y5045999D01*
X58636799Y5045999D02*
X68725999Y5045999D01*
X47006279Y11528033D02*
X53375802Y11528032D01*
X53375802Y11528032D02*
X58545999Y6357835D01*
X58545999Y6357835D02*
X58545999Y5136799D01*
X32491209Y6867043D02*
X34296135Y8671969D01*
X25246043Y6867043D02*
X32491209Y6867043D01*
X68725999Y5045999D02*
X69422001Y5742001D01*
X20960000Y2581000D02*
X25246043Y6867043D01*
X34296135Y8671969D02*
X44150215Y8671969D01*
X44150215Y8671969D02*
X47006279Y11528033D01*
X80545999Y7863201D02*
X80545999Y6042000D01*
X80636799Y7954001D02*
X80545999Y7863201D01*
X84454001Y7954001D02*
X80636799Y7954001D01*
X88000000Y11500000D02*
X84454001Y7954001D01*
X80545999Y6042000D02*
X73278000Y6042000D01*
X88000000Y14519000D02*
X88000000Y11500000D01*
X23500000Y3501278D02*
X26157754Y6159032D01*
X52982535Y10820021D02*
X57837990Y5964566D01*
X35645478Y7963958D02*
X44443481Y7963959D01*
X57837990Y5964566D02*
X57837990Y4843531D01*
X33840552Y6159032D02*
X35645478Y7963958D01*
X47299549Y10820022D02*
X52982535Y10820021D01*
X57837990Y4843531D02*
X58343533Y4337988D01*
X71718746Y4337988D02*
X72259252Y4878494D01*
X58343533Y4337988D02*
X71718746Y4337988D01*
X44443481Y7963959D02*
X47299549Y10820022D01*
X23500000Y2581000D02*
X23500000Y3501278D01*
X26157754Y6159032D02*
X33840552Y6159032D01*
X66000000Y14519000D02*
X66000000Y12204078D01*
X73186080Y5017998D02*
X73615736Y5017998D01*
X66000000Y12204078D02*
X73186080Y5017998D01*
X73615736Y5017998D02*
X74040000Y5017998D01*
X58064221Y3616022D02*
X72638024Y3616022D01*
X36389531Y4291989D02*
X41790711Y4291989D01*
X57129979Y5671299D02*
X57129979Y4550264D01*
X41790711Y4291989D02*
X42774067Y5275345D01*
X73740001Y4717999D02*
X74040000Y5017998D01*
X26040000Y2581000D02*
X28202012Y4743012D01*
X52689267Y10112011D02*
X57129979Y5671299D01*
X28202012Y4743012D02*
X35938508Y4743012D01*
X72638024Y3616022D02*
X73740001Y4717999D01*
X57129979Y4550264D02*
X58064221Y3616022D01*
X42774067Y5275345D02*
X42774067Y5293263D01*
X35938508Y4743012D02*
X36389531Y4291989D01*
X42774067Y5293263D02*
X47592816Y10112011D01*
X47592816Y10112011D02*
X52689267Y10112011D01*
X53958961Y7558960D02*
X54000000Y7599999D01*
X52113921Y9404001D02*
X53958961Y7558960D01*
X47886079Y9404001D02*
X52113921Y9404001D01*
X45595999Y7113921D02*
X47886079Y9404001D01*
X45595999Y7095999D02*
X45595999Y7113921D01*
X42083978Y3583978D02*
X45595999Y7095999D01*
X35413466Y3583978D02*
X42083978Y3583978D01*
X28580000Y2581000D02*
X28580000Y2981000D01*
X28580000Y2981000D02*
X29634001Y4035001D01*
X29634001Y4035001D02*
X34962443Y4035001D01*
X34962443Y4035001D02*
X35413466Y3583978D01*
X53958961Y7558960D02*
X56421968Y5095953D01*
X56421968Y5095953D02*
X56421968Y4256996D01*
X77764011Y2908011D02*
X78820001Y3964001D01*
X56421968Y4256996D02*
X57770953Y2908011D01*
X57770953Y2908011D02*
X77764011Y2908011D01*
X78820001Y3964001D02*
X79120000Y4264000D01*
X28326000Y10201000D02*
X28326000Y10601000D01*
X28326000Y10601000D02*
X24408000Y14519000D01*
X24408000Y14519000D02*
X21990000Y14519000D01*
X52913852Y14281076D02*
X53196866Y13998062D01*
X48408478Y14281076D02*
X52913852Y14281076D01*
X53196866Y13998062D02*
X53496865Y13698063D01*
X65000000Y10400000D02*
X60100000Y10400000D01*
X60100000Y10400000D02*
X59600000Y10900000D01*
X85116834Y10183166D02*
X78116834Y10183166D01*
X78116834Y10183166D02*
X77900000Y10400000D01*
X30690000Y31700000D02*
X30690000Y33208000D01*
X28550000Y39100000D02*
X28150000Y31700000D01*
X25610000Y33208000D02*
X26010000Y39100000D01*
X25610000Y31700000D02*
X25610000Y33208000D01*
X23070000Y38092000D02*
X23070000Y31700000D01*
X23470000Y39100000D02*
X23070000Y38092000D01*
X15626000Y8546000D02*
X15626000Y10201000D01*
X18166000Y9140340D02*
X18140000Y9114340D01*
X18166000Y10201000D02*
X18166000Y9140340D01*
X15640000Y8060000D02*
X15626000Y8546000D01*
X18140000Y9114340D02*
X18140000Y8060000D01*
X18140000Y8060000D02*
X15640000Y8060000D01*
X14876001Y12223999D02*
X14876001Y10950999D01*
X13086000Y12406000D02*
X13140000Y12460000D01*
X13086000Y10201000D02*
X13086000Y12406000D01*
X13140000Y12460000D02*
X13040000Y12560000D01*
X14876001Y10950999D02*
X15626000Y10201000D01*
X13040000Y12560000D02*
X14540000Y12560000D01*
X14540000Y12560000D02*
X14876001Y12223999D01*
X13140000Y12560000D02*
X10940000Y12560000D01*
X10546000Y12266000D02*
X10546000Y10201000D01*
X12000000Y14500000D02*
X12000000Y13720000D01*
X12000000Y13720000D02*
X10546000Y12266000D01*
X31090000Y40358000D02*
X31040000Y40408000D01*
X31090000Y39100000D02*
X31090000Y40358000D01*
X31040000Y40408000D02*
X31040000Y41960000D01*
X31040000Y41960000D02*
X30940000Y42060000D01*
X30940000Y42060000D02*
X28540000Y42060000D01*
X28550000Y42050000D02*
X28540000Y42060000D01*
X28550000Y39100000D02*
X28550000Y42050000D01*
X28540000Y42060000D02*
X25840000Y42060000D01*
X26010000Y41890000D02*
X25840000Y42060000D01*
X26010000Y39100000D02*
X26010000Y41890000D01*
X23470000Y40160660D02*
X23640000Y40330660D01*
X23470000Y39100000D02*
X23470000Y40160660D01*
X23640000Y40330660D02*
X23640000Y41760000D01*
X26010000Y41890000D02*
X23470000Y41890000D01*
X33161773Y35738227D02*
X33240000Y35660000D01*
X30861773Y35738227D02*
X33161773Y35738227D01*
X30861773Y35738227D02*
X31090000Y39100000D01*
X33240000Y35660000D02*
X33230000Y42730000D01*
X30690000Y33208000D02*
X30861773Y35738227D01*
X33230000Y31700000D02*
X33240000Y35660000D01*
X41050000Y30150000D02*
X41050000Y23260000D01*
X40210000Y30990000D02*
X41050000Y30150000D01*
X36500000Y31500000D02*
X37010000Y30990000D01*
X33230000Y31700000D02*
X34338000Y31700000D01*
X34338000Y31700000D02*
X34538000Y31500000D01*
X34538000Y31500000D02*
X36500000Y31500000D01*
X37010000Y30990000D02*
X40210000Y30990000D01*
X48670000Y23260000D02*
X48670000Y28530000D01*
X48670000Y28530000D02*
X47640000Y29560000D01*
X38718000Y21060000D02*
X43590000Y21060000D01*
X38639000Y21139000D02*
X38718000Y21060000D01*
X35461000Y21139000D02*
X38639000Y21139000D01*
X43590000Y21060000D02*
X43590000Y23260000D01*
X33100000Y23500000D02*
X35461000Y21139000D01*
X16822000Y23500000D02*
X24982078Y23500000D01*
X24982078Y23500000D02*
X25886079Y24404001D01*
X31017922Y23500000D02*
X33100000Y23500000D01*
X14858000Y21536000D02*
X16822000Y23500000D01*
X30113921Y24404001D02*
X31017922Y23500000D01*
X25886079Y24404001D02*
X30113921Y24404001D01*
X36064111Y38556988D02*
X36064111Y38981252D01*
X43590000Y23260000D02*
X43590000Y31610000D01*
X36064111Y34618687D02*
X36064111Y38556988D01*
X41154001Y34045999D02*
X36636799Y34045999D01*
X36636799Y34045999D02*
X36064111Y34618687D01*
X43590000Y31610000D02*
X41154001Y34045999D01*
X33971011Y761989D02*
X33660000Y1073000D01*
X47338011Y761989D02*
X33971011Y761989D01*
X82800000Y2200000D02*
X53680000Y2200000D01*
X33660000Y1073000D02*
X33660000Y2581000D01*
X52040000Y560000D02*
X47540000Y560000D01*
X90300000Y9700000D02*
X82800000Y2200000D01*
X53680000Y2200000D02*
X52040000Y560000D01*
X47540000Y560000D02*
X47338011Y761989D01*
X20530000Y33208000D02*
X20930000Y39100000D01*
X20530000Y31700000D02*
X20530000Y33208000D01*
X19454001Y32056001D02*
X19098000Y31700000D01*
X19098000Y31700000D02*
X17990000Y31700000D01*
X19454001Y39243999D02*
X19454001Y32056001D01*
X19098000Y39600000D02*
X19454001Y39243999D01*
X18390000Y39100000D02*
X19098000Y39600000D01*
X15450000Y33208000D02*
X15450000Y31700000D01*
X14545999Y34112001D02*
X15450000Y33208000D01*
X15450000Y38092000D02*
X14545999Y37187999D01*
X14545999Y37187999D02*
X14545999Y34112001D01*
X15850000Y39100000D02*
X15450000Y38092000D01*
X22004999Y8996999D02*
X23823921Y8996999D01*
X23823921Y8996999D02*
X24581999Y9755077D01*
X17000000Y6500000D02*
X19508000Y6500000D01*
X24581999Y9755077D02*
X24581999Y11381999D01*
X19508000Y6500000D02*
X22004999Y8996999D01*
X24581999Y11381999D02*
X25000000Y11800000D01*
X48765015Y20815015D02*
X51210000Y23260000D01*
X48765015Y20734985D02*
X48765015Y20815015D01*
M02*
