%TF.GenerationSoftware,KiCad,Pcbnew,(6.0.0)*%
%TF.CreationDate,2023-02-05T23:33:58-08:00*%
%TF.ProjectId,button_pcb,62757474-6f6e-45f7-9063-622e6b696361,rev?*%
%TF.SameCoordinates,Original*%
%TF.FileFunction,Copper,L2,Bot*%
%TF.FilePolarity,Positive*%
%FSLAX46Y46*%
G04 Gerber Fmt 4.6, Leading zero omitted, Abs format (unit mm)*
G04 Created by KiCad (PCBNEW (6.0.0)) date 2023-02-05 23:33:58*
%MOMM*%
%LPD*%
G01*
G04 APERTURE LIST*
G04 Aperture macros list*
%AMFreePoly0*
4,1,21,0.785355,0.935355,0.800000,0.900000,0.800000,0.600000,1.450000,0.600000,1.485355,0.585355,1.500000,0.550000,1.500000,-0.550000,1.485355,-0.585355,1.450000,-0.600000,0.800000,-0.600000,0.800000,-0.900000,0.785355,-0.935355,0.750000,-0.950000,-0.750000,-0.950000,-0.785355,-0.935355,-0.800000,-0.900000,-0.800000,0.900000,-0.785355,0.935355,-0.750000,0.950000,0.750000,0.950000,
0.785355,0.935355,0.785355,0.935355,$1*%
%AMFreePoly1*
4,1,21,0.785355,0.935355,0.800000,0.900000,0.800000,-0.900000,0.785355,-0.935355,0.750000,-0.950000,-0.750000,-0.950000,-0.785355,-0.935355,-0.800000,-0.900000,-0.800000,-0.600000,-1.450000,-0.600000,-1.485355,-0.585355,-1.500000,-0.550000,-1.500000,0.550000,-1.485355,0.585355,-1.450000,0.600000,-0.800000,0.600000,-0.800000,0.900000,-0.785355,0.935355,-0.750000,0.950000,0.750000,0.950000,
0.785355,0.935355,0.785355,0.935355,$1*%
G04 Aperture macros list end*
%TA.AperFunction,ComponentPad*%
%ADD10R,4.600000X3.300000*%
%TD*%
%TA.AperFunction,ComponentPad*%
%ADD11R,4.600000X3.800000*%
%TD*%
%TA.AperFunction,ComponentPad*%
%ADD12R,4.800000X3.100000*%
%TD*%
%TA.AperFunction,ComponentPad*%
%ADD13O,1.100000X1.650000*%
%TD*%
%TA.AperFunction,ComponentPad*%
%ADD14O,1.700000X2.700000*%
%TD*%
%TA.AperFunction,ComponentPad*%
%ADD15R,1.500000X1.500000*%
%TD*%
%TA.AperFunction,ComponentPad*%
%ADD16C,1.500000*%
%TD*%
%TA.AperFunction,SMDPad,CuDef*%
%ADD17FreePoly0,90.000000*%
%TD*%
%TA.AperFunction,SMDPad,CuDef*%
%ADD18FreePoly1,90.000000*%
%TD*%
%TA.AperFunction,ComponentPad*%
%ADD19R,1.200000X2.000000*%
%TD*%
%TA.AperFunction,ComponentPad*%
%ADD20O,1.200000X2.000000*%
%TD*%
%TA.AperFunction,ViaPad*%
%ADD21C,0.800000*%
%TD*%
%TA.AperFunction,Conductor*%
%ADD22C,0.250000*%
%TD*%
G04 APERTURE END LIST*
D10*
%TO.P,S8,1,NO*%
%TO.N,VCC*%
X69000000Y-73988000D03*
D11*
%TO.P,S8,2,NC*%
%TO.N,GND*%
X64000000Y-74238000D03*
%TO.P,S8,3,C*%
%TO.N,Net-(S8-Pad3)*%
X74000000Y-74238000D03*
D12*
%TO.P,S8,4,LED_+*%
%TO.N,/common Anode*%
X69000000Y-70338000D03*
D10*
%TO.P,S8,5,LED_-*%
%TO.N,Net-(S8-Pad5)*%
X69000000Y-81988000D03*
%TD*%
%TO.P,S1,1,NO*%
%TO.N,Net-(S1-Pad1)*%
X9000000Y-50488000D03*
D11*
%TO.P,S1,2,NC*%
%TO.N,Net-(S1-Pad2)*%
X4000000Y-50738000D03*
%TO.P,S1,3,C*%
%TO.N,Net-(S1-Pad3)*%
X14000000Y-50738000D03*
D12*
%TO.P,S1,4,LED_+*%
%TO.N,/common Anode*%
X9000000Y-46838000D03*
D10*
%TO.P,S1,5,LED_-*%
%TO.N,Net-(S1-Pad5)*%
X9000000Y-58488000D03*
%TD*%
%TO.P,S4,1,NO*%
%TO.N,VCC*%
X69000000Y-50488000D03*
D11*
%TO.P,S4,2,NC*%
%TO.N,GND*%
X64000000Y-50738000D03*
%TO.P,S4,3,C*%
%TO.N,Net-(S4-Pad3)*%
X74000000Y-50738000D03*
D12*
%TO.P,S4,4,LED_+*%
%TO.N,/common Anode*%
X69000000Y-46838000D03*
D10*
%TO.P,S4,5,LED_-*%
%TO.N,Net-(S4-Pad5)*%
X69000000Y-58488000D03*
%TD*%
D13*
%TO.P,JPowerBankAsBattery1,1,GND*%
%TO.N,Net-(BT1-Pad2)*%
X56853000Y-35011000D03*
%TO.P,JPowerBankAsBattery1,2,ID*%
%TO.N,unconnected-(JPowerBankAsBattery1-Pad2)*%
X57653000Y-33311000D03*
%TO.P,JPowerBankAsBattery1,3,D+*%
%TO.N,unconnected-(JPowerBankAsBattery1-Pad3)*%
X58453000Y-35011000D03*
%TO.P,JPowerBankAsBattery1,4,D-*%
%TO.N,unconnected-(JPowerBankAsBattery1-Pad4)*%
X59253000Y-33311000D03*
%TO.P,JPowerBankAsBattery1,5,VBUS*%
%TO.N,Net-(BT1-Pad1)*%
X60053000Y-35011000D03*
D14*
%TO.P,JPowerBankAsBattery1,6,Shield*%
%TO.N,Net-(BT1-Pad2)*%
X62103000Y-34221720D03*
X54803000Y-29711000D03*
X54803000Y-34221720D03*
X62103000Y-29711000D03*
%TD*%
D10*
%TO.P,S7,1,NO*%
%TO.N,VCC*%
X49000000Y-73988000D03*
D11*
%TO.P,S7,2,NC*%
%TO.N,GND*%
X44000000Y-74238000D03*
%TO.P,S7,3,C*%
%TO.N,Net-(S7-Pad3)*%
X54000000Y-74238000D03*
D12*
%TO.P,S7,4,LED_+*%
%TO.N,/common Anode*%
X49000000Y-70338000D03*
D10*
%TO.P,S7,5,LED_-*%
%TO.N,Net-(S7-Pad5)*%
X49000000Y-81988000D03*
%TD*%
D15*
%TO.P,T2,1,1*%
%TO.N,Net-(S1-Pad5)*%
X30480000Y-38020000D03*
D16*
%TO.P,T2,2,2*%
%TO.N,Net-(S2-Pad5)*%
X33020000Y-38020000D03*
%TO.P,T2,3,3*%
%TO.N,Net-(S3-Pad5)*%
X35560000Y-38020000D03*
%TO.P,T2,4,4*%
%TO.N,Net-(S4-Pad5)*%
X38100000Y-38020000D03*
%TO.P,T2,5,5*%
%TO.N,Net-(S5-Pad5)*%
X40640000Y-38020000D03*
%TO.P,T2,6,6*%
%TO.N,Net-(S6-Pad5)*%
X43180000Y-38020000D03*
%TO.P,T2,7,7*%
%TO.N,Net-(S7-Pad5)*%
X45720000Y-38020000D03*
%TO.P,T2,8,8*%
%TO.N,Net-(S8-Pad5)*%
X48260000Y-38020000D03*
%TD*%
D15*
%TO.P,T1,1,1*%
%TO.N,GND*%
X50800000Y-38020000D03*
D16*
%TO.P,T1,2,2*%
%TO.N,VCC*%
X53340000Y-38020000D03*
%TO.P,T1,3,3*%
%TO.N,/common Anode*%
X55880000Y-38020000D03*
%TO.P,T1,4,4*%
%TO.N,Net-(BT1-Pad2)*%
X58420000Y-38020000D03*
%TO.P,T1,5,5*%
%TO.N,Net-(BT1-Pad1)*%
X60960000Y-38020000D03*
%TO.P,T1,6,6*%
%TO.N,Net-(S1-Pad2)*%
X63500000Y-38020000D03*
%TO.P,T1,7,7*%
%TO.N,Net-(S1-Pad3)*%
X66040000Y-38020000D03*
%TO.P,T1,8,8*%
%TO.N,Net-(S1-Pad1)*%
X68580000Y-38020000D03*
%TD*%
D10*
%TO.P,S5,1,NO*%
%TO.N,VCC*%
X9000000Y-73988000D03*
D11*
%TO.P,S5,2,NC*%
%TO.N,GND*%
X4000000Y-74238000D03*
%TO.P,S5,3,C*%
%TO.N,Net-(S5-Pad3)*%
X14000000Y-74238000D03*
D12*
%TO.P,S5,4,LED_+*%
%TO.N,/common Anode*%
X9000000Y-70338000D03*
D10*
%TO.P,S5,5,LED_-*%
%TO.N,Net-(S5-Pad5)*%
X9000000Y-81988000D03*
%TD*%
%TO.P,S2,1,NO*%
%TO.N,VCC*%
X29000000Y-50488000D03*
D11*
%TO.P,S2,2,NC*%
%TO.N,GND*%
X24000000Y-50738000D03*
%TO.P,S2,3,C*%
%TO.N,Net-(S2-Pad3)*%
X34000000Y-50738000D03*
D12*
%TO.P,S2,4,LED_+*%
%TO.N,/common Anode*%
X29000000Y-46838000D03*
D10*
%TO.P,S2,5,LED_-*%
%TO.N,Net-(S2-Pad5)*%
X29000000Y-58488000D03*
%TD*%
%TO.P,S6,1,NO*%
%TO.N,VCC*%
X29000000Y-73988000D03*
D11*
%TO.P,S6,2,NC*%
%TO.N,GND*%
X24000000Y-74238000D03*
%TO.P,S6,3,C*%
%TO.N,Net-(S6-Pad3)*%
X34000000Y-74238000D03*
D12*
%TO.P,S6,4,LED_+*%
%TO.N,/common Anode*%
X29000000Y-70338000D03*
D10*
%TO.P,S6,5,LED_-*%
%TO.N,Net-(S6-Pad5)*%
X29000000Y-81988000D03*
%TD*%
D15*
%TO.P,T3,1,1*%
%TO.N,unconnected-(T3-Pad1)*%
X10160000Y-38020000D03*
D16*
%TO.P,T3,2,2*%
%TO.N,Net-(S2-Pad3)*%
X12700000Y-38020000D03*
%TO.P,T3,3,3*%
%TO.N,Net-(S3-Pad3)*%
X15240000Y-38020000D03*
%TO.P,T3,4,4*%
%TO.N,Net-(S4-Pad3)*%
X17780000Y-38020000D03*
%TO.P,T3,5,5*%
%TO.N,Net-(S5-Pad3)*%
X20320000Y-38020000D03*
%TO.P,T3,6,6*%
%TO.N,Net-(S6-Pad3)*%
X22860000Y-38020000D03*
%TO.P,T3,7,7*%
%TO.N,Net-(S7-Pad3)*%
X25400000Y-38020000D03*
%TO.P,T3,8,8*%
%TO.N,Net-(S8-Pad3)*%
X27940000Y-38020000D03*
%TD*%
D10*
%TO.P,S3,1,NO*%
%TO.N,VCC*%
X49000000Y-50488000D03*
D11*
%TO.P,S3,2,NC*%
%TO.N,GND*%
X44000000Y-50738000D03*
%TO.P,S3,3,C*%
%TO.N,Net-(S3-Pad3)*%
X54000000Y-50738000D03*
D12*
%TO.P,S3,4,LED_+*%
%TO.N,/common Anode*%
X49000000Y-46838000D03*
D10*
%TO.P,S3,5,LED_-*%
%TO.N,Net-(S3-Pad5)*%
X49000000Y-58488000D03*
%TD*%
D17*
%TO.P,connect_for_vcc_as_common_anode1,1*%
%TO.N,VCC*%
X74295000Y-42059000D03*
D18*
%TO.P,connect_for_vcc_as_common_anode1,2*%
%TO.N,/common Anode*%
X74295000Y-38459000D03*
%TD*%
D19*
%TO.P,T4,1,1*%
%TO.N,Net-(BT1-Pad2)*%
X46038600Y-29591000D03*
D20*
%TO.P,T4,2,2*%
%TO.N,Net-(BT1-Pad1)*%
X48578600Y-29591000D03*
%TD*%
D21*
%TO.N,VCC*%
X38989000Y-54102000D03*
X43307000Y-53721000D03*
X39497000Y-76200000D03*
%TO.N,/common Anode*%
X39497000Y-70358000D03*
X67373500Y-66103500D03*
X20826000Y-46738000D03*
%TO.N,GND*%
X39600796Y-55080129D03*
%TD*%
D22*
%TO.N,VCC*%
X39886511Y-76462511D02*
X39624000Y-76200000D01*
X69000000Y-74087022D02*
X69000000Y-73738000D01*
X74295000Y-42059000D02*
X76624511Y-44388511D01*
X39624000Y-76200000D02*
X39497000Y-76200000D01*
X52001978Y-77089000D02*
X65998022Y-77089000D01*
X26624511Y-76462511D02*
X29000000Y-74087022D01*
X49000000Y-74781000D02*
X47318489Y-76462511D01*
X65998022Y-77089000D02*
X69000000Y-74087022D01*
X47318489Y-76462511D02*
X39886511Y-76462511D01*
X76624511Y-44388511D02*
X76624511Y-52962511D01*
X29000000Y-74087022D02*
X29000000Y-73738000D01*
X49000000Y-74087022D02*
X52001978Y-77089000D01*
X43307000Y-53721000D02*
X39370000Y-53721000D01*
X11375489Y-76462511D02*
X26624511Y-76462511D01*
X69000000Y-50587022D02*
X69000000Y-50238000D01*
X49000000Y-73738000D02*
X49000000Y-74781000D01*
X9000000Y-74087022D02*
X11375489Y-76462511D01*
X39370000Y-53721000D02*
X38989000Y-54102000D01*
X9000000Y-73738000D02*
X9000000Y-74087022D01*
X71375489Y-52962511D02*
X69000000Y-50587022D01*
X49000000Y-73738000D02*
X49000000Y-74087022D01*
X76624511Y-52962511D02*
X71375489Y-52962511D01*
%TO.N,/common Anode*%
X64899000Y-46738000D02*
X49000000Y-46738000D01*
X9000000Y-70238000D02*
X1270000Y-62508000D01*
X55880000Y-38020000D02*
X64598000Y-46738000D01*
X69000000Y-70238000D02*
X49000000Y-70238000D01*
X74295000Y-38459000D02*
X77343000Y-41507000D01*
X67310000Y-66167000D02*
X67373500Y-66103500D01*
X69000000Y-46738000D02*
X69000000Y-43754000D01*
X69000000Y-43754000D02*
X74295000Y-38459000D01*
X77343000Y-53848000D02*
X77343000Y-56134000D01*
X77343000Y-56134000D02*
X67373500Y-66103500D01*
X77343000Y-41507000D02*
X77343000Y-53848000D01*
X64598000Y-46738000D02*
X64899000Y-46738000D01*
X1270000Y-62508000D02*
X1270000Y-46863000D01*
X1270000Y-46863000D02*
X1395000Y-46738000D01*
X64899000Y-46738000D02*
X69000000Y-46738000D01*
X39497000Y-70358000D02*
X48880000Y-70358000D01*
X9000000Y-46738000D02*
X20826000Y-46738000D01*
X20828000Y-46736000D02*
X20826000Y-46738000D01*
X48880000Y-70358000D02*
X49000000Y-70238000D01*
X1395000Y-46738000D02*
X9000000Y-46738000D01*
X29000000Y-70238000D02*
X9000000Y-70238000D01*
%TO.N,Net-(BT1-Pad1)*%
X60053000Y-37113000D02*
X60960000Y-38020000D01*
X59615238Y-32161480D02*
X60127520Y-32673762D01*
X60127520Y-32673762D02*
X60127520Y-34686480D01*
X60127520Y-34686480D02*
X60053000Y-34761000D01*
X48578600Y-29591000D02*
X51149080Y-32161480D01*
X51149080Y-32161480D02*
X59615238Y-32161480D01*
X60053000Y-34761000D02*
X60053000Y-37113000D01*
%TO.N,Net-(S5-Pad5)*%
X31724511Y-44963489D02*
X26275489Y-44963489D01*
X40640000Y-38020000D02*
X37406511Y-41253489D01*
X21375489Y-48513489D02*
X21375489Y-55462511D01*
X37406511Y-41253489D02*
X37406511Y-41770794D01*
X11871000Y-78867000D02*
X9000000Y-81738000D01*
X26275489Y-44963489D02*
X26275489Y-48513489D01*
X34094511Y-38458793D02*
X34094511Y-37574922D01*
X21375489Y-55462511D02*
X26375489Y-60462511D01*
X26375489Y-60462511D02*
X35442807Y-60462511D01*
X36624511Y-76462511D02*
X34220022Y-78867000D01*
X31724511Y-37795900D02*
X31724511Y-44963489D01*
X36624511Y-61644215D02*
X36624511Y-76462511D01*
X32574922Y-36945489D02*
X31724511Y-37795900D01*
X35442807Y-60462511D02*
X36624511Y-61644215D01*
X34220022Y-78867000D02*
X11871000Y-78867000D01*
X26275489Y-48513489D02*
X21375489Y-48513489D01*
X37406511Y-41770794D02*
X34094511Y-38458793D01*
X33465078Y-36945489D02*
X32574922Y-36945489D01*
X34094511Y-37574922D02*
X33465078Y-36945489D01*
%TO.N,Net-(S8-Pad5)*%
X38502707Y-55276011D02*
X37814988Y-54588292D01*
X77216000Y-72771704D02*
X71060806Y-66616510D01*
X38755043Y-47524957D02*
X48260000Y-38020000D01*
X71060806Y-66616510D02*
X67885090Y-66616510D01*
X37814988Y-54588292D02*
X37814989Y-53615707D01*
X72313000Y-81738000D02*
X77216000Y-76835000D01*
X38755043Y-51914357D02*
X38755043Y-47524957D01*
X38637604Y-55276012D02*
X38502707Y-55276011D01*
X50189593Y-66828001D02*
X38637604Y-55276012D01*
X38089979Y-53340717D02*
X38089979Y-52579421D01*
X67673599Y-66828001D02*
X50189593Y-66828001D01*
X69000000Y-81738000D02*
X72313000Y-81738000D01*
X37814989Y-53615707D02*
X38089979Y-53340717D01*
X77216000Y-76835000D02*
X77216000Y-72771704D01*
X38089979Y-52579421D02*
X38755043Y-51914357D01*
X67885090Y-66616510D02*
X67673599Y-66828001D01*
%TO.N,Net-(S6-Pad5)*%
X31984726Y-81738000D02*
X37111479Y-76611247D01*
X37074023Y-52208385D02*
X37856021Y-51426387D01*
X37856021Y-51426387D02*
X37856021Y-43343979D01*
X37111479Y-55156191D02*
X36915966Y-54960677D01*
X29000000Y-81738000D02*
X31984726Y-81738000D01*
X37856021Y-43343979D02*
X43180000Y-38020000D01*
X36915966Y-54960677D02*
X36915969Y-53243319D01*
X36915969Y-53243319D02*
X37074021Y-53085267D01*
X37111479Y-76611247D02*
X37111479Y-55156191D01*
X37074021Y-53085267D02*
X37074023Y-52208385D01*
%TO.N,Net-(S7-Pad5)*%
X37523533Y-52394579D02*
X38305532Y-51612580D01*
X44010400Y-81738000D02*
X37560989Y-75288589D01*
X37560989Y-54969997D02*
X37365479Y-54774487D01*
X37560989Y-75288589D02*
X37560989Y-54969997D01*
X38305532Y-45434468D02*
X45720000Y-38020000D01*
X38305532Y-51612580D02*
X38305532Y-45434468D01*
X37365479Y-54774487D02*
X37365479Y-53429513D01*
X37365479Y-53429513D02*
X37523533Y-53271459D01*
X49000000Y-81738000D02*
X44010400Y-81738000D01*
X37523533Y-53271459D02*
X37523533Y-52394579D01*
%TO.N,Net-(BT1-Pad2)*%
X46038600Y-31623000D02*
X51361089Y-36945489D01*
X62103000Y-34221720D02*
X62103000Y-29711000D01*
X62103000Y-38396589D02*
X61405078Y-39094511D01*
X56313720Y-34221720D02*
X56853000Y-34761000D01*
X54803000Y-34221720D02*
X56313720Y-34221720D01*
X57345489Y-36945489D02*
X58420000Y-38020000D01*
X59494511Y-39094511D02*
X58420000Y-38020000D01*
X51361089Y-36945489D02*
X57345489Y-36945489D01*
X57345489Y-36945489D02*
X57345489Y-35253489D01*
X61405078Y-39094511D02*
X59494511Y-39094511D01*
X46038600Y-29591000D02*
X46038600Y-31623000D01*
X62103000Y-34221720D02*
X62103000Y-38396589D01*
X57345489Y-35253489D02*
X56853000Y-34761000D01*
%TO.N,Net-(S1-Pad5)*%
X20925978Y-48661044D02*
X11349022Y-58238000D01*
X20925978Y-48327296D02*
X20925978Y-48661044D01*
X21189296Y-48063978D02*
X20925978Y-48327296D01*
X21523044Y-48063978D02*
X21189296Y-48063978D01*
X30480000Y-38020000D02*
X30480000Y-39107022D01*
X30480000Y-39107022D02*
X21523044Y-48063978D01*
X11349022Y-58238000D02*
X9000000Y-58238000D01*
%TO.N,Net-(S2-Pad5)*%
X36624511Y-52783489D02*
X31170000Y-58238000D01*
X36624511Y-51132489D02*
X36624511Y-52783489D01*
X33020000Y-38020000D02*
X36957000Y-41957000D01*
X36957000Y-50800000D02*
X36624511Y-51132489D01*
X31170000Y-58238000D02*
X29000000Y-58238000D01*
X36957000Y-41957000D02*
X36957000Y-50800000D01*
%TO.N,GND*%
X59613479Y-54624521D02*
X48386521Y-54624521D01*
X38264499Y-53801901D02*
X38264499Y-54402099D01*
X38688901Y-54826501D02*
X38823797Y-54826501D01*
X50800000Y-38020000D02*
X44000000Y-44820000D01*
X39077797Y-53377499D02*
X38688901Y-53377499D01*
X39077425Y-55080129D02*
X39600796Y-55080129D01*
X44000000Y-50238000D02*
X42217296Y-50238000D01*
X64000000Y-50238000D02*
X59613479Y-54624521D01*
X38688901Y-53377499D02*
X38264499Y-53801901D01*
X38823797Y-54826501D02*
X39077425Y-55080129D01*
X42217296Y-50238000D02*
X39077797Y-53377499D01*
X44000000Y-44820000D02*
X44000000Y-50238000D01*
X48386521Y-54624521D02*
X44000000Y-50238000D01*
X38264499Y-54402099D02*
X38688901Y-54826501D01*
%TD*%
M02*
