%TF.GenerationSoftware,KiCad,Pcbnew,(6.0.0)*%
%TF.CreationDate,2023-02-05T23:33:58-08:00*%
%TF.ProjectId,button_pcb,62757474-6f6e-45f7-9063-622e6b696361,rev?*%
%TF.SameCoordinates,Original*%
%TF.FileFunction,Legend,Bot*%
%TF.FilePolarity,Positive*%
%FSLAX46Y46*%
G04 Gerber Fmt 4.6, Leading zero omitted, Abs format (unit mm)*
G04 Created by KiCad (PCBNEW (6.0.0)) date 2023-02-05 23:33:58*
%MOMM*%
%LPD*%
G01*
G04 APERTURE LIST*
%ADD10C,0.150000*%
%ADD11C,0.120000*%
%ADD12C,0.100000*%
G04 APERTURE END LIST*
D10*
X56560404Y-93541380D02*
X56560404Y-92541380D01*
X56560404Y-92922333D02*
X56465166Y-92874714D01*
X56274690Y-92874714D01*
X56179452Y-92922333D01*
X56131833Y-92969952D01*
X56084214Y-93065190D01*
X56084214Y-93350904D01*
X56131833Y-93446142D01*
X56179452Y-93493761D01*
X56274690Y-93541380D01*
X56465166Y-93541380D01*
X56560404Y-93493761D01*
X55227071Y-92874714D02*
X55227071Y-93541380D01*
X55655642Y-92874714D02*
X55655642Y-93398523D01*
X55608023Y-93493761D01*
X55512785Y-93541380D01*
X55369928Y-93541380D01*
X55274690Y-93493761D01*
X55227071Y-93446142D01*
X54893738Y-92874714D02*
X54512785Y-92874714D01*
X54750880Y-92541380D02*
X54750880Y-93398523D01*
X54703261Y-93493761D01*
X54608023Y-93541380D01*
X54512785Y-93541380D01*
X54322309Y-92874714D02*
X53941357Y-92874714D01*
X54179452Y-92541380D02*
X54179452Y-93398523D01*
X54131833Y-93493761D01*
X54036595Y-93541380D01*
X53941357Y-93541380D01*
X53465166Y-93541380D02*
X53560404Y-93493761D01*
X53608023Y-93446142D01*
X53655642Y-93350904D01*
X53655642Y-93065190D01*
X53608023Y-92969952D01*
X53560404Y-92922333D01*
X53465166Y-92874714D01*
X53322309Y-92874714D01*
X53227071Y-92922333D01*
X53179452Y-92969952D01*
X53131833Y-93065190D01*
X53131833Y-93350904D01*
X53179452Y-93446142D01*
X53227071Y-93493761D01*
X53322309Y-93541380D01*
X53465166Y-93541380D01*
X52703261Y-92874714D02*
X52703261Y-93541380D01*
X52703261Y-92969952D02*
X52655642Y-92922333D01*
X52560404Y-92874714D01*
X52417547Y-92874714D01*
X52322309Y-92922333D01*
X52274690Y-93017571D01*
X52274690Y-93541380D01*
X51036595Y-93541380D02*
X51036595Y-92541380D01*
X51036595Y-92922333D02*
X50941357Y-92874714D01*
X50750880Y-92874714D01*
X50655642Y-92922333D01*
X50608023Y-92969952D01*
X50560404Y-93065190D01*
X50560404Y-93350904D01*
X50608023Y-93446142D01*
X50655642Y-93493761D01*
X50750880Y-93541380D01*
X50941357Y-93541380D01*
X51036595Y-93493761D01*
X49988976Y-93541380D02*
X50084214Y-93493761D01*
X50131833Y-93446142D01*
X50179452Y-93350904D01*
X50179452Y-93065190D01*
X50131833Y-92969952D01*
X50084214Y-92922333D01*
X49988976Y-92874714D01*
X49846119Y-92874714D01*
X49750880Y-92922333D01*
X49703261Y-92969952D01*
X49655642Y-93065190D01*
X49655642Y-93350904D01*
X49703261Y-93446142D01*
X49750880Y-93493761D01*
X49846119Y-93541380D01*
X49988976Y-93541380D01*
X48798500Y-93541380D02*
X48798500Y-93017571D01*
X48846119Y-92922333D01*
X48941357Y-92874714D01*
X49131833Y-92874714D01*
X49227071Y-92922333D01*
X48798500Y-93493761D02*
X48893738Y-93541380D01*
X49131833Y-93541380D01*
X49227071Y-93493761D01*
X49274690Y-93398523D01*
X49274690Y-93303285D01*
X49227071Y-93208047D01*
X49131833Y-93160428D01*
X48893738Y-93160428D01*
X48798500Y-93112809D01*
X48322309Y-93541380D02*
X48322309Y-92874714D01*
X48322309Y-93065190D02*
X48274690Y-92969952D01*
X48227071Y-92922333D01*
X48131833Y-92874714D01*
X48036595Y-92874714D01*
X47274690Y-93541380D02*
X47274690Y-92541380D01*
X47274690Y-93493761D02*
X47369928Y-93541380D01*
X47560404Y-93541380D01*
X47655642Y-93493761D01*
X47703261Y-93446142D01*
X47750880Y-93350904D01*
X47750880Y-93065190D01*
X47703261Y-92969952D01*
X47655642Y-92922333D01*
X47560404Y-92874714D01*
X47369928Y-92874714D01*
X47274690Y-92922333D01*
X46131833Y-92874714D02*
X45893738Y-93541380D01*
X45655642Y-92874714D01*
X45369928Y-92541380D02*
X44750880Y-92541380D01*
X45084214Y-92922333D01*
X44941357Y-92922333D01*
X44846119Y-92969952D01*
X44798500Y-93017571D01*
X44750880Y-93112809D01*
X44750880Y-93350904D01*
X44798500Y-93446142D01*
X44846119Y-93493761D01*
X44941357Y-93541380D01*
X45227071Y-93541380D01*
X45322309Y-93493761D01*
X45369928Y-93446142D01*
X44322309Y-93446142D02*
X44274690Y-93493761D01*
X44322309Y-93541380D01*
X44369928Y-93493761D01*
X44322309Y-93446142D01*
X44322309Y-93541380D01*
X43655642Y-92541380D02*
X43560404Y-92541380D01*
X43465166Y-92589000D01*
X43417547Y-92636619D01*
X43369928Y-92731857D01*
X43322309Y-92922333D01*
X43322309Y-93160428D01*
X43369928Y-93350904D01*
X43417547Y-93446142D01*
X43465166Y-93493761D01*
X43560404Y-93541380D01*
X43655642Y-93541380D01*
X43750880Y-93493761D01*
X43798500Y-93446142D01*
X43846119Y-93350904D01*
X43893738Y-93160428D01*
X43893738Y-92922333D01*
X43846119Y-92731857D01*
X43798500Y-92636619D01*
X43750880Y-92589000D01*
X43655642Y-92541380D01*
X42179452Y-92636619D02*
X42131833Y-92589000D01*
X42036595Y-92541380D01*
X41798500Y-92541380D01*
X41703261Y-92589000D01*
X41655642Y-92636619D01*
X41608023Y-92731857D01*
X41608023Y-92827095D01*
X41655642Y-92969952D01*
X42227071Y-93541380D01*
X41608023Y-93541380D01*
X40988976Y-92541380D02*
X40893738Y-92541380D01*
X40798500Y-92589000D01*
X40750880Y-92636619D01*
X40703261Y-92731857D01*
X40655642Y-92922333D01*
X40655642Y-93160428D01*
X40703261Y-93350904D01*
X40750880Y-93446142D01*
X40798500Y-93493761D01*
X40893738Y-93541380D01*
X40988976Y-93541380D01*
X41084214Y-93493761D01*
X41131833Y-93446142D01*
X41179452Y-93350904D01*
X41227071Y-93160428D01*
X41227071Y-92922333D01*
X41179452Y-92731857D01*
X41131833Y-92636619D01*
X41084214Y-92589000D01*
X40988976Y-92541380D01*
X40274690Y-92636619D02*
X40227071Y-92589000D01*
X40131833Y-92541380D01*
X39893738Y-92541380D01*
X39798500Y-92589000D01*
X39750880Y-92636619D01*
X39703261Y-92731857D01*
X39703261Y-92827095D01*
X39750880Y-92969952D01*
X40322309Y-93541380D01*
X39703261Y-93541380D01*
X39369928Y-92541380D02*
X38750880Y-92541380D01*
X39084214Y-92922333D01*
X38941357Y-92922333D01*
X38846119Y-92969952D01*
X38798500Y-93017571D01*
X38750880Y-93112809D01*
X38750880Y-93350904D01*
X38798500Y-93446142D01*
X38846119Y-93493761D01*
X38941357Y-93541380D01*
X39227071Y-93541380D01*
X39322309Y-93493761D01*
X39369928Y-93446142D01*
X38322309Y-93160428D02*
X37560404Y-93160428D01*
X36893738Y-92541380D02*
X36798500Y-92541380D01*
X36703261Y-92589000D01*
X36655642Y-92636619D01*
X36608023Y-92731857D01*
X36560404Y-92922333D01*
X36560404Y-93160428D01*
X36608023Y-93350904D01*
X36655642Y-93446142D01*
X36703261Y-93493761D01*
X36798500Y-93541380D01*
X36893738Y-93541380D01*
X36988976Y-93493761D01*
X37036595Y-93446142D01*
X37084214Y-93350904D01*
X37131833Y-93160428D01*
X37131833Y-92922333D01*
X37084214Y-92731857D01*
X37036595Y-92636619D01*
X36988976Y-92589000D01*
X36893738Y-92541380D01*
X36179452Y-92636619D02*
X36131833Y-92589000D01*
X36036595Y-92541380D01*
X35798500Y-92541380D01*
X35703261Y-92589000D01*
X35655642Y-92636619D01*
X35608023Y-92731857D01*
X35608023Y-92827095D01*
X35655642Y-92969952D01*
X36227071Y-93541380D01*
X35608023Y-93541380D01*
X56131833Y-95151380D02*
X56131833Y-94627571D01*
X56179452Y-94532333D01*
X56274690Y-94484714D01*
X56465166Y-94484714D01*
X56560404Y-94532333D01*
X56131833Y-95103761D02*
X56227071Y-95151380D01*
X56465166Y-95151380D01*
X56560404Y-95103761D01*
X56608023Y-95008523D01*
X56608023Y-94913285D01*
X56560404Y-94818047D01*
X56465166Y-94770428D01*
X56227071Y-94770428D01*
X56131833Y-94722809D01*
X54893738Y-95151380D02*
X54893738Y-94151380D01*
X54322309Y-95151380D01*
X54322309Y-94151380D01*
X53703261Y-95151380D02*
X53798500Y-95103761D01*
X53846119Y-95056142D01*
X53893738Y-94960904D01*
X53893738Y-94675190D01*
X53846119Y-94579952D01*
X53798500Y-94532333D01*
X53703261Y-94484714D01*
X53560404Y-94484714D01*
X53465166Y-94532333D01*
X53417547Y-94579952D01*
X53369928Y-94675190D01*
X53369928Y-94960904D01*
X53417547Y-95056142D01*
X53465166Y-95103761D01*
X53560404Y-95151380D01*
X53703261Y-95151380D01*
X52941357Y-94484714D02*
X52941357Y-95151380D01*
X52941357Y-94579952D02*
X52893738Y-94532333D01*
X52798500Y-94484714D01*
X52655642Y-94484714D01*
X52560404Y-94532333D01*
X52512785Y-94627571D01*
X52512785Y-95151380D01*
X52036595Y-95151380D02*
X52036595Y-94151380D01*
X51941357Y-94770428D02*
X51655642Y-95151380D01*
X51655642Y-94484714D02*
X52036595Y-94865666D01*
X50846119Y-95103761D02*
X50941357Y-95151380D01*
X51131833Y-95151380D01*
X51227071Y-95103761D01*
X51274690Y-95008523D01*
X51274690Y-94627571D01*
X51227071Y-94532333D01*
X51131833Y-94484714D01*
X50941357Y-94484714D01*
X50846119Y-94532333D01*
X50798500Y-94627571D01*
X50798500Y-94722809D01*
X51274690Y-94818047D01*
X50227071Y-95151380D02*
X50322309Y-95103761D01*
X50369928Y-95008523D01*
X50369928Y-94151380D01*
X48608023Y-95151380D02*
X49084214Y-95151380D01*
X49084214Y-94151380D01*
X48131833Y-95151380D02*
X48227071Y-95103761D01*
X48274690Y-95056142D01*
X48322309Y-94960904D01*
X48322309Y-94675190D01*
X48274690Y-94579952D01*
X48227071Y-94532333D01*
X48131833Y-94484714D01*
X47988976Y-94484714D01*
X47893738Y-94532333D01*
X47846119Y-94579952D01*
X47798500Y-94675190D01*
X47798500Y-94960904D01*
X47846119Y-95056142D01*
X47893738Y-95103761D01*
X47988976Y-95151380D01*
X48131833Y-95151380D01*
X46941357Y-95151380D02*
X46941357Y-94151380D01*
X46941357Y-95103761D02*
X47036595Y-95151380D01*
X47227071Y-95151380D01*
X47322309Y-95103761D01*
X47369928Y-95056142D01*
X47417547Y-94960904D01*
X47417547Y-94675190D01*
X47369928Y-94579952D01*
X47322309Y-94532333D01*
X47227071Y-94484714D01*
X47036595Y-94484714D01*
X46941357Y-94532333D01*
X46084214Y-95103761D02*
X46179452Y-95151380D01*
X46369928Y-95151380D01*
X46465166Y-95103761D01*
X46512785Y-95008523D01*
X46512785Y-94627571D01*
X46465166Y-94532333D01*
X46369928Y-94484714D01*
X46179452Y-94484714D01*
X46084214Y-94532333D01*
X46036595Y-94627571D01*
X46036595Y-94722809D01*
X46512785Y-94818047D01*
X44703261Y-95151380D02*
X44798500Y-95103761D01*
X44846119Y-95008523D01*
X44846119Y-94151380D01*
X43893738Y-94484714D02*
X43893738Y-95151380D01*
X44322309Y-94484714D02*
X44322309Y-95008523D01*
X44274690Y-95103761D01*
X44179452Y-95151380D01*
X44036595Y-95151380D01*
X43941357Y-95103761D01*
X43893738Y-95056142D01*
X42988976Y-95103761D02*
X43084214Y-95151380D01*
X43274690Y-95151380D01*
X43369928Y-95103761D01*
X43417547Y-95056142D01*
X43465166Y-94960904D01*
X43465166Y-94675190D01*
X43417547Y-94579952D01*
X43369928Y-94532333D01*
X43274690Y-94484714D01*
X43084214Y-94484714D01*
X42988976Y-94532333D01*
X42560404Y-95151380D02*
X42560404Y-94484714D01*
X42560404Y-94151380D02*
X42608023Y-94199000D01*
X42560404Y-94246619D01*
X42512785Y-94199000D01*
X42560404Y-94151380D01*
X42560404Y-94246619D01*
X41703261Y-95103761D02*
X41798500Y-95151380D01*
X41988976Y-95151380D01*
X42084214Y-95103761D01*
X42131833Y-95008523D01*
X42131833Y-94627571D01*
X42084214Y-94532333D01*
X41988976Y-94484714D01*
X41798500Y-94484714D01*
X41703261Y-94532333D01*
X41655642Y-94627571D01*
X41655642Y-94722809D01*
X42131833Y-94818047D01*
X41227071Y-95151380D02*
X41227071Y-94151380D01*
X41227071Y-94532333D02*
X41131833Y-94484714D01*
X40941357Y-94484714D01*
X40846119Y-94532333D01*
X40798500Y-94579952D01*
X40750880Y-94675190D01*
X40750880Y-94960904D01*
X40798500Y-95056142D01*
X40846119Y-95103761D01*
X40941357Y-95151380D01*
X41131833Y-95151380D01*
X41227071Y-95103761D01*
X40179452Y-95151380D02*
X40274690Y-95103761D01*
X40322309Y-95056142D01*
X40369928Y-94960904D01*
X40369928Y-94675190D01*
X40322309Y-94579952D01*
X40274690Y-94532333D01*
X40179452Y-94484714D01*
X40036595Y-94484714D01*
X39941357Y-94532333D01*
X39893738Y-94579952D01*
X39846119Y-94675190D01*
X39846119Y-94960904D01*
X39893738Y-95056142D01*
X39941357Y-95103761D01*
X40036595Y-95151380D01*
X40179452Y-95151380D01*
X39512785Y-95151380D02*
X38988976Y-94484714D01*
X39512785Y-94484714D02*
X38988976Y-95151380D01*
X37465166Y-95103761D02*
X37560404Y-95151380D01*
X37750880Y-95151380D01*
X37846119Y-95103761D01*
X37893738Y-95008523D01*
X37893738Y-94627571D01*
X37846119Y-94532333D01*
X37750880Y-94484714D01*
X37560404Y-94484714D01*
X37465166Y-94532333D01*
X37417547Y-94627571D01*
X37417547Y-94722809D01*
X37893738Y-94818047D01*
X37084214Y-95151380D02*
X36560404Y-94484714D01*
X37084214Y-94484714D02*
X36560404Y-95151380D01*
X36322309Y-94484714D02*
X35941357Y-94484714D01*
X36179452Y-94151380D02*
X36179452Y-95008523D01*
X36131833Y-95103761D01*
X36036595Y-95151380D01*
X35941357Y-95151380D01*
X35227071Y-95103761D02*
X35322309Y-95151380D01*
X35512785Y-95151380D01*
X35608023Y-95103761D01*
X35655642Y-95008523D01*
X35655642Y-94627571D01*
X35608023Y-94532333D01*
X35512785Y-94484714D01*
X35322309Y-94484714D01*
X35227071Y-94532333D01*
X35179452Y-94627571D01*
X35179452Y-94722809D01*
X35655642Y-94818047D01*
X34750880Y-94484714D02*
X34750880Y-95151380D01*
X34750880Y-94579952D02*
X34703261Y-94532333D01*
X34608023Y-94484714D01*
X34465166Y-94484714D01*
X34369928Y-94532333D01*
X34322309Y-94627571D01*
X34322309Y-95151380D01*
X33893738Y-95103761D02*
X33798500Y-95151380D01*
X33608023Y-95151380D01*
X33512785Y-95103761D01*
X33465166Y-95008523D01*
X33465166Y-94960904D01*
X33512785Y-94865666D01*
X33608023Y-94818047D01*
X33750880Y-94818047D01*
X33846119Y-94770428D01*
X33893738Y-94675190D01*
X33893738Y-94627571D01*
X33846119Y-94532333D01*
X33750880Y-94484714D01*
X33608023Y-94484714D01*
X33512785Y-94532333D01*
X33036595Y-95151380D02*
X33036595Y-94484714D01*
X33036595Y-94151380D02*
X33084214Y-94199000D01*
X33036595Y-94246619D01*
X32988976Y-94199000D01*
X33036595Y-94151380D01*
X33036595Y-94246619D01*
X32417547Y-95151380D02*
X32512785Y-95103761D01*
X32560404Y-95056142D01*
X32608023Y-94960904D01*
X32608023Y-94675190D01*
X32560404Y-94579952D01*
X32512785Y-94532333D01*
X32417547Y-94484714D01*
X32274690Y-94484714D01*
X32179452Y-94532333D01*
X32131833Y-94579952D01*
X32084214Y-94675190D01*
X32084214Y-94960904D01*
X32131833Y-95056142D01*
X32179452Y-95103761D01*
X32274690Y-95151380D01*
X32417547Y-95151380D01*
X31655642Y-94484714D02*
X31655642Y-95151380D01*
X31655642Y-94579952D02*
X31608023Y-94532333D01*
X31512785Y-94484714D01*
X31369928Y-94484714D01*
X31274690Y-94532333D01*
X31227071Y-94627571D01*
X31227071Y-95151380D01*
X56560404Y-96094714D02*
X56560404Y-97094714D01*
X56560404Y-96142333D02*
X56465166Y-96094714D01*
X56274690Y-96094714D01*
X56179452Y-96142333D01*
X56131833Y-96189952D01*
X56084214Y-96285190D01*
X56084214Y-96570904D01*
X56131833Y-96666142D01*
X56179452Y-96713761D01*
X56274690Y-96761380D01*
X56465166Y-96761380D01*
X56560404Y-96713761D01*
X55227071Y-96094714D02*
X55227071Y-96761380D01*
X55655642Y-96094714D02*
X55655642Y-96618523D01*
X55608023Y-96713761D01*
X55512785Y-96761380D01*
X55369928Y-96761380D01*
X55274690Y-96713761D01*
X55227071Y-96666142D01*
X54893738Y-96094714D02*
X54512785Y-96094714D01*
X54750880Y-95761380D02*
X54750880Y-96618523D01*
X54703261Y-96713761D01*
X54608023Y-96761380D01*
X54512785Y-96761380D01*
X54322309Y-96094714D02*
X53941357Y-96094714D01*
X54179452Y-95761380D02*
X54179452Y-96618523D01*
X54131833Y-96713761D01*
X54036595Y-96761380D01*
X53941357Y-96761380D01*
X53608023Y-96761380D02*
X53608023Y-96094714D01*
X53608023Y-95761380D02*
X53655642Y-95809000D01*
X53608023Y-95856619D01*
X53560404Y-95809000D01*
X53608023Y-95761380D01*
X53608023Y-95856619D01*
X53131833Y-96094714D02*
X53131833Y-96761380D01*
X53131833Y-96189952D02*
X53084214Y-96142333D01*
X52988976Y-96094714D01*
X52846119Y-96094714D01*
X52750880Y-96142333D01*
X52703261Y-96237571D01*
X52703261Y-96761380D01*
X51798500Y-96094714D02*
X51798500Y-96904238D01*
X51846119Y-96999476D01*
X51893738Y-97047095D01*
X51988976Y-97094714D01*
X52131833Y-97094714D01*
X52227071Y-97047095D01*
X51798500Y-96713761D02*
X51893738Y-96761380D01*
X52084214Y-96761380D01*
X52179452Y-96713761D01*
X52227071Y-96666142D01*
X52274690Y-96570904D01*
X52274690Y-96285190D01*
X52227071Y-96189952D01*
X52179452Y-96142333D01*
X52084214Y-96094714D01*
X51893738Y-96094714D01*
X51798500Y-96142333D01*
X50179452Y-96713761D02*
X50274690Y-96761380D01*
X50465166Y-96761380D01*
X50560404Y-96713761D01*
X50608023Y-96618523D01*
X50608023Y-96237571D01*
X50560404Y-96142333D01*
X50465166Y-96094714D01*
X50274690Y-96094714D01*
X50179452Y-96142333D01*
X50131833Y-96237571D01*
X50131833Y-96332809D01*
X50608023Y-96428047D01*
X49798500Y-96761380D02*
X49274690Y-96094714D01*
X49798500Y-96094714D02*
X49274690Y-96761380D01*
X49036595Y-96094714D02*
X48655642Y-96094714D01*
X48893738Y-95761380D02*
X48893738Y-96618523D01*
X48846119Y-96713761D01*
X48750880Y-96761380D01*
X48655642Y-96761380D01*
X48322309Y-96761380D02*
X48322309Y-96094714D01*
X48322309Y-96285190D02*
X48274690Y-96189952D01*
X48227071Y-96142333D01*
X48131833Y-96094714D01*
X48036595Y-96094714D01*
X47274690Y-96761380D02*
X47274690Y-96237571D01*
X47322309Y-96142333D01*
X47417547Y-96094714D01*
X47608023Y-96094714D01*
X47703261Y-96142333D01*
X47274690Y-96713761D02*
X47369928Y-96761380D01*
X47608023Y-96761380D01*
X47703261Y-96713761D01*
X47750880Y-96618523D01*
X47750880Y-96523285D01*
X47703261Y-96428047D01*
X47608023Y-96380428D01*
X47369928Y-96380428D01*
X47274690Y-96332809D01*
X46036595Y-96094714D02*
X46036595Y-97094714D01*
X46036595Y-96142333D02*
X45941357Y-96094714D01*
X45750880Y-96094714D01*
X45655642Y-96142333D01*
X45608023Y-96189952D01*
X45560404Y-96285190D01*
X45560404Y-96570904D01*
X45608023Y-96666142D01*
X45655642Y-96713761D01*
X45750880Y-96761380D01*
X45941357Y-96761380D01*
X46036595Y-96713761D01*
X45131833Y-96761380D02*
X45131833Y-96094714D01*
X45131833Y-96285190D02*
X45084214Y-96189952D01*
X45036595Y-96142333D01*
X44941357Y-96094714D01*
X44846119Y-96094714D01*
X44131833Y-96713761D02*
X44227071Y-96761380D01*
X44417547Y-96761380D01*
X44512785Y-96713761D01*
X44560404Y-96618523D01*
X44560404Y-96237571D01*
X44512785Y-96142333D01*
X44417547Y-96094714D01*
X44227071Y-96094714D01*
X44131833Y-96142333D01*
X44084214Y-96237571D01*
X44084214Y-96332809D01*
X44560404Y-96428047D01*
X43798500Y-96094714D02*
X43417547Y-96094714D01*
X43655642Y-95761380D02*
X43655642Y-96618523D01*
X43608023Y-96713761D01*
X43512785Y-96761380D01*
X43417547Y-96761380D01*
X42322309Y-96761380D02*
X42322309Y-96094714D01*
X42322309Y-95761380D02*
X42369928Y-95809000D01*
X42322309Y-95856619D01*
X42274690Y-95809000D01*
X42322309Y-95761380D01*
X42322309Y-95856619D01*
X41846119Y-96094714D02*
X41846119Y-96761380D01*
X41846119Y-96189952D02*
X41798500Y-96142333D01*
X41703261Y-96094714D01*
X41560404Y-96094714D01*
X41465166Y-96142333D01*
X41417547Y-96237571D01*
X41417547Y-96761380D01*
X40322309Y-96094714D02*
X39941357Y-96094714D01*
X40179452Y-95761380D02*
X40179452Y-96618523D01*
X40131833Y-96713761D01*
X40036595Y-96761380D01*
X39941357Y-96761380D01*
X39608023Y-96761380D02*
X39608023Y-95761380D01*
X39179452Y-96761380D02*
X39179452Y-96237571D01*
X39227071Y-96142333D01*
X39322309Y-96094714D01*
X39465166Y-96094714D01*
X39560404Y-96142333D01*
X39608023Y-96189952D01*
X38322309Y-96713761D02*
X38417547Y-96761380D01*
X38608023Y-96761380D01*
X38703261Y-96713761D01*
X38750880Y-96618523D01*
X38750880Y-96237571D01*
X38703261Y-96142333D01*
X38608023Y-96094714D01*
X38417547Y-96094714D01*
X38322309Y-96142333D01*
X38274690Y-96237571D01*
X38274690Y-96332809D01*
X38750880Y-96428047D01*
X37084214Y-96761380D02*
X37084214Y-95761380D01*
X37084214Y-96142333D02*
X36988976Y-96094714D01*
X36798500Y-96094714D01*
X36703261Y-96142333D01*
X36655642Y-96189952D01*
X36608023Y-96285190D01*
X36608023Y-96570904D01*
X36655642Y-96666142D01*
X36703261Y-96713761D01*
X36798500Y-96761380D01*
X36988976Y-96761380D01*
X37084214Y-96713761D01*
X35750880Y-96761380D02*
X35750880Y-96237571D01*
X35798500Y-96142333D01*
X35893738Y-96094714D01*
X36084214Y-96094714D01*
X36179452Y-96142333D01*
X35750880Y-96713761D02*
X35846119Y-96761380D01*
X36084214Y-96761380D01*
X36179452Y-96713761D01*
X36227071Y-96618523D01*
X36227071Y-96523285D01*
X36179452Y-96428047D01*
X36084214Y-96380428D01*
X35846119Y-96380428D01*
X35750880Y-96332809D01*
X35274690Y-96761380D02*
X35274690Y-95761380D01*
X35179452Y-96380428D02*
X34893738Y-96761380D01*
X34893738Y-96094714D02*
X35274690Y-96475666D01*
X56560404Y-98371380D02*
X56560404Y-97371380D01*
X56560404Y-97752333D02*
X56465166Y-97704714D01*
X56274690Y-97704714D01*
X56179452Y-97752333D01*
X56131833Y-97799952D01*
X56084214Y-97895190D01*
X56084214Y-98180904D01*
X56131833Y-98276142D01*
X56179452Y-98323761D01*
X56274690Y-98371380D01*
X56465166Y-98371380D01*
X56560404Y-98323761D01*
X55227071Y-97704714D02*
X55227071Y-98371380D01*
X55655642Y-97704714D02*
X55655642Y-98228523D01*
X55608023Y-98323761D01*
X55512785Y-98371380D01*
X55369928Y-98371380D01*
X55274690Y-98323761D01*
X55227071Y-98276142D01*
X54893738Y-97704714D02*
X54512785Y-97704714D01*
X54750880Y-97371380D02*
X54750880Y-98228523D01*
X54703261Y-98323761D01*
X54608023Y-98371380D01*
X54512785Y-98371380D01*
X54322309Y-97704714D02*
X53941357Y-97704714D01*
X54179452Y-97371380D02*
X54179452Y-98228523D01*
X54131833Y-98323761D01*
X54036595Y-98371380D01*
X53941357Y-98371380D01*
X53465166Y-98371380D02*
X53560404Y-98323761D01*
X53608023Y-98276142D01*
X53655642Y-98180904D01*
X53655642Y-97895190D01*
X53608023Y-97799952D01*
X53560404Y-97752333D01*
X53465166Y-97704714D01*
X53322309Y-97704714D01*
X53227071Y-97752333D01*
X53179452Y-97799952D01*
X53131833Y-97895190D01*
X53131833Y-98180904D01*
X53179452Y-98276142D01*
X53227071Y-98323761D01*
X53322309Y-98371380D01*
X53465166Y-98371380D01*
X52703261Y-97704714D02*
X52703261Y-98371380D01*
X52703261Y-97799952D02*
X52655642Y-97752333D01*
X52560404Y-97704714D01*
X52417547Y-97704714D01*
X52322309Y-97752333D01*
X52274690Y-97847571D01*
X52274690Y-98371380D01*
X51846119Y-98323761D02*
X51750880Y-98371380D01*
X51560404Y-98371380D01*
X51465166Y-98323761D01*
X51417547Y-98228523D01*
X51417547Y-98180904D01*
X51465166Y-98085666D01*
X51560404Y-98038047D01*
X51703261Y-98038047D01*
X51798500Y-97990428D01*
X51846119Y-97895190D01*
X51846119Y-97847571D01*
X51798500Y-97752333D01*
X51703261Y-97704714D01*
X51560404Y-97704714D01*
X51465166Y-97752333D01*
X50988976Y-98276142D02*
X50941357Y-98323761D01*
X50988976Y-98371380D01*
X51036595Y-98323761D01*
X50988976Y-98276142D01*
X50988976Y-98371380D01*
X50988976Y-97752333D02*
X50941357Y-97799952D01*
X50988976Y-97847571D01*
X51036595Y-97799952D01*
X50988976Y-97752333D01*
X50988976Y-97847571D01*
X49608023Y-98371380D02*
X49703261Y-98323761D01*
X49750880Y-98228523D01*
X49750880Y-97371380D01*
X48798500Y-98371380D02*
X48798500Y-97847571D01*
X48846119Y-97752333D01*
X48941357Y-97704714D01*
X49131833Y-97704714D01*
X49227071Y-97752333D01*
X48798500Y-98323761D02*
X48893738Y-98371380D01*
X49131833Y-98371380D01*
X49227071Y-98323761D01*
X49274690Y-98228523D01*
X49274690Y-98133285D01*
X49227071Y-98038047D01*
X49131833Y-97990428D01*
X48893738Y-97990428D01*
X48798500Y-97942809D01*
X48417547Y-97704714D02*
X47893738Y-97704714D01*
X48417547Y-98371380D01*
X47893738Y-98371380D01*
X46988976Y-98371380D02*
X47560404Y-98371380D01*
X47274690Y-98371380D02*
X47274690Y-97371380D01*
X47369928Y-97514238D01*
X47465166Y-97609476D01*
X47560404Y-97657095D01*
X46131833Y-97371380D02*
X46322309Y-97371380D01*
X46417547Y-97419000D01*
X46465166Y-97466619D01*
X46560404Y-97609476D01*
X46608023Y-97799952D01*
X46608023Y-98180904D01*
X46560404Y-98276142D01*
X46512785Y-98323761D01*
X46417547Y-98371380D01*
X46227071Y-98371380D01*
X46131833Y-98323761D01*
X46084214Y-98276142D01*
X46036595Y-98180904D01*
X46036595Y-97942809D01*
X46084214Y-97847571D01*
X46131833Y-97799952D01*
X46227071Y-97752333D01*
X46417547Y-97752333D01*
X46512785Y-97799952D01*
X46560404Y-97847571D01*
X46608023Y-97942809D01*
X45608023Y-97990428D02*
X44846119Y-97990428D01*
X43846119Y-98371380D02*
X44417547Y-98371380D01*
X44131833Y-98371380D02*
X44131833Y-97371380D01*
X44227071Y-97514238D01*
X44322309Y-97609476D01*
X44417547Y-97657095D01*
X42893738Y-98371380D02*
X43465166Y-98371380D01*
X43179452Y-98371380D02*
X43179452Y-97371380D01*
X43274690Y-97514238D01*
X43369928Y-97609476D01*
X43465166Y-97657095D01*
%TO.C,BT1*%
X71666071Y-59214285D02*
X71713690Y-59357142D01*
X71761309Y-59404761D01*
X71856547Y-59452380D01*
X71999404Y-59452380D01*
X72094642Y-59404761D01*
X72142261Y-59357142D01*
X72189880Y-59261904D01*
X72189880Y-58880952D01*
X71189880Y-58880952D01*
X71189880Y-59214285D01*
X71237500Y-59309523D01*
X71285119Y-59357142D01*
X71380357Y-59404761D01*
X71475595Y-59404761D01*
X71570833Y-59357142D01*
X71618452Y-59309523D01*
X71666071Y-59214285D01*
X71666071Y-58880952D01*
X71189880Y-59738095D02*
X71189880Y-60309523D01*
X72189880Y-60023809D02*
X71189880Y-60023809D01*
X72189880Y-61166666D02*
X72189880Y-60595238D01*
X72189880Y-60880952D02*
X71189880Y-60880952D01*
X71332738Y-60785714D01*
X71427976Y-60690476D01*
X71475595Y-60595238D01*
X61734642Y-70223571D02*
X61734642Y-71366428D01*
X62306071Y-70795000D02*
X61163214Y-70795000D01*
X31939642Y-70578571D02*
X31939642Y-71721428D01*
X32511071Y-71150000D02*
X31368214Y-71150000D01*
X31939642Y-48988571D02*
X31939642Y-50131428D01*
X18349642Y-48988571D02*
X18349642Y-50131428D01*
X18921071Y-49560000D02*
X17778214Y-49560000D01*
X69322142Y-87693571D02*
X69322142Y-88836428D01*
X69893571Y-88265000D02*
X68750714Y-88265000D01*
X66444642Y-87528571D02*
X66444642Y-88671428D01*
X67016071Y-88100000D02*
X65873214Y-88100000D01*
X48144642Y-70223571D02*
X48144642Y-71366428D01*
X59444642Y-87528571D02*
X59444642Y-88671428D01*
X18349642Y-70578571D02*
X18349642Y-71721428D01*
X61734642Y-48633571D02*
X61734642Y-49776428D01*
%TO.C,connect_for_vcc_as_common_anode1*%
X71778761Y-29021142D02*
X71826380Y-28925904D01*
X71826380Y-28735428D01*
X71778761Y-28640190D01*
X71731142Y-28592571D01*
X71635904Y-28544952D01*
X71350190Y-28544952D01*
X71254952Y-28592571D01*
X71207333Y-28640190D01*
X71159714Y-28735428D01*
X71159714Y-28925904D01*
X71207333Y-29021142D01*
X71826380Y-29592571D02*
X71778761Y-29497333D01*
X71731142Y-29449714D01*
X71635904Y-29402095D01*
X71350190Y-29402095D01*
X71254952Y-29449714D01*
X71207333Y-29497333D01*
X71159714Y-29592571D01*
X71159714Y-29735428D01*
X71207333Y-29830666D01*
X71254952Y-29878285D01*
X71350190Y-29925904D01*
X71635904Y-29925904D01*
X71731142Y-29878285D01*
X71778761Y-29830666D01*
X71826380Y-29735428D01*
X71826380Y-29592571D01*
X71159714Y-30354476D02*
X71826380Y-30354476D01*
X71254952Y-30354476D02*
X71207333Y-30402095D01*
X71159714Y-30497333D01*
X71159714Y-30640190D01*
X71207333Y-30735428D01*
X71302571Y-30783047D01*
X71826380Y-30783047D01*
X71159714Y-31259238D02*
X71826380Y-31259238D01*
X71254952Y-31259238D02*
X71207333Y-31306857D01*
X71159714Y-31402095D01*
X71159714Y-31544952D01*
X71207333Y-31640190D01*
X71302571Y-31687809D01*
X71826380Y-31687809D01*
X71778761Y-32544952D02*
X71826380Y-32449714D01*
X71826380Y-32259238D01*
X71778761Y-32164000D01*
X71683523Y-32116380D01*
X71302571Y-32116380D01*
X71207333Y-32164000D01*
X71159714Y-32259238D01*
X71159714Y-32449714D01*
X71207333Y-32544952D01*
X71302571Y-32592571D01*
X71397809Y-32592571D01*
X71493047Y-32116380D01*
X71778761Y-33449714D02*
X71826380Y-33354476D01*
X71826380Y-33164000D01*
X71778761Y-33068761D01*
X71731142Y-33021142D01*
X71635904Y-32973523D01*
X71350190Y-32973523D01*
X71254952Y-33021142D01*
X71207333Y-33068761D01*
X71159714Y-33164000D01*
X71159714Y-33354476D01*
X71207333Y-33449714D01*
X71159714Y-33735428D02*
X71159714Y-34116380D01*
X70826380Y-33878285D02*
X71683523Y-33878285D01*
X71778761Y-33925904D01*
X71826380Y-34021142D01*
X71826380Y-34116380D01*
X71921619Y-34211619D02*
X71921619Y-34973523D01*
X71159714Y-35068761D02*
X71159714Y-35449714D01*
X71826380Y-35211619D02*
X70969238Y-35211619D01*
X70874000Y-35259238D01*
X70826380Y-35354476D01*
X70826380Y-35449714D01*
X71826380Y-35925904D02*
X71778761Y-35830666D01*
X71731142Y-35783047D01*
X71635904Y-35735428D01*
X71350190Y-35735428D01*
X71254952Y-35783047D01*
X71207333Y-35830666D01*
X71159714Y-35925904D01*
X71159714Y-36068761D01*
X71207333Y-36164000D01*
X71254952Y-36211619D01*
X71350190Y-36259238D01*
X71635904Y-36259238D01*
X71731142Y-36211619D01*
X71778761Y-36164000D01*
X71826380Y-36068761D01*
X71826380Y-35925904D01*
X71826380Y-36687809D02*
X71159714Y-36687809D01*
X71350190Y-36687809D02*
X71254952Y-36735428D01*
X71207333Y-36783047D01*
X71159714Y-36878285D01*
X71159714Y-36973523D01*
X71921619Y-37068761D02*
X71921619Y-37830666D01*
X71159714Y-37973523D02*
X71826380Y-38211619D01*
X71159714Y-38449714D01*
X71778761Y-39259238D02*
X71826380Y-39164000D01*
X71826380Y-38973523D01*
X71778761Y-38878285D01*
X71731142Y-38830666D01*
X71635904Y-38783047D01*
X71350190Y-38783047D01*
X71254952Y-38830666D01*
X71207333Y-38878285D01*
X71159714Y-38973523D01*
X71159714Y-39164000D01*
X71207333Y-39259238D01*
X71778761Y-40116380D02*
X71826380Y-40021142D01*
X71826380Y-39830666D01*
X71778761Y-39735428D01*
X71731142Y-39687809D01*
X71635904Y-39640190D01*
X71350190Y-39640190D01*
X71254952Y-39687809D01*
X71207333Y-39735428D01*
X71159714Y-39830666D01*
X71159714Y-40021142D01*
X71207333Y-40116380D01*
X71921619Y-40306857D02*
X71921619Y-41068761D01*
X71826380Y-41735428D02*
X71302571Y-41735428D01*
X71207333Y-41687809D01*
X71159714Y-41592571D01*
X71159714Y-41402095D01*
X71207333Y-41306857D01*
X71778761Y-41735428D02*
X71826380Y-41640190D01*
X71826380Y-41402095D01*
X71778761Y-41306857D01*
X71683523Y-41259238D01*
X71588285Y-41259238D01*
X71493047Y-41306857D01*
X71445428Y-41402095D01*
X71445428Y-41640190D01*
X71397809Y-41735428D01*
X71778761Y-42163999D02*
X71826380Y-42259238D01*
X71826380Y-42449714D01*
X71778761Y-42544952D01*
X71683523Y-42592571D01*
X71635904Y-42592571D01*
X71540666Y-42544952D01*
X71493047Y-42449714D01*
X71493047Y-42306857D01*
X71445428Y-42211619D01*
X71350190Y-42163999D01*
X71302571Y-42163999D01*
X71207333Y-42211619D01*
X71159714Y-42306857D01*
X71159714Y-42449714D01*
X71207333Y-42544952D01*
X71921619Y-42783047D02*
X71921619Y-43544952D01*
X71778761Y-44211619D02*
X71826380Y-44116380D01*
X71826380Y-43925904D01*
X71778761Y-43830666D01*
X71731142Y-43783047D01*
X71635904Y-43735428D01*
X71350190Y-43735428D01*
X71254952Y-43783047D01*
X71207333Y-43830666D01*
X71159714Y-43925904D01*
X71159714Y-44116380D01*
X71207333Y-44211619D01*
X71826380Y-44783047D02*
X71778761Y-44687809D01*
X71731142Y-44640190D01*
X71635904Y-44592571D01*
X71350190Y-44592571D01*
X71254952Y-44640190D01*
X71207333Y-44687809D01*
X71159714Y-44783047D01*
X71159714Y-44925904D01*
X71207333Y-45021142D01*
X71254952Y-45068761D01*
X71350190Y-45116380D01*
X71635904Y-45116380D01*
X71731142Y-45068761D01*
X71778761Y-45021142D01*
X71826380Y-44925904D01*
X71826380Y-44783047D01*
X71826380Y-45544952D02*
X71159714Y-45544952D01*
X71254952Y-45544952D02*
X71207333Y-45592571D01*
X71159714Y-45687809D01*
X71159714Y-45830666D01*
X71207333Y-45925904D01*
X71302571Y-45973523D01*
X71826380Y-45973523D01*
X71302571Y-45973523D02*
X71207333Y-46021142D01*
X71159714Y-46116380D01*
X71159714Y-46259238D01*
X71207333Y-46354476D01*
X71302571Y-46402095D01*
X71826380Y-46402095D01*
X71826380Y-46878285D02*
X71159714Y-46878285D01*
X71254952Y-46878285D02*
X71207333Y-46925904D01*
X71159714Y-47021142D01*
X71159714Y-47163999D01*
X71207333Y-47259238D01*
X71302571Y-47306857D01*
X71826380Y-47306857D01*
X71302571Y-47306857D02*
X71207333Y-47354476D01*
X71159714Y-47449714D01*
X71159714Y-47592571D01*
X71207333Y-47687809D01*
X71302571Y-47735428D01*
X71826380Y-47735428D01*
X71826380Y-48354476D02*
X71778761Y-48259238D01*
X71731142Y-48211619D01*
X71635904Y-48163999D01*
X71350190Y-48163999D01*
X71254952Y-48211619D01*
X71207333Y-48259238D01*
X71159714Y-48354476D01*
X71159714Y-48497333D01*
X71207333Y-48592571D01*
X71254952Y-48640190D01*
X71350190Y-48687809D01*
X71635904Y-48687809D01*
X71731142Y-48640190D01*
X71778761Y-48592571D01*
X71826380Y-48497333D01*
X71826380Y-48354476D01*
X71159714Y-49116380D02*
X71826380Y-49116380D01*
X71254952Y-49116380D02*
X71207333Y-49163999D01*
X71159714Y-49259238D01*
X71159714Y-49402095D01*
X71207333Y-49497333D01*
X71302571Y-49544952D01*
X71826380Y-49544952D01*
X71921619Y-49783047D02*
X71921619Y-50544952D01*
X71826380Y-51211619D02*
X71302571Y-51211619D01*
X71207333Y-51163999D01*
X71159714Y-51068761D01*
X71159714Y-50878285D01*
X71207333Y-50783047D01*
X71778761Y-51211619D02*
X71826380Y-51116380D01*
X71826380Y-50878285D01*
X71778761Y-50783047D01*
X71683523Y-50735428D01*
X71588285Y-50735428D01*
X71493047Y-50783047D01*
X71445428Y-50878285D01*
X71445428Y-51116380D01*
X71397809Y-51211619D01*
X71159714Y-51687809D02*
X71826380Y-51687809D01*
X71254952Y-51687809D02*
X71207333Y-51735428D01*
X71159714Y-51830666D01*
X71159714Y-51973523D01*
X71207333Y-52068761D01*
X71302571Y-52116380D01*
X71826380Y-52116380D01*
X71826380Y-52735428D02*
X71778761Y-52640190D01*
X71731142Y-52592571D01*
X71635904Y-52544952D01*
X71350190Y-52544952D01*
X71254952Y-52592571D01*
X71207333Y-52640190D01*
X71159714Y-52735428D01*
X71159714Y-52878285D01*
X71207333Y-52973523D01*
X71254952Y-53021142D01*
X71350190Y-53068761D01*
X71635904Y-53068761D01*
X71731142Y-53021142D01*
X71778761Y-52973523D01*
X71826380Y-52878285D01*
X71826380Y-52735428D01*
X71826380Y-53925904D02*
X70826380Y-53925904D01*
X71778761Y-53925904D02*
X71826380Y-53830666D01*
X71826380Y-53640190D01*
X71778761Y-53544952D01*
X71731142Y-53497333D01*
X71635904Y-53449714D01*
X71350190Y-53449714D01*
X71254952Y-53497333D01*
X71207333Y-53544952D01*
X71159714Y-53640190D01*
X71159714Y-53830666D01*
X71207333Y-53925904D01*
X71778761Y-54783047D02*
X71826380Y-54687809D01*
X71826380Y-54497333D01*
X71778761Y-54402095D01*
X71683523Y-54354476D01*
X71302571Y-54354476D01*
X71207333Y-54402095D01*
X71159714Y-54497333D01*
X71159714Y-54687809D01*
X71207333Y-54783047D01*
X71302571Y-54830666D01*
X71397809Y-54830666D01*
X71493047Y-54354476D01*
X71826380Y-55783047D02*
X71826380Y-55211619D01*
X71826380Y-55497333D02*
X70826380Y-55497333D01*
X70969238Y-55402095D01*
X71064476Y-55306857D01*
X71112095Y-55211619D01*
%TO.C,T4*%
X48894904Y-31456380D02*
X48323476Y-31456380D01*
X48609190Y-32456380D02*
X48609190Y-31456380D01*
X47561571Y-31789714D02*
X47561571Y-32456380D01*
X47799666Y-31408761D02*
X48037761Y-32123047D01*
X47418714Y-32123047D01*
D11*
%TO.C,BT1*%
X19512500Y-50830000D02*
X19512500Y-52100000D01*
X62897500Y-69525000D02*
X62897500Y-68255000D01*
X34372500Y-68610000D02*
X34372500Y-50830000D01*
X45497500Y-69525000D02*
X45497500Y-51745000D01*
X30562500Y-68610000D02*
X30562500Y-69880000D01*
X33102500Y-68610000D02*
X34372500Y-68610000D01*
X34372500Y-50830000D02*
X29292500Y-50830000D01*
X16972500Y-52100000D02*
X16972500Y-50830000D01*
X15702500Y-69880000D02*
X15702500Y-52100000D01*
X16972500Y-50830000D02*
X19512500Y-50830000D01*
X60357500Y-69525000D02*
X62897500Y-69525000D01*
X59087500Y-50475000D02*
X59087500Y-68255000D01*
X30562500Y-69880000D02*
X33102500Y-69880000D01*
X64167500Y-68255000D02*
X64167500Y-50475000D01*
X29292500Y-68610000D02*
X30562500Y-68610000D01*
X7337500Y-31100000D02*
X70337500Y-31100000D01*
X19512500Y-52100000D02*
X20782500Y-52100000D01*
X49307500Y-51745000D02*
X50577500Y-51745000D01*
X70337500Y-31100000D02*
X70337500Y-89100000D01*
X62897500Y-68255000D02*
X64167500Y-68255000D01*
X46767500Y-51745000D02*
X46767500Y-50475000D01*
X29292500Y-50830000D02*
X29292500Y-68610000D01*
X7337500Y-31100000D02*
X7337500Y-89100000D01*
X45497500Y-51745000D02*
X46767500Y-51745000D01*
X50577500Y-51745000D02*
X50577500Y-69525000D01*
X20782500Y-69880000D02*
X15702500Y-69880000D01*
X20782500Y-52100000D02*
X20782500Y-69880000D01*
X59087500Y-68255000D02*
X60357500Y-68255000D01*
X49307500Y-50475000D02*
X49307500Y-51745000D01*
X46767500Y-50475000D02*
X49307500Y-50475000D01*
X64167500Y-50475000D02*
X59087500Y-50475000D01*
X50577500Y-69525000D02*
X45497500Y-69525000D01*
X70337500Y-89100000D02*
X7337500Y-89100000D01*
X60357500Y-68255000D02*
X60357500Y-69525000D01*
X15702500Y-52100000D02*
X16972500Y-52100000D01*
X33102500Y-69880000D02*
X33102500Y-68610000D01*
D12*
%TO.C,connect_for_vcc_as_common_anode1*%
X73395000Y-40259000D02*
X73395000Y-39759000D01*
X73395000Y-40259000D02*
X73395000Y-40759000D01*
X74595000Y-42859000D02*
X73995000Y-42859000D01*
X75195000Y-40259000D02*
X75195000Y-39759000D01*
X75195000Y-40259000D02*
X75195000Y-40759000D01*
X74595000Y-37659000D02*
X73995000Y-37659000D01*
D11*
%TO.C,T4*%
X45403600Y-31091000D02*
X49493000Y-31091000D01*
X49518400Y-28091000D02*
X45403600Y-28091000D01*
%TD*%
M02*
