%TF.GenerationSoftware,KiCad,Pcbnew,(6.0.0)*%
%TF.CreationDate,2023-02-05T23:33:58-08:00*%
%TF.ProjectId,button_pcb,62757474-6f6e-45f7-9063-622e6b696361,rev?*%
%TF.SameCoordinates,Original*%
%TF.FileFunction,Soldermask,Top*%
%TF.FilePolarity,Negative*%
%FSLAX46Y46*%
G04 Gerber Fmt 4.6, Leading zero omitted, Abs format (unit mm)*
G04 Created by KiCad (PCBNEW (6.0.0)) date 2023-02-05 23:33:58*
%MOMM*%
%LPD*%
G01*
G04 APERTURE LIST*
%ADD10C,2.000000*%
%ADD11R,4.600000X3.300000*%
%ADD12R,4.600000X3.800000*%
%ADD13R,4.800000X3.100000*%
%ADD14C,4.300000*%
%ADD15O,1.700000X2.700000*%
%ADD16R,1.500000X1.500000*%
%ADD17C,1.500000*%
%ADD18R,1.200000X2.000000*%
%ADD19O,1.200000X2.000000*%
G04 APERTURE END LIST*
D10*
%TO.C,S8*%
X69000000Y-76750000D03*
D11*
X69000000Y-73988000D03*
D12*
X64000000Y-74238000D03*
X74000000Y-74238000D03*
D13*
X69000000Y-70338000D03*
D11*
X69000000Y-81988000D03*
%TD*%
D14*
%TO.C,H6*%
X72000000Y-32400000D03*
%TD*%
D10*
%TO.C,S1*%
X9000000Y-53250000D03*
D11*
X9000000Y-50488000D03*
D12*
X4000000Y-50738000D03*
X14000000Y-50738000D03*
D13*
X9000000Y-46838000D03*
D11*
X9000000Y-58488000D03*
%TD*%
D14*
%TO.C,H5*%
X6000000Y-32400000D03*
%TD*%
D10*
%TO.C,S4*%
X69000000Y-53250000D03*
D11*
X69000000Y-50488000D03*
D12*
X64000000Y-50738000D03*
X74000000Y-50738000D03*
D13*
X69000000Y-46838000D03*
D11*
X69000000Y-58488000D03*
%TD*%
D15*
%TO.C,JPowerBankAsBattery1*%
X62103000Y-34221720D03*
X54803000Y-29711000D03*
X54803000Y-34221720D03*
X62103000Y-29711000D03*
%TD*%
D14*
%TO.C,H8*%
X20000000Y-86500000D03*
%TD*%
D10*
%TO.C,S7*%
X49000000Y-76750000D03*
D11*
X49000000Y-73988000D03*
D12*
X44000000Y-74238000D03*
X54000000Y-74238000D03*
D13*
X49000000Y-70338000D03*
D11*
X49000000Y-81988000D03*
%TD*%
D16*
%TO.C,T2*%
X30480000Y-38020000D03*
D17*
X33020000Y-38020000D03*
X35560000Y-38020000D03*
X38100000Y-38020000D03*
X40640000Y-38020000D03*
X43180000Y-38020000D03*
X45720000Y-38020000D03*
X48260000Y-38020000D03*
%TD*%
D16*
%TO.C,T1*%
X50800000Y-38020000D03*
D17*
X53340000Y-38020000D03*
X55880000Y-38020000D03*
X58420000Y-38020000D03*
X60960000Y-38020000D03*
X63500000Y-38020000D03*
X66040000Y-38020000D03*
X68580000Y-38020000D03*
%TD*%
D10*
%TO.C,S5*%
X9000000Y-76750000D03*
D11*
X9000000Y-73988000D03*
D12*
X4000000Y-74238000D03*
X14000000Y-74238000D03*
D13*
X9000000Y-70338000D03*
D11*
X9000000Y-81988000D03*
%TD*%
D10*
%TO.C,S2*%
X29000000Y-53250000D03*
D11*
X29000000Y-50488000D03*
D12*
X24000000Y-50738000D03*
X34000000Y-50738000D03*
D13*
X29000000Y-46838000D03*
D11*
X29000000Y-58488000D03*
%TD*%
D10*
%TO.C,S6*%
X29000000Y-76750000D03*
D11*
X29000000Y-73988000D03*
D12*
X24000000Y-74238000D03*
X34000000Y-74238000D03*
D13*
X29000000Y-70338000D03*
D11*
X29000000Y-81988000D03*
%TD*%
D16*
%TO.C,T3*%
X10160000Y-38020000D03*
D17*
X12700000Y-38020000D03*
X15240000Y-38020000D03*
X17780000Y-38020000D03*
X20320000Y-38020000D03*
X22860000Y-38020000D03*
X25400000Y-38020000D03*
X27940000Y-38020000D03*
%TD*%
D10*
%TO.C,S3*%
X49000000Y-53250000D03*
D11*
X49000000Y-50488000D03*
D12*
X44000000Y-50738000D03*
X54000000Y-50738000D03*
D13*
X49000000Y-46838000D03*
D11*
X49000000Y-58488000D03*
%TD*%
D14*
%TO.C,H7*%
X58000000Y-86500000D03*
%TD*%
D18*
%TO.C,T4*%
X46038600Y-29591000D03*
D19*
X48578600Y-29591000D03*
%TD*%
M02*
