M48
; DRILL file {KiCad (6.0.0)} date Sun Feb  5 23:33:55 2023
; FORMAT={-:-/ absolute / inch / decimal}
; #@! TF.CreationDate,2023-02-05T23:33:55-08:00
; #@! TF.GenerationSoftware,Kicad,Pcbnew,(6.0.0)
; #@! TF.FileFunction,Plated,1,2,PTH
FMAT,2
INCH
; #@! TA.AperFunction,Plated,PTH,ViaDrill
T1C0.0157
; #@! TA.AperFunction,Plated,PTH,ComponentDrill
T2C0.0276
; #@! TA.AperFunction,Plated,PTH,ComponentDrill
T3C0.0315
; #@! TA.AperFunction,Plated,PTH,ComponentDrill
T4C0.0866
%
G90
G05
T1
X0.8199Y-1.8401
X1.535Y-2.13
X1.555Y-2.77
X1.555Y-3.0
X1.5591Y-2.1685
X1.705Y-2.115
X2.6525Y-2.6025
T3
X0.4Y-1.4969
X0.5Y-1.4969
X0.6Y-1.4969
X0.7Y-1.4969
X0.8Y-1.4969
X0.9Y-1.4969
X1.0Y-1.4969
X1.1Y-1.4969
X1.2Y-1.4969
X1.3Y-1.4969
X1.4Y-1.4969
X1.5Y-1.4969
X1.6Y-1.4969
X1.7Y-1.4969
X1.8Y-1.4969
X1.8125Y-1.165
X1.9Y-1.4969
X1.9125Y-1.165
X2.0Y-1.4969
X2.1Y-1.4969
X2.2Y-1.4969
X2.3Y-1.4969
X2.4Y-1.4969
X2.5Y-1.4969
X2.6Y-1.4969
X2.7Y-1.4969
T2
G00X2.1576Y-1.1461
M15
G01X2.1576Y-1.1933
M16
G05
G00X2.1576Y-1.3237
M15
G01X2.1576Y-1.3709
M16
G05
G00X2.2383Y-1.3685
M15
G01X2.2383Y-1.3685
M16
G05
G00X2.2698Y-1.3213
M15
G01X2.2698Y-1.3213
M16
G05
G00X2.3013Y-1.3685
M15
G01X2.3013Y-1.3685
M16
G05
G00X2.3328Y-1.3213
M15
G01X2.3328Y-1.3213
M16
G05
G00X2.3643Y-1.3685
M15
G01X2.3643Y-1.3685
M16
G05
G00X2.445Y-1.1461
M15
G01X2.445Y-1.1933
M16
G05
G00X2.445Y-1.3237
M15
G01X2.445Y-1.3709
M16
G05
T4
G00X0.1201Y-1.9779
M15
G01X0.1949Y-1.9779
M16
G05
G00X0.1201Y-2.9031
M15
G01X0.1949Y-2.9031
M16
G05
G00X0.3169Y-1.8401
M15
G01X0.3917Y-1.8401
M16
G05
G00X0.3169Y-1.9779
M15
G01X0.3917Y-1.9779
M16
G05
G00X0.3169Y-2.2928
M15
G01X0.3917Y-2.2928
M16
G05
G00X0.3169Y-2.7653
M15
G01X0.3917Y-2.7653
M16
G05
G00X0.3169Y-2.9031
M15
G01X0.3917Y-2.9031
M16
G05
G00X0.3169Y-3.218
M15
G01X0.3917Y-3.218
M16
G05
G00X0.5138Y-1.9779
M15
G01X0.5886Y-1.9779
M16
G05
G00X0.5138Y-2.9031
M15
G01X0.5886Y-2.9031
M16
G05
G00X0.9075Y-1.9779
M15
G01X0.9823Y-1.9779
M16
G05
G00X0.9075Y-2.9031
M15
G01X0.9823Y-2.9031
M16
G05
G00X1.1043Y-1.8401
M15
G01X1.1791Y-1.8401
M16
G05
G00X1.1043Y-1.9779
M15
G01X1.1791Y-1.9779
M16
G05
G00X1.1043Y-2.2928
M15
G01X1.1791Y-2.2928
M16
G05
G00X1.1043Y-2.7653
M15
G01X1.1791Y-2.7653
M16
G05
G00X1.1043Y-2.9031
M15
G01X1.1791Y-2.9031
M16
G05
G00X1.1043Y-3.218
M15
G01X1.1791Y-3.218
M16
G05
G00X1.3012Y-1.9779
M15
G01X1.376Y-1.9779
M16
G05
G00X1.3012Y-2.9031
M15
G01X1.376Y-2.9031
M16
G05
G00X1.6949Y-1.9779
M15
G01X1.7697Y-1.9779
M16
G05
G00X1.6949Y-2.9031
M15
G01X1.7697Y-2.9031
M16
G05
G00X1.8917Y-1.8401
M15
G01X1.9665Y-1.8401
M16
G05
G00X1.8917Y-1.9779
M15
G01X1.9665Y-1.9779
M16
G05
G00X1.8917Y-2.2928
M15
G01X1.9665Y-2.2928
M16
G05
G00X1.8917Y-2.7653
M15
G01X1.9665Y-2.7653
M16
G05
G00X1.8917Y-2.9031
M15
G01X1.9665Y-2.9031
M16
G05
G00X1.8917Y-3.218
M15
G01X1.9665Y-3.218
M16
G05
G00X2.0886Y-1.9779
M15
G01X2.1634Y-1.9779
M16
G05
G00X2.0886Y-2.9031
M15
G01X2.1634Y-2.9031
M16
G05
G00X2.4823Y-1.9779
M15
G01X2.5571Y-1.9779
M16
G05
G00X2.4823Y-2.9031
M15
G01X2.5571Y-2.9031
M16
G05
G00X2.6791Y-1.8401
M15
G01X2.7539Y-1.8401
M16
G05
G00X2.6791Y-1.9779
M15
G01X2.7539Y-1.9779
M16
G05
G00X2.6791Y-2.2928
M15
G01X2.7539Y-2.2928
M16
G05
G00X2.6791Y-2.7653
M15
G01X2.7539Y-2.7653
M16
G05
G00X2.6791Y-2.9031
M15
G01X2.7539Y-2.9031
M16
G05
G00X2.6791Y-3.218
M15
G01X2.7539Y-3.218
M16
G05
G00X2.876Y-1.9779
M15
G01X2.9508Y-1.9779
M16
G05
G00X2.876Y-2.9031
M15
G01X2.9508Y-2.9031
M16
G05
T0
M30
