%TF.GenerationSoftware,KiCad,Pcbnew,(6.0.0)*%
%TF.CreationDate,2023-02-05T23:33:58-08:00*%
%TF.ProjectId,button_pcb,62757474-6f6e-45f7-9063-622e6b696361,rev?*%
%TF.SameCoordinates,Original*%
%TF.FileFunction,Copper,L1,Top*%
%TF.FilePolarity,Positive*%
%FSLAX46Y46*%
G04 Gerber Fmt 4.6, Leading zero omitted, Abs format (unit mm)*
G04 Created by KiCad (PCBNEW (6.0.0)) date 2023-02-05 23:33:58*
%MOMM*%
%LPD*%
G01*
G04 APERTURE LIST*
%TA.AperFunction,ComponentPad*%
%ADD10R,4.600000X3.300000*%
%TD*%
%TA.AperFunction,ComponentPad*%
%ADD11R,4.600000X3.800000*%
%TD*%
%TA.AperFunction,ComponentPad*%
%ADD12R,4.800000X3.100000*%
%TD*%
%TA.AperFunction,ComponentPad*%
%ADD13O,1.100000X1.650000*%
%TD*%
%TA.AperFunction,ComponentPad*%
%ADD14O,1.700000X2.700000*%
%TD*%
%TA.AperFunction,ComponentPad*%
%ADD15R,1.500000X1.500000*%
%TD*%
%TA.AperFunction,ComponentPad*%
%ADD16C,1.500000*%
%TD*%
%TA.AperFunction,ComponentPad*%
%ADD17R,1.200000X2.000000*%
%TD*%
%TA.AperFunction,ComponentPad*%
%ADD18O,1.200000X2.000000*%
%TD*%
%TA.AperFunction,ViaPad*%
%ADD19C,0.800000*%
%TD*%
%TA.AperFunction,Conductor*%
%ADD20C,0.250000*%
%TD*%
G04 APERTURE END LIST*
D10*
%TO.P,S8,1,NO*%
%TO.N,VCC*%
X69000000Y-73988000D03*
D11*
%TO.P,S8,2,NC*%
%TO.N,GND*%
X64000000Y-74238000D03*
%TO.P,S8,3,C*%
%TO.N,Net-(S8-Pad3)*%
X74000000Y-74238000D03*
D12*
%TO.P,S8,4,LED_+*%
%TO.N,/common Anode*%
X69000000Y-70338000D03*
D10*
%TO.P,S8,5,LED_-*%
%TO.N,Net-(S8-Pad5)*%
X69000000Y-81988000D03*
%TD*%
%TO.P,S1,1,NO*%
%TO.N,Net-(S1-Pad1)*%
X9000000Y-50488000D03*
D11*
%TO.P,S1,2,NC*%
%TO.N,Net-(S1-Pad2)*%
X4000000Y-50738000D03*
%TO.P,S1,3,C*%
%TO.N,Net-(S1-Pad3)*%
X14000000Y-50738000D03*
D12*
%TO.P,S1,4,LED_+*%
%TO.N,/common Anode*%
X9000000Y-46838000D03*
D10*
%TO.P,S1,5,LED_-*%
%TO.N,Net-(S1-Pad5)*%
X9000000Y-58488000D03*
%TD*%
%TO.P,S4,1,NO*%
%TO.N,VCC*%
X69000000Y-50488000D03*
D11*
%TO.P,S4,2,NC*%
%TO.N,GND*%
X64000000Y-50738000D03*
%TO.P,S4,3,C*%
%TO.N,Net-(S4-Pad3)*%
X74000000Y-50738000D03*
D12*
%TO.P,S4,4,LED_+*%
%TO.N,/common Anode*%
X69000000Y-46838000D03*
D10*
%TO.P,S4,5,LED_-*%
%TO.N,Net-(S4-Pad5)*%
X69000000Y-58488000D03*
%TD*%
D13*
%TO.P,JPowerBankAsBattery1,1,GND*%
%TO.N,Net-(BT1-Pad2)*%
X56853000Y-35011000D03*
%TO.P,JPowerBankAsBattery1,2,ID*%
%TO.N,unconnected-(JPowerBankAsBattery1-Pad2)*%
X57653000Y-33311000D03*
%TO.P,JPowerBankAsBattery1,3,D+*%
%TO.N,unconnected-(JPowerBankAsBattery1-Pad3)*%
X58453000Y-35011000D03*
%TO.P,JPowerBankAsBattery1,4,D-*%
%TO.N,unconnected-(JPowerBankAsBattery1-Pad4)*%
X59253000Y-33311000D03*
%TO.P,JPowerBankAsBattery1,5,VBUS*%
%TO.N,Net-(BT1-Pad1)*%
X60053000Y-35011000D03*
D14*
%TO.P,JPowerBankAsBattery1,6,Shield*%
%TO.N,Net-(BT1-Pad2)*%
X62103000Y-34221720D03*
X54803000Y-29711000D03*
X54803000Y-34221720D03*
X62103000Y-29711000D03*
%TD*%
D10*
%TO.P,S7,1,NO*%
%TO.N,VCC*%
X49000000Y-73988000D03*
D11*
%TO.P,S7,2,NC*%
%TO.N,GND*%
X44000000Y-74238000D03*
%TO.P,S7,3,C*%
%TO.N,Net-(S7-Pad3)*%
X54000000Y-74238000D03*
D12*
%TO.P,S7,4,LED_+*%
%TO.N,/common Anode*%
X49000000Y-70338000D03*
D10*
%TO.P,S7,5,LED_-*%
%TO.N,Net-(S7-Pad5)*%
X49000000Y-81988000D03*
%TD*%
D15*
%TO.P,T2,1,1*%
%TO.N,Net-(S1-Pad5)*%
X30480000Y-38020000D03*
D16*
%TO.P,T2,2,2*%
%TO.N,Net-(S2-Pad5)*%
X33020000Y-38020000D03*
%TO.P,T2,3,3*%
%TO.N,Net-(S3-Pad5)*%
X35560000Y-38020000D03*
%TO.P,T2,4,4*%
%TO.N,Net-(S4-Pad5)*%
X38100000Y-38020000D03*
%TO.P,T2,5,5*%
%TO.N,Net-(S5-Pad5)*%
X40640000Y-38020000D03*
%TO.P,T2,6,6*%
%TO.N,Net-(S6-Pad5)*%
X43180000Y-38020000D03*
%TO.P,T2,7,7*%
%TO.N,Net-(S7-Pad5)*%
X45720000Y-38020000D03*
%TO.P,T2,8,8*%
%TO.N,Net-(S8-Pad5)*%
X48260000Y-38020000D03*
%TD*%
D15*
%TO.P,T1,1,1*%
%TO.N,GND*%
X50800000Y-38020000D03*
D16*
%TO.P,T1,2,2*%
%TO.N,VCC*%
X53340000Y-38020000D03*
%TO.P,T1,3,3*%
%TO.N,/common Anode*%
X55880000Y-38020000D03*
%TO.P,T1,4,4*%
%TO.N,Net-(BT1-Pad2)*%
X58420000Y-38020000D03*
%TO.P,T1,5,5*%
%TO.N,Net-(BT1-Pad1)*%
X60960000Y-38020000D03*
%TO.P,T1,6,6*%
%TO.N,Net-(S1-Pad2)*%
X63500000Y-38020000D03*
%TO.P,T1,7,7*%
%TO.N,Net-(S1-Pad3)*%
X66040000Y-38020000D03*
%TO.P,T1,8,8*%
%TO.N,Net-(S1-Pad1)*%
X68580000Y-38020000D03*
%TD*%
D10*
%TO.P,S5,1,NO*%
%TO.N,VCC*%
X9000000Y-73988000D03*
D11*
%TO.P,S5,2,NC*%
%TO.N,GND*%
X4000000Y-74238000D03*
%TO.P,S5,3,C*%
%TO.N,Net-(S5-Pad3)*%
X14000000Y-74238000D03*
D12*
%TO.P,S5,4,LED_+*%
%TO.N,/common Anode*%
X9000000Y-70338000D03*
D10*
%TO.P,S5,5,LED_-*%
%TO.N,Net-(S5-Pad5)*%
X9000000Y-81988000D03*
%TD*%
%TO.P,S2,1,NO*%
%TO.N,VCC*%
X29000000Y-50488000D03*
D11*
%TO.P,S2,2,NC*%
%TO.N,GND*%
X24000000Y-50738000D03*
%TO.P,S2,3,C*%
%TO.N,Net-(S2-Pad3)*%
X34000000Y-50738000D03*
D12*
%TO.P,S2,4,LED_+*%
%TO.N,/common Anode*%
X29000000Y-46838000D03*
D10*
%TO.P,S2,5,LED_-*%
%TO.N,Net-(S2-Pad5)*%
X29000000Y-58488000D03*
%TD*%
%TO.P,S6,1,NO*%
%TO.N,VCC*%
X29000000Y-73988000D03*
D11*
%TO.P,S6,2,NC*%
%TO.N,GND*%
X24000000Y-74238000D03*
%TO.P,S6,3,C*%
%TO.N,Net-(S6-Pad3)*%
X34000000Y-74238000D03*
D12*
%TO.P,S6,4,LED_+*%
%TO.N,/common Anode*%
X29000000Y-70338000D03*
D10*
%TO.P,S6,5,LED_-*%
%TO.N,Net-(S6-Pad5)*%
X29000000Y-81988000D03*
%TD*%
D15*
%TO.P,T3,1,1*%
%TO.N,unconnected-(T3-Pad1)*%
X10160000Y-38020000D03*
D16*
%TO.P,T3,2,2*%
%TO.N,Net-(S2-Pad3)*%
X12700000Y-38020000D03*
%TO.P,T3,3,3*%
%TO.N,Net-(S3-Pad3)*%
X15240000Y-38020000D03*
%TO.P,T3,4,4*%
%TO.N,Net-(S4-Pad3)*%
X17780000Y-38020000D03*
%TO.P,T3,5,5*%
%TO.N,Net-(S5-Pad3)*%
X20320000Y-38020000D03*
%TO.P,T3,6,6*%
%TO.N,Net-(S6-Pad3)*%
X22860000Y-38020000D03*
%TO.P,T3,7,7*%
%TO.N,Net-(S7-Pad3)*%
X25400000Y-38020000D03*
%TO.P,T3,8,8*%
%TO.N,Net-(S8-Pad3)*%
X27940000Y-38020000D03*
%TD*%
D10*
%TO.P,S3,1,NO*%
%TO.N,VCC*%
X49000000Y-50488000D03*
D11*
%TO.P,S3,2,NC*%
%TO.N,GND*%
X44000000Y-50738000D03*
%TO.P,S3,3,C*%
%TO.N,Net-(S3-Pad3)*%
X54000000Y-50738000D03*
D12*
%TO.P,S3,4,LED_+*%
%TO.N,/common Anode*%
X49000000Y-46838000D03*
D10*
%TO.P,S3,5,LED_-*%
%TO.N,Net-(S3-Pad5)*%
X49000000Y-58488000D03*
%TD*%
D17*
%TO.P,T4,1,1*%
%TO.N,Net-(BT1-Pad2)*%
X46038600Y-29591000D03*
D18*
%TO.P,T4,2,2*%
%TO.N,Net-(BT1-Pad1)*%
X48578600Y-29591000D03*
%TD*%
D19*
%TO.N,VCC*%
X38989000Y-54102000D03*
X43307000Y-53721000D03*
X39497000Y-76200000D03*
%TO.N,/common Anode*%
X39497000Y-70358000D03*
X67373500Y-66103500D03*
X20826000Y-46738000D03*
%TO.N,GND*%
X39600796Y-55080129D03*
%TD*%
D20*
%TO.N,VCC*%
X71624511Y-60709489D02*
X69350860Y-62983140D01*
X67625479Y-51612521D02*
X67625479Y-53819346D01*
X61396118Y-62983140D02*
X49000000Y-50587022D01*
X29000000Y-74087022D02*
X29000000Y-73738000D01*
X69000000Y-50238000D02*
X69000000Y-50587022D01*
X39497000Y-76200000D02*
X39234489Y-76462511D01*
X31375489Y-76462511D02*
X29000000Y-74087022D01*
X69000000Y-50587022D02*
X66624511Y-52962511D01*
X29000000Y-50587022D02*
X29000000Y-50238000D01*
X76624511Y-76462511D02*
X76624511Y-58930644D01*
X32514978Y-54102000D02*
X29000000Y-50587022D01*
X47625479Y-51961543D02*
X45866022Y-53721000D01*
X45866022Y-53721000D02*
X43815000Y-53721000D01*
X57658000Y-42338000D02*
X53340000Y-38020000D01*
X47625479Y-51612521D02*
X47625479Y-51961543D01*
X69000000Y-74087022D02*
X71375489Y-76462511D01*
X69000000Y-50238000D02*
X67625479Y-51612521D01*
X49000000Y-50587022D02*
X49000000Y-50238000D01*
X67625479Y-53819346D02*
X70319622Y-56513489D01*
X70319622Y-56513489D02*
X71624511Y-56513489D01*
X71375489Y-76462511D02*
X76624511Y-76462511D01*
X69350860Y-62983140D02*
X61396118Y-62983140D01*
X66624511Y-52962511D02*
X61375489Y-52962511D01*
X43815000Y-53721000D02*
X43307000Y-53721000D01*
X38989000Y-54102000D02*
X32514978Y-54102000D01*
X71624511Y-56513489D02*
X71624511Y-60709489D01*
X49000000Y-50238000D02*
X47625479Y-51612521D01*
X76624511Y-58930644D02*
X69000000Y-51306133D01*
X61375489Y-52962511D02*
X57658000Y-49245022D01*
X57658000Y-49245022D02*
X57658000Y-42338000D01*
X69000000Y-51306133D02*
X69000000Y-50238000D01*
X69000000Y-73738000D02*
X69000000Y-74087022D01*
X39234489Y-76462511D02*
X31375489Y-76462511D01*
%TO.N,/common Anode*%
X20826000Y-46738000D02*
X29000000Y-46738000D01*
X39250000Y-70238000D02*
X39370000Y-70358000D01*
X39370000Y-70358000D02*
X39497000Y-70358000D01*
X29000000Y-70238000D02*
X39250000Y-70238000D01*
X67373500Y-68611500D02*
X69000000Y-70238000D01*
X67373500Y-66103500D02*
X67373500Y-68611500D01*
%TO.N,Net-(S1-Pad3)*%
X36381194Y-36634490D02*
X35619193Y-35872489D01*
X62357000Y-39624000D02*
X62357000Y-37897411D01*
X16450807Y-35999489D02*
X16196807Y-35999489D01*
X16196807Y-35999489D02*
X15942807Y-36253489D01*
X7620000Y-38410978D02*
X7620000Y-39878000D01*
X35619193Y-35872489D02*
X16577807Y-35872489D01*
X16577807Y-35872489D02*
X16450807Y-35999489D01*
X62357000Y-37897411D02*
X61094079Y-36634490D01*
X9777489Y-36253489D02*
X7620000Y-38410978D01*
X61094079Y-36634490D02*
X36381194Y-36634490D01*
X14000000Y-46258000D02*
X14000000Y-50238000D01*
X64436000Y-39624000D02*
X62357000Y-39624000D01*
X7620000Y-39878000D02*
X14000000Y-46258000D01*
X66040000Y-38020000D02*
X64436000Y-39624000D01*
X15942807Y-36253489D02*
X9777489Y-36253489D01*
%TO.N,Net-(S2-Pad3)*%
X15388511Y-40708511D02*
X12700000Y-38020000D01*
X34000000Y-50238000D02*
X34000000Y-47335704D01*
X27372807Y-40708511D02*
X15388511Y-40708511D01*
X34000000Y-47335704D02*
X27372807Y-40708511D01*
%TO.N,Net-(S3-Pad3)*%
X37025489Y-38465078D02*
X37025489Y-37914489D01*
X41363553Y-42803142D02*
X37025489Y-38465078D01*
X37025489Y-37914489D02*
X36056489Y-36945489D01*
X44925489Y-44963489D02*
X41375489Y-48513489D01*
X41363553Y-48501553D02*
X41363553Y-42803142D01*
X51724511Y-44963489D02*
X44925489Y-44963489D01*
X41375489Y-48513489D02*
X41363553Y-48501553D01*
X51724511Y-44963489D02*
X51724511Y-47962511D01*
X16314511Y-36945489D02*
X15240000Y-38020000D01*
X51724511Y-47962511D02*
X54000000Y-50238000D01*
X36056489Y-36945489D02*
X16314511Y-36945489D01*
%TO.N,Net-(S4-Pad3)*%
X17780000Y-39080660D02*
X17780000Y-38020000D01*
X16601669Y-40258991D02*
X17780000Y-39080660D01*
X19039802Y-45879391D02*
X11625489Y-38465078D01*
X15574709Y-40258991D02*
X16601669Y-40258991D01*
X74862184Y-79443520D02*
X4356498Y-79443520D01*
X1375489Y-76462511D02*
X1375489Y-72013489D01*
X77074022Y-77231682D02*
X74862184Y-79443520D01*
X13145078Y-36945489D02*
X13774511Y-37574922D01*
X13774511Y-37574922D02*
X13774511Y-38458793D01*
X4356498Y-79443520D02*
X1375489Y-76462511D01*
X74000000Y-50238000D02*
X77074022Y-53312022D01*
X77074022Y-53312022D02*
X77074022Y-77231682D01*
X19039802Y-61604494D02*
X19039802Y-45879391D01*
X5375000Y-68013978D02*
X12630318Y-68013978D01*
X12254922Y-36945489D02*
X13145078Y-36945489D01*
X11625489Y-38465078D02*
X11625489Y-37574922D01*
X1375489Y-72013489D02*
X5375000Y-68013978D01*
X11625489Y-37574922D02*
X12254922Y-36945489D01*
X13774511Y-38458793D02*
X15574709Y-40258991D01*
X12630318Y-68013978D02*
X19039802Y-61604494D01*
%TO.N,Net-(S5-Pad3)*%
X19742600Y-73738000D02*
X37675970Y-55804630D01*
X28448000Y-40259000D02*
X22559000Y-40259000D01*
X39243000Y-51054000D02*
X28448000Y-40259000D01*
X39289099Y-53377499D02*
X39243000Y-53377499D01*
X39713501Y-53801901D02*
X39289099Y-53377499D01*
X39900895Y-55804630D02*
X40348501Y-55357024D01*
X22559000Y-40259000D02*
X20320000Y-38020000D01*
X37675970Y-55804630D02*
X39900895Y-55804630D01*
X39713501Y-54055901D02*
X39713501Y-53801901D01*
X40348501Y-55357024D02*
X40348501Y-54690901D01*
X40348501Y-54690901D02*
X39713501Y-54055901D01*
X39243000Y-53377499D02*
X39243000Y-51054000D01*
X14000000Y-73738000D02*
X19742600Y-73738000D01*
%TO.N,Net-(S6-Pad3)*%
X39978218Y-51153514D02*
X28507193Y-39682489D01*
X40163011Y-53615707D02*
X39978218Y-53430914D01*
X39978218Y-53430914D02*
X39978218Y-51153514D01*
X28507193Y-39682489D02*
X24522489Y-39682489D01*
X40163012Y-53869708D02*
X40163011Y-53615707D01*
X40798011Y-54504707D02*
X40163012Y-53869708D01*
X24522489Y-39682489D02*
X22860000Y-38020000D01*
X34000000Y-73738000D02*
X37141600Y-73738000D01*
X40798011Y-70081589D02*
X40798011Y-54504707D01*
X37141600Y-73738000D02*
X40798011Y-70081589D01*
%TO.N,Net-(S1-Pad2)*%
X4000000Y-41395274D02*
X10480295Y-34914979D01*
X61664980Y-36184980D02*
X63500000Y-38020000D01*
X4000000Y-50238000D02*
X4000000Y-41395274D01*
X10480295Y-34914979D02*
X35424387Y-34914979D01*
X36694387Y-36184979D02*
X61664980Y-36184980D01*
X35424387Y-34914979D02*
X36694387Y-36184979D01*
%TO.N,Net-(S7-Pad3)*%
X28693387Y-39232979D02*
X40427729Y-50967321D01*
X41247522Y-54318514D02*
X41247522Y-57986500D01*
X40427729Y-50967321D02*
X40427729Y-53244721D01*
X41247522Y-57986500D02*
X54000000Y-70738978D01*
X40612522Y-53683514D02*
X41247522Y-54318514D01*
X40612521Y-53429512D02*
X40612522Y-53683514D01*
X25400000Y-38020000D02*
X26612978Y-39232978D01*
X26612978Y-39232978D02*
X28693387Y-39232979D01*
X40427729Y-53244721D02*
X40612521Y-53429512D01*
X54000000Y-70738978D02*
X54000000Y-73738000D01*
%TO.N,Net-(S4-Pad5)*%
X44080489Y-44000489D02*
X51992171Y-44000489D01*
X57208490Y-49216808D02*
X57208490Y-51621194D01*
X57208490Y-51621194D02*
X63825296Y-58238000D01*
X51992171Y-44000489D02*
X57208490Y-49216808D01*
X63825296Y-58238000D02*
X69000000Y-58238000D01*
X38100000Y-38020000D02*
X44080489Y-44000489D01*
%TO.N,Net-(S8-Pad3)*%
X48912540Y-64411029D02*
X67672051Y-64411029D01*
X41062031Y-53243317D02*
X41062032Y-53497316D01*
X74000000Y-70738978D02*
X74000000Y-73738000D01*
X41062032Y-53497316D02*
X41697032Y-54132316D01*
X41697032Y-57195521D02*
X48912540Y-64411029D01*
X67672051Y-64411029D02*
X74000000Y-70738978D01*
X28116112Y-38020000D02*
X40877240Y-50781128D01*
X27940000Y-38020000D02*
X28116112Y-38020000D01*
X41697032Y-54132316D02*
X41697032Y-57195521D01*
X40877240Y-53058527D02*
X41062031Y-53243317D01*
X40877240Y-50781128D02*
X40877240Y-53058527D01*
%TO.N,Net-(BT1-Pad2)*%
X54803000Y-29711000D02*
X62103000Y-29711000D01*
%TO.N,Net-(S3-Pad5)*%
X41326750Y-52872332D02*
X41326750Y-50594934D01*
X41511542Y-53311118D02*
X41511541Y-53057122D01*
X49000000Y-58238000D02*
X46438424Y-58238000D01*
X35560000Y-44828184D02*
X35560000Y-38020000D01*
X41326750Y-50594934D02*
X35560000Y-44828184D01*
X41511541Y-53057122D02*
X41326750Y-52872332D01*
X46438424Y-58238000D02*
X41511542Y-53311118D01*
%TO.N,GND*%
X8386521Y-78124521D02*
X4000000Y-73738000D01*
X48386521Y-78124521D02*
X44000000Y-73738000D01*
X24000000Y-50238000D02*
X28880000Y-55118000D01*
X4000000Y-70738978D02*
X4000000Y-73738000D01*
X24000000Y-73738000D02*
X19613479Y-78124521D01*
X39562925Y-55118000D02*
X39600796Y-55080129D01*
X39613479Y-78124521D02*
X28386521Y-78124521D01*
X28880000Y-55118000D02*
X39562925Y-55118000D01*
X12816511Y-68463489D02*
X6275489Y-68463489D01*
X6275489Y-68463489D02*
X4000000Y-70738978D01*
X24000000Y-50238000D02*
X24000000Y-57280000D01*
X24000000Y-57280000D02*
X12816511Y-68463489D01*
X59613479Y-78124521D02*
X48386521Y-78124521D01*
X64000000Y-73738000D02*
X59613479Y-78124521D01*
X28386521Y-78124521D02*
X24000000Y-73738000D01*
X44000000Y-73738000D02*
X39613479Y-78124521D01*
X19613479Y-78124521D02*
X8386521Y-78124521D01*
%TO.N,Net-(S1-Pad1)*%
X62721480Y-32161480D02*
X68580000Y-38020000D01*
X12287816Y-32161480D02*
X1375489Y-43073807D01*
X6624511Y-52962511D02*
X9000000Y-50587022D01*
X9000000Y-50587022D02*
X9000000Y-50238000D01*
X12287816Y-32161480D02*
X62721480Y-32161480D01*
X1375489Y-52962511D02*
X6624511Y-52962511D01*
X1375489Y-43073807D02*
X1375489Y-52962511D01*
%TD*%
M02*
